<?xml version="1.0" encoding="UTF-8" standalone="no"?><svg xmlns="http://www.w3.org/2000/svg" xmlns:xlink="http://www.w3.org/1999/xlink" contentScriptType="application/ecmascript" contentStyleType="text/css" height="814px" preserveAspectRatio="none" style="width:1202px;height:814px;background:#FFFFFF;" version="1.1" viewBox="0 0 1202 814" width="1202px" zoomAndPan="magnify"><defs><filter height="300%" id="f1ei0r774svcad" width="300%" x="-1" y="-1"><feGaussianBlur result="blurOut" stdDeviation="2.0"/><feColorMatrix in="blurOut" result="blurOut2" type="matrix" values="0 0 0 0 0 0 0 0 0 0 0 0 0 0 0 0 0 0 .4 0"/><feOffset dx="4.0" dy="4.0" in="blurOut2" result="blurOut3"/><feBlend in="SourceGraphic" in2="blurOut3" mode="normal"/></filter></defs><g><!--MD5=[e274c4916ac42ef1c11391a83d303c10]
cluster asdi--><polygon fill="#FFFFFF" filter="url(#f1ei0r774svcad)" points="16,6,52,6,59,28.4883,885,28.4883,885,807,16,807,16,6" style="stroke:#000000;stroke-width:1.5;"/><line style="stroke:#000000;stroke-width:1.5;" x1="16" x2="59" y1="28.4883" y2="28.4883"/><text fill="#000000" font-family="sans-serif" font-size="14" font-weight="bold" lengthAdjust="spacing" textLength="30" x="20" y="21.5352">asdi</text><!--MD5=[6bc3af5db4038e5494ba0622f07de59b]
cluster asdi::edb--><polygon fill="#FFFFFF" filter="url(#f1ei0r774svcad)" points="40,49,72,49,79,71.4883,717,71.4883,717,712,40,712,40,49" style="stroke:#000000;stroke-width:1.5;"/><line style="stroke:#000000;stroke-width:1.5;" x1="40" x2="79" y1="71.4883" y2="71.4883"/><text fill="#000000" font-family="sans-serif" font-size="14" font-weight="bold" lengthAdjust="spacing" textLength="26" x="44" y="64.5352">edb</text><!--MD5=[331bdf5c2291f41e90a08533bcc43e12]
cluster asdi::idb::query--><polygon fill="#FFFFFF" filter="url(#f1ei0r774svcad)" points="909,66,1020,66,1027,88.4883,1033,88.4883,1033,168,909,168,909,66" style="stroke:#000000;stroke-width:1.5;"/><line style="stroke:#000000;stroke-width:1.5;" x1="909" x2="1027" y1="88.4883" y2="88.4883"/><text fill="#000000" font-family="sans-serif" font-size="14" font-weight="bold" lengthAdjust="spacing" textLength="105" x="913" y="81.5352">asdi::idb::query</text><!--MD5=[b33f2e4372094b15554e3bf4225fc453]
cluster asdi::edb::io--><polygon fill="#FFFFFF" filter="url(#f1ei0r774svcad)" points="1057,66,1145,66,1152,88.4883,1185,88.4883,1185,168,1057,168,1057,66" style="stroke:#000000;stroke-width:1.5;"/><line style="stroke:#000000;stroke-width:1.5;" x1="1057" x2="1152" y1="88.4883" y2="88.4883"/><text fill="#000000" font-family="sans-serif" font-size="14" font-weight="bold" lengthAdjust="spacing" textLength="82" x="1061" y="81.5352">asdi::edb::io</text><!--MD5=[2110a1d684b71e50a272297f2c09c595]
class asdi::AttributeName--><rect codeLine="4" fill="#FEFECE" filter="url(#f1ei0r774svcad)" height="32" id="asdi::AttributeName" style="stroke:#A80036;stroke-width:1.5;" width="116" x="297" y="759"/><ellipse cx="312" cy="775" fill="#B4A7E5" rx="11" ry="11" style="stroke:#A80036;stroke-width:1.0;"/><path d="M308.4277,771.2651 L308.4277,769.1069 L315.8071,769.1069 L315.8071,771.2651 L313.3418,771.2651 L313.3418,779.3418 L315.8071,779.3418 L315.8071,781.5 L308.4277,781.5 L308.4277,779.3418 L310.8931,779.3418 L310.8931,771.2651 Z " fill="#000000"/><text fill="#000000" font-family="sans-serif" font-size="12" font-style="italic" lengthAdjust="spacing" textLength="84" x="326" y="779.5352">AttributeName</text><!--MD5=[e8289714b7028f41fbfaeffd8c17c76d]
class asdi::Collection--><rect codeLine="7" fill="#FEFECE" filter="url(#f1ei0r774svcad)" height="32" id="asdi::Collection" style="stroke:#A80036;stroke-width:1.5;" width="99" x="39.5" y="759"/><ellipse cx="54.5" cy="775" fill="#B4A7E5" rx="11" ry="11" style="stroke:#A80036;stroke-width:1.0;"/><path d="M50.9277,771.2651 L50.9277,769.1069 L58.3071,769.1069 L58.3071,771.2651 L55.8418,771.2651 L55.8418,779.3418 L58.3071,779.3418 L58.3071,781.5 L50.9277,781.5 L50.9277,779.3418 L53.3931,779.3418 L53.3931,771.2651 Z " fill="#000000"/><text fill="#000000" font-family="sans-serif" font-size="12" font-style="italic" lengthAdjust="spacing" textLength="55" x="68.5" y="779.5352">Collection</text><rect fill="#FFFFFF" height="16.1328" style="stroke:#000000;stroke-width:1.0;stroke-dasharray:2.0,2.0;" width="10" x="131.5" y="756"/><text fill="#000000" font-family="sans-serif" font-size="12" font-style="italic" lengthAdjust="spacing" textLength="8" x="132.5" y="768.6016">T</text><!--MD5=[ee47b5577acc389a92c0b1543b9a2c9a]
class asdi::IndexedCollection--><rect codeLine="10" fill="#FEFECE" filter="url(#f1ei0r774svcad)" height="32" id="asdi::IndexedCollection" style="stroke:#A80036;stroke-width:1.5;" width="158" x="563" y="759"/><ellipse cx="578" cy="775" fill="#B4A7E5" rx="11" ry="11" style="stroke:#A80036;stroke-width:1.0;"/><path d="M574.4277,771.2651 L574.4277,769.1069 L581.8071,769.1069 L581.8071,771.2651 L579.3418,771.2651 L579.3418,779.3418 L581.8071,779.3418 L581.8071,781.5 L574.4277,781.5 L574.4277,779.3418 L576.8931,779.3418 L576.8931,771.2651 Z " fill="#000000"/><text fill="#000000" font-family="sans-serif" font-size="12" font-style="italic" lengthAdjust="spacing" textLength="102" x="592" y="779.5352">IndexedCollection</text><rect fill="#FFFFFF" height="16.1328" style="stroke:#000000;stroke-width:1.0;stroke-dasharray:2.0,2.0;" width="22" x="702" y="756"/><text fill="#000000" font-family="sans-serif" font-size="12" font-style="italic" lengthAdjust="spacing" textLength="20" x="703" y="768.6016">K,V</text><!--MD5=[a769fd774dc4e74f949d393dd195b319]
class asdi::Labeled--><rect codeLine="13" fill="#FEFECE" filter="url(#f1ei0r774svcad)" height="32" id="asdi::Labeled" style="stroke:#A80036;stroke-width:1.5;" width="78" x="174" y="759"/><ellipse cx="189" cy="775" fill="#B4A7E5" rx="11" ry="11" style="stroke:#A80036;stroke-width:1.0;"/><path d="M185.4277,771.2651 L185.4277,769.1069 L192.8071,769.1069 L192.8071,771.2651 L190.3418,771.2651 L190.3418,779.3418 L192.8071,779.3418 L192.8071,781.5 L185.4277,781.5 L185.4277,779.3418 L187.8931,779.3418 L187.8931,771.2651 Z " fill="#000000"/><text fill="#000000" font-family="sans-serif" font-size="12" font-style="italic" lengthAdjust="spacing" textLength="46" x="203" y="779.5352">Labeled</text><!--MD5=[a36ef1bdba718ac7a4b8a2af506f0d6e]
class asdi::MaybeAnonymous--><rect codeLine="16" fill="#FEFECE" filter="url(#f1ei0r774svcad)" height="32" id="asdi::MaybeAnonymous" style="stroke:#A80036;stroke-width:1.5;" width="136" x="733" y="369"/><ellipse cx="748" cy="385" fill="#B4A7E5" rx="11" ry="11" style="stroke:#A80036;stroke-width:1.0;"/><path d="M744.4277,381.2651 L744.4277,379.1069 L751.8071,379.1069 L751.8071,381.2651 L749.3418,381.2651 L749.3418,389.3418 L751.8071,389.3418 L751.8071,391.5 L744.4277,391.5 L744.4277,389.3418 L746.8931,389.3418 L746.8931,381.2651 Z " fill="#000000"/><text fill="#000000" font-family="sans-serif" font-size="12" font-style="italic" lengthAdjust="spacing" textLength="104" x="762" y="389.5352">MaybeAnonymous</text><!--MD5=[20c980c506d94534efc3bc917ca7a115]
class asdi::edb::Attribute--><rect codeLine="26" fill="#FEFECE" filter="url(#f1ei0r774svcad)" height="48" id="asdi::edb::Attribute" style="stroke:#A80036;stroke-width:1.5;" width="186" x="515" y="230"/><ellipse cx="530" cy="246" fill="#ADD1B2" rx="11" ry="11" style="stroke:#A80036;stroke-width:1.0;"/><path d="M532.4731,252.1431 Q531.8921,252.4419 531.2529,252.5913 Q530.6138,252.7407 529.9082,252.7407 Q527.4014,252.7407 526.0815,251.0889 Q524.7617,249.437 524.7617,246.3159 Q524.7617,243.1865 526.0815,241.5347 Q527.4014,239.8828 529.9082,239.8828 Q530.6138,239.8828 531.2612,240.0322 Q531.9087,240.1816 532.4731,240.4805 L532.4731,243.2031 Q531.8423,242.6221 531.2488,242.3523 Q530.6553,242.0825 530.0244,242.0825 Q528.6797,242.0825 527.9949,243.1492 Q527.3101,244.2158 527.3101,246.3159 Q527.3101,248.4077 527.9949,249.4744 Q528.6797,250.541 530.0244,250.541 Q530.6553,250.541 531.2488,250.2712 Q531.8423,250.0015 532.4731,249.4204 Z " fill="#000000"/><text fill="#000000" font-family="sans-serif" font-size="12" lengthAdjust="spacing" textLength="50" x="544" y="250.5352">Attribute</text><rect fill="#FFFFFF" height="16.1328" style="stroke:#000000;stroke-width:1.0;stroke-dasharray:2.0,2.0;" width="102" x="602" y="227"/><text fill="#000000" font-family="sans-serif" font-size="12" font-style="italic" lengthAdjust="spacing" textLength="100" x="603" y="239.6016">T: AttributeName</text><line style="stroke:#A80036;stroke-width:1.5;" x1="516" x2="700" y1="262" y2="262"/><line style="stroke:#A80036;stroke-width:1.5;" x1="516" x2="700" y1="270" y2="270"/><!--MD5=[b01c1280d4e10e5850c2de04b0afedc0]
class asdi::edb::Fact--><rect codeLine="27" fill="#FEFECE" filter="url(#f1ei0r774svcad)" height="48" id="asdi::edb::Fact" style="stroke:#A80036;stroke-width:1.5;" width="55" x="242.5" y="648"/><ellipse cx="257.5" cy="664" fill="#ADD1B2" rx="11" ry="11" style="stroke:#A80036;stroke-width:1.0;"/><path d="M259.9731,670.1431 Q259.3921,670.4419 258.7529,670.5913 Q258.1138,670.7407 257.4082,670.7407 Q254.9014,670.7407 253.5815,669.0889 Q252.2617,667.437 252.2617,664.3159 Q252.2617,661.1865 253.5815,659.5347 Q254.9014,657.8828 257.4082,657.8828 Q258.1138,657.8828 258.7612,658.0322 Q259.4087,658.1816 259.9731,658.4805 L259.9731,661.2031 Q259.3423,660.6221 258.7488,660.3523 Q258.1553,660.0825 257.5244,660.0825 Q256.1797,660.0825 255.4949,661.1492 Q254.8101,662.2158 254.8101,664.3159 Q254.8101,666.4077 255.4949,667.4744 Q256.1797,668.541 257.5244,668.541 Q258.1553,668.541 258.7488,668.2712 Q259.3423,668.0015 259.9731,667.4204 Z " fill="#000000"/><text fill="#000000" font-family="sans-serif" font-size="12" lengthAdjust="spacing" textLength="23" x="271.5" y="668.5352">Fact</text><line style="stroke:#A80036;stroke-width:1.5;" x1="243.5" x2="296.5" y1="680" y2="680"/><line style="stroke:#A80036;stroke-width:1.5;" x1="243.5" x2="296.5" y1="688" y2="688"/><!--MD5=[a5d376e5744e5d84d0764534baa4474d]
class asdi::edb::Predicate--><rect codeLine="28" fill="#FEFECE" filter="url(#f1ei0r774svcad)" height="48" id="asdi::edb::Predicate" style="stroke:#A80036;stroke-width:1.5;" width="86" x="333" y="648"/><ellipse cx="348" cy="664" fill="#ADD1B2" rx="11" ry="11" style="stroke:#A80036;stroke-width:1.0;"/><path d="M350.4731,670.1431 Q349.8921,670.4419 349.2529,670.5913 Q348.6138,670.7407 347.9082,670.7407 Q345.4014,670.7407 344.0815,669.0889 Q342.7617,667.437 342.7617,664.3159 Q342.7617,661.1865 344.0815,659.5347 Q345.4014,657.8828 347.9082,657.8828 Q348.6138,657.8828 349.2612,658.0322 Q349.9087,658.1816 350.4731,658.4805 L350.4731,661.2031 Q349.8423,660.6221 349.2488,660.3523 Q348.6553,660.0825 348.0244,660.0825 Q346.6797,660.0825 345.9949,661.1492 Q345.3101,662.2158 345.3101,664.3159 Q345.3101,666.4077 345.9949,667.4744 Q346.6797,668.541 348.0244,668.541 Q348.6553,668.541 349.2488,668.2712 Q349.8423,668.0015 350.4731,667.4204 Z " fill="#000000"/><text fill="#000000" font-family="sans-serif" font-size="12" lengthAdjust="spacing" textLength="54" x="362" y="668.5352">Predicate</text><line style="stroke:#A80036;stroke-width:1.5;" x1="334" x2="418" y1="680" y2="680"/><line style="stroke:#A80036;stroke-width:1.5;" x1="334" x2="418" y1="688" y2="688"/><!--MD5=[63be3a1481beaba15f9dd2bbcd4a53e1]
class asdi::edb::Relation--><rect codeLine="29" fill="#FEFECE" filter="url(#f1ei0r774svcad)" height="48" id="asdi::edb::Relation" style="stroke:#A80036;stroke-width:1.5;" width="78" x="402" y="230"/><ellipse cx="417" cy="246" fill="#ADD1B2" rx="11" ry="11" style="stroke:#A80036;stroke-width:1.0;"/><path d="M419.4731,252.1431 Q418.8921,252.4419 418.2529,252.5913 Q417.6138,252.7407 416.9082,252.7407 Q414.4014,252.7407 413.0815,251.0889 Q411.7617,249.437 411.7617,246.3159 Q411.7617,243.1865 413.0815,241.5347 Q414.4014,239.8828 416.9082,239.8828 Q417.6138,239.8828 418.2612,240.0322 Q418.9087,240.1816 419.4731,240.4805 L419.4731,243.2031 Q418.8423,242.6221 418.2488,242.3523 Q417.6553,242.0825 417.0244,242.0825 Q415.6797,242.0825 414.9949,243.1492 Q414.3101,244.2158 414.3101,246.3159 Q414.3101,248.4077 414.9949,249.4744 Q415.6797,250.541 417.0244,250.541 Q417.6553,250.541 418.2488,250.2712 Q418.8423,250.0015 419.4731,249.4204 Z " fill="#000000"/><text fill="#000000" font-family="sans-serif" font-size="12" lengthAdjust="spacing" textLength="46" x="431" y="250.5352">Relation</text><line style="stroke:#A80036;stroke-width:1.5;" x1="403" x2="479" y1="262" y2="262"/><line style="stroke:#A80036;stroke-width:1.5;" x1="403" x2="479" y1="270" y2="270"/><!--MD5=[6137f69857c1321f4d06c717c9c09db2]
class asdi::edb::RelationSet--><rect codeLine="30" fill="#FEFECE" filter="url(#f1ei0r774svcad)" height="48" id="asdi::edb::RelationSet" style="stroke:#A80036;stroke-width:1.5;" width="95" x="271.5" y="230"/><ellipse cx="286.5" cy="246" fill="#ADD1B2" rx="11" ry="11" style="stroke:#A80036;stroke-width:1.0;"/><path d="M288.9731,252.1431 Q288.3921,252.4419 287.7529,252.5913 Q287.1138,252.7407 286.4082,252.7407 Q283.9014,252.7407 282.5815,251.0889 Q281.2617,249.437 281.2617,246.3159 Q281.2617,243.1865 282.5815,241.5347 Q283.9014,239.8828 286.4082,239.8828 Q287.1138,239.8828 287.7612,240.0322 Q288.4087,240.1816 288.9731,240.4805 L288.9731,243.2031 Q288.3423,242.6221 287.7488,242.3523 Q287.1553,242.0825 286.5244,242.0825 Q285.1797,242.0825 284.4949,243.1492 Q283.8101,244.2158 283.8101,246.3159 Q283.8101,248.4077 284.4949,249.4744 Q285.1797,250.541 286.5244,250.541 Q287.1553,250.541 287.7488,250.2712 Q288.3423,250.0015 288.9731,249.4204 Z " fill="#000000"/><text fill="#000000" font-family="sans-serif" font-size="12" lengthAdjust="spacing" textLength="63" x="300.5" y="250.5352">RelationSet</text><line style="stroke:#A80036;stroke-width:1.5;" x1="272.5" x2="365.5" y1="262" y2="262"/><line style="stroke:#A80036;stroke-width:1.5;" x1="272.5" x2="365.5" y1="270" y2="270"/><!--MD5=[8ef57b1f3eaf719c194464ff4bed18b5]
class asdi::edb::Schema--><rect codeLine="31" fill="#FEFECE" filter="url(#f1ei0r774svcad)" height="48" id="asdi::edb::Schema" style="stroke:#A80036;stroke-width:1.5;" width="180" x="56" y="230"/><ellipse cx="71" cy="246" fill="#ADD1B2" rx="11" ry="11" style="stroke:#A80036;stroke-width:1.0;"/><path d="M73.4731,252.1431 Q72.8921,252.4419 72.2529,252.5913 Q71.6138,252.7407 70.9082,252.7407 Q68.4014,252.7407 67.0815,251.0889 Q65.7617,249.437 65.7617,246.3159 Q65.7617,243.1865 67.0815,241.5347 Q68.4014,239.8828 70.9082,239.8828 Q71.6138,239.8828 72.2612,240.0322 Q72.9087,240.1816 73.4731,240.4805 L73.4731,243.2031 Q72.8423,242.6221 72.2488,242.3523 Q71.6553,242.0825 71.0244,242.0825 Q69.6797,242.0825 68.9949,243.1492 Q68.3101,244.2158 68.3101,246.3159 Q68.3101,248.4077 68.9949,249.4744 Q69.6797,250.541 71.0244,250.541 Q71.6553,250.541 72.2488,250.2712 Q72.8423,250.0015 73.4731,249.4204 Z " fill="#000000"/><text fill="#000000" font-family="sans-serif" font-size="12" lengthAdjust="spacing" textLength="44" x="85" y="250.5352">Schema</text><rect fill="#FFFFFF" height="16.1328" style="stroke:#000000;stroke-width:1.0;stroke-dasharray:2.0,2.0;" width="102" x="137" y="227"/><text fill="#000000" font-family="sans-serif" font-size="12" font-style="italic" lengthAdjust="spacing" textLength="100" x="138" y="239.6016">T: AttributeName</text><line style="stroke:#A80036;stroke-width:1.5;" x1="57" x2="235" y1="262" y2="262"/><line style="stroke:#A80036;stroke-width:1.5;" x1="57" x2="235" y1="270" y2="270"/><!--MD5=[e47197a6f8839cb1272049bde0c10ea9]
class asdi::edb::Number--><rect codeLine="32" fill="#FEFECE" filter="url(#f1ei0r774svcad)" height="54.2656" id="asdi::edb::Number" style="stroke:#A80036;stroke-width:1.5;" width="84" x="503" y="504.5"/><ellipse cx="518" cy="523.6328" fill="#ADD1B2" rx="11" ry="11" style="stroke:#A80036;stroke-width:1.0;"/><path d="M520.4731,529.7759 Q519.8921,530.0747 519.2529,530.2241 Q518.6138,530.3735 517.9082,530.3735 Q515.4014,530.3735 514.0815,528.7217 Q512.7617,527.0698 512.7617,523.9487 Q512.7617,520.8193 514.0815,519.1675 Q515.4014,517.5156 517.9082,517.5156 Q518.6138,517.5156 519.2612,517.665 Q519.9087,517.8145 520.4731,518.1133 L520.4731,520.8359 Q519.8423,520.2549 519.2488,519.9851 Q518.6553,519.7153 518.0244,519.7153 Q516.6797,519.7153 515.9949,520.782 Q515.3101,521.8486 515.3101,523.9487 Q515.3101,526.0405 515.9949,527.1072 Q516.6797,528.1738 518.0244,528.1738 Q518.6553,528.1738 519.2488,527.9041 Q519.8423,527.6343 520.4731,527.0532 Z " fill="#000000"/><text fill="#000000" font-family="sans-serif" font-size="12" font-style="italic" lengthAdjust="spacing" textLength="56" x="530" y="521.1016">«opaque»</text><text fill="#000000" font-family="sans-serif" font-size="12" lengthAdjust="spacing" textLength="47" x="534.5" y="535.2344">Number</text><line style="stroke:#A80036;stroke-width:1.5;" x1="504" x2="586" y1="542.7656" y2="542.7656"/><line style="stroke:#A80036;stroke-width:1.5;" x1="504" x2="586" y1="550.7656" y2="550.7656"/><!--MD5=[6c69314ffc108da06d6415e98492b7c9]
class asdi::edb::FunctionalDependency--><rect codeLine="33" fill="#FEFECE" filter="url(#f1ei0r774svcad)" height="48" id="asdi::edb::FunctionalDependency" style="stroke:#A80036;stroke-width:1.5;" width="161" x="360.5" y="112"/><ellipse cx="375.5" cy="128" fill="#ADD1B2" rx="11" ry="11" style="stroke:#A80036;stroke-width:1.0;"/><path d="M377.9731,134.1431 Q377.3921,134.4419 376.7529,134.5913 Q376.1138,134.7407 375.4082,134.7407 Q372.9014,134.7407 371.5815,133.0889 Q370.2617,131.437 370.2617,128.3159 Q370.2617,125.1865 371.5815,123.5347 Q372.9014,121.8828 375.4082,121.8828 Q376.1138,121.8828 376.7612,122.0322 Q377.4087,122.1816 377.9731,122.4805 L377.9731,125.2031 Q377.3423,124.6221 376.7488,124.3523 Q376.1553,124.0825 375.5244,124.0825 Q374.1797,124.0825 373.4949,125.1492 Q372.8101,126.2158 372.8101,128.3159 Q372.8101,130.4077 373.4949,131.4744 Q374.1797,132.541 375.5244,132.541 Q376.1553,132.541 376.7488,132.2712 Q377.3423,132.0015 377.9731,131.4204 Z " fill="#000000"/><text fill="#000000" font-family="sans-serif" font-size="12" lengthAdjust="spacing" textLength="129" x="389.5" y="132.5352">FunctionalDependency</text><line style="stroke:#A80036;stroke-width:1.5;" x1="361.5" x2="520.5" y1="144" y2="144"/><line style="stroke:#A80036;stroke-width:1.5;" x1="361.5" x2="520.5" y1="152" y2="152"/><!--MD5=[63d735a6e8116701ee198db5f4862bbe]
class asdi::edb::PredicateRef--><rect codeLine="34" fill="#FEFECE" filter="url(#f1ei0r774svcad)" height="32" id="asdi::edb::PredicateRef" style="stroke:#A80036;stroke-width:1.5;" width="105" x="481.5" y="656"/><ellipse cx="496.5" cy="672" fill="#ADD1B2" rx="11" ry="11" style="stroke:#A80036;stroke-width:1.0;"/><path d="M497.8418,679.25 L495.3931,679.25 L495.3931,668.9985 L492.2471,668.9985 L492.2471,666.8569 L500.9878,666.8569 L500.9878,668.9985 L497.8418,668.9985 Z " fill="#000000"/><text fill="#000000" font-family="sans-serif" font-size="12" lengthAdjust="spacing" textLength="73" x="510.5" y="676.5352">PredicateRef</text><!--MD5=[1704a664f01d3b4ca77b91d1ac9e7038]
class asdi::edb::AttributeIndex--><rect codeLine="36" fill="#FEFECE" filter="url(#f1ei0r774svcad)" height="65.9102" id="asdi::edb::AttributeIndex" style="stroke:#A80036;stroke-width:1.5;" width="218" x="56" y="103"/><ellipse cx="71" cy="119" fill="#EB937F" rx="11" ry="11" style="stroke:#A80036;stroke-width:1.0;"/><path d="M74.6143,125.5 L66.8945,125.5 L66.8945,113.1069 L74.6143,113.1069 L74.6143,115.2651 L69.3433,115.2651 L69.3433,117.938 L74.1162,117.938 L74.1162,120.0962 L69.3433,120.0962 L69.3433,123.3418 L74.6143,123.3418 Z " fill="#000000"/><text fill="#000000" font-family="sans-serif" font-size="12" lengthAdjust="spacing" textLength="82" x="85" y="123.5352">AttributeIndex</text><rect fill="#FFFFFF" height="16.1328" style="stroke:#000000;stroke-width:1.0;stroke-dasharray:2.0,2.0;" width="102" x="175" y="100"/><text fill="#000000" font-family="sans-serif" font-size="12" font-style="italic" lengthAdjust="spacing" textLength="100" x="176" y="112.6016">T: AttributeName</text><line style="stroke:#A80036;stroke-width:1.5;" x1="57" x2="273" y1="135" y2="135"/><text fill="#000000" font-family="sans-serif" font-size="11" lengthAdjust="spacing" textLength="44" x="62" y="149.6348">Label : T</text><text fill="#000000" font-family="sans-serif" font-size="11" lengthAdjust="spacing" textLength="67" x="62" y="162.5898">Index : usize</text><!--MD5=[0ac83a4d57200892bb6a6362faf8e364]
class asdi::edb::AttributeKind--><rect codeLine="40" fill="#FEFECE" filter="url(#f1ei0r774svcad)" height="91.8203" id="asdi::edb::AttributeKind" style="stroke:#A80036;stroke-width:1.5;" width="108" x="420" y="339"/><ellipse cx="435" cy="355" fill="#EB937F" rx="11" ry="11" style="stroke:#A80036;stroke-width:1.0;"/><path d="M438.6143,361.5 L430.8945,361.5 L430.8945,349.1069 L438.6143,349.1069 L438.6143,351.2651 L433.3433,351.2651 L433.3433,353.938 L438.1162,353.938 L438.1162,356.0962 L433.3433,356.0962 L433.3433,359.3418 L438.6143,359.3418 Z " fill="#000000"/><text fill="#000000" font-family="sans-serif" font-size="12" lengthAdjust="spacing" textLength="76" x="449" y="359.5352">AttributeKind</text><line style="stroke:#A80036;stroke-width:1.5;" x1="421" x2="527" y1="371" y2="371"/><text fill="#000000" font-family="sans-serif" font-size="11" lengthAdjust="spacing" textLength="42" x="426" y="385.6348">Boolean</text><text fill="#000000" font-family="sans-serif" font-size="11" lengthAdjust="spacing" textLength="38" x="426" y="398.5898">Integer</text><text fill="#000000" font-family="sans-serif" font-size="11" lengthAdjust="spacing" textLength="26" x="426" y="411.5449">Float</text><text fill="#000000" font-family="sans-serif" font-size="11" lengthAdjust="spacing" textLength="32" x="426" y="424.5">String</text><!--MD5=[58db58f43e0c0eeeb327af7bc687dbb7]
class asdi::edb::Constant--><rect codeLine="46" fill="#FEFECE" filter="url(#f1ei0r774svcad)" height="78.8652" id="asdi::edb::Constant" style="stroke:#A80036;stroke-width:1.5;" width="107" x="360.5" y="492"/><ellipse cx="386.75" cy="508" fill="#EB937F" rx="11" ry="11" style="stroke:#A80036;stroke-width:1.0;"/><path d="M390.3643,514.5 L382.6445,514.5 L382.6445,502.1069 L390.3643,502.1069 L390.3643,504.2651 L385.0933,504.2651 L385.0933,506.938 L389.8662,506.938 L389.8662,509.0962 L385.0933,509.0962 L385.0933,512.3418 L390.3643,512.3418 Z " fill="#000000"/><text fill="#000000" font-family="sans-serif" font-size="12" lengthAdjust="spacing" textLength="50" x="403.25" y="512.5352">Constant</text><line style="stroke:#A80036;stroke-width:1.5;" x1="361.5" x2="466.5" y1="524" y2="524"/><text fill="#000000" font-family="sans-serif" font-size="11" lengthAdjust="spacing" textLength="75" x="366.5" y="538.6348">Boolean : bool</text><text fill="#000000" font-family="sans-serif" font-size="11" lengthAdjust="spacing" textLength="95" x="366.5" y="551.5898">Number : Number</text><text fill="#000000" font-family="sans-serif" font-size="11" lengthAdjust="spacing" textLength="73" x="366.5" y="564.5449">String : String</text><!--MD5=[ce86c1ef97f092853a1a6c77d28b6c27]
class asdi::idb::query::Queryable--><rect codeLine="19" fill="#FEFECE" filter="url(#f1ei0r774svcad)" height="32" id="asdi::idb::query::Queryable" style="stroke:#A80036;stroke-width:1.5;" width="91" x="925.5" y="120"/><ellipse cx="940.5" cy="136" fill="#B4A7E5" rx="11" ry="11" style="stroke:#A80036;stroke-width:1.0;"/><path d="M936.9277,132.2651 L936.9277,130.1069 L944.3071,130.1069 L944.3071,132.2651 L941.8418,132.2651 L941.8418,140.3418 L944.3071,140.3418 L944.3071,142.5 L936.9277,142.5 L936.9277,140.3418 L939.3931,140.3418 L939.3931,132.2651 Z " fill="#000000"/><text fill="#000000" font-family="sans-serif" font-size="12" font-style="italic" lengthAdjust="spacing" textLength="59" x="954.5" y="140.5352">Queryable</text><!--MD5=[5662166f89f46ad2c4c4921bb72d18ee]
class asdi::edb::io::FilePragma--><rect codeLine="22" fill="#FEFECE" filter="url(#f1ei0r774svcad)" height="32" id="asdi::edb::io::FilePragma" style="stroke:#A80036;stroke-width:1.5;" width="95" x="1073.5" y="120"/><ellipse cx="1088.5" cy="136" fill="#ADD1B2" rx="11" ry="11" style="stroke:#A80036;stroke-width:1.0;"/><path d="M1090.9731,142.1431 Q1090.3921,142.4419 1089.7529,142.5913 Q1089.1138,142.7407 1088.4082,142.7407 Q1085.9014,142.7407 1084.5815,141.0889 Q1083.2617,139.437 1083.2617,136.3159 Q1083.2617,133.1865 1084.5815,131.5347 Q1085.9014,129.8828 1088.4082,129.8828 Q1089.1138,129.8828 1089.7612,130.0322 Q1090.4087,130.1816 1090.9731,130.4805 L1090.9731,133.2031 Q1090.3423,132.6221 1089.7488,132.3523 Q1089.1553,132.0825 1088.5244,132.0825 Q1087.1797,132.0825 1086.4949,133.1492 Q1085.8101,134.2158 1085.8101,136.3159 Q1085.8101,138.4077 1086.4949,139.4744 Q1087.1797,140.541 1088.5244,140.541 Q1089.1553,140.541 1089.7488,140.2712 Q1090.3423,140.0015 1090.9731,139.4204 Z " fill="#000000"/><text fill="#000000" font-family="sans-serif" font-size="12" lengthAdjust="spacing" textLength="63" x="1102.5" y="140.5352">FilePragma</text><!--MD5=[2b92991d20bd0c0791539a355bbe0e03]
link asdi::edb::Attribute to asdi::MaybeAnonymous--><path codeLine="52" d="M654.86,278.15 C671.4,286.89 689.88,297.31 706,308 C727.75,322.41 750.63,340.61 768.48,355.59 " fill="none" id="asdi::edb::Attribute-to-asdi::MaybeAnonymous" style="stroke:#A80036;stroke-width:1.0;stroke-dasharray:7.0,7.0;"/><polygon fill="none" points="773.2,350.41,783.86,368.73,764.11,361.06,773.2,350.41" style="stroke:#A80036;stroke-width:1.0;"/><!--MD5=[460eea523a2f53f949fc5c142d01adc4]
link asdi::edb::Attribute to asdi::AttributeName--><path codeLine="53" d="M503.0718,278.1876 C503.0718,278.1876 206,352.88 206,384 C206,384 206,384 206,673 C206,695.53 209.14,703.99 225,720 C241.25,736.4 263.2,748.05 284.44,756.22 " fill="none" id="asdi::edb::Attribute-asdi::AttributeName" style="stroke:#A80036;stroke-width:1.0;"/><polygon fill="#A80036" points="296.82,760.64,289.6892,753.8465,292.1112,758.9587,286.999,761.3807,296.82,760.64" style="stroke:#A80036;stroke-width:1.0;"/><line style="stroke:#A80036;stroke-width:1.0;" x1="292.1112" x2="284.58" y1="758.9587" y2="756.275"/><polygon fill="#A80036" points="514.76,275.47,508.01,272.9327,503.0718,278.1876,509.8217,280.7249,514.76,275.47" style="stroke:#A80036;stroke-width:1.0;"/><!--MD5=[c4441e36f606026a5a693ef66d80b99b]
link asdi::edb::Attribute to asdi::edb::AttributeKind--><path codeLine="54" d="M570.545,285.9332 C570.545,285.9332 553.51,300.87 546,308 C539.02,314.63 531.86,321.76 524.87,328.92 " fill="none" id="asdi::edb::Attribute-asdi::edb::AttributeKind" style="stroke:#A80036;stroke-width:1.0;"/><polygon fill="#A80036" points="515.5,338.63,524.6248,334.9236,518.9689,335.0291,518.8634,329.3732,515.5,338.63" style="stroke:#A80036;stroke-width:1.0;"/><line style="stroke:#A80036;stroke-width:1.0;" x1="518.9689" x2="524.525" y1="335.0291" y2="329.275"/><polygon fill="#A80036" points="579.67,278.14,572.5098,278.9949,570.545,285.9332,577.7052,285.0783,579.67,278.14" style="stroke:#A80036;stroke-width:1.0;"/><!--MD5=[53e83c4fbbda47579a2437efc4626f26]
reverse link asdi::edb::AttributeKind to asdi::edb::Constant--><path codeLine="56" d="M453.08,436.38 C445.55,454.51 437.18,474.67 430.13,491.67 " fill="none" id="asdi::edb::AttributeKind-backto-asdi::edb::Constant" style="stroke:#A80036;stroke-width:1.0;stroke-dasharray:7.0,7.0;"/><polygon fill="#A80036" points="455.18,431.32,448.0366,438.1002,453.264,435.9383,455.4259,441.1658,455.18,431.32" style="stroke:#A80036;stroke-width:1.0;"/><!--MD5=[28b147405c19a33c3154e18e52971eeb]
link asdi::edb::Constant to asdi::edb::Number--><path codeLine="57" d="M479.73,531.5 C479.73,531.5 486.56,531.5 489.41,531.5 " fill="none" id="asdi::edb::Constant-asdi::edb::Number" style="stroke:#A80036;stroke-width:1.0;"/><polygon fill="#A80036" points="502.74,531.5,493.74,527.5,497.74,531.5,493.74,535.5,502.74,531.5" style="stroke:#A80036;stroke-width:1.0;"/><line style="stroke:#A80036;stroke-width:1.0;" x1="497.74" x2="489.74" y1="531.5" y2="531.5"/><polygon fill="#A80036" points="467.73,531.5,473.73,535.5,479.73,531.5,473.73,527.5,467.73,531.5" style="stroke:#A80036;stroke-width:1.0;"/><!--MD5=[f428e3b9a8cddd2800f42749a5d32dad]
link asdi::edb::Fact to asdi::Collection--><path codeLine="59" d="M258.64,696.38 C253.6,704.78 246.99,713.71 239,720 C225.7,730.47 190.87,743.26 158.12,753.76 " fill="none" id="asdi::edb::Fact-to-asdi::Collection" style="stroke:#A80036;stroke-width:1.0;stroke-dasharray:7.0,7.0;"/><polygon fill="none" points="159.91,760.54,138.73,759.81,155.74,747.17,159.91,760.54" style="stroke:#A80036;stroke-width:1.0;"/><!--MD5=[df4a1784e2e108c5c36efdc7e0ca9674]
link asdi::edb::Fact to asdi::IndexedCollection--><path codeLine="60" d="M287.38,696.25 C295.17,705.05 305.06,714.3 316,720 C354.58,740.09 461.85,755.33 542.89,764.41 " fill="none" id="asdi::edb::Fact-to-asdi::IndexedCollection" style="stroke:#A80036;stroke-width:1.0;stroke-dasharray:7.0,7.0;"/><polygon fill="none" points="543.75,757.46,562.87,766.59,542.23,771.38,543.75,757.46" style="stroke:#A80036;stroke-width:1.0;"/><!--MD5=[9885bfd967d7f84646d8561db7083779]
link asdi::edb::Fact to asdi::Labeled--><path codeLine="61" d="M256.92,696.17 C249.38,709.53 239.78,726.55 231.48,741.26 " fill="none" id="asdi::edb::Fact-to-asdi::Labeled" style="stroke:#A80036;stroke-width:1.0;stroke-dasharray:7.0,7.0;"/><polygon fill="none" points="237.52,744.8,221.59,758.77,225.33,737.92,237.52,744.8" style="stroke:#A80036;stroke-width:1.0;"/><!--MD5=[4866ab408efdd73b2d802cc4f51b09a0]
link asdi::edb::Fact to asdi::edb::PredicateRef--><path codeLine="62" d="M276.913,636.4675 C276.913,636.4675 287.66,613.52 297.5,607 C314.17,595.95 322.77,603.74 342.5,607 C392.92,615.32 447.91,635.19 485.97,650.79 " fill="none" id="asdi::edb::Fact-asdi::edb::PredicateRef" style="stroke:#A80036;stroke-width:1.0;"/><polygon fill="#A80036" points="498.2,655.89,491.438,648.7293,493.5866,653.9622,488.3536,656.1108,498.2,655.89" style="stroke:#A80036;stroke-width:1.0;"/><line style="stroke:#A80036;stroke-width:1.0;" x1="493.5866" x2="486.205" y1="653.9622" y2="650.89"/><polygon fill="none" points="273.46,647.96,279.0173,643.3648,276.913,636.4675,271.3557,641.0628,273.46,647.96" style="stroke:#A80036;stroke-width:1.0;"/><polygon fill="#000000" points="307.4883,609.997,298.6652,606.4467,298.2635,612.3108,307.4883,609.997" style="stroke:#000000;stroke-width:1.0;"/><text fill="#000000" font-family="sans-serif" font-size="13" lengthAdjust="spacing" textLength="30" x="311.5" y="614.5684">label</text><!--MD5=[c0cc4e599eaa41295e8268e8b8940c97]
link asdi::edb::Constant to asdi::edb::Fact--><path codeLine="63" d="M348.44,557.79 C327.95,568.45 306.84,582.71 292,601 C287.48,606.57 278.4191,636.0865 278.4191,636.0865 " fill="none" id="asdi::edb::Constant-asdi::edb::Fact" style="stroke:#A80036;stroke-width:1.0;"/><polygon fill="#A80036" points="275.36,647.69,280.7574,642.9079,278.4191,636.0865,273.0217,640.8685,275.36,647.69" style="stroke:#A80036;stroke-width:1.0;"/><polygon fill="#A80036" points="360.38,551.92,350.5383,552.2947,355.8915,554.123,354.0631,559.4763,360.38,551.92" style="stroke:#A80036;stroke-width:1.0;"/><line style="stroke:#A80036;stroke-width:1.0;" x1="355.8915" x2="348.715" y1="554.123" y2="557.655"/><text fill="#000000" font-family="sans-serif" font-size="13" lengthAdjust="spacing" textLength="6" x="346.4178" y="551.3365">*</text><!--MD5=[b77f4b207454b30e7787f9262ea05605]
link asdi::edb::Predicate to asdi::AttributeName--><path codeLine="66" d="M371.18,696.17 C368.54,708.86 365.22,724.84 362.27,739.01 " fill="none" id="asdi::edb::Predicate-to-asdi::AttributeName" style="stroke:#A80036;stroke-width:1.0;stroke-dasharray:7.0,7.0;"/><polygon fill="none" points="369.09,740.62,358.17,758.77,355.38,737.77,369.09,740.62" style="stroke:#A80036;stroke-width:1.0;"/><!--MD5=[af45055b7cf5fcd105785369d7567e3f]
link asdi::edb::Relation to asdi::Collection--><path codeLine="68" d="M401.85,272.17 C395.94,274.35 389.87,276.39 384,278 C299.45,301.23 266.19,266.39 189,308 C151.83,328.04 132,341.78 132,384 C132,384 132,384 132,673 C132,697.31 121.32,722.48 110.61,741.61 " fill="none" id="asdi::edb::Relation-to-asdi::Collection" style="stroke:#A80036;stroke-width:1.0;stroke-dasharray:7.0,7.0;"/><polygon fill="none" points="116.5,745.38,100.07,758.77,104.57,738.06,116.5,745.38" style="stroke:#A80036;stroke-width:1.0;"/><!--MD5=[07db4872f9eb6c599be73b88446de41b]
link asdi::edb::Relation to asdi::IndexedCollection--><path codeLine="69" d="M480.18,272.05 C486.08,274.26 492.15,276.33 498,278 C572.19,299.22 609.77,258.54 669,308 C696.63,331.07 697,348 697,384 C697,384 697,384 697,673 C697,698.85 682.93,724.4 669.02,743.32 " fill="none" id="asdi::edb::Relation-to-asdi::IndexedCollection" style="stroke:#A80036;stroke-width:1.0;stroke-dasharray:7.0,7.0;"/><polygon fill="none" points="674.44,747.76,656.45,758.95,663.53,738.98,674.44,747.76" style="stroke:#A80036;stroke-width:1.0;"/><!--MD5=[1dfd53c334081892e3313d151b22cebe]
link asdi::edb::Relation to asdi::Labeled--><path codeLine="70" d="M401.84,272.13 C395.94,274.33 389.86,276.37 384,278 C302.9,300.56 262,254.52 197,308 C169.2,330.87 169,348 169,384 C169,384 169,384 169,673 C169,697.4 179.93,722.57 190.89,741.67 " fill="none" id="asdi::edb::Relation-to-asdi::Labeled" style="stroke:#A80036;stroke-width:1.0;stroke-dasharray:7.0,7.0;"/><polygon fill="none" points="196.95,738.15,201.67,758.81,185.1,745.6,196.95,738.15" style="stroke:#A80036;stroke-width:1.0;"/><!--MD5=[5a6b33b46504b8c37cce216e20126966]
reverse link asdi::idb::query::Queryable to asdi::edb::Relation--><path codeLine="71" d="M905.89,155.75 C856.13,169.54 785.68,187.9 723,200 C623.94,219.12 595.54,204.26 498,230 C492.12,231.55 486.03,233.55 480.12,235.73 " fill="none" id="asdi::idb::query::Queryable-backto-asdi::edb::Relation" style="stroke:#A80036;stroke-width:1.0;stroke-dasharray:7.0,7.0;"/><polygon fill="none" points="904.05,148.99,925.2,150.34,907.83,162.48,904.05,148.99" style="stroke:#A80036;stroke-width:1.0;"/><!--MD5=[0300a9fd71cd7eb950f7911258df6d6c]
link asdi::edb::Relation to asdi::edb::Predicate--><path codeLine="72" d="M421.8262,288.7352 C421.8262,288.7352 357.32,416.26 343,492 C332.56,547.23 336.76,564.5 354,618 C355.85,623.76 358.07,629.76 360.36,635.58 " fill="none" id="asdi::edb::Relation-asdi::edb::Predicate" style="stroke:#A80036;stroke-width:1.0;"/><polygon fill="#A80036" points="365.42,647.83,365.6849,637.9847,363.5129,643.208,358.2897,641.036,365.42,647.83" style="stroke:#A80036;stroke-width:1.0;"/><line style="stroke:#A80036;stroke-width:1.0;" x1="363.5129" x2="360.455" y1="643.208" y2="635.805"/><polygon fill="none" points="427.59,278.21,421.1997,281.5513,421.8262,288.7352,428.2165,285.3938,427.59,278.21" style="stroke:#A80036;stroke-width:1.0;"/><!--MD5=[19b32b4944f82b9d211ce097a387b36e]
link asdi::edb::Relation to asdi::edb::Schema--><path codeLine="73" d="M404.4487,222.6325 C404.4487,222.6325 379.53,207.03 366.5,203 C311.78,186.06 247.87,204.96 202.98,224.37 " fill="none" id="asdi::edb::Relation-asdi::edb::Schema" style="stroke:#A80036;stroke-width:1.0;"/><polygon fill="#A80036" points="190.85,229.82,200.6987,229.7695,195.4086,227.7659,197.4122,222.4757,190.85,229.82" style="stroke:#A80036;stroke-width:1.0;"/><line style="stroke:#A80036;stroke-width:1.0;" x1="195.4086" x2="202.71" y1="227.7659" y2="224.49"/><polygon fill="#A80036" points="414.11,229.75,411.6518,222.9708,404.4487,222.6325,406.9068,229.4117,414.11,229.75" style="stroke:#A80036;stroke-width:1.0;"/><!--MD5=[cbc89493d8f1dfeeebb31cdcc955f708]
link asdi::edb::Relation to asdi::edb::Fact--><path codeLine="74" d="M399.139,285.6667 C399.139,285.6667 363.13,319.03 351,339 C292.73,434.94 276.35,570.4 271.77,634.57 " fill="none" id="asdi::edb::Relation-asdi::edb::Fact" style="stroke:#A80036;stroke-width:1.0;"/><polygon fill="#A80036" points="270.91,647.86,275.4845,639.138,271.2339,642.8705,267.5013,638.6198,270.91,647.86" style="stroke:#A80036;stroke-width:1.0;"/><line style="stroke:#A80036;stroke-width:1.0;" x1="271.2339" x2="271.745" y1="642.8705" y2="634.885"/><polygon fill="#A80036" points="408.42,278.06,401.2439,278.7697,399.139,285.6667,406.3151,284.957,408.42,278.06" style="stroke:#A80036;stroke-width:1.0;"/><text fill="#000000" font-family="sans-serif" font-size="13" lengthAdjust="spacing" textLength="6" x="264.3744" y="637.3604">*</text><!--MD5=[f9a1ff5135e484ee4f7678461d409bd1]
link asdi::edb::io::FilePragma to asdi::edb::Relation--><path codeLine="75" d="M1081.47,157.71 C1066.65,164.62 1049.41,171.66 1033,176 C801.98,237.18 730.02,172.71 498,230 C496.25,230.43 491.4812,231.8167 491.4812,231.8167 " fill="none" id="asdi::edb::io::FilePragma-asdi::edb::Relation" style="stroke:#A80036;stroke-width:1.0;"/><polygon fill="#A80036" points="480.08,235.56,487.0284,237.4888,491.4812,231.8167,484.5328,229.8879,480.08,235.56" style="stroke:#A80036;stroke-width:1.0;"/><polygon fill="#A80036" points="1093.29,152,1083.4462,152.3166,1088.7886,154.1765,1086.9287,159.5189,1093.29,152" style="stroke:#A80036;stroke-width:1.0;"/><line style="stroke:#A80036;stroke-width:1.0;" x1="1088.7886" x2="1081.59" y1="154.1765" y2="157.655"/><text fill="#000000" font-family="sans-serif" font-size="13" lengthAdjust="spacing" textLength="5" x="1077.9053" y="172.6999">?</text><!--MD5=[e7416e6738acce8879e80b3212c7b966]
link asdi::edb::FunctionalDependency to asdi::edb::Relation--><path codeLine="76" d="M441,173.21 C441,187.08 441,217.84 441,217.84 " fill="none" id="asdi::edb::FunctionalDependency-asdi::edb::Relation" style="stroke:#A80036;stroke-width:1.0;"/><polygon fill="#A80036" points="441,229.84,445,223.84,441,217.84,437,223.84,441,229.84" style="stroke:#A80036;stroke-width:1.0;"/><polygon fill="#A80036" points="441,160.2,437,169.2,441,165.2,445,169.2,441,160.2" style="stroke:#A80036;stroke-width:1.0;"/><line style="stroke:#A80036;stroke-width:1.0;" x1="441" x2="441" y1="165.2" y2="173.2"/><text fill="#000000" font-family="sans-serif" font-size="13" lengthAdjust="spacing" textLength="6" x="434.2688" y="180.5331">*</text><!--MD5=[a0ed5618d7f9bad485d6f857e6d684a2]
link asdi::edb::RelationSet to asdi::Collection--><path codeLine="78" d="M271.28,272.59 C265.49,274.51 259.63,276.36 254,278 C196.64,294.66 167.85,268.55 123,308 C95.97,331.78 95,348 95,384 C95,384 95,384 95,673 C95,694.97 93.57,719.58 92.1,739 " fill="none" id="asdi::edb::RelationSet-to-asdi::Collection" style="stroke:#A80036;stroke-width:1.0;stroke-dasharray:7.0,7.0;"/><polygon fill="none" points="99.08,739.6,90.45,758.96,85.13,738.45,99.08,739.6" style="stroke:#A80036;stroke-width:1.0;"/><!--MD5=[98d572135116238c027436314c89e86d]
link asdi::edb::RelationSet to asdi::IndexedCollection--><path codeLine="79" d="M366.59,272.93 C372.73,274.85 378.97,276.6 385,278 C438.86,290.5 588.64,273.69 632,308 C660.23,330.34 660,348 660,384 C660,384 660,384 660,673 C660,695.27 655.71,719.87 651.31,739.22 " fill="none" id="asdi::edb::RelationSet-to-asdi::IndexedCollection" style="stroke:#A80036;stroke-width:1.0;stroke-dasharray:7.0,7.0;"/><polygon fill="none" points="658.08,741.04,646.45,758.75,644.49,737.65,658.08,741.04" style="stroke:#A80036;stroke-width:1.0;"/><!--MD5=[81daf5e7aa2919f2b6c1e6bafcfa7e89]
reverse link asdi::idb::query::Queryable to asdi::edb::RelationSet--><path codeLine="80" d="M905.65,147.05 C758.13,169.79 410.14,223.68 385,230 C379,231.51 372.77,233.33 366.64,235.28 " fill="none" id="asdi::idb::query::Queryable-backto-asdi::edb::RelationSet" style="stroke:#A80036;stroke-width:1.0;stroke-dasharray:7.0,7.0;"/><polygon fill="none" points="904.66,140.12,925.49,144,906.79,153.96,904.66,140.12" style="stroke:#A80036;stroke-width:1.0;"/><!--MD5=[065cf3b59e7d91321b368b54952646d1]
link asdi::edb::RelationSet to asdi::edb::Relation--><path codeLine="81" d="M378.66,254 C378.66,254 385.78,254 388.76,254 " fill="none" id="asdi::edb::RelationSet-asdi::edb::Relation" style="stroke:#A80036;stroke-width:1.0;"/><polygon fill="#A80036" points="401.8,254,392.8,250,396.8,254,392.8,258,401.8,254" style="stroke:#A80036;stroke-width:1.0;"/><line style="stroke:#A80036;stroke-width:1.0;" x1="396.8" x2="388.8" y1="254" y2="254"/><polygon fill="#A80036" points="366.66,254,372.66,258,378.66,254,372.66,250,366.66,254" style="stroke:#A80036;stroke-width:1.0;"/><text fill="#000000" font-family="sans-serif" font-size="13" lengthAdjust="spacing" textLength="6" x="388.0194" y="250.2142">*</text><!--MD5=[3f6bf05e9011bb20cd83b2fa8e0247c4]
link asdi::edb::Schema to asdi::Collection--><path codeLine="83" d="M114.13,278.06 C104.07,286.57 93.61,296.87 86,308 C65.67,337.71 58,348 58,384 C58,384 58,384 58,673 C58,696.17 65.55,721.06 73.19,740.34 " fill="none" id="asdi::edb::Schema-to-asdi::Collection" style="stroke:#A80036;stroke-width:1.0;stroke-dasharray:7.0,7.0;"/><polygon fill="none" points="79.62,737.57,81.18,758.7,66.78,743.15,79.62,737.57" style="stroke:#A80036;stroke-width:1.0;"/><!--MD5=[ba100030276d35d8d14331b84c6c7602]
link asdi::edb::Schema to asdi::IndexedCollection--><path codeLine="84" d="M236.16,274.23 C242.19,275.51 248.19,276.77 254,278 C420.96,313.22 623,213.37 623,384 C623,384 623,384 623,673 C623,695.31 627.53,719.91 632.17,739.25 " fill="none" id="asdi::edb::Schema-to-asdi::IndexedCollection" style="stroke:#A80036;stroke-width:1.0;stroke-dasharray:7.0,7.0;"/><polygon fill="none" points="638.98,737.64,637.3,758.77,625.44,741.21,638.98,737.64" style="stroke:#A80036;stroke-width:1.0;"/><!--MD5=[9c90a014583a41a51fa25249858dfc66]
link asdi::edb::Schema to asdi::edb::Attribute--><path codeLine="85" d="M203.9093,225.047 C203.9093,225.047 249.03,207.39 271.5,203 C362.66,185.18 389.29,185.43 480.5,203 C503.4,207.41 527.41,215.89 548.34,224.7 " fill="none" id="asdi::edb::Schema-asdi::edb::Attribute" style="stroke:#A80036;stroke-width:1.0;"/><polygon fill="#A80036" points="560.28,229.89,553.6241,222.6306,555.6954,227.8946,550.4314,229.9659,560.28,229.89" style="stroke:#A80036;stroke-width:1.0;"/><line style="stroke:#A80036;stroke-width:1.0;" x1="555.6954" x2="548.355" y1="227.8946" y2="224.7"/><polygon fill="#A80036" points="192.93,229.89,200.034,231.1283,203.9093,225.047,196.8053,223.8087,192.93,229.89" style="stroke:#A80036;stroke-width:1.0;"/><text fill="#000000" font-family="sans-serif" font-size="13" lengthAdjust="spacing" textLength="6" x="541.283" y="219.3981">*</text><!--MD5=[26be1b9872456991b81d1f8d9c6c949b]
reverse link asdi::edb::AttributeIndex to asdi::edb::Schema--><path codeLine="86" d="M158.93,174.08 C155.92,192.42 152.39,213.98 149.78,229.93 " fill="none" id="asdi::edb::AttributeIndex-backto-asdi::edb::Schema" style="stroke:#A80036;stroke-width:1.0;stroke-dasharray:7.0,7.0;"/><polygon fill="#A80036" points="159.76,169,154.3734,177.2453,158.9611,173.9358,162.2707,178.5235,159.76,169" style="stroke:#A80036;stroke-width:1.0;"/><!--MD5=[3d62af4edeead7415e603c238c318912]
link asdi::edb::PredicateRef to asdi::edb::Predicate--><path codeLine="88" d="M469.31,672 C469.31,672 443.83,672 432.21,672 " fill="none" id="asdi::edb::PredicateRef-asdi::edb::Predicate" style="stroke:#A80036;stroke-width:1.0;"/><polygon fill="#A80036" points="419.17,672,428.17,676,424.17,672,428.17,668,419.17,672" style="stroke:#A80036;stroke-width:1.0;"/><line style="stroke:#A80036;stroke-width:1.0;" x1="424.17" x2="432.17" y1="672" y2="672"/><polygon fill="none" points="481.31,672,475.31,668,469.31,672,475.31,676,481.31,672" style="stroke:#A80036;stroke-width:1.0;"/><text fill="#000000" font-family="sans-serif" font-size="13" lengthAdjust="spacing" textLength="26" x="437.25" y="665.5684">«rc»</text><!--MD5=[ceb232bcfc0db8e0cec7142ee7d18477]
@startuml

!include options.plantuml

interface asdi::AttributeName
hide "asdi::AttributeName" members

interface asdi::Collection<T>
hide "asdi::Collection" members

interface asdi::IndexedCollection<K,V>
hide "asdi::IndexedCollection" members

interface asdi::Labeled
hide "asdi::Labeled" members

interface asdi::MaybeAnonymous
hide "asdi::MaybeAnonymous" members

interface asdi::idb::query::Queryable
hide "asdi::idb::query::Queryable" members

class asdi::edb::io::FilePragma
hide "asdi::edb::io::FilePragma" members

namespace asdi::edb {
    class Attribute<T: AttributeName>
    class Fact
    class Predicate
    class Relation
    class RelationSet
    class Schema<T: AttributeName>
    class Number <<opaque>>
    class FunctionalDependency
    class PredicateRef << (T,#ADD1B2) type >>

    enum AttributeIndex<T: AttributeName> {
        Label : T
        Index : usize
    }
    enum AttributeKind {
        Boolean
        Integer
        Float
        String
    }
    enum Constant {
        Boolean : bool
        Number : Number
        String : String
    }

    Attribute .down.|> asdi::MaybeAnonymous
    Attribute *- -> asdi::AttributeName
    Attribute *- -> AttributeKind

    Constant .up.> AttributeKind
    Constant *-right> Number

    Fact ..|> asdi::Collection
    Fact ..|> asdi::IndexedCollection
    Fact ..|> asdi::Labeled
    Fact o-> PredicateRef: label >
    Fact *-up-> "*" Constant
  ' Fact ..|> asdi::idb::query::relational::FactOps

    Predicate ..|> asdi::AttributeName

    Relation ..|> asdi::Collection
    Relation ..|> asdi::IndexedCollection
    Relation ..|> asdi::Labeled
    Relation .up.|> asdi::idb::query::Queryable
    Relation o-> Predicate
    Relation *-> Schema
    Relation *-> "*" Fact
    Relation *-up-> "?" asdi::edb::io::FilePragma
    Relation *-up-> "*" FunctionalDependency

    RelationSet ..|> asdi::Collection
    RelationSet ..|> asdi::IndexedCollection
    RelationSet .up.|> asdi::idb::query::Queryable
    RelationSet *-> "*" Relation

    Schema ..|> asdi::Collection
    Schema ..|> asdi::IndexedCollection
    Schema *-> "*" Attribute
    Schema .up.> AttributeIndex

    PredicateRef o-> Predicate: <<rc>>
}


@enduml

@startuml

set namespaceSeparator ::
hide enum methods
hide interface fields
hide << const >> members
hide << type >> members
hide << type >> stereotype
hide << module >> fields
hide << module >> circle

interface asdi::AttributeName
hide "asdi::AttributeName" members

interface asdi::Collection<T>
hide "asdi::Collection" members

interface asdi::IndexedCollection<K,V>
hide "asdi::IndexedCollection" members

interface asdi::Labeled
hide "asdi::Labeled" members

interface asdi::MaybeAnonymous
hide "asdi::MaybeAnonymous" members

interface asdi::idb::query::Queryable
hide "asdi::idb::query::Queryable" members

class asdi::edb::io::FilePragma
hide "asdi::edb::io::FilePragma" members

namespace asdi::edb {
    class Attribute<T: AttributeName>
    class Fact
    class Predicate
    class Relation
    class RelationSet
    class Schema<T: AttributeName>
    class Number <<opaque>>
    class FunctionalDependency
    class PredicateRef << (T,#ADD1B2) type >>

    enum AttributeIndex<T: AttributeName> {
        Label : T
        Index : usize
    }
    enum AttributeKind {
        Boolean
        Integer
        Float
        String
    }
    enum Constant {
        Boolean : bool
        Number : Number
        String : String
    }

    Attribute .down.|> asdi::MaybeAnonymous
    Attribute *- -> asdi::AttributeName
    Attribute *- -> AttributeKind

    Constant .up.> AttributeKind
    Constant *-right> Number

    Fact ..|> asdi::Collection
    Fact ..|> asdi::IndexedCollection
    Fact ..|> asdi::Labeled
    Fact o-> PredicateRef: label >
    Fact *-up-> "*" Constant

    Predicate ..|> asdi::AttributeName

    Relation ..|> asdi::Collection
    Relation ..|> asdi::IndexedCollection
    Relation ..|> asdi::Labeled
    Relation .up.|> asdi::idb::query::Queryable
    Relation o-> Predicate
    Relation *-> Schema
    Relation *-> "*" Fact
    Relation *-up-> "?" asdi::edb::io::FilePragma
    Relation *-up-> "*" FunctionalDependency

    RelationSet ..|> asdi::Collection
    RelationSet ..|> asdi::IndexedCollection
    RelationSet .up.|> asdi::idb::query::Queryable
    RelationSet *-> "*" Relation

    Schema ..|> asdi::Collection
    Schema ..|> asdi::IndexedCollection
    Schema *-> "*" Attribute
    Schema .up.> AttributeIndex

    PredicateRef o-> Predicate: <<rc>>
}


@enduml

PlantUML version 1.2022.1(Tue Feb 01 10:19:58 PST 2022)
(GPL source distribution)
Java Runtime: OpenJDK Runtime Environment
JVM: OpenJDK 64-Bit Server VM
Default Encoding: UTF-8
Language: en
Country: US
--></g></svg>