<?xml version="1.0" encoding="UTF-8" standalone="no"?><svg xmlns="http://www.w3.org/2000/svg" xmlns:xlink="http://www.w3.org/1999/xlink" contentScriptType="application/ecmascript" contentStyleType="text/css" height="594px" preserveAspectRatio="none" style="width:1346px;height:594px;background:#FFFFFF;" version="1.1" viewBox="0 0 1346 594" width="1346px" zoomAndPan="magnify"><defs><filter height="300%" id="fpymx48v0y7ua" width="300%" x="-1" y="-1"><feGaussianBlur result="blurOut" stdDeviation="2.0"/><feColorMatrix in="blurOut" result="blurOut2" type="matrix" values="0 0 0 0 0 0 0 0 0 0 0 0 0 0 0 0 0 0 .4 0"/><feOffset dx="4.0" dy="4.0" in="blurOut2" result="blurOut3"/><feBlend in="SourceGraphic" in2="blurOut3" mode="normal"/></filter></defs><g><!--MD5=[6bc3af5db4038e5494ba0622f07de59b]
cluster asdi::edb--><polygon fill="#FFFFFF" filter="url(#fpymx48v0y7ua)" points="16,6,84,6,91,28.4883,1257,28.4883,1257,464.5,16,464.5,16,6" style="stroke:#000000;stroke-width:1.5;"/><line style="stroke:#000000;stroke-width:1.5;" x1="16" x2="91" y1="28.4883" y2="28.4883"/><text fill="#000000" font-family="sans-serif" font-size="14" font-weight="bold" lengthAdjust="spacing" textLength="62" x="20" y="21.5352">asdi::edb</text><!--MD5=[b33f2e4372094b15554e3bf4225fc453]
cluster asdi::edb::io--><polygon fill="#FFFFFF" filter="url(#fpymx48v0y7ua)" points="40,49,60,49,67,71.4883,1147,71.4883,1147,440.5,40,440.5,40,49" style="stroke:#000000;stroke-width:1.5;"/><line style="stroke:#000000;stroke-width:1.5;" x1="40" x2="67" y1="71.4883" y2="71.4883"/><text fill="#000000" font-family="sans-serif" font-size="14" font-weight="bold" lengthAdjust="spacing" textLength="14" x="44" y="64.5352">io</text><!--MD5=[adc1e1baa9a15b0eb8524bb7df28ce4f]
cluster asdi::edb::io::csv--><polygon fill="#FFFFFF" filter="url(#fpymx48v0y7ua)" points="864,92,893,92,900,114.4883,1123,114.4883,1123,191,864,191,864,92" style="stroke:#000000;stroke-width:1.5;"/><line style="stroke:#000000;stroke-width:1.5;" x1="864" x2="900" y1="114.4883" y2="114.4883"/><text fill="#000000" font-family="sans-serif" font-size="14" font-weight="bold" lengthAdjust="spacing" textLength="23" x="868" y="107.5352">csv</text><!--MD5=[2591ccf485fd6f52f3198deb8f4ae0b8]
cluster asdi::edb::io::json--><polygon fill="#FFFFFF" filter="url(#fpymx48v0y7ua)" points="641,92,678,92,685,114.4883,840,114.4883,840,191,641,191,641,92" style="stroke:#000000;stroke-width:1.5;"/><line style="stroke:#000000;stroke-width:1.5;" x1="641" x2="685" y1="114.4883" y2="114.4883"/><text fill="#000000" font-family="sans-serif" font-size="14" font-weight="bold" lengthAdjust="spacing" textLength="31" x="645" y="107.5352">json</text><!--MD5=[9b5af0e90232604c6574910c7c2a638f]
cluster asdi::edb::io::text--><polygon fill="#FFFFFF" filter="url(#fpymx48v0y7ua)" points="171,92,205,92,212,114.4883,412,114.4883,412,191,171,191,171,92" style="stroke:#000000;stroke-width:1.5;"/><line style="stroke:#000000;stroke-width:1.5;" x1="171" x2="212" y1="114.4883" y2="114.4883"/><text fill="#000000" font-family="sans-serif" font-size="14" font-weight="bold" lengthAdjust="spacing" textLength="28" x="175" y="107.5352">text</text><!--MD5=[f1cb7313e4da8273a491bdb7c6cff648]
cluster std::default--><polygon fill="#FFFFFF" filter="url(#fpymx48v0y7ua)" points="1094,488.5,1180,488.5,1187,510.9883,1200,510.9883,1200,587.5,1094,587.5,1094,488.5" style="stroke:#000000;stroke-width:1.5;"/><line style="stroke:#000000;stroke-width:1.5;" x1="1094" x2="1187" y1="510.9883" y2="510.9883"/><text fill="#000000" font-family="sans-serif" font-size="14" font-weight="bold" lengthAdjust="spacing" textLength="80" x="1098" y="504.0352">std::default</text><!--MD5=[63be3a1481beaba15f9dd2bbcd4a53e1]
class asdi::edb::Relation--><rect codeLine="4" fill="#FEFECE" filter="url(#fpymx48v0y7ua)" height="32" id="asdi::edb::Relation" style="stroke:#A80036;stroke-width:1.5;" width="78" x="1163" y="392.5"/><ellipse cx="1178" cy="408.5" fill="#B4A7E5" rx="11" ry="11" style="stroke:#A80036;stroke-width:1.0;"/><path d="M1174.4277,404.7651 L1174.4277,402.6069 L1181.8071,402.6069 L1181.8071,404.7651 L1179.3418,404.7651 L1179.3418,412.8418 L1181.8071,412.8418 L1181.8071,415 L1174.4277,415 L1174.4277,412.8418 L1176.8931,412.8418 L1176.8931,404.7651 Z " fill="#000000"/><text fill="#000000" font-family="sans-serif" font-size="12" font-style="italic" lengthAdjust="spacing" textLength="46" x="1192" y="413.0352">Relation</text><!--MD5=[8ad701a0a58c4c31a6eaf07d661f3312]
class asdi::edb::io::Reader--><rect codeLine="40" fill="#FEFECE" filter="url(#fpymx48v0y7ua)" height="40" id="asdi::edb::io::Reader" style="stroke:#A80036;stroke-width:1.5;" width="74" x="949" y="273"/><ellipse cx="964" cy="289" fill="#B4A7E5" rx="11" ry="11" style="stroke:#A80036;stroke-width:1.0;"/><path d="M960.4277,285.2651 L960.4277,283.1069 L967.8071,283.1069 L967.8071,285.2651 L965.3418,285.2651 L965.3418,293.3418 L967.8071,293.3418 L967.8071,295.5 L960.4277,295.5 L960.4277,293.3418 L962.8931,293.3418 L962.8931,285.2651 Z " fill="#000000"/><text fill="#000000" font-family="sans-serif" font-size="12" font-style="italic" lengthAdjust="spacing" textLength="42" x="978" y="293.5352">Reader</text><line style="stroke:#A80036;stroke-width:1.5;" x1="950" x2="1022" y1="305" y2="305"/><!--MD5=[e59e870d1f5d82677b4664da985e5ac1]
class asdi::edb::io::Writer--><rect codeLine="49" fill="#FEFECE" filter="url(#fpymx48v0y7ua)" height="40" id="asdi::edb::io::Writer" style="stroke:#A80036;stroke-width:1.5;" width="66" x="1065" y="273"/><ellipse cx="1080" cy="289" fill="#B4A7E5" rx="11" ry="11" style="stroke:#A80036;stroke-width:1.0;"/><path d="M1076.4277,285.2651 L1076.4277,283.1069 L1083.8071,283.1069 L1083.8071,285.2651 L1081.3418,285.2651 L1081.3418,293.3418 L1083.8071,293.3418 L1083.8071,295.5 L1076.4277,295.5 L1076.4277,293.3418 L1078.8931,293.3418 L1078.8931,285.2651 Z " fill="#000000"/><text fill="#000000" font-family="sans-serif" font-size="12" font-style="italic" lengthAdjust="spacing" textLength="34" x="1094" y="293.5352">Writer</text><line style="stroke:#A80036;stroke-width:1.5;" x1="1066" x2="1130" y1="305" y2="305"/><!--MD5=[623c1bc2600dad6dd6cfc041c89aa81d]
class asdi::edb::io::Reader::Options--><rect codeLine="36" fill="#FEFECE" filter="url(#fpymx48v0y7ua)" height="32" id="asdi::edb::io::Reader::Options" style="stroke:#A80036;stroke-width:1.5;" width="76" x="941" y="392.5"/><ellipse cx="956" cy="408.5" fill="#A9DCDF" rx="11" ry="11" style="stroke:#A80036;stroke-width:1.0;"/><path d="M955.8633,403.8481 L954.7095,408.9199 L957.0254,408.9199 Z M954.3691,401.6069 L957.3657,401.6069 L960.7109,414 L958.2622,414 L957.4985,410.937 L954.2197,410.937 L953.4727,414 L951.0239,414 Z " fill="#000000"/><text fill="#000000" font-family="sans-serif" font-size="12" font-style="italic" lengthAdjust="spacing" textLength="44" x="970" y="413.0352">Options</text><!--MD5=[41e4d08291a94f77712401772927770b]
class asdi::edb::io::Writer::Options--><rect codeLine="45" fill="#FEFECE" filter="url(#fpymx48v0y7ua)" height="32" id="asdi::edb::io::Writer::Options" style="stroke:#A80036;stroke-width:1.5;" width="76" x="1052" y="392.5"/><ellipse cx="1067" cy="408.5" fill="#A9DCDF" rx="11" ry="11" style="stroke:#A80036;stroke-width:1.0;"/><path d="M1066.8633,403.8481 L1065.7095,408.9199 L1068.0254,408.9199 Z M1065.3691,401.6069 L1068.3657,401.6069 L1071.7109,414 L1069.2622,414 L1068.4985,410.937 L1065.2197,410.937 L1064.4727,414 L1062.0239,414 Z " fill="#000000"/><text fill="#000000" font-family="sans-serif" font-size="12" font-style="italic" lengthAdjust="spacing" textLength="44" x="1081" y="413.0352">Options</text><!--MD5=[5662166f89f46ad2c4c4921bb72d18ee]
class asdi::edb::io::FilePragma--><rect codeLine="26" fill="#FEFECE" filter="url(#fpymx48v0y7ua)" height="48" id="asdi::edb::io::FilePragma" style="stroke:#A80036;stroke-width:1.5;" width="95" x="56.5" y="127"/><ellipse cx="71.5" cy="143" fill="#ADD1B2" rx="11" ry="11" style="stroke:#A80036;stroke-width:1.0;"/><path d="M73.9731,149.1431 Q73.3921,149.4419 72.7529,149.5913 Q72.1138,149.7407 71.4082,149.7407 Q68.9014,149.7407 67.5815,148.0889 Q66.2617,146.437 66.2617,143.3159 Q66.2617,140.1865 67.5815,138.5347 Q68.9014,136.8828 71.4082,136.8828 Q72.1138,136.8828 72.7612,137.0322 Q73.4087,137.1816 73.9731,137.4805 L73.9731,140.2031 Q73.3423,139.6221 72.7488,139.3523 Q72.1553,139.0825 71.5244,139.0825 Q70.1797,139.0825 69.4949,140.1492 Q68.8101,141.2158 68.8101,143.3159 Q68.8101,145.4077 69.4949,146.4744 Q70.1797,147.541 71.5244,147.541 Q72.1553,147.541 72.7488,147.2712 Q73.3423,147.0015 73.9731,146.4204 Z " fill="#000000"/><text fill="#000000" font-family="sans-serif" font-size="12" lengthAdjust="spacing" textLength="63" x="85.5" y="147.5352">FilePragma</text><line style="stroke:#A80036;stroke-width:1.5;" x1="57.5" x2="150.5" y1="159" y2="159"/><line style="stroke:#A80036;stroke-width:1.5;" x1="57.5" x2="150.5" y1="167" y2="167"/><!--MD5=[c578819a8518476f94fdeb3945a1ad12]
class asdi::edb::io::Format--><rect codeLine="27" fill="#FEFECE" filter="url(#fpymx48v0y7ua)" height="78.8652" id="asdi::edb::io::Format" style="stroke:#A80036;stroke-width:1.5;" width="90" x="59" y="253.5"/><ellipse cx="82.1" cy="269.5" fill="#EB937F" rx="11" ry="11" style="stroke:#A80036;stroke-width:1.0;"/><path d="M85.7143,276 L77.9945,276 L77.9945,263.6069 L85.7143,263.6069 L85.7143,265.7651 L80.4433,265.7651 L80.4433,268.438 L85.2162,268.438 L85.2162,270.5962 L80.4433,270.5962 L80.4433,273.8418 L85.7143,273.8418 Z " fill="#000000"/><text fill="#000000" font-family="sans-serif" font-size="12" lengthAdjust="spacing" textLength="40" x="97.9" y="274.0352">Format</text><line style="stroke:#A80036;stroke-width:1.5;" x1="60" x2="148" y1="285.5" y2="285.5"/><text fill="#000000" font-family="sans-serif" font-size="11" lengthAdjust="spacing" textLength="78" x="65" y="300.1348">DelimitedLines</text><text fill="#000000" font-family="sans-serif" font-size="11" lengthAdjust="spacing" textLength="23" x="65" y="313.0898">Json</text><text fill="#000000" font-family="sans-serif" font-size="11" lengthAdjust="spacing" textLength="24" x="65" y="326.0449">Text</text><!--MD5=[9aca6155ad57e1bf8189f9cacb2f0d4a]
class asdi::edb::io::io--><rect codeLine="54" fill="#FEFECE" filter="url(#fpymx48v0y7ua)" height="85.1309" id="asdi::edb::io::io" style="stroke:#A80036;stroke-width:1.5;" width="191" x="430.5" y="108.5"/><text fill="#000000" font-family="sans-serif" font-size="12" font-style="italic" lengthAdjust="spacing" textLength="55" x="498.5" y="125.1016">«module»</text><text fill="#000000" font-family="sans-serif" font-size="12" lengthAdjust="spacing" textLength="10" x="521" y="139.2344">io</text><line style="stroke:#A80036;stroke-width:1.5;" x1="431.5" x2="620.5" y1="146.7656" y2="146.7656"/><text fill="#000000" font-family="sans-serif" font-size="11" lengthAdjust="spacing" textLength="150" x="436.5" y="161.4004">print_relation(): Result&lt;())&gt;</text><text fill="#000000" font-family="sans-serif" font-size="11" lengthAdjust="spacing" textLength="179" x="436.5" y="174.3555">read_relation(): Result&lt;Relation&gt;</text><text fill="#000000" font-family="sans-serif" font-size="11" lengthAdjust="spacing" textLength="150" x="436.5" y="187.3105">write_relation(): Result&lt;())&gt;</text><!--MD5=[6317661c68014402ef2d159b3df76250]
class asdi::edb::io::csv::DelimitedLines--><rect codeLine="10" fill="#FFFFFF" filter="url(#fpymx48v0y7ua)" height="48" id="asdi::edb::io::csv::DelimitedLines" style="stroke:#A80036;stroke-width:1.5;" width="116" x="991" y="127"/><ellipse cx="1006" cy="143" fill="#ADD1B2" rx="11" ry="11" style="stroke:#A80036;stroke-width:1.0;"/><path d="M1008.4731,149.1431 Q1007.8921,149.4419 1007.2529,149.5913 Q1006.6138,149.7407 1005.9082,149.7407 Q1003.4014,149.7407 1002.0815,148.0889 Q1000.7617,146.437 1000.7617,143.3159 Q1000.7617,140.1865 1002.0815,138.5347 Q1003.4014,136.8828 1005.9082,136.8828 Q1006.6138,136.8828 1007.2612,137.0322 Q1007.9087,137.1816 1008.4731,137.4805 L1008.4731,140.2031 Q1007.8423,139.6221 1007.2488,139.3523 Q1006.6553,139.0825 1006.0244,139.0825 Q1004.6797,139.0825 1003.9949,140.1492 Q1003.3101,141.2158 1003.3101,143.3159 Q1003.3101,145.4077 1003.9949,146.4744 Q1004.6797,147.541 1006.0244,147.541 Q1006.6553,147.541 1007.2488,147.2712 Q1007.8423,147.0015 1008.4731,146.4204 Z " fill="#000000"/><text fill="#000000" font-family="sans-serif" font-size="12" lengthAdjust="spacing" textLength="84" x="1020" y="147.5352">DelimitedLines</text><line style="stroke:#A80036;stroke-width:1.5;" x1="992" x2="1106" y1="159" y2="159"/><line style="stroke:#A80036;stroke-width:1.5;" x1="992" x2="1106" y1="167" y2="167"/><!--MD5=[dba2b10b9f9c53f7c17306d62c961b0d]
class asdi::edb::io::csv::Options--><rect codeLine="11" fill="#FFFFFF" filter="url(#fpymx48v0y7ua)" height="48" id="asdi::edb::io::csv::Options" style="stroke:#A80036;stroke-width:1.5;" width="76" x="880" y="127"/><ellipse cx="895" cy="143" fill="#ADD1B2" rx="11" ry="11" style="stroke:#A80036;stroke-width:1.0;"/><path d="M897.4731,149.1431 Q896.8921,149.4419 896.2529,149.5913 Q895.6138,149.7407 894.9082,149.7407 Q892.4014,149.7407 891.0815,148.0889 Q889.7617,146.437 889.7617,143.3159 Q889.7617,140.1865 891.0815,138.5347 Q892.4014,136.8828 894.9082,136.8828 Q895.6138,136.8828 896.2612,137.0322 Q896.9087,137.1816 897.4731,137.4805 L897.4731,140.2031 Q896.8423,139.6221 896.2488,139.3523 Q895.6553,139.0825 895.0244,139.0825 Q893.6797,139.0825 892.9949,140.1492 Q892.3101,141.2158 892.3101,143.3159 Q892.3101,145.4077 892.9949,146.4744 Q893.6797,147.541 895.0244,147.541 Q895.6553,147.541 896.2488,147.2712 Q896.8423,147.0015 897.4731,146.4204 Z " fill="#000000"/><text fill="#000000" font-family="sans-serif" font-size="12" lengthAdjust="spacing" textLength="44" x="909" y="147.5352">Options</text><line style="stroke:#A80036;stroke-width:1.5;" x1="881" x2="955" y1="159" y2="159"/><line style="stroke:#A80036;stroke-width:1.5;" x1="881" x2="955" y1="167" y2="167"/><!--MD5=[c184ea69d16d69f81cc3903cc1f1b237]
class asdi::edb::io::json::Json--><rect codeLine="14" fill="#FFFFFF" filter="url(#fpymx48v0y7ua)" height="48" id="asdi::edb::io::json::Json" style="stroke:#A80036;stroke-width:1.5;" width="56" x="768" y="127"/><ellipse cx="783" cy="143" fill="#ADD1B2" rx="11" ry="11" style="stroke:#A80036;stroke-width:1.0;"/><path d="M785.4731,149.1431 Q784.8921,149.4419 784.2529,149.5913 Q783.6138,149.7407 782.9082,149.7407 Q780.4014,149.7407 779.0815,148.0889 Q777.7617,146.437 777.7617,143.3159 Q777.7617,140.1865 779.0815,138.5347 Q780.4014,136.8828 782.9082,136.8828 Q783.6138,136.8828 784.2612,137.0322 Q784.9087,137.1816 785.4731,137.4805 L785.4731,140.2031 Q784.8423,139.6221 784.2488,139.3523 Q783.6553,139.0825 783.0244,139.0825 Q781.6797,139.0825 780.9949,140.1492 Q780.3101,141.2158 780.3101,143.3159 Q780.3101,145.4077 780.9949,146.4744 Q781.6797,147.541 783.0244,147.541 Q783.6553,147.541 784.2488,147.2712 Q784.8423,147.0015 785.4731,146.4204 Z " fill="#000000"/><text fill="#000000" font-family="sans-serif" font-size="12" lengthAdjust="spacing" textLength="24" x="797" y="147.5352">Json</text><line style="stroke:#A80036;stroke-width:1.5;" x1="769" x2="823" y1="159" y2="159"/><line style="stroke:#A80036;stroke-width:1.5;" x1="769" x2="823" y1="167" y2="167"/><!--MD5=[35d881f978b25523aa44f9d057d075ac]
class asdi::edb::io::json::Options--><rect codeLine="15" fill="#FFFFFF" filter="url(#fpymx48v0y7ua)" height="48" id="asdi::edb::io::json::Options" style="stroke:#A80036;stroke-width:1.5;" width="76" x="657" y="127"/><ellipse cx="672" cy="143" fill="#ADD1B2" rx="11" ry="11" style="stroke:#A80036;stroke-width:1.0;"/><path d="M674.4731,149.1431 Q673.8921,149.4419 673.2529,149.5913 Q672.6138,149.7407 671.9082,149.7407 Q669.4014,149.7407 668.0815,148.0889 Q666.7617,146.437 666.7617,143.3159 Q666.7617,140.1865 668.0815,138.5347 Q669.4014,136.8828 671.9082,136.8828 Q672.6138,136.8828 673.2612,137.0322 Q673.9087,137.1816 674.4731,137.4805 L674.4731,140.2031 Q673.8423,139.6221 673.2488,139.3523 Q672.6553,139.0825 672.0244,139.0825 Q670.6797,139.0825 669.9949,140.1492 Q669.3101,141.2158 669.3101,143.3159 Q669.3101,145.4077 669.9949,146.4744 Q670.6797,147.541 672.0244,147.541 Q672.6553,147.541 673.2488,147.2712 Q673.8423,147.0015 674.4731,146.4204 Z " fill="#000000"/><text fill="#000000" font-family="sans-serif" font-size="12" lengthAdjust="spacing" textLength="44" x="686" y="147.5352">Options</text><line style="stroke:#A80036;stroke-width:1.5;" x1="658" x2="732" y1="159" y2="159"/><line style="stroke:#A80036;stroke-width:1.5;" x1="658" x2="732" y1="167" y2="167"/><!--MD5=[f9088939a140ff38ac0ec357d96696d7]
class asdi::edb::io::text::TextTables--><rect codeLine="18" fill="#FEFECE" filter="url(#fpymx48v0y7ua)" height="48" id="asdi::edb::io::text::TextTables" style="stroke:#A80036;stroke-width:1.5;" width="97" x="298.5" y="127"/><ellipse cx="313.5" cy="143" fill="#ADD1B2" rx="11" ry="11" style="stroke:#A80036;stroke-width:1.0;"/><path d="M315.9731,149.1431 Q315.3921,149.4419 314.7529,149.5913 Q314.1138,149.7407 313.4082,149.7407 Q310.9014,149.7407 309.5815,148.0889 Q308.2617,146.437 308.2617,143.3159 Q308.2617,140.1865 309.5815,138.5347 Q310.9014,136.8828 313.4082,136.8828 Q314.1138,136.8828 314.7612,137.0322 Q315.4087,137.1816 315.9731,137.4805 L315.9731,140.2031 Q315.3423,139.6221 314.7488,139.3523 Q314.1553,139.0825 313.5244,139.0825 Q312.1797,139.0825 311.4949,140.1492 Q310.8101,141.2158 310.8101,143.3159 Q310.8101,145.4077 311.4949,146.4744 Q312.1797,147.541 313.5244,147.541 Q314.1553,147.541 314.7488,147.2712 Q315.3423,147.0015 315.9731,146.4204 Z " fill="#000000"/><text fill="#000000" font-family="sans-serif" font-size="12" lengthAdjust="spacing" textLength="65" x="327.5" y="147.5352">TextTables</text><line style="stroke:#A80036;stroke-width:1.5;" x1="299.5" x2="394.5" y1="159" y2="159"/><line style="stroke:#A80036;stroke-width:1.5;" x1="299.5" x2="394.5" y1="167" y2="167"/><!--MD5=[f5d8db856916089a9fd19320be31fb48]
class asdi::edb::io::text::Options--><rect codeLine="19" fill="#FEFECE" filter="url(#fpymx48v0y7ua)" height="48" id="asdi::edb::io::text::Options" style="stroke:#A80036;stroke-width:1.5;" width="76" x="187" y="127"/><ellipse cx="202" cy="143" fill="#ADD1B2" rx="11" ry="11" style="stroke:#A80036;stroke-width:1.0;"/><path d="M204.4731,149.1431 Q203.8921,149.4419 203.2529,149.5913 Q202.6138,149.7407 201.9082,149.7407 Q199.4014,149.7407 198.0815,148.0889 Q196.7617,146.437 196.7617,143.3159 Q196.7617,140.1865 198.0815,138.5347 Q199.4014,136.8828 201.9082,136.8828 Q202.6138,136.8828 203.2612,137.0322 Q203.9087,137.1816 204.4731,137.4805 L204.4731,140.2031 Q203.8423,139.6221 203.2488,139.3523 Q202.6553,139.0825 202.0244,139.0825 Q200.6797,139.0825 199.9949,140.1492 Q199.3101,141.2158 199.3101,143.3159 Q199.3101,145.4077 199.9949,146.4744 Q200.6797,147.541 202.0244,147.541 Q202.6553,147.541 203.2488,147.2712 Q203.8423,147.0015 204.4731,146.4204 Z " fill="#000000"/><text fill="#000000" font-family="sans-serif" font-size="12" lengthAdjust="spacing" textLength="44" x="216" y="147.5352">Options</text><line style="stroke:#A80036;stroke-width:1.5;" x1="188" x2="262" y1="159" y2="159"/><line style="stroke:#A80036;stroke-width:1.5;" x1="188" x2="262" y1="167" y2="167"/><!--MD5=[0784b2fc11df13a1d50fc7e720fd919b]
class std::default::Default--><rect fill="#FEFECE" filter="url(#fpymx48v0y7ua)" height="48" id="std::default::Default" style="stroke:#A80036;stroke-width:1.5;" width="73" x="1110.5" y="523.5"/><ellipse cx="1125.5" cy="539.5" fill="#ADD1B2" rx="11" ry="11" style="stroke:#A80036;stroke-width:1.0;"/><path d="M1127.9731,545.6431 Q1127.3921,545.9419 1126.7529,546.0913 Q1126.1138,546.2407 1125.4082,546.2407 Q1122.9014,546.2407 1121.5815,544.5889 Q1120.2617,542.937 1120.2617,539.8159 Q1120.2617,536.6865 1121.5815,535.0347 Q1122.9014,533.3828 1125.4082,533.3828 Q1126.1138,533.3828 1126.7612,533.5322 Q1127.4087,533.6816 1127.9731,533.9805 L1127.9731,536.7031 Q1127.3423,536.1221 1126.7488,535.8523 Q1126.1553,535.5825 1125.5244,535.5825 Q1124.1797,535.5825 1123.4949,536.6492 Q1122.8101,537.7158 1122.8101,539.8159 Q1122.8101,541.9077 1123.4949,542.9744 Q1124.1797,544.041 1125.5244,544.041 Q1126.1553,544.041 1126.7488,543.7712 Q1127.3423,543.5015 1127.9731,542.9204 Z " fill="#000000"/><text fill="#000000" font-family="sans-serif" font-size="12" lengthAdjust="spacing" textLength="41" x="1139.5" y="544.0352">Default</text><line style="stroke:#A80036;stroke-width:1.5;" x1="1111.5" x2="1182.5" y1="555.5" y2="555.5"/><line style="stroke:#A80036;stroke-width:1.5;" x1="1111.5" x2="1182.5" y1="563.5" y2="563.5"/><!--MD5=[5cafc9d647b24ed684858a9668107e3b]
link asdi::edb::io::text::TextTables to asdi::edb::io::Reader--><path codeLine="20" d="M367.37,175.03 C376.47,183.9 387.88,193.27 400,199 C493.42,243.14 800.29,275.21 928.7,287.02 " fill="none" id="asdi::edb::io::text::TextTables-to-asdi::edb::io::Reader" style="stroke:#A80036;stroke-width:1.0;stroke-dasharray:7.0,7.0;"/><polygon fill="none" points="929.48,280.06,948.77,288.84,928.22,294.01,929.48,280.06" style="stroke:#A80036;stroke-width:1.0;"/><!--MD5=[eb044a2aec14b842014ba211fee867c0]
link asdi::edb::io::text::TextTables to asdi::edb::io::Writer--><path codeLine="21" d="M366.92,175.22 C376.03,184.24 387.57,193.67 400,199 C662.77,311.69 771.4,158.3 1041,253.5 C1047,255.62 1052.97,258.52 1058.67,261.79 " fill="none" id="asdi::edb::io::text::TextTables-to-asdi::edb::io::Writer" style="stroke:#A80036;stroke-width:1.0;stroke-dasharray:7.0,7.0;"/><polygon fill="none" points="1062.78,256.12,1075.61,272.98,1055.07,267.81,1062.78,256.12" style="stroke:#A80036;stroke-width:1.0;"/><!--MD5=[d9f7e12fc332f9f86b1ffc9034acf33b]
link asdi::edb::io::text::Options to asdi::edb::io::Reader::Options--><path codeLine="22" d="M249.52,175.07 C258.93,183.24 270.05,192.1 281,199 C402.42,275.5 438.11,289.42 575,332.5 C702.92,372.76 860.82,394.33 935.69,402.96 " fill="none" id="asdi::edb::io::text::Options-to-asdi::edb::io::Reader::Options" style="stroke:#A80036;stroke-width:1.0;stroke-dasharray:7.0,7.0;"/><polygon fill="#A80036" points="940.94,403.55,932.4556,398.5484,935.9727,402.979,931.5421,406.4961,940.94,403.55" style="stroke:#A80036;stroke-width:1.0;"/><!--MD5=[efae19f9273db7d1d979752719da1082]
link asdi::edb::io::text::Options to asdi::edb::io::Writer::Options--><path codeLine="23" d="M247.82,175.16 C257.38,183.74 269.03,192.85 281,199 C290.62,203.94 1024.55,389.73 1035,392.5 C1038.83,393.51 1042.82,394.58 1046.81,395.65 " fill="none" id="asdi::edb::io::text::Options-to-asdi::edb::io::Writer::Options" style="stroke:#A80036;stroke-width:1.0;stroke-dasharray:7.0,7.0;"/><polygon fill="#A80036" points="1051.85,397.02,1044.1994,390.8178,1047.0219,395.7201,1042.1196,398.5427,1051.85,397.02" style="stroke:#A80036;stroke-width:1.0;"/><!--MD5=[f74eefd66f2d06b33bc8a0cb71beb998]
link asdi::edb::io::FilePragma to asdi::edb::io::Format--><path codeLine="33" d="M104,187.12 C104,187.12 104,222.93 104,240.15 " fill="none" id="asdi::edb::io::FilePragma-asdi::edb::io::Format" style="stroke:#A80036;stroke-width:1.0;"/><polygon fill="#A80036" points="104,253.23,108,244.23,104,248.23,100,244.23,104,253.23" style="stroke:#A80036;stroke-width:1.0;"/><line style="stroke:#A80036;stroke-width:1.0;" x1="104" x2="104" y1="248.23" y2="240.23"/><polygon fill="#A80036" points="104,175.12,100,181.12,104,187.12,108,181.12,104,175.12" style="stroke:#A80036;stroke-width:1.0;"/><!--MD5=[e692efb263c10140293b787a30e1f248]
link asdi::edb::io::Reader::Options to std::default::Default--><path codeLine="38" d="M990.47,424.51 C1001.16,437.94 1017.97,457.74 1035,472.5 C1052.78,487.9 1073.94,502.66 1093.07,514.89 " fill="none" id="asdi::edb::io::Reader::Options-to-std::default::Default" style="stroke:#A80036;stroke-width:1.0;stroke-dasharray:7.0,7.0;"/><polygon fill="none" points="1096.95,509.07,1110.25,525.57,1089.56,520.96,1096.95,509.07" style="stroke:#A80036;stroke-width:1.0;"/><!--MD5=[d9b821e98b67c02711b7f86373ef7af9]
link asdi::edb::io::Reader to std::default::Default--><path codeLine="41" d="M1013.18,313.15 C1023.7,319.94 1036.07,327.21 1048,332.5 C1136.33,371.7 1198.85,315.31 1257,392.5 C1278.39,420.9 1273.71,441.12 1257,472.5 C1245.02,495 1222.81,511.89 1201.47,523.8 " fill="none" id="asdi::edb::io::Reader-to-std::default::Default" style="stroke:#A80036;stroke-width:1.0;stroke-dasharray:7.0,7.0;"/><polygon fill="none" points="1204.61,530.06,1183.6,532.83,1198.3,517.56,1204.61,530.06" style="stroke:#A80036;stroke-width:1.0;"/><!--MD5=[0e53f512a8b66395dcdc0f5d347a5898]
reverse link asdi::edb::io::Reader to asdi::edb::io::Reader::Options--><path codeLine="42" d="M983.88,328.3 C982.57,349.57 980.95,375.87 979.95,392.16 " fill="none" id="asdi::edb::io::Reader-backto-asdi::edb::io::Reader::Options" style="stroke:#A80036;stroke-width:1.0;"/><ellipse cx="984.3148" cy="321.2347" fill="#FFFFFF" rx="8" ry="8" style="stroke:#A80036;stroke-width:1.0;"/><line style="stroke:#A80036;stroke-width:1.0;" x1="983.8195" x2="984.81" y1="329.2193" y2="313.25"/><line style="stroke:#A80036;stroke-width:1.0;" x1="976.3301" x2="992.2994" y1="320.7394" y2="321.7299"/><!--MD5=[bbd27bd6626eb0eae47c9ab5df8756d2]
link asdi::edb::io::Reader to asdi::edb::Relation--><path codeLine="43" d="M1015.28,313.04 C1025.5,319.45 1037.13,326.5 1048,332.5 C1086.71,353.87 1132.4,375.72 1163.91,390.28 " fill="none" id="asdi::edb::io::Reader-to-asdi::edb::Relation" style="stroke:#A80036;stroke-width:1.0;stroke-dasharray:7.0,7.0;"/><polygon fill="#A80036" points="1168.45,392.37,1161.959,384.9628,1163.9115,390.272,1158.6022,392.2244,1168.45,392.37" style="stroke:#A80036;stroke-width:1.0;"/><!--MD5=[728d3a07abe2a12fac85776c1b037e0e]
link asdi::edb::io::Writer::Options to std::default::Default--><path codeLine="47" d="M1096.32,424.68 C1104.26,443.76 1118.2,477.29 1129.46,504.34 " fill="none" id="asdi::edb::io::Writer::Options-to-std::default::Default" style="stroke:#A80036;stroke-width:1.0;stroke-dasharray:7.0,7.0;"/><polygon fill="none" points="1136.01,501.86,1137.23,523.01,1123.08,507.23,1136.01,501.86" style="stroke:#A80036;stroke-width:1.0;"/><!--MD5=[74ed8b85e1ad719571121b8641d40594]
link asdi::edb::io::Writer to std::default::Default--><path codeLine="50" d="M1131.18,297.62 C1182.04,305.15 1277.82,327.64 1320,392.5 C1339.38,422.31 1339.58,442.82 1320,472.5 C1294.26,511.51 1243.26,530.03 1203.27,538.78 " fill="none" id="asdi::edb::io::Writer-to-std::default::Default" style="stroke:#A80036;stroke-width:1.0;stroke-dasharray:7.0,7.0;"/><polygon fill="none" points="1204.51,545.67,1183.56,542.52,1201.9,531.91,1204.51,545.67" style="stroke:#A80036;stroke-width:1.0;"/><!--MD5=[2ab21bb242026e6ed66cfa39826c9268]
reverse link asdi::edb::io::Writer to asdi::edb::io::Writer::Options--><path codeLine="51" d="M1095.58,328.3 C1094.08,349.57 1092.23,375.87 1091.08,392.16 " fill="none" id="asdi::edb::io::Writer-backto-asdi::edb::io::Writer::Options" style="stroke:#A80036;stroke-width:1.0;"/><ellipse cx="1096.0765" cy="321.2301" fill="#FFFFFF" rx="8" ry="8" style="stroke:#A80036;stroke-width:1.0;"/><line style="stroke:#A80036;stroke-width:1.0;" x1="1095.513" x2="1096.64" y1="329.2103" y2="313.25"/><line style="stroke:#A80036;stroke-width:1.0;" x1="1088.0964" x2="1104.0566" y1="320.6666" y2="321.7936"/><!--MD5=[7888158d600281a399a5d37408512b6f]
link asdi::edb::io::Writer to asdi::edb::Relation--><path codeLine="52" d="M1105.79,313.25 C1121.18,334.3 1151.9,367.8 1174.97,388.67 " fill="none" id="asdi::edb::io::Writer-to-asdi::edb::Relation" style="stroke:#A80036;stroke-width:1.0;stroke-dasharray:7.0,7.0;"/><polygon fill="#A80036" points="1178.9,392.16,1174.8138,383.1988,1175.1567,388.8453,1169.5102,389.1882,1178.9,392.16" style="stroke:#A80036;stroke-width:1.0;"/><!--MD5=[7888158d600281a399a5d37408512b6f]
link asdi::edb::io::Writer to asdi::edb::Relation--><path codeLine="61" d="M1126.08,313.25 C1149.19,334.04 1179.38,366.97 1194.53,387.89 " fill="none" id="asdi::edb::io::Writer-to-asdi::edb::Relation-1" style="stroke:#A80036;stroke-width:1.0;stroke-dasharray:7.0,7.0;"/><polygon fill="#A80036" points="1197.53,392.16,1195.6276,382.4966,1194.655,388.0692,1189.0824,387.0966,1197.53,392.16" style="stroke:#A80036;stroke-width:1.0;"/><!--MD5=[d0f321dd5c38da54dc71667d2f2777d1]
link asdi::edb::io::io to asdi::edb::Relation--><path codeLine="60" d="M621.65,193.41 C628.13,195.49 634.62,197.39 641,199 C751.08,226.81 1060.23,182.72 1149,253.5 C1190.34,286.46 1199.57,353.44 1201.53,387.15 " fill="none" id="asdi::edb::io::io-to-asdi::edb::Relation" style="stroke:#A80036;stroke-width:1.0;stroke-dasharray:7.0,7.0;"/><polygon fill="#A80036" points="1201.79,392.26,1205.3225,383.0664,1201.5332,387.2666,1197.333,383.4773,1201.79,392.26" style="stroke:#A80036;stroke-width:1.0;"/><!--MD5=[5ae79fa94ba8ae13ec9724f1f86828eb]
@startuml

!include options.plantuml

interface asdi::edb::Relation
hide "asdi::edb::Relation" members

namespace asdi::edb::io {

    namespace csv {
        class DelimitedLines #white
        class Options #white
    }
    namespace json {
        class Json #white
        class Options #white
    }
    namespace text {
        class TextTables
        class Options
        TextTables ..|> asdi::edb::io::Reader
        TextTables ..|> asdi::edb::io::Writer
        Options ..> asdi::edb::io::Reader::Options
        Options ..> asdi::edb::io::Writer::Options
    }

    class FilePragma
    enum Format {
        DelimitedLines
        Json
        Text
    }

    FilePragma *-down-> Format


    abstract class asdi::edb::io::Reader::Options
    hide "asdi::edb::io::Reader::Options" members
    asdi::edb::io::Reader::Options ..|> std::default::Default

    interface Reader
    Reader ..|> std::default::Default
    Reader +- - asdi::edb::io::Reader::Options
    Reader ..> asdi::edb::Relation

    abstract class asdi::edb::io::Writer::Options
    hide "asdi::edb::io::Writer::Options" members
    asdi::edb::io::Writer::Options ..|> std::default::Default

    interface Writer
    Writer ..|> std::default::Default
    Writer +- - asdi::edb::io::Writer::Options
    Writer ..> asdi::edb::Relation

    class io << module >> {
        print_relation(): Result<())>
        read_relation(): Result<Relation>
        write_relation(): Result<())>
    }

    io ..> asdi::edb::Relation
    Writer ..> asdi::edb::Relation
}

@enduml

@startuml

set namespaceSeparator ::
hide enum methods
hide interface fields
hide << const >> members
hide << type >> members
hide << type >> stereotype
hide << module >> fields
hide << module >> circle

interface asdi::edb::Relation
hide "asdi::edb::Relation" members

namespace asdi::edb::io {

    namespace csv {
        class DelimitedLines #white
        class Options #white
    }
    namespace json {
        class Json #white
        class Options #white
    }
    namespace text {
        class TextTables
        class Options
        TextTables ..|> asdi::edb::io::Reader
        TextTables ..|> asdi::edb::io::Writer
        Options ..> asdi::edb::io::Reader::Options
        Options ..> asdi::edb::io::Writer::Options
    }

    class FilePragma
    enum Format {
        DelimitedLines
        Json
        Text
    }

    FilePragma *-down-> Format


    abstract class asdi::edb::io::Reader::Options
    hide "asdi::edb::io::Reader::Options" members
    asdi::edb::io::Reader::Options ..|> std::default::Default

    interface Reader
    Reader ..|> std::default::Default
    Reader +- - asdi::edb::io::Reader::Options
    Reader ..> asdi::edb::Relation

    abstract class asdi::edb::io::Writer::Options
    hide "asdi::edb::io::Writer::Options" members
    asdi::edb::io::Writer::Options ..|> std::default::Default

    interface Writer
    Writer ..|> std::default::Default
    Writer +- - asdi::edb::io::Writer::Options
    Writer ..> asdi::edb::Relation

    class io << module >> {
        print_relation(): Result<())>
        read_relation(): Result<Relation>
        write_relation(): Result<())>
    }

    io ..> asdi::edb::Relation
    Writer ..> asdi::edb::Relation
}

@enduml

PlantUML version 1.2022.1(Tue Feb 01 10:19:58 PST 2022)
(GPL source distribution)
Java Runtime: OpenJDK Runtime Environment
JVM: OpenJDK 64-Bit Server VM
Default Encoding: UTF-8
Language: en
Country: US
--></g></svg>