<?xml version="1.0" encoding="UTF-8" standalone="no"?><svg xmlns="http://www.w3.org/2000/svg" xmlns:xlink="http://www.w3.org/1999/xlink" contentScriptType="application/ecmascript" contentStyleType="text/css" height="443px" preserveAspectRatio="none" style="width:408px;height:443px;background:#FFFFFF;" version="1.1" viewBox="0 0 408 443" width="408px" zoomAndPan="magnify"><defs><filter height="300%" id="f1so4o5if8l4f7" width="300%" x="-1" y="-1"><feGaussianBlur result="blurOut" stdDeviation="2.0"/><feColorMatrix in="blurOut" result="blurOut2" type="matrix" values="0 0 0 0 0 0 0 0 0 0 0 0 0 0 0 0 0 0 .4 0"/><feOffset dx="4.0" dy="4.0" in="blurOut2" result="blurOut3"/><feBlend in="SourceGraphic" in2="blurOut3" mode="normal"/></filter></defs><g><!--MD5=[af63c64fec698275cfc4891f303451d3]
cluster asdi::features--><polygon fill="#FFFFFF" filter="url(#f1so4o5if8l4f7)" points="16,6,117,6,124,28.4883,391,28.4883,391,436,16,436,16,6" style="stroke:#000000;stroke-width:1.5;"/><line style="stroke:#000000;stroke-width:1.5;" x1="16" x2="124" y1="28.4883" y2="28.4883"/><text fill="#000000" font-family="sans-serif" font-size="14" font-weight="bold" lengthAdjust="spacing" textLength="95" x="20" y="21.5352">asdi::features</text><!--MD5=[b7d621662b47b4b8208121f11410dc9a]
class asdi::features::Feature--><rect codeLine="5" fill="#FEFECE" filter="url(#f1so4o5if8l4f7)" height="73.9102" id="asdi::features::Feature" style="stroke:#A80036;stroke-width:1.5;" width="100" x="275" y="285.5"/><ellipse cx="301.25" cy="301.5" fill="#ADD1B2" rx="11" ry="11" style="stroke:#A80036;stroke-width:1.0;"/><path d="M303.7231,307.6431 Q303.1421,307.9419 302.5029,308.0913 Q301.8638,308.2407 301.1582,308.2407 Q298.6514,308.2407 297.3315,306.5889 Q296.0117,304.937 296.0117,301.8159 Q296.0117,298.6865 297.3315,297.0347 Q298.6514,295.3828 301.1582,295.3828 Q301.8638,295.3828 302.5112,295.5322 Q303.1587,295.6816 303.7231,295.9805 L303.7231,298.7031 Q303.0923,298.1221 302.4988,297.8523 Q301.9053,297.5825 301.2744,297.5825 Q299.9297,297.5825 299.2449,298.6492 Q298.5601,299.7158 298.5601,301.8159 Q298.5601,303.9077 299.2449,304.9744 Q299.9297,306.041 301.2744,306.041 Q301.9053,306.041 302.4988,305.7712 Q303.0923,305.5015 303.7231,304.9204 Z " fill="#000000"/><text fill="#000000" font-family="sans-serif" font-size="12" lengthAdjust="spacing" textLength="43" x="317.75" y="306.0352">Feature</text><line style="stroke:#A80036;stroke-width:1.5;" x1="276" x2="374" y1="317.5" y2="317.5"/><line style="stroke:#A80036;stroke-width:1.5;" x1="276" x2="374" y1="325.5" y2="325.5"/><text fill="#000000" font-family="sans-serif" font-size="11" lengthAdjust="spacing" textLength="74" x="281" y="340.1348">label() : String</text><text fill="#000000" font-family="sans-serif" font-size="11" lengthAdjust="spacing" textLength="88" x="281" y="353.0898">symbol() : String</text><!--MD5=[10e3bb9f30c83b84488054de99f42877]
class asdi::features::FeatureSet--><rect codeLine="9" fill="#FEFECE" filter="url(#f1so4o5if8l4f7)" height="194.5059" id="asdi::features::FeatureSet" style="stroke:#A80036;stroke-width:1.5;" width="207" x="32.5" y="225"/><ellipse cx="101.75" cy="241" fill="#ADD1B2" rx="11" ry="11" style="stroke:#A80036;stroke-width:1.0;"/><path d="M104.2231,247.1431 Q103.6421,247.4419 103.0029,247.5913 Q102.3638,247.7407 101.6582,247.7407 Q99.1514,247.7407 97.8315,246.0889 Q96.5117,244.437 96.5117,241.3159 Q96.5117,238.1865 97.8315,236.5347 Q99.1514,234.8828 101.6582,234.8828 Q102.3638,234.8828 103.0112,235.0322 Q103.6587,235.1816 104.2231,235.4805 L104.2231,238.2031 Q103.5923,237.6221 102.9988,237.3523 Q102.4053,237.0825 101.7744,237.0825 Q100.4297,237.0825 99.7449,238.1492 Q99.0601,239.2158 99.0601,241.3159 Q99.0601,243.4077 99.7449,244.4744 Q100.4297,245.541 101.7744,245.541 Q102.4053,245.541 102.9988,245.2712 Q103.5923,245.0015 104.2231,244.4204 Z " fill="#000000"/><text fill="#000000" font-family="sans-serif" font-size="12" lengthAdjust="spacing" textLength="60" x="122.25" y="245.5352">FeatureSet</text><line style="stroke:#A80036;stroke-width:1.5;" x1="33.5" x2="238.5" y1="257" y2="257"/><text fill="#000000" font-family="sans-serif" font-size="11" lengthAdjust="spacing" textLength="110" x="38.5" y="271.6348">default() : FeatureSet</text><text fill="#000000" font-family="sans-serif" font-size="11" lengthAdjust="spacing" textLength="85" x="38.5" y="284.5898">all() : FeatureSet</text><text fill="#000000" font-family="sans-serif" font-size="11" lengthAdjust="spacing" textLength="93" x="38.5" y="314.5">is_default() : bool</text><text fill="#000000" font-family="sans-serif" font-size="11" lengthAdjust="spacing" textLength="138" x="38.5" y="327.4551">supports(&amp;Feature) : bool</text><text fill="#000000" font-family="sans-serif" font-size="11" lengthAdjust="spacing" textLength="101" x="38.5" y="340.4102">features() : Iterator</text><line style="stroke:#A80036;stroke-width:1.0;" x1="33.5" x2="120.5" y1="297.3877" y2="297.3877"/><line style="stroke:#A80036;stroke-width:1.0;" x1="33.5" x2="120.5" y1="299.3877" y2="299.3877"/><text fill="#000000" font-family="sans-serif" font-size="11" lengthAdjust="spacing" textLength="31" x="120.5" y="301.0449">query</text><line style="stroke:#A80036;stroke-width:1.0;" x1="151.5" x2="238.5" y1="297.3877" y2="297.3877"/><line style="stroke:#A80036;stroke-width:1.0;" x1="151.5" x2="238.5" y1="299.3877" y2="299.3877"/><text fill="#000000" font-family="sans-serif" font-size="11" lengthAdjust="spacing" textLength="175" x="38.5" y="370.3203">add_support_for(&amp;Feature) : Self</text><text fill="#000000" font-family="sans-serif" font-size="11" lengthAdjust="spacing" textLength="195" x="38.5" y="383.2754">remove_support_for(&amp;Feature) : Self</text><line style="stroke:#A80036;stroke-width:1.0;" x1="33.5" x2="117.5" y1="353.208" y2="353.208"/><line style="stroke:#A80036;stroke-width:1.0;" x1="33.5" x2="117.5" y1="355.208" y2="355.208"/><text fill="#000000" font-family="sans-serif" font-size="11" lengthAdjust="spacing" textLength="37" x="117.5" y="356.8652">update</text><line style="stroke:#A80036;stroke-width:1.0;" x1="154.5" x2="238.5" y1="353.208" y2="353.208"/><line style="stroke:#A80036;stroke-width:1.0;" x1="154.5" x2="238.5" y1="355.208" y2="355.208"/><text fill="#000000" font-family="sans-serif" font-size="11" lengthAdjust="spacing" textLength="98" x="38.5" y="413.1855">language() : String</text><line style="stroke:#A80036;stroke-width:1.0;" x1="33.5" x2="106.5" y1="396.0732" y2="396.0732"/><line style="stroke:#A80036;stroke-width:1.0;" x1="33.5" x2="106.5" y1="398.0732" y2="398.0732"/><text fill="#000000" font-family="sans-serif" font-size="11" lengthAdjust="spacing" textLength="59" x="106.5" y="399.7305">descriptive</text><line style="stroke:#A80036;stroke-width:1.0;" x1="165.5" x2="238.5" y1="396.0732" y2="396.0732"/><line style="stroke:#A80036;stroke-width:1.0;" x1="165.5" x2="238.5" y1="398.0732" y2="398.0732"/><!--MD5=[51fc472c7e3be7036857e5a67718368f]
class asdi::features::features--><rect codeLine="25" fill="#FEFECE" filter="url(#f1so4o5if8l4f7)" height="123.9961" id="asdi::features::features" style="stroke:#A80036;stroke-width:1.5;" width="313" x="61.5" y="41"/><text fill="#000000" font-family="sans-serif" font-size="12" font-style="italic" lengthAdjust="spacing" textLength="55" x="190.5" y="57.6016">«module»</text><text fill="#000000" font-family="sans-serif" font-size="12" lengthAdjust="spacing" textLength="47" x="194.5" y="71.7344">features</text><line style="stroke:#A80036;stroke-width:1.5;" x1="62.5" x2="373.5" y1="79.2656" y2="79.2656"/><text fill="#000000" font-family="sans-serif" font-size="11" lengthAdjust="spacing" textLength="171" x="67.5" y="93.9004">ALL_FEATURES: Feature «const»</text><text fill="#000000" font-family="sans-serif" font-size="11" lengthAdjust="spacing" textLength="224" x="67.5" y="106.8555">FEATURE_COMPARISONS: Feature «const»</text><text fill="#000000" font-family="sans-serif" font-size="11" lengthAdjust="spacing" textLength="222" x="67.5" y="119.8105">FEATURE_CONSTRAINTS: Feature «const»</text><text fill="#000000" font-family="sans-serif" font-size="11" lengthAdjust="spacing" textLength="216" x="67.5" y="132.7656">FEATURE_DISJUNCTION: Feature «const»</text><text fill="#000000" font-family="sans-serif" font-size="11" lengthAdjust="spacing" textLength="202" x="67.5" y="145.7207">FEATURE_NEGATION: Feature «const»</text><text fill="#000000" font-family="sans-serif" font-size="11" lengthAdjust="spacing" textLength="301" x="67.5" y="158.6758">FEATURE_FUNCTIONAL_DEPENDENCIES: Feature «const»</text><!--MD5=[b7212f46f5dbec8e6d0c636faadfde0d]
link asdi::features::FeatureSet to asdi::features::Feature--><path codeLine="23" d="M251.73,322.5 C251.73,322.5 258.54,322.5 261.38,322.5 " fill="none" id="asdi::features::FeatureSet-asdi::features::Feature" style="stroke:#A80036;stroke-width:1.0;"/><polygon fill="#A80036" points="274.7,322.5,265.7,318.5,269.7,322.5,265.7,326.5,274.7,322.5" style="stroke:#A80036;stroke-width:1.0;"/><line style="stroke:#A80036;stroke-width:1.0;" x1="269.7" x2="261.7" y1="322.5" y2="322.5"/><polygon fill="none" points="239.73,322.5,245.73,326.5,251.73,322.5,245.73,318.5,239.73,322.5" style="stroke:#A80036;stroke-width:1.0;"/><!--MD5=[685156c0fb386b38b50c6d20ad33346e]
link asdi::features::features to asdi::features::Feature--><path codeLine="36" d="M248.09,165.16 C266.24,202.05 288.86,248.03 304.86,280.55 " fill="none" id="asdi::features::features-to-asdi::features::Feature" style="stroke:#A80036;stroke-width:1.0;stroke-dasharray:7.0,7.0;"/><polygon fill="#A80036" points="307.17,285.25,306.7731,275.4091,304.9568,280.7665,299.5995,278.9503,307.17,285.25" style="stroke:#A80036;stroke-width:1.0;"/><!--MD5=[4298a004ff329bbb2bcb4f74b9cda58c]
@startuml

!include options.plantuml

namespace asdi::features {
    class Feature {
        label() : String
        symbol() : String
    }
    class FeatureSet {
        default() : FeatureSet
        all() : FeatureSet
        == query ==
        is_default() : bool
        supports(&Feature) : bool
        features() : Iterator<&Feature>
        == update ==
        add_support_for(&Feature) : Self
        remove_support_for(&Feature) : Self
        == descriptive ==
        language() : String
    }

    FeatureSet o-> Feature

    class features << module >> {
        ALL_FEATURES: Feature <<const>>
        FEATURE_COMPARISONS: Feature <<const>>
        FEATURE_CONSTRAINTS: Feature <<const>>
        FEATURE_DISJUNCTION: Feature <<const>>
        FEATURE_NEGATION: Feature <<const>>
        FEATURE_FUNCTIONAL_DEPENDENCIES: Feature <<const>>
    }
    show features fields
    hide features methods

    features ..> Feature
}

@enduml

@startuml

set namespaceSeparator ::
hide enum methods
hide interface fields
hide << const >> members
hide << type >> members
hide << type >> stereotype
hide << module >> fields
hide << module >> circle

namespace asdi::features {
    class Feature {
        label() : String
        symbol() : String
    }
    class FeatureSet {
        default() : FeatureSet
        all() : FeatureSet
        == query ==
        is_default() : bool
        supports(&Feature) : bool
        features() : Iterator<&Feature>
        == update ==
        add_support_for(&Feature) : Self
        remove_support_for(&Feature) : Self
        == descriptive ==
        language() : String
    }

    FeatureSet o-> Feature

    class features << module >> {
        ALL_FEATURES: Feature <<const>>
        FEATURE_COMPARISONS: Feature <<const>>
        FEATURE_CONSTRAINTS: Feature <<const>>
        FEATURE_DISJUNCTION: Feature <<const>>
        FEATURE_NEGATION: Feature <<const>>
        FEATURE_FUNCTIONAL_DEPENDENCIES: Feature <<const>>
    }
    show features fields
    hide features methods

    features ..> Feature
}

@enduml

PlantUML version 1.2022.1(Tue Feb 01 10:19:58 PST 2022)
(GPL source distribution)
Java Runtime: OpenJDK Runtime Environment
JVM: OpenJDK 64-Bit Server VM
Default Encoding: UTF-8
Language: en
Country: US
--></g></svg>