<?xml version="1.0" encoding="UTF-8" standalone="no"?><svg xmlns="http://www.w3.org/2000/svg" xmlns:xlink="http://www.w3.org/1999/xlink" contentScriptType="application/ecmascript" contentStyleType="text/css" height="700px" preserveAspectRatio="none" style="width:1362px;height:700px;background:#FFFFFF;" version="1.1" viewBox="0 0 1362 700" width="1362px" zoomAndPan="magnify"><defs><filter height="300%" id="fwlkldz99pozn" width="300%" x="-1" y="-1"><feGaussianBlur result="blurOut" stdDeviation="2.0"/><feColorMatrix in="blurOut" result="blurOut2" type="matrix" values="0 0 0 0 0 0 0 0 0 0 0 0 0 0 0 0 0 0 .4 0"/><feOffset dx="4.0" dy="4.0" in="blurOut2" result="blurOut3"/><feBlend in="SourceGraphic" in2="blurOut3" mode="normal"/></filter></defs><g><!--MD5=[e274c4916ac42ef1c11391a83d303c10]
cluster asdi--><polygon fill="#FFFFFF" filter="url(#fwlkldz99pozn)" points="16,41.8,52,41.8,59,64.2883,1066,64.2883,1066,693.8,16,693.8,16,41.8" style="stroke:#000000;stroke-width:1.5;"/><line style="stroke:#000000;stroke-width:1.5;" x1="16" x2="59" y1="64.2883" y2="64.2883"/><text fill="#000000" font-family="sans-serif" font-size="14" font-weight="bold" lengthAdjust="spacing" textLength="30" x="20" y="57.3352">asdi</text><!--MD5=[ae3c197a01158459eb2ddb806e23d6f2]
cluster asdi::idb--><polygon fill="#FFFFFF" filter="url(#fwlkldz99pozn)" points="184,84.8,213,84.8,220,107.2883,880,107.2883,880,598.8,184,598.8,184,84.8" style="stroke:#000000;stroke-width:1.5;"/><line style="stroke:#000000;stroke-width:1.5;" x1="184" x2="220" y1="107.2883" y2="107.2883"/><text fill="#000000" font-family="sans-serif" font-size="14" font-weight="bold" lengthAdjust="spacing" textLength="23" x="188" y="100.3352">idb</text><!--MD5=[6bc3af5db4038e5494ba0622f07de59b]
cluster asdi::edb--><polygon fill="#FFFFFF" filter="url(#fwlkldz99pozn)" points="1090,282.3,1158,282.3,1165,304.7883,1345,304.7883,1345,365.3,1090,365.3,1090,282.3" style="stroke:#000000;stroke-width:1.5;"/><line style="stroke:#000000;stroke-width:1.5;" x1="1090" x2="1165" y1="304.7883" y2="304.7883"/><text fill="#000000" font-family="sans-serif" font-size="14" font-weight="bold" lengthAdjust="spacing" textLength="62" x="1094" y="297.8352">asdi::edb</text><!--MD5=[2110a1d684b71e50a272297f2c09c595]
class asdi::AttributeName--><rect codeLine="4" fill="#FEFECE" filter="url(#fwlkldz99pozn)" height="32" id="asdi::AttributeName" style="stroke:#A80036;stroke-width:1.5;" width="116" x="344" y="645.8"/><ellipse cx="359" cy="661.8" fill="#B4A7E5" rx="11" ry="11" style="stroke:#A80036;stroke-width:1.0;"/><path d="M355.4277,658.0651 L355.4277,655.9069 L362.8071,655.9069 L362.8071,658.0651 L360.3418,658.0651 L360.3418,666.1418 L362.8071,666.1418 L362.8071,668.3 L355.4277,668.3 L355.4277,666.1418 L357.8931,666.1418 L357.8931,658.0651 Z " fill="#000000"/><text fill="#000000" font-family="sans-serif" font-size="12" font-style="italic" lengthAdjust="spacing" textLength="84" x="373" y="666.3352">AttributeName</text><!--MD5=[a769fd774dc4e74f949d393dd195b319]
class asdi::Labeled--><rect codeLine="7" fill="#FEFECE" filter="url(#fwlkldz99pozn)" height="32" id="asdi::Labeled" style="stroke:#A80036;stroke-width:1.5;" width="78" x="896" y="402.8"/><ellipse cx="911" cy="418.8" fill="#B4A7E5" rx="11" ry="11" style="stroke:#A80036;stroke-width:1.0;"/><path d="M907.4277,415.0651 L907.4277,412.9069 L914.8071,412.9069 L914.8071,415.0651 L912.3418,415.0651 L912.3418,423.1418 L914.8071,423.1418 L914.8071,425.3 L907.4277,425.3 L907.4277,423.1418 L909.8931,423.1418 L909.8931,415.0651 Z " fill="#000000"/><text fill="#000000" font-family="sans-serif" font-size="12" font-style="italic" lengthAdjust="spacing" textLength="46" x="925" y="423.3352">Labeled</text><!--MD5=[a36ef1bdba718ac7a4b8a2af506f0d6e]
class asdi::MaybeAnonymous--><rect codeLine="10" fill="#FEFECE" filter="url(#fwlkldz99pozn)" height="32" id="asdi::MaybeAnonymous" style="stroke:#A80036;stroke-width:1.5;" width="136" x="32" y="507.8"/><ellipse cx="47" cy="523.8" fill="#B4A7E5" rx="11" ry="11" style="stroke:#A80036;stroke-width:1.0;"/><path d="M43.4277,520.0651 L43.4277,517.9069 L50.8071,517.9069 L50.8071,520.0651 L48.3418,520.0651 L48.3418,528.1418 L50.8071,528.1418 L50.8071,530.3 L43.4277,530.3 L43.4277,528.1418 L45.8931,528.1418 L45.8931,520.0651 Z " fill="#000000"/><text fill="#000000" font-family="sans-serif" font-size="12" font-style="italic" lengthAdjust="spacing" textLength="104" x="61" y="528.3352">MaybeAnonymous</text><!--MD5=[fa1011c7bd77eedf14cd9274bd452e29]
class asdi::MaybePositive--><rect codeLine="13" fill="#FEFECE" filter="url(#fwlkldz99pozn)" height="32" id="asdi::MaybePositive" style="stroke:#A80036;stroke-width:1.5;" width="113" x="936.5" y="317.3"/><ellipse cx="951.5" cy="333.3" fill="#B4A7E5" rx="11" ry="11" style="stroke:#A80036;stroke-width:1.0;"/><path d="M947.9277,329.5651 L947.9277,327.4069 L955.3071,327.4069 L955.3071,329.5651 L952.8418,329.5651 L952.8418,337.6418 L955.3071,337.6418 L955.3071,339.8 L947.9277,339.8 L947.9277,337.6418 L950.3931,337.6418 L950.3931,329.5651 Z " fill="#000000"/><text fill="#000000" font-family="sans-serif" font-size="12" font-style="italic" lengthAdjust="spacing" textLength="81" x="965.5" y="337.8352">MaybePositive</text><!--MD5=[58e714ed1ca5e9bfcf1eb5d511ea400e]
class asdi::idb::MaybeGround--><rect codeLine="23" fill="#FEFECE" filter="url(#fwlkldz99pozn)" height="40" id="asdi::idb::MaybeGround" style="stroke:#A80036;stroke-width:1.5;" width="113" x="732.5" y="503.8"/><ellipse cx="747.5" cy="519.8" fill="#B4A7E5" rx="11" ry="11" style="stroke:#A80036;stroke-width:1.0;"/><path d="M743.9277,516.0651 L743.9277,513.9069 L751.3071,513.9069 L751.3071,516.0651 L748.8418,516.0651 L748.8418,524.1418 L751.3071,524.1418 L751.3071,526.3 L743.9277,526.3 L743.9277,524.1418 L746.3931,524.1418 L746.3931,516.0651 Z " fill="#000000"/><text fill="#000000" font-family="sans-serif" font-size="12" font-style="italic" lengthAdjust="spacing" textLength="81" x="761.5" y="524.3352">MaybeGround</text><line style="stroke:#A80036;stroke-width:1.5;" x1="733.5" x2="844.5" y1="535.8" y2="535.8"/><!--MD5=[bf8372b32c4a37b4dcf0167e8fccb41e]
class asdi::idb::Atom--><rect codeLine="25" fill="#FEFECE" filter="url(#fwlkldz99pozn)" height="48" id="asdi::idb::Atom" style="stroke:#A80036;stroke-width:1.5;" width="62" x="795" y="215.8"/><ellipse cx="810" cy="231.8" fill="#ADD1B2" rx="11" ry="11" style="stroke:#A80036;stroke-width:1.0;"/><path d="M812.4731,237.9431 Q811.8921,238.2419 811.2529,238.3913 Q810.6138,238.5407 809.9082,238.5407 Q807.4014,238.5407 806.0815,236.8889 Q804.7617,235.237 804.7617,232.1159 Q804.7617,228.9865 806.0815,227.3347 Q807.4014,225.6828 809.9082,225.6828 Q810.6138,225.6828 811.2612,225.8322 Q811.9087,225.9816 812.4731,226.2805 L812.4731,229.0031 Q811.8423,228.4221 811.2488,228.1523 Q810.6553,227.8825 810.0244,227.8825 Q808.6797,227.8825 807.9949,228.9492 Q807.3101,230.0158 807.3101,232.1159 Q807.3101,234.2077 807.9949,235.2744 Q808.6797,236.341 810.0244,236.341 Q810.6553,236.341 811.2488,236.0712 Q811.8423,235.8015 812.4731,235.2204 Z " fill="#000000"/><text fill="#000000" font-family="sans-serif" font-size="12" lengthAdjust="spacing" textLength="30" x="824" y="236.3352">Atom</text><line style="stroke:#A80036;stroke-width:1.5;" x1="796" x2="856" y1="247.8" y2="247.8"/><line style="stroke:#A80036;stroke-width:1.5;" x1="796" x2="856" y1="255.8" y2="255.8"/><!--MD5=[93fe927435d17bed53dc57d3a6532330]
class asdi::idb::Comparison--><rect codeLine="26" fill="#FEFECE" filter="url(#fwlkldz99pozn)" height="48" id="asdi::idb::Comparison" style="stroke:#A80036;stroke-width:1.5;" width="101" x="493.5" y="309.3"/><ellipse cx="508.5" cy="325.3" fill="#ADD1B2" rx="11" ry="11" style="stroke:#A80036;stroke-width:1.0;"/><path d="M510.9731,331.4431 Q510.3921,331.7419 509.7529,331.8913 Q509.1138,332.0407 508.4082,332.0407 Q505.9014,332.0407 504.5815,330.3889 Q503.2617,328.737 503.2617,325.6159 Q503.2617,322.4865 504.5815,320.8347 Q505.9014,319.1828 508.4082,319.1828 Q509.1138,319.1828 509.7612,319.3322 Q510.4087,319.4816 510.9731,319.7805 L510.9731,322.5031 Q510.3423,321.9221 509.7488,321.6523 Q509.1553,321.3825 508.5244,321.3825 Q507.1797,321.3825 506.4949,322.4492 Q505.8101,323.5158 505.8101,325.6159 Q505.8101,327.7077 506.4949,328.7744 Q507.1797,329.841 508.5244,329.841 Q509.1553,329.841 509.7488,329.5712 Q510.3423,329.3015 510.9731,328.7204 Z " fill="#000000"/><text fill="#000000" font-family="sans-serif" font-size="12" lengthAdjust="spacing" textLength="69" x="522.5" y="329.8352">Comparison</text><line style="stroke:#A80036;stroke-width:1.5;" x1="494.5" x2="593.5" y1="341.3" y2="341.3"/><line style="stroke:#A80036;stroke-width:1.5;" x1="494.5" x2="593.5" y1="349.3" y2="349.3"/><!--MD5=[95e3d76ece4a6c772598aa558a725fa6]
class asdi::idb::Literal--><rect codeLine="27" fill="#FEFECE" filter="url(#fwlkldz99pozn)" height="60.9551" id="asdi::idb::Literal" style="stroke:#A80036;stroke-width:1.5;" width="87" x="776.5" y="122.3"/><ellipse cx="800.5" cy="138.3" fill="#ADD1B2" rx="11" ry="11" style="stroke:#A80036;stroke-width:1.0;"/><path d="M802.9731,144.4431 Q802.3921,144.7419 801.7529,144.8913 Q801.1138,145.0407 800.4082,145.0407 Q797.9014,145.0407 796.5815,143.3889 Q795.2617,141.737 795.2617,138.6159 Q795.2617,135.4865 796.5815,133.8347 Q797.9014,132.1828 800.4082,132.1828 Q801.1138,132.1828 801.7612,132.3322 Q802.4087,132.4816 802.9731,132.7805 L802.9731,135.5031 Q802.3423,134.9221 801.7488,134.6523 Q801.1553,134.3825 800.5244,134.3825 Q799.1797,134.3825 798.4949,135.4492 Q797.8101,136.5158 797.8101,138.6159 Q797.8101,140.7077 798.4949,141.7744 Q799.1797,142.841 800.5244,142.841 Q801.1553,142.841 801.7488,142.5712 Q802.3423,142.3015 802.9731,141.7204 Z " fill="#000000"/><text fill="#000000" font-family="sans-serif" font-size="12" lengthAdjust="spacing" textLength="35" x="816.5" y="142.8352">Literal</text><line style="stroke:#A80036;stroke-width:1.5;" x1="777.5" x2="862.5" y1="154.3" y2="154.3"/><text fill="#000000" font-family="sans-serif" font-size="11" lengthAdjust="spacing" textLength="75" x="782.5" y="168.9348">negative: bool</text><line style="stroke:#A80036;stroke-width:1.5;" x1="777.5" x2="862.5" y1="175.2551" y2="175.2551"/><!--MD5=[afabf50c567fddf1e22749c2d45d6bf2]
class asdi::idb::Rule--><rect codeLine="30" fill="#FEFECE" filter="url(#fwlkldz99pozn)" height="48" id="asdi::idb::Rule" style="stroke:#A80036;stroke-width:1.5;" width="57" x="684.5" y="128.8"/><ellipse cx="699.5" cy="144.8" fill="#ADD1B2" rx="11" ry="11" style="stroke:#A80036;stroke-width:1.0;"/><path d="M701.9731,150.9431 Q701.3921,151.2419 700.7529,151.3913 Q700.1138,151.5407 699.4082,151.5407 Q696.9014,151.5407 695.5815,149.8889 Q694.2617,148.237 694.2617,145.1159 Q694.2617,141.9865 695.5815,140.3347 Q696.9014,138.6828 699.4082,138.6828 Q700.1138,138.6828 700.7612,138.8322 Q701.4087,138.9816 701.9731,139.2805 L701.9731,142.0031 Q701.3423,141.4221 700.7488,141.1523 Q700.1553,140.8825 699.5244,140.8825 Q698.1797,140.8825 697.4949,141.9492 Q696.8101,143.0158 696.8101,145.1159 Q696.8101,147.2077 697.4949,148.2744 Q698.1797,149.341 699.5244,149.341 Q700.1553,149.341 700.7488,149.0712 Q701.3423,148.8015 701.9731,148.2204 Z " fill="#000000"/><text fill="#000000" font-family="sans-serif" font-size="12" lengthAdjust="spacing" textLength="25" x="713.5" y="149.3352">Rule</text><line style="stroke:#A80036;stroke-width:1.5;" x1="685.5" x2="740.5" y1="160.8" y2="160.8"/><line style="stroke:#A80036;stroke-width:1.5;" x1="685.5" x2="740.5" y1="168.8" y2="168.8"/><!--MD5=[30c8d4c59bd3776484494cc31a150236]
class asdi::idb::RuleSet--><rect codeLine="31" fill="#FEFECE" filter="url(#fwlkldz99pozn)" height="48" id="asdi::idb::RuleSet" style="stroke:#A80036;stroke-width:1.5;" width="74" x="575" y="128.8"/><ellipse cx="590" cy="144.8" fill="#ADD1B2" rx="11" ry="11" style="stroke:#A80036;stroke-width:1.0;"/><path d="M592.4731,150.9431 Q591.8921,151.2419 591.2529,151.3913 Q590.6138,151.5407 589.9082,151.5407 Q587.4014,151.5407 586.0815,149.8889 Q584.7617,148.237 584.7617,145.1159 Q584.7617,141.9865 586.0815,140.3347 Q587.4014,138.6828 589.9082,138.6828 Q590.6138,138.6828 591.2612,138.8322 Q591.9087,138.9816 592.4731,139.2805 L592.4731,142.0031 Q591.8423,141.4221 591.2488,141.1523 Q590.6553,140.8825 590.0244,140.8825 Q588.6797,140.8825 587.9949,141.9492 Q587.3101,143.0158 587.3101,145.1159 Q587.3101,147.2077 587.9949,148.2744 Q588.6797,149.341 590.0244,149.341 Q590.6553,149.341 591.2488,149.0712 Q591.8423,148.8015 592.4731,148.2204 Z " fill="#000000"/><text fill="#000000" font-family="sans-serif" font-size="12" lengthAdjust="spacing" textLength="42" x="604" y="149.3352">RuleSet</text><line style="stroke:#A80036;stroke-width:1.5;" x1="576" x2="648" y1="160.8" y2="160.8"/><line style="stroke:#A80036;stroke-width:1.5;" x1="576" x2="648" y1="168.8" y2="168.8"/><!--MD5=[f72cfccca2b5af6aea8a3ce6e99d7935]
class asdi::idb::Variable--><rect codeLine="32" fill="#FEFECE" filter="url(#fwlkldz99pozn)" height="48" id="asdi::idb::Variable" style="stroke:#A80036;stroke-width:1.5;" width="80" x="362" y="499.8"/><ellipse cx="377" cy="515.8" fill="#ADD1B2" rx="11" ry="11" style="stroke:#A80036;stroke-width:1.0;"/><path d="M379.4731,521.9431 Q378.8921,522.2419 378.2529,522.3913 Q377.6138,522.5407 376.9082,522.5407 Q374.4014,522.5407 373.0815,520.8889 Q371.7617,519.237 371.7617,516.1159 Q371.7617,512.9865 373.0815,511.3347 Q374.4014,509.6828 376.9082,509.6828 Q377.6138,509.6828 378.2612,509.8322 Q378.9087,509.9816 379.4731,510.2805 L379.4731,513.0031 Q378.8423,512.4221 378.2488,512.1523 Q377.6553,511.8825 377.0244,511.8825 Q375.6797,511.8825 374.9949,512.9492 Q374.3101,514.0158 374.3101,516.1159 Q374.3101,518.2077 374.9949,519.2744 Q375.6797,520.341 377.0244,520.341 Q377.6553,520.341 378.2488,520.0712 Q378.8423,519.8015 379.4731,519.2204 Z " fill="#000000"/><text fill="#000000" font-family="sans-serif" font-size="12" lengthAdjust="spacing" textLength="48" x="391" y="520.3352">Variable</text><line style="stroke:#A80036;stroke-width:1.5;" x1="363" x2="441" y1="531.8" y2="531.8"/><line style="stroke:#A80036;stroke-width:1.5;" x1="363" x2="441" y1="539.8" y2="539.8"/><!--MD5=[d7ed71e2888dff8f76393f08027596df]
class asdi::idb::ComparisonOperator--><rect codeLine="34" fill="#FEFECE" filter="url(#fwlkldz99pozn)" height="117.7305" id="asdi::idb::ComparisonOperator" style="stroke:#A80036;stroke-width:1.5;" width="153" x="477.5" y="464.8"/><ellipse cx="492.5" cy="480.8" fill="#EB937F" rx="11" ry="11" style="stroke:#A80036;stroke-width:1.0;"/><path d="M496.1143,487.3 L488.3945,487.3 L488.3945,474.9069 L496.1143,474.9069 L496.1143,477.0651 L490.8433,477.0651 L490.8433,479.738 L495.6162,479.738 L495.6162,481.8962 L490.8433,481.8962 L490.8433,485.1418 L496.1143,485.1418 Z " fill="#000000"/><text fill="#000000" font-family="sans-serif" font-size="12" lengthAdjust="spacing" textLength="121" x="506.5" y="485.3352">ComparisonOperator</text><line style="stroke:#A80036;stroke-width:1.5;" x1="478.5" x2="629.5" y1="496.8" y2="496.8"/><text fill="#000000" font-family="sans-serif" font-size="11" lengthAdjust="spacing" textLength="29" x="483.5" y="511.4348">Equal</text><text fill="#000000" font-family="sans-serif" font-size="11" lengthAdjust="spacing" textLength="48" x="483.5" y="524.3898">NotEqual</text><text fill="#000000" font-family="sans-serif" font-size="11" lengthAdjust="spacing" textLength="51" x="483.5" y="537.3449">LessThan</text><text fill="#000000" font-family="sans-serif" font-size="11" lengthAdjust="spacing" textLength="94" x="483.5" y="550.3">LessThanOrEqual</text><text fill="#000000" font-family="sans-serif" font-size="11" lengthAdjust="spacing" textLength="67" x="483.5" y="563.2551">GreaterThan</text><text fill="#000000" font-family="sans-serif" font-size="11" lengthAdjust="spacing" textLength="110" x="483.5" y="576.2102">GreaterThanOrEqual</text><!--MD5=[db6502f5881fb8b59203380e04be5be8]
class asdi::idb::LiteralInner--><rect codeLine="42" fill="#FEFECE" filter="url(#fwlkldz99pozn)" height="65.9102" id="asdi::idb::LiteralInner" style="stroke:#A80036;stroke-width:1.5;" width="143" x="396.5" y="119.8"/><ellipse cx="432.65" cy="135.8" fill="#EB937F" rx="11" ry="11" style="stroke:#A80036;stroke-width:1.0;"/><path d="M436.2643,142.3 L428.5445,142.3 L428.5445,129.9069 L436.2643,129.9069 L436.2643,132.0651 L430.9933,132.0651 L430.9933,134.738 L435.7662,134.738 L435.7662,136.8962 L430.9933,136.8962 L430.9933,140.1418 L436.2643,140.1418 Z " fill="#000000"/><text fill="#000000" font-family="sans-serif" font-size="12" lengthAdjust="spacing" textLength="64" x="451.35" y="140.3352">LiteralInner</text><line style="stroke:#A80036;stroke-width:1.5;" x1="397.5" x2="538.5" y1="151.8" y2="151.8"/><text fill="#000000" font-family="sans-serif" font-size="11" lengthAdjust="spacing" textLength="90" x="402.5" y="166.4348">Relational : Atom</text><text fill="#000000" font-family="sans-serif" font-size="11" lengthAdjust="spacing" textLength="131" x="402.5" y="179.3898">Arithmetic : Comparison</text><!--MD5=[e58c0c9c0688e4939d5bc85df51c153b]
class asdi::idb::RuleForm--><rect codeLine="46" fill="#FEFECE" filter="url(#fwlkldz99pozn)" height="78.8652" id="asdi::idb::RuleForm" style="stroke:#A80036;stroke-width:1.5;" width="86" x="667" y="293.8"/><ellipse cx="682" cy="309.8" fill="#EB937F" rx="11" ry="11" style="stroke:#A80036;stroke-width:1.0;"/><path d="M685.6143,316.3 L677.8945,316.3 L677.8945,303.9069 L685.6143,303.9069 L685.6143,306.0651 L680.3433,306.0651 L680.3433,308.738 L685.1162,308.738 L685.1162,310.8962 L680.3433,310.8962 L680.3433,314.1418 L685.6143,314.1418 Z " fill="#000000"/><text fill="#000000" font-family="sans-serif" font-size="12" lengthAdjust="spacing" textLength="54" x="696" y="314.3352">RuleForm</text><line style="stroke:#A80036;stroke-width:1.5;" x1="668" x2="752" y1="325.8" y2="325.8"/><text fill="#000000" font-family="sans-serif" font-size="11" lengthAdjust="spacing" textLength="24" x="673" y="340.4348">Pure</text><text fill="#000000" font-family="sans-serif" font-size="11" lengthAdjust="spacing" textLength="57" x="673" y="353.3898">Constraint</text><text fill="#000000" font-family="sans-serif" font-size="11" lengthAdjust="spacing" textLength="59" x="673" y="366.3449">Disjunctive</text><!--MD5=[6f0cf4b3afacbcee8b945dd3f35577cc]
class asdi::idb::Term--><rect codeLine="51" fill="#FEFECE" filter="url(#fwlkldz99pozn)" height="78.8652" id="asdi::idb::Term" style="stroke:#A80036;stroke-width:1.5;" width="124" x="200" y="293.8"/><ellipse cx="242.45" cy="309.8" fill="#EB937F" rx="11" ry="11" style="stroke:#A80036;stroke-width:1.0;"/><path d="M246.0643,316.3 L238.3445,316.3 L238.3445,303.9069 L246.0643,303.9069 L246.0643,306.0651 L240.7933,306.0651 L240.7933,308.738 L245.5662,308.738 L245.5662,310.8962 L240.7933,310.8962 L240.7933,314.1418 L246.0643,314.1418 Z " fill="#000000"/><text fill="#000000" font-family="sans-serif" font-size="12" lengthAdjust="spacing" textLength="31" x="262.55" y="314.3352">Term</text><line style="stroke:#A80036;stroke-width:1.5;" x1="201" x2="323" y1="325.8" y2="325.8"/><text fill="#000000" font-family="sans-serif" font-size="11" lengthAdjust="spacing" textLength="65" x="206" y="340.4348">Anonymous</text><text fill="#000000" font-family="sans-serif" font-size="11" lengthAdjust="spacing" textLength="112" x="206" y="353.3898">Variable : VariableRef</text><text fill="#000000" font-family="sans-serif" font-size="11" lengthAdjust="spacing" textLength="107" x="206" y="366.3449">Constant : Constant</text><!--MD5=[a3443b1847a68570b6a0335ccf68a499]
class asdi::idb::VariableRef--><rect codeLine="57" fill="#FEFECE" filter="url(#fwlkldz99pozn)" height="32" id="asdi::idb::VariableRef" style="stroke:#A80036;stroke-width:1.5;" width="99" x="359.5" y="317.3"/><ellipse cx="374.5" cy="333.3" fill="#ADD1B2" rx="11" ry="11" style="stroke:#A80036;stroke-width:1.0;"/><path d="M375.8418,340.55 L373.3931,340.55 L373.3931,330.2985 L370.2471,330.2985 L370.2471,328.1569 L378.9878,328.1569 L378.9878,330.2985 L375.8418,330.2985 Z " fill="#000000"/><text fill="#000000" font-family="sans-serif" font-size="12" lengthAdjust="spacing" textLength="67" x="388.5" y="337.8352">VariableRef</text><!--MD5=[58db58f43e0c0eeeb327af7bc687dbb7]
class asdi::edb::Constant--><rect codeLine="16" fill="#FEFECE" filter="url(#fwlkldz99pozn)" height="32" id="asdi::edb::Constant" style="stroke:#A80036;stroke-width:1.5;" width="82" x="1106" y="317.3"/><ellipse cx="1121" cy="333.3" fill="#B4A7E5" rx="11" ry="11" style="stroke:#A80036;stroke-width:1.0;"/><path d="M1117.4277,329.5651 L1117.4277,327.4069 L1124.8071,327.4069 L1124.8071,329.5651 L1122.3418,329.5651 L1122.3418,337.6418 L1124.8071,337.6418 L1124.8071,339.8 L1117.4277,339.8 L1117.4277,337.6418 L1119.8931,337.6418 L1119.8931,329.5651 Z " fill="#000000"/><text fill="#000000" font-family="sans-serif" font-size="12" font-style="italic" lengthAdjust="spacing" textLength="50" x="1135" y="337.8352">Constant</text><!--MD5=[63d735a6e8116701ee198db5f4862bbe]
class asdi::edb::PredicateRef--><rect codeLine="19" fill="#FEFECE" filter="url(#fwlkldz99pozn)" height="32" id="asdi::edb::PredicateRef" style="stroke:#A80036;stroke-width:1.5;" width="105" x="1223.5" y="317.3"/><ellipse cx="1238.5" cy="333.3" fill="#B4A7E5" rx="11" ry="11" style="stroke:#A80036;stroke-width:1.0;"/><path d="M1234.9277,329.5651 L1234.9277,327.4069 L1242.3071,327.4069 L1242.3071,329.5651 L1239.8418,329.5651 L1239.8418,337.6418 L1242.3071,337.6418 L1242.3071,339.8 L1234.9277,339.8 L1234.9277,337.6418 L1237.3931,337.6418 L1237.3931,329.5651 Z " fill="#000000"/><text fill="#000000" font-family="sans-serif" font-size="12" font-style="italic" lengthAdjust="spacing" textLength="73" x="1252.5" y="337.8352">PredicateRef</text><!--MD5=[5205db52c3bf390de82c60a926c6194c]
link asdi::idb::Atom to asdi::edb::PredicateRef--><path codeLine="59" d="M869.1779,241.4041 C869.1779,241.4041 1146.25,249.75 1206,274.3 C1224.08,281.73 1241.06,295.55 1253.76,307.84 " fill="none" id="asdi::idb::Atom-asdi::edb::PredicateRef" style="stroke:#A80036;stroke-width:1.0;"/><polygon fill="#A80036" points="1262.97,317.21,1259.5132,307.9877,1259.4648,313.6444,1253.8082,313.596,1262.97,317.21" style="stroke:#A80036;stroke-width:1.0;"/><line style="stroke:#A80036;stroke-width:1.0;" x1="1259.4648" x2="1253.865" y1="313.6444" y2="307.94"/><polygon fill="none" points="857.18,241.18,863.1042,245.2914,869.1779,241.4041,863.2537,237.2928,857.18,241.18" style="stroke:#A80036;stroke-width:1.0;"/><text fill="#000000" font-family="sans-serif" font-size="13" lengthAdjust="spacing" textLength="30" x="1222.9843" y="306.4297">label</text><!--MD5=[4ee7e12942c48899dff69efe64159cb5]
link asdi::idb::Atom to asdi::idb::Term--><path codeLine="60" d="M782.8,240.7564 C782.8,240.7564 422.13,245.21 342,274.3 C333.45,277.4 325.01,281.71 317,286.59 " fill="none" id="asdi::idb::Atom-asdi::idb::Term" style="stroke:#A80036;stroke-width:1.0;"/><polygon fill="#A80036" points="306,293.79,315.7197,292.1999,310.1813,291.0483,311.3329,285.5099,306,293.79" style="stroke:#A80036;stroke-width:1.0;"/><line style="stroke:#A80036;stroke-width:1.0;" x1="310.1813" x2="316.875" y1="291.0483" y2="286.665"/><polygon fill="#A80036" points="794.8,240.73,788.7912,236.7432,782.8,240.7564,788.8088,244.7432,794.8,240.73" style="stroke:#A80036;stroke-width:1.0;"/><text fill="#000000" font-family="sans-serif" font-size="13" lengthAdjust="spacing" textLength="46" x="317.9344" y="283.0244">terms *</text><!--MD5=[47fa2de2f882a2cfb2a5f6b9dab4b311]
link asdi::idb::Atom to asdi::Labeled--><path codeLine="61" d="M840.25,263.94 C859.34,294.93 893.3,350.09 914.96,385.26 " fill="none" id="asdi::idb::Atom-to-asdi::Labeled" style="stroke:#A80036;stroke-width:1.0;stroke-dasharray:7.0,7.0;"/><polygon fill="none" points="921.03,381.76,925.55,402.46,909.11,389.1,921.03,381.76" style="stroke:#A80036;stroke-width:1.0;"/><!--MD5=[9b2f527c234f9e1c3c4397b9f060605c]
link asdi::idb::Atom to asdi::idb::MaybeGround--><path codeLine="62" d="M822.97,263.88 C816.65,312.05 801.99,423.78 794.16,483.49 " fill="none" id="asdi::idb::Atom-to-asdi::idb::MaybeGround" style="stroke:#A80036;stroke-width:1.0;stroke-dasharray:7.0,7.0;"/><polygon fill="none" points="801.06,484.68,791.52,503.6,787.18,482.85,801.06,484.68" style="stroke:#A80036;stroke-width:1.0;"/><!--MD5=[2074f6122c99d112595670c4e3f9c226]
link asdi::idb::Comparison to asdi::idb::Term--><path codeLine="64" d="M523.5662,298.9637 C523.5662,298.9637 488.92,255.75 464.33,244.8 C419.4,224.79 399.27,226.38 353.67,244.8 C333.11,253.1 314.61,268.46 299.69,284.09 " fill="none" id="asdi::idb::Comparison-asdi::idb::Term" style="stroke:#A80036;stroke-width:1.0;"/><polygon fill="#A80036" points="290.88,293.79,299.8915,289.8159,294.2412,290.0883,293.9688,284.438,290.88,293.79" style="stroke:#A80036;stroke-width:1.0;"/><line style="stroke:#A80036;stroke-width:1.0;" x1="294.2412" x2="299.62" y1="290.0883" y2="284.16"/><polygon fill="#A80036" points="530.25,308.93,530.2302,301.7189,523.5662,298.9637,523.586,306.1748,530.25,308.93" style="stroke:#A80036;stroke-width:1.0;"/><text fill="#000000" font-family="sans-serif" font-size="13" lengthAdjust="spacing" textLength="19" x="275.3321" y="283.0244">lhs</text><!--MD5=[2074f6122c99d112595670c4e3f9c226]
link asdi::idb::Comparison to asdi::idb::Term--><path codeLine="65" d="M528.054,298.4221 C528.054,298.4221 487.21,232.24 452.67,215.3 C417.82,198.21 400.68,199.27 365.33,215.3 C334.55,229.26 309.32,257.43 291.5,282.74 " fill="none" id="asdi::idb::Comparison-asdi::idb::Term-1" style="stroke:#A80036;stroke-width:1.0;"/><polygon fill="#A80036" points="284.09,293.73,292.4377,288.5035,286.885,289.5842,285.8043,284.0315,284.09,293.73" style="stroke:#A80036;stroke-width:1.0;"/><line style="stroke:#A80036;stroke-width:1.0;" x1="286.885" x2="291.355" y1="289.5842" y2="282.955"/><polygon fill="#A80036" points="533.51,309.11,534.3447,301.9474,528.054,298.4221,527.2194,305.5847,533.51,309.11" style="stroke:#A80036;stroke-width:1.0;"/><text fill="#000000" font-family="sans-serif" font-size="13" lengthAdjust="spacing" textLength="20" x="289.806" y="282.9537">rhs</text><!--MD5=[d073be04e4ddc1aa3aef12623a417776]
link asdi::idb::Comparison to asdi::idb::ComparisonOperator--><path codeLine="66" d="M545.8759,369.3926 C545.8759,369.3926 548.75,423.89 550.21,451.43 " fill="none" id="asdi::idb::Comparison-asdi::idb::ComparisonOperator" style="stroke:#A80036;stroke-width:1.0;"/><polygon fill="#A80036" points="550.92,464.67,554.4398,455.4716,550.6563,459.677,546.451,455.8934,550.92,464.67" style="stroke:#A80036;stroke-width:1.0;"/><line style="stroke:#A80036;stroke-width:1.0;" x1="550.6563" x2="550.225" y1="459.677" y2="451.69"/><polygon fill="#A80036" points="545.23,357.41,541.5588,363.6166,545.8759,369.3926,549.5472,363.186,545.23,357.41" style="stroke:#A80036;stroke-width:1.0;"/><!--MD5=[e17c165f05fcd9f87fb5cc52c081d235]
link asdi::idb::Comparison to asdi::idb::MaybeGround--><path codeLine="67" d="M557.79,357.35 C571.82,379.35 595.26,412.38 622,434.8 C651.67,459.68 689.52,480.34 721.69,495.37 " fill="none" id="asdi::idb::Comparison-to-asdi::idb::MaybeGround" style="stroke:#A80036;stroke-width:1.0;stroke-dasharray:7.0,7.0;"/><polygon fill="none" points="724.99,489.19,740.36,503.78,719.25,501.95,724.99,489.19" style="stroke:#A80036;stroke-width:1.0;"/><!--MD5=[3ec0297d6e77f34f61d37cc8ebdc5add]
link asdi::idb::Rule to asdi::idb::Atom--><path codeLine="69" d="M751.0989,182.4648 C751.0989,182.4648 773.77,199.52 784.39,207.5 " fill="none" id="asdi::idb::Rule-asdi::idb::Atom" style="stroke:#A80036;stroke-width:1.0;"/><polygon fill="#A80036" points="795.11,215.57,790.3232,206.9626,791.1146,212.5638,785.5134,213.3552,795.11,215.57" style="stroke:#A80036;stroke-width:1.0;"/><line style="stroke:#A80036;stroke-width:1.0;" x1="791.1146" x2="784.725" y1="212.5638" y2="207.755"/><polygon fill="#A80036" points="741.51,175.25,743.8995,182.0537,751.0989,182.4648,748.7094,175.6611,741.51,175.25" style="stroke:#A80036;stroke-width:1.0;"/><text fill="#000000" font-family="sans-serif" font-size="13" lengthAdjust="spacing" textLength="40" x="746.9994" y="208.1061">head *</text><!--MD5=[642164043534f65529c801e75dd39f9d]
link asdi::idb::Rule to asdi::idb::Literal--><path codeLine="70" d="M753.84,152.8 C753.84,152.8 760.37,152.8 763.03,152.8 " fill="none" id="asdi::idb::Rule-asdi::idb::Literal" style="stroke:#A80036;stroke-width:1.0;"/><polygon fill="#A80036" points="776.34,152.8,767.34,148.8,771.34,152.8,767.34,156.8,776.34,152.8" style="stroke:#A80036;stroke-width:1.0;"/><line style="stroke:#A80036;stroke-width:1.0;" x1="771.34" x2="763.34" y1="152.8" y2="152.8"/><polygon fill="#A80036" points="741.84,152.8,747.84,156.8,753.84,152.8,747.84,148.8,741.84,152.8" style="stroke:#A80036;stroke-width:1.0;"/><text fill="#000000" font-family="sans-serif" font-size="13" lengthAdjust="spacing" textLength="41" x="749.8461" y="144.2248">body *</text><!--MD5=[ba9414cdfd3b22f8d118e7d79a3000fa]
link asdi::idb::Rule to asdi::idb::RuleForm--><path codeLine="71" d="M712.61,177.14 C712.13,205.33 711.33,253.35 710.74,288.51 " fill="none" id="asdi::idb::Rule-to-asdi::idb::RuleForm" style="stroke:#A80036;stroke-width:1.0;stroke-dasharray:7.0,7.0;"/><polygon fill="#A80036" points="710.65,293.61,714.8037,284.6799,710.7357,288.6107,706.8049,284.5428,710.65,293.61" style="stroke:#A80036;stroke-width:1.0;"/><!--MD5=[51348dca393e1c9db410957b48e7baf4]
link asdi::idb::Rule to asdi::idb::MaybeGround--><path codeLine="72" d="M727.58,177.23 C741.42,200.78 761.49,238.63 771,274.3 C790.18,346.27 791.7,433.84 790.64,483.47 " fill="none" id="asdi::idb::Rule-to-asdi::idb::MaybeGround" style="stroke:#A80036;stroke-width:1.0;stroke-dasharray:7.0,7.0;"/><polygon fill="none" points="797.63,483.92,790.02,503.7,783.64,483.49,797.63,483.92" style="stroke:#A80036;stroke-width:1.0;"/><!--MD5=[85d0d95bf7b63637490af7b82ef1fb93]
link asdi::idb::Rule to asdi::MaybePositive--><path codeLine="73" d="M741.51,175.92 C747.1,179.59 753.08,183.08 759,185.8 C807.39,208.02 828.68,189.52 875,215.8 C895.48,227.42 937.98,271.77 965.98,302.26 " fill="none" id="asdi::idb::Rule-to-asdi::MaybePositive" style="stroke:#A80036;stroke-width:1.0;stroke-dasharray:7.0,7.0;"/><polygon fill="none" points="971.19,297.59,979.47,317.1,960.83,307.01,971.19,297.59" style="stroke:#A80036;stroke-width:1.0;"/><!--MD5=[78018949d9607d46caafb7efbbd3872f]
link asdi::idb::RuleSet to asdi::idb::Rule--><path codeLine="75" d="M661.09,152.8 C661.09,152.8 667.88,152.8 670.73,152.8 " fill="none" id="asdi::idb::RuleSet-asdi::idb::Rule" style="stroke:#A80036;stroke-width:1.0;"/><polygon fill="#A80036" points="684.04,152.8,675.04,148.8,679.04,152.8,675.04,156.8,684.04,152.8" style="stroke:#A80036;stroke-width:1.0;"/><line style="stroke:#A80036;stroke-width:1.0;" x1="679.04" x2="671.04" y1="152.8" y2="152.8"/><polygon fill="#A80036" points="649.09,152.8,655.09,156.8,661.09,152.8,655.09,148.8,649.09,152.8" style="stroke:#A80036;stroke-width:1.0;"/><text fill="#000000" font-family="sans-serif" font-size="13" lengthAdjust="spacing" textLength="6" x="670.6492" y="148.6699">*</text><!--MD5=[fdafab65abbefbbe087bffe4cffeeae7]
link asdi::idb::Literal to asdi::idb::LiteralInner--><path codeLine="77" d="M810.3777,110.5262 C810.3777,110.5262 779.12,32.71 741.5,18.8 C706.9,6 610.1,6 575.5,18.8 C534.77,33.87 505.59,75.15 488,107.95 " fill="none" id="asdi::idb::Literal-asdi::idb::LiteralInner" style="stroke:#A80036;stroke-width:1.0;"/><polygon fill="#A80036" points="482.05,119.58,489.7138,113.394,484.3299,115.1301,482.5939,109.7462,482.05,119.58" style="stroke:#A80036;stroke-width:1.0;"/><line style="stroke:#A80036;stroke-width:1.0;" x1="484.3299" x2="487.97" y1="115.1301" y2="108.015"/><polygon fill="#A80036" points="813.69,122.06,815.8784,115.189,810.3777,110.5262,808.1892,117.3972,813.69,122.06" style="stroke:#A80036;stroke-width:1.0;"/><!--MD5=[beeb32018e5e2153cbc5952e2c436ad5]
link asdi::idb::Literal to asdi::idb::MaybeGround--><path codeLine="78" d="M842.72,183.45 C848.93,193.23 854.81,204.5 858,215.8 C863.79,236.33 860.77,242.65 858,263.8 C847.51,343.96 819.48,434.61 802.54,484.59 " fill="none" id="asdi::idb::Literal-to-asdi::idb::MaybeGround" style="stroke:#A80036;stroke-width:1.0;stroke-dasharray:7.0,7.0;"/><polygon fill="none" points="809.1,487.04,795.95,503.65,795.87,482.46,809.1,487.04" style="stroke:#A80036;stroke-width:1.0;"/><!--MD5=[d5370ebac63a30507d4d342ed3ce1830]
link asdi::idb::Literal to asdi::MaybePositive--><path codeLine="79" d="M863.77,169.13 C887.81,179.33 916.76,194.76 937,215.8 C959.37,239.06 974.28,272.95 983.05,298.19 " fill="none" id="asdi::idb::Literal-to-asdi::MaybePositive" style="stroke:#A80036;stroke-width:1.0;stroke-dasharray:7.0,7.0;"/><polygon fill="none" points="989.73,296.11,989.11,317.29,976.39,300.34,989.73,296.11" style="stroke:#A80036;stroke-width:1.0;"/><!--MD5=[4343d6e856c2a24421a31b0a0989a586]
link asdi::idb::LiteralInner to asdi::idb::Atom--><path codeLine="81" d="M551.3893,183.9166 C551.3893,183.9166 556.15,185.29 558,185.8 C635.62,207.15 728.12,223.49 781.65,232.07 " fill="none" id="asdi::idb::LiteralInner-asdi::idb::Atom" style="stroke:#A80036;stroke-width:1.0;"/><polygon fill="#A80036" points="794.71,234.14,786.4501,228.7758,789.7721,233.3545,785.1934,236.6765,794.71,234.14" style="stroke:#A80036;stroke-width:1.0;"/><line style="stroke:#A80036;stroke-width:1.0;" x1="789.7721" x2="781.865" y1="233.3545" y2="232.105"/><polygon fill="none" points="539.91,180.42,544.4841,185.9947,551.3893,183.9166,546.8152,178.3419,539.91,180.42" style="stroke:#A80036;stroke-width:1.0;"/><!--MD5=[2c44ef6781c51a44444bf9ba177d569f]
link asdi::idb::LiteralInner to asdi::idb::Comparison--><path codeLine="82" d="M486.4679,197.1679 C486.4679,197.1679 517.02,268.94 529.06,297.2 " fill="none" id="asdi::idb::LiteralInner-asdi::idb::Comparison" style="stroke:#A80036;stroke-width:1.0;"/><polygon fill="#A80036" points="534.2,309.29,534.3626,299.4425,532.245,304.688,526.9994,302.5705,534.2,309.29" style="stroke:#A80036;stroke-width:1.0;"/><line style="stroke:#A80036;stroke-width:1.0;" x1="532.245" x2="529.11" y1="304.688" y2="297.33"/><polygon fill="none" points="481.76,186.13,480.4347,193.2183,486.4679,197.1679,487.7933,190.0796,481.76,186.13" style="stroke:#A80036;stroke-width:1.0;"/><!--MD5=[da3b0ad9f9fe181e557e9423b9c6416a]
link asdi::idb::LiteralInner to asdi::idb::MaybeGround--><path codeLine="83" d="M517.99,185.84 C548.63,207.64 586.71,238.89 612,274.3 C639.39,312.65 625.05,333.31 650,373.3 C677.98,418.16 720.56,461.51 751.21,489.87 " fill="none" id="asdi::idb::LiteralInner-to-asdi::idb::MaybeGround" style="stroke:#A80036;stroke-width:1.0;stroke-dasharray:7.0,7.0;"/><polygon fill="none" points="756.29,485.02,766.43,503.63,746.9,495.41,756.29,485.02" style="stroke:#A80036;stroke-width:1.0;"/><!--MD5=[9849278a5dc03cf62611ce4620bd1e8b]
link asdi::idb::Term to asdi::idb::VariableRef--><path codeLine="85" d="M336.02,333.3 C336.02,333.3 343.17,333.3 346.15,333.3 " fill="none" id="asdi::idb::Term-asdi::idb::VariableRef" style="stroke:#A80036;stroke-width:1.0;"/><polygon fill="#A80036" points="359.2,333.3,350.2,329.3,354.2,333.3,350.2,337.3,359.2,333.3" style="stroke:#A80036;stroke-width:1.0;"/><line style="stroke:#A80036;stroke-width:1.0;" x1="354.2" x2="346.2" y1="333.3" y2="333.3"/><polygon fill="none" points="324.02,333.3,330.02,337.3,336.02,333.3,330.02,329.3,324.02,333.3" style="stroke:#A80036;stroke-width:1.0;"/><!--MD5=[8cbcca06b00a83f8ba7cf2480cfc5d97]
link asdi::idb::Term to asdi::edb::Constant--><path codeLine="86" d="M298.9468,284.9059 C298.9468,284.9059 333.11,253.1 353.67,244.8 C425.85,215.64 982.07,215.84 1054.33,244.8 C1085.14,257.15 1111.51,285.16 1128.15,306.39 " fill="none" id="asdi::idb::Term-asdi::edb::Constant" style="stroke:#A80036;stroke-width:1.0;"/><polygon fill="#A80036" points="1136.15,317.04,1133.9416,307.4419,1133.1465,313.0426,1127.5458,312.2476,1136.15,317.04" style="stroke:#A80036;stroke-width:1.0;"/><line style="stroke:#A80036;stroke-width:1.0;" x1="1133.1465" x2="1128.35" y1="313.0426" y2="306.645"/><polygon fill="none" points="290.88,293.79,297.8748,292.0369,298.9468,284.9059,291.9521,286.659,290.88,293.79" style="stroke:#A80036;stroke-width:1.0;"/><!--MD5=[20df8b3cfe4388f14c5b65b728a82cf2]
link asdi::idb::Term to asdi::MaybeAnonymous--><path codeLine="87" d="M228.83,372.9 C198.54,408.14 154.35,459.56 126.4,492.08 " fill="none" id="asdi::idb::Term-to-asdi::MaybeAnonymous" style="stroke:#A80036;stroke-width:1.0;stroke-dasharray:7.0,7.0;"/><polygon fill="none" points="131.42,496.98,113.07,507.59,120.8,487.86,131.42,496.98" style="stroke:#A80036;stroke-width:1.0;"/><!--MD5=[168ae7385df228f119634d67d60fbcde]
link asdi::idb::VariableRef to asdi::idb::Variable--><path codeLine="89" d="M407.9915,361.4016 C407.9915,361.4016 404.7,450.12 403.36,486.23 " fill="none" id="asdi::idb::VariableRef-asdi::idb::Variable" style="stroke:#A80036;stroke-width:1.0;"/><polygon fill="#A80036" points="402.86,499.55,407.1936,490.7058,403.0469,494.5535,399.1992,490.4068,402.86,499.55" style="stroke:#A80036;stroke-width:1.0;"/><line style="stroke:#A80036;stroke-width:1.0;" x1="403.0469" x2="403.345" y1="494.5535" y2="486.56"/><polygon fill="none" points="408.44,349.41,404.2185,355.2563,407.9915,361.4016,412.2129,355.5553,408.44,349.41" style="stroke:#A80036;stroke-width:1.0;"/><text fill="#000000" font-family="sans-serif" font-size="13" lengthAdjust="spacing" textLength="26" x="407" y="423.8684">«rc»</text><!--MD5=[d56ec772a069ca7ea3be07cf29c23657]
link asdi::idb::Variable to asdi::AttributeName--><path codeLine="90" d="M402,547.87 C402,569.11 402,600.95 402,625.4 " fill="none" id="asdi::idb::Variable-to-asdi::AttributeName" style="stroke:#A80036;stroke-width:1.0;stroke-dasharray:7.0,7.0;"/><polygon fill="none" points="409,625.64,402,645.64,395,625.64,409,625.64" style="stroke:#A80036;stroke-width:1.0;"/><!--MD5=[71ee0b8e5ab3082a62563c3ebc1f7772]
@startuml

!include options.plantuml

interface asdi::AttributeName
hide "asdi::AttributeName" members

interface asdi::Labeled
hide "asdi::Labeled" members

interface asdi::MaybeAnonymous
hide "asdi::MaybeAnonymous" members

interface asdi::MaybePositive
hide "asdi::MaybePositive" members

interface asdi::edb::Constant
hide "asdi::edb::Constant" members

interface asdi::edb::PredicateRef
hide "asdi::edb::PredicateRef" members

namespace asdi::idb {
    interface MaybeGround

    class Atom
    class Comparison
    class Literal {
        negative: bool
    }
    class Rule
    class RuleSet
    class Variable

    enum ComparisonOperator {
        Equal
        NotEqual
        LessThan
        LessThanOrEqual
        GreaterThan
        GreaterThanOrEqual
    }
    enum LiteralInner {
        Relational : Atom
        Arithmetic : Comparison
    }
    enum RuleForm {
        Pure
        Constraint
        Disjunctive
    }
    enum Term {
        Anonymous
        Variable : VariableRef
        Constant : Constant
    }

    class VariableRef << (T,#ADD1B2) type >>

    Atom o-> "label" asdi::edb::PredicateRef
    Atom *-> "terms *" Term
    Atom ..|> asdi::Labeled
    Atom ..|> MaybeGround

    Comparison *-> "lhs" Term
    Comparison *-> "rhs" Term
    Comparison *-down-> ComparisonOperator
    Comparison ..|> MaybeGround

    Rule *-> "head *" Atom
    Rule *-> "body *" Literal
    Rule ..> RuleForm
    Rule ..|> MaybeGround
    Rule ..|> asdi::MaybePositive

    RuleSet *-> "*" Rule

    Literal *-> LiteralInner
    Literal ..|> MaybeGround
    Literal ..|> asdi::MaybePositive

    LiteralInner o-> Atom
    LiteralInner o-down-> Comparison
    LiteralInner ..|> MaybeGround

    Term o-> VariableRef
    Term o-> asdi::edb::Constant
    Term .down.|> asdi::MaybeAnonymous

    VariableRef o- -> Variable: <<rc>>
    Variable ..|> asdi::AttributeName
}

@enduml

@startuml

set namespaceSeparator ::
hide enum methods
hide interface fields
hide << const >> members
hide << type >> members
hide << type >> stereotype
hide << module >> fields
hide << module >> circle

interface asdi::AttributeName
hide "asdi::AttributeName" members

interface asdi::Labeled
hide "asdi::Labeled" members

interface asdi::MaybeAnonymous
hide "asdi::MaybeAnonymous" members

interface asdi::MaybePositive
hide "asdi::MaybePositive" members

interface asdi::edb::Constant
hide "asdi::edb::Constant" members

interface asdi::edb::PredicateRef
hide "asdi::edb::PredicateRef" members

namespace asdi::idb {
    interface MaybeGround

    class Atom
    class Comparison
    class Literal {
        negative: bool
    }
    class Rule
    class RuleSet
    class Variable

    enum ComparisonOperator {
        Equal
        NotEqual
        LessThan
        LessThanOrEqual
        GreaterThan
        GreaterThanOrEqual
    }
    enum LiteralInner {
        Relational : Atom
        Arithmetic : Comparison
    }
    enum RuleForm {
        Pure
        Constraint
        Disjunctive
    }
    enum Term {
        Anonymous
        Variable : VariableRef
        Constant : Constant
    }

    class VariableRef << (T,#ADD1B2) type >>

    Atom o-> "label" asdi::edb::PredicateRef
    Atom *-> "terms *" Term
    Atom ..|> asdi::Labeled
    Atom ..|> MaybeGround

    Comparison *-> "lhs" Term
    Comparison *-> "rhs" Term
    Comparison *-down-> ComparisonOperator
    Comparison ..|> MaybeGround

    Rule *-> "head *" Atom
    Rule *-> "body *" Literal
    Rule ..> RuleForm
    Rule ..|> MaybeGround
    Rule ..|> asdi::MaybePositive

    RuleSet *-> "*" Rule

    Literal *-> LiteralInner
    Literal ..|> MaybeGround
    Literal ..|> asdi::MaybePositive

    LiteralInner o-> Atom
    LiteralInner o-down-> Comparison
    LiteralInner ..|> MaybeGround

    Term o-> VariableRef
    Term o-> asdi::edb::Constant
    Term .down.|> asdi::MaybeAnonymous

    VariableRef o- -> Variable: <<rc>>
    Variable ..|> asdi::AttributeName
}

@enduml

PlantUML version 1.2022.1(Tue Feb 01 10:19:58 PST 2022)
(GPL source distribution)
Java Runtime: OpenJDK Runtime Environment
JVM: OpenJDK 64-Bit Server VM
Default Encoding: UTF-8
Language: en
Country: US
--></g></svg>