<?xml version="1.0" encoding="UTF-8" standalone="no"?><svg xmlns="http://www.w3.org/2000/svg" xmlns:xlink="http://www.w3.org/1999/xlink" contentScriptType="application/ecmascript" contentStyleType="text/css" height="656px" preserveAspectRatio="none" style="width:1373px;height:656px;background:#FFFFFF;" version="1.1" viewBox="0 0 1373 656" width="1373px" zoomAndPan="magnify"><defs><filter height="300%" id="f8w24m5szci8o" width="300%" x="-1" y="-1"><feGaussianBlur result="blurOut" stdDeviation="2.0"/><feColorMatrix in="blurOut" result="blurOut2" type="matrix" values="0 0 0 0 0 0 0 0 0 0 0 0 0 0 0 0 0 0 .4 0"/><feOffset dx="4.0" dy="4.0" in="blurOut2" result="blurOut3"/><feBlend in="SourceGraphic" in2="blurOut3" mode="normal"/></filter></defs><g><!--MD5=[e274c4916ac42ef1c11391a83d303c10]
cluster asdi--><polygon fill="#FFFFFF" filter="url(#f8w24m5szci8o)" points="16,80.75,52,80.75,59,103.2383,1077,103.2383,1077,649.75,16,649.75,16,80.75" style="stroke:#000000;stroke-width:1.5;"/><line style="stroke:#000000;stroke-width:1.5;" x1="16" x2="59" y1="103.2383" y2="103.2383"/><text fill="#000000" font-family="sans-serif" font-size="14" font-weight="bold" lengthAdjust="spacing" textLength="30" x="20" y="96.2852">asdi</text><!--MD5=[ae3c197a01158459eb2ddb806e23d6f2]
cluster asdi::idb--><polygon fill="#FFFFFF" filter="url(#f8w24m5szci8o)" points="40,123.75,69,123.75,76,146.2383,796,146.2383,796,557.75,40,557.75,40,123.75" style="stroke:#000000;stroke-width:1.5;"/><line style="stroke:#000000;stroke-width:1.5;" x1="40" x2="76" y1="146.2383" y2="146.2383"/><text fill="#000000" font-family="sans-serif" font-size="14" font-weight="bold" lengthAdjust="spacing" textLength="23" x="44" y="139.2852">idb</text><!--MD5=[6bc3af5db4038e5494ba0622f07de59b]
cluster asdi::edb--><polygon fill="#FFFFFF" filter="url(#f8w24m5szci8o)" points="1101,273.25,1169,273.25,1176,295.7383,1356,295.7383,1356,356.25,1101,356.25,1101,273.25" style="stroke:#000000;stroke-width:1.5;"/><line style="stroke:#000000;stroke-width:1.5;" x1="1101" x2="1176" y1="295.7383" y2="295.7383"/><text fill="#000000" font-family="sans-serif" font-size="14" font-weight="bold" lengthAdjust="spacing" textLength="62" x="1105" y="288.7852">asdi::edb</text><!--MD5=[2110a1d684b71e50a272297f2c09c595]
class asdi::AttributeName--><rect codeLine="4" fill="#FEFECE" filter="url(#f8w24m5szci8o)" height="32" id="asdi::AttributeName" style="stroke:#A80036;stroke-width:1.5;" width="116" x="38" y="601.75"/><ellipse cx="53" cy="617.75" fill="#B4A7E5" rx="11" ry="11" style="stroke:#A80036;stroke-width:1.0;"/><path d="M49.4277,614.0151 L49.4277,611.8569 L56.8071,611.8569 L56.8071,614.0151 L54.3418,614.0151 L54.3418,622.0918 L56.8071,622.0918 L56.8071,624.25 L49.4277,624.25 L49.4277,622.0918 L51.8931,622.0918 L51.8931,614.0151 Z " fill="#000000"/><text fill="#000000" font-family="sans-serif" font-size="12" font-style="italic" lengthAdjust="spacing" textLength="84" x="67" y="622.2852">AttributeName</text><!--MD5=[a769fd774dc4e74f949d393dd195b319]
class asdi::Labeled--><rect codeLine="7" fill="#FEFECE" filter="url(#f8w24m5szci8o)" height="32" id="asdi::Labeled" style="stroke:#A80036;stroke-width:1.5;" width="78" x="812" y="466.75"/><ellipse cx="827" cy="482.75" fill="#B4A7E5" rx="11" ry="11" style="stroke:#A80036;stroke-width:1.0;"/><path d="M823.4277,479.0151 L823.4277,476.8569 L830.8071,476.8569 L830.8071,479.0151 L828.3418,479.0151 L828.3418,487.0918 L830.8071,487.0918 L830.8071,489.25 L823.4277,489.25 L823.4277,487.0918 L825.8931,487.0918 L825.8931,479.0151 Z " fill="#000000"/><text fill="#000000" font-family="sans-serif" font-size="12" font-style="italic" lengthAdjust="spacing" textLength="46" x="841" y="487.2852">Labeled</text><!--MD5=[a36ef1bdba718ac7a4b8a2af506f0d6e]
class asdi::MaybeAnonymous--><rect codeLine="10" fill="#FEFECE" filter="url(#f8w24m5szci8o)" height="32" id="asdi::MaybeAnonymous" style="stroke:#A80036;stroke-width:1.5;" width="136" x="925" y="466.75"/><ellipse cx="940" cy="482.75" fill="#B4A7E5" rx="11" ry="11" style="stroke:#A80036;stroke-width:1.0;"/><path d="M936.4277,479.0151 L936.4277,476.8569 L943.8071,476.8569 L943.8071,479.0151 L941.3418,479.0151 L941.3418,487.0918 L943.8071,487.0918 L943.8071,489.25 L936.4277,489.25 L936.4277,487.0918 L938.8931,487.0918 L938.8931,479.0151 Z " fill="#000000"/><text fill="#000000" font-family="sans-serif" font-size="12" font-style="italic" lengthAdjust="spacing" textLength="104" x="954" y="487.2852">MaybeAnonymous</text><!--MD5=[fa1011c7bd77eedf14cd9274bd452e29]
class asdi::MaybePositive--><rect codeLine="13" fill="#FEFECE" filter="url(#f8w24m5szci8o)" height="32" id="asdi::MaybePositive" style="stroke:#A80036;stroke-width:1.5;" width="113" x="815.5" y="308.25"/><ellipse cx="830.5" cy="324.25" fill="#B4A7E5" rx="11" ry="11" style="stroke:#A80036;stroke-width:1.0;"/><path d="M826.9277,320.5151 L826.9277,318.3569 L834.3071,318.3569 L834.3071,320.5151 L831.8418,320.5151 L831.8418,328.5918 L834.3071,328.5918 L834.3071,330.75 L826.9277,330.75 L826.9277,328.5918 L829.3931,328.5918 L829.3931,320.5151 Z " fill="#000000"/><text fill="#000000" font-family="sans-serif" font-size="12" font-style="italic" lengthAdjust="spacing" textLength="81" x="844.5" y="328.7852">MaybePositive</text><!--MD5=[58e714ed1ca5e9bfcf1eb5d511ea400e]
class asdi::idb::MaybeGround--><rect codeLine="23" fill="#FEFECE" filter="url(#f8w24m5szci8o)" height="40" id="asdi::idb::MaybeGround" style="stroke:#A80036;stroke-width:1.5;" width="113" x="359.5" y="462.75"/><ellipse cx="374.5" cy="478.75" fill="#B4A7E5" rx="11" ry="11" style="stroke:#A80036;stroke-width:1.0;"/><path d="M370.9277,475.0151 L370.9277,472.8569 L378.3071,472.8569 L378.3071,475.0151 L375.8418,475.0151 L375.8418,483.0918 L378.3071,483.0918 L378.3071,485.25 L370.9277,485.25 L370.9277,483.0918 L373.3931,483.0918 L373.3931,475.0151 Z " fill="#000000"/><text fill="#000000" font-family="sans-serif" font-size="12" font-style="italic" lengthAdjust="spacing" textLength="81" x="388.5" y="483.2852">MaybeGround</text><line style="stroke:#A80036;stroke-width:1.5;" x1="360.5" x2="471.5" y1="494.75" y2="494.75"/><!--MD5=[bf8372b32c4a37b4dcf0167e8fccb41e]
class asdi::idb::Atom--><rect codeLine="25" fill="#FEFECE" filter="url(#f8w24m5szci8o)" height="48" id="asdi::idb::Atom" style="stroke:#A80036;stroke-width:1.5;" width="62" x="364" y="300.25"/><ellipse cx="379" cy="316.25" fill="#ADD1B2" rx="11" ry="11" style="stroke:#A80036;stroke-width:1.0;"/><path d="M381.4731,322.3931 Q380.8921,322.6919 380.2529,322.8413 Q379.6138,322.9907 378.9082,322.9907 Q376.4014,322.9907 375.0815,321.3389 Q373.7617,319.687 373.7617,316.5659 Q373.7617,313.4365 375.0815,311.7847 Q376.4014,310.1328 378.9082,310.1328 Q379.6138,310.1328 380.2612,310.2822 Q380.9087,310.4316 381.4731,310.7305 L381.4731,313.4531 Q380.8423,312.8721 380.2488,312.6023 Q379.6553,312.3325 379.0244,312.3325 Q377.6797,312.3325 376.9949,313.3992 Q376.3101,314.4658 376.3101,316.5659 Q376.3101,318.6577 376.9949,319.7244 Q377.6797,320.791 379.0244,320.791 Q379.6553,320.791 380.2488,320.5212 Q380.8423,320.2515 381.4731,319.6704 Z " fill="#000000"/><text fill="#000000" font-family="sans-serif" font-size="12" lengthAdjust="spacing" textLength="30" x="393" y="320.7852">Atom</text><line style="stroke:#A80036;stroke-width:1.5;" x1="365" x2="425" y1="332.25" y2="332.25"/><line style="stroke:#A80036;stroke-width:1.5;" x1="365" x2="425" y1="340.25" y2="340.25"/><!--MD5=[93fe927435d17bed53dc57d3a6532330]
class asdi::idb::Comparison--><rect codeLine="26" fill="#FEFECE" filter="url(#f8w24m5szci8o)" height="48" id="asdi::idb::Comparison" style="stroke:#A80036;stroke-width:1.5;" width="101" x="190.5" y="300.25"/><ellipse cx="205.5" cy="316.25" fill="#ADD1B2" rx="11" ry="11" style="stroke:#A80036;stroke-width:1.0;"/><path d="M207.9731,322.3931 Q207.3921,322.6919 206.7529,322.8413 Q206.1138,322.9907 205.4082,322.9907 Q202.9014,322.9907 201.5815,321.3389 Q200.2617,319.687 200.2617,316.5659 Q200.2617,313.4365 201.5815,311.7847 Q202.9014,310.1328 205.4082,310.1328 Q206.1138,310.1328 206.7612,310.2822 Q207.4087,310.4316 207.9731,310.7305 L207.9731,313.4531 Q207.3423,312.8721 206.7488,312.6023 Q206.1553,312.3325 205.5244,312.3325 Q204.1797,312.3325 203.4949,313.3992 Q202.8101,314.4658 202.8101,316.5659 Q202.8101,318.6577 203.4949,319.7244 Q204.1797,320.791 205.5244,320.791 Q206.1553,320.791 206.7488,320.5212 Q207.3423,320.2515 207.9731,319.6704 Z " fill="#000000"/><text fill="#000000" font-family="sans-serif" font-size="12" lengthAdjust="spacing" textLength="69" x="219.5" y="320.7852">Comparison</text><line style="stroke:#A80036;stroke-width:1.5;" x1="191.5" x2="290.5" y1="332.25" y2="332.25"/><line style="stroke:#A80036;stroke-width:1.5;" x1="191.5" x2="290.5" y1="340.25" y2="340.25"/><!--MD5=[95e3d76ece4a6c772598aa558a725fa6]
class asdi::idb::Literal--><rect codeLine="27" fill="#FEFECE" filter="url(#f8w24m5szci8o)" height="60.9551" id="asdi::idb::Literal" style="stroke:#A80036;stroke-width:1.5;" width="87" x="692.5" y="161.25"/><ellipse cx="716.5" cy="177.25" fill="#ADD1B2" rx="11" ry="11" style="stroke:#A80036;stroke-width:1.0;"/><path d="M718.9731,183.3931 Q718.3921,183.6919 717.7529,183.8413 Q717.1138,183.9907 716.4082,183.9907 Q713.9014,183.9907 712.5815,182.3389 Q711.2617,180.687 711.2617,177.5659 Q711.2617,174.4365 712.5815,172.7847 Q713.9014,171.1328 716.4082,171.1328 Q717.1138,171.1328 717.7612,171.2822 Q718.4087,171.4316 718.9731,171.7305 L718.9731,174.4531 Q718.3423,173.8721 717.7488,173.6023 Q717.1553,173.3325 716.5244,173.3325 Q715.1797,173.3325 714.4949,174.3992 Q713.8101,175.4658 713.8101,177.5659 Q713.8101,179.6577 714.4949,180.7244 Q715.1797,181.791 716.5244,181.791 Q717.1553,181.791 717.7488,181.5212 Q718.3423,181.2515 718.9731,180.6704 Z " fill="#000000"/><text fill="#000000" font-family="sans-serif" font-size="12" lengthAdjust="spacing" textLength="35" x="732.5" y="181.7852">Literal</text><line style="stroke:#A80036;stroke-width:1.5;" x1="693.5" x2="778.5" y1="193.25" y2="193.25"/><text fill="#000000" font-family="sans-serif" font-size="11" lengthAdjust="spacing" textLength="75" x="698.5" y="207.8848">negative: bool</text><line style="stroke:#A80036;stroke-width:1.5;" x1="693.5" x2="778.5" y1="214.2051" y2="214.2051"/><!--MD5=[afabf50c567fddf1e22749c2d45d6bf2]
class asdi::idb::Rule--><rect codeLine="30" fill="#FEFECE" filter="url(#f8w24m5szci8o)" height="48" id="asdi::idb::Rule" style="stroke:#A80036;stroke-width:1.5;" width="57" x="600.5" y="167.75"/><ellipse cx="615.5" cy="183.75" fill="#ADD1B2" rx="11" ry="11" style="stroke:#A80036;stroke-width:1.0;"/><path d="M617.9731,189.8931 Q617.3921,190.1919 616.7529,190.3413 Q616.1138,190.4907 615.4082,190.4907 Q612.9014,190.4907 611.5815,188.8389 Q610.2617,187.187 610.2617,184.0659 Q610.2617,180.9365 611.5815,179.2847 Q612.9014,177.6328 615.4082,177.6328 Q616.1138,177.6328 616.7612,177.7822 Q617.4087,177.9316 617.9731,178.2305 L617.9731,180.9531 Q617.3423,180.3721 616.7488,180.1023 Q616.1553,179.8325 615.5244,179.8325 Q614.1797,179.8325 613.4949,180.8992 Q612.8101,181.9658 612.8101,184.0659 Q612.8101,186.1577 613.4949,187.2244 Q614.1797,188.291 615.5244,188.291 Q616.1553,188.291 616.7488,188.0212 Q617.3423,187.7515 617.9731,187.1704 Z " fill="#000000"/><text fill="#000000" font-family="sans-serif" font-size="12" lengthAdjust="spacing" textLength="25" x="629.5" y="188.2852">Rule</text><line style="stroke:#A80036;stroke-width:1.5;" x1="601.5" x2="656.5" y1="199.75" y2="199.75"/><line style="stroke:#A80036;stroke-width:1.5;" x1="601.5" x2="656.5" y1="207.75" y2="207.75"/><!--MD5=[30c8d4c59bd3776484494cc31a150236]
class asdi::idb::RuleSet--><rect codeLine="31" fill="#FEFECE" filter="url(#f8w24m5szci8o)" height="48" id="asdi::idb::RuleSet" style="stroke:#A80036;stroke-width:1.5;" width="74" x="491" y="167.75"/><ellipse cx="506" cy="183.75" fill="#ADD1B2" rx="11" ry="11" style="stroke:#A80036;stroke-width:1.0;"/><path d="M508.4731,189.8931 Q507.8921,190.1919 507.2529,190.3413 Q506.6138,190.4907 505.9082,190.4907 Q503.4014,190.4907 502.0815,188.8389 Q500.7617,187.187 500.7617,184.0659 Q500.7617,180.9365 502.0815,179.2847 Q503.4014,177.6328 505.9082,177.6328 Q506.6138,177.6328 507.2612,177.7822 Q507.9087,177.9316 508.4731,178.2305 L508.4731,180.9531 Q507.8423,180.3721 507.2488,180.1023 Q506.6553,179.8325 506.0244,179.8325 Q504.6797,179.8325 503.9949,180.8992 Q503.3101,181.9658 503.3101,184.0659 Q503.3101,186.1577 503.9949,187.2244 Q504.6797,188.291 506.0244,188.291 Q506.6553,188.291 507.2488,188.0212 Q507.8423,187.7515 508.4731,187.1704 Z " fill="#000000"/><text fill="#000000" font-family="sans-serif" font-size="12" lengthAdjust="spacing" textLength="42" x="520" y="188.2852">RuleSet</text><line style="stroke:#A80036;stroke-width:1.5;" x1="492" x2="564" y1="199.75" y2="199.75"/><line style="stroke:#A80036;stroke-width:1.5;" x1="492" x2="564" y1="207.75" y2="207.75"/><!--MD5=[f72cfccca2b5af6aea8a3ce6e99d7935]
class asdi::idb::Variable--><rect codeLine="32" fill="#FEFECE" filter="url(#f8w24m5szci8o)" height="48" id="asdi::idb::Variable" style="stroke:#A80036;stroke-width:1.5;" width="80" x="56" y="458.75"/><ellipse cx="71" cy="474.75" fill="#ADD1B2" rx="11" ry="11" style="stroke:#A80036;stroke-width:1.0;"/><path d="M73.4731,480.8931 Q72.8921,481.1919 72.2529,481.3413 Q71.6138,481.4907 70.9082,481.4907 Q68.4014,481.4907 67.0815,479.8389 Q65.7617,478.187 65.7617,475.0659 Q65.7617,471.9365 67.0815,470.2847 Q68.4014,468.6328 70.9082,468.6328 Q71.6138,468.6328 72.2612,468.7822 Q72.9087,468.9316 73.4731,469.2305 L73.4731,471.9531 Q72.8423,471.3721 72.2488,471.1023 Q71.6553,470.8325 71.0244,470.8325 Q69.6797,470.8325 68.9949,471.8992 Q68.3101,472.9658 68.3101,475.0659 Q68.3101,477.1577 68.9949,478.2244 Q69.6797,479.291 71.0244,479.291 Q71.6553,479.291 72.2488,479.0212 Q72.8423,478.7515 73.4731,478.1704 Z " fill="#000000"/><text fill="#000000" font-family="sans-serif" font-size="12" lengthAdjust="spacing" textLength="48" x="85" y="479.2852">Variable</text><line style="stroke:#A80036;stroke-width:1.5;" x1="57" x2="135" y1="490.75" y2="490.75"/><line style="stroke:#A80036;stroke-width:1.5;" x1="57" x2="135" y1="498.75" y2="498.75"/><!--MD5=[d7ed71e2888dff8f76393f08027596df]
class asdi::idb::ComparisonOperator--><rect codeLine="34" fill="#FEFECE" filter="url(#f8w24m5szci8o)" height="117.7305" id="asdi::idb::ComparisonOperator" style="stroke:#A80036;stroke-width:1.5;" width="153" x="171.5" y="423.75"/><ellipse cx="186.5" cy="439.75" fill="#EB937F" rx="11" ry="11" style="stroke:#A80036;stroke-width:1.0;"/><path d="M190.1143,446.25 L182.3945,446.25 L182.3945,433.8569 L190.1143,433.8569 L190.1143,436.0151 L184.8433,436.0151 L184.8433,438.688 L189.6162,438.688 L189.6162,440.8462 L184.8433,440.8462 L184.8433,444.0918 L190.1143,444.0918 Z " fill="#000000"/><text fill="#000000" font-family="sans-serif" font-size="12" lengthAdjust="spacing" textLength="121" x="200.5" y="444.2852">ComparisonOperator</text><line style="stroke:#A80036;stroke-width:1.5;" x1="172.5" x2="323.5" y1="455.75" y2="455.75"/><text fill="#000000" font-family="sans-serif" font-size="11" lengthAdjust="spacing" textLength="29" x="177.5" y="470.3848">Equal</text><text fill="#000000" font-family="sans-serif" font-size="11" lengthAdjust="spacing" textLength="48" x="177.5" y="483.3398">NotEqual</text><text fill="#000000" font-family="sans-serif" font-size="11" lengthAdjust="spacing" textLength="51" x="177.5" y="496.2949">LessThan</text><text fill="#000000" font-family="sans-serif" font-size="11" lengthAdjust="spacing" textLength="94" x="177.5" y="509.25">LessThanOrEqual</text><text fill="#000000" font-family="sans-serif" font-size="11" lengthAdjust="spacing" textLength="67" x="177.5" y="522.2051">GreaterThan</text><text fill="#000000" font-family="sans-serif" font-size="11" lengthAdjust="spacing" textLength="110" x="177.5" y="535.1602">GreaterThanOrEqual</text><!--MD5=[db6502f5881fb8b59203380e04be5be8]
class asdi::idb::LiteralInner--><rect codeLine="42" fill="#FEFECE" filter="url(#f8w24m5szci8o)" height="65.9102" id="asdi::idb::LiteralInner" style="stroke:#A80036;stroke-width:1.5;" width="143" x="284.5" y="158.75"/><ellipse cx="320.65" cy="174.75" fill="#EB937F" rx="11" ry="11" style="stroke:#A80036;stroke-width:1.0;"/><path d="M324.2643,181.25 L316.5445,181.25 L316.5445,168.8569 L324.2643,168.8569 L324.2643,171.0151 L318.9933,171.0151 L318.9933,173.688 L323.7662,173.688 L323.7662,175.8462 L318.9933,175.8462 L318.9933,179.0918 L324.2643,179.0918 Z " fill="#000000"/><text fill="#000000" font-family="sans-serif" font-size="12" lengthAdjust="spacing" textLength="64" x="339.35" y="179.2852">LiteralInner</text><line style="stroke:#A80036;stroke-width:1.5;" x1="285.5" x2="426.5" y1="190.75" y2="190.75"/><text fill="#000000" font-family="sans-serif" font-size="11" lengthAdjust="spacing" textLength="90" x="290.5" y="205.3848">Relational : Atom</text><text fill="#000000" font-family="sans-serif" font-size="11" lengthAdjust="spacing" textLength="131" x="290.5" y="218.3398">Arithmetic : Comparison</text><!--MD5=[e58c0c9c0688e4939d5bc85df51c153b]
class asdi::idb::RuleForm--><rect codeLine="46" fill="#FEFECE" filter="url(#f8w24m5szci8o)" height="78.8652" id="asdi::idb::RuleForm" style="stroke:#A80036;stroke-width:1.5;" width="86" x="620" y="284.75"/><ellipse cx="635" cy="300.75" fill="#EB937F" rx="11" ry="11" style="stroke:#A80036;stroke-width:1.0;"/><path d="M638.6143,307.25 L630.8945,307.25 L630.8945,294.8569 L638.6143,294.8569 L638.6143,297.0151 L633.3433,297.0151 L633.3433,299.688 L638.1162,299.688 L638.1162,301.8462 L633.3433,301.8462 L633.3433,305.0918 L638.6143,305.0918 Z " fill="#000000"/><text fill="#000000" font-family="sans-serif" font-size="12" lengthAdjust="spacing" textLength="54" x="649" y="305.2852">RuleForm</text><line style="stroke:#A80036;stroke-width:1.5;" x1="621" x2="705" y1="316.75" y2="316.75"/><text fill="#000000" font-family="sans-serif" font-size="11" lengthAdjust="spacing" textLength="24" x="626" y="331.3848">Pure</text><text fill="#000000" font-family="sans-serif" font-size="11" lengthAdjust="spacing" textLength="57" x="626" y="344.3398">Constraint</text><text fill="#000000" font-family="sans-serif" font-size="11" lengthAdjust="spacing" textLength="59" x="626" y="357.2949">Disjunctive</text><!--MD5=[6f0cf4b3afacbcee8b945dd3f35577cc]
class asdi::idb::Term--><rect codeLine="51" fill="#FEFECE" filter="url(#f8w24m5szci8o)" height="78.8652" id="asdi::idb::Term" style="stroke:#A80036;stroke-width:1.5;" width="124" x="461" y="284.75"/><ellipse cx="503.45" cy="300.75" fill="#EB937F" rx="11" ry="11" style="stroke:#A80036;stroke-width:1.0;"/><path d="M507.0643,307.25 L499.3445,307.25 L499.3445,294.8569 L507.0643,294.8569 L507.0643,297.0151 L501.7933,297.0151 L501.7933,299.688 L506.5662,299.688 L506.5662,301.8462 L501.7933,301.8462 L501.7933,305.0918 L507.0643,305.0918 Z " fill="#000000"/><text fill="#000000" font-family="sans-serif" font-size="12" lengthAdjust="spacing" textLength="31" x="523.55" y="305.2852">Term</text><line style="stroke:#A80036;stroke-width:1.5;" x1="462" x2="584" y1="316.75" y2="316.75"/><text fill="#000000" font-family="sans-serif" font-size="11" lengthAdjust="spacing" textLength="65" x="467" y="331.3848">Anonymous</text><text fill="#000000" font-family="sans-serif" font-size="11" lengthAdjust="spacing" textLength="112" x="467" y="344.3398">Variable : VariableRef</text><text fill="#000000" font-family="sans-serif" font-size="11" lengthAdjust="spacing" textLength="107" x="467" y="357.2949">Constant : Constant</text><!--MD5=[a3443b1847a68570b6a0335ccf68a499]
class asdi::idb::VariableRef--><rect codeLine="57" fill="#FEFECE" filter="url(#f8w24m5szci8o)" height="32" id="asdi::idb::VariableRef" style="stroke:#A80036;stroke-width:1.5;" width="99" x="56.5" y="308.25"/><ellipse cx="71.5" cy="324.25" fill="#ADD1B2" rx="11" ry="11" style="stroke:#A80036;stroke-width:1.0;"/><path d="M72.8418,331.5 L70.3931,331.5 L70.3931,321.2485 L67.2471,321.2485 L67.2471,319.1069 L75.9878,319.1069 L75.9878,321.2485 L72.8418,321.2485 Z " fill="#000000"/><text fill="#000000" font-family="sans-serif" font-size="12" lengthAdjust="spacing" textLength="67" x="85.5" y="328.7852">VariableRef</text><!--MD5=[58db58f43e0c0eeeb327af7bc687dbb7]
class asdi::edb::Constant--><rect codeLine="16" fill="#FEFECE" filter="url(#f8w24m5szci8o)" height="32" id="asdi::edb::Constant" style="stroke:#A80036;stroke-width:1.5;" width="82" x="1117" y="308.25"/><ellipse cx="1132" cy="324.25" fill="#B4A7E5" rx="11" ry="11" style="stroke:#A80036;stroke-width:1.0;"/><path d="M1128.4277,320.5151 L1128.4277,318.3569 L1135.8071,318.3569 L1135.8071,320.5151 L1133.3418,320.5151 L1133.3418,328.5918 L1135.8071,328.5918 L1135.8071,330.75 L1128.4277,330.75 L1128.4277,328.5918 L1130.8931,328.5918 L1130.8931,320.5151 Z " fill="#000000"/><text fill="#000000" font-family="sans-serif" font-size="12" font-style="italic" lengthAdjust="spacing" textLength="50" x="1146" y="328.7852">Constant</text><!--MD5=[63d735a6e8116701ee198db5f4862bbe]
class asdi::edb::PredicateRef--><rect codeLine="19" fill="#FEFECE" filter="url(#f8w24m5szci8o)" height="32" id="asdi::edb::PredicateRef" style="stroke:#A80036;stroke-width:1.5;" width="105" x="1234.5" y="308.25"/><ellipse cx="1249.5" cy="324.25" fill="#B4A7E5" rx="11" ry="11" style="stroke:#A80036;stroke-width:1.0;"/><path d="M1245.9277,320.5151 L1245.9277,318.3569 L1253.3071,318.3569 L1253.3071,320.5151 L1250.8418,320.5151 L1250.8418,328.5918 L1253.3071,328.5918 L1253.3071,330.75 L1245.9277,330.75 L1245.9277,328.5918 L1248.3931,328.5918 L1248.3931,320.5151 Z " fill="#000000"/><text fill="#000000" font-family="sans-serif" font-size="12" font-style="italic" lengthAdjust="spacing" textLength="73" x="1263.5" y="328.7852">PredicateRef</text><!--MD5=[5205db52c3bf390de82c60a926c6194c]
link asdi::idb::Atom to asdi::edb::PredicateRef--><path codeLine="59" d="M413.8103,289.982 C413.8103,289.982 441.73,254.05 461.5,245 C498.78,227.94 1161.24,230.25 1199.5,245 C1226.84,255.54 1250.93,279.02 1266.87,297.7 " fill="none" id="asdi::idb::Atom-asdi::edb::PredicateRef" style="stroke:#A80036;stroke-width:1.0;"/><polygon fill="#A80036" points="1275.28,308.01,1272.6914,298.5074,1272.1198,304.1353,1266.4919,303.5637,1275.28,308.01" style="stroke:#A80036;stroke-width:1.0;"/><line style="stroke:#A80036;stroke-width:1.0;" x1="1272.1198" x2="1267.065" y1="304.1353" y2="297.935"/><polygon fill="none" points="407.39,300.12,413.9795,297.1911,413.8103,289.982,407.2208,292.9109,407.39,300.12" style="stroke:#A80036;stroke-width:1.0;"/><text fill="#000000" font-family="sans-serif" font-size="13" lengthAdjust="spacing" textLength="30" x="1236.095" y="297.4711">label</text><!--MD5=[4ee7e12942c48899dff69efe64159cb5]
link asdi::idb::Atom to asdi::idb::Term--><path codeLine="60" d="M438,324.25 C438,324.25 444.75,324.25 447.58,324.25 " fill="none" id="asdi::idb::Atom-asdi::idb::Term" style="stroke:#A80036;stroke-width:1.0;"/><polygon fill="#A80036" points="460.86,324.25,451.86,320.25,455.86,324.25,451.86,328.25,460.86,324.25" style="stroke:#A80036;stroke-width:1.0;"/><line style="stroke:#A80036;stroke-width:1.0;" x1="455.86" x2="447.86" y1="324.25" y2="324.25"/><polygon fill="#A80036" points="426,324.25,432,328.25,438,324.25,432,320.25,426,324.25" style="stroke:#A80036;stroke-width:1.0;"/><text fill="#000000" font-family="sans-serif" font-size="13" lengthAdjust="spacing" textLength="46" x="406.7812" y="341.5245">terms *</text><!--MD5=[47fa2de2f882a2cfb2a5f6b9dab4b311]
link asdi::idb::Atom to asdi::Labeled--><path codeLine="61" d="M419.07,348.35 C426.55,354.39 435.16,360.31 444,364.25 C588.88,428.92 655.98,349.12 796,423.75 C808.31,430.31 819.43,440.66 828.4,450.81 " fill="none" id="asdi::idb::Atom-to-asdi::Labeled" style="stroke:#A80036;stroke-width:1.0;stroke-dasharray:7.0,7.0;"/><polygon fill="none" points="833.93,446.52,840.94,466.51,822.99,455.25,833.93,446.52" style="stroke:#A80036;stroke-width:1.0;"/><!--MD5=[9b2f527c234f9e1c3c4397b9f060605c]
link asdi::idb::Atom to asdi::idb::MaybeGround--><path codeLine="62" d="M398.1,348.34 C401.42,373.13 406.77,412.93 410.75,442.62 " fill="none" id="asdi::idb::Atom-to-asdi::idb::MaybeGround" style="stroke:#A80036;stroke-width:1.0;stroke-dasharray:7.0,7.0;"/><polygon fill="none" points="417.7,441.76,413.42,462.51,403.82,443.62,417.7,441.76" style="stroke:#A80036;stroke-width:1.0;"/><!--MD5=[2074f6122c99d112595670c4e3f9c226]
link asdi::idb::Comparison to asdi::idb::Term--><path codeLine="64" d="M279.4204,293.0377 C279.4204,293.0377 330.36,259.77 358.67,251.75 C390.17,242.82 401.44,240.92 432.33,251.75 C447.49,257.06 461.99,266.1 474.79,276.01 " fill="none" id="asdi::idb::Comparison-asdi::idb::Term" style="stroke:#A80036;stroke-width:1.0;"/><polygon fill="#A80036" points="485.1,284.49,480.6884,275.6844,481.2378,281.3145,475.6077,281.8639,485.1,284.49" style="stroke:#A80036;stroke-width:1.0;"/><line style="stroke:#A80036;stroke-width:1.0;" x1="481.2378" x2="475.06" y1="281.3145" y2="276.235"/><polygon fill="#A80036" points="269.77,300.17,276.9726,299.8206,279.4204,293.0377,272.2178,293.387,269.77,300.17" style="stroke:#A80036;stroke-width:1.0;"/><text fill="#000000" font-family="sans-serif" font-size="13" lengthAdjust="spacing" textLength="19" x="457.9531" y="273.9738">lhs</text><!--MD5=[2074f6122c99d112595670c4e3f9c226]
link asdi::idb::Comparison to asdi::idb::Term--><path codeLine="65" d="M276.5456,292.2403 C276.5456,292.2403 335.71,248.71 370.33,238.25 C391.75,231.78 399.65,230.59 420.67,238.25 C441.97,246.01 461.92,260.38 478.45,275.18 " fill="none" id="asdi::idb::Comparison-asdi::idb::Term-1" style="stroke:#A80036;stroke-width:1.0;"/><polygon fill="#A80036" points="488.28,284.39,484.4536,275.3148,484.6337,280.9688,478.9797,281.149,488.28,284.39" style="stroke:#A80036;stroke-width:1.0;"/><line style="stroke:#A80036;stroke-width:1.0;" x1="484.6337" x2="478.795" y1="280.9688" y2="275.5"/><polygon fill="#A80036" points="267.3,299.89,274.4727,299.147,276.5456,292.2403,269.3729,292.9833,267.3,299.89" style="stroke:#A80036;stroke-width:1.0;"/><text fill="#000000" font-family="sans-serif" font-size="13" lengthAdjust="spacing" textLength="20" x="484.1858" y="274.1512">rhs</text><!--MD5=[d073be04e4ddc1aa3aef12623a417776]
link asdi::idb::Comparison to asdi::idb::ComparisonOperator--><path codeLine="66" d="M242.5575,360.3284 C242.5575,360.3284 244.06,393.58 244.82,410.57 " fill="none" id="asdi::idb::Comparison-asdi::idb::ComparisonOperator" style="stroke:#A80036;stroke-width:1.0;"/><polygon fill="#A80036" points="245.4,423.73,248.9904,414.5589,245.1747,418.7351,240.9985,414.9194,245.4,423.73" style="stroke:#A80036;stroke-width:1.0;"/><line style="stroke:#A80036;stroke-width:1.0;" x1="245.1747" x2="244.825" y1="418.7351" y2="410.745"/><polygon fill="#A80036" points="242.03,348.34,238.2976,354.51,242.5575,360.3284,246.2899,354.1584,242.03,348.34" style="stroke:#A80036;stroke-width:1.0;"/><!--MD5=[e17c165f05fcd9f87fb5cc52c081d235]
link asdi::idb::Comparison to asdi::idb::MaybeGround--><path codeLine="67" d="M266.82,348.34 C296.64,375.01 345.92,419.08 379.61,449.21 " fill="none" id="asdi::idb::Comparison-to-asdi::idb::MaybeGround" style="stroke:#A80036;stroke-width:1.0;stroke-dasharray:7.0,7.0;"/><polygon fill="none" points="384.51,444.2,394.75,462.75,375.18,454.63,384.51,444.2" style="stroke:#A80036;stroke-width:1.0;"/><!--MD5=[3ec0297d6e77f34f61d37cc8ebdc5add]
link asdi::idb::Rule to asdi::idb::Atom--><path codeLine="69" d="M590.1605,220.9543 C590.1605,220.9543 585.02,223.78 583,224.75 C524.94,252.49 497.95,230.18 444,265.25 C434.15,271.65 425.22,280.63 417.76,289.61 " fill="none" id="asdi::idb::Rule-asdi::idb::Atom" style="stroke:#A80036;stroke-width:1.0;"/><polygon fill="#A80036" points="409.72,300,418.3939,295.3349,412.7821,296.0473,412.0696,290.4355,409.72,300" style="stroke:#A80036;stroke-width:1.0;"/><line style="stroke:#A80036;stroke-width:1.0;" x1="412.7821" x2="417.675" y1="296.0473" y2="289.715"/><polygon fill="#A80036" points="600.42,214.73,593.2155,214.4223,590.1605,220.9543,597.365,221.262,600.42,214.73" style="stroke:#A80036;stroke-width:1.0;"/><text fill="#000000" font-family="sans-serif" font-size="13" lengthAdjust="spacing" textLength="40" x="368.367" y="289.4722">head *</text><!--MD5=[642164043534f65529c801e75dd39f9d]
link asdi::idb::Rule to asdi::idb::Literal--><path codeLine="70" d="M669.84,191.75 C669.84,191.75 676.37,191.75 679.03,191.75 " fill="none" id="asdi::idb::Rule-asdi::idb::Literal" style="stroke:#A80036;stroke-width:1.0;"/><polygon fill="#A80036" points="692.34,191.75,683.34,187.75,687.34,191.75,683.34,195.75,692.34,191.75" style="stroke:#A80036;stroke-width:1.0;"/><line style="stroke:#A80036;stroke-width:1.0;" x1="687.34" x2="679.34" y1="191.75" y2="191.75"/><polygon fill="#A80036" points="657.84,191.75,663.84,195.75,669.84,191.75,663.84,187.75,657.84,191.75" style="stroke:#A80036;stroke-width:1.0;"/><text fill="#000000" font-family="sans-serif" font-size="13" lengthAdjust="spacing" textLength="41" x="665.8461" y="183.1748">body *</text><!--MD5=[ba9414cdfd3b22f8d118e7d79a3000fa]
link asdi::idb::Rule to asdi::idb::RuleForm--><path codeLine="71" d="M635,215.78 C639.59,233.39 646.05,258.2 651.61,279.54 " fill="none" id="asdi::idb::Rule-to-asdi::idb::RuleForm" style="stroke:#A80036;stroke-width:1.0;stroke-dasharray:7.0,7.0;"/><polygon fill="#A80036" points="652.93,284.6,654.5334,274.8825,651.6702,279.7613,646.7914,276.8982,652.93,284.6" style="stroke:#A80036;stroke-width:1.0;"/><!--MD5=[51348dca393e1c9db410957b48e7baf4]
link asdi::idb::Rule to asdi::idb::MaybeGround--><path codeLine="72" d="M657.51,212.55 C684.13,231.35 720.32,257.81 724,265.25 C743.51,304.69 751.23,329.69 724,364.25 C654.13,452.95 576.19,369.78 477,423.75 C465.57,429.97 454.71,438.88 445.41,447.86 " fill="none" id="asdi::idb::Rule-to-asdi::idb::MaybeGround" style="stroke:#A80036;stroke-width:1.0;stroke-dasharray:7.0,7.0;"/><polygon fill="none" points="450.26,452.91,431.4,462.56,440.12,443.25,450.26,452.91" style="stroke:#A80036;stroke-width:1.0;"/><!--MD5=[85d0d95bf7b63637490af7b82ef1fb93]
link asdi::idb::Rule to asdi::MaybePositive--><path codeLine="73" d="M657.92,214.7 C663.43,218.35 669.26,221.87 675,224.75 C725.68,250.2 745.89,238.69 796,265.25 C811.5,273.47 827.15,284.78 840.19,295.24 " fill="none" id="asdi::idb::Rule-to-asdi::MaybePositive" style="stroke:#A80036;stroke-width:1.0;stroke-dasharray:7.0,7.0;"/><polygon fill="none" points="844.77,289.95,855.6,308.16,835.78,300.67,844.77,289.95" style="stroke:#A80036;stroke-width:1.0;"/><!--MD5=[78018949d9607d46caafb7efbbd3872f]
link asdi::idb::RuleSet to asdi::idb::Rule--><path codeLine="75" d="M577.09,191.75 C577.09,191.75 583.88,191.75 586.73,191.75 " fill="none" id="asdi::idb::RuleSet-asdi::idb::Rule" style="stroke:#A80036;stroke-width:1.0;"/><polygon fill="#A80036" points="600.04,191.75,591.04,187.75,595.04,191.75,591.04,195.75,600.04,191.75" style="stroke:#A80036;stroke-width:1.0;"/><line style="stroke:#A80036;stroke-width:1.0;" x1="595.04" x2="587.04" y1="191.75" y2="191.75"/><polygon fill="#A80036" points="565.09,191.75,571.09,195.75,577.09,191.75,571.09,187.75,565.09,191.75" style="stroke:#A80036;stroke-width:1.0;"/><text fill="#000000" font-family="sans-serif" font-size="13" lengthAdjust="spacing" textLength="6" x="586.6492" y="187.6199">*</text><!--MD5=[fdafab65abbefbbe087bffe4cffeeae7]
link asdi::idb::Literal to asdi::idb::LiteralInner--><path codeLine="77" d="M726.8584,149.3904 C726.8584,149.3904 695.72,64.7 657.5,42.75 C593.52,6 558.97,12.91 491.5,42.75 C443.46,64 405.14,111.63 381.67,147.35 " fill="none" id="asdi::idb::Literal-asdi::idb::LiteralInner" style="stroke:#A80036;stroke-width:1.0;"/><polygon fill="#A80036" points="374.58,158.48,382.7911,153.0415,377.2679,154.264,376.0454,148.7408,374.58,158.48" style="stroke:#A80036;stroke-width:1.0;"/><line style="stroke:#A80036;stroke-width:1.0;" x1="377.2679" x2="381.565" y1="154.264" y2="147.515"/><polygon fill="#A80036" points="729.97,160.98,732.2774,154.148,726.8584,149.3904,724.551,156.2224,729.97,160.98" style="stroke:#A80036;stroke-width:1.0;"/><!--MD5=[beeb32018e5e2153cbc5952e2c436ad5]
link asdi::idb::Literal to asdi::idb::MaybeGround--><path codeLine="78" d="M747.39,222.45 C759.59,259.83 773.18,324 741,364.25 C665.88,458.18 583.07,367.05 477,423.75 C465.52,429.88 454.65,438.77 445.35,447.75 " fill="none" id="asdi::idb::Literal-to-asdi::idb::MaybeGround" style="stroke:#A80036;stroke-width:1.0;stroke-dasharray:7.0,7.0;"/><polygon fill="none" points="450.2,452.8,431.35,462.48,440.05,443.16,450.2,452.8" style="stroke:#A80036;stroke-width:1.0;"/><!--MD5=[d5370ebac63a30507d4d342ed3ce1830]
link asdi::idb::Literal to asdi::MaybePositive--><path codeLine="79" d="M766.86,222.36 C789.19,243.78 819.21,272.6 841.46,293.95 " fill="none" id="asdi::idb::Literal-to-asdi::MaybePositive" style="stroke:#A80036;stroke-width:1.0;stroke-dasharray:7.0,7.0;"/><polygon fill="none" points="846.48,289.06,856.07,307.96,836.79,299.17,846.48,289.06" style="stroke:#A80036;stroke-width:1.0;"/><!--MD5=[4343d6e856c2a24421a31b0a0989a586]
link asdi::idb::LiteralInner to asdi::idb::Atom--><path codeLine="81" d="M369.0809,236.5061 C369.0809,236.5061 379.66,271.91 384.25,287.28 " fill="none" id="asdi::idb::LiteralInner-asdi::idb::Atom" style="stroke:#A80036;stroke-width:1.0;"/><polygon fill="#A80036" points="388.04,299.96,389.2913,290.191,386.6063,295.17,381.6273,292.4849,388.04,299.96" style="stroke:#A80036;stroke-width:1.0;"/><line style="stroke:#A80036;stroke-width:1.0;" x1="386.6063" x2="384.32" y1="295.17" y2="287.505"/><polygon fill="none" points="365.64,225.01,363.5284,231.905,369.0809,236.5061,371.1925,229.6111,365.64,225.01" style="stroke:#A80036;stroke-width:1.0;"/><!--MD5=[2c44ef6781c51a44444bf9ba177d569f]
link asdi::idb::LiteralInner to asdi::idb::Comparison--><path codeLine="82" d="M319.6353,234.0123 C319.6353,234.0123 285.01,273.31 270.24,290.07 " fill="none" id="asdi::idb::LiteralInner-asdi::idb::Comparison" style="stroke:#A80036;stroke-width:1.0;"/><polygon fill="#A80036" points="261.52,299.96,270.4718,295.8532,264.8261,296.209,264.4702,290.5634,261.52,299.96" style="stroke:#A80036;stroke-width:1.0;"/><line style="stroke:#A80036;stroke-width:1.0;" x1="264.8261" x2="270.115" y1="296.209" y2="290.21"/><polygon fill="none" points="327.57,225.01,320.6019,226.8663,319.6353,234.0123,326.6034,232.156,327.57,225.01" style="stroke:#A80036;stroke-width:1.0;"/><!--MD5=[da3b0ad9f9fe181e557e9423b9c6416a]
link asdi::idb::LiteralInner to asdi::idb::MaybeGround--><path codeLine="83" d="M348.38,225 C341.47,259.95 334.17,317.07 347,364.25 C355.09,394 372.83,423.92 388.29,446.12 " fill="none" id="asdi::idb::LiteralInner-to-asdi::idb::MaybeGround" style="stroke:#A80036;stroke-width:1.0;stroke-dasharray:7.0,7.0;"/><polygon fill="none" points="394.08,442.17,400.23,462.44,382.78,450.43,394.08,442.17" style="stroke:#A80036;stroke-width:1.0;"/><!--MD5=[9849278a5dc03cf62611ce4620bd1e8b]
link asdi::idb::Term to asdi::idb::VariableRef--><path codeLine="85" d="M478.0158,276.6248 C478.0158,276.6248 444.91,251.59 426.5,245 C377.12,227.32 239.27,225.71 190.5,245 C163.77,255.58 140.54,279.05 125.24,297.72 " fill="none" id="asdi::idb::Term-asdi::idb::VariableRef" style="stroke:#A80036;stroke-width:1.0;"/><polygon fill="#A80036" points="117.18,308.03,125.8763,303.4067,120.2611,304.0921,119.5757,298.477,117.18,308.03" style="stroke:#A80036;stroke-width:1.0;"/><line style="stroke:#A80036;stroke-width:1.0;" x1="120.2611" x2="125.195" y1="304.0921" y2="297.785"/><polygon fill="none" points="487,284.58,485.1596,277.6077,478.0158,276.6248,479.8562,283.5971,487,284.58" style="stroke:#A80036;stroke-width:1.0;"/><!--MD5=[8cbcca06b00a83f8ba7cf2480cfc5d97]
link asdi::idb::Term to asdi::edb::Constant--><path codeLine="86" d="M570.6909,276.9199 C570.6909,276.9199 599.39,257.06 614.67,251.75 C661.96,235.31 1017.99,235.43 1065.33,251.75 C1092.29,261.04 1117.41,281.76 1134.67,298.68 " fill="none" id="asdi::idb::Term-asdi::edb::Constant" style="stroke:#A80036;stroke-width:1.0;"/><polygon fill="#A80036" points="1143.88,308.09,1140.4446,298.8597,1140.3831,304.5162,1134.7266,304.4548,1143.88,308.09" style="stroke:#A80036;stroke-width:1.0;"/><line style="stroke:#A80036;stroke-width:1.0;" x1="1140.3831" x2="1134.785" y1="304.5162" y2="298.795"/><polygon fill="none" points="561.38,284.49,568.5588,283.8086,570.6909,276.9199,563.5121,277.6013,561.38,284.49" style="stroke:#A80036;stroke-width:1.0;"/><!--MD5=[20df8b3cfe4388f14c5b65b728a82cf2]
link asdi::idb::Term to asdi::MaybeAnonymous--><path codeLine="87" d="M585.23,357.5 C591.16,359.99 597.14,362.29 603,364.25 C733.96,408.11 780.56,370.51 908,423.75 C926.05,431.29 944.21,442.99 959.08,453.91 " fill="none" id="asdi::idb::Term-to-asdi::MaybeAnonymous" style="stroke:#A80036;stroke-width:1.0;stroke-dasharray:7.0,7.0;"/><polygon fill="none" points="963.83,448.74,975.36,466.52,955.26,459.81,963.83,448.74" style="stroke:#A80036;stroke-width:1.0;"/><!--MD5=[168ae7385df228f119634d67d60fbcde]
link asdi::idb::VariableRef to asdi::idb::Variable--><path codeLine="89" d="M104.275,352.2356 C104.275,352.2356 100.12,417.27 98.33,445.26 " fill="none" id="asdi::idb::VariableRef-asdi::idb::Variable" style="stroke:#A80036;stroke-width:1.0;"/><polygon fill="#A80036" points="97.49,458.48,102.0556,449.7533,97.8087,453.4902,94.0719,449.2433,97.49,458.48" style="stroke:#A80036;stroke-width:1.0;"/><line style="stroke:#A80036;stroke-width:1.0;" x1="97.8087" x2="98.32" y1="453.4902" y2="445.51"/><polygon fill="none" points="105.04,340.26,100.6657,345.9928,104.275,352.2356,108.6494,346.5028,105.04,340.26" style="stroke:#A80036;stroke-width:1.0;"/><!--MD5=[d56ec772a069ca7ea3be07cf29c23657]
link asdi::idb::Variable to asdi::AttributeName--><path codeLine="90" d="M96,506.92 C96,527.45 96,557.75 96,581.33 " fill="none" id="asdi::idb::Variable-to-asdi::AttributeName" style="stroke:#A80036;stroke-width:1.0;stroke-dasharray:7.0,7.0;"/><polygon fill="none" points="103,581.7,96,601.7,89,581.7,103,581.7" style="stroke:#A80036;stroke-width:1.0;"/><!--MD5=[56d0ecfb08fd9ca8d5571caca7b7ab31]
@startuml

!include options.plantuml

interface asdi::AttributeName
hide "asdi::AttributeName" members

interface asdi::Labeled
hide "asdi::Labeled" members

interface asdi::MaybeAnonymous
hide "asdi::MaybeAnonymous" members

interface asdi::MaybePositive
hide "asdi::MaybePositive" members

interface asdi::edb::Constant
hide "asdi::edb::Constant" members

interface asdi::edb::PredicateRef
hide "asdi::edb::PredicateRef" members

namespace asdi::idb {
    interface MaybeGround

    class Atom
    class Comparison
    class Literal {
        negative: bool
    }
    class Rule
    class RuleSet
    class Variable

    enum ComparisonOperator {
        Equal
        NotEqual
        LessThan
        LessThanOrEqual
        GreaterThan
        GreaterThanOrEqual
    }
    enum LiteralInner {
        Relational : Atom
        Arithmetic : Comparison
    }
    enum RuleForm {
        Pure
        Constraint
        Disjunctive
    }
    enum Term {
        Anonymous
        Variable : VariableRef
        Constant : Constant
    }

    class VariableRef << (T,#ADD1B2) type >>

    Atom o-> "label" asdi::edb::PredicateRef
    Atom *-> "terms *" Term
    Atom ..|> asdi::Labeled
    Atom ..|> MaybeGround

    Comparison *-> "lhs" Term
    Comparison *-> "rhs" Term
    Comparison *-down-> ComparisonOperator
    Comparison ..|> MaybeGround

    Rule *-> "head *" Atom
    Rule *-> "body *" Literal
    Rule ..> RuleForm
    Rule ..|> MaybeGround
    Rule ..|> asdi::MaybePositive

    RuleSet *-> "*" Rule

    Literal *-> LiteralInner
    Literal ..|> MaybeGround
    Literal ..|> asdi::MaybePositive

    LiteralInner o-> Atom
    LiteralInner o-down-> Comparison
    LiteralInner ..|> MaybeGround

    Term o-> VariableRef
    Term o-> asdi::edb::Constant
    Term ..|> asdi::MaybeAnonymous

    VariableRef o- -> Variable
    Variable ..|> asdi::AttributeName
}

@enduml

@startuml

set namespaceSeparator ::
hide enum methods
hide interface fields
hide << const >> members
hide << type >> members
hide << type >> stereotype
hide << module >> fields
hide << module >> circle

interface asdi::AttributeName
hide "asdi::AttributeName" members

interface asdi::Labeled
hide "asdi::Labeled" members

interface asdi::MaybeAnonymous
hide "asdi::MaybeAnonymous" members

interface asdi::MaybePositive
hide "asdi::MaybePositive" members

interface asdi::edb::Constant
hide "asdi::edb::Constant" members

interface asdi::edb::PredicateRef
hide "asdi::edb::PredicateRef" members

namespace asdi::idb {
    interface MaybeGround

    class Atom
    class Comparison
    class Literal {
        negative: bool
    }
    class Rule
    class RuleSet
    class Variable

    enum ComparisonOperator {
        Equal
        NotEqual
        LessThan
        LessThanOrEqual
        GreaterThan
        GreaterThanOrEqual
    }
    enum LiteralInner {
        Relational : Atom
        Arithmetic : Comparison
    }
    enum RuleForm {
        Pure
        Constraint
        Disjunctive
    }
    enum Term {
        Anonymous
        Variable : VariableRef
        Constant : Constant
    }

    class VariableRef << (T,#ADD1B2) type >>

    Atom o-> "label" asdi::edb::PredicateRef
    Atom *-> "terms *" Term
    Atom ..|> asdi::Labeled
    Atom ..|> MaybeGround

    Comparison *-> "lhs" Term
    Comparison *-> "rhs" Term
    Comparison *-down-> ComparisonOperator
    Comparison ..|> MaybeGround

    Rule *-> "head *" Atom
    Rule *-> "body *" Literal
    Rule ..> RuleForm
    Rule ..|> MaybeGround
    Rule ..|> asdi::MaybePositive

    RuleSet *-> "*" Rule

    Literal *-> LiteralInner
    Literal ..|> MaybeGround
    Literal ..|> asdi::MaybePositive

    LiteralInner o-> Atom
    LiteralInner o-down-> Comparison
    LiteralInner ..|> MaybeGround

    Term o-> VariableRef
    Term o-> asdi::edb::Constant
    Term ..|> asdi::MaybeAnonymous

    VariableRef o- -> Variable
    Variable ..|> asdi::AttributeName
}

@enduml

PlantUML version 1.2022.1(Tue Feb 01 10:19:58 PST 2022)
(GPL source distribution)
Java Runtime: OpenJDK Runtime Environment
JVM: OpenJDK 64-Bit Server VM
Default Encoding: UTF-8
Language: en
Country: US
--></g></svg>