<?xml version="1.0" encoding="UTF-8" standalone="no"?><svg xmlns="http://www.w3.org/2000/svg" xmlns:xlink="http://www.w3.org/1999/xlink" contentScriptType="application/ecmascript" contentStyleType="text/css" height="455px" preserveAspectRatio="none" style="width:746px;height:455px;background:#FFFFFF;" version="1.1" viewBox="0 0 746 455" width="746px" zoomAndPan="magnify"><defs><filter height="300%" id="fgfbcfwgpz6sz" width="300%" x="-1" y="-1"><feGaussianBlur result="blurOut" stdDeviation="2.0"/><feColorMatrix in="blurOut" result="blurOut2" type="matrix" values="0 0 0 0 0 0 0 0 0 0 0 0 0 0 0 0 0 0 .4 0"/><feOffset dx="4.0" dy="4.0" in="blurOut2" result="blurOut3"/><feBlend in="SourceGraphic" in2="blurOut3" mode="normal"/></filter></defs><g><!--MD5=[e274c4916ac42ef1c11391a83d303c10]
cluster asdi--><polygon fill="#FFFFFF" filter="url(#fgfbcfwgpz6sz)" points="151,365.02,187,365.02,194,387.5083,440,387.5083,440,448.02,151,448.02,151,365.02" style="stroke:#000000;stroke-width:1.5;"/><line style="stroke:#000000;stroke-width:1.5;" x1="151" x2="194" y1="387.5083" y2="387.5083"/><text fill="#000000" font-family="sans-serif" font-size="14" font-weight="bold" lengthAdjust="spacing" textLength="30" x="155" y="380.5552">asdi</text><!--MD5=[ae3c197a01158459eb2ddb806e23d6f2]
cluster asdi::idb--><polygon fill="#FFFFFF" filter="url(#fgfbcfwgpz6sz)" points="16,67.02,81,67.02,88,89.5083,480,89.5083,480,341.02,16,341.02,16,67.02" style="stroke:#000000;stroke-width:1.5;"/><line style="stroke:#000000;stroke-width:1.5;" x1="16" x2="88" y1="89.5083" y2="89.5083"/><text fill="#000000" font-family="sans-serif" font-size="14" font-weight="bold" lengthAdjust="spacing" textLength="59" x="20" y="82.5552">asdi::idb</text><!--MD5=[331bdf5c2291f41e90a08533bcc43e12]
cluster asdi::idb::query--><polygon fill="#FFFFFF" filter="url(#fgfbcfwgpz6sz)" points="113,110.02,159,110.02,166,132.5083,456,132.5083,456,317.02,113,317.02,113,110.02" style="stroke:#000000;stroke-width:1.5;"/><line style="stroke:#000000;stroke-width:1.5;" x1="113" x2="166" y1="132.5083" y2="132.5083"/><text fill="#000000" font-family="sans-serif" font-size="14" font-weight="bold" lengthAdjust="spacing" textLength="40" x="117" y="125.5552">query</text><!--MD5=[6bc3af5db4038e5494ba0622f07de59b]
cluster asdi::edb--><polygon fill="#FFFFFF" filter="url(#fgfbcfwgpz6sz)" points="504,226.02,572,226.02,579,248.5083,729,248.5083,729,309.02,504,309.02,504,226.02" style="stroke:#000000;stroke-width:1.5;"/><line style="stroke:#000000;stroke-width:1.5;" x1="504" x2="579" y1="248.5083" y2="248.5083"/><text fill="#000000" font-family="sans-serif" font-size="14" font-weight="bold" lengthAdjust="spacing" textLength="62" x="508" y="241.5552">asdi::edb</text><!--MD5=[e8289714b7028f41fbfaeffd8c17c76d]
class asdi::Collection--><rect codeLine="4" fill="#FEFECE" filter="url(#fgfbcfwgpz6sz)" height="32" id="asdi::Collection" style="stroke:#A80036;stroke-width:1.5;" width="87" x="336.5" y="400.02"/><ellipse cx="351.5" cy="416.02" fill="#B4A7E5" rx="11" ry="11" style="stroke:#A80036;stroke-width:1.0;"/><path d="M347.9277,412.2851 L347.9277,410.1269 L355.3071,410.1269 L355.3071,412.2851 L352.8418,412.2851 L352.8418,420.3618 L355.3071,420.3618 L355.3071,422.52 L347.9277,422.52 L347.9277,420.3618 L350.3931,420.3618 L350.3931,412.2851 Z " fill="#000000"/><text fill="#000000" font-family="sans-serif" font-size="12" font-style="italic" lengthAdjust="spacing" textLength="55" x="365.5" y="420.5552">Collection</text><!--MD5=[ee47b5577acc389a92c0b1543b9a2c9a]
class asdi::IndexedCollection--><rect codeLine="7" fill="#FEFECE" filter="url(#fgfbcfwgpz6sz)" height="32" id="asdi::IndexedCollection" style="stroke:#A80036;stroke-width:1.5;" width="134" x="167" y="400.02"/><ellipse cx="182" cy="416.02" fill="#B4A7E5" rx="11" ry="11" style="stroke:#A80036;stroke-width:1.0;"/><path d="M178.4277,412.2851 L178.4277,410.1269 L185.8071,410.1269 L185.8071,412.2851 L183.3418,412.2851 L183.3418,420.3618 L185.8071,420.3618 L185.8071,422.52 L178.4277,422.52 L178.4277,420.3618 L180.8931,420.3618 L180.8931,412.2851 Z " fill="#000000"/><text fill="#000000" font-family="sans-serif" font-size="12" font-style="italic" lengthAdjust="spacing" textLength="102" x="196" y="420.5552">IndexedCollection</text><!--MD5=[bf8372b32c4a37b4dcf0167e8fccb41e]
class asdi::idb::Atom--><rect codeLine="10" fill="#FEFECE" filter="url(#fgfbcfwgpz6sz)" height="32" id="asdi::idb::Atom" style="stroke:#A80036;stroke-width:1.5;" width="62" x="32" y="153.02"/><ellipse cx="47" cy="169.02" fill="#B4A7E5" rx="11" ry="11" style="stroke:#A80036;stroke-width:1.0;"/><path d="M43.4277,165.2851 L43.4277,163.1269 L50.8071,163.1269 L50.8071,165.2851 L48.3418,165.2851 L48.3418,173.3618 L50.8071,173.3618 L50.8071,175.52 L43.4277,175.52 L43.4277,173.3618 L45.8931,173.3618 L45.8931,165.2851 Z " fill="#000000"/><text fill="#000000" font-family="sans-serif" font-size="12" font-style="italic" lengthAdjust="spacing" textLength="30" x="61" y="173.5552">Atom</text><!--MD5=[ce86c1ef97f092853a1a6c77d28b6c27]
class asdi::idb::query::Queryable--><rect codeLine="20" fill="#FEFECE" filter="url(#fgfbcfwgpz6sz)" height="40" id="asdi::idb::query::Queryable" style="stroke:#A80036;stroke-width:1.5;" width="91" x="129.5" y="149.02"/><ellipse cx="144.5" cy="165.02" fill="#B4A7E5" rx="11" ry="11" style="stroke:#A80036;stroke-width:1.0;"/><path d="M140.9277,161.2851 L140.9277,159.1269 L148.3071,159.1269 L148.3071,161.2851 L145.8418,161.2851 L145.8418,169.3618 L148.3071,169.3618 L148.3071,171.52 L140.9277,171.52 L140.9277,169.3618 L143.3931,169.3618 L143.3931,161.2851 Z " fill="#000000"/><text fill="#000000" font-family="sans-serif" font-size="12" font-style="italic" lengthAdjust="spacing" textLength="59" x="158.5" y="169.5552">Queryable</text><line style="stroke:#A80036;stroke-width:1.5;" x1="130.5" x2="219.5" y1="181.02" y2="181.02"/><!--MD5=[942727c1e5dca949354fc2e6ef4102b1]
class asdi::idb::query::Query--><rect codeLine="22" fill="#FEFECE" filter="url(#fgfbcfwgpz6sz)" height="48" id="asdi::idb::query::Query" style="stroke:#A80036;stroke-width:1.5;" width="66" x="374" y="145.02"/><ellipse cx="389" cy="161.02" fill="#ADD1B2" rx="11" ry="11" style="stroke:#A80036;stroke-width:1.0;"/><path d="M391.4731,167.1631 Q390.8921,167.4619 390.2529,167.6113 Q389.6138,167.7607 388.9082,167.7607 Q386.4014,167.7607 385.0815,166.1089 Q383.7617,164.457 383.7617,161.3359 Q383.7617,158.2065 385.0815,156.5547 Q386.4014,154.9028 388.9082,154.9028 Q389.6138,154.9028 390.2612,155.0522 Q390.9087,155.2016 391.4731,155.5005 L391.4731,158.2231 Q390.8423,157.6421 390.2488,157.3723 Q389.6553,157.1025 389.0244,157.1025 Q387.6797,157.1025 386.9949,158.1692 Q386.3101,159.2358 386.3101,161.3359 Q386.3101,163.4277 386.9949,164.4944 Q387.6797,165.561 389.0244,165.561 Q389.6553,165.561 390.2488,165.2912 Q390.8423,165.0215 391.4731,164.4404 Z " fill="#000000"/><text fill="#000000" font-family="sans-serif" font-size="12" lengthAdjust="spacing" textLength="34" x="403" y="165.5552">Query</text><line style="stroke:#A80036;stroke-width:1.5;" x1="375" x2="439" y1="177.02" y2="177.02"/><line style="stroke:#A80036;stroke-width:1.5;" x1="375" x2="439" y1="185.02" y2="185.02"/><!--MD5=[862f5ba143deaa96c11c433d25830988]
class asdi::idb::query::QuerySet--><rect codeLine="23" fill="#FEFECE" filter="url(#fgfbcfwgpz6sz)" height="48" id="asdi::idb::query::QuerySet" style="stroke:#A80036;stroke-width:1.5;" width="83" x="255.5" y="145.02"/><ellipse cx="270.5" cy="161.02" fill="#ADD1B2" rx="11" ry="11" style="stroke:#A80036;stroke-width:1.0;"/><path d="M272.9731,167.1631 Q272.3921,167.4619 271.7529,167.6113 Q271.1138,167.7607 270.4082,167.7607 Q267.9014,167.7607 266.5815,166.1089 Q265.2617,164.457 265.2617,161.3359 Q265.2617,158.2065 266.5815,156.5547 Q267.9014,154.9028 270.4082,154.9028 Q271.1138,154.9028 271.7612,155.0522 Q272.4087,155.2016 272.9731,155.5005 L272.9731,158.2231 Q272.3423,157.6421 271.7488,157.3723 Q271.1553,157.1025 270.5244,157.1025 Q269.1797,157.1025 268.4949,158.1692 Q267.8101,159.2358 267.8101,161.3359 Q267.8101,163.4277 268.4949,164.4944 Q269.1797,165.561 270.5244,165.561 Q271.1553,165.561 271.7488,165.2912 Q272.3423,165.0215 272.9731,164.4404 Z " fill="#000000"/><text fill="#000000" font-family="sans-serif" font-size="12" lengthAdjust="spacing" textLength="51" x="284.5" y="165.5552">QuerySet</text><line style="stroke:#A80036;stroke-width:1.5;" x1="256.5" x2="337.5" y1="177.02" y2="177.02"/><line style="stroke:#A80036;stroke-width:1.5;" x1="256.5" x2="337.5" y1="185.02" y2="185.02"/><!--MD5=[7e8d97ac1a083739443b45fa6a2a74f0]
class asdi::idb::query::Row--><rect codeLine="24" fill="#FEFECE" filter="url(#fgfbcfwgpz6sz)" height="48" id="asdi::idb::query::Row" style="stroke:#A80036;stroke-width:1.5;" width="56" x="233" y="253.02"/><ellipse cx="248" cy="269.02" fill="#ADD1B2" rx="11" ry="11" style="stroke:#A80036;stroke-width:1.0;"/><path d="M250.4731,275.1631 Q249.8921,275.4619 249.2529,275.6113 Q248.6138,275.7607 247.9082,275.7607 Q245.4014,275.7607 244.0815,274.1089 Q242.7617,272.457 242.7617,269.3359 Q242.7617,266.2065 244.0815,264.5547 Q245.4014,262.9028 247.9082,262.9028 Q248.6138,262.9028 249.2612,263.0522 Q249.9087,263.2016 250.4731,263.5005 L250.4731,266.2231 Q249.8423,265.6421 249.2488,265.3723 Q248.6553,265.1025 248.0244,265.1025 Q246.6797,265.1025 245.9949,266.1692 Q245.3101,267.2358 245.3101,269.3359 Q245.3101,271.4277 245.9949,272.4944 Q246.6797,273.561 248.0244,273.561 Q248.6553,273.561 249.2488,273.2912 Q249.8423,273.0215 250.4731,272.4404 Z " fill="#000000"/><text fill="#000000" font-family="sans-serif" font-size="12" lengthAdjust="spacing" textLength="24" x="262" y="273.5552">Row</text><line style="stroke:#A80036;stroke-width:1.5;" x1="234" x2="288" y1="285.02" y2="285.02"/><line style="stroke:#A80036;stroke-width:1.5;" x1="234" x2="288" y1="293.02" y2="293.02"/><!--MD5=[17ff6db730189734784f7494d7fbb9fe]
class asdi::idb::query::View--><rect codeLine="25" fill="#FEFECE" filter="url(#fgfbcfwgpz6sz)" height="48" id="asdi::idb::query::View" style="stroke:#A80036;stroke-width:1.5;" width="59" x="324.5" y="253.02"/><ellipse cx="339.5" cy="269.02" fill="#ADD1B2" rx="11" ry="11" style="stroke:#A80036;stroke-width:1.0;"/><path d="M341.9731,275.1631 Q341.3921,275.4619 340.7529,275.6113 Q340.1138,275.7607 339.4082,275.7607 Q336.9014,275.7607 335.5815,274.1089 Q334.2617,272.457 334.2617,269.3359 Q334.2617,266.2065 335.5815,264.5547 Q336.9014,262.9028 339.4082,262.9028 Q340.1138,262.9028 340.7612,263.0522 Q341.4087,263.2016 341.9731,263.5005 L341.9731,266.2231 Q341.3423,265.6421 340.7488,265.3723 Q340.1553,265.1025 339.5244,265.1025 Q338.1797,265.1025 337.4949,266.1692 Q336.8101,267.2358 336.8101,269.3359 Q336.8101,271.4277 337.4949,272.4944 Q338.1797,273.561 339.5244,273.561 Q340.1553,273.561 340.7488,273.2912 Q341.3423,273.0215 341.9731,272.4404 Z " fill="#000000"/><text fill="#000000" font-family="sans-serif" font-size="12" lengthAdjust="spacing" textLength="27" x="353.5" y="273.5552">View</text><line style="stroke:#A80036;stroke-width:1.5;" x1="325.5" x2="382.5" y1="285.02" y2="285.02"/><line style="stroke:#A80036;stroke-width:1.5;" x1="325.5" x2="382.5" y1="293.02" y2="293.02"/><!--MD5=[58db58f43e0c0eeeb327af7bc687dbb7]
class asdi::edb::Constant--><rect codeLine="13" fill="#FEFECE" filter="url(#fgfbcfwgpz6sz)" height="32" id="asdi::edb::Constant" style="stroke:#A80036;stroke-width:1.5;" width="82" x="631" y="261.02"/><ellipse cx="646" cy="277.02" fill="#B4A7E5" rx="11" ry="11" style="stroke:#A80036;stroke-width:1.0;"/><path d="M642.4277,273.2851 L642.4277,271.1269 L649.8071,271.1269 L649.8071,273.2851 L647.3418,273.2851 L647.3418,281.3618 L649.8071,281.3618 L649.8071,283.52 L642.4277,283.52 L642.4277,281.3618 L644.8931,281.3618 L644.8931,273.2851 Z " fill="#000000"/><text fill="#000000" font-family="sans-serif" font-size="12" font-style="italic" lengthAdjust="spacing" textLength="50" x="660" y="281.5552">Constant</text><!--MD5=[8ef57b1f3eaf719c194464ff4bed18b5]
class asdi::edb::Schema--><rect codeLine="16" fill="#FEFECE" filter="url(#fgfbcfwgpz6sz)" height="32" id="asdi::edb::Schema" style="stroke:#A80036;stroke-width:1.5;" width="76" x="520" y="261.02"/><ellipse cx="535" cy="277.02" fill="#ADD1B2" rx="11" ry="11" style="stroke:#A80036;stroke-width:1.0;"/><path d="M537.4731,283.1631 Q536.8921,283.4619 536.2529,283.6113 Q535.6138,283.7607 534.9082,283.7607 Q532.4014,283.7607 531.0815,282.1089 Q529.7617,280.457 529.7617,277.3359 Q529.7617,274.2065 531.0815,272.5547 Q532.4014,270.9028 534.9082,270.9028 Q535.6138,270.9028 536.2612,271.0522 Q536.9087,271.2016 537.4731,271.5005 L537.4731,274.2231 Q536.8423,273.6421 536.2488,273.3723 Q535.6553,273.1025 535.0244,273.1025 Q533.6797,273.1025 532.9949,274.1692 Q532.3101,275.2358 532.3101,277.3359 Q532.3101,279.4277 532.9949,280.4944 Q533.6797,281.561 535.0244,281.561 Q535.6553,281.561 536.2488,281.2912 Q536.8423,281.0215 537.4731,280.4404 Z " fill="#000000"/><text fill="#000000" font-family="sans-serif" font-size="12" lengthAdjust="spacing" textLength="44" x="549" y="281.5552">Schema</text><!--MD5=[fe7619d1a9d6c66cf22c9225284b0902]
link asdi::idb::query::Queryable to asdi::idb::Atom--><path codeLine="27" d="M117.47,169.02 C117.47,169.02 110.1,169.02 107.06,169.02 " fill="none" id="asdi::idb::query::Queryable-asdi::idb::Atom" style="stroke:#A80036;stroke-width:1.0;"/><polygon fill="#A80036" points="94.06,169.02,103.06,173.02,99.06,169.02,103.06,165.02,94.06,169.02" style="stroke:#A80036;stroke-width:1.0;"/><line style="stroke:#A80036;stroke-width:1.0;" x1="99.06" x2="107.06" y1="169.02" y2="169.02"/><polygon fill="#A80036" points="129.47,169.02,123.47,165.02,117.47,169.02,123.47,173.02,129.47,169.02" style="stroke:#A80036;stroke-width:1.0;"/><!--MD5=[bda1fac64ef5101ec3d8ebc6abfb2735]
link asdi::idb::query::Queryable to asdi::idb::query::View--><path codeLine="28" d="M220.76,186.74 C226.56,188.86 232.42,190.99 238,193.02 C268.65,204.17 280.43,199.1 307,218.02 C318.46,226.18 328.66,237.86 336.6,248.59 " fill="none" id="asdi::idb::query::Queryable-to-asdi::idb::query::View" style="stroke:#A80036;stroke-width:1.0;stroke-dasharray:7.0,7.0;"/><polygon fill="#A80036" points="339.64,252.81,337.5996,243.1748,336.7068,248.7608,331.1209,247.8679,339.64,252.81" style="stroke:#A80036;stroke-width:1.0;"/><!--MD5=[fdda12137b0c39eef0460bc9f9632988]
link asdi::idb::query::Query to asdi::idb::Atom--><path codeLine="30" d="M400.9873,133.1718 C400.9873,133.1718 375.31,50.16 338.5,29.02 C298.42,6 170.58,6 130.5,29.02 C90.78,51.83 74.06,105.95 67.3,139.82 " fill="none" id="asdi::idb::query::Query-asdi::idb::Atom" style="stroke:#A80036;stroke-width:1.0;"/><polygon fill="#A80036" points="64.97,152.95,70.4722,144.7814,65.8383,148.026,62.5937,143.3921,64.97,152.95" style="stroke:#A80036;stroke-width:1.0;"/><line style="stroke:#A80036;stroke-width:1.0;" x1="65.8383" x2="67.24" y1="148.026" y2="140.15"/><polygon fill="#A80036" points="403.48,144.91,406.1464,138.21,400.9873,133.1718,398.3209,139.8718,403.48,144.91" style="stroke:#A80036;stroke-width:1.0;"/><!--MD5=[b45cd48a1ce29f5809b42b7b512fe8db]
link asdi::idb::query::Query to asdi::Collection--><path codeLine="31" d="M408.23,193.11 C409.61,227.41 410.54,293.71 401,349.02 C399.19,359.5 396.13,370.62 392.89,380.69 " fill="none" id="asdi::idb::query::Query-to-asdi::Collection" style="stroke:#A80036;stroke-width:1.0;stroke-dasharray:7.0,7.0;"/><polygon fill="none" points="399.39,383.31,386.14,399.85,386.18,378.66,399.39,383.31" style="stroke:#A80036;stroke-width:1.0;"/><!--MD5=[96555ac9112c7fd07fdaeb4dc4348af9]
link asdi::idb::query::QuerySet to asdi::idb::query::Query--><path codeLine="33" d="M350.68,169.02 C350.68,169.02 357.85,169.02 360.83,169.02 " fill="none" id="asdi::idb::query::QuerySet-asdi::idb::query::Query" style="stroke:#A80036;stroke-width:1.0;"/><polygon fill="#A80036" points="373.91,169.02,364.91,165.02,368.91,169.02,364.91,173.02,373.91,169.02" style="stroke:#A80036;stroke-width:1.0;"/><line style="stroke:#A80036;stroke-width:1.0;" x1="368.91" x2="360.91" y1="169.02" y2="169.02"/><polygon fill="#A80036" points="338.68,169.02,344.68,173.02,350.68,169.02,344.68,165.02,338.68,169.02" style="stroke:#A80036;stroke-width:1.0;"/><text fill="#000000" font-family="sans-serif" font-size="13" lengthAdjust="spacing" textLength="6" x="360.0153" y="164.9817">*</text><!--MD5=[02c3f4880c3c603eae4a2e15cb041bbe]
link asdi::idb::query::Row to asdi::edb::Constant--><path codeLine="35" d="M279.2251,242.7233 C279.2251,242.7233 302.41,214.9 318.67,209.69 C348.68,200.07 572.32,200.07 602.33,209.69 C623.6,216.5 641.55,234.36 653.9,249.97 " fill="none" id="asdi::idb::query::Row-asdi::edb::Constant" style="stroke:#A80036;stroke-width:1.0;"/><polygon fill="#A80036" points="661.87,260.76,659.7376,251.1448,658.8982,256.739,653.304,255.8996,661.87,260.76" style="stroke:#A80036;stroke-width:1.0;"/><line style="stroke:#A80036;stroke-width:1.0;" x1="658.8982" x2="654.14" y1="256.739" y2="250.305"/><polygon fill="#A80036" points="272.74,252.82,279.3481,249.9333,279.2251,242.7233,272.617,245.6099,272.74,252.82" style="stroke:#A80036;stroke-width:1.0;"/><text fill="#000000" font-family="sans-serif" font-size="13" lengthAdjust="spacing" textLength="6" x="650.7788" y="250.3486">*</text><!--MD5=[1a76ed3df1719aeaf47c657b979f8421]
link asdi::idb::query::Row to asdi::Collection--><path codeLine="36" d="M272.78,301.15 C281.04,315.94 293.07,334.91 307,349.02 C311.5,353.58 313.99,353.02 319,357.02 C329.96,365.77 341.27,376.12 351.14,385.62 " fill="none" id="asdi::idb::query::Row-to-asdi::Collection" style="stroke:#A80036;stroke-width:1.0;stroke-dasharray:7.0,7.0;"/><polygon fill="none" points="356.33,380.92,365.61,399.97,346.48,390.86,356.33,380.92" style="stroke:#A80036;stroke-width:1.0;"/><!--MD5=[c56daa0a73720ff4188f983cdb61a81f]
link asdi::idb::query::Row to asdi::IndexedCollection--><path codeLine="37" d="M256.42,301.26 C252.16,322.88 245.75,355.38 240.88,380.12 " fill="none" id="asdi::idb::query::Row-to-asdi::IndexedCollection" style="stroke:#A80036;stroke-width:1.0;stroke-dasharray:7.0,7.0;"/><polygon fill="none" points="247.74,381.48,237.01,399.75,234.01,378.78,247.74,381.48" style="stroke:#A80036;stroke-width:1.0;"/><!--MD5=[ca4279113530d02d48343d8894248548]
link asdi::idb::query::View to asdi::idb::query::Row--><path codeLine="40" d="M312.45,277.02 C312.45,277.02 305.47,277.02 302.5,277.02 " fill="none" id="asdi::idb::query::View-asdi::idb::query::Row" style="stroke:#A80036;stroke-width:1.0;"/><polygon fill="#A80036" points="289.34,277.02,298.34,281.02,294.34,277.02,298.34,273.02,289.34,277.02" style="stroke:#A80036;stroke-width:1.0;"/><line style="stroke:#A80036;stroke-width:1.0;" x1="294.34" x2="302.34" y1="277.02" y2="277.02"/><polygon fill="#A80036" points="324.45,277.02,318.45,273.02,312.45,277.02,318.45,281.02,324.45,277.02" style="stroke:#A80036;stroke-width:1.0;"/><text fill="#000000" font-family="sans-serif" font-size="13" lengthAdjust="spacing" textLength="6" x="296.9791" y="272.7981">*</text><!--MD5=[69a916891174dbc8b8fc33bb73e780cb]
link asdi::idb::query::View to asdi::edb::Schema--><path codeLine="41" d="M395.88,277.02 C395.88,277.02 469.94,277.02 506.46,277.02 " fill="none" id="asdi::idb::query::View-asdi::edb::Schema" style="stroke:#A80036;stroke-width:1.0;"/><polygon fill="#A80036" points="519.91,277.02,510.91,273.02,514.91,277.02,510.91,281.02,519.91,277.02" style="stroke:#A80036;stroke-width:1.0;"/><line style="stroke:#A80036;stroke-width:1.0;" x1="514.91" x2="506.91" y1="277.02" y2="277.02"/><polygon fill="#A80036" points="383.88,277.02,389.88,281.02,395.88,277.02,389.88,273.02,383.88,277.02" style="stroke:#A80036;stroke-width:1.0;"/><!--MD5=[031acd8eb780048bcf0d1952de1d6d4e]
link asdi::idb::query::View to asdi::Collection--><path codeLine="42" d="M358.41,301.26 C362.49,322.77 368.62,355.05 373.31,379.74 " fill="none" id="asdi::idb::query::View-to-asdi::Collection" style="stroke:#A80036;stroke-width:1.0;stroke-dasharray:7.0,7.0;"/><polygon fill="none" points="380.25,378.8,377.1,399.75,366.5,381.41,380.25,378.8" style="stroke:#A80036;stroke-width:1.0;"/><!--MD5=[3470f79330a468fe60894250886744d3]
@startuml

!include options.plantuml

interface asdi::Collection
hide "asdi::Collection" members

interface asdi::IndexedCollection
hide "asdi::IndexedCollection" members

interface asdi::idb::Atom
hide "asdi::idb::Atom" members

interface asdi::edb::Constant
hide "asdi::edb::Constant" members

class asdi::edb::Schema
hide "asdi::edb::Schema" members

namespace asdi::idb::query {
    interface Queryable

    class Query
    class QuerySet
    class Row
    class View

    Queryable *-> asdi::idb::Atom
    Queryable ..> View

    Query *-> asdi::idb::Atom
    Query ..|> asdi::Collection

    QuerySet *-> "*" Query

    Row *-> "*" asdi::edb::Constant
    Row ..|> asdi::Collection
    Row ..|> asdi::IndexedCollection
  ' Row ..|> asdi::idb::query::relational::FactOps

    View *-> "*" Row
    View *-> asdi::edb::Schema
    View ..|> asdi::Collection
  ' View ..|> asdi::idb::query::relational::RelationalOps
}

@enduml

@startuml

set namespaceSeparator ::
hide enum methods
hide interface fields
hide << const >> members
hide << type >> members
hide << type >> stereotype
hide << module >> fields
hide << module >> circle

interface asdi::Collection
hide "asdi::Collection" members

interface asdi::IndexedCollection
hide "asdi::IndexedCollection" members

interface asdi::idb::Atom
hide "asdi::idb::Atom" members

interface asdi::edb::Constant
hide "asdi::edb::Constant" members

class asdi::edb::Schema
hide "asdi::edb::Schema" members

namespace asdi::idb::query {
    interface Queryable

    class Query
    class QuerySet
    class Row
    class View

    Queryable *-> asdi::idb::Atom
    Queryable ..> View

    Query *-> asdi::idb::Atom
    Query ..|> asdi::Collection

    QuerySet *-> "*" Query

    Row *-> "*" asdi::edb::Constant
    Row ..|> asdi::Collection
    Row ..|> asdi::IndexedCollection

    View *-> "*" Row
    View *-> asdi::edb::Schema
    View ..|> asdi::Collection
}

@enduml

PlantUML version 1.2022.1(Tue Feb 01 10:19:58 PST 2022)
(GPL source distribution)
Java Runtime: OpenJDK Runtime Environment
JVM: OpenJDK 64-Bit Server VM
Default Encoding: UTF-8
Language: en
Country: US
--></g></svg>