<?xml version="1.0" encoding="UTF-8" standalone="no"?><svg xmlns="http://www.w3.org/2000/svg" xmlns:xlink="http://www.w3.org/1999/xlink" contentScriptType="application/ecmascript" contentStyleType="text/css" height="563px" preserveAspectRatio="none" style="width:1407px;height:563px;background:#FFFFFF;" version="1.1" viewBox="0 0 1407 563" width="1407px" zoomAndPan="magnify"><defs><filter height="300%" id="f1nvd6x2oe6ivb" width="300%" x="-1" y="-1"><feGaussianBlur result="blurOut" stdDeviation="2.0"/><feColorMatrix in="blurOut" result="blurOut2" type="matrix" values="0 0 0 0 0 0 0 0 0 0 0 0 0 0 0 0 0 0 .4 0"/><feOffset dx="4.0" dy="4.0" in="blurOut2" result="blurOut3"/><feBlend in="SourceGraphic" in2="blurOut3" mode="normal"/></filter></defs><g><!--MD5=[e274c4916ac42ef1c11391a83d303c10]
cluster asdi--><polygon fill="#FFFFFF" filter="url(#f1nvd6x2oe6ivb)" points="1250,279.5,1286,279.5,1293,301.9883,1390,301.9883,1390,362.5,1250,362.5,1250,279.5" style="stroke:#000000;stroke-width:1.5;"/><line style="stroke:#000000;stroke-width:1.5;" x1="1250" x2="1293" y1="301.9883" y2="301.9883"/><text fill="#000000" font-family="sans-serif" font-size="14" font-weight="bold" lengthAdjust="spacing" textLength="30" x="1254" y="295.0352">asdi</text><!--MD5=[6bc3af5db4038e5494ba0622f07de59b]
cluster asdi::edb--><polygon fill="#FFFFFF" filter="url(#f1nvd6x2oe6ivb)" points="401,473,469,473,476,495.4883,773,495.4883,773,556,401,556,401,473" style="stroke:#000000;stroke-width:1.5;"/><line style="stroke:#000000;stroke-width:1.5;" x1="401" x2="476" y1="495.4883" y2="495.4883"/><text fill="#000000" font-family="sans-serif" font-size="14" font-weight="bold" lengthAdjust="spacing" textLength="62" x="405" y="488.5352">asdi::edb</text><!--MD5=[ae3c197a01158459eb2ddb806e23d6f2]
cluster asdi::idb--><polygon fill="#FFFFFF" filter="url(#f1nvd6x2oe6ivb)" points="16,473,81,473,88,495.4883,202,495.4883,202,556,16,556,16,473" style="stroke:#000000;stroke-width:1.5;"/><line style="stroke:#000000;stroke-width:1.5;" x1="16" x2="88" y1="495.4883" y2="495.4883"/><text fill="#000000" font-family="sans-serif" font-size="14" font-weight="bold" lengthAdjust="spacing" textLength="59" x="20" y="488.5352">asdi::idb</text><!--MD5=[331bdf5c2291f41e90a08533bcc43e12]
cluster asdi::idb::query--><polygon fill="#FFFFFF" filter="url(#f1nvd6x2oe6ivb)" points="32,6,143,6,150,28.4883,1200,28.4883,1200,449,32,449,32,6" style="stroke:#000000;stroke-width:1.5;"/><line style="stroke:#000000;stroke-width:1.5;" x1="32" x2="150" y1="28.4883" y2="28.4883"/><text fill="#000000" font-family="sans-serif" font-size="14" font-weight="bold" lengthAdjust="spacing" textLength="105" x="36" y="21.5352">asdi::idb::query</text><!--MD5=[eafcc76c5f5f5a3374a2a7c59499c4e6]
cluster asdi::idb::query::relational--><polygon fill="#FFFFFF" filter="url(#f1nvd6x2oe6ivb)" points="56,98,131,98,138,120.4883,1176,120.4883,1176,425,56,425,56,98" style="stroke:#000000;stroke-width:1.5;"/><line style="stroke:#000000;stroke-width:1.5;" x1="56" x2="138" y1="120.4883" y2="120.4883"/><text fill="#000000" font-family="sans-serif" font-size="14" font-weight="bold" lengthAdjust="spacing" textLength="69" x="60" y="113.5352">relational</text><!--MD5=[91cc3482fb0350396608f11633162af9]
class asdi::ProgramCore--><rect codeLine="4" fill="#FEFECE" filter="url(#f1nvd6x2oe6ivb)" height="32" id="asdi::ProgramCore" style="stroke:#A80036;stroke-width:1.5;" width="108" x="1266" y="314.5"/><ellipse cx="1281" cy="330.5" fill="#B4A7E5" rx="11" ry="11" style="stroke:#A80036;stroke-width:1.0;"/><path d="M1277.4277,326.7651 L1277.4277,324.6069 L1284.8071,324.6069 L1284.8071,326.7651 L1282.3418,326.7651 L1282.3418,334.8418 L1284.8071,334.8418 L1284.8071,337 L1277.4277,337 L1277.4277,334.8418 L1279.8931,334.8418 L1279.8931,326.7651 Z " fill="#000000"/><text fill="#000000" font-family="sans-serif" font-size="12" font-style="italic" lengthAdjust="spacing" textLength="76" x="1295" y="335.0352">ProgramCore</text><!--MD5=[20c980c506d94534efc3bc917ca7a115]
class asdi::edb::Attribute--><rect codeLine="7" fill="#FEFECE" filter="url(#f1nvd6x2oe6ivb)" height="32" id="asdi::edb::Attribute" style="stroke:#A80036;stroke-width:1.5;" width="82" x="534" y="508"/><ellipse cx="549" cy="524" fill="#B4A7E5" rx="11" ry="11" style="stroke:#A80036;stroke-width:1.0;"/><path d="M545.4277,520.2651 L545.4277,518.1069 L552.8071,518.1069 L552.8071,520.2651 L550.3418,520.2651 L550.3418,528.3418 L552.8071,528.3418 L552.8071,530.5 L545.4277,530.5 L545.4277,528.3418 L547.8931,528.3418 L547.8931,520.2651 Z " fill="#000000"/><text fill="#000000" font-family="sans-serif" font-size="12" font-style="italic" lengthAdjust="spacing" textLength="50" x="563" y="528.5352">Attribute</text><!--MD5=[58db58f43e0c0eeeb327af7bc687dbb7]
class asdi::edb::Constant--><rect codeLine="10" fill="#FEFECE" filter="url(#f1nvd6x2oe6ivb)" height="32" id="asdi::edb::Constant" style="stroke:#A80036;stroke-width:1.5;" width="82" x="417" y="508"/><ellipse cx="432" cy="524" fill="#B4A7E5" rx="11" ry="11" style="stroke:#A80036;stroke-width:1.0;"/><path d="M428.4277,520.2651 L428.4277,518.1069 L435.8071,518.1069 L435.8071,520.2651 L433.3418,520.2651 L433.3418,528.3418 L435.8071,528.3418 L435.8071,530.5 L428.4277,530.5 L428.4277,528.3418 L430.8931,528.3418 L430.8931,520.2651 Z " fill="#000000"/><text fill="#000000" font-family="sans-serif" font-size="12" font-style="italic" lengthAdjust="spacing" textLength="50" x="446" y="528.5352">Constant</text><!--MD5=[63d735a6e8116701ee198db5f4862bbe]
class asdi::edb::PredicateRef--><rect codeLine="13" fill="#FEFECE" filter="url(#f1nvd6x2oe6ivb)" height="32" id="asdi::edb::PredicateRef" style="stroke:#A80036;stroke-width:1.5;" width="105" x="651.5" y="508"/><ellipse cx="666.5" cy="524" fill="#B4A7E5" rx="11" ry="11" style="stroke:#A80036;stroke-width:1.0;"/><path d="M662.9277,520.2651 L662.9277,518.1069 L670.3071,518.1069 L670.3071,520.2651 L667.8418,520.2651 L667.8418,528.3418 L670.3071,528.3418 L670.3071,530.5 L662.9277,530.5 L662.9277,528.3418 L665.3931,528.3418 L665.3931,520.2651 Z " fill="#000000"/><text fill="#000000" font-family="sans-serif" font-size="12" font-style="italic" lengthAdjust="spacing" textLength="73" x="680.5" y="528.5352">PredicateRef</text><!--MD5=[d7ed71e2888dff8f76393f08027596df]
class asdi::idb::ComparisonOperator--><rect codeLine="16" fill="#FEFECE" filter="url(#f1nvd6x2oe6ivb)" height="32" id="asdi::idb::ComparisonOperator" style="stroke:#A80036;stroke-width:1.5;" width="153" x="32.5" y="508"/><ellipse cx="47.5" cy="524" fill="#EB937F" rx="11" ry="11" style="stroke:#A80036;stroke-width:1.0;"/><path d="M51.1143,530.5 L43.3945,530.5 L43.3945,518.1069 L51.1143,518.1069 L51.1143,520.2651 L45.8433,520.2651 L45.8433,522.938 L50.6162,522.938 L50.6162,525.0962 L45.8433,525.0962 L45.8433,528.3418 L51.1143,528.3418 Z " fill="#000000"/><text fill="#000000" font-family="sans-serif" font-size="12" lengthAdjust="spacing" textLength="121" x="61.5" y="528.5352">ComparisonOperator</text><!--MD5=[7e8d97ac1a083739443b45fa6a2a74f0]
class asdi::idb::query::Row--><rect codeLine="19" fill="#FEFECE" filter="url(#f1nvd6x2oe6ivb)" height="32" id="asdi::idb::query::Row" style="stroke:#A80036;stroke-width:1.5;" width="56" x="413" y="41"/><ellipse cx="428" cy="57" fill="#B4A7E5" rx="11" ry="11" style="stroke:#A80036;stroke-width:1.0;"/><path d="M424.4277,53.2651 L424.4277,51.1069 L431.8071,51.1069 L431.8071,53.2651 L429.3418,53.2651 L429.3418,61.3418 L431.8071,61.3418 L431.8071,63.5 L424.4277,63.5 L424.4277,61.3418 L426.8931,61.3418 L426.8931,53.2651 Z " fill="#000000"/><text fill="#000000" font-family="sans-serif" font-size="12" font-style="italic" lengthAdjust="spacing" textLength="24" x="442" y="61.5352">Row</text><!--MD5=[17ff6db730189734784f7494d7fbb9fe]
class asdi::idb::query::View--><rect codeLine="22" fill="#FEFECE" filter="url(#f1nvd6x2oe6ivb)" height="32" id="asdi::idb::query::View" style="stroke:#A80036;stroke-width:1.5;" width="59" x="192.5" y="41"/><ellipse cx="207.5" cy="57" fill="#B4A7E5" rx="11" ry="11" style="stroke:#A80036;stroke-width:1.0;"/><path d="M203.9277,53.2651 L203.9277,51.1069 L211.3071,51.1069 L211.3071,53.2651 L208.8418,53.2651 L208.8418,61.3418 L211.3071,61.3418 L211.3071,63.5 L203.9277,63.5 L203.9277,61.3418 L206.3931,61.3418 L206.3931,53.2651 Z " fill="#000000"/><text fill="#000000" font-family="sans-serif" font-size="12" font-style="italic" lengthAdjust="spacing" textLength="27" x="221.5" y="61.5352">View</text><!--MD5=[30bb03e1b2dc97ff10dfe8ea43b681ff]
class asdi::idb::query::relational::FactOps--><rect codeLine="26" fill="#FEFECE" filter="url(#f1nvd6x2oe6ivb)" height="40" id="asdi::idb::query::relational::FactOps" style="stroke:#A80036;stroke-width:1.5;" width="78" x="402" y="142.5"/><ellipse cx="417" cy="158.5" fill="#B4A7E5" rx="11" ry="11" style="stroke:#A80036;stroke-width:1.0;"/><path d="M413.4277,154.7651 L413.4277,152.6069 L420.8071,152.6069 L420.8071,154.7651 L418.3418,154.7651 L418.3418,162.8418 L420.8071,162.8418 L420.8071,165 L413.4277,165 L413.4277,162.8418 L415.8931,162.8418 L415.8931,154.7651 Z " fill="#000000"/><text fill="#000000" font-family="sans-serif" font-size="12" font-style="italic" lengthAdjust="spacing" textLength="46" x="431" y="163.0352">FactOps</text><line style="stroke:#A80036;stroke-width:1.5;" x1="403" x2="479" y1="174.5" y2="174.5"/><!--MD5=[1886ff381590854148a50526c696ec44]
class asdi::idb::query::relational::RelationalOps--><rect codeLine="27" fill="#FEFECE" filter="url(#f1nvd6x2oe6ivb)" height="40" id="asdi::idb::query::relational::RelationalOps" style="stroke:#A80036;stroke-width:1.5;" width="111" x="166.5" y="142.5"/><ellipse cx="181.5" cy="158.5" fill="#B4A7E5" rx="11" ry="11" style="stroke:#A80036;stroke-width:1.0;"/><path d="M177.9277,154.7651 L177.9277,152.6069 L185.3071,152.6069 L185.3071,154.7651 L182.8418,154.7651 L182.8418,162.8418 L185.3071,162.8418 L185.3071,165 L177.9277,165 L177.9277,162.8418 L180.3931,162.8418 L180.3931,154.7651 Z " fill="#000000"/><text fill="#000000" font-family="sans-serif" font-size="12" font-style="italic" lengthAdjust="spacing" textLength="79" x="195.5" y="163.0352">RelationalOps</text><line style="stroke:#A80036;stroke-width:1.5;" x1="167.5" x2="276.5" y1="174.5" y2="174.5"/><!--MD5=[26f0ef09b5569dc3684aa789736e7c2b]
class asdi::idb::query::relational::RelationSource--><rect codeLine="29" fill="#FEFECE" filter="url(#f1nvd6x2oe6ivb)" height="48" id="asdi::idb::query::relational::RelationSource" style="stroke:#A80036;stroke-width:1.5;" width="116" x="833" y="138.5"/><ellipse cx="848" cy="154.5" fill="#ADD1B2" rx="11" ry="11" style="stroke:#A80036;stroke-width:1.0;"/><path d="M850.4731,160.6431 Q849.8921,160.9419 849.2529,161.0913 Q848.6138,161.2407 847.9082,161.2407 Q845.4014,161.2407 844.0815,159.5889 Q842.7617,157.937 842.7617,154.8159 Q842.7617,151.6865 844.0815,150.0347 Q845.4014,148.3828 847.9082,148.3828 Q848.6138,148.3828 849.2612,148.5322 Q849.9087,148.6816 850.4731,148.9805 L850.4731,151.7031 Q849.8423,151.1221 849.2488,150.8523 Q848.6553,150.5825 848.0244,150.5825 Q846.6797,150.5825 845.9949,151.6492 Q845.3101,152.7158 845.3101,154.8159 Q845.3101,156.9077 845.9949,157.9744 Q846.6797,159.041 848.0244,159.041 Q848.6553,159.041 849.2488,158.7712 Q849.8423,158.5015 850.4731,157.9204 Z " fill="#000000"/><text fill="#000000" font-family="sans-serif" font-size="12" lengthAdjust="spacing" textLength="84" x="862" y="159.0352">RelationSource</text><line style="stroke:#A80036;stroke-width:1.5;" x1="834" x2="948" y1="170.5" y2="170.5"/><line style="stroke:#A80036;stroke-width:1.5;" x1="834" x2="948" y1="178.5" y2="178.5"/><!--MD5=[61537be010f364292396788bacf83bf3]
class asdi::idb::query::relational::SetOperation--><rect codeLine="30" fill="#FEFECE" filter="url(#f1nvd6x2oe6ivb)" height="48" id="asdi::idb::query::relational::SetOperation" style="stroke:#A80036;stroke-width:1.5;" width="106" x="835" y="306.5"/><ellipse cx="850" cy="322.5" fill="#ADD1B2" rx="11" ry="11" style="stroke:#A80036;stroke-width:1.0;"/><path d="M852.4731,328.6431 Q851.8921,328.9419 851.2529,329.0913 Q850.6138,329.2407 849.9082,329.2407 Q847.4014,329.2407 846.0815,327.5889 Q844.7617,325.937 844.7617,322.8159 Q844.7617,319.6865 846.0815,318.0347 Q847.4014,316.3828 849.9082,316.3828 Q850.6138,316.3828 851.2612,316.5322 Q851.9087,316.6816 852.4731,316.9805 L852.4731,319.7031 Q851.8423,319.1221 851.2488,318.8523 Q850.6553,318.5825 850.0244,318.5825 Q848.6797,318.5825 847.9949,319.6492 Q847.3101,320.7158 847.3101,322.8159 Q847.3101,324.9077 847.9949,325.9744 Q848.6797,327.041 850.0244,327.041 Q850.6553,327.041 851.2488,326.7712 Q851.8423,326.5015 852.4731,325.9204 Z " fill="#000000"/><text fill="#000000" font-family="sans-serif" font-size="12" lengthAdjust="spacing" textLength="74" x="864" y="327.0352">SetOperation</text><line style="stroke:#A80036;stroke-width:1.5;" x1="836" x2="940" y1="338.5" y2="338.5"/><line style="stroke:#A80036;stroke-width:1.5;" x1="836" x2="940" y1="346.5" y2="346.5"/><!--MD5=[2cc88c4d6a96a23c1ce26cb4368a7510]
class asdi::idb::query::relational::Selection--><rect codeLine="31" fill="#FEFECE" filter="url(#f1nvd6x2oe6ivb)" height="48" id="asdi::idb::query::relational::Selection" style="stroke:#A80036;stroke-width:1.5;" width="82" x="181" y="306.5"/><ellipse cx="196" cy="322.5" fill="#ADD1B2" rx="11" ry="11" style="stroke:#A80036;stroke-width:1.0;"/><path d="M198.4731,328.6431 Q197.8921,328.9419 197.2529,329.0913 Q196.6138,329.2407 195.9082,329.2407 Q193.4014,329.2407 192.0815,327.5889 Q190.7617,325.937 190.7617,322.8159 Q190.7617,319.6865 192.0815,318.0347 Q193.4014,316.3828 195.9082,316.3828 Q196.6138,316.3828 197.2612,316.5322 Q197.9087,316.6816 198.4731,316.9805 L198.4731,319.7031 Q197.8423,319.1221 197.2488,318.8523 Q196.6553,318.5825 196.0244,318.5825 Q194.6797,318.5825 193.9949,319.6492 Q193.3101,320.7158 193.3101,322.8159 Q193.3101,324.9077 193.9949,325.9744 Q194.6797,327.041 196.0244,327.041 Q196.6553,327.041 197.2488,326.7712 Q197.8423,326.5015 198.4731,325.9204 Z " fill="#000000"/><text fill="#000000" font-family="sans-serif" font-size="12" lengthAdjust="spacing" textLength="50" x="210" y="327.0352">Selection</text><line style="stroke:#A80036;stroke-width:1.5;" x1="182" x2="262" y1="338.5" y2="338.5"/><line style="stroke:#A80036;stroke-width:1.5;" x1="182" x2="262" y1="346.5" y2="346.5"/><!--MD5=[4ad8a1ad1a5e0668703ed600e48e24a6]
class asdi::idb::query::relational::Projection--><rect codeLine="32" fill="#FEFECE" filter="url(#f1nvd6x2oe6ivb)" height="48" id="asdi::idb::query::relational::Projection" style="stroke:#A80036;stroke-width:1.5;" width="89" x="486.5" y="306.5"/><ellipse cx="501.5" cy="322.5" fill="#ADD1B2" rx="11" ry="11" style="stroke:#A80036;stroke-width:1.0;"/><path d="M503.9731,328.6431 Q503.3921,328.9419 502.7529,329.0913 Q502.1138,329.2407 501.4082,329.2407 Q498.9014,329.2407 497.5815,327.5889 Q496.2617,325.937 496.2617,322.8159 Q496.2617,319.6865 497.5815,318.0347 Q498.9014,316.3828 501.4082,316.3828 Q502.1138,316.3828 502.7612,316.5322 Q503.4087,316.6816 503.9731,316.9805 L503.9731,319.7031 Q503.3423,319.1221 502.7488,318.8523 Q502.1553,318.5825 501.5244,318.5825 Q500.1797,318.5825 499.4949,319.6492 Q498.8101,320.7158 498.8101,322.8159 Q498.8101,324.9077 499.4949,325.9744 Q500.1797,327.041 501.5244,327.041 Q502.1553,327.041 502.7488,326.7712 Q503.3423,326.5015 503.9731,325.9204 Z " fill="#000000"/><text fill="#000000" font-family="sans-serif" font-size="12" lengthAdjust="spacing" textLength="57" x="515.5" y="327.0352">Projection</text><line style="stroke:#A80036;stroke-width:1.5;" x1="487.5" x2="574.5" y1="338.5" y2="338.5"/><line style="stroke:#A80036;stroke-width:1.5;" x1="487.5" x2="574.5" y1="346.5" y2="346.5"/><!--MD5=[650f41e5608105f68b0ee8762084edef]
class asdi::idb::query::relational::Join--><rect codeLine="33" fill="#FEFECE" filter="url(#f1nvd6x2oe6ivb)" height="48" id="asdi::idb::query::relational::Join" style="stroke:#A80036;stroke-width:1.5;" width="53" x="610.5" y="306.5"/><ellipse cx="625.5" cy="322.5" fill="#ADD1B2" rx="11" ry="11" style="stroke:#A80036;stroke-width:1.0;"/><path d="M627.9731,328.6431 Q627.3921,328.9419 626.7529,329.0913 Q626.1138,329.2407 625.4082,329.2407 Q622.9014,329.2407 621.5815,327.5889 Q620.2617,325.937 620.2617,322.8159 Q620.2617,319.6865 621.5815,318.0347 Q622.9014,316.3828 625.4082,316.3828 Q626.1138,316.3828 626.7612,316.5322 Q627.4087,316.6816 627.9731,316.9805 L627.9731,319.7031 Q627.3423,319.1221 626.7488,318.8523 Q626.1553,318.5825 625.5244,318.5825 Q624.1797,318.5825 623.4949,319.6492 Q622.8101,320.7158 622.8101,322.8159 Q622.8101,324.9077 623.4949,325.9744 Q624.1797,327.041 625.5244,327.041 Q626.1553,327.041 626.7488,326.7712 Q627.3423,326.5015 627.9731,325.9204 Z " fill="#000000"/><text fill="#000000" font-family="sans-serif" font-size="12" lengthAdjust="spacing" textLength="21" x="639.5" y="327.0352">Join</text><line style="stroke:#A80036;stroke-width:1.5;" x1="611.5" x2="662.5" y1="338.5" y2="338.5"/><line style="stroke:#A80036;stroke-width:1.5;" x1="611.5" x2="662.5" y1="346.5" y2="346.5"/><!--MD5=[cac767197388948668a0b50118075157]
class asdi::idb::query::relational::RelationSink--><rect codeLine="34" fill="#FEFECE" filter="url(#f1nvd6x2oe6ivb)" height="48" id="asdi::idb::query::relational::RelationSink" style="stroke:#A80036;stroke-width:1.5;" width="101" x="698.5" y="306.5"/><ellipse cx="713.5" cy="322.5" fill="#ADD1B2" rx="11" ry="11" style="stroke:#A80036;stroke-width:1.0;"/><path d="M715.9731,328.6431 Q715.3921,328.9419 714.7529,329.0913 Q714.1138,329.2407 713.4082,329.2407 Q710.9014,329.2407 709.5815,327.5889 Q708.2617,325.937 708.2617,322.8159 Q708.2617,319.6865 709.5815,318.0347 Q710.9014,316.3828 713.4082,316.3828 Q714.1138,316.3828 714.7612,316.5322 Q715.4087,316.6816 715.9731,316.9805 L715.9731,319.7031 Q715.3423,319.1221 714.7488,318.8523 Q714.1553,318.5825 713.5244,318.5825 Q712.1797,318.5825 711.4949,319.6492 Q710.8101,320.7158 710.8101,322.8159 Q710.8101,324.9077 711.4949,325.9744 Q712.1797,327.041 713.5244,327.041 Q714.1553,327.041 714.7488,326.7712 Q715.3423,326.5015 715.9731,325.9204 Z " fill="#000000"/><text fill="#000000" font-family="sans-serif" font-size="12" lengthAdjust="spacing" textLength="69" x="727.5" y="327.0352">RelationSink</text><line style="stroke:#A80036;stroke-width:1.5;" x1="699.5" x2="798.5" y1="338.5" y2="338.5"/><line style="stroke:#A80036;stroke-width:1.5;" x1="699.5" x2="798.5" y1="346.5" y2="346.5"/><!--MD5=[48f51781b109f4c1cf36d761bad7dc1a]
class asdi::idb::query::relational::Criteria--><rect codeLine="36" fill="#FEFECE" filter="url(#f1nvd6x2oe6ivb)" height="48" id="asdi::idb::query::relational::Criteria" style="stroke:#A80036;stroke-width:1.5;" width="74" x="72" y="306.5"/><ellipse cx="87" cy="322.5" fill="#ADD1B2" rx="11" ry="11" style="stroke:#A80036;stroke-width:1.0;"/><path d="M89.4731,328.6431 Q88.8921,328.9419 88.2529,329.0913 Q87.6138,329.2407 86.9082,329.2407 Q84.4014,329.2407 83.0815,327.5889 Q81.7617,325.937 81.7617,322.8159 Q81.7617,319.6865 83.0815,318.0347 Q84.4014,316.3828 86.9082,316.3828 Q87.6138,316.3828 88.2612,316.5322 Q88.9087,316.6816 89.4731,316.9805 L89.4731,319.7031 Q88.8423,319.1221 88.2488,318.8523 Q87.6553,318.5825 87.0244,318.5825 Q85.6797,318.5825 84.9949,319.6492 Q84.3101,320.7158 84.3101,322.8159 Q84.3101,324.9077 84.9949,325.9744 Q85.6797,327.041 87.0244,327.041 Q87.6553,327.041 88.2488,326.7712 Q88.8423,326.5015 89.4731,325.9204 Z " fill="#000000"/><text fill="#000000" font-family="sans-serif" font-size="12" lengthAdjust="spacing" textLength="42" x="101" y="327.0352">Criteria</text><line style="stroke:#A80036;stroke-width:1.5;" x1="73" x2="145" y1="338.5" y2="338.5"/><line style="stroke:#A80036;stroke-width:1.5;" x1="73" x2="145" y1="346.5" y2="346.5"/><!--MD5=[c9677e091929cd1b44cd037047e77ec6]
class asdi::idb::query::relational::CriteriaValue--><rect codeLine="37" fill="#FEFECE" filter="url(#f1nvd6x2oe6ivb)" height="65.9102" id="asdi::idb::query::relational::CriteriaValue" style="stroke:#A80036;stroke-width:1.5;" width="153" x="298.5" y="297.5"/><ellipse cx="334.65" cy="313.5" fill="#EB937F" rx="11" ry="11" style="stroke:#A80036;stroke-width:1.0;"/><path d="M338.2643,320 L330.5445,320 L330.5445,307.6069 L338.2643,307.6069 L338.2643,309.7651 L332.9933,309.7651 L332.9933,312.438 L337.7662,312.438 L337.7662,314.5962 L332.9933,314.5962 L332.9933,317.8418 L338.2643,317.8418 Z " fill="#000000"/><text fill="#000000" font-family="sans-serif" font-size="12" lengthAdjust="spacing" textLength="74" x="353.35" y="318.0352">CriteriaValue</text><line style="stroke:#A80036;stroke-width:1.5;" x1="299.5" x2="450.5" y1="329.5" y2="329.5"/><text fill="#000000" font-family="sans-serif" font-size="11" lengthAdjust="spacing" textLength="141" x="304.5" y="344.1348">Value : asdi::edb::Constant</text><text fill="#000000" font-family="sans-serif" font-size="11" lengthAdjust="spacing" textLength="67" x="304.5" y="357.0898">Index : usize</text><!--MD5=[fcd16ebf8cd45ed7c9be02368973cd0a]
class asdi::idb::query::relational::RelationalOp--><rect codeLine="42" fill="#FEFECE" filter="url(#f1nvd6x2oe6ivb)" height="156.5957" id="asdi::idb::query::relational::RelationalOp" style="stroke:#A80036;stroke-width:1.5;" width="184" x="976" y="252"/><ellipse cx="1027.25" cy="268" fill="#EB937F" rx="11" ry="11" style="stroke:#A80036;stroke-width:1.0;"/><path d="M1030.8643,274.5 L1023.1445,274.5 L1023.1445,262.1069 L1030.8643,262.1069 L1030.8643,264.2651 L1025.5933,264.2651 L1025.5933,266.938 L1030.3662,266.938 L1030.3662,269.0962 L1025.5933,269.0962 L1025.5933,272.3418 L1030.8643,272.3418 Z " fill="#000000"/><text fill="#000000" font-family="sans-serif" font-size="12" lengthAdjust="spacing" textLength="73" x="1047.75" y="272.5352">RelationalOp</text><line style="stroke:#A80036;stroke-width:1.5;" x1="977" x2="1159" y1="284" y2="284"/><text fill="#000000" font-family="sans-serif" font-size="11" lengthAdjust="spacing" textLength="132" x="982" y="298.6348">Relation : RelationSource</text><text fill="#000000" font-family="sans-serif" font-size="11" lengthAdjust="spacing" textLength="111" x="982" y="311.5898">Union : SetOperation</text><text fill="#000000" font-family="sans-serif" font-size="11" lengthAdjust="spacing" textLength="143" x="982" y="324.5449">Intersection : SetOperation</text><text fill="#000000" font-family="sans-serif" font-size="11" lengthAdjust="spacing" textLength="126" x="982" y="337.5">Different : SetOperation</text><text fill="#000000" font-family="sans-serif" font-size="11" lengthAdjust="spacing" textLength="172" x="982" y="350.4551">CartesianProduct : SetOperation</text><text fill="#000000" font-family="sans-serif" font-size="11" lengthAdjust="spacing" textLength="105" x="982" y="363.4102">Selection : Selection</text><text fill="#000000" font-family="sans-serif" font-size="11" lengthAdjust="spacing" textLength="117" x="982" y="376.3652">Projection : Projection</text><text fill="#000000" font-family="sans-serif" font-size="11" lengthAdjust="spacing" textLength="49" x="982" y="389.3203">Join : Join</text><text fill="#000000" font-family="sans-serif" font-size="11" lengthAdjust="spacing" textLength="96" x="982" y="402.2754">Sink : RelationSink</text><!--MD5=[41614bd79e1e3dc51fe6362cb55f71aa]
class asdi::idb::query::relational::relational--><rect codeLine="85" fill="#FEFECE" filter="url(#f1nvd6x2oe6ivb)" height="59.2207" id="asdi::idb::query::relational::relational" style="stroke:#A80036;stroke-width:1.5;" width="175" x="984.5" y="133"/><text fill="#000000" font-family="sans-serif" font-size="12" font-style="italic" lengthAdjust="spacing" textLength="55" x="1044.5" y="149.6016">«module»</text><text fill="#000000" font-family="sans-serif" font-size="12" lengthAdjust="spacing" textLength="53" x="1045.5" y="163.7344">relational</text><line style="stroke:#A80036;stroke-width:1.5;" x1="985.5" x2="1158.5" y1="171.2656" y2="171.2656"/><text fill="#000000" font-family="sans-serif" font-size="11" lengthAdjust="spacing" textLength="163" x="990.5" y="185.9004">program_to_graphviz(): String</text><!--MD5=[b149ebd95221f12f0f7af40ae03b7155]
link asdi::idb::query::relational::RelationSource to asdi::edb::PredicateRef--><path codeLine="54" d="M960.6631,189.8648 C960.6631,189.8648 965.29,191.44 967,192 C1059.61,222.48 1119.24,174.2 1178,252 C1232.91,324.7 1237.82,388.28 1178,457 C1125.87,516.89 887.36,524.14 769.83,523.97 " fill="none" id="asdi::idb::query::relational::RelationSource-asdi::edb::PredicateRef" style="stroke:#A80036;stroke-width:1.0;"/><polygon fill="#A80036" points="756.8,523.92,765.7868,527.9496,761.8,523.9365,765.8131,519.9497,756.8,523.92" style="stroke:#A80036;stroke-width:1.0;"/><line style="stroke:#A80036;stroke-width:1.0;" x1="761.8" x2="769.805" y1="523.9365" y2="523.97"/><polygon fill="none" points="949.33,185.92,953.6816,191.6701,960.6631,189.8648,956.3115,184.1147,949.33,185.92" style="stroke:#A80036;stroke-width:1.0;"/><!--MD5=[5af7d178a928081f00cd084da0131311]
link asdi::idb::query::relational::SetOperation to asdi::idb::query::relational::RelationalOp--><path codeLine="56" d="M952.9817,347.0784 C952.9817,347.0784 959.75,347.78 962.57,347.97 " fill="none" id="asdi::idb::query::relational::SetOperation-asdi::idb::query::relational::RelationalOp" style="stroke:#A80036;stroke-width:1.0;"/><polygon fill="#A80036" points="975.79,348.49,966.9552,344.1374,970.7939,348.2924,966.6389,352.1311,975.79,348.49" style="stroke:#A80036;stroke-width:1.0;"/><line style="stroke:#A80036;stroke-width:1.0;" x1="970.7939" x2="962.8" y1="348.2924" y2="347.98"/><polygon fill="#A80036" points="941.09,345.47,946.4997,350.2381,952.9817,347.0784,947.572,342.3103,941.09,345.47" style="stroke:#A80036;stroke-width:1.0;"/><!--MD5=[5af7d178a928081f00cd084da0131311]
link asdi::idb::query::relational::SetOperation to asdi::idb::query::relational::RelationalOp--><path codeLine="57" d="M952.9817,313.9216 C952.9817,313.9216 959.75,313.22 962.57,313.03 " fill="none" id="asdi::idb::query::relational::SetOperation-asdi::idb::query::relational::RelationalOp-1" style="stroke:#A80036;stroke-width:1.0;"/><polygon fill="#A80036" points="975.79,312.51,966.6389,308.8689,970.7939,312.7076,966.9552,316.8626,975.79,312.51" style="stroke:#A80036;stroke-width:1.0;"/><line style="stroke:#A80036;stroke-width:1.0;" x1="970.7939" x2="962.8" y1="312.7076" y2="313.02"/><polygon fill="#A80036" points="941.09,315.53,947.572,318.6897,952.9817,313.9216,946.4997,310.7619,941.09,315.53" style="stroke:#A80036;stroke-width:1.0;"/><!--MD5=[bb155a233a915e879576390bfaba4ed1]
link asdi::idb::query::relational::CriteriaValue to asdi::edb::Constant--><path codeLine="59" d="M393.6631,374.5599 C393.6631,374.5599 432.6,464.39 446.15,495.66 " fill="none" id="asdi::idb::query::relational::CriteriaValue-asdi::edb::Constant" style="stroke:#A80036;stroke-width:1.0;"/><polygon fill="#A80036" points="451.37,507.71,451.4601,497.8616,449.3812,503.1226,444.1202,501.0436,451.37,507.71" style="stroke:#A80036;stroke-width:1.0;"/><line style="stroke:#A80036;stroke-width:1.0;" x1="449.3812" x2="446.205" y1="503.1226" y2="495.78"/><polygon fill="none" points="388.89,363.55,387.6066,370.646,393.6631,374.5599,394.9465,367.4639,388.89,363.55" style="stroke:#A80036;stroke-width:1.0;"/><!--MD5=[8822d909611bb8073e3ee09e541cf007]
link asdi::idb::query::relational::Criteria to asdi::idb::query::relational::CriteriaValue--><path codeLine="60" d="M121.6901,295.205 C121.6901,295.205 152.3,237.19 180.5,222 C212.59,204.72 228.7,208.36 262.5,222 C295.16,235.18 323.62,262.89 343.74,287 " fill="none" id="asdi::idb::query::relational::Criteria-asdi::idb::query::relational::CriteriaValue" style="stroke:#A80036;stroke-width:1.0;"/><polygon fill="#A80036" points="352.12,297.41,349.6049,287.8877,348.9898,293.511,343.3665,292.896,352.12,297.41" style="stroke:#A80036;stroke-width:1.0;"/><line style="stroke:#A80036;stroke-width:1.0;" x1="348.9898" x2="343.97" y1="293.511" y2="287.28"/><polygon fill="#A80036" points="117.07,306.28,123.0717,302.2825,121.6901,295.205,115.6884,299.2025,117.07,306.28" style="stroke:#A80036;stroke-width:1.0;"/><!--MD5=[ee1bc98f446527dccb9006fe06e269a9]
link asdi::idb::query::relational::Criteria to asdi::idb::ComparisonOperator--><path codeLine="61" d="M109,366.6 C109,366.6 109,460.75 109,494.46 " fill="none" id="asdi::idb::query::relational::Criteria-asdi::idb::ComparisonOperator" style="stroke:#A80036;stroke-width:1.0;"/><polygon fill="#A80036" points="109,507.81,113,498.81,109,502.81,105,498.81,109,507.81" style="stroke:#A80036;stroke-width:1.0;"/><line style="stroke:#A80036;stroke-width:1.0;" x1="109" x2="109" y1="502.81" y2="494.81"/><polygon fill="#A80036" points="109,354.6,105,360.6,109,366.6,113,360.6,109,354.6" style="stroke:#A80036;stroke-width:1.0;"/><!--MD5=[92fa2e32e826e01a3dd5ed2104269db3]
link asdi::idb::query::relational::Join to asdi::idb::query::relational::RelationalOp--><path codeLine="63" d="M646.8419,295.0184 C646.8419,295.0184 669.74,245.17 692.67,232 C741.74,203.81 894.02,213 947.33,232 C956.83,235.38 966.11,239.87 975.05,245.06 " fill="none" id="asdi::idb::query::relational::Join-asdi::idb::query::relational::RelationalOp" style="stroke:#A80036;stroke-width:1.0;"/><polygon fill="#A80036" points="986.18,251.99,980.6566,243.8357,981.9363,249.3459,976.4261,250.6256,986.18,251.99" style="stroke:#A80036;stroke-width:1.0;"/><line style="stroke:#A80036;stroke-width:1.0;" x1="981.9363" x2="975.145" y1="249.3459" y2="245.12"/><polygon fill="#A80036" points="642.98,306.38,648.6981,301.9865,646.8419,295.0184,641.1237,299.4119,642.98,306.38" style="stroke:#A80036;stroke-width:1.0;"/><!--MD5=[92fa2e32e826e01a3dd5ed2104269db3]
link asdi::idb::query::relational::Join to asdi::idb::query::relational::RelationalOp--><path codeLine="64" d="M646.5201,294.7154 C646.5201,294.7154 674.22,229.3 704.33,212 C748.91,186.4 887.65,193.64 935.67,212 C954.57,219.23 972.48,230.54 988.66,243.36 " fill="none" id="asdi::idb::query::relational::Join-asdi::idb::query::relational::RelationalOp-1" style="stroke:#A80036;stroke-width:1.0;"/><polygon fill="#A80036" points="999.04,251.98,994.6693,243.1541,995.1926,248.7867,989.56,249.3099,999.04,251.98" style="stroke:#A80036;stroke-width:1.0;"/><line style="stroke:#A80036;stroke-width:1.0;" x1="995.1926" x2="989.035" y1="248.7867" y2="243.67"/><polygon fill="#A80036" points="642.88,306.15,648.5116,301.6461,646.5201,294.7154,640.8885,299.2193,642.88,306.15" style="stroke:#A80036;stroke-width:1.0;"/><!--MD5=[85ea4e0bfc34bb287c145dfe0df8a5bc]
link asdi::idb::query::relational::Join to asdi::idb::query::relational::Criteria--><path codeLine="65" d="M627.3686,294.9349 C627.3686,294.9349 602.04,237.24 575.5,222 C537.44,200.14 219.14,201.19 180.5,222 C152.3,237.19 133.38,268.92 122.13,294.16 " fill="none" id="asdi::idb::query::relational::Join-asdi::idb::query::relational::Criteria" style="stroke:#A80036;stroke-width:1.0;"/><polygon fill="#A80036" points="117.07,306.28,124.2267,299.5138,118.995,301.6654,116.8434,296.4337,117.07,306.28" style="stroke:#A80036;stroke-width:1.0;"/><line style="stroke:#A80036;stroke-width:1.0;" x1="118.995" x2="122.075" y1="301.6654" y2="294.28"/><polygon fill="#A80036" points="631.1,306.34,633.036,299.3936,627.3686,294.9349,625.4326,301.8812,631.1,306.34" style="stroke:#A80036;stroke-width:1.0;"/><text fill="#000000" font-family="sans-serif" font-size="13" lengthAdjust="spacing" textLength="6" x="112.3692" y="295.7599">*</text><!--MD5=[4c941b465e5faeb007211a2b065720c1]
link asdi::idb::query::relational::Projection to asdi::idb::query::relational::RelationalOp--><path codeLine="67" d="M545.9843,295.4018 C545.9843,295.4018 580.79,237.06 610.5,222 C676.11,188.74 872.52,196.47 941.5,222 C955.92,227.34 969.8,235.13 982.74,244.13 " fill="none" id="asdi::idb::query::relational::Projection-asdi::idb::query::relational::RelationalOp" style="stroke:#A80036;stroke-width:1.0;"/><polygon fill="#A80036" points="993.39,251.95,988.5013,243.4001,989.3592,248.9915,983.7678,249.8494,993.39,251.95" style="stroke:#A80036;stroke-width:1.0;"/><line style="stroke:#A80036;stroke-width:1.0;" x1="989.3592" x2="982.91" y1="248.9915" y2="244.255"/><polygon fill="#A80036" points="540.75,306.2,546.9666,302.5457,545.9843,295.4018,539.7677,299.0561,540.75,306.2" style="stroke:#A80036;stroke-width:1.0;"/><!--MD5=[fc0fe8b024ba00c88f12f200a200a282]
link asdi::idb::query::relational::Projection to asdi::edb::Attribute--><path codeLine="68" d="M538.9996,366.2947 C538.9996,366.2947 560.76,461.02 568.53,494.85 " fill="none" id="asdi::idb::query::relational::Projection-asdi::edb::Attribute" style="stroke:#A80036;stroke-width:1.0;"/><polygon fill="#A80036" points="571.51,507.81,573.391,498.1424,570.3893,502.9372,565.5945,499.9355,571.51,507.81" style="stroke:#A80036;stroke-width:1.0;"/><line style="stroke:#A80036;stroke-width:1.0;" x1="570.3893" x2="568.595" y1="502.9372" y2="495.14"/><polygon fill="#A80036" points="536.31,354.6,533.7566,361.3439,538.9996,366.2947,541.5531,359.5508,536.31,354.6" style="stroke:#A80036;stroke-width:1.0;"/><text fill="#000000" font-family="sans-serif" font-size="13" lengthAdjust="spacing" textLength="71" x="487.2081" y="497.2389">attributes *</text><!--MD5=[2b1ab3e63f4cc732e6c2e72749bb5dc6]
link asdi::idb::query::relational::Selection to asdi::idb::query::relational::RelationalOp--><path codeLine="70" d="M236.1303,295.326 C236.1303,295.326 269.44,237.07 298.5,222 C361.93,189.11 874.5,197.2 941.5,222 C955.92,227.34 969.8,235.13 982.74,244.13 " fill="none" id="asdi::idb::query::relational::Selection-asdi::idb::query::relational::RelationalOp" style="stroke:#A80036;stroke-width:1.0;"/><polygon fill="#A80036" points="993.39,251.95,988.5013,243.4001,989.3592,248.9915,983.7678,249.8494,993.39,251.95" style="stroke:#A80036;stroke-width:1.0;"/><line style="stroke:#A80036;stroke-width:1.0;" x1="989.3592" x2="982.91" y1="248.9915" y2="244.255"/><polygon fill="#A80036" points="231.12,306.23,237.2598,302.4481,236.1303,295.326,229.9905,299.1079,231.12,306.23" style="stroke:#A80036;stroke-width:1.0;"/><!--MD5=[97e2d803ffbd594876f5f7399f0985cf]
link asdi::idb::query::relational::Selection to asdi::idb::query::relational::Criteria--><path codeLine="71" d="M168.78,330.5 C168.78,330.5 161.91,330.5 159.09,330.5 " fill="none" id="asdi::idb::query::relational::Selection-asdi::idb::query::relational::Criteria" style="stroke:#A80036;stroke-width:1.0;"/><polygon fill="#A80036" points="146.08,330.5,155.08,334.5,151.08,330.5,155.08,326.5,146.08,330.5" style="stroke:#A80036;stroke-width:1.0;"/><line style="stroke:#A80036;stroke-width:1.0;" x1="151.08" x2="159.08" y1="330.5" y2="330.5"/><polygon fill="#A80036" points="180.78,330.5,174.78,326.5,168.78,330.5,174.78,334.5,180.78,330.5" style="stroke:#A80036;stroke-width:1.0;"/><!--MD5=[8a35751e96a474dc0e9c8e0307f58b4a]
link asdi::idb::query::relational::FactOps to asdi::idb::query::relational::Projection--><path codeLine="73" d="M451.32,182.54 C467.23,211.88 497.81,268.28 516.11,302.04 " fill="none" id="asdi::idb::query::relational::FactOps-to-asdi::idb::query::relational::Projection" style="stroke:#A80036;stroke-width:1.0;stroke-dasharray:7.0,7.0;"/><polygon fill="#A80036" points="518.5,306.44,517.7131,296.6226,516.1108,302.0478,510.6856,300.4454,518.5,306.44" style="stroke:#A80036;stroke-width:1.0;"/><!--MD5=[98a349fb7b3579f218551a45eed2865c]
link asdi::idb::query::relational::FactOps to asdi::idb::query::relational::Selection--><path codeLine="74" d="M401.99,179.53 C367.72,194.83 317.75,220.24 281,252 C264.39,266.35 249.46,286.07 238.77,302.03 " fill="none" id="asdi::idb::query::relational::FactOps-to-asdi::idb::query::relational::Selection" style="stroke:#A80036;stroke-width:1.0;stroke-dasharray:7.0,7.0;"/><polygon fill="#A80036" points="235.87,306.42,244.1569,301.0976,238.617,302.2422,237.4724,296.7024,235.87,306.42" style="stroke:#A80036;stroke-width:1.0;"/><!--MD5=[fe91c1602b052606edd77161f25563f5]
reverse link asdi::idb::query::Row to asdi::idb::query::relational::FactOps--><path codeLine="75" d="M441,78.74 C441,97.27 441,124.23 441,142.29 " fill="none" id="asdi::idb::query::Row-backto-asdi::idb::query::relational::FactOps" style="stroke:#A80036;stroke-width:1.0;stroke-dasharray:7.0,7.0;"/><polygon fill="#A80036" points="441,73.27,437,82.27,441,78.27,445,82.27,441,73.27" style="stroke:#A80036;stroke-width:1.0;"/><!--MD5=[b580b5cd5d3f5c339a7a0ac51a82856d]
link asdi::idb::query::relational::RelationalOps to asdi::idb::query::relational::Criteria--><path codeLine="77" d="M209.04,182.54 C189.06,211.88 150.67,268.28 127.7,302.04 " fill="none" id="asdi::idb::query::relational::RelationalOps-to-asdi::idb::query::relational::Criteria" style="stroke:#A80036;stroke-width:1.0;stroke-dasharray:7.0,7.0;"/><polygon fill="#A80036" points="124.7,306.44,133.066,301.243,127.5096,302.304,126.4485,296.7476,124.7,306.44" style="stroke:#A80036;stroke-width:1.0;"/><!--MD5=[64154133c40c7c85413f120ea4d6f68f]
link asdi::idb::query::relational::RelationalOps to asdi::idb::query::relational::Projection--><path codeLine="78" d="M277.63,174.21 C330.58,186.42 410.61,210.31 469,252 C487.46,265.18 503.33,285.29 514.39,301.73 " fill="none" id="asdi::idb::query::relational::RelationalOps-to-asdi::idb::query::relational::Projection" style="stroke:#A80036;stroke-width:1.0;stroke-dasharray:7.0,7.0;"/><polygon fill="#A80036" points="517.38,306.26,515.7544,296.5462,514.623,302.0888,509.0804,300.9574,517.38,306.26" style="stroke:#A80036;stroke-width:1.0;"/><!--MD5=[ee8bbddd14062cd558b42032b40fd3f5]
link asdi::idb::query::relational::RelationalOps to asdi::idb::query::relational::Selection--><path codeLine="79" d="M222,182.54 C222,211.64 222,267.36 222,301.2 " fill="none" id="asdi::idb::query::relational::RelationalOps-to-asdi::idb::query::relational::Selection" style="stroke:#A80036;stroke-width:1.0;stroke-dasharray:7.0,7.0;"/><polygon fill="#A80036" points="222,306.44,226,297.44,222,301.44,218,297.44,222,306.44" style="stroke:#A80036;stroke-width:1.0;"/><!--MD5=[5c2f3bde2afbac6a5878bebcfba5f9f0]
reverse link asdi::idb::query::View to asdi::idb::query::relational::RelationalOps--><path codeLine="80" d="M222,78.74 C222,97.27 222,124.23 222,142.29 " fill="none" id="asdi::idb::query::View-backto-asdi::idb::query::relational::RelationalOps" style="stroke:#A80036;stroke-width:1.0;stroke-dasharray:7.0,7.0;"/><polygon fill="#A80036" points="222,73.27,218,82.27,222,78.27,226,82.27,222,73.27" style="stroke:#A80036;stroke-width:1.0;"/><!--MD5=[5845aed5ac32b4eb5798021a697076da]
link asdi::idb::query::relational::RelationSink to asdi::idb::query::relational::RelationalOp--><path codeLine="82" d="M765.9324,295.5877 C765.9324,295.5877 804.4,236.98 835.5,222 C877.94,201.56 897.32,205.65 941.5,222 C955.92,227.34 969.8,235.13 982.74,244.13 " fill="none" id="asdi::idb::query::relational::RelationSink-asdi::idb::query::relational::RelationalOp" style="stroke:#A80036;stroke-width:1.0;"/><polygon fill="#A80036" points="993.39,251.95,988.5013,243.4001,989.3592,248.9915,983.7678,249.8494,993.39,251.95" style="stroke:#A80036;stroke-width:1.0;"/><line style="stroke:#A80036;stroke-width:1.0;" x1="989.3592" x2="982.91" y1="248.9915" y2="244.255"/><polygon fill="#A80036" points="760.2,306.13,766.5803,302.7696,765.9324,295.5877,759.5521,298.9481,760.2,306.13" style="stroke:#A80036;stroke-width:1.0;"/><!--MD5=[5d1360014f9a437be450c738c098928b]
link asdi::idb::query::relational::RelationSink to asdi::edb::PredicateRef--><path codeLine="83" d="M740.8149,366.2794 C740.8149,366.2794 718.56,461.02 710.62,494.85 " fill="none" id="asdi::idb::query::relational::RelationSink-asdi::edb::PredicateRef" style="stroke:#A80036;stroke-width:1.0;"/><polygon fill="#A80036" points="707.57,507.81,713.5211,499.9624,708.7127,502.9423,705.7328,498.134,707.57,507.81" style="stroke:#A80036;stroke-width:1.0;"/><line style="stroke:#A80036;stroke-width:1.0;" x1="708.7127" x2="710.54" y1="502.9423" y2="495.16"/><polygon fill="none" points="743.57,354.6,738.2993,359.5214,740.8149,366.2794,746.0856,361.3581,743.57,354.6" style="stroke:#A80036;stroke-width:1.0;"/><!--MD5=[4a2aff7a5d8bf975eefe8771ae265b13]
link asdi::idb::query::relational::relational to asdi::ProgramCore--><path codeLine="89" d="M1135.89,192.18 C1168.06,207.89 1206.94,228.86 1239,252 C1263,269.33 1287.08,293.43 1302.67,310.13 " fill="none" id="asdi::idb::query::relational::relational-to-asdi::ProgramCore" style="stroke:#A80036;stroke-width:1.0;stroke-dasharray:7.0,7.0;"/><polygon fill="#A80036" points="1306.44,314.21,1303.2596,304.8888,1303.0427,310.5415,1297.39,310.3245,1306.44,314.21" style="stroke:#A80036;stroke-width:1.0;"/><!--MD5=[9f737c79c1817b681322bcb0f9b41101]
@startuml

!include options.plantuml

interface asdi::ProgramCore
hide "asdi::ProgramCore" members

interface asdi::edb::Attribute
hide "asdi::edb::Attribute" members

interface asdi::edb::Constant
hide "asdi::edb::Constant" members

interface asdi::edb::PredicateRef
hide "asdi::edb::PredicateRef" members

enum asdi::idb::ComparisonOperator
hide "asdi::idb::ComparisonOperator" members

interface asdi::idb::query::Row
hide "asdi::idb::query::Row" members

interface asdi::idb::query::View
hide "asdi::idb::query::View" members

namespace asdi::idb::query::relational {
    interface FactOps
    interface RelationalOps

    class RelationSource
    class SetOperation
    class Selection
    class Projection
    class Join
    class RelationSink

    class Criteria
    enum CriteriaValue {
        Value : asdi::edb::Constant
        Index : usize
    }

    enum RelationalOp {
        Relation : RelationSource
        Union : SetOperation
        Intersection : SetOperation
        Different : SetOperation
        CartesianProduct : SetOperation
        Selection : Selection
        Projection : Projection
        Join : Join
        Sink : RelationSink
    }

    RelationSource o-> asdi::edb::PredicateRef

    SetOperation *-> RelationalOp
    SetOperation *-> RelationalOp

    CriteriaValue o-down-> asdi::edb::Constant
    Criteria *-> CriteriaValue
    Criteria *-down-> asdi::idb::ComparisonOperator

    Join *-> RelationalOp
    Join *-> RelationalOp
    Join *-> "*" Criteria

    Projection *-> RelationalOp
    Projection *-down-> "attributes *" asdi::edb::Attribute

    Selection *-> RelationalOp
    Selection *-> Criteria

    FactOps ..> Projection
    FactOps ..> Selection
    FactOps .up.> asdi::idb::query::Row

    RelationalOps ..> Criteria
    RelationalOps ..> Projection
    RelationalOps ..> Selection
    RelationalOps .up.> asdi::idb::query::View

    RelationSink *-> RelationalOp
    RelationSink o-> asdi::edb::PredicateRef

    class relational << module >> {
        program_to_graphviz(): String
    }

    relational .down.> asdi::ProgramCore
}

@enduml

@startuml

set namespaceSeparator ::
hide enum methods
hide interface fields
hide << const >> members
hide << type >> members
hide << type >> stereotype
hide << module >> fields
hide << module >> circle

interface asdi::ProgramCore
hide "asdi::ProgramCore" members

interface asdi::edb::Attribute
hide "asdi::edb::Attribute" members

interface asdi::edb::Constant
hide "asdi::edb::Constant" members

interface asdi::edb::PredicateRef
hide "asdi::edb::PredicateRef" members

enum asdi::idb::ComparisonOperator
hide "asdi::idb::ComparisonOperator" members

interface asdi::idb::query::Row
hide "asdi::idb::query::Row" members

interface asdi::idb::query::View
hide "asdi::idb::query::View" members

namespace asdi::idb::query::relational {
    interface FactOps
    interface RelationalOps

    class RelationSource
    class SetOperation
    class Selection
    class Projection
    class Join
    class RelationSink

    class Criteria
    enum CriteriaValue {
        Value : asdi::edb::Constant
        Index : usize
    }

    enum RelationalOp {
        Relation : RelationSource
        Union : SetOperation
        Intersection : SetOperation
        Different : SetOperation
        CartesianProduct : SetOperation
        Selection : Selection
        Projection : Projection
        Join : Join
        Sink : RelationSink
    }

    RelationSource o-> asdi::edb::PredicateRef

    SetOperation *-> RelationalOp
    SetOperation *-> RelationalOp

    CriteriaValue o-down-> asdi::edb::Constant
    Criteria *-> CriteriaValue
    Criteria *-down-> asdi::idb::ComparisonOperator

    Join *-> RelationalOp
    Join *-> RelationalOp
    Join *-> "*" Criteria

    Projection *-> RelationalOp
    Projection *-down-> "attributes *" asdi::edb::Attribute

    Selection *-> RelationalOp
    Selection *-> Criteria

    FactOps ..> Projection
    FactOps ..> Selection
    FactOps .up.> asdi::idb::query::Row

    RelationalOps ..> Criteria
    RelationalOps ..> Projection
    RelationalOps ..> Selection
    RelationalOps .up.> asdi::idb::query::View

    RelationSink *-> RelationalOp
    RelationSink o-> asdi::edb::PredicateRef

    class relational << module >> {
        program_to_graphviz(): String
    }

    relational .down.> asdi::ProgramCore
}

@enduml

PlantUML version 1.2022.1(Tue Feb 01 10:19:58 PST 2022)
(GPL source distribution)
Java Runtime: OpenJDK Runtime Environment
JVM: OpenJDK 64-Bit Server VM
Default Encoding: UTF-8
Language: en
Country: US
--></g></svg>