<?xml version="1.0" encoding="UTF-8" standalone="no"?><svg xmlns="http://www.w3.org/2000/svg" xmlns:xlink="http://www.w3.org/1999/xlink" contentScriptType="application/ecmascript" contentStyleType="text/css" height="569px" preserveAspectRatio="none" style="width:1785px;height:569px;background:#FFFFFF;" version="1.1" viewBox="0 0 1785 569" width="1785px" zoomAndPan="magnify"><defs><filter height="300%" id="f118p18fw0we4r" width="300%" x="-1" y="-1"><feGaussianBlur result="blurOut" stdDeviation="2.0"/><feColorMatrix in="blurOut" result="blurOut2" type="matrix" values="0 0 0 0 0 0 0 0 0 0 0 0 0 0 0 0 0 0 .4 0"/><feOffset dx="4.0" dy="4.0" in="blurOut2" result="blurOut3"/><feBlend in="SourceGraphic" in2="blurOut3" mode="normal"/></filter></defs><g><!--MD5=[e274c4916ac42ef1c11391a83d303c10]
cluster asdi--><polygon fill="#FFFFFF" filter="url(#f118p18fw0we4r)" points="1212,260,1248,260,1255,282.4883,1352,282.4883,1352,343,1212,343,1212,260" style="stroke:#000000;stroke-width:1.5;"/><line style="stroke:#000000;stroke-width:1.5;" x1="1212" x2="1255" y1="282.4883" y2="282.4883"/><text fill="#000000" font-family="sans-serif" font-size="14" font-weight="bold" lengthAdjust="spacing" textLength="30" x="1216" y="275.5352">asdi</text><!--MD5=[6bc3af5db4038e5494ba0622f07de59b]
cluster asdi::edb--><polygon fill="#FFFFFF" filter="url(#f118p18fw0we4r)" points="1396,425,1464,425,1471,447.4883,1768,447.4883,1768,508,1396,508,1396,425" style="stroke:#000000;stroke-width:1.5;"/><line style="stroke:#000000;stroke-width:1.5;" x1="1396" x2="1471" y1="447.4883" y2="447.4883"/><text fill="#000000" font-family="sans-serif" font-size="14" font-weight="bold" lengthAdjust="spacing" textLength="62" x="1400" y="440.5352">asdi::edb</text><!--MD5=[ae3c197a01158459eb2ddb806e23d6f2]
cluster asdi::idb--><polygon fill="#FFFFFF" filter="url(#f118p18fw0we4r)" points="1186,425,1251,425,1258,447.4883,1372,447.4883,1372,508,1186,508,1186,425" style="stroke:#000000;stroke-width:1.5;"/><line style="stroke:#000000;stroke-width:1.5;" x1="1186" x2="1258" y1="447.4883" y2="447.4883"/><text fill="#000000" font-family="sans-serif" font-size="14" font-weight="bold" lengthAdjust="spacing" textLength="59" x="1190" y="440.5352">asdi::idb</text><!--MD5=[331bdf5c2291f41e90a08533bcc43e12]
cluster asdi::idb::query--><polygon fill="#FFFFFF" filter="url(#f118p18fw0we4r)" points="16,6,127,6,134,28.4883,1162,28.4883,1162,562,16,562,16,6" style="stroke:#000000;stroke-width:1.5;"/><line style="stroke:#000000;stroke-width:1.5;" x1="16" x2="134" y1="28.4883" y2="28.4883"/><text fill="#000000" font-family="sans-serif" font-size="14" font-weight="bold" lengthAdjust="spacing" textLength="105" x="20" y="21.5352">asdi::idb::query</text><!--MD5=[eafcc76c5f5f5a3374a2a7c59499c4e6]
cluster asdi::idb::query::relational--><polygon fill="#FFFFFF" filter="url(#f118p18fw0we4r)" points="40,98,115,98,122,120.4883,1138,120.4883,1138,538,40,538,40,98" style="stroke:#000000;stroke-width:1.5;"/><line style="stroke:#000000;stroke-width:1.5;" x1="40" x2="122" y1="120.4883" y2="120.4883"/><text fill="#000000" font-family="sans-serif" font-size="14" font-weight="bold" lengthAdjust="spacing" textLength="69" x="44" y="113.5352">relational</text><!--MD5=[91cc3482fb0350396608f11633162af9]
class asdi::ProgramCore--><rect codeLine="4" fill="#FEFECE" filter="url(#f118p18fw0we4r)" height="32" id="asdi::ProgramCore" style="stroke:#A80036;stroke-width:1.5;" width="108" x="1228" y="295"/><ellipse cx="1243" cy="311" fill="#B4A7E5" rx="11" ry="11" style="stroke:#A80036;stroke-width:1.0;"/><path d="M1239.4277,307.2651 L1239.4277,305.1069 L1246.8071,305.1069 L1246.8071,307.2651 L1244.3418,307.2651 L1244.3418,315.3418 L1246.8071,315.3418 L1246.8071,317.5 L1239.4277,317.5 L1239.4277,315.3418 L1241.8931,315.3418 L1241.8931,307.2651 Z " fill="#000000"/><text fill="#000000" font-family="sans-serif" font-size="12" font-style="italic" lengthAdjust="spacing" textLength="76" x="1257" y="315.5352">ProgramCore</text><!--MD5=[20c980c506d94534efc3bc917ca7a115]
class asdi::edb::Attribute--><rect codeLine="7" fill="#FEFECE" filter="url(#f118p18fw0we4r)" height="32" id="asdi::edb::Attribute" style="stroke:#A80036;stroke-width:1.5;" width="82" x="1529" y="460"/><ellipse cx="1544" cy="476" fill="#B4A7E5" rx="11" ry="11" style="stroke:#A80036;stroke-width:1.0;"/><path d="M1540.4277,472.2651 L1540.4277,470.1069 L1547.8071,470.1069 L1547.8071,472.2651 L1545.3418,472.2651 L1545.3418,480.3418 L1547.8071,480.3418 L1547.8071,482.5 L1540.4277,482.5 L1540.4277,480.3418 L1542.8931,480.3418 L1542.8931,472.2651 Z " fill="#000000"/><text fill="#000000" font-family="sans-serif" font-size="12" font-style="italic" lengthAdjust="spacing" textLength="50" x="1558" y="480.5352">Attribute</text><!--MD5=[58db58f43e0c0eeeb327af7bc687dbb7]
class asdi::edb::Constant--><rect codeLine="10" fill="#FEFECE" filter="url(#f118p18fw0we4r)" height="32" id="asdi::edb::Constant" style="stroke:#A80036;stroke-width:1.5;" width="82" x="1412" y="460"/><ellipse cx="1427" cy="476" fill="#B4A7E5" rx="11" ry="11" style="stroke:#A80036;stroke-width:1.0;"/><path d="M1423.4277,472.2651 L1423.4277,470.1069 L1430.8071,470.1069 L1430.8071,472.2651 L1428.3418,472.2651 L1428.3418,480.3418 L1430.8071,480.3418 L1430.8071,482.5 L1423.4277,482.5 L1423.4277,480.3418 L1425.8931,480.3418 L1425.8931,472.2651 Z " fill="#000000"/><text fill="#000000" font-family="sans-serif" font-size="12" font-style="italic" lengthAdjust="spacing" textLength="50" x="1441" y="480.5352">Constant</text><!--MD5=[63d735a6e8116701ee198db5f4862bbe]
class asdi::edb::PredicateRef--><rect codeLine="13" fill="#FEFECE" filter="url(#f118p18fw0we4r)" height="32" id="asdi::edb::PredicateRef" style="stroke:#A80036;stroke-width:1.5;" width="105" x="1646.5" y="460"/><ellipse cx="1661.5" cy="476" fill="#B4A7E5" rx="11" ry="11" style="stroke:#A80036;stroke-width:1.0;"/><path d="M1657.9277,472.2651 L1657.9277,470.1069 L1665.3071,470.1069 L1665.3071,472.2651 L1662.8418,472.2651 L1662.8418,480.3418 L1665.3071,480.3418 L1665.3071,482.5 L1657.9277,482.5 L1657.9277,480.3418 L1660.3931,480.3418 L1660.3931,472.2651 Z " fill="#000000"/><text fill="#000000" font-family="sans-serif" font-size="12" font-style="italic" lengthAdjust="spacing" textLength="73" x="1675.5" y="480.5352">PredicateRef</text><!--MD5=[d7ed71e2888dff8f76393f08027596df]
class asdi::idb::ComparisonOperator--><rect codeLine="16" fill="#FEFECE" filter="url(#f118p18fw0we4r)" height="32" id="asdi::idb::ComparisonOperator" style="stroke:#A80036;stroke-width:1.5;" width="153" x="1202.5" y="460"/><ellipse cx="1217.5" cy="476" fill="#EB937F" rx="11" ry="11" style="stroke:#A80036;stroke-width:1.0;"/><path d="M1221.1143,482.5 L1213.3945,482.5 L1213.3945,470.1069 L1221.1143,470.1069 L1221.1143,472.2651 L1215.8433,472.2651 L1215.8433,474.938 L1220.6162,474.938 L1220.6162,477.0962 L1215.8433,477.0962 L1215.8433,480.3418 L1221.1143,480.3418 Z " fill="#000000"/><text fill="#000000" font-family="sans-serif" font-size="12" lengthAdjust="spacing" textLength="121" x="1231.5" y="480.5352">ComparisonOperator</text><!--MD5=[7e8d97ac1a083739443b45fa6a2a74f0]
class asdi::idb::query::Row--><rect codeLine="19" fill="#FEFECE" filter="url(#f118p18fw0we4r)" height="32" id="asdi::idb::query::Row" style="stroke:#A80036;stroke-width:1.5;" width="56" x="246" y="41"/><ellipse cx="261" cy="57" fill="#B4A7E5" rx="11" ry="11" style="stroke:#A80036;stroke-width:1.0;"/><path d="M257.4277,53.2651 L257.4277,51.1069 L264.8071,51.1069 L264.8071,53.2651 L262.3418,53.2651 L262.3418,61.3418 L264.8071,61.3418 L264.8071,63.5 L257.4277,63.5 L257.4277,61.3418 L259.8931,61.3418 L259.8931,53.2651 Z " fill="#000000"/><text fill="#000000" font-family="sans-serif" font-size="12" font-style="italic" lengthAdjust="spacing" textLength="24" x="275" y="61.5352">Row</text><!--MD5=[17ff6db730189734784f7494d7fbb9fe]
class asdi::idb::query::View--><rect codeLine="22" fill="#FEFECE" filter="url(#f118p18fw0we4r)" height="32" id="asdi::idb::query::View" style="stroke:#A80036;stroke-width:1.5;" width="59" x="410.5" y="41"/><ellipse cx="425.5" cy="57" fill="#B4A7E5" rx="11" ry="11" style="stroke:#A80036;stroke-width:1.0;"/><path d="M421.9277,53.2651 L421.9277,51.1069 L429.3071,51.1069 L429.3071,53.2651 L426.8418,53.2651 L426.8418,61.3418 L429.3071,61.3418 L429.3071,63.5 L421.9277,63.5 L421.9277,61.3418 L424.3931,61.3418 L424.3931,53.2651 Z " fill="#000000"/><text fill="#000000" font-family="sans-serif" font-size="12" font-style="italic" lengthAdjust="spacing" textLength="27" x="439.5" y="61.5352">View</text><!--MD5=[30bb03e1b2dc97ff10dfe8ea43b681ff]
class asdi::idb::query::relational::FactOps--><rect codeLine="26" fill="#FEFECE" filter="url(#f118p18fw0we4r)" height="40" id="asdi::idb::query::relational::FactOps" style="stroke:#A80036;stroke-width:1.5;" width="78" x="235" y="142.5"/><ellipse cx="250" cy="158.5" fill="#B4A7E5" rx="11" ry="11" style="stroke:#A80036;stroke-width:1.0;"/><path d="M246.4277,154.7651 L246.4277,152.6069 L253.8071,152.6069 L253.8071,154.7651 L251.3418,154.7651 L251.3418,162.8418 L253.8071,162.8418 L253.8071,165 L246.4277,165 L246.4277,162.8418 L248.8931,162.8418 L248.8931,154.7651 Z " fill="#000000"/><text fill="#000000" font-family="sans-serif" font-size="12" font-style="italic" lengthAdjust="spacing" textLength="46" x="264" y="163.0352">FactOps</text><line style="stroke:#A80036;stroke-width:1.5;" x1="236" x2="312" y1="174.5" y2="174.5"/><!--MD5=[1886ff381590854148a50526c696ec44]
class asdi::idb::query::relational::RelationalOps--><rect codeLine="27" fill="#FEFECE" filter="url(#f118p18fw0we4r)" height="40" id="asdi::idb::query::relational::RelationalOps" style="stroke:#A80036;stroke-width:1.5;" width="111" x="384.5" y="142.5"/><ellipse cx="399.5" cy="158.5" fill="#B4A7E5" rx="11" ry="11" style="stroke:#A80036;stroke-width:1.0;"/><path d="M395.9277,154.7651 L395.9277,152.6069 L403.3071,152.6069 L403.3071,154.7651 L400.8418,154.7651 L400.8418,162.8418 L403.3071,162.8418 L403.3071,165 L395.9277,165 L395.9277,162.8418 L398.3931,162.8418 L398.3931,154.7651 Z " fill="#000000"/><text fill="#000000" font-family="sans-serif" font-size="12" font-style="italic" lengthAdjust="spacing" textLength="79" x="413.5" y="163.0352">RelationalOps</text><line style="stroke:#A80036;stroke-width:1.5;" x1="385.5" x2="494.5" y1="174.5" y2="174.5"/><!--MD5=[26f0ef09b5569dc3684aa789736e7c2b]
class asdi::idb::query::relational::RelationSource--><rect codeLine="29" fill="#FEFECE" filter="url(#f118p18fw0we4r)" height="48" id="asdi::idb::query::relational::RelationSource" style="stroke:#A80036;stroke-width:1.5;" width="116" x="795" y="138.5"/><ellipse cx="810" cy="154.5" fill="#ADD1B2" rx="11" ry="11" style="stroke:#A80036;stroke-width:1.0;"/><path d="M812.4731,160.6431 Q811.8921,160.9419 811.2529,161.0913 Q810.6138,161.2407 809.9082,161.2407 Q807.4014,161.2407 806.0815,159.5889 Q804.7617,157.937 804.7617,154.8159 Q804.7617,151.6865 806.0815,150.0347 Q807.4014,148.3828 809.9082,148.3828 Q810.6138,148.3828 811.2612,148.5322 Q811.9087,148.6816 812.4731,148.9805 L812.4731,151.7031 Q811.8423,151.1221 811.2488,150.8523 Q810.6553,150.5825 810.0244,150.5825 Q808.6797,150.5825 807.9949,151.6492 Q807.3101,152.7158 807.3101,154.8159 Q807.3101,156.9077 807.9949,157.9744 Q808.6797,159.041 810.0244,159.041 Q810.6553,159.041 811.2488,158.7712 Q811.8423,158.5015 812.4731,157.9204 Z " fill="#000000"/><text fill="#000000" font-family="sans-serif" font-size="12" lengthAdjust="spacing" textLength="84" x="824" y="159.0352">RelationSource</text><line style="stroke:#A80036;stroke-width:1.5;" x1="796" x2="910" y1="170.5" y2="170.5"/><line style="stroke:#A80036;stroke-width:1.5;" x1="796" x2="910" y1="178.5" y2="178.5"/><!--MD5=[61537be010f364292396788bacf83bf3]
class asdi::idb::query::relational::SetOperation--><rect codeLine="30" fill="#FEFECE" filter="url(#f118p18fw0we4r)" height="48" id="asdi::idb::query::relational::SetOperation" style="stroke:#A80036;stroke-width:1.5;" width="106" x="56" y="287"/><ellipse cx="71" cy="303" fill="#ADD1B2" rx="11" ry="11" style="stroke:#A80036;stroke-width:1.0;"/><path d="M73.4731,309.1431 Q72.8921,309.4419 72.2529,309.5913 Q71.6138,309.7407 70.9082,309.7407 Q68.4014,309.7407 67.0815,308.0889 Q65.7617,306.437 65.7617,303.3159 Q65.7617,300.1865 67.0815,298.5347 Q68.4014,296.8828 70.9082,296.8828 Q71.6138,296.8828 72.2612,297.0322 Q72.9087,297.1816 73.4731,297.4805 L73.4731,300.2031 Q72.8423,299.6221 72.2488,299.3523 Q71.6553,299.0825 71.0244,299.0825 Q69.6797,299.0825 68.9949,300.1492 Q68.3101,301.2158 68.3101,303.3159 Q68.3101,305.4077 68.9949,306.4744 Q69.6797,307.541 71.0244,307.541 Q71.6553,307.541 72.2488,307.2712 Q72.8423,307.0015 73.4731,306.4204 Z " fill="#000000"/><text fill="#000000" font-family="sans-serif" font-size="12" lengthAdjust="spacing" textLength="74" x="85" y="307.5352">SetOperation</text><line style="stroke:#A80036;stroke-width:1.5;" x1="57" x2="161" y1="319" y2="319"/><line style="stroke:#A80036;stroke-width:1.5;" x1="57" x2="161" y1="327" y2="327"/><!--MD5=[2cc88c4d6a96a23c1ce26cb4368a7510]
class asdi::idb::query::relational::Selection--><rect codeLine="31" fill="#FEFECE" filter="url(#f118p18fw0we4r)" height="48" id="asdi::idb::query::relational::Selection" style="stroke:#A80036;stroke-width:1.5;" width="82" x="197" y="287"/><ellipse cx="212" cy="303" fill="#ADD1B2" rx="11" ry="11" style="stroke:#A80036;stroke-width:1.0;"/><path d="M214.4731,309.1431 Q213.8921,309.4419 213.2529,309.5913 Q212.6138,309.7407 211.9082,309.7407 Q209.4014,309.7407 208.0815,308.0889 Q206.7617,306.437 206.7617,303.3159 Q206.7617,300.1865 208.0815,298.5347 Q209.4014,296.8828 211.9082,296.8828 Q212.6138,296.8828 213.2612,297.0322 Q213.9087,297.1816 214.4731,297.4805 L214.4731,300.2031 Q213.8423,299.6221 213.2488,299.3523 Q212.6553,299.0825 212.0244,299.0825 Q210.6797,299.0825 209.9949,300.1492 Q209.3101,301.2158 209.3101,303.3159 Q209.3101,305.4077 209.9949,306.4744 Q210.6797,307.541 212.0244,307.541 Q212.6553,307.541 213.2488,307.2712 Q213.8423,307.0015 214.4731,306.4204 Z " fill="#000000"/><text fill="#000000" font-family="sans-serif" font-size="12" lengthAdjust="spacing" textLength="50" x="226" y="307.5352">Selection</text><line style="stroke:#A80036;stroke-width:1.5;" x1="198" x2="278" y1="319" y2="319"/><line style="stroke:#A80036;stroke-width:1.5;" x1="198" x2="278" y1="327" y2="327"/><!--MD5=[4ad8a1ad1a5e0668703ed600e48e24a6]
class asdi::idb::query::relational::Projection--><rect codeLine="32" fill="#FEFECE" filter="url(#f118p18fw0we4r)" height="48" id="asdi::idb::query::relational::Projection" style="stroke:#A80036;stroke-width:1.5;" width="89" x="700.5" y="287"/><ellipse cx="715.5" cy="303" fill="#ADD1B2" rx="11" ry="11" style="stroke:#A80036;stroke-width:1.0;"/><path d="M717.9731,309.1431 Q717.3921,309.4419 716.7529,309.5913 Q716.1138,309.7407 715.4082,309.7407 Q712.9014,309.7407 711.5815,308.0889 Q710.2617,306.437 710.2617,303.3159 Q710.2617,300.1865 711.5815,298.5347 Q712.9014,296.8828 715.4082,296.8828 Q716.1138,296.8828 716.7612,297.0322 Q717.4087,297.1816 717.9731,297.4805 L717.9731,300.2031 Q717.3423,299.6221 716.7488,299.3523 Q716.1553,299.0825 715.5244,299.0825 Q714.1797,299.0825 713.4949,300.1492 Q712.8101,301.2158 712.8101,303.3159 Q712.8101,305.4077 713.4949,306.4744 Q714.1797,307.541 715.5244,307.541 Q716.1553,307.541 716.7488,307.2712 Q717.3423,307.0015 717.9731,306.4204 Z " fill="#000000"/><text fill="#000000" font-family="sans-serif" font-size="12" lengthAdjust="spacing" textLength="57" x="729.5" y="307.5352">Projection</text><line style="stroke:#A80036;stroke-width:1.5;" x1="701.5" x2="788.5" y1="319" y2="319"/><line style="stroke:#A80036;stroke-width:1.5;" x1="701.5" x2="788.5" y1="327" y2="327"/><!--MD5=[650f41e5608105f68b0ee8762084edef]
class asdi::idb::query::relational::Join--><rect codeLine="33" fill="#FEFECE" filter="url(#f118p18fw0we4r)" height="48" id="asdi::idb::query::relational::Join" style="stroke:#A80036;stroke-width:1.5;" width="53" x="314.5" y="287"/><ellipse cx="329.5" cy="303" fill="#ADD1B2" rx="11" ry="11" style="stroke:#A80036;stroke-width:1.0;"/><path d="M331.9731,309.1431 Q331.3921,309.4419 330.7529,309.5913 Q330.1138,309.7407 329.4082,309.7407 Q326.9014,309.7407 325.5815,308.0889 Q324.2617,306.437 324.2617,303.3159 Q324.2617,300.1865 325.5815,298.5347 Q326.9014,296.8828 329.4082,296.8828 Q330.1138,296.8828 330.7612,297.0322 Q331.4087,297.1816 331.9731,297.4805 L331.9731,300.2031 Q331.3423,299.6221 330.7488,299.3523 Q330.1553,299.0825 329.5244,299.0825 Q328.1797,299.0825 327.4949,300.1492 Q326.8101,301.2158 326.8101,303.3159 Q326.8101,305.4077 327.4949,306.4744 Q328.1797,307.541 329.5244,307.541 Q330.1553,307.541 330.7488,307.2712 Q331.3423,307.0015 331.9731,306.4204 Z " fill="#000000"/><text fill="#000000" font-family="sans-serif" font-size="12" lengthAdjust="spacing" textLength="21" x="343.5" y="307.5352">Join</text><line style="stroke:#A80036;stroke-width:1.5;" x1="315.5" x2="366.5" y1="319" y2="319"/><line style="stroke:#A80036;stroke-width:1.5;" x1="315.5" x2="366.5" y1="327" y2="327"/><!--MD5=[cac767197388948668a0b50118075157]
class asdi::idb::query::relational::RelationSink--><rect codeLine="34" fill="#FEFECE" filter="url(#f118p18fw0we4r)" height="48" id="asdi::idb::query::relational::RelationSink" style="stroke:#A80036;stroke-width:1.5;" width="101" x="824.5" y="287"/><ellipse cx="839.5" cy="303" fill="#ADD1B2" rx="11" ry="11" style="stroke:#A80036;stroke-width:1.0;"/><path d="M841.9731,309.1431 Q841.3921,309.4419 840.7529,309.5913 Q840.1138,309.7407 839.4082,309.7407 Q836.9014,309.7407 835.5815,308.0889 Q834.2617,306.437 834.2617,303.3159 Q834.2617,300.1865 835.5815,298.5347 Q836.9014,296.8828 839.4082,296.8828 Q840.1138,296.8828 840.7612,297.0322 Q841.4087,297.1816 841.9731,297.4805 L841.9731,300.2031 Q841.3423,299.6221 840.7488,299.3523 Q840.1553,299.0825 839.5244,299.0825 Q838.1797,299.0825 837.4949,300.1492 Q836.8101,301.2158 836.8101,303.3159 Q836.8101,305.4077 837.4949,306.4744 Q838.1797,307.541 839.5244,307.541 Q840.1553,307.541 840.7488,307.2712 Q841.3423,307.0015 841.9731,306.4204 Z " fill="#000000"/><text fill="#000000" font-family="sans-serif" font-size="12" lengthAdjust="spacing" textLength="69" x="853.5" y="307.5352">RelationSink</text><line style="stroke:#A80036;stroke-width:1.5;" x1="825.5" x2="924.5" y1="319" y2="319"/><line style="stroke:#A80036;stroke-width:1.5;" x1="825.5" x2="924.5" y1="327" y2="327"/><!--MD5=[48f51781b109f4c1cf36d761bad7dc1a]
class asdi::idb::query::relational::Criteria--><rect codeLine="36" fill="#FEFECE" filter="url(#f118p18fw0we4r)" height="48" id="asdi::idb::query::relational::Criteria" style="stroke:#A80036;stroke-width:1.5;" width="74" x="403" y="287"/><ellipse cx="418" cy="303" fill="#ADD1B2" rx="11" ry="11" style="stroke:#A80036;stroke-width:1.0;"/><path d="M420.4731,309.1431 Q419.8921,309.4419 419.2529,309.5913 Q418.6138,309.7407 417.9082,309.7407 Q415.4014,309.7407 414.0815,308.0889 Q412.7617,306.437 412.7617,303.3159 Q412.7617,300.1865 414.0815,298.5347 Q415.4014,296.8828 417.9082,296.8828 Q418.6138,296.8828 419.2612,297.0322 Q419.9087,297.1816 420.4731,297.4805 L420.4731,300.2031 Q419.8423,299.6221 419.2488,299.3523 Q418.6553,299.0825 418.0244,299.0825 Q416.6797,299.0825 415.9949,300.1492 Q415.3101,301.2158 415.3101,303.3159 Q415.3101,305.4077 415.9949,306.4744 Q416.6797,307.541 418.0244,307.541 Q418.6553,307.541 419.2488,307.2712 Q419.8423,307.0015 420.4731,306.4204 Z " fill="#000000"/><text fill="#000000" font-family="sans-serif" font-size="12" lengthAdjust="spacing" textLength="42" x="432" y="307.5352">Criteria</text><line style="stroke:#A80036;stroke-width:1.5;" x1="404" x2="476" y1="319" y2="319"/><line style="stroke:#A80036;stroke-width:1.5;" x1="404" x2="476" y1="327" y2="327"/><!--MD5=[c9677e091929cd1b44cd037047e77ec6]
class asdi::idb::query::relational::CriteriaValue--><rect codeLine="37" fill="#FEFECE" filter="url(#f118p18fw0we4r)" height="65.9102" id="asdi::idb::query::relational::CriteriaValue" style="stroke:#A80036;stroke-width:1.5;" width="153" x="512.5" y="278"/><ellipse cx="548.65" cy="294" fill="#EB937F" rx="11" ry="11" style="stroke:#A80036;stroke-width:1.0;"/><path d="M552.2643,300.5 L544.5445,300.5 L544.5445,288.1069 L552.2643,288.1069 L552.2643,290.2651 L546.9933,290.2651 L546.9933,292.938 L551.7662,292.938 L551.7662,295.0962 L546.9933,295.0962 L546.9933,298.3418 L552.2643,298.3418 Z " fill="#000000"/><text fill="#000000" font-family="sans-serif" font-size="12" lengthAdjust="spacing" textLength="74" x="567.35" y="298.5352">CriteriaValue</text><line style="stroke:#A80036;stroke-width:1.5;" x1="513.5" x2="664.5" y1="310" y2="310"/><text fill="#000000" font-family="sans-serif" font-size="11" lengthAdjust="spacing" textLength="141" x="518.5" y="324.6348">Value : asdi::edb::Constant</text><text fill="#000000" font-family="sans-serif" font-size="11" lengthAdjust="spacing" textLength="67" x="518.5" y="337.5898">Index : usize</text><!--MD5=[5d3bd64d7543bb490c8a175f4453f220]
class asdi::idb::query::relational::SetOperator--><rect codeLine="42" fill="#FEFECE" filter="url(#f118p18fw0we4r)" height="91.8203" id="asdi::idb::query::relational::SetOperator" style="stroke:#A80036;stroke-width:1.5;" width="105" x="56.5" y="430"/><ellipse cx="73.3" cy="446" fill="#EB937F" rx="11" ry="11" style="stroke:#A80036;stroke-width:1.0;"/><path d="M76.9143,452.5 L69.1945,452.5 L69.1945,440.1069 L76.9143,440.1069 L76.9143,442.2651 L71.6433,442.2651 L71.6433,444.938 L76.4162,444.938 L76.4162,447.0962 L71.6433,447.0962 L71.6433,450.3418 L76.9143,450.3418 Z " fill="#000000"/><text fill="#000000" font-family="sans-serif" font-size="12" lengthAdjust="spacing" textLength="69" x="87.7" y="450.5352">SetOperator</text><line style="stroke:#A80036;stroke-width:1.5;" x1="57.5" x2="160.5" y1="462" y2="462"/><text fill="#000000" font-family="sans-serif" font-size="11" lengthAdjust="spacing" textLength="32" x="62.5" y="476.6348">Union</text><text fill="#000000" font-family="sans-serif" font-size="11" lengthAdjust="spacing" textLength="64" x="62.5" y="489.5898">Intersection</text><text fill="#000000" font-family="sans-serif" font-size="11" lengthAdjust="spacing" textLength="47" x="62.5" y="502.5449">Different</text><text fill="#000000" font-family="sans-serif" font-size="11" lengthAdjust="spacing" textLength="93" x="62.5" y="515.5">CartesianProduct</text><!--MD5=[fcd16ebf8cd45ed7c9be02368973cd0a]
class asdi::idb::query::relational::RelationalOp--><rect codeLine="49" fill="#FEFECE" filter="url(#f118p18fw0we4r)" height="117.7305" id="asdi::idb::query::relational::RelationalOp" style="stroke:#A80036;stroke-width:1.5;" width="161" x="960.5" y="252"/><ellipse cx="1000.7" cy="268" fill="#EB937F" rx="11" ry="11" style="stroke:#A80036;stroke-width:1.0;"/><path d="M1004.3143,274.5 L996.5945,274.5 L996.5945,262.1069 L1004.3143,262.1069 L1004.3143,264.2651 L999.0433,264.2651 L999.0433,266.938 L1003.8162,266.938 L1003.8162,269.0962 L999.0433,269.0962 L999.0433,272.3418 L1004.3143,272.3418 Z " fill="#000000"/><text fill="#000000" font-family="sans-serif" font-size="12" lengthAdjust="spacing" textLength="73" x="1020.3" y="272.5352">RelationalOp</text><line style="stroke:#A80036;stroke-width:1.5;" x1="961.5" x2="1120.5" y1="284" y2="284"/><text fill="#000000" font-family="sans-serif" font-size="11" lengthAdjust="spacing" textLength="132" x="966.5" y="298.6348">Relation : RelationSource</text><text fill="#000000" font-family="sans-serif" font-size="11" lengthAdjust="spacing" textLength="149" x="966.5" y="311.5898">SetOperation : SetOperation</text><text fill="#000000" font-family="sans-serif" font-size="11" lengthAdjust="spacing" textLength="105" x="966.5" y="324.5449">Selection : Selection</text><text fill="#000000" font-family="sans-serif" font-size="11" lengthAdjust="spacing" textLength="117" x="966.5" y="337.5">Projection : Projection</text><text fill="#000000" font-family="sans-serif" font-size="11" lengthAdjust="spacing" textLength="49" x="966.5" y="350.4551">Join : Join</text><text fill="#000000" font-family="sans-serif" font-size="11" lengthAdjust="spacing" textLength="96" x="966.5" y="363.4102">Sink : RelationSink</text><!--MD5=[41614bd79e1e3dc51fe6362cb55f71aa]
class asdi::idb::query::relational::relational--><rect codeLine="92" fill="#FEFECE" filter="url(#f118p18fw0we4r)" height="59.2207" id="asdi::idb::query::relational::relational" style="stroke:#A80036;stroke-width:1.5;" width="175" x="946.5" y="133"/><text fill="#000000" font-family="sans-serif" font-size="12" font-style="italic" lengthAdjust="spacing" textLength="55" x="1006.5" y="149.6016">«module»</text><text fill="#000000" font-family="sans-serif" font-size="12" lengthAdjust="spacing" textLength="53" x="1007.5" y="163.7344">relational</text><line style="stroke:#A80036;stroke-width:1.5;" x1="947.5" x2="1120.5" y1="171.2656" y2="171.2656"/><text fill="#000000" font-family="sans-serif" font-size="11" lengthAdjust="spacing" textLength="163" x="952.5" y="185.9004">program_to_graphviz(): String</text><!--MD5=[b149ebd95221f12f0f7af40ae03b7155]
link asdi::idb::query::relational::RelationSource to asdi::edb::PredicateRef--><path codeLine="58" d="M922.6731,189.8648 C922.6731,189.8648 927.29,191.44 929,192 C1021.19,222.4 1061.58,193.45 1139,252 C1188.19,289.2 1159.9,337.01 1212,370 C1369.57,469.78 1457.37,344.01 1629,417 C1646.88,424.6 1663.75,438.3 1676.44,450.48 " fill="none" id="asdi::idb::query::relational::RelationSource-asdi::edb::PredicateRef" style="stroke:#A80036;stroke-width:1.0;"/><polygon fill="#A80036" points="1685.67,459.77,1682.163,450.5667,1682.1455,456.2235,1676.4886,456.2059,1685.67,459.77" style="stroke:#A80036;stroke-width:1.0;"/><line style="stroke:#A80036;stroke-width:1.0;" x1="1682.1455" x2="1676.51" y1="456.2235" y2="450.55"/><polygon fill="none" points="911.34,185.92,915.6916,191.6701,922.6731,189.8648,918.3215,184.1147,911.34,185.92" style="stroke:#A80036;stroke-width:1.0;"/><!--MD5=[5af7d178a928081f00cd084da0131311]
link asdi::idb::query::relational::SetOperation to asdi::idb::query::relational::RelationalOp--><path codeLine="60" d="M133.1601,277.5991 C133.1601,277.5991 168.1,241.13 190.67,232 C228.81,216.57 892.17,219.36 931.33,232 C941.41,235.25 951.35,239.82 960.88,245.12 " fill="none" id="asdi::idb::query::relational::SetOperation-asdi::idb::query::relational::RelationalOp" style="stroke:#A80036;stroke-width:1.0;"/><polygon fill="#A80036" points="972.28,251.93,966.6008,243.8835,967.9862,249.368,962.5017,250.7535,972.28,251.93" style="stroke:#A80036;stroke-width:1.0;"/><line style="stroke:#A80036;stroke-width:1.0;" x1="967.9862" x2="961.12" y1="249.368" y2="245.265"/><polygon fill="#A80036" points="125.59,286.91,132.4787,284.7779,133.1601,277.5991,126.2714,279.7312,125.59,286.91" style="stroke:#A80036;stroke-width:1.0;"/><!--MD5=[5af7d178a928081f00cd084da0131311]
link asdi::idb::query::relational::SetOperation to asdi::idb::query::relational::RelationalOp--><path codeLine="61" d="M130.0927,276.9977 C130.0927,276.9977 172.14,225.03 202.33,212 C238.92,196.21 882.13,198.63 919.67,212 C939.1,218.92 957.67,230.44 974.19,243.22 " fill="none" id="asdi::idb::query::relational::SetOperation-asdi::idb::query::relational::RelationalOp-1" style="stroke:#A80036;stroke-width:1.0;"/><polygon fill="#A80036" points="984.73,251.76,980.2566,242.9857,980.8456,248.6118,975.2195,249.2008,984.73,251.76" style="stroke:#A80036;stroke-width:1.0;"/><line style="stroke:#A80036;stroke-width:1.0;" x1="980.8456" x2="974.635" y1="248.6118" y2="243.575"/><polygon fill="#A80036" points="123.3,286.89,129.9938,284.2081,130.0927,276.9977,123.3989,279.6796,123.3,286.89" style="stroke:#A80036;stroke-width:1.0;"/><!--MD5=[527402db84a3f30807d137d07bd05454]
link asdi::idb::query::relational::SetOperation to asdi::idb::query::relational::SetOperator--><path codeLine="62" d="M109,347.01 C109,347.01 109,393.95 109,416.84 " fill="none" id="asdi::idb::query::relational::SetOperation-asdi::idb::query::relational::SetOperator" style="stroke:#A80036;stroke-width:1.0;"/><polygon fill="#A80036" points="109,429.95,113,420.95,109,424.95,105,420.95,109,429.95" style="stroke:#A80036;stroke-width:1.0;"/><line style="stroke:#A80036;stroke-width:1.0;" x1="109" x2="109" y1="424.95" y2="416.95"/><polygon fill="#A80036" points="109,335.01,105,341.01,109,347.01,113,341.01,109,335.01" style="stroke:#A80036;stroke-width:1.0;"/><!--MD5=[bb155a233a915e879576390bfaba4ed1]
link asdi::idb::query::relational::CriteriaValue to asdi::edb::Constant--><path codeLine="64" d="M641.4885,350.4798 C641.4885,350.4798 669.16,365.56 683,370 C975.26,463.77 1083.13,313.26 1372,417 C1392.57,424.39 1412.56,438.61 1427.54,451.12 " fill="none" id="asdi::idb::query::relational::CriteriaValue-asdi::edb::Constant" style="stroke:#A80036;stroke-width:1.0;"/><polygon fill="#A80036" points="1437.49,459.8,1433.3342,450.8709,1433.721,456.5145,1428.0774,456.9013,1437.49,459.8" style="stroke:#A80036;stroke-width:1.0;"/><line style="stroke:#A80036;stroke-width:1.0;" x1="1433.721" x2="1427.7" y1="456.5145" y2="451.26"/><polygon fill="none" points="631.3,344.14,634.281,350.7061,641.4885,350.4798,638.5076,343.9137,631.3,344.14" style="stroke:#A80036;stroke-width:1.0;"/><!--MD5=[8822d909611bb8073e3ee09e541cf007]
link asdi::idb::query::relational::Criteria to asdi::idb::query::relational::CriteriaValue--><path codeLine="65" d="M489.25,311 C489.25,311 496.03,311 498.87,311 " fill="none" id="asdi::idb::query::relational::Criteria-asdi::idb::query::relational::CriteriaValue" style="stroke:#A80036;stroke-width:1.0;"/><polygon fill="#A80036" points="512.17,311,503.17,307,507.17,311,503.17,315,512.17,311" style="stroke:#A80036;stroke-width:1.0;"/><line style="stroke:#A80036;stroke-width:1.0;" x1="507.17" x2="499.17" y1="311" y2="311"/><polygon fill="#A80036" points="477.25,311,483.25,315,489.25,311,483.25,307,477.25,311" style="stroke:#A80036;stroke-width:1.0;"/><!--MD5=[ee1bc98f446527dccb9006fe06e269a9]
link asdi::idb::query::relational::Criteria to asdi::idb::ComparisonOperator--><path codeLine="66" d="M462.894,344.2338 C462.894,344.2338 482.99,364.31 495,370 C624.47,431.34 998.56,384.11 1138,417 C1173.08,425.27 1210.72,441.15 1238.29,454.2 " fill="none" id="asdi::idb::query::relational::Criteria-asdi::idb::ComparisonOperator" style="stroke:#A80036;stroke-width:1.0;"/><polygon fill="#A80036" points="1250.2,459.97,1243.8461,452.4449,1245.7007,457.789,1240.3565,459.6437,1250.2,459.97" style="stroke:#A80036;stroke-width:1.0;"/><line style="stroke:#A80036;stroke-width:1.0;" x1="1245.7007" x2="1238.495" y1="457.789" y2="454.305"/><polygon fill="#A80036" points="455.23,335,455.9841,342.1716,462.894,344.2338,462.1399,337.0622,455.23,335" style="stroke:#A80036;stroke-width:1.0;"/><!--MD5=[92fa2e32e826e01a3dd5ed2104269db3]
link asdi::idb::query::relational::Join to asdi::idb::query::relational::RelationalOp--><path codeLine="68" d="M356.088,276.1236 C356.088,276.1236 379.1,241.11 396.67,232 C449.4,204.65 874.8,213.76 931.33,232 C941.41,235.25 951.35,239.82 960.88,245.12 " fill="none" id="asdi::idb::query::relational::Join-asdi::idb::query::relational::RelationalOp" style="stroke:#A80036;stroke-width:1.0;"/><polygon fill="#A80036" points="972.28,251.93,966.6008,243.8835,967.9862,249.368,962.5017,250.7535,972.28,251.93" style="stroke:#A80036;stroke-width:1.0;"/><line style="stroke:#A80036;stroke-width:1.0;" x1="967.9862" x2="961.12" y1="249.368" y2="245.265"/><polygon fill="#A80036" points="350.59,286.79,356.8945,283.2895,356.088,276.1236,349.7835,279.6241,350.59,286.79" style="stroke:#A80036;stroke-width:1.0;"/><!--MD5=[92fa2e32e826e01a3dd5ed2104269db3]
link asdi::idb::query::relational::Join to asdi::idb::query::relational::RelationalOp--><path codeLine="69" d="M354.6548,275.7516 C354.6548,275.7516 383.38,225.21 408.33,212 C458.55,185.42 866.15,192.94 919.67,212 C939.1,218.92 957.67,230.44 974.19,243.22 " fill="none" id="asdi::idb::query::relational::Join-asdi::idb::query::relational::RelationalOp-1" style="stroke:#A80036;stroke-width:1.0;"/><polygon fill="#A80036" points="984.73,251.76,980.2566,242.9857,980.8456,248.6118,975.2195,249.2008,984.73,251.76" style="stroke:#A80036;stroke-width:1.0;"/><line style="stroke:#A80036;stroke-width:1.0;" x1="980.8456" x2="974.635" y1="248.6118" y2="243.575"/><polygon fill="#A80036" points="349.72,286.69,355.8335,282.8658,354.6548,275.7516,348.5413,279.5759,349.72,286.69" style="stroke:#A80036;stroke-width:1.0;"/><!--MD5=[85ea4e0bfc34bb287c145dfe0df8a5bc]
link asdi::idb::query::relational::Join to asdi::idb::query::relational::Criteria--><path codeLine="70" d="M379.68,311 C379.68,311 386.9,311 389.89,311 " fill="none" id="asdi::idb::query::relational::Join-asdi::idb::query::relational::Criteria" style="stroke:#A80036;stroke-width:1.0;"/><polygon fill="#A80036" points="402.99,311,393.99,307,397.99,311,393.99,315,402.99,311" style="stroke:#A80036;stroke-width:1.0;"/><line style="stroke:#A80036;stroke-width:1.0;" x1="397.99" x2="389.99" y1="311" y2="311"/><polygon fill="#A80036" points="367.68,311,373.68,315,379.68,311,373.68,307,367.68,311" style="stroke:#A80036;stroke-width:1.0;"/><text fill="#000000" font-family="sans-serif" font-size="13" lengthAdjust="spacing" textLength="6" x="389.113" y="307.1224">*</text><!--MD5=[4c941b465e5faeb007211a2b065720c1]
link asdi::idb::query::relational::Projection to asdi::idb::query::relational::RelationalOp--><path codeLine="72" d="M765.0298,276.9011 C765.0298,276.9011 799.72,233.09 824.5,222 C865.47,203.66 883.01,207.53 925.5,222 C940.63,227.15 955.32,235.17 968.86,244.34 " fill="none" id="asdi::idb::query::relational::Projection-asdi::idb::query::relational::RelationalOp" style="stroke:#A80036;stroke-width:1.0;"/><polygon fill="#A80036" points="979.47,251.9,974.4692,243.4152,975.4006,248.9948,969.8209,249.9263,979.47,251.9" style="stroke:#A80036;stroke-width:1.0;"/><line style="stroke:#A80036;stroke-width:1.0;" x1="975.4006" x2="968.885" y1="248.9948" y2="244.355"/><polygon fill="#A80036" points="758.41,286.91,765.0562,284.1122,765.0298,276.9011,758.3836,279.6989,758.41,286.91" style="stroke:#A80036;stroke-width:1.0;"/><!--MD5=[fc0fe8b024ba00c88f12f200a200a282]
link asdi::idb::query::relational::Projection to asdi::edb::Attribute--><path codeLine="73" d="M770.991,343.8022 C770.991,343.8022 793.92,364.32 807,370 C1095.09,494.98 1226.03,287.24 1512,417 C1527.59,424.07 1541.32,437.29 1551.51,449.32 " fill="none" id="asdi::idb::query::relational::Projection-asdi::edb::Attribute" style="stroke:#A80036;stroke-width:1.0;"/><polygon fill="#A80036" points="1559.82,459.83,1557.3719,450.2902,1556.7173,455.9091,1551.0985,455.2545,1559.82,459.83" style="stroke:#A80036;stroke-width:1.0;"/><line style="stroke:#A80036;stroke-width:1.0;" x1="1556.7173" x2="1551.76" y1="455.9091" y2="449.635"/><polygon fill="#A80036" points="762.76,335.07,763.9647,342.1798,770.991,343.8022,769.7862,336.6924,762.76,335.07" style="stroke:#A80036;stroke-width:1.0;"/><text fill="#000000" font-family="sans-serif" font-size="13" lengthAdjust="spacing" textLength="71" x="1473.2044" y="449.2658">attributes *</text><!--MD5=[2b1ab3e63f4cc732e6c2e72749bb5dc6]
link asdi::idb::query::relational::Selection to asdi::idb::query::relational::RelationalOp--><path codeLine="75" d="M257.0909,276.796 C257.0909,276.796 290.35,233.09 314.5,222 C376.2,193.67 861.24,200.11 925.5,222 C940.63,227.15 955.32,235.17 968.86,244.34 " fill="none" id="asdi::idb::query::relational::Selection-asdi::idb::query::relational::RelationalOp" style="stroke:#A80036;stroke-width:1.0;"/><polygon fill="#A80036" points="979.47,251.9,974.4692,243.4152,975.4006,248.9948,969.8209,249.9263,979.47,251.9" style="stroke:#A80036;stroke-width:1.0;"/><line style="stroke:#A80036;stroke-width:1.0;" x1="975.4006" x2="968.885" y1="248.9948" y2="244.355"/><polygon fill="#A80036" points="250.68,286.94,257.2668,284.005,257.0909,276.796,250.5041,279.731,250.68,286.94" style="stroke:#A80036;stroke-width:1.0;"/><!--MD5=[97e2d803ffbd594876f5f7399f0985cf]
link asdi::idb::query::relational::Selection to asdi::idb::query::relational::Criteria--><path codeLine="76" d="M257.0909,276.796 C257.0909,276.796 290.35,233.09 314.5,222 C335.91,212.17 346.22,211.89 367.5,222 C390.86,233.1 409.17,255.83 421.55,275.53 " fill="none" id="asdi::idb::query::relational::Selection-asdi::idb::query::relational::Criteria" style="stroke:#A80036;stroke-width:1.0;"/><polygon fill="#A80036" points="428.31,286.98,427.1722,277.1971,425.7651,282.6761,420.286,281.269,428.31,286.98" style="stroke:#A80036;stroke-width:1.0;"/><line style="stroke:#A80036;stroke-width:1.0;" x1="425.7651" x2="421.695" y1="282.6761" y2="275.785"/><polygon fill="#A80036" points="250.68,286.94,257.2668,284.005,257.0909,276.796,250.5041,279.731,250.68,286.94" style="stroke:#A80036;stroke-width:1.0;"/><!--MD5=[8a35751e96a474dc0e9c8e0307f58b4a]
link asdi::idb::query::relational::FactOps to asdi::idb::query::relational::Projection--><path codeLine="78" d="M313.1,176.53 C329.62,181.76 349.13,187.58 367,192 C505.77,226.33 555.54,187.28 683,252 C697.88,259.55 711.72,271.77 722.54,283.05 " fill="none" id="asdi::idb::query::relational::FactOps-to-asdi::idb::query::relational::Projection" style="stroke:#A80036;stroke-width:1.0;stroke-dasharray:7.0,7.0;"/><polygon fill="#A80036" points="726.08,286.83,722.8245,277.5347,722.6532,283.189,716.9989,283.0177,726.08,286.83" style="stroke:#A80036;stroke-width:1.0;"/><!--MD5=[98a349fb7b3579f218551a45eed2865c]
link asdi::idb::query::relational::FactOps to asdi::idb::query::relational::Selection--><path codeLine="79" d="M269.29,182.65 C263.06,208.02 252.02,252.95 244.86,282.09 " fill="none" id="asdi::idb::query::relational::FactOps-to-asdi::idb::query::relational::Selection" style="stroke:#A80036;stroke-width:1.0;stroke-dasharray:7.0,7.0;"/><polygon fill="#A80036" points="243.66,286.98,249.7019,279.2021,244.8592,282.1259,241.9354,277.2833,243.66,286.98" style="stroke:#A80036;stroke-width:1.0;"/><!--MD5=[fe91c1602b052606edd77161f25563f5]
reverse link asdi::idb::query::Row to asdi::idb::query::relational::FactOps--><path codeLine="80" d="M263.64,78.26 C260.39,96.81 260.46,124.07 263.83,142.29 " fill="none" id="asdi::idb::query::Row-backto-asdi::idb::query::relational::FactOps" style="stroke:#A80036;stroke-width:1.0;stroke-dasharray:7.0,7.0;"/><polygon fill="#A80036" points="264.64,73.27,258.9436,81.3044,263.6539,78.1718,266.7865,82.8821,264.64,73.27" style="stroke:#A80036;stroke-width:1.0;"/><!--MD5=[32dc3c17679ec60b61bc7586aad85b94]
link asdi::idb::query::Row to asdi::idb::query::relational::FactOps--><path codeLine="81" d="M283.91,73.27 C287.06,86.16 288.14,105.19 287.14,122.28 " fill="none" id="asdi::idb::query::Row-to-asdi::idb::query::relational::FactOps" style="stroke:#A80036;stroke-width:1.0;stroke-dasharray:7.0,7.0;"/><polygon fill="none" points="294.08,123.25,284.77,142.29,280.17,121.6,294.08,123.25" style="stroke:#A80036;stroke-width:1.0;"/><!--MD5=[b580b5cd5d3f5c339a7a0ac51a82856d]
link asdi::idb::query::relational::RelationalOps to asdi::idb::query::relational::Criteria--><path codeLine="83" d="M440,182.65 C440,207.92 440,252.58 440,281.73 " fill="none" id="asdi::idb::query::relational::RelationalOps-to-asdi::idb::query::relational::Criteria" style="stroke:#A80036;stroke-width:1.0;stroke-dasharray:7.0,7.0;"/><polygon fill="#A80036" points="440,286.98,444,277.98,440,281.98,436,277.98,440,286.98" style="stroke:#A80036;stroke-width:1.0;"/><!--MD5=[64154133c40c7c85413f120ea4d6f68f]
link asdi::idb::query::relational::RelationalOps to asdi::idb::query::relational::Projection--><path codeLine="84" d="M495.93,176.95 C547.12,190.82 623.7,215.59 683,252 C696.88,260.52 710.33,272.5 721.14,283.35 " fill="none" id="asdi::idb::query::relational::RelationalOps-to-asdi::idb::query::relational::Projection" style="stroke:#A80036;stroke-width:1.0;stroke-dasharray:7.0,7.0;"/><polygon fill="#A80036" points="724.69,286.98,721.229,277.7593,721.1832,283.416,715.5265,283.3702,724.69,286.98" style="stroke:#A80036;stroke-width:1.0;"/><!--MD5=[ee8bbddd14062cd558b42032b40fd3f5]
link asdi::idb::query::relational::RelationalOps to asdi::idb::query::relational::Selection--><path codeLine="85" d="M404.47,182.55 C374.62,199.22 331.45,224.96 297,252 C285.13,261.32 273.06,272.76 262.96,283.02 " fill="none" id="asdi::idb::query::relational::RelationalOps-to-asdi::idb::query::relational::Selection" style="stroke:#A80036;stroke-width:1.0;stroke-dasharray:7.0,7.0;"/><polygon fill="#A80036" points="259.33,286.73,268.4862,283.1018,262.8296,283.1589,262.7725,277.5024,259.33,286.73" style="stroke:#A80036;stroke-width:1.0;"/><!--MD5=[5c2f3bde2afbac6a5878bebcfba5f9f0]
reverse link asdi::idb::query::View to asdi::idb::query::relational::RelationalOps--><path codeLine="86" d="M429.64,78.26 C426.39,96.81 426.46,124.07 429.83,142.29 " fill="none" id="asdi::idb::query::View-backto-asdi::idb::query::relational::RelationalOps" style="stroke:#A80036;stroke-width:1.0;stroke-dasharray:7.0,7.0;"/><polygon fill="#A80036" points="430.64,73.27,424.9436,81.3044,429.6539,78.1718,432.7865,82.8821,430.64,73.27" style="stroke:#A80036;stroke-width:1.0;"/><!--MD5=[d71d7198d3667343b6a210d317dc9e0e]
link asdi::idb::query::View to asdi::idb::query::relational::RelationalOps--><path codeLine="87" d="M449.91,73.27 C453.06,86.16 454.14,105.19 453.14,122.28 " fill="none" id="asdi::idb::query::View-to-asdi::idb::query::relational::RelationalOps" style="stroke:#A80036;stroke-width:1.0;stroke-dasharray:7.0,7.0;"/><polygon fill="none" points="460.08,123.25,450.77,142.29,446.17,121.6,460.08,123.25" style="stroke:#A80036;stroke-width:1.0;"/><!--MD5=[5845aed5ac32b4eb5798021a697076da]
link asdi::idb::query::relational::RelationSink to asdi::idb::query::relational::RelationalOp--><path codeLine="89" d="M937.58,311 C937.58,311 944.25,311 947.07,311 " fill="none" id="asdi::idb::query::relational::RelationSink-asdi::idb::query::relational::RelationalOp" style="stroke:#A80036;stroke-width:1.0;"/><polygon fill="#A80036" points="960.29,311,951.29,307,955.29,311,951.29,315,960.29,311" style="stroke:#A80036;stroke-width:1.0;"/><line style="stroke:#A80036;stroke-width:1.0;" x1="955.29" x2="947.29" y1="311" y2="311"/><polygon fill="#A80036" points="925.58,311,931.58,315,937.58,311,931.58,307,925.58,311" style="stroke:#A80036;stroke-width:1.0;"/><!--MD5=[5d1360014f9a437be450c738c098928b]
link asdi::idb::query::relational::RelationSink to asdi::edb::PredicateRef--><path codeLine="90" d="M903.5621,343.4055 C903.5621,343.4055 928.81,364.21 943,370 C1225.97,485.42 1345.22,303.6 1629,417 C1647.16,424.26 1664.13,438.07 1676.82,450.4 " fill="none" id="asdi::idb::query::relational::RelationSink-asdi::edb::PredicateRef" style="stroke:#A80036;stroke-width:1.0;"/><polygon fill="#A80036" points="1686.01,459.81,1682.5818,450.577,1682.5159,456.2335,1676.8594,456.1676,1686.01,459.81" style="stroke:#A80036;stroke-width:1.0;"/><line style="stroke:#A80036;stroke-width:1.0;" x1="1682.5159" x2="1676.935" y1="456.2335" y2="450.51"/><polygon fill="#A80036" points="894.92,335.08,896.4659,342.1234,903.5621,343.4055,902.0162,336.362,894.92,335.08" style="stroke:#A80036;stroke-width:1.0;"/><!--MD5=[4a2aff7a5d8bf975eefe8771ae265b13]
link asdi::idb::query::relational::relational to asdi::ProgramCore--><path codeLine="96" d="M1092.65,192.15 C1125.17,208.63 1165.99,230.32 1201,252 C1220.89,264.32 1242.38,279.81 1258.22,291.69 " fill="none" id="asdi::idb::query::relational::relational-to-asdi::ProgramCore" style="stroke:#A80036;stroke-width:1.0;stroke-dasharray:7.0,7.0;"/><polygon fill="#A80036" points="1262.54,294.94,1257.74,286.34,1258.54,291.94,1252.94,292.74,1262.54,294.94" style="stroke:#A80036;stroke-width:1.0;"/><!--MD5=[b1878357f78b9e3d89883561fe9644c5]
@startuml

!include options.plantuml

interface asdi::ProgramCore
hide "asdi::ProgramCore" members

interface asdi::edb::Attribute
hide "asdi::edb::Attribute" members

interface asdi::edb::Constant
hide "asdi::edb::Constant" members

interface asdi::edb::PredicateRef
hide "asdi::edb::PredicateRef" members

enum asdi::idb::ComparisonOperator
hide "asdi::idb::ComparisonOperator" members

interface asdi::idb::query::Row
hide "asdi::idb::query::Row" members

interface asdi::idb::query::View
hide "asdi::idb::query::View" members

namespace asdi::idb::query::relational {
    interface FactOps
    interface RelationalOps

    class RelationSource
    class SetOperation
    class Selection
    class Projection
    class Join
    class RelationSink

    class Criteria
    enum CriteriaValue {
        Value : asdi::edb::Constant
        Index : usize
    }

    enum SetOperator {
        Union
        Intersection
        Different
        CartesianProduct
    }

    enum RelationalOp {
        Relation : RelationSource
        SetOperation : SetOperation
        Selection : Selection
        Projection : Projection
        Join : Join
        Sink : RelationSink
    }

    RelationSource o-> asdi::edb::PredicateRef

    SetOperation *-> RelationalOp
    SetOperation *-> RelationalOp
    SetOperation *-down-> SetOperator

    CriteriaValue o-down-> asdi::edb::Constant
    Criteria *-> CriteriaValue
    Criteria *-down-> asdi::idb::ComparisonOperator

    Join *-> RelationalOp
    Join *-> RelationalOp
    Join *-> "*" Criteria

    Projection *-> RelationalOp
    Projection *-down-> "attributes *" asdi::edb::Attribute

    Selection *-> RelationalOp
    Selection *-> Criteria

    FactOps ..> Projection
    FactOps ..> Selection
    FactOps .up.> asdi::idb::query::Row
    FactOps <|.up. asdi::idb::query::Row

    RelationalOps ..> Criteria
    RelationalOps ..> Projection
    RelationalOps ..> Selection
    RelationalOps .up.> asdi::idb::query::View
    RelationalOps <|.up. asdi::idb::query::View

    RelationSink *-> RelationalOp
    RelationSink *-> asdi::edb::PredicateRef

    class relational << module >> {
        program_to_graphviz(): String
    }

    relational .down.> asdi::ProgramCore
}

@enduml

@startuml

set namespaceSeparator ::
hide enum methods
hide interface fields
hide << const >> members
hide << type >> members
hide << type >> stereotype
hide << module >> fields
hide << module >> circle

interface asdi::ProgramCore
hide "asdi::ProgramCore" members

interface asdi::edb::Attribute
hide "asdi::edb::Attribute" members

interface asdi::edb::Constant
hide "asdi::edb::Constant" members

interface asdi::edb::PredicateRef
hide "asdi::edb::PredicateRef" members

enum asdi::idb::ComparisonOperator
hide "asdi::idb::ComparisonOperator" members

interface asdi::idb::query::Row
hide "asdi::idb::query::Row" members

interface asdi::idb::query::View
hide "asdi::idb::query::View" members

namespace asdi::idb::query::relational {
    interface FactOps
    interface RelationalOps

    class RelationSource
    class SetOperation
    class Selection
    class Projection
    class Join
    class RelationSink

    class Criteria
    enum CriteriaValue {
        Value : asdi::edb::Constant
        Index : usize
    }

    enum SetOperator {
        Union
        Intersection
        Different
        CartesianProduct
    }

    enum RelationalOp {
        Relation : RelationSource
        SetOperation : SetOperation
        Selection : Selection
        Projection : Projection
        Join : Join
        Sink : RelationSink
    }

    RelationSource o-> asdi::edb::PredicateRef

    SetOperation *-> RelationalOp
    SetOperation *-> RelationalOp
    SetOperation *-down-> SetOperator

    CriteriaValue o-down-> asdi::edb::Constant
    Criteria *-> CriteriaValue
    Criteria *-down-> asdi::idb::ComparisonOperator

    Join *-> RelationalOp
    Join *-> RelationalOp
    Join *-> "*" Criteria

    Projection *-> RelationalOp
    Projection *-down-> "attributes *" asdi::edb::Attribute

    Selection *-> RelationalOp
    Selection *-> Criteria

    FactOps ..> Projection
    FactOps ..> Selection
    FactOps .up.> asdi::idb::query::Row
    FactOps <|.up. asdi::idb::query::Row

    RelationalOps ..> Criteria
    RelationalOps ..> Projection
    RelationalOps ..> Selection
    RelationalOps .up.> asdi::idb::query::View
    RelationalOps <|.up. asdi::idb::query::View

    RelationSink *-> RelationalOp
    RelationSink *-> asdi::edb::PredicateRef

    class relational << module >> {
        program_to_graphviz(): String
    }

    relational .down.> asdi::ProgramCore
}

@enduml

PlantUML version 1.2022.1(Tue Feb 01 10:19:58 PST 2022)
(GPL source distribution)
Java Runtime: OpenJDK Runtime Environment
JVM: OpenJDK 64-Bit Server VM
Default Encoding: UTF-8
Language: en
Country: US
--></g></svg>