<?xml version="1.0" encoding="UTF-8" standalone="no"?><svg xmlns="http://www.w3.org/2000/svg" xmlns:xlink="http://www.w3.org/1999/xlink" contentScriptType="application/ecmascript" contentStyleType="text/css" height="394px" preserveAspectRatio="none" style="width:791px;height:394px;background:#FFFFFF;" version="1.1" viewBox="0 0 791 394" width="791px" zoomAndPan="magnify"><defs><filter height="300%" id="f1jcq6uh8vwvmv" width="300%" x="-1" y="-1"><feGaussianBlur result="blurOut" stdDeviation="2.0"/><feColorMatrix in="blurOut" result="blurOut2" type="matrix" values="0 0 0 0 0 0 0 0 0 0 0 0 0 0 0 0 0 0 .4 0"/><feOffset dx="4.0" dy="4.0" in="blurOut2" result="blurOut3"/><feBlend in="SourceGraphic" in2="blurOut3" mode="normal"/></filter></defs><g><!--MD5=[e274c4916ac42ef1c11391a83d303c10]
cluster asdi--><polygon fill="#FFFFFF" filter="url(#f1jcq6uh8vwvmv)" points="39,304,75,304,82,326.4883,352,326.4883,352,387,39,387,39,304" style="stroke:#000000;stroke-width:1.5;"/><line style="stroke:#000000;stroke-width:1.5;" x1="39" x2="82" y1="326.4883" y2="326.4883"/><text fill="#000000" font-family="sans-serif" font-size="14" font-weight="bold" lengthAdjust="spacing" textLength="30" x="43" y="319.5352">asdi</text><!--MD5=[ae3c197a01158459eb2ddb806e23d6f2]
cluster asdi::idb--><polygon fill="#FFFFFF" filter="url(#f1jcq6uh8vwvmv)" points="16,6,81,6,88,28.4883,421,28.4883,421,280,16,280,16,6" style="stroke:#000000;stroke-width:1.5;"/><line style="stroke:#000000;stroke-width:1.5;" x1="16" x2="88" y1="28.4883" y2="28.4883"/><text fill="#000000" font-family="sans-serif" font-size="14" font-weight="bold" lengthAdjust="spacing" textLength="59" x="20" y="21.5352">asdi::idb</text><!--MD5=[331bdf5c2291f41e90a08533bcc43e12]
cluster asdi::idb::query--><polygon fill="#FFFFFF" filter="url(#f1jcq6uh8vwvmv)" points="113,49,159,49,166,71.4883,397,71.4883,397,256,113,256,113,49" style="stroke:#000000;stroke-width:1.5;"/><line style="stroke:#000000;stroke-width:1.5;" x1="113" x2="166" y1="71.4883" y2="71.4883"/><text fill="#000000" font-family="sans-serif" font-size="14" font-weight="bold" lengthAdjust="spacing" textLength="40" x="117" y="64.5352">query</text><!--MD5=[6bc3af5db4038e5494ba0622f07de59b]
cluster asdi::edb--><polygon fill="#FFFFFF" filter="url(#f1jcq6uh8vwvmv)" points="445,165,513,165,520,187.4883,774,187.4883,774,248,445,248,445,165" style="stroke:#000000;stroke-width:1.5;"/><line style="stroke:#000000;stroke-width:1.5;" x1="445" x2="520" y1="187.4883" y2="187.4883"/><text fill="#000000" font-family="sans-serif" font-size="14" font-weight="bold" lengthAdjust="spacing" textLength="62" x="449" y="180.5352">asdi::edb</text><!--MD5=[e8289714b7028f41fbfaeffd8c17c76d]
class asdi::Collection--><rect codeLine="4" fill="#FEFECE" filter="url(#f1jcq6uh8vwvmv)" height="32" id="asdi::Collection" style="stroke:#A80036;stroke-width:1.5;" width="99" x="236.5" y="339"/><ellipse cx="251.5" cy="355" fill="#B4A7E5" rx="11" ry="11" style="stroke:#A80036;stroke-width:1.0;"/><path d="M247.9277,351.2651 L247.9277,349.1069 L255.3071,349.1069 L255.3071,351.2651 L252.8418,351.2651 L252.8418,359.3418 L255.3071,359.3418 L255.3071,361.5 L247.9277,361.5 L247.9277,359.3418 L250.3931,359.3418 L250.3931,351.2651 Z " fill="#000000"/><text fill="#000000" font-family="sans-serif" font-size="12" font-style="italic" lengthAdjust="spacing" textLength="55" x="265.5" y="359.5352">Collection</text><rect fill="#FFFFFF" height="16.1328" style="stroke:#000000;stroke-width:1.0;stroke-dasharray:2.0,2.0;" width="10" x="328.5" y="336"/><text fill="#000000" font-family="sans-serif" font-size="12" font-style="italic" lengthAdjust="spacing" textLength="8" x="329.5" y="348.6016">T</text><!--MD5=[ee47b5577acc389a92c0b1543b9a2c9a]
class asdi::IndexedCollection--><rect codeLine="7" fill="#FEFECE" filter="url(#f1jcq6uh8vwvmv)" height="32" id="asdi::IndexedCollection" style="stroke:#A80036;stroke-width:1.5;" width="146" x="55" y="339"/><ellipse cx="70" cy="355" fill="#B4A7E5" rx="11" ry="11" style="stroke:#A80036;stroke-width:1.0;"/><path d="M66.4277,351.2651 L66.4277,349.1069 L73.8071,349.1069 L73.8071,351.2651 L71.3418,351.2651 L71.3418,359.3418 L73.8071,359.3418 L73.8071,361.5 L66.4277,361.5 L66.4277,359.3418 L68.8931,359.3418 L68.8931,351.2651 Z " fill="#000000"/><text fill="#000000" font-family="sans-serif" font-size="12" font-style="italic" lengthAdjust="spacing" textLength="102" x="84" y="359.5352">IndexedCollection</text><rect fill="#FFFFFF" height="16.1328" style="stroke:#000000;stroke-width:1.0;stroke-dasharray:2.0,2.0;" width="10" x="194" y="336"/><text fill="#000000" font-family="sans-serif" font-size="12" font-style="italic" lengthAdjust="spacing" textLength="8" x="195" y="348.6016">T</text><!--MD5=[bf8372b32c4a37b4dcf0167e8fccb41e]
class asdi::idb::Atom--><rect codeLine="10" fill="#FEFECE" filter="url(#f1jcq6uh8vwvmv)" height="32" id="asdi::idb::Atom" style="stroke:#A80036;stroke-width:1.5;" width="62" x="32" y="200"/><ellipse cx="47" cy="216" fill="#B4A7E5" rx="11" ry="11" style="stroke:#A80036;stroke-width:1.0;"/><path d="M43.4277,212.2651 L43.4277,210.1069 L50.8071,210.1069 L50.8071,212.2651 L48.3418,212.2651 L48.3418,220.3418 L50.8071,220.3418 L50.8071,222.5 L43.4277,222.5 L43.4277,220.3418 L45.8931,220.3418 L45.8931,212.2651 Z " fill="#000000"/><text fill="#000000" font-family="sans-serif" font-size="12" font-style="italic" lengthAdjust="spacing" textLength="30" x="61" y="220.5352">Atom</text><!--MD5=[ce86c1ef97f092853a1a6c77d28b6c27]
class asdi::idb::query::Queryable--><rect codeLine="20" fill="#FEFECE" filter="url(#f1jcq6uh8vwvmv)" height="40" id="asdi::idb::query::Queryable" style="stroke:#A80036;stroke-width:1.5;" width="91" x="171.5" y="88"/><ellipse cx="186.5" cy="104" fill="#B4A7E5" rx="11" ry="11" style="stroke:#A80036;stroke-width:1.0;"/><path d="M182.9277,100.2651 L182.9277,98.1069 L190.3071,98.1069 L190.3071,100.2651 L187.8418,100.2651 L187.8418,108.3418 L190.3071,108.3418 L190.3071,110.5 L182.9277,110.5 L182.9277,108.3418 L185.3931,108.3418 L185.3931,100.2651 Z " fill="#000000"/><text fill="#000000" font-family="sans-serif" font-size="12" font-style="italic" lengthAdjust="spacing" textLength="59" x="200.5" y="108.5352">Queryable</text><line style="stroke:#A80036;stroke-width:1.5;" x1="172.5" x2="261.5" y1="120" y2="120"/><!--MD5=[942727c1e5dca949354fc2e6ef4102b1]
class asdi::idb::query::Query--><rect codeLine="22" fill="#FEFECE" filter="url(#f1jcq6uh8vwvmv)" height="48" id="asdi::idb::query::Query" style="stroke:#A80036;stroke-width:1.5;" width="66" x="315" y="192"/><ellipse cx="330" cy="208" fill="#ADD1B2" rx="11" ry="11" style="stroke:#A80036;stroke-width:1.0;"/><path d="M332.4731,214.1431 Q331.8921,214.4419 331.2529,214.5913 Q330.6138,214.7407 329.9082,214.7407 Q327.4014,214.7407 326.0815,213.0889 Q324.7617,211.437 324.7617,208.3159 Q324.7617,205.1865 326.0815,203.5347 Q327.4014,201.8828 329.9082,201.8828 Q330.6138,201.8828 331.2612,202.0322 Q331.9087,202.1816 332.4731,202.4805 L332.4731,205.2031 Q331.8423,204.6221 331.2488,204.3523 Q330.6553,204.0825 330.0244,204.0825 Q328.6797,204.0825 327.9949,205.1492 Q327.3101,206.2158 327.3101,208.3159 Q327.3101,210.4077 327.9949,211.4744 Q328.6797,212.541 330.0244,212.541 Q330.6553,212.541 331.2488,212.2712 Q331.8423,212.0015 332.4731,211.4204 Z " fill="#000000"/><text fill="#000000" font-family="sans-serif" font-size="12" lengthAdjust="spacing" textLength="34" x="344" y="212.5352">Query</text><line style="stroke:#A80036;stroke-width:1.5;" x1="316" x2="380" y1="224" y2="224"/><line style="stroke:#A80036;stroke-width:1.5;" x1="316" x2="380" y1="232" y2="232"/><!--MD5=[862f5ba143deaa96c11c433d25830988]
class asdi::idb::query::QuerySet--><rect codeLine="23" fill="#FEFECE" filter="url(#f1jcq6uh8vwvmv)" height="48" id="asdi::idb::query::QuerySet" style="stroke:#A80036;stroke-width:1.5;" width="83" x="297.5" y="84"/><ellipse cx="312.5" cy="100" fill="#ADD1B2" rx="11" ry="11" style="stroke:#A80036;stroke-width:1.0;"/><path d="M314.9731,106.1431 Q314.3921,106.4419 313.7529,106.5913 Q313.1138,106.7407 312.4082,106.7407 Q309.9014,106.7407 308.5815,105.0889 Q307.2617,103.437 307.2617,100.3159 Q307.2617,97.1865 308.5815,95.5347 Q309.9014,93.8828 312.4082,93.8828 Q313.1138,93.8828 313.7612,94.0322 Q314.4087,94.1816 314.9731,94.4805 L314.9731,97.2031 Q314.3423,96.6221 313.7488,96.3523 Q313.1553,96.0825 312.5244,96.0825 Q311.1797,96.0825 310.4949,97.1492 Q309.8101,98.2158 309.8101,100.3159 Q309.8101,102.4077 310.4949,103.4744 Q311.1797,104.541 312.5244,104.541 Q313.1553,104.541 313.7488,104.2712 Q314.3423,104.0015 314.9731,103.4204 Z " fill="#000000"/><text fill="#000000" font-family="sans-serif" font-size="12" lengthAdjust="spacing" textLength="51" x="326.5" y="104.5352">QuerySet</text><line style="stroke:#A80036;stroke-width:1.5;" x1="298.5" x2="379.5" y1="116" y2="116"/><line style="stroke:#A80036;stroke-width:1.5;" x1="298.5" x2="379.5" y1="124" y2="124"/><!--MD5=[7e8d97ac1a083739443b45fa6a2a74f0]
class asdi::idb::query::Row--><rect codeLine="24" fill="#FEFECE" filter="url(#f1jcq6uh8vwvmv)" height="48" id="asdi::idb::query::Row" style="stroke:#A80036;stroke-width:1.5;" width="56" x="129" y="192"/><ellipse cx="144" cy="208" fill="#ADD1B2" rx="11" ry="11" style="stroke:#A80036;stroke-width:1.0;"/><path d="M146.4731,214.1431 Q145.8921,214.4419 145.2529,214.5913 Q144.6138,214.7407 143.9082,214.7407 Q141.4014,214.7407 140.0815,213.0889 Q138.7617,211.437 138.7617,208.3159 Q138.7617,205.1865 140.0815,203.5347 Q141.4014,201.8828 143.9082,201.8828 Q144.6138,201.8828 145.2612,202.0322 Q145.9087,202.1816 146.4731,202.4805 L146.4731,205.2031 Q145.8423,204.6221 145.2488,204.3523 Q144.6553,204.0825 144.0244,204.0825 Q142.6797,204.0825 141.9949,205.1492 Q141.3101,206.2158 141.3101,208.3159 Q141.3101,210.4077 141.9949,211.4744 Q142.6797,212.541 144.0244,212.541 Q144.6553,212.541 145.2488,212.2712 Q145.8423,212.0015 146.4731,211.4204 Z " fill="#000000"/><text fill="#000000" font-family="sans-serif" font-size="12" lengthAdjust="spacing" textLength="24" x="158" y="212.5352">Row</text><line style="stroke:#A80036;stroke-width:1.5;" x1="130" x2="184" y1="224" y2="224"/><line style="stroke:#A80036;stroke-width:1.5;" x1="130" x2="184" y1="232" y2="232"/><!--MD5=[17ff6db730189734784f7494d7fbb9fe]
class asdi::idb::query::View--><rect codeLine="25" fill="#FEFECE" filter="url(#f1jcq6uh8vwvmv)" height="48" id="asdi::idb::query::View" style="stroke:#A80036;stroke-width:1.5;" width="59" x="220.5" y="192"/><ellipse cx="235.5" cy="208" fill="#ADD1B2" rx="11" ry="11" style="stroke:#A80036;stroke-width:1.0;"/><path d="M237.9731,214.1431 Q237.3921,214.4419 236.7529,214.5913 Q236.1138,214.7407 235.4082,214.7407 Q232.9014,214.7407 231.5815,213.0889 Q230.2617,211.437 230.2617,208.3159 Q230.2617,205.1865 231.5815,203.5347 Q232.9014,201.8828 235.4082,201.8828 Q236.1138,201.8828 236.7612,202.0322 Q237.4087,202.1816 237.9731,202.4805 L237.9731,205.2031 Q237.3423,204.6221 236.7488,204.3523 Q236.1553,204.0825 235.5244,204.0825 Q234.1797,204.0825 233.4949,205.1492 Q232.8101,206.2158 232.8101,208.3159 Q232.8101,210.4077 233.4949,211.4744 Q234.1797,212.541 235.5244,212.541 Q236.1553,212.541 236.7488,212.2712 Q237.3423,212.0015 237.9731,211.4204 Z " fill="#000000"/><text fill="#000000" font-family="sans-serif" font-size="12" lengthAdjust="spacing" textLength="27" x="249.5" y="212.5352">View</text><line style="stroke:#A80036;stroke-width:1.5;" x1="221.5" x2="278.5" y1="224" y2="224"/><line style="stroke:#A80036;stroke-width:1.5;" x1="221.5" x2="278.5" y1="232" y2="232"/><!--MD5=[58db58f43e0c0eeeb327af7bc687dbb7]
class asdi::edb::Constant--><rect codeLine="13" fill="#FEFECE" filter="url(#f1jcq6uh8vwvmv)" height="32" id="asdi::edb::Constant" style="stroke:#A80036;stroke-width:1.5;" width="82" x="461" y="200"/><ellipse cx="476" cy="216" fill="#B4A7E5" rx="11" ry="11" style="stroke:#A80036;stroke-width:1.0;"/><path d="M472.4277,212.2651 L472.4277,210.1069 L479.8071,210.1069 L479.8071,212.2651 L477.3418,212.2651 L477.3418,220.3418 L479.8071,220.3418 L479.8071,222.5 L472.4277,222.5 L472.4277,220.3418 L474.8931,220.3418 L474.8931,212.2651 Z " fill="#000000"/><text fill="#000000" font-family="sans-serif" font-size="12" font-style="italic" lengthAdjust="spacing" textLength="50" x="490" y="220.5352">Constant</text><!--MD5=[8ef57b1f3eaf719c194464ff4bed18b5]
class asdi::edb::Schema--><rect codeLine="16" fill="#FEFECE" filter="url(#f1jcq6uh8vwvmv)" height="32" id="asdi::edb::Schema" style="stroke:#A80036;stroke-width:1.5;" width="180" x="578" y="200"/><ellipse cx="593" cy="216" fill="#ADD1B2" rx="11" ry="11" style="stroke:#A80036;stroke-width:1.0;"/><path d="M595.4731,222.1431 Q594.8921,222.4419 594.2529,222.5913 Q593.6138,222.7407 592.9082,222.7407 Q590.4014,222.7407 589.0815,221.0889 Q587.7617,219.437 587.7617,216.3159 Q587.7617,213.1865 589.0815,211.5347 Q590.4014,209.8828 592.9082,209.8828 Q593.6138,209.8828 594.2612,210.0322 Q594.9087,210.1816 595.4731,210.4805 L595.4731,213.2031 Q594.8423,212.6221 594.2488,212.3523 Q593.6553,212.0825 593.0244,212.0825 Q591.6797,212.0825 590.9949,213.1492 Q590.3101,214.2158 590.3101,216.3159 Q590.3101,218.4077 590.9949,219.4744 Q591.6797,220.541 593.0244,220.541 Q593.6553,220.541 594.2488,220.2712 Q594.8423,220.0015 595.4731,219.4204 Z " fill="#000000"/><text fill="#000000" font-family="sans-serif" font-size="12" lengthAdjust="spacing" textLength="44" x="607" y="220.5352">Schema</text><rect fill="#FFFFFF" height="16.1328" style="stroke:#000000;stroke-width:1.0;stroke-dasharray:2.0,2.0;" width="102" x="659" y="197"/><text fill="#000000" font-family="sans-serif" font-size="12" font-style="italic" lengthAdjust="spacing" textLength="100" x="660" y="209.6016">T: AttributeName</text><!--MD5=[cab836703e22892997befe3680cced48]
link asdi::idb::query::Queryable to asdi::idb::query::Query--><path codeLine="27" d="M254.03,128.03 C268.13,136.08 283.94,146.11 297,157 C307.82,166.02 318.35,177.4 327,187.69 " fill="none" id="asdi::idb::query::Queryable-to-asdi::idb::query::Query" style="stroke:#A80036;stroke-width:1.0;stroke-dasharray:7.0,7.0;"/><polygon fill="#A80036" points="330.34,191.73,327.6755,182.2484,327.1489,187.8807,321.5167,187.3541,330.34,191.73" style="stroke:#A80036;stroke-width:1.0;"/><!--MD5=[bda1fac64ef5101ec3d8ebc6abfb2735]
link asdi::idb::query::Queryable to asdi::idb::query::View--><path codeLine="28" d="M223.05,128.44 C228.16,144.83 235.52,168.49 241.26,186.94 " fill="none" id="asdi::idb::query::Queryable-to-asdi::idb::query::View" style="stroke:#A80036;stroke-width:1.0;stroke-dasharray:7.0,7.0;"/><polygon fill="#A80036" points="242.84,191.99,243.9835,182.2077,241.3535,187.2161,236.3452,184.5861,242.84,191.99" style="stroke:#A80036;stroke-width:1.0;"/><!--MD5=[fdda12137b0c39eef0460bc9f9632988]
link asdi::idb::query::Query to asdi::idb::Atom--><path codeLine="30" d="M327.1441,182.2518 C327.1441,182.2518 298.73,150.66 279.5,144.5 C247.97,134.4 162.03,134.4 130.5,144.5 C108.18,151.65 90.38,171.7 78.68,188.76 " fill="none" id="asdi::idb::query::Query-asdi::idb::Atom" style="stroke:#A80036;stroke-width:1.0;"/><polygon fill="#A80036" points="71.57,199.89,79.7861,194.4591,74.2618,195.6764,73.0445,190.1521,71.57,199.89" style="stroke:#A80036;stroke-width:1.0;"/><line style="stroke:#A80036;stroke-width:1.0;" x1="74.2618" x2="78.565" y1="195.6764" y2="188.93"/><polygon fill="#A80036" points="334.17,191.98,333.8998,184.774,327.1441,182.2518,327.4143,189.4579,334.17,191.98" style="stroke:#A80036;stroke-width:1.0;"/><!--MD5=[b45cd48a1ce29f5809b42b7b512fe8db]
link asdi::idb::query::Query to asdi::Collection--><path codeLine="31" d="M337.48,240.24 C327.55,262.19 312.54,295.36 301.29,320.22 " fill="none" id="asdi::idb::query::Query-to-asdi::Collection" style="stroke:#A80036;stroke-width:1.0;stroke-dasharray:7.0,7.0;"/><polygon fill="none" points="307.53,323.4,292.91,338.73,294.78,317.63,307.53,323.4" style="stroke:#A80036;stroke-width:1.0;"/><!--MD5=[96555ac9112c7fd07fdaeb4dc4348af9]
link asdi::idb::query::QuerySet to asdi::idb::query::Query--><path codeLine="33" d="M341.9651,143.957 C341.9651,143.957 344,167.94 344.92,178.72 " fill="none" id="asdi::idb::query::QuerySet-asdi::idb::query::Query" style="stroke:#A80036;stroke-width:1.0;"/><polygon fill="#A80036" points="346.02,191.68,349.2435,182.3736,345.5966,186.698,341.2722,183.0511,346.02,191.68" style="stroke:#A80036;stroke-width:1.0;"/><line style="stroke:#A80036;stroke-width:1.0;" x1="345.5966" x2="344.92" y1="186.698" y2="178.725"/><polygon fill="#A80036" points="340.95,132,337.4719,138.3169,341.9651,143.957,345.4432,137.6401,340.95,132" style="stroke:#A80036;stroke-width:1.0;"/><text fill="#000000" font-family="sans-serif" font-size="13" lengthAdjust="spacing" textLength="6" x="338.7439" y="181.1343">*</text><!--MD5=[02c3f4880c3c603eae4a2e15cb041bbe]
link asdi::idb::query::Row to asdi::edb::Constant--><path codeLine="35" d="M175.2251,181.7033 C175.2251,181.7033 198.41,153.88 214.67,148.67 C250.78,137.09 348.7,138.85 385.33,148.67 C416.69,157.07 448.34,176.15 470.75,191.87 " fill="none" id="asdi::idb::query::Row-asdi::edb::Constant" style="stroke:#A80036;stroke-width:1.0;"/><polygon fill="#A80036" points="481.57,199.7,476.6158,191.1879,477.5166,196.7725,471.9319,197.6733,481.57,199.7" style="stroke:#A80036;stroke-width:1.0;"/><line style="stroke:#A80036;stroke-width:1.0;" x1="477.5166" x2="471.045" y1="196.7725" y2="192.08"/><polygon fill="#A80036" points="168.74,191.8,175.3481,188.9133,175.2251,181.7033,168.617,184.5899,168.74,191.8" style="stroke:#A80036;stroke-width:1.0;"/><text fill="#000000" font-family="sans-serif" font-size="13" lengthAdjust="spacing" textLength="6" x="468.3894" y="189.1539">*</text><!--MD5=[1a76ed3df1719aeaf47c657b979f8421]
link asdi::idb::query::Row to asdi::Collection--><path codeLine="36" d="M168.15,240.27 C176.23,255.29 188.29,274.49 203,288 C208.56,293.11 211.76,291.75 218,296 C230.84,304.75 244.03,315.52 255.34,325.4 " fill="none" id="asdi::idb::query::Row-to-asdi::Collection" style="stroke:#A80036;stroke-width:1.0;stroke-dasharray:7.0,7.0;"/><polygon fill="none" points="260.14,320.3,270.31,338.9,250.77,330.7,260.14,320.3" style="stroke:#A80036;stroke-width:1.0;"/><!--MD5=[c56daa0a73720ff4188f983cdb61a81f]
link asdi::idb::query::Row to asdi::IndexedCollection--><path codeLine="37" d="M152.08,240.24 C147.5,261.86 140.62,294.36 135.39,319.1 " fill="none" id="asdi::idb::query::Row-to-asdi::IndexedCollection" style="stroke:#A80036;stroke-width:1.0;stroke-dasharray:7.0,7.0;"/><polygon fill="none" points="142.22,320.62,131.23,338.73,128.53,317.72,142.22,320.62" style="stroke:#A80036;stroke-width:1.0;"/><!--MD5=[ca4279113530d02d48343d8894248548]
link asdi::idb::query::View to asdi::idb::query::Row--><path codeLine="40" d="M208.45,216 C208.45,216 201.47,216 198.5,216 " fill="none" id="asdi::idb::query::View-asdi::idb::query::Row" style="stroke:#A80036;stroke-width:1.0;"/><polygon fill="#A80036" points="185.34,216,194.34,220,190.34,216,194.34,212,185.34,216" style="stroke:#A80036;stroke-width:1.0;"/><line style="stroke:#A80036;stroke-width:1.0;" x1="190.34" x2="198.34" y1="216" y2="216"/><polygon fill="#A80036" points="220.45,216,214.45,212,208.45,216,214.45,220,220.45,216" style="stroke:#A80036;stroke-width:1.0;"/><text fill="#000000" font-family="sans-serif" font-size="13" lengthAdjust="spacing" textLength="6" x="192.9791" y="211.7781">*</text><!--MD5=[69a916891174dbc8b8fc33bb73e780cb]
link asdi::idb::query::View to asdi::edb::Schema--><path codeLine="41" d="M269.0889,181.9039 C269.0889,181.9039 293.17,153.95 309.67,148.67 C335.03,140.54 523.59,141.87 549.33,148.67 C581.27,157.1 613.62,176.32 636.46,192.08 " fill="none" id="asdi::idb::query::View-asdi::edb::Schema" style="stroke:#A80036;stroke-width:1.0;"/><polygon fill="#A80036" points="647.18,199.7,642.164,191.2242,643.1054,196.8021,637.5274,197.7435,647.18,199.7" style="stroke:#A80036;stroke-width:1.0;"/><line style="stroke:#A80036;stroke-width:1.0;" x1="643.1054" x2="636.585" y1="196.8021" y2="192.165"/><polygon fill="#A80036" points="262.39,191.86,269.0582,189.1149,269.0889,181.9039,262.4208,184.649,262.39,191.86" style="stroke:#A80036;stroke-width:1.0;"/><!--MD5=[031acd8eb780048bcf0d1952de1d6d4e]
link asdi::idb::query::View to asdi::Collection--><path codeLine="42" d="M256.11,240.24 C261.79,261.86 270.33,294.36 276.83,319.1 " fill="none" id="asdi::idb::query::View-to-asdi::Collection" style="stroke:#A80036;stroke-width:1.0;stroke-dasharray:7.0,7.0;"/><polygon fill="none" points="283.68,317.61,281.99,338.73,270.14,321.17,283.68,317.61" style="stroke:#A80036;stroke-width:1.0;"/><!--MD5=[a237993aef8701ff00664824601c4095]
@startuml

!include options.plantuml

interface asdi::Collection<T>
hide "asdi::Collection" members

interface asdi::IndexedCollection<T>
hide "asdi::IndexedCollection" members

interface asdi::idb::Atom
hide "asdi::idb::Atom" members

interface asdi::edb::Constant
hide "asdi::edb::Constant" members

class asdi::edb::Schema<T: AttributeName>
hide "asdi::edb::Schema" members

namespace asdi::idb::query {
    interface Queryable

    class Query
    class QuerySet
    class Row
    class View

    Queryable ..> Query
    Queryable ..> View

    Query *-> asdi::idb::Atom
    Query ..|> asdi::Collection

    QuerySet *-down-> "*" Query

    Row *-> "*" asdi::edb::Constant
    Row ..|> asdi::Collection
    Row ..|> asdi::IndexedCollection
  ' Row ..|> asdi::idb::query::relational::FactOps

    View *-> "*" Row
    View *-> asdi::edb::Schema
    View ..|> asdi::Collection
  ' View ..|> asdi::idb::query::relational::RelationalOps
}

@enduml

@startuml

set namespaceSeparator ::
hide enum methods
hide interface fields
hide << const >> members
hide << type >> members
hide << type >> stereotype
hide << module >> fields
hide << module >> circle

interface asdi::Collection<T>
hide "asdi::Collection" members

interface asdi::IndexedCollection<T>
hide "asdi::IndexedCollection" members

interface asdi::idb::Atom
hide "asdi::idb::Atom" members

interface asdi::edb::Constant
hide "asdi::edb::Constant" members

class asdi::edb::Schema<T: AttributeName>
hide "asdi::edb::Schema" members

namespace asdi::idb::query {
    interface Queryable

    class Query
    class QuerySet
    class Row
    class View

    Queryable ..> Query
    Queryable ..> View

    Query *-> asdi::idb::Atom
    Query ..|> asdi::Collection

    QuerySet *-down-> "*" Query

    Row *-> "*" asdi::edb::Constant
    Row ..|> asdi::Collection
    Row ..|> asdi::IndexedCollection

    View *-> "*" Row
    View *-> asdi::edb::Schema
    View ..|> asdi::Collection
}

@enduml

PlantUML version 1.2022.1(Tue Feb 01 10:19:58 PST 2022)
(GPL source distribution)
Java Runtime: OpenJDK Runtime Environment
JVM: OpenJDK 64-Bit Server VM
Default Encoding: UTF-8
Language: en
Country: US
--></g></svg>