<?xml version="1.0" encoding="UTF-8" standalone="no"?><svg xmlns="http://www.w3.org/2000/svg" xmlns:xlink="http://www.w3.org/1999/xlink" contentScriptType="application/ecmascript" contentStyleType="text/css" height="415px" preserveAspectRatio="none" style="width:1073px;height:415px;background:#FFFFFF;" version="1.1" viewBox="0 0 1073 415" width="1073px" zoomAndPan="magnify"><defs><filter height="300%" id="f1kdf8lalitxl" width="300%" x="-1" y="-1"><feGaussianBlur result="blurOut" stdDeviation="2.0"/><feColorMatrix in="blurOut" result="blurOut2" type="matrix" values="0 0 0 0 0 0 0 0 0 0 0 0 0 0 0 0 0 0 .4 0"/><feOffset dx="4.0" dy="4.0" in="blurOut2" result="blurOut3"/><feBlend in="SourceGraphic" in2="blurOut3" mode="normal"/></filter></defs><g><!--MD5=[1e6a036aa3aa611a9250da69f11f3a39]
cluster std::rc--><polygon fill="#FFFFFF" filter="url(#f1kdf8lalitxl)" points="16,6,64,6,71,28.4883,94,28.4883,94,89,16,89,16,6" style="stroke:#000000;stroke-width:1.5;"/><line style="stroke:#000000;stroke-width:1.5;" x1="16" x2="71" y1="28.4883" y2="28.4883"/><text fill="#000000" font-family="sans-serif" font-size="14" font-weight="bold" lengthAdjust="spacing" textLength="42" x="20" y="21.5352">std::rc</text><!--MD5=[af63c64fec698275cfc4891f303451d3]
cluster asdi::features--><polygon fill="#FFFFFF" filter="url(#f1kdf8lalitxl)" points="118,6,219,6,226,28.4883,242,28.4883,242,89,118,89,118,6" style="stroke:#000000;stroke-width:1.5;"/><line style="stroke:#000000;stroke-width:1.5;" x1="118" x2="226" y1="28.4883" y2="28.4883"/><text fill="#000000" font-family="sans-serif" font-size="14" font-weight="bold" lengthAdjust="spacing" textLength="95" x="122" y="21.5352">asdi::features</text><!--MD5=[6bc3af5db4038e5494ba0622f07de59b]
cluster asdi::edb--><polygon fill="#FFFFFF" filter="url(#f1kdf8lalitxl)" points="266,6,334,6,341,28.4883,570,28.4883,570,89,266,89,266,6" style="stroke:#000000;stroke-width:1.5;"/><line style="stroke:#000000;stroke-width:1.5;" x1="266" x2="341" y1="28.4883" y2="28.4883"/><text fill="#000000" font-family="sans-serif" font-size="14" font-weight="bold" lengthAdjust="spacing" textLength="62" x="270" y="21.5352">asdi::edb</text><!--MD5=[ae3c197a01158459eb2ddb806e23d6f2]
cluster asdi::idb--><polygon fill="#FFFFFF" filter="url(#f1kdf8lalitxl)" points="594,6,659,6,666,28.4883,700,28.4883,700,89,594,89,594,6" style="stroke:#000000;stroke-width:1.5;"/><line style="stroke:#000000;stroke-width:1.5;" x1="594" x2="666" y1="28.4883" y2="28.4883"/><text fill="#000000" font-family="sans-serif" font-size="14" font-weight="bold" lengthAdjust="spacing" textLength="59" x="598" y="21.5352">asdi::idb</text><!--MD5=[331bdf5c2291f41e90a08533bcc43e12]
cluster asdi::idb::query--><polygon fill="#FFFFFF" filter="url(#f1kdf8lalitxl)" points="724,6,835,6,842,28.4883,845,28.4883,845,89,724,89,724,6" style="stroke:#000000;stroke-width:1.5;"/><line style="stroke:#000000;stroke-width:1.5;" x1="724" x2="842" y1="28.4883" y2="28.4883"/><text fill="#000000" font-family="sans-serif" font-size="14" font-weight="bold" lengthAdjust="spacing" textLength="105" x="728" y="21.5352">asdi::idb::query</text><!--MD5=[e274c4916ac42ef1c11391a83d303c10]
cluster asdi--><polygon fill="#FFFFFF" filter="url(#f1kdf8lalitxl)" points="99,138,135,138,142,160.4883,1056,160.4883,1056,408,99,408,99,138" style="stroke:#000000;stroke-width:1.5;"/><line style="stroke:#000000;stroke-width:1.5;" x1="99" x2="142" y1="160.4883" y2="160.4883"/><text fill="#000000" font-family="sans-serif" font-size="14" font-weight="bold" lengthAdjust="spacing" textLength="30" x="103" y="153.5352">asdi</text><!--MD5=[6be383e268f8aabc33c1bb5eb944e487]
class std::rc::Rc--><rect codeLine="4" fill="#FEFECE" filter="url(#f1kdf8lalitxl)" height="32" id="std::rc::Rc" style="stroke:#A80036;stroke-width:1.5;" width="46" x="32" y="41"/><ellipse cx="47" cy="57" fill="#ADD1B2" rx="11" ry="11" style="stroke:#A80036;stroke-width:1.0;"/><path d="M49.4731,63.1431 Q48.8921,63.4419 48.2529,63.5913 Q47.6138,63.7407 46.9082,63.7407 Q44.4014,63.7407 43.0815,62.0889 Q41.7617,60.437 41.7617,57.3159 Q41.7617,54.1865 43.0815,52.5347 Q44.4014,50.8828 46.9082,50.8828 Q47.6138,50.8828 48.2612,51.0322 Q48.9087,51.1816 49.4731,51.4805 L49.4731,54.2031 Q48.8423,53.6221 48.2488,53.3523 Q47.6553,53.0825 47.0244,53.0825 Q45.6797,53.0825 44.9949,54.1492 Q44.3101,55.2158 44.3101,57.3159 Q44.3101,59.4077 44.9949,60.4744 Q45.6797,61.541 47.0244,61.541 Q47.6553,61.541 48.2488,61.2712 Q48.8423,61.0015 49.4731,60.4204 Z " fill="#000000"/><text fill="#000000" font-family="sans-serif" font-size="12" lengthAdjust="spacing" textLength="14" x="61" y="61.5352">Rc</text><!--MD5=[10e3bb9f30c83b84488054de99f42877]
class asdi::features::FeatureSet--><rect codeLine="7" fill="#FEFECE" filter="url(#f1kdf8lalitxl)" height="32" id="asdi::features::FeatureSet" style="stroke:#A80036;stroke-width:1.5;" width="92" x="134" y="41"/><ellipse cx="149" cy="57" fill="#ADD1B2" rx="11" ry="11" style="stroke:#A80036;stroke-width:1.0;"/><path d="M151.4731,63.1431 Q150.8921,63.4419 150.2529,63.5913 Q149.6138,63.7407 148.9082,63.7407 Q146.4014,63.7407 145.0815,62.0889 Q143.7617,60.437 143.7617,57.3159 Q143.7617,54.1865 145.0815,52.5347 Q146.4014,50.8828 148.9082,50.8828 Q149.6138,50.8828 150.2612,51.0322 Q150.9087,51.1816 151.4731,51.4805 L151.4731,54.2031 Q150.8423,53.6221 150.2488,53.3523 Q149.6553,53.0825 149.0244,53.0825 Q147.6797,53.0825 146.9949,54.1492 Q146.3101,55.2158 146.3101,57.3159 Q146.3101,59.4077 146.9949,60.4744 Q147.6797,61.541 149.0244,61.541 Q149.6553,61.541 150.2488,61.2712 Q150.8423,61.0015 151.4731,60.4204 Z " fill="#000000"/><text fill="#000000" font-family="sans-serif" font-size="12" lengthAdjust="spacing" textLength="60" x="163" y="61.5352">FeatureSet</text><!--MD5=[6137f69857c1321f4d06c717c9c09db2]
class asdi::edb::RelationSet--><rect codeLine="10" fill="#FEFECE" filter="url(#f1kdf8lalitxl)" height="32" id="asdi::edb::RelationSet" style="stroke:#A80036;stroke-width:1.5;" width="95" x="458.5" y="41"/><ellipse cx="473.5" cy="57" fill="#ADD1B2" rx="11" ry="11" style="stroke:#A80036;stroke-width:1.0;"/><path d="M475.9731,63.1431 Q475.3921,63.4419 474.7529,63.5913 Q474.1138,63.7407 473.4082,63.7407 Q470.9014,63.7407 469.5815,62.0889 Q468.2617,60.437 468.2617,57.3159 Q468.2617,54.1865 469.5815,52.5347 Q470.9014,50.8828 473.4082,50.8828 Q474.1138,50.8828 474.7612,51.0322 Q475.4087,51.1816 475.9731,51.4805 L475.9731,54.2031 Q475.3423,53.6221 474.7488,53.3523 Q474.1553,53.0825 473.5244,53.0825 Q472.1797,53.0825 471.4949,54.1492 Q470.8101,55.2158 470.8101,57.3159 Q470.8101,59.4077 471.4949,60.4744 Q472.1797,61.541 473.5244,61.541 Q474.1553,61.541 474.7488,61.2712 Q475.3423,61.0015 475.9731,60.4204 Z " fill="#000000"/><text fill="#000000" font-family="sans-serif" font-size="12" lengthAdjust="spacing" textLength="63" x="487.5" y="61.5352">RelationSet</text><!--MD5=[e0d85c4bcf038627e4eac8520bbb7a23]
class asdi::edb::NameReferenceSet--><rect codeLine="13" fill="#FEFECE" filter="url(#f1kdf8lalitxl)" height="32" id="asdi::edb::NameReferenceSet" style="stroke:#A80036;stroke-width:1.5;" width="141" x="282.5" y="41"/><ellipse cx="297.5" cy="57" fill="#ADD1B2" rx="11" ry="11" style="stroke:#A80036;stroke-width:1.0;"/><path d="M299.9731,63.1431 Q299.3921,63.4419 298.7529,63.5913 Q298.1138,63.7407 297.4082,63.7407 Q294.9014,63.7407 293.5815,62.0889 Q292.2617,60.437 292.2617,57.3159 Q292.2617,54.1865 293.5815,52.5347 Q294.9014,50.8828 297.4082,50.8828 Q298.1138,50.8828 298.7612,51.0322 Q299.4087,51.1816 299.9731,51.4805 L299.9731,54.2031 Q299.3423,53.6221 298.7488,53.3523 Q298.1553,53.0825 297.5244,53.0825 Q296.1797,53.0825 295.4949,54.1492 Q294.8101,55.2158 294.8101,57.3159 Q294.8101,59.4077 295.4949,60.4744 Q296.1797,61.541 297.5244,61.541 Q298.1553,61.541 298.7488,61.2712 Q299.3423,61.0015 299.9731,60.4204 Z " fill="#000000"/><text fill="#000000" font-family="sans-serif" font-size="12" lengthAdjust="spacing" textLength="109" x="311.5" y="61.5352">NameReferenceSet</text><!--MD5=[30c8d4c59bd3776484494cc31a150236]
class asdi::idb::RuleSet--><rect codeLine="16" fill="#FEFECE" filter="url(#f1kdf8lalitxl)" height="32" id="asdi::idb::RuleSet" style="stroke:#A80036;stroke-width:1.5;" width="74" x="610" y="41"/><ellipse cx="625" cy="57" fill="#ADD1B2" rx="11" ry="11" style="stroke:#A80036;stroke-width:1.0;"/><path d="M627.4731,63.1431 Q626.8921,63.4419 626.2529,63.5913 Q625.6138,63.7407 624.9082,63.7407 Q622.4014,63.7407 621.0815,62.0889 Q619.7617,60.437 619.7617,57.3159 Q619.7617,54.1865 621.0815,52.5347 Q622.4014,50.8828 624.9082,50.8828 Q625.6138,50.8828 626.2612,51.0322 Q626.9087,51.1816 627.4731,51.4805 L627.4731,54.2031 Q626.8423,53.6221 626.2488,53.3523 Q625.6553,53.0825 625.0244,53.0825 Q623.6797,53.0825 622.9949,54.1492 Q622.3101,55.2158 622.3101,57.3159 Q622.3101,59.4077 622.9949,60.4744 Q623.6797,61.541 625.0244,61.541 Q625.6553,61.541 626.2488,61.2712 Q626.8423,61.0015 627.4731,60.4204 Z " fill="#000000"/><text fill="#000000" font-family="sans-serif" font-size="12" lengthAdjust="spacing" textLength="42" x="639" y="61.5352">RuleSet</text><!--MD5=[862f5ba143deaa96c11c433d25830988]
class asdi::idb::query::QuerySet--><rect codeLine="19" fill="#FEFECE" filter="url(#f1kdf8lalitxl)" height="32" id="asdi::idb::query::QuerySet" style="stroke:#A80036;stroke-width:1.5;" width="83" x="740.5" y="41"/><ellipse cx="755.5" cy="57" fill="#ADD1B2" rx="11" ry="11" style="stroke:#A80036;stroke-width:1.0;"/><path d="M757.9731,63.1431 Q757.3921,63.4419 756.7529,63.5913 Q756.1138,63.7407 755.4082,63.7407 Q752.9014,63.7407 751.5815,62.0889 Q750.2617,60.437 750.2617,57.3159 Q750.2617,54.1865 751.5815,52.5347 Q752.9014,50.8828 755.4082,50.8828 Q756.1138,50.8828 756.7612,51.0322 Q757.4087,51.1816 757.9731,51.4805 L757.9731,54.2031 Q757.3423,53.6221 756.7488,53.3523 Q756.1553,53.0825 755.5244,53.0825 Q754.1797,53.0825 753.4949,54.1492 Q752.8101,55.2158 752.8101,57.3159 Q752.8101,59.4077 753.4949,60.4744 Q754.1797,61.541 755.5244,61.541 Q756.1553,61.541 756.7488,61.2712 Q757.3423,61.0015 757.9731,60.4204 Z " fill="#000000"/><text fill="#000000" font-family="sans-serif" font-size="12" lengthAdjust="spacing" textLength="51" x="769.5" y="61.5352">QuerySet</text><!--MD5=[2110a1d684b71e50a272297f2c09c595]
class asdi::AttributeName--><rect codeLine="24" fill="#FEFECE" filter="url(#f1kdf8lalitxl)" height="65.9102" id="asdi::AttributeName" style="stroke:#A80036;stroke-width:1.5;" width="128" x="171" y="313"/><ellipse cx="191.4" cy="329" fill="#B4A7E5" rx="11" ry="11" style="stroke:#A80036;stroke-width:1.0;"/><path d="M187.8277,325.2651 L187.8277,323.1069 L195.2071,323.1069 L195.2071,325.2651 L192.7418,325.2651 L192.7418,333.3418 L195.2071,333.3418 L195.2071,335.5 L187.8277,335.5 L187.8277,333.3418 L190.2931,333.3418 L190.2931,325.2651 Z " fill="#000000"/><text fill="#000000" font-family="sans-serif" font-size="12" font-style="italic" lengthAdjust="spacing" textLength="84" x="206.6" y="333.5352">AttributeName</text><line style="stroke:#A80036;stroke-width:1.5;" x1="172" x2="298" y1="345" y2="345"/><text fill="#000000" font-family="sans-serif" font-size="11" lengthAdjust="spacing" textLength="116" x="177" y="359.6348">is_valid(s: &amp;str) : bool</text><text fill="#000000" font-family="sans-serif" font-size="11" lengthAdjust="spacing" textLength="98" x="177" y="372.5898">type_name() : &amp;str</text><!--MD5=[e8289714b7028f41fbfaeffd8c17c76d]
class asdi::Collection--><rect codeLine="28" fill="#FEFECE" filter="url(#f1kdf8lalitxl)" height="91.8203" id="asdi::Collection" style="stroke:#A80036;stroke-width:1.5;" width="126" x="884" y="300"/><ellipse cx="911.15" cy="316" fill="#B4A7E5" rx="11" ry="11" style="stroke:#A80036;stroke-width:1.0;"/><path d="M907.5777,312.2651 L907.5777,310.1069 L914.9571,310.1069 L914.9571,312.2651 L912.4918,312.2651 L912.4918,320.3418 L914.9571,320.3418 L914.9571,322.5 L907.5777,322.5 L907.5777,320.3418 L910.0431,320.3418 L910.0431,312.2651 Z " fill="#000000"/><text fill="#000000" font-family="sans-serif" font-size="12" font-style="italic" lengthAdjust="spacing" textLength="55" x="927.85" y="320.5352">Collection</text><rect fill="#FFFFFF" height="16.1328" style="stroke:#000000;stroke-width:1.0;stroke-dasharray:2.0,2.0;" width="10" x="1003" y="297"/><text fill="#000000" font-family="sans-serif" font-size="12" font-style="italic" lengthAdjust="spacing" textLength="8" x="1004" y="309.6016">T</text><line style="stroke:#A80036;stroke-width:1.5;" x1="885" x2="1009" y1="332" y2="332"/><text fill="#000000" font-family="sans-serif" font-size="11" lengthAdjust="spacing" textLength="89" x="890" y="346.6348">is_empty() : bool</text><text fill="#000000" font-family="sans-serif" font-size="11" lengthAdjust="spacing" textLength="61" x="890" y="359.5898">len() : usize</text><text fill="#000000" font-family="sans-serif" font-size="11" lengthAdjust="spacing" textLength="75" x="890" y="372.5449">iter() : Iterator</text><text fill="#000000" font-family="sans-serif" font-size="11" lengthAdjust="spacing" textLength="114" x="890" y="385.5">contains(v: &amp;T) : bool</text><!--MD5=[ee47b5577acc389a92c0b1543b9a2c9a]
class asdi::IndexedCollection--><rect codeLine="34" fill="#FEFECE" filter="url(#f1kdf8lalitxl)" height="65.9102" id="asdi::IndexedCollection" style="stroke:#A80036;stroke-width:1.5;" width="186" x="854" y="173"/><ellipse cx="881.6" cy="189" fill="#B4A7E5" rx="11" ry="11" style="stroke:#A80036;stroke-width:1.0;"/><path d="M878.0277,185.2651 L878.0277,183.1069 L885.4071,183.1069 L885.4071,185.2651 L882.9418,185.2651 L882.9418,193.3418 L885.4071,193.3418 L885.4071,195.5 L878.0277,195.5 L878.0277,193.3418 L880.4931,193.3418 L880.4931,185.2651 Z " fill="#000000"/><text fill="#000000" font-family="sans-serif" font-size="12" font-style="italic" lengthAdjust="spacing" textLength="102" x="898.4" y="193.5352">IndexedCollection</text><rect fill="#FFFFFF" height="16.1328" style="stroke:#000000;stroke-width:1.0;stroke-dasharray:2.0,2.0;" width="22" x="1021" y="170"/><text fill="#000000" font-family="sans-serif" font-size="12" font-style="italic" lengthAdjust="spacing" textLength="20" x="1022" y="182.6016">K,V</text><line style="stroke:#A80036;stroke-width:1.5;" x1="855" x2="1039" y1="205" y2="205"/><text fill="#000000" font-family="sans-serif" font-size="11" lengthAdjust="spacing" textLength="147" x="860" y="219.6348">get(index: &amp;K) : Option&lt;V&gt;</text><text fill="#000000" font-family="sans-serif" font-size="11" lengthAdjust="spacing" textLength="174" x="860" y="232.5898">contains_index(index: &amp;K) : bool</text><!--MD5=[a769fd774dc4e74f949d393dd195b319]
class asdi::Labeled--><rect codeLine="38" fill="#FEFECE" filter="url(#f1kdf8lalitxl)" height="65.9102" id="asdi::Labeled" style="stroke:#A80036;stroke-width:1.5;" width="141" x="677.5" y="173"/><ellipse cx="720.85" cy="189" fill="#B4A7E5" rx="11" ry="11" style="stroke:#A80036;stroke-width:1.0;"/><path d="M717.2777,185.2651 L717.2777,183.1069 L724.6571,183.1069 L724.6571,185.2651 L722.1918,185.2651 L722.1918,193.3418 L724.6571,193.3418 L724.6571,195.5 L717.2777,195.5 L717.2777,193.3418 L719.7431,193.3418 L719.7431,185.2651 Z " fill="#000000"/><text fill="#000000" font-family="sans-serif" font-size="12" font-style="italic" lengthAdjust="spacing" textLength="46" x="741.15" y="193.5352">Labeled</text><line style="stroke:#A80036;stroke-width:1.5;" x1="678.5" x2="817.5" y1="205" y2="205"/><text fill="#000000" font-family="sans-serif" font-size="11" lengthAdjust="spacing" textLength="91" x="683.5" y="219.6348">label() : Predicate</text><text fill="#000000" font-family="sans-serif" font-size="11" lengthAdjust="spacing" textLength="129" x="683.5" y="232.5898">label_ref() : PredicateRef</text><!--MD5=[a36ef1bdba718ac7a4b8a2af506f0d6e]
class asdi::MaybeAnonymous--><rect codeLine="42" fill="#FEFECE" filter="url(#f1kdf8lalitxl)" height="65.9102" id="asdi::MaybeAnonymous" style="stroke:#A80036;stroke-width:1.5;" width="136" x="506" y="173"/><ellipse cx="521" cy="189" fill="#B4A7E5" rx="11" ry="11" style="stroke:#A80036;stroke-width:1.0;"/><path d="M517.4277,185.2651 L517.4277,183.1069 L524.8071,183.1069 L524.8071,185.2651 L522.3418,185.2651 L522.3418,193.3418 L524.8071,193.3418 L524.8071,195.5 L517.4277,195.5 L517.4277,193.3418 L519.8931,193.3418 L519.8931,185.2651 Z " fill="#000000"/><text fill="#000000" font-family="sans-serif" font-size="12" font-style="italic" lengthAdjust="spacing" textLength="104" x="535" y="193.5352">MaybeAnonymous</text><line style="stroke:#A80036;stroke-width:1.5;" x1="507" x2="641" y1="205" y2="205"/><text fill="#000000" font-family="sans-serif" font-size="11" lengthAdjust="spacing" textLength="99" x="512" y="219.6348">anonymous() : Self</text><text fill="#000000" font-family="sans-serif" font-size="11" lengthAdjust="spacing" textLength="119" x="512" y="232.5898">is_anonymous() : bool</text><!--MD5=[fa1011c7bd77eedf14cd9274bd452e29]
class asdi::MaybePositive--><rect codeLine="46" fill="#FEFECE" filter="url(#f1kdf8lalitxl)" height="65.9102" id="asdi::MaybePositive" style="stroke:#A80036;stroke-width:1.5;" width="113" x="353.5" y="313"/><ellipse cx="368.5" cy="329" fill="#B4A7E5" rx="11" ry="11" style="stroke:#A80036;stroke-width:1.0;"/><path d="M364.9277,325.2651 L364.9277,323.1069 L372.3071,323.1069 L372.3071,325.2651 L369.8418,325.2651 L369.8418,333.3418 L372.3071,333.3418 L372.3071,335.5 L364.9277,335.5 L364.9277,333.3418 L367.3931,333.3418 L367.3931,325.2651 Z " fill="#000000"/><text fill="#000000" font-family="sans-serif" font-size="12" font-style="italic" lengthAdjust="spacing" textLength="81" x="382.5" y="333.5352">MaybePositive</text><line style="stroke:#A80036;stroke-width:1.5;" x1="354.5" x2="465.5" y1="345" y2="345"/><text fill="#000000" font-family="sans-serif" font-size="11" lengthAdjust="spacing" textLength="98" x="359.5" y="359.6348">is_positive() : bool</text><text fill="#000000" font-family="sans-serif" font-size="11" lengthAdjust="spacing" textLength="101" x="359.5" y="372.5898">is_negative() : bool</text><!--MD5=[91cc3482fb0350396608f11633162af9]
class asdi::ProgramCore--><rect codeLine="50" fill="#FEFECE" filter="url(#f1kdf8lalitxl)" height="91.8203" id="asdi::ProgramCore" style="stroke:#A80036;stroke-width:1.5;" width="158" x="502" y="300"/><ellipse cx="539.5" cy="316" fill="#B4A7E5" rx="11" ry="11" style="stroke:#A80036;stroke-width:1.0;"/><path d="M535.9277,312.2651 L535.9277,310.1069 L543.3071,310.1069 L543.3071,312.2651 L540.8418,312.2651 L540.8418,320.3418 L543.3071,320.3418 L543.3071,322.5 L535.9277,322.5 L535.9277,320.3418 L538.3931,320.3418 L538.3931,312.2651 Z " fill="#000000"/><text fill="#000000" font-family="sans-serif" font-size="12" font-style="italic" lengthAdjust="spacing" textLength="76" x="558.5" y="320.5352">ProgramCore</text><line style="stroke:#A80036;stroke-width:1.5;" x1="503" x2="659" y1="332" y2="332"/><text fill="#000000" font-family="sans-serif" font-size="11" lengthAdjust="spacing" textLength="125" x="508" y="346.6348">features() : &amp;FeatureSet</text><text fill="#000000" font-family="sans-serif" font-size="11" lengthAdjust="spacing" textLength="146" x="508" y="359.5898">extensional() : &amp;RelationSet</text><text fill="#000000" font-family="sans-serif" font-size="11" lengthAdjust="spacing" textLength="143" x="508" y="372.5449">intensional() : &amp;RelationSet</text><text fill="#000000" font-family="sans-serif" font-size="11" lengthAdjust="spacing" textLength="91" x="508" y="385.5">rules() : &amp;RuleSet</text><!--MD5=[619a18f3975bec44ed0f3b908af212c9]
class asdi::Program--><rect codeLine="59" fill="#FEFECE" filter="url(#f1kdf8lalitxl)" height="48" id="asdi::Program" style="stroke:#A80036;stroke-width:1.5;" width="81" x="389.5" y="182"/><ellipse cx="404.5" cy="198" fill="#ADD1B2" rx="11" ry="11" style="stroke:#A80036;stroke-width:1.0;"/><path d="M406.9731,204.1431 Q406.3921,204.4419 405.7529,204.5913 Q405.1138,204.7407 404.4082,204.7407 Q401.9014,204.7407 400.5815,203.0889 Q399.2617,201.437 399.2617,198.3159 Q399.2617,195.1865 400.5815,193.5347 Q401.9014,191.8828 404.4082,191.8828 Q405.1138,191.8828 405.7612,192.0322 Q406.4087,192.1816 406.9731,192.4805 L406.9731,195.2031 Q406.3423,194.6221 405.7488,194.3523 Q405.1553,194.0825 404.5244,194.0825 Q403.1797,194.0825 402.4949,195.1492 Q401.8101,196.2158 401.8101,198.3159 Q401.8101,200.4077 402.4949,201.4744 Q403.1797,202.541 404.5244,202.541 Q405.1553,202.541 405.7488,202.2712 Q406.3423,202.0015 406.9731,201.4204 Z " fill="#000000"/><text fill="#000000" font-family="sans-serif" font-size="12" lengthAdjust="spacing" textLength="49" x="418.5" y="202.5352">Program</text><line style="stroke:#A80036;stroke-width:1.5;" x1="390.5" x2="469.5" y1="214" y2="214"/><line style="stroke:#A80036;stroke-width:1.5;" x1="390.5" x2="469.5" y1="222" y2="222"/><!--MD5=[842cd022249741fa742cbf18a1c342e8]
class asdi::AttributeNameRef--><rect codeLine="71" fill="#FEFECE" filter="url(#f1kdf8lalitxl)" height="54.2656" id="asdi::AttributeNameRef" style="stroke:#A80036;stroke-width:1.5;" width="239" x="115.5" y="179"/><ellipse cx="130.5" cy="198.1328" fill="#ADD1B2" rx="11" ry="11" style="stroke:#A80036;stroke-width:1.0;"/><path d="M131.8418,205.3828 L129.3931,205.3828 L129.3931,195.1313 L126.2471,195.1313 L126.2471,192.9897 L134.9878,192.9897 L134.9878,195.1313 L131.8418,195.1313 Z " fill="#000000"/><text fill="#000000" font-family="sans-serif" font-size="12" font-style="italic" lengthAdjust="spacing" textLength="37" x="177.5" y="195.6016">«type»</text><text fill="#000000" font-family="sans-serif" font-size="12" lengthAdjust="spacing" textLength="103" x="144.5" y="209.7344">AttributeNameRef</text><rect fill="#FFFFFF" height="16.1328" style="stroke:#000000;stroke-width:1.0;stroke-dasharray:2.0,2.0;" width="102" x="255.5" y="176"/><text fill="#000000" font-family="sans-serif" font-size="12" font-style="italic" lengthAdjust="spacing" textLength="100" x="256.5" y="188.6016">T: AttributeName</text><line style="stroke:#A80036;stroke-width:1.5;" x1="116.5" x2="353.5" y1="217.2656" y2="217.2656"/><line style="stroke:#A80036;stroke-width:1.5;" x1="116.5" x2="353.5" y1="225.2656" y2="225.2656"/><!--MD5=[050da77a24a9253f629d0b4ed41f1d76]
link asdi::IndexedCollection to asdi::Collection--><path codeLine="57" d="M947,239.01 C947,251.15 947,265.46 947,279.58 " fill="none" id="asdi::IndexedCollection-to-asdi::Collection" style="stroke:#A80036;stroke-width:1.0;"/><polygon fill="none" points="954,279.84,947,299.84,940,279.84,954,279.84" style="stroke:#A80036;stroke-width:1.0;"/><!--MD5=[61548d7db5417584fce196914e269885]
link asdi::Program to asdi::ProgramCore--><path codeLine="61" d="M455.27,230.1 C472.04,245.42 494.86,266.28 516.45,286.01 " fill="none" id="asdi::Program-to-asdi::ProgramCore" style="stroke:#A80036;stroke-width:1.0;stroke-dasharray:7.0,7.0;"/><polygon fill="none" points="521.45,281.09,531.49,299.75,512,291.43,521.45,281.09" style="stroke:#A80036;stroke-width:1.0;"/><!--MD5=[44e9340b47c8de994572dde550f90837]
link asdi::Program to asdi::MaybePositive--><path codeLine="62" d="M426.65,230.1 C424.18,247.16 420.71,271.08 417.58,292.68 " fill="none" id="asdi::Program-to-asdi::MaybePositive" style="stroke:#A80036;stroke-width:1.0;stroke-dasharray:7.0,7.0;"/><polygon fill="none" points="424.47,293.98,414.67,312.77,410.61,291.98,424.47,293.98" style="stroke:#A80036;stroke-width:1.0;"/><!--MD5=[0e8eae3a4865af23d73d12e23b4ef6f3]
link asdi::features::FeatureSet to asdi::Program--><path codeLine="63" d="M222.69,78.62 C236.37,84.89 251.69,91.55 266,97 C312.11,114.56 331.48,101.85 372,130 C387.25,140.6 410.8482,171.8369 410.8482,171.8369 " fill="none" id="asdi::features::FeatureSet-asdi::Program" style="stroke:#A80036;stroke-width:1.0;"/><polygon fill="#A80036" points="417.37,181.91,417.4668,174.6995,410.8482,171.8369,410.7514,179.0474,417.37,181.91" style="stroke:#A80036;stroke-width:1.0;"/><polygon fill="#A80036" points="210.66,73.02,217.1315,80.4443,215.193,75.1299,220.5074,73.1914,210.66,73.02" style="stroke:#A80036;stroke-width:1.0;"/><line style="stroke:#A80036;stroke-width:1.0;" x1="215.193" x2="222.44" y1="75.1299" y2="78.505"/><!--MD5=[25a9534300ff5c62c672b75f369bea98]
link asdi::edb::RelationSet to asdi::Program--><path codeLine="64" d="M482.54,84.02 C466.93,107.9 436.7207,170.8221 436.7207,170.8221 " fill="none" id="asdi::edb::RelationSet-asdi::Program" style="stroke:#A80036;stroke-width:1.0;"/><polygon fill="#A80036" points="432.33,181.99,438.248,177.8696,436.7207,170.8221,430.8027,174.9425,432.33,181.99" style="stroke:#A80036;stroke-width:1.0;"/><polygon fill="#A80036" points="490.02,73.18,481.6201,78.3222,487.1834,77.2975,488.2081,82.8608,490.02,73.18" style="stroke:#A80036;stroke-width:1.0;"/><line style="stroke:#A80036;stroke-width:1.0;" x1="487.1834" x2="482.635" y1="77.2975" y2="83.88"/><text fill="#000000" font-family="sans-serif" font-size="13" lengthAdjust="spacing" textLength="73" x="496.8173" y="93.6438">extensional</text><!--MD5=[25a9534300ff5c62c672b75f369bea98]
link asdi::edb::RelationSet to asdi::Program--><path codeLine="65" d="M502.58,85.52 C493.4,109.66 458.5703,171.929 458.5703,171.929 " fill="none" id="asdi::edb::RelationSet-asdi::Program-1" style="stroke:#A80036;stroke-width:1.0;"/><polygon fill="#A80036" points="452.03,181.99,458.6538,179.1396,458.5703,171.929,451.9465,174.7794,452.03,181.99" style="stroke:#A80036;stroke-width:1.0;"/><polygon fill="#A80036" points="506.77,73.18,500.0864,80.4139,505.1609,77.914,507.6608,82.9885,506.77,73.18" style="stroke:#A80036;stroke-width:1.0;"/><line style="stroke:#A80036;stroke-width:1.0;" x1="505.1609" x2="502.59" y1="77.914" y2="85.485"/><text fill="#000000" font-family="sans-serif" font-size="13" lengthAdjust="spacing" textLength="70" x="425.4313" y="93.6438">intensional</text><!--MD5=[efc1d6cd5ab53e4796afe35910ade78f]
link asdi::edb::NameReferenceSet to asdi::Program--><path codeLine="66" d="M357.21,85.52 C366.74,109.66 401.849,171.923 401.849,171.923 " fill="none" id="asdi::edb::NameReferenceSet-asdi::Program" style="stroke:#A80036;stroke-width:1.0;"/><polygon fill="#A80036" points="408.38,181.99,408.4702,174.7795,401.849,171.923,401.7588,179.1335,408.38,181.99" style="stroke:#A80036;stroke-width:1.0;"/><polygon fill="#A80036" points="352.81,73.18,352.0592,83.0002,354.4865,77.8906,359.5961,80.3179,352.81,73.18" style="stroke:#A80036;stroke-width:1.0;"/><line style="stroke:#A80036;stroke-width:1.0;" x1="354.4865" x2="357.175" y1="77.8906" y2="85.425"/><text fill="#000000" font-family="sans-serif" font-size="13" lengthAdjust="spacing" textLength="65" x="276.9814" y="93.6438">predicates</text><!--MD5=[efc1d6cd5ab53e4796afe35910ade78f]
link asdi::edb::NameReferenceSet to asdi::Program--><path codeLine="67" d="M377.22,84.02 C393.19,107.9 423.6893,170.8221 423.6893,170.8221 " fill="none" id="asdi::edb::NameReferenceSet-asdi::Program-1" style="stroke:#A80036;stroke-width:1.0;"/><polygon fill="#A80036" points="428.08,181.99,429.6073,174.9425,423.6893,170.8221,422.162,177.8696,428.08,181.99" style="stroke:#A80036;stroke-width:1.0;"/><polygon fill="#A80036" points="369.56,73.18,371.4869,82.8385,372.4454,77.2635,378.0204,78.222,369.56,73.18" style="stroke:#A80036;stroke-width:1.0;"/><line style="stroke:#A80036;stroke-width:1.0;" x1="372.4454" x2="377.065" y1="77.2635" y2="83.795"/><text fill="#000000" font-family="sans-serif" font-size="13" lengthAdjust="spacing" textLength="56" x="384.3205" y="93.6438">variables</text><!--MD5=[47d67b57e64391ee44b6ee496dcf3aa9]
link asdi::idb::RuleSet to asdi::Program--><path codeLine="68" d="M609.58,79.82 C585.03,93.42 551.87,110.47 521,122 C507.27,127.13 501.31,122.03 489,130 C473.2,140.23 449.031,171.873 449.031,171.873 " fill="none" id="asdi::idb::RuleSet-asdi::Program" style="stroke:#A80036;stroke-width:1.0;"/><polygon fill="#A80036" points="442.5,181.94,449.1212,179.0835,449.031,171.873,442.4098,174.7295,442.5,181.94" style="stroke:#A80036;stroke-width:1.0;"/><polygon fill="#A80036" points="621.23,73.26,611.4247,74.1855,616.872,75.711,615.3464,81.1583,621.23,73.26" style="stroke:#A80036;stroke-width:1.0;"/><line style="stroke:#A80036;stroke-width:1.0;" x1="616.872" x2="609.9" y1="75.711" y2="79.635"/><!--MD5=[db0012e104fc500d241c4fecca4dc26a]
link asdi::idb::query::QuerySet to asdi::Program--><path codeLine="69" d="M743.32,78.93 C729.91,85.5 714.58,92.26 700,97 C642.38,115.72 625.96,113.31 566,122 C548.97,124.47 504.07,121.69 489,130 C472.12,139.31 447.8954,171.6201 447.8954,171.6201 " fill="none" id="asdi::idb::query::QuerySet-asdi::Program" style="stroke:#A80036;stroke-width:1.0;"/><polygon fill="#A80036" points="441.59,181.83,448.146,178.8268,447.8954,171.6201,441.3394,174.6233,441.59,181.83" style="stroke:#A80036;stroke-width:1.0;"/><polygon fill="#A80036" points="755.02,73.02,745.1831,73.5059,750.5567,75.2736,748.789,80.6472,755.02,73.02" style="stroke:#A80036;stroke-width:1.0;"/><line style="stroke:#A80036;stroke-width:1.0;" x1="750.5567" x2="743.42" y1="75.2736" y2="78.88"/><!--MD5=[ea3dd3916790a7fa38abd10f335f7fad]
reverse link std::rc::Rc to asdi::AttributeNameRef--><path codeLine="72" d="M77.69,76.53 C109.34,102.38 166.9,149.39 202.93,178.81 " fill="none" id="std::rc::Rc-backto-asdi::AttributeNameRef" style="stroke:#A80036;stroke-width:1.0;stroke-dasharray:7.0,7.0;"/><polygon fill="#A80036" points="73.59,73.18,78.0368,81.9678,77.4649,76.34,83.0927,75.768,73.59,73.18" style="stroke:#A80036;stroke-width:1.0;"/><text fill="#000000" font-family="sans-serif" font-size="13" lengthAdjust="spacing" textLength="29" x="130" y="118.5684">base</text><!--MD5=[011ca43a3a27a88ec64181b14c315f9b]
link asdi::AttributeNameRef to asdi::AttributeName--><path codeLine="73" d="M235,245.28 C235,245.28 235,282.52 235,299.75 " fill="none" id="asdi::AttributeNameRef-asdi::AttributeName" style="stroke:#A80036;stroke-width:1.0;"/><polygon fill="#A80036" points="235,312.99,239,303.99,235,307.99,231,303.99,235,312.99" style="stroke:#A80036;stroke-width:1.0;"/><line style="stroke:#A80036;stroke-width:1.0;" x1="235" x2="235" y1="307.99" y2="299.99"/><polygon fill="none" points="235,233.28,231,239.28,235,245.28,239,239.28,235,233.28" style="stroke:#A80036;stroke-width:1.0;"/><!--MD5=[3d27b7ff1fc2bc66a10ddb28f4d8b5dc]
@startuml

!include options.plantuml

class std::rc::Rc
hide "std::rc::Rc" members

class asdi::features::FeatureSet
hide "asdi::features::FeatureSet" members

class asdi::edb::RelationSet
hide "asdi::edb::RelationSet" members

class asdi::edb::NameReferenceSet
hide "asdi::edb::NameReferenceSet" members

class asdi::idb::RuleSet
hide "asdi::idb::RuleSet" members

class asdi::idb::query::QuerySet
hide "asdi::idb::query::QuerySet" members

namespace asdi {

    interface AttributeName {
        is_valid(s: &str) : bool
        type_name() : &str
    }
    interface Collection<T> {
        is_empty() : bool
        len() : usize
        iter() : Iterator<&T>
        contains(v: &T) : bool
    }
    interface IndexedCollection<K,V> {
        get(index: &K) : Option<V>
        contains_index(index: &K) : bool
    }
    interface Labeled {
        label() : Predicate
        label_ref() : PredicateRef
    }
    interface MaybeAnonymous {
        anonymous() : Self
        is_anonymous() : bool
    }
    interface MaybePositive {
        is_positive() : bool
        is_negative() : bool
    }
    interface ProgramCore {
        features() : &FeatureSet
        extensional() : &RelationSet
        intensional() : &RelationSet
        rules() : &RuleSet
    }

    IndexedCollection - -|> Collection

    class Program

    Program ..|> ProgramCore
    Program ..|> MaybePositive
    Program *-up-> asdi::features::FeatureSet
    Program *-up-> "extensional" asdi::edb::RelationSet
    Program *-up-> "intensional" asdi::edb::RelationSet
    Program *-up-> "predicates" asdi::edb::NameReferenceSet
    Program *-up-> "variables" asdi::edb::NameReferenceSet
    Program *-up-> asdi::idb::RuleSet
    Program *-up-> asdi::idb::query::QuerySet

    class AttributeNameRef<T: AttributeName> << (T,#ADD1B2) type>>
    AttributeNameRef .up.> std::rc::Rc : base
    AttributeNameRef o-down-> AttributeName
}

@enduml

@startuml

set namespaceSeparator ::
hide enum methods
hide interface fields
hide << const >> members
hide << type >> members
hide << type >> stereotype
hide << module >> fields
hide << module >> circle

class std::rc::Rc
hide "std::rc::Rc" members

class asdi::features::FeatureSet
hide "asdi::features::FeatureSet" members

class asdi::edb::RelationSet
hide "asdi::edb::RelationSet" members

class asdi::edb::NameReferenceSet
hide "asdi::edb::NameReferenceSet" members

class asdi::idb::RuleSet
hide "asdi::idb::RuleSet" members

class asdi::idb::query::QuerySet
hide "asdi::idb::query::QuerySet" members

namespace asdi {

    interface AttributeName {
        is_valid(s: &str) : bool
        type_name() : &str
    }
    interface Collection<T> {
        is_empty() : bool
        len() : usize
        iter() : Iterator<&T>
        contains(v: &T) : bool
    }
    interface IndexedCollection<K,V> {
        get(index: &K) : Option<V>
        contains_index(index: &K) : bool
    }
    interface Labeled {
        label() : Predicate
        label_ref() : PredicateRef
    }
    interface MaybeAnonymous {
        anonymous() : Self
        is_anonymous() : bool
    }
    interface MaybePositive {
        is_positive() : bool
        is_negative() : bool
    }
    interface ProgramCore {
        features() : &FeatureSet
        extensional() : &RelationSet
        intensional() : &RelationSet
        rules() : &RuleSet
    }

    IndexedCollection - -|> Collection

    class Program

    Program ..|> ProgramCore
    Program ..|> MaybePositive
    Program *-up-> asdi::features::FeatureSet
    Program *-up-> "extensional" asdi::edb::RelationSet
    Program *-up-> "intensional" asdi::edb::RelationSet
    Program *-up-> "predicates" asdi::edb::NameReferenceSet
    Program *-up-> "variables" asdi::edb::NameReferenceSet
    Program *-up-> asdi::idb::RuleSet
    Program *-up-> asdi::idb::query::QuerySet

    class AttributeNameRef<T: AttributeName> << (T,#ADD1B2) type>>
    AttributeNameRef .up.> std::rc::Rc : base
    AttributeNameRef o-down-> AttributeName
}

@enduml

PlantUML version 1.2022.1(Tue Feb 01 10:19:58 PST 2022)
(GPL source distribution)
Java Runtime: OpenJDK Runtime Environment
JVM: OpenJDK 64-Bit Server VM
Default Encoding: UTF-8
Language: en
Country: US
--></g></svg>