<?xml version="1.0" encoding="UTF-8" standalone="no"?><svg xmlns="http://www.w3.org/2000/svg" xmlns:xlink="http://www.w3.org/1999/xlink" contentScriptType="application/ecmascript" contentStyleType="text/css" height="351px" preserveAspectRatio="none" style="width:1194px;height:351px;background:#FFFFFF;" version="1.1" viewBox="0 0 1194 351" width="1194px" zoomAndPan="magnify"><defs><filter height="300%" id="f23ygqkcx7y0g" width="300%" x="-1" y="-1"><feGaussianBlur result="blurOut" stdDeviation="2.0"/><feColorMatrix in="blurOut" result="blurOut2" type="matrix" values="0 0 0 0 0 0 0 0 0 0 0 0 0 0 0 0 0 0 .4 0"/><feOffset dx="4.0" dy="4.0" in="blurOut2" result="blurOut3"/><feBlend in="SourceGraphic" in2="blurOut3" mode="normal"/></filter></defs><g><!--MD5=[1e6a036aa3aa611a9250da69f11f3a39]
cluster std::rc--><polygon fill="#FFFFFF" filter="url(#f23ygqkcx7y0g)" points="16,6,64,6,71,28.4883,94,28.4883,94,89,16,89,16,6" style="stroke:#000000;stroke-width:1.5;"/><line style="stroke:#000000;stroke-width:1.5;" x1="16" x2="71" y1="28.4883" y2="28.4883"/><text fill="#000000" font-family="sans-serif" font-size="14" font-weight="bold" lengthAdjust="spacing" textLength="42" x="20" y="21.5352">std::rc</text><!--MD5=[af63c64fec698275cfc4891f303451d3]
cluster asdi::features--><polygon fill="#FFFFFF" filter="url(#f23ygqkcx7y0g)" points="118,6,219,6,226,28.4883,242,28.4883,242,89,118,89,118,6" style="stroke:#000000;stroke-width:1.5;"/><line style="stroke:#000000;stroke-width:1.5;" x1="118" x2="226" y1="28.4883" y2="28.4883"/><text fill="#000000" font-family="sans-serif" font-size="14" font-weight="bold" lengthAdjust="spacing" textLength="95" x="122" y="21.5352">asdi::features</text><!--MD5=[6bc3af5db4038e5494ba0622f07de59b]
cluster asdi::edb--><polygon fill="#FFFFFF" filter="url(#f23ygqkcx7y0g)" points="266,6,334,6,341,28.4883,570,28.4883,570,89,266,89,266,6" style="stroke:#000000;stroke-width:1.5;"/><line style="stroke:#000000;stroke-width:1.5;" x1="266" x2="341" y1="28.4883" y2="28.4883"/><text fill="#000000" font-family="sans-serif" font-size="14" font-weight="bold" lengthAdjust="spacing" textLength="62" x="270" y="21.5352">asdi::edb</text><!--MD5=[ae3c197a01158459eb2ddb806e23d6f2]
cluster asdi::idb--><polygon fill="#FFFFFF" filter="url(#f23ygqkcx7y0g)" points="594,6,659,6,666,28.4883,700,28.4883,700,89,594,89,594,6" style="stroke:#000000;stroke-width:1.5;"/><line style="stroke:#000000;stroke-width:1.5;" x1="594" x2="666" y1="28.4883" y2="28.4883"/><text fill="#000000" font-family="sans-serif" font-size="14" font-weight="bold" lengthAdjust="spacing" textLength="59" x="598" y="21.5352">asdi::idb</text><!--MD5=[331bdf5c2291f41e90a08533bcc43e12]
cluster asdi::idb::query--><polygon fill="#FFFFFF" filter="url(#f23ygqkcx7y0g)" points="724,6,835,6,842,28.4883,845,28.4883,845,89,724,89,724,6" style="stroke:#000000;stroke-width:1.5;"/><line style="stroke:#000000;stroke-width:1.5;" x1="724" x2="842" y1="28.4883" y2="28.4883"/><text fill="#000000" font-family="sans-serif" font-size="14" font-weight="bold" lengthAdjust="spacing" textLength="105" x="728" y="21.5352">asdi::idb::query</text><!--MD5=[e274c4916ac42ef1c11391a83d303c10]
cluster asdi--><polygon fill="#FFFFFF" filter="url(#f23ygqkcx7y0g)" points="99,138,135,138,142,160.4883,1177,160.4883,1177,344,99,344,99,138" style="stroke:#000000;stroke-width:1.5;"/><line style="stroke:#000000;stroke-width:1.5;" x1="99" x2="142" y1="160.4883" y2="160.4883"/><text fill="#000000" font-family="sans-serif" font-size="14" font-weight="bold" lengthAdjust="spacing" textLength="30" x="103" y="153.5352">asdi</text><!--MD5=[6be383e268f8aabc33c1bb5eb944e487]
class std::rc::Rc--><rect codeLine="4" fill="#FEFECE" filter="url(#f23ygqkcx7y0g)" height="32" id="std::rc::Rc" style="stroke:#A80036;stroke-width:1.5;" width="46" x="32" y="41"/><ellipse cx="47" cy="57" fill="#ADD1B2" rx="11" ry="11" style="stroke:#A80036;stroke-width:1.0;"/><path d="M49.4731,63.1431 Q48.8921,63.4419 48.2529,63.5913 Q47.6138,63.7407 46.9082,63.7407 Q44.4014,63.7407 43.0815,62.0889 Q41.7617,60.437 41.7617,57.3159 Q41.7617,54.1865 43.0815,52.5347 Q44.4014,50.8828 46.9082,50.8828 Q47.6138,50.8828 48.2612,51.0322 Q48.9087,51.1816 49.4731,51.4805 L49.4731,54.2031 Q48.8423,53.6221 48.2488,53.3523 Q47.6553,53.0825 47.0244,53.0825 Q45.6797,53.0825 44.9949,54.1492 Q44.3101,55.2158 44.3101,57.3159 Q44.3101,59.4077 44.9949,60.4744 Q45.6797,61.541 47.0244,61.541 Q47.6553,61.541 48.2488,61.2712 Q48.8423,61.0015 49.4731,60.4204 Z " fill="#000000"/><text fill="#000000" font-family="sans-serif" font-size="12" lengthAdjust="spacing" textLength="14" x="61" y="61.5352">Rc</text><!--MD5=[10e3bb9f30c83b84488054de99f42877]
class asdi::features::FeatureSet--><rect codeLine="7" fill="#FEFECE" filter="url(#f23ygqkcx7y0g)" height="32" id="asdi::features::FeatureSet" style="stroke:#A80036;stroke-width:1.5;" width="92" x="134" y="41"/><ellipse cx="149" cy="57" fill="#ADD1B2" rx="11" ry="11" style="stroke:#A80036;stroke-width:1.0;"/><path d="M151.4731,63.1431 Q150.8921,63.4419 150.2529,63.5913 Q149.6138,63.7407 148.9082,63.7407 Q146.4014,63.7407 145.0815,62.0889 Q143.7617,60.437 143.7617,57.3159 Q143.7617,54.1865 145.0815,52.5347 Q146.4014,50.8828 148.9082,50.8828 Q149.6138,50.8828 150.2612,51.0322 Q150.9087,51.1816 151.4731,51.4805 L151.4731,54.2031 Q150.8423,53.6221 150.2488,53.3523 Q149.6553,53.0825 149.0244,53.0825 Q147.6797,53.0825 146.9949,54.1492 Q146.3101,55.2158 146.3101,57.3159 Q146.3101,59.4077 146.9949,60.4744 Q147.6797,61.541 149.0244,61.541 Q149.6553,61.541 150.2488,61.2712 Q150.8423,61.0015 151.4731,60.4204 Z " fill="#000000"/><text fill="#000000" font-family="sans-serif" font-size="12" lengthAdjust="spacing" textLength="60" x="163" y="61.5352">FeatureSet</text><!--MD5=[6137f69857c1321f4d06c717c9c09db2]
class asdi::edb::RelationSet--><rect codeLine="10" fill="#FEFECE" filter="url(#f23ygqkcx7y0g)" height="32" id="asdi::edb::RelationSet" style="stroke:#A80036;stroke-width:1.5;" width="95" x="458.5" y="41"/><ellipse cx="473.5" cy="57" fill="#ADD1B2" rx="11" ry="11" style="stroke:#A80036;stroke-width:1.0;"/><path d="M475.9731,63.1431 Q475.3921,63.4419 474.7529,63.5913 Q474.1138,63.7407 473.4082,63.7407 Q470.9014,63.7407 469.5815,62.0889 Q468.2617,60.437 468.2617,57.3159 Q468.2617,54.1865 469.5815,52.5347 Q470.9014,50.8828 473.4082,50.8828 Q474.1138,50.8828 474.7612,51.0322 Q475.4087,51.1816 475.9731,51.4805 L475.9731,54.2031 Q475.3423,53.6221 474.7488,53.3523 Q474.1553,53.0825 473.5244,53.0825 Q472.1797,53.0825 471.4949,54.1492 Q470.8101,55.2158 470.8101,57.3159 Q470.8101,59.4077 471.4949,60.4744 Q472.1797,61.541 473.5244,61.541 Q474.1553,61.541 474.7488,61.2712 Q475.3423,61.0015 475.9731,60.4204 Z " fill="#000000"/><text fill="#000000" font-family="sans-serif" font-size="12" lengthAdjust="spacing" textLength="63" x="487.5" y="61.5352">RelationSet</text><!--MD5=[e0d85c4bcf038627e4eac8520bbb7a23]
class asdi::edb::NameReferenceSet--><rect codeLine="13" fill="#FEFECE" filter="url(#f23ygqkcx7y0g)" height="32" id="asdi::edb::NameReferenceSet" style="stroke:#A80036;stroke-width:1.5;" width="141" x="282.5" y="41"/><ellipse cx="297.5" cy="57" fill="#ADD1B2" rx="11" ry="11" style="stroke:#A80036;stroke-width:1.0;"/><path d="M299.9731,63.1431 Q299.3921,63.4419 298.7529,63.5913 Q298.1138,63.7407 297.4082,63.7407 Q294.9014,63.7407 293.5815,62.0889 Q292.2617,60.437 292.2617,57.3159 Q292.2617,54.1865 293.5815,52.5347 Q294.9014,50.8828 297.4082,50.8828 Q298.1138,50.8828 298.7612,51.0322 Q299.4087,51.1816 299.9731,51.4805 L299.9731,54.2031 Q299.3423,53.6221 298.7488,53.3523 Q298.1553,53.0825 297.5244,53.0825 Q296.1797,53.0825 295.4949,54.1492 Q294.8101,55.2158 294.8101,57.3159 Q294.8101,59.4077 295.4949,60.4744 Q296.1797,61.541 297.5244,61.541 Q298.1553,61.541 298.7488,61.2712 Q299.3423,61.0015 299.9731,60.4204 Z " fill="#000000"/><text fill="#000000" font-family="sans-serif" font-size="12" lengthAdjust="spacing" textLength="109" x="311.5" y="61.5352">NameReferenceSet</text><!--MD5=[30c8d4c59bd3776484494cc31a150236]
class asdi::idb::RuleSet--><rect codeLine="16" fill="#FEFECE" filter="url(#f23ygqkcx7y0g)" height="32" id="asdi::idb::RuleSet" style="stroke:#A80036;stroke-width:1.5;" width="74" x="610" y="41"/><ellipse cx="625" cy="57" fill="#ADD1B2" rx="11" ry="11" style="stroke:#A80036;stroke-width:1.0;"/><path d="M627.4731,63.1431 Q626.8921,63.4419 626.2529,63.5913 Q625.6138,63.7407 624.9082,63.7407 Q622.4014,63.7407 621.0815,62.0889 Q619.7617,60.437 619.7617,57.3159 Q619.7617,54.1865 621.0815,52.5347 Q622.4014,50.8828 624.9082,50.8828 Q625.6138,50.8828 626.2612,51.0322 Q626.9087,51.1816 627.4731,51.4805 L627.4731,54.2031 Q626.8423,53.6221 626.2488,53.3523 Q625.6553,53.0825 625.0244,53.0825 Q623.6797,53.0825 622.9949,54.1492 Q622.3101,55.2158 622.3101,57.3159 Q622.3101,59.4077 622.9949,60.4744 Q623.6797,61.541 625.0244,61.541 Q625.6553,61.541 626.2488,61.2712 Q626.8423,61.0015 627.4731,60.4204 Z " fill="#000000"/><text fill="#000000" font-family="sans-serif" font-size="12" lengthAdjust="spacing" textLength="42" x="639" y="61.5352">RuleSet</text><!--MD5=[862f5ba143deaa96c11c433d25830988]
class asdi::idb::query::QuerySet--><rect codeLine="19" fill="#FEFECE" filter="url(#f23ygqkcx7y0g)" height="32" id="asdi::idb::query::QuerySet" style="stroke:#A80036;stroke-width:1.5;" width="83" x="740.5" y="41"/><ellipse cx="755.5" cy="57" fill="#ADD1B2" rx="11" ry="11" style="stroke:#A80036;stroke-width:1.0;"/><path d="M757.9731,63.1431 Q757.3921,63.4419 756.7529,63.5913 Q756.1138,63.7407 755.4082,63.7407 Q752.9014,63.7407 751.5815,62.0889 Q750.2617,60.437 750.2617,57.3159 Q750.2617,54.1865 751.5815,52.5347 Q752.9014,50.8828 755.4082,50.8828 Q756.1138,50.8828 756.7612,51.0322 Q757.4087,51.1816 757.9731,51.4805 L757.9731,54.2031 Q757.3423,53.6221 756.7488,53.3523 Q756.1553,53.0825 755.5244,53.0825 Q754.1797,53.0825 753.4949,54.1492 Q752.8101,55.2158 752.8101,57.3159 Q752.8101,59.4077 753.4949,60.4744 Q754.1797,61.541 755.5244,61.541 Q756.1553,61.541 756.7488,61.2712 Q757.3423,61.0015 757.9731,60.4204 Z " fill="#000000"/><text fill="#000000" font-family="sans-serif" font-size="12" lengthAdjust="spacing" textLength="51" x="769.5" y="61.5352">QuerySet</text><!--MD5=[2110a1d684b71e50a272297f2c09c595]
class asdi::AttributeName--><rect codeLine="24" fill="#FEFECE" filter="url(#f23ygqkcx7y0g)" height="40" id="asdi::AttributeName" style="stroke:#A80036;stroke-width:1.5;" width="116" x="177" y="288"/><ellipse cx="192" cy="304" fill="#B4A7E5" rx="11" ry="11" style="stroke:#A80036;stroke-width:1.0;"/><path d="M188.4277,300.2651 L188.4277,298.1069 L195.8071,298.1069 L195.8071,300.2651 L193.3418,300.2651 L193.3418,308.3418 L195.8071,308.3418 L195.8071,310.5 L188.4277,310.5 L188.4277,308.3418 L190.8931,308.3418 L190.8931,300.2651 Z " fill="#000000"/><text fill="#000000" font-family="sans-serif" font-size="12" font-style="italic" lengthAdjust="spacing" textLength="84" x="206" y="308.5352">AttributeName</text><line style="stroke:#A80036;stroke-width:1.5;" x1="178" x2="292" y1="320" y2="320"/><!--MD5=[e8289714b7028f41fbfaeffd8c17c76d]
class asdi::Collection--><rect codeLine="25" fill="#FEFECE" filter="url(#f23ygqkcx7y0g)" height="40" id="asdi::Collection" style="stroke:#A80036;stroke-width:1.5;" width="99" x="738.5" y="288"/><ellipse cx="753.5" cy="304" fill="#B4A7E5" rx="11" ry="11" style="stroke:#A80036;stroke-width:1.0;"/><path d="M749.9277,300.2651 L749.9277,298.1069 L757.3071,298.1069 L757.3071,300.2651 L754.8418,300.2651 L754.8418,308.3418 L757.3071,308.3418 L757.3071,310.5 L749.9277,310.5 L749.9277,308.3418 L752.3931,308.3418 L752.3931,300.2651 Z " fill="#000000"/><text fill="#000000" font-family="sans-serif" font-size="12" font-style="italic" lengthAdjust="spacing" textLength="55" x="767.5" y="308.5352">Collection</text><rect fill="#FFFFFF" height="16.1328" style="stroke:#000000;stroke-width:1.0;stroke-dasharray:2.0,2.0;" width="10" x="830.5" y="285"/><text fill="#000000" font-family="sans-serif" font-size="12" font-style="italic" lengthAdjust="spacing" textLength="8" x="831.5" y="297.6016">T</text><line style="stroke:#A80036;stroke-width:1.5;" x1="739.5" x2="836.5" y1="320" y2="320"/><!--MD5=[ee47b5577acc389a92c0b1543b9a2c9a]
class asdi::IndexedCollection--><rect codeLine="26" fill="#FEFECE" filter="url(#f23ygqkcx7y0g)" height="40" id="asdi::IndexedCollection" style="stroke:#A80036;stroke-width:1.5;" width="158" x="1003" y="180"/><ellipse cx="1018" cy="196" fill="#B4A7E5" rx="11" ry="11" style="stroke:#A80036;stroke-width:1.0;"/><path d="M1014.4277,192.2651 L1014.4277,190.1069 L1021.8071,190.1069 L1021.8071,192.2651 L1019.3418,192.2651 L1019.3418,200.3418 L1021.8071,200.3418 L1021.8071,202.5 L1014.4277,202.5 L1014.4277,200.3418 L1016.8931,200.3418 L1016.8931,192.2651 Z " fill="#000000"/><text fill="#000000" font-family="sans-serif" font-size="12" font-style="italic" lengthAdjust="spacing" textLength="102" x="1032" y="200.5352">IndexedCollection</text><rect fill="#FFFFFF" height="16.1328" style="stroke:#000000;stroke-width:1.0;stroke-dasharray:2.0,2.0;" width="22" x="1142" y="177"/><text fill="#000000" font-family="sans-serif" font-size="12" font-style="italic" lengthAdjust="spacing" textLength="20" x="1143" y="189.6016">K,V</text><line style="stroke:#A80036;stroke-width:1.5;" x1="1004" x2="1160" y1="212" y2="212"/><!--MD5=[a769fd774dc4e74f949d393dd195b319]
class asdi::Labeled--><rect codeLine="27" fill="#FEFECE" filter="url(#f23ygqkcx7y0g)" height="40" id="asdi::Labeled" style="stroke:#A80036;stroke-width:1.5;" width="78" x="890" y="180"/><ellipse cx="905" cy="196" fill="#B4A7E5" rx="11" ry="11" style="stroke:#A80036;stroke-width:1.0;"/><path d="M901.4277,192.2651 L901.4277,190.1069 L908.8071,190.1069 L908.8071,192.2651 L906.3418,192.2651 L906.3418,200.3418 L908.8071,200.3418 L908.8071,202.5 L901.4277,202.5 L901.4277,200.3418 L903.8931,200.3418 L903.8931,192.2651 Z " fill="#000000"/><text fill="#000000" font-family="sans-serif" font-size="12" font-style="italic" lengthAdjust="spacing" textLength="46" x="919" y="200.5352">Labeled</text><line style="stroke:#A80036;stroke-width:1.5;" x1="891" x2="967" y1="212" y2="212"/><!--MD5=[fa1011c7bd77eedf14cd9274bd452e29]
class asdi::MaybePositive--><rect codeLine="28" fill="#FEFECE" filter="url(#f23ygqkcx7y0g)" height="40" id="asdi::MaybePositive" style="stroke:#A80036;stroke-width:1.5;" width="113" x="351.5" y="288"/><ellipse cx="366.5" cy="304" fill="#B4A7E5" rx="11" ry="11" style="stroke:#A80036;stroke-width:1.0;"/><path d="M362.9277,300.2651 L362.9277,298.1069 L370.3071,298.1069 L370.3071,300.2651 L367.8418,300.2651 L367.8418,308.3418 L370.3071,308.3418 L370.3071,310.5 L362.9277,310.5 L362.9277,308.3418 L365.3931,308.3418 L365.3931,300.2651 Z " fill="#000000"/><text fill="#000000" font-family="sans-serif" font-size="12" font-style="italic" lengthAdjust="spacing" textLength="81" x="380.5" y="308.5352">MaybePositive</text><line style="stroke:#A80036;stroke-width:1.5;" x1="352.5" x2="463.5" y1="320" y2="320"/><!--MD5=[91cc3482fb0350396608f11633162af9]
class asdi::ProgramCore--><rect codeLine="29" fill="#FEFECE" filter="url(#f23ygqkcx7y0g)" height="40" id="asdi::ProgramCore" style="stroke:#A80036;stroke-width:1.5;" width="108" x="500" y="288"/><ellipse cx="515" cy="304" fill="#B4A7E5" rx="11" ry="11" style="stroke:#A80036;stroke-width:1.0;"/><path d="M511.4277,300.2651 L511.4277,298.1069 L518.8071,298.1069 L518.8071,300.2651 L516.3418,300.2651 L516.3418,308.3418 L518.8071,308.3418 L518.8071,310.5 L511.4277,310.5 L511.4277,308.3418 L513.8931,308.3418 L513.8931,300.2651 Z " fill="#000000"/><text fill="#000000" font-family="sans-serif" font-size="12" font-style="italic" lengthAdjust="spacing" textLength="76" x="529" y="308.5352">ProgramCore</text><line style="stroke:#A80036;stroke-width:1.5;" x1="501" x2="607" y1="320" y2="320"/><!--MD5=[f2e87f2d0bc999652e4fc0d178320d6e]
class asdi::MutableCollection--><rect fill="#FEFECE" filter="url(#f23ygqkcx7y0g)" height="48" id="asdi::MutableCollection" style="stroke:#A80036;stroke-width:1.5;" width="133" x="721.5" y="176"/><ellipse cx="736.5" cy="192" fill="#ADD1B2" rx="11" ry="11" style="stroke:#A80036;stroke-width:1.0;"/><path d="M738.9731,198.1431 Q738.3921,198.4419 737.7529,198.5913 Q737.1138,198.7407 736.4082,198.7407 Q733.9014,198.7407 732.5815,197.0889 Q731.2617,195.437 731.2617,192.3159 Q731.2617,189.1865 732.5815,187.5347 Q733.9014,185.8828 736.4082,185.8828 Q737.1138,185.8828 737.7612,186.0322 Q738.4087,186.1816 738.9731,186.4805 L738.9731,189.2031 Q738.3423,188.6221 737.7488,188.3523 Q737.1553,188.0825 736.5244,188.0825 Q735.1797,188.0825 734.4949,189.1492 Q733.8101,190.2158 733.8101,192.3159 Q733.8101,194.4077 734.4949,195.4744 Q735.1797,196.541 736.5244,196.541 Q737.1553,196.541 737.7488,196.2712 Q738.3423,196.0015 738.9731,195.4204 Z " fill="#000000"/><text fill="#000000" font-family="sans-serif" font-size="12" lengthAdjust="spacing" textLength="101" x="750.5" y="196.5352">MutableCollection</text><line style="stroke:#A80036;stroke-width:1.5;" x1="722.5" x2="853.5" y1="208" y2="208"/><line style="stroke:#A80036;stroke-width:1.5;" x1="722.5" x2="853.5" y1="216" y2="216"/><!--MD5=[d915cf4d4af40f2548a57e367107a656]
class asdi::MutableIndexedCollection--><rect fill="#FEFECE" filter="url(#f23ygqkcx7y0g)" height="48" id="asdi::MutableIndexedCollection" style="stroke:#A80036;stroke-width:1.5;" width="180" x="506" y="176"/><ellipse cx="521" cy="192" fill="#ADD1B2" rx="11" ry="11" style="stroke:#A80036;stroke-width:1.0;"/><path d="M523.4731,198.1431 Q522.8921,198.4419 522.2529,198.5913 Q521.6138,198.7407 520.9082,198.7407 Q518.4014,198.7407 517.0815,197.0889 Q515.7617,195.437 515.7617,192.3159 Q515.7617,189.1865 517.0815,187.5347 Q518.4014,185.8828 520.9082,185.8828 Q521.6138,185.8828 522.2612,186.0322 Q522.9087,186.1816 523.4731,186.4805 L523.4731,189.2031 Q522.8423,188.6221 522.2488,188.3523 Q521.6553,188.0825 521.0244,188.0825 Q519.6797,188.0825 518.9949,189.1492 Q518.3101,190.2158 518.3101,192.3159 Q518.3101,194.4077 518.9949,195.4744 Q519.6797,196.541 521.0244,196.541 Q521.6553,196.541 522.2488,196.2712 Q522.8423,196.0015 523.4731,195.4204 Z " fill="#000000"/><text fill="#000000" font-family="sans-serif" font-size="12" lengthAdjust="spacing" textLength="148" x="535" y="196.5352">MutableIndexedCollection</text><line style="stroke:#A80036;stroke-width:1.5;" x1="507" x2="685" y1="208" y2="208"/><line style="stroke:#A80036;stroke-width:1.5;" x1="507" x2="685" y1="216" y2="216"/><!--MD5=[619a18f3975bec44ed0f3b908af212c9]
class asdi::Program--><rect codeLine="35" fill="#FEFECE" filter="url(#f23ygqkcx7y0g)" height="48" id="asdi::Program" style="stroke:#A80036;stroke-width:1.5;" width="81" x="389.5" y="176"/><ellipse cx="404.5" cy="192" fill="#ADD1B2" rx="11" ry="11" style="stroke:#A80036;stroke-width:1.0;"/><path d="M406.9731,198.1431 Q406.3921,198.4419 405.7529,198.5913 Q405.1138,198.7407 404.4082,198.7407 Q401.9014,198.7407 400.5815,197.0889 Q399.2617,195.437 399.2617,192.3159 Q399.2617,189.1865 400.5815,187.5347 Q401.9014,185.8828 404.4082,185.8828 Q405.1138,185.8828 405.7612,186.0322 Q406.4087,186.1816 406.9731,186.4805 L406.9731,189.2031 Q406.3423,188.6221 405.7488,188.3523 Q405.1553,188.0825 404.5244,188.0825 Q403.1797,188.0825 402.4949,189.1492 Q401.8101,190.2158 401.8101,192.3159 Q401.8101,194.4077 402.4949,195.4744 Q403.1797,196.541 404.5244,196.541 Q405.1553,196.541 405.7488,196.2712 Q406.3423,196.0015 406.9731,195.4204 Z " fill="#000000"/><text fill="#000000" font-family="sans-serif" font-size="12" lengthAdjust="spacing" textLength="49" x="418.5" y="196.5352">Program</text><line style="stroke:#A80036;stroke-width:1.5;" x1="390.5" x2="469.5" y1="208" y2="208"/><line style="stroke:#A80036;stroke-width:1.5;" x1="390.5" x2="469.5" y1="216" y2="216"/><!--MD5=[842cd022249741fa742cbf18a1c342e8]
class asdi::AttributeNameRef--><rect codeLine="47" fill="#FEFECE" filter="url(#f23ygqkcx7y0g)" height="54.2656" id="asdi::AttributeNameRef" style="stroke:#A80036;stroke-width:1.5;" width="239" x="115.5" y="173"/><ellipse cx="130.5" cy="192.1328" fill="#ADD1B2" rx="11" ry="11" style="stroke:#A80036;stroke-width:1.0;"/><path d="M131.8418,199.3828 L129.3931,199.3828 L129.3931,189.1313 L126.2471,189.1313 L126.2471,186.9897 L134.9878,186.9897 L134.9878,189.1313 L131.8418,189.1313 Z " fill="#000000"/><text fill="#000000" font-family="sans-serif" font-size="12" font-style="italic" lengthAdjust="spacing" textLength="37" x="177.5" y="189.6016">«type»</text><text fill="#000000" font-family="sans-serif" font-size="12" lengthAdjust="spacing" textLength="103" x="144.5" y="203.7344">AttributeNameRef</text><rect fill="#FFFFFF" height="16.1328" style="stroke:#000000;stroke-width:1.0;stroke-dasharray:2.0,2.0;" width="102" x="255.5" y="170"/><text fill="#000000" font-family="sans-serif" font-size="12" font-style="italic" lengthAdjust="spacing" textLength="100" x="256.5" y="182.6016">T: AttributeName</text><line style="stroke:#A80036;stroke-width:1.5;" x1="116.5" x2="353.5" y1="211.2656" y2="211.2656"/><line style="stroke:#A80036;stroke-width:1.5;" x1="116.5" x2="353.5" y1="219.2656" y2="219.2656"/><!--MD5=[050da77a24a9253f629d0b4ed41f1d76]
link asdi::IndexedCollection to asdi::Collection--><path codeLine="31" d="M1029.1,220.07 C980.87,237.46 909.33,263.26 856.7,282.23 " fill="none" id="asdi::IndexedCollection-to-asdi::Collection" style="stroke:#A80036;stroke-width:1.0;"/><polygon fill="none" points="858.73,288.94,837.54,289.14,853.98,275.77,858.73,288.94" style="stroke:#A80036;stroke-width:1.0;"/><!--MD5=[c869f61b0d7ce0d4e71b7dfc669fc581]
link asdi::MutableCollection to asdi::Collection--><path codeLine="32" d="M788,224 C788,236.77 788,253.01 788,267.73 " fill="none" id="asdi::MutableCollection-to-asdi::Collection" style="stroke:#A80036;stroke-width:1.0;"/><polygon fill="none" points="795,267.94,788,287.94,781,267.94,795,267.94" style="stroke:#A80036;stroke-width:1.0;"/><!--MD5=[29efd3900635ffd14dad54fc676925e6]
link asdi::MutableIndexedCollection to asdi::Collection--><path codeLine="33" d="M637.66,224 C666.48,239.91 705.03,261.19 735.88,278.22 " fill="none" id="asdi::MutableIndexedCollection-to-asdi::Collection" style="stroke:#A80036;stroke-width:1.0;"/><polygon fill="none" points="739.35,272.15,753.48,287.94,732.58,284.4,739.35,272.15" style="stroke:#A80036;stroke-width:1.0;"/><!--MD5=[61548d7db5417584fce196914e269885]
link asdi::Program to asdi::ProgramCore--><path codeLine="37" d="M456.91,224 C474.29,238.86 497.17,258.42 516.35,274.81 " fill="none" id="asdi::Program-to-asdi::ProgramCore" style="stroke:#A80036;stroke-width:1.0;stroke-dasharray:7.0,7.0;"/><polygon fill="none" points="521.05,269.62,531.7,287.94,511.95,280.27,521.05,269.62" style="stroke:#A80036;stroke-width:1.0;"/><!--MD5=[44e9340b47c8de994572dde550f90837]
link asdi::Program to asdi::MaybePositive--><path codeLine="38" d="M425.23,224 C422.54,236.92 419.13,253.39 416.04,268.24 " fill="none" id="asdi::Program-to-asdi::MaybePositive" style="stroke:#A80036;stroke-width:1.0;stroke-dasharray:7.0,7.0;"/><polygon fill="none" points="422.87,269.78,411.96,287.94,409.17,266.94,422.87,269.78" style="stroke:#A80036;stroke-width:1.0;"/><!--MD5=[0e8eae3a4865af23d73d12e23b4ef6f3]
link asdi::features::FeatureSet to asdi::Program--><path codeLine="39" d="M222.69,78.62 C236.37,84.89 251.69,91.55 266,97 C312.11,114.56 330.91,102.68 372,130 C385.81,139.18 408.5508,166.1406 408.5508,166.1406 " fill="none" id="asdi::features::FeatureSet-asdi::Program" style="stroke:#A80036;stroke-width:1.0;"/><polygon fill="#A80036" points="415.63,175.83,415.3202,168.6256,408.5508,166.1406,408.8606,173.345,415.63,175.83" style="stroke:#A80036;stroke-width:1.0;"/><polygon fill="#A80036" points="210.66,73.02,217.1315,80.4443,215.193,75.1299,220.5074,73.1914,210.66,73.02" style="stroke:#A80036;stroke-width:1.0;"/><line style="stroke:#A80036;stroke-width:1.0;" x1="215.193" x2="222.44" y1="75.1299" y2="78.505"/><!--MD5=[25a9534300ff5c62c672b75f369bea98]
link asdi::edb::RelationSet to asdi::Program--><path codeLine="40" d="M482.01,83.74 C466.83,106.15 437.3501,164.805 437.3501,164.805 " fill="none" id="asdi::edb::RelationSet-asdi::Program" style="stroke:#A80036;stroke-width:1.0;"/><polygon fill="#A80036" points="432.73,175.88,438.7317,171.8825,437.3501,164.805,431.3484,168.8025,432.73,175.88" style="stroke:#A80036;stroke-width:1.0;"/><polygon fill="#A80036" points="489.61,73.09,481.1265,78.093,486.7059,77.1602,487.6387,82.7396,489.61,73.09" style="stroke:#A80036;stroke-width:1.0;"/><line style="stroke:#A80036;stroke-width:1.0;" x1="486.7059" x2="482.06" y1="77.1602" y2="83.67"/><text fill="#000000" font-family="sans-serif" font-size="13" lengthAdjust="spacing" textLength="73" x="496.2714" y="93.524">extensional</text><!--MD5=[25a9534300ff5c62c672b75f369bea98]
link asdi::edb::RelationSet to asdi::Program--><path codeLine="41" d="M502.12,85.54 C492.97,108.27 459.4538,165.9137 459.4538,165.9137 " fill="none" id="asdi::edb::RelationSet-asdi::Program-1" style="stroke:#A80036;stroke-width:1.0;"/><polygon fill="#A80036" points="452.77,175.88,459.434,173.1248,459.4538,165.9137,452.7898,168.6689,452.77,175.88" style="stroke:#A80036;stroke-width:1.0;"/><polygon fill="#A80036" points="506.61,73.09,499.7992,80.2042,504.9172,77.7947,507.3267,82.9127,506.61,73.09" style="stroke:#A80036;stroke-width:1.0;"/><line style="stroke:#A80036;stroke-width:1.0;" x1="504.9172" x2="502.2" y1="77.7947" y2="85.32"/><text fill="#000000" font-family="sans-serif" font-size="13" lengthAdjust="spacing" textLength="70" x="425.3858" y="93.5734">intensional</text><!--MD5=[efc1d6cd5ab53e4796afe35910ade78f]
link asdi::edb::NameReferenceSet to asdi::Program--><path codeLine="42" d="M357.68,85.54 C367.17,108.27 400.9562,165.9137 400.9562,165.9137 " fill="none" id="asdi::edb::NameReferenceSet-asdi::Program" style="stroke:#A80036;stroke-width:1.0;"/><polygon fill="#A80036" points="407.64,175.88,407.6202,168.6689,400.9562,165.9137,400.976,173.1248,407.64,175.88" style="stroke:#A80036;stroke-width:1.0;"/><polygon fill="#A80036" points="352.99,73.09,352.4238,82.9226,354.7547,77.7682,359.909,80.0991,352.99,73.09" style="stroke:#A80036;stroke-width:1.0;"/><line style="stroke:#A80036;stroke-width:1.0;" x1="354.7547" x2="357.575" y1="77.7682" y2="85.255"/><text fill="#000000" font-family="sans-serif" font-size="13" lengthAdjust="spacing" textLength="65" x="277.2211" y="93.524">predicates</text><!--MD5=[efc1d6cd5ab53e4796afe35910ade78f]
link asdi::edb::NameReferenceSet to asdi::Program--><path codeLine="43" d="M377.77,83.74 C393.29,106.15 423.0599,164.805 423.0599,164.805 " fill="none" id="asdi::edb::NameReferenceSet-asdi::Program-1" style="stroke:#A80036;stroke-width:1.0;"/><polygon fill="#A80036" points="427.68,175.88,429.0616,168.8025,423.0599,164.805,421.6783,171.8825,427.68,175.88" style="stroke:#A80036;stroke-width:1.0;"/><polygon fill="#A80036" points="369.98,73.09,372.0596,82.7168,372.9297,77.1273,378.5192,77.9973,369.98,73.09" style="stroke:#A80036;stroke-width:1.0;"/><line style="stroke:#A80036;stroke-width:1.0;" x1="372.9297" x2="377.655" y1="77.1273" y2="83.585"/><text fill="#000000" font-family="sans-serif" font-size="13" lengthAdjust="spacing" textLength="56" x="384.8796" y="93.524">variables</text><!--MD5=[47d67b57e64391ee44b6ee496dcf3aa9]
link asdi::idb::RuleSet to asdi::Program--><path codeLine="44" d="M608.92,79.46 C583.71,93.02 549.58,110.16 518,122 C505.48,126.69 500.28,122.83 489,130 C474.8,139.03 451.4675,166.3087 451.4675,166.3087 " fill="none" id="asdi::idb::RuleSet-asdi::Program" style="stroke:#A80036;stroke-width:1.0;"/><polygon fill="#A80036" points="444.35,175.97,451.1292,173.5118,451.4675,166.3087,444.6883,168.7668,444.35,175.97" style="stroke:#A80036;stroke-width:1.0;"/><polygon fill="#A80036" points="620.53,73.13,610.7137,73.9298,616.1409,75.525,614.5457,80.9523,620.53,73.13" style="stroke:#A80036;stroke-width:1.0;"/><line style="stroke:#A80036;stroke-width:1.0;" x1="616.1409" x2="609.12" y1="75.525" y2="79.355"/><!--MD5=[db0012e104fc500d241c4fecca4dc26a]
link asdi::idb::query::QuerySet to asdi::Program--><path codeLine="45" d="M743.33,78.95 C729.92,85.52 714.58,92.28 700,97 C641.53,115.92 624.82,113.18 564,122 C547.41,124.41 503.83,122.19 489,130 C473.75,138.03 450.241,165.8529 450.241,165.8529 " fill="none" id="asdi::idb::query::QuerySet-asdi::Program" style="stroke:#A80036;stroke-width:1.0;"/><polygon fill="#A80036" points="443.34,175.67,450.0629,173.0618,450.241,165.8529,443.5181,168.4611,443.34,175.67" style="stroke:#A80036;stroke-width:1.0;"/><polygon fill="#A80036" points="755.03,73.03,745.1931,73.5159,750.5667,75.2836,748.799,80.6572,755.03,73.03" style="stroke:#A80036;stroke-width:1.0;"/><line style="stroke:#A80036;stroke-width:1.0;" x1="750.5667" x2="743.43" y1="75.2836" y2="78.9"/><!--MD5=[ea3dd3916790a7fa38abd10f335f7fad]
reverse link std::rc::Rc to asdi::AttributeNameRef--><path codeLine="48" d="M78.34,76.28 C109.71,100.86 165.69,144.71 201.55,172.79 " fill="none" id="std::rc::Rc-backto-asdi::AttributeNameRef" style="stroke:#A80036;stroke-width:1.0;stroke-dasharray:7.0,7.0;"/><polygon fill="#A80036" points="74.26,73.09,78.867,81.7949,78.1921,76.1785,83.8085,75.5036,74.26,73.09" style="stroke:#A80036;stroke-width:1.0;"/><text fill="#000000" font-family="sans-serif" font-size="13" lengthAdjust="spacing" textLength="29" x="136" y="118.5684">base</text><!--MD5=[011ca43a3a27a88ec64181b14c315f9b]
link asdi::AttributeNameRef to asdi::AttributeName--><path codeLine="49" d="M235,227.2 C235,244.06 235,265.82 235,282.36 " fill="none" id="asdi::AttributeNameRef-to-asdi::AttributeName" style="stroke:#A80036;stroke-width:1.0;stroke-dasharray:7.0,7.0;"/><polygon fill="#A80036" points="235,287.75,239,278.75,235,282.75,231,278.75,235,287.75" style="stroke:#A80036;stroke-width:1.0;"/><!--MD5=[c15ea8ace12069ce931a4b0060b4aa25]
@startuml

!include options.plantuml

class std::rc::Rc
hide "std::rc::Rc" members

class asdi::features::FeatureSet
hide "asdi::features::FeatureSet" members

class asdi::edb::RelationSet
hide "asdi::edb::RelationSet" members

class asdi::edb::NameReferenceSet
hide "asdi::edb::NameReferenceSet" members

class asdi::idb::RuleSet
hide "asdi::idb::RuleSet" members

class asdi::idb::query::QuerySet
hide "asdi::idb::query::QuerySet" members

namespace asdi {

    interface AttributeName
    interface Collection<T>
    interface IndexedCollection<K,V>
    interface Labeled
    interface MaybePositive
    interface ProgramCore

    IndexedCollection - -|> Collection
    MutableCollection - -|> Collection
    MutableIndexedCollection - -|> Collection

    class Program

    Program ..|> ProgramCore
    Program ..|> MaybePositive
    Program *-up-> asdi::features::FeatureSet
    Program *-up-> "extensional" asdi::edb::RelationSet
    Program *-up-> "intensional" asdi::edb::RelationSet
    Program *-up-> "predicates" asdi::edb::NameReferenceSet
    Program *-up-> "variables" asdi::edb::NameReferenceSet
    Program *-up-> asdi::idb::RuleSet
    Program *-up-> asdi::idb::query::QuerySet

    class AttributeNameRef<T: AttributeName> << (T,#ADD1B2) type>>
    AttributeNameRef .up.> std::rc::Rc : base
    AttributeNameRef ..> AttributeName
}

@enduml

@startuml

set namespaceSeparator ::
hide enum methods
hide interface fields
hide << const >> members
hide << type >> members
hide << type >> stereotype
hide << module >> fields
hide << module >> circle

class std::rc::Rc
hide "std::rc::Rc" members

class asdi::features::FeatureSet
hide "asdi::features::FeatureSet" members

class asdi::edb::RelationSet
hide "asdi::edb::RelationSet" members

class asdi::edb::NameReferenceSet
hide "asdi::edb::NameReferenceSet" members

class asdi::idb::RuleSet
hide "asdi::idb::RuleSet" members

class asdi::idb::query::QuerySet
hide "asdi::idb::query::QuerySet" members

namespace asdi {

    interface AttributeName
    interface Collection<T>
    interface IndexedCollection<K,V>
    interface Labeled
    interface MaybePositive
    interface ProgramCore

    IndexedCollection - -|> Collection
    MutableCollection - -|> Collection
    MutableIndexedCollection - -|> Collection

    class Program

    Program ..|> ProgramCore
    Program ..|> MaybePositive
    Program *-up-> asdi::features::FeatureSet
    Program *-up-> "extensional" asdi::edb::RelationSet
    Program *-up-> "intensional" asdi::edb::RelationSet
    Program *-up-> "predicates" asdi::edb::NameReferenceSet
    Program *-up-> "variables" asdi::edb::NameReferenceSet
    Program *-up-> asdi::idb::RuleSet
    Program *-up-> asdi::idb::query::QuerySet

    class AttributeNameRef<T: AttributeName> << (T,#ADD1B2) type>>
    AttributeNameRef .up.> std::rc::Rc : base
    AttributeNameRef ..> AttributeName
}

@enduml

PlantUML version 1.2022.1(Tue Feb 01 10:19:58 PST 2022)
(GPL source distribution)
Java Runtime: OpenJDK Runtime Environment
JVM: OpenJDK 64-Bit Server VM
Default Encoding: UTF-8
Language: en
Country: US
--></g></svg>