<?xml version="1.0" encoding="UTF-8" standalone="no"?><svg xmlns="http://www.w3.org/2000/svg" xmlns:xlink="http://www.w3.org/1999/xlink" contentScriptType="application/ecmascript" contentStyleType="text/css" height="797px" preserveAspectRatio="none" style="width:1302px;height:797px;background:#FFFFFF;" version="1.1" viewBox="0 0 1302 797" width="1302px" zoomAndPan="magnify"><defs><filter height="300%" id="fpy4tycg3rjdb" width="300%" x="-1" y="-1"><feGaussianBlur result="blurOut" stdDeviation="2.0"/><feColorMatrix in="blurOut" result="blurOut2" type="matrix" values="0 0 0 0 0 0 0 0 0 0 0 0 0 0 0 0 0 0 .4 0"/><feOffset dx="4.0" dy="4.0" in="blurOut2" result="blurOut3"/><feBlend in="SourceGraphic" in2="blurOut3" mode="normal"/></filter></defs><g><!--MD5=[af63c64fec698275cfc4891f303451d3]
cluster asdi::features--><polygon fill="#FFFFFF" filter="url(#fpy4tycg3rjdb)" points="16,270,117,270,124,292.4883,140,292.4883,140,353,16,353,16,270" style="stroke:#000000;stroke-width:1.5;"/><line style="stroke:#000000;stroke-width:1.5;" x1="16" x2="124" y1="292.4883" y2="292.4883"/><text fill="#000000" font-family="sans-serif" font-size="14" font-weight="bold" lengthAdjust="spacing" textLength="95" x="20" y="285.5352">asdi::features</text><!--MD5=[6bc3af5db4038e5494ba0622f07de59b]
cluster asdi::edb--><polygon fill="#FFFFFF" filter="url(#fpy4tycg3rjdb)" points="164,270,232,270,239,292.4883,292,292.4883,292,353,164,353,164,270" style="stroke:#000000;stroke-width:1.5;"/><line style="stroke:#000000;stroke-width:1.5;" x1="164" x2="239" y1="292.4883" y2="292.4883"/><text fill="#000000" font-family="sans-serif" font-size="14" font-weight="bold" lengthAdjust="spacing" textLength="62" x="168" y="285.5352">asdi::edb</text><!--MD5=[ae3c197a01158459eb2ddb806e23d6f2]
cluster asdi::idb--><polygon fill="#FFFFFF" filter="url(#fpy4tycg3rjdb)" points="316,270,381,270,388,292.4883,422,292.4883,422,353,316,353,316,270" style="stroke:#000000;stroke-width:1.5;"/><line style="stroke:#000000;stroke-width:1.5;" x1="316" x2="388" y1="292.4883" y2="292.4883"/><text fill="#000000" font-family="sans-serif" font-size="14" font-weight="bold" lengthAdjust="spacing" textLength="59" x="320" y="285.5352">asdi::idb</text><!--MD5=[331bdf5c2291f41e90a08533bcc43e12]
cluster asdi::idb::query--><polygon fill="#FFFFFF" filter="url(#fpy4tycg3rjdb)" points="1164,666.5,1275,666.5,1282,688.9883,1285,688.9883,1285,749.5,1164,749.5,1164,666.5" style="stroke:#000000;stroke-width:1.5;"/><line style="stroke:#000000;stroke-width:1.5;" x1="1164" x2="1282" y1="688.9883" y2="688.9883"/><text fill="#000000" font-family="sans-serif" font-size="14" font-weight="bold" lengthAdjust="spacing" textLength="105" x="1168" y="682.0352">asdi::idb::query</text><!--MD5=[e274c4916ac42ef1c11391a83d303c10]
cluster asdi--><polygon fill="#FFFFFF" filter="url(#fpy4tycg3rjdb)" points="446,6,482,6,489,28.4883,1140,28.4883,1140,790,446,790,446,6" style="stroke:#000000;stroke-width:1.5;"/><line style="stroke:#000000;stroke-width:1.5;" x1="446" x2="489" y1="28.4883" y2="28.4883"/><text fill="#000000" font-family="sans-serif" font-size="14" font-weight="bold" lengthAdjust="spacing" textLength="30" x="450" y="21.5352">asdi</text><!--MD5=[10e3bb9f30c83b84488054de99f42877]
class asdi::features::FeatureSet--><rect codeLine="4" fill="#FFFFFF" filter="url(#fpy4tycg3rjdb)" height="32" id="asdi::features::FeatureSet" style="stroke:#A80036;stroke-width:1.5;" width="92" x="32" y="305"/><ellipse cx="47" cy="321" fill="#ADD1B2" rx="11" ry="11" style="stroke:#A80036;stroke-width:1.0;"/><path d="M49.4731,327.1431 Q48.8921,327.4419 48.2529,327.5913 Q47.6138,327.7407 46.9082,327.7407 Q44.4014,327.7407 43.0815,326.0889 Q41.7617,324.437 41.7617,321.3159 Q41.7617,318.1865 43.0815,316.5347 Q44.4014,314.8828 46.9082,314.8828 Q47.6138,314.8828 48.2612,315.0322 Q48.9087,315.1816 49.4731,315.4805 L49.4731,318.2031 Q48.8423,317.6221 48.2488,317.3523 Q47.6553,317.0825 47.0244,317.0825 Q45.6797,317.0825 44.9949,318.1492 Q44.3101,319.2158 44.3101,321.3159 Q44.3101,323.4077 44.9949,324.4744 Q45.6797,325.541 47.0244,325.541 Q47.6553,325.541 48.2488,325.2712 Q48.8423,325.0015 49.4731,324.4204 Z " fill="#000000"/><text fill="#000000" font-family="sans-serif" font-size="12" lengthAdjust="spacing" textLength="60" x="61" y="325.5352">FeatureSet</text><!--MD5=[6137f69857c1321f4d06c717c9c09db2]
class asdi::edb::RelationSet--><rect codeLine="7" fill="#FFFFFF" filter="url(#fpy4tycg3rjdb)" height="32" id="asdi::edb::RelationSet" style="stroke:#A80036;stroke-width:1.5;" width="95" x="180.5" y="305"/><ellipse cx="195.5" cy="321" fill="#ADD1B2" rx="11" ry="11" style="stroke:#A80036;stroke-width:1.0;"/><path d="M197.9731,327.1431 Q197.3921,327.4419 196.7529,327.5913 Q196.1138,327.7407 195.4082,327.7407 Q192.9014,327.7407 191.5815,326.0889 Q190.2617,324.437 190.2617,321.3159 Q190.2617,318.1865 191.5815,316.5347 Q192.9014,314.8828 195.4082,314.8828 Q196.1138,314.8828 196.7612,315.0322 Q197.4087,315.1816 197.9731,315.4805 L197.9731,318.2031 Q197.3423,317.6221 196.7488,317.3523 Q196.1553,317.0825 195.5244,317.0825 Q194.1797,317.0825 193.4949,318.1492 Q192.8101,319.2158 192.8101,321.3159 Q192.8101,323.4077 193.4949,324.4744 Q194.1797,325.541 195.5244,325.541 Q196.1553,325.541 196.7488,325.2712 Q197.3423,325.0015 197.9731,324.4204 Z " fill="#000000"/><text fill="#000000" font-family="sans-serif" font-size="12" lengthAdjust="spacing" textLength="63" x="209.5" y="325.5352">RelationSet</text><!--MD5=[30c8d4c59bd3776484494cc31a150236]
class asdi::idb::RuleSet--><rect codeLine="10" fill="#FFFFFF" filter="url(#fpy4tycg3rjdb)" height="32" id="asdi::idb::RuleSet" style="stroke:#A80036;stroke-width:1.5;" width="74" x="332" y="305"/><ellipse cx="347" cy="321" fill="#ADD1B2" rx="11" ry="11" style="stroke:#A80036;stroke-width:1.0;"/><path d="M349.4731,327.1431 Q348.8921,327.4419 348.2529,327.5913 Q347.6138,327.7407 346.9082,327.7407 Q344.4014,327.7407 343.0815,326.0889 Q341.7617,324.437 341.7617,321.3159 Q341.7617,318.1865 343.0815,316.5347 Q344.4014,314.8828 346.9082,314.8828 Q347.6138,314.8828 348.2612,315.0322 Q348.9087,315.1816 349.4731,315.4805 L349.4731,318.2031 Q348.8423,317.6221 348.2488,317.3523 Q347.6553,317.0825 347.0244,317.0825 Q345.6797,317.0825 344.9949,318.1492 Q344.3101,319.2158 344.3101,321.3159 Q344.3101,323.4077 344.9949,324.4744 Q345.6797,325.541 347.0244,325.541 Q347.6553,325.541 348.2488,325.2712 Q348.8423,325.0015 349.4731,324.4204 Z " fill="#000000"/><text fill="#000000" font-family="sans-serif" font-size="12" lengthAdjust="spacing" textLength="42" x="361" y="325.5352">RuleSet</text><!--MD5=[862f5ba143deaa96c11c433d25830988]
class asdi::idb::query::QuerySet--><rect codeLine="13" fill="#FFFFFF" filter="url(#fpy4tycg3rjdb)" height="32" id="asdi::idb::query::QuerySet" style="stroke:#A80036;stroke-width:1.5;" width="83" x="1180.5" y="701.5"/><ellipse cx="1195.5" cy="717.5" fill="#ADD1B2" rx="11" ry="11" style="stroke:#A80036;stroke-width:1.0;"/><path d="M1197.9731,723.6431 Q1197.3921,723.9419 1196.7529,724.0913 Q1196.1138,724.2407 1195.4082,724.2407 Q1192.9014,724.2407 1191.5815,722.5889 Q1190.2617,720.937 1190.2617,717.8159 Q1190.2617,714.6865 1191.5815,713.0347 Q1192.9014,711.3828 1195.4082,711.3828 Q1196.1138,711.3828 1196.7612,711.5322 Q1197.4087,711.6816 1197.9731,711.9805 L1197.9731,714.7031 Q1197.3423,714.1221 1196.7488,713.8523 Q1196.1553,713.5825 1195.5244,713.5825 Q1194.1797,713.5825 1193.4949,714.6492 Q1192.8101,715.7158 1192.8101,717.8159 Q1192.8101,719.9077 1193.4949,720.9744 Q1194.1797,722.041 1195.5244,722.041 Q1196.1553,722.041 1196.7488,721.7712 Q1197.3423,721.5015 1197.9731,720.9204 Z " fill="#000000"/><text fill="#000000" font-family="sans-serif" font-size="12" lengthAdjust="spacing" textLength="51" x="1209.5" y="722.0352">QuerySet</text><!--MD5=[fa1011c7bd77eedf14cd9274bd452e29]
class asdi::MaybePositive--><rect codeLine="18" fill="#FEFECE" filter="url(#fpy4tycg3rjdb)" height="65.9102" id="asdi::MaybePositive" style="stroke:#A80036;stroke-width:1.5;" width="113" x="1010.5" y="684.5"/><ellipse cx="1025.5" cy="700.5" fill="#B4A7E5" rx="11" ry="11" style="stroke:#A80036;stroke-width:1.0;"/><path d="M1021.9277,696.7651 L1021.9277,694.6069 L1029.3071,694.6069 L1029.3071,696.7651 L1026.8418,696.7651 L1026.8418,704.8418 L1029.3071,704.8418 L1029.3071,707 L1021.9277,707 L1021.9277,704.8418 L1024.3931,704.8418 L1024.3931,696.7651 Z " fill="#000000"/><text fill="#000000" font-family="sans-serif" font-size="12" font-style="italic" lengthAdjust="spacing" textLength="81" x="1039.5" y="705.0352">MaybePositive</text><line style="stroke:#A80036;stroke-width:1.5;" x1="1011.5" x2="1122.5" y1="716.5" y2="716.5"/><text fill="#000000" font-family="sans-serif" font-size="11" lengthAdjust="spacing" textLength="98" x="1016.5" y="731.1348">is_positive() : bool</text><text fill="#000000" font-family="sans-serif" font-size="11" lengthAdjust="spacing" textLength="101" x="1016.5" y="744.0898">is_negative() : bool</text><!--MD5=[91cc3482fb0350396608f11633162af9]
class asdi::ProgramCore--><rect codeLine="23" fill="#FEFECE" filter="url(#fpy4tycg3rjdb)" height="91.8203" id="asdi::ProgramCore" style="stroke:#A80036;stroke-width:1.5;" width="158" x="462" y="671.5"/><ellipse cx="499.5" cy="687.5" fill="#B4A7E5" rx="11" ry="11" style="stroke:#A80036;stroke-width:1.0;"/><path d="M495.9277,683.7651 L495.9277,681.6069 L503.3071,681.6069 L503.3071,683.7651 L500.8418,683.7651 L500.8418,691.8418 L503.3071,691.8418 L503.3071,694 L495.9277,694 L495.9277,691.8418 L498.3931,691.8418 L498.3931,683.7651 Z " fill="#000000"/><text fill="#000000" font-family="sans-serif" font-size="12" font-style="italic" lengthAdjust="spacing" textLength="76" x="518.5" y="692.0352">ProgramCore</text><line style="stroke:#A80036;stroke-width:1.5;" x1="463" x2="619" y1="703.5" y2="703.5"/><text fill="#000000" font-family="sans-serif" font-size="11" lengthAdjust="spacing" textLength="125" x="468" y="718.1348">features() : &amp;FeatureSet</text><text fill="#000000" font-family="sans-serif" font-size="11" lengthAdjust="spacing" textLength="146" x="468" y="731.0898">extensional() : &amp;RelationSet</text><text fill="#000000" font-family="sans-serif" font-size="11" lengthAdjust="spacing" textLength="143" x="468" y="744.0449">intensional() : &amp;RelationSet</text><text fill="#000000" font-family="sans-serif" font-size="11" lengthAdjust="spacing" textLength="91" x="468" y="757">rules() : &amp;RuleSet</text><!--MD5=[e100aaab0c0471c95922bb19270262c9]
class asdi::NameReferenceSet--><rect codeLine="30" fill="#FEFECE" filter="url(#fpy4tycg3rjdb)" height="112.7754" id="asdi::NameReferenceSet" style="stroke:#A80036;stroke-width:1.5;" width="320" x="655" y="661"/><ellipse cx="704.25" cy="677" fill="#ADD1B2" rx="11" ry="11" style="stroke:#A80036;stroke-width:1.0;"/><path d="M706.7231,683.1431 Q706.1421,683.4419 705.5029,683.5913 Q704.8638,683.7407 704.1582,683.7407 Q701.6514,683.7407 700.3315,682.0889 Q699.0117,680.437 699.0117,677.3159 Q699.0117,674.1865 700.3315,672.5347 Q701.6514,670.8828 704.1582,670.8828 Q704.8638,670.8828 705.5112,671.0322 Q706.1587,671.1816 706.7231,671.4805 L706.7231,674.2031 Q706.0923,673.6221 705.4988,673.3523 Q704.9053,673.0825 704.2744,673.0825 Q702.9297,673.0825 702.2449,674.1492 Q701.5601,675.2158 701.5601,677.3159 Q701.5601,679.4077 702.2449,680.4744 Q702.9297,681.541 704.2744,681.541 Q704.9053,681.541 705.4988,681.2712 Q706.0923,681.0015 706.7231,680.4204 Z " fill="#000000"/><text fill="#000000" font-family="sans-serif" font-size="12" lengthAdjust="spacing" textLength="109" x="724.75" y="681.5352">NameReferenceSet</text><rect fill="#FFFFFF" height="16.1328" style="stroke:#000000;stroke-width:1.0;stroke-dasharray:2.0,2.0;" width="102" x="876" y="658"/><text fill="#000000" font-family="sans-serif" font-size="12" font-style="italic" lengthAdjust="spacing" textLength="100" x="877" y="670.6016">T: AttributeName</text><line style="stroke:#A80036;stroke-width:1.5;" x1="656" x2="974" y1="693" y2="693"/><line style="stroke:#A80036;stroke-width:1.5;" x1="656" x2="974" y1="701" y2="701"/><text fill="#000000" font-family="sans-serif" font-size="11" lengthAdjust="spacing" textLength="119" x="661" y="715.6348">add(&amp;str) : Result&lt;()&gt;</text><text fill="#000000" font-family="sans-serif" font-size="11" lengthAdjust="spacing" textLength="82" x="661" y="728.5898">add_all(Iterator</text><text fill="#000000" font-family="sans-serif" font-size="11" lengthAdjust="spacing" textLength="72" x="743" y="728.5898">) : Result&lt;()&gt;</text><text fill="#000000" font-family="sans-serif" font-size="11" lengthAdjust="spacing" textLength="110" x="661" y="741.5449">contains(&amp;str) : bool</text><text fill="#000000" font-family="sans-serif" font-size="11" lengthAdjust="spacing" textLength="238" x="661" y="754.5">fetch(&amp;str) : Result&lt;AttributeNameRef&lt;T&gt;&gt;</text><text fill="#000000" font-family="sans-serif" font-size="11" lengthAdjust="spacing" textLength="308" x="661" y="767.4551">canonical(AttributeNameRef&lt;T&gt;) : AttributeNameRef&lt;T&gt;</text><!--MD5=[619a18f3975bec44ed0f3b908af212c9]
class asdi::Program--><rect codeLine="43" fill="#FEFECE" filter="url(#fpy4tycg3rjdb)" height="560.293" id="asdi::Program" style="stroke:#A80036;stroke-width:1.5;" width="497" x="566.5" y="41"/><ellipse cx="786.25" cy="57" fill="#ADD1B2" rx="11" ry="11" style="stroke:#A80036;stroke-width:1.0;"/><path d="M788.7231,63.1431 Q788.1421,63.4419 787.5029,63.5913 Q786.8638,63.7407 786.1582,63.7407 Q783.6514,63.7407 782.3315,62.0889 Q781.0117,60.437 781.0117,57.3159 Q781.0117,54.1865 782.3315,52.5347 Q783.6514,50.8828 786.1582,50.8828 Q786.8638,50.8828 787.5112,51.0322 Q788.1587,51.1816 788.7231,51.4805 L788.7231,54.2031 Q788.0923,53.6221 787.4988,53.3523 Q786.9053,53.0825 786.2744,53.0825 Q784.9297,53.0825 784.2449,54.1492 Q783.5601,55.2158 783.5601,57.3159 Q783.5601,59.4077 784.2449,60.4744 Q784.9297,61.541 786.2744,61.541 Q786.9053,61.541 787.4988,61.2712 Q788.0923,61.0015 788.7231,60.4204 Z " fill="#000000"/><text fill="#000000" font-family="sans-serif" font-size="12" lengthAdjust="spacing" textLength="49" x="806.75" y="61.5352">Program</text><line style="stroke:#A80036;stroke-width:1.5;" x1="567.5" x2="1062.5" y1="73" y2="73"/><text fill="#000000" font-family="sans-serif" font-size="11" lengthAdjust="spacing" textLength="191" x="572.5" y="87.6348">new_with_features(FeatureSet) : Self</text><text fill="#000000" font-family="sans-serif" font-size="11" lengthAdjust="spacing" textLength="143" x="572.5" y="100.5898">source_file_path() : Option</text><text fill="#000000" font-family="sans-serif" font-size="11" lengthAdjust="spacing" textLength="247" x="572.5" y="130.5">predicates() : &amp;NameReferenceSet&lt;Predicate&gt;</text><text fill="#000000" font-family="sans-serif" font-size="11" lengthAdjust="spacing" textLength="233" x="572.5" y="143.4551">variables() : &amp;NameReferenceSet&lt;Variable&gt;</text><line style="stroke:#A80036;stroke-width:1.0;" x1="567.5" x2="792.5" y1="113.3877" y2="113.3877"/><line style="stroke:#A80036;stroke-width:1.0;" x1="567.5" x2="792.5" y1="115.3877" y2="115.3877"/><text fill="#000000" font-family="sans-serif" font-size="11" lengthAdjust="spacing" textLength="45" x="792.5" y="117.0449">interned</text><line style="stroke:#A80036;stroke-width:1.0;" x1="837.5" x2="1062.5" y1="113.3877" y2="113.3877"/><line style="stroke:#A80036;stroke-width:1.0;" x1="837.5" x2="1062.5" y1="115.3877" y2="115.3877"/><text fill="#000000" font-family="sans-serif" font-size="11" lengthAdjust="spacing" textLength="197" x="572.5" y="173.3652">extensional_mut() : &amp;mut RelationSet</text><text fill="#000000" font-family="sans-serif" font-size="11" lengthAdjust="spacing" textLength="485" x="572.5" y="186.3203">add_new_extensional_relation(PredicateRef, Schema&lt;Predicate&gt;) : Result&lt;&amp;mut Relation&gt;</text><text fill="#000000" font-family="sans-serif" font-size="11" lengthAdjust="spacing" textLength="186" x="572.5" y="199.2754">add_extensional_relation(Relation)</text><text fill="#000000" font-family="sans-serif" font-size="11" lengthAdjust="spacing" textLength="196" x="572.5" y="212.2305">load_extensional_data() : Result&lt;()&gt;</text><line style="stroke:#A80036;stroke-width:1.0;" x1="567.5" x2="805" y1="156.2529" y2="156.2529"/><line style="stroke:#A80036;stroke-width:1.0;" x1="567.5" x2="805" y1="158.2529" y2="158.2529"/><text fill="#000000" font-family="sans-serif" font-size="11" lengthAdjust="spacing" textLength="20" x="805" y="159.9102">edb</text><line style="stroke:#A80036;stroke-width:1.0;" x1="825" x2="1062.5" y1="156.2529" y2="156.2529"/><line style="stroke:#A80036;stroke-width:1.0;" x1="825" x2="1062.5" y1="158.2529" y2="158.2529"/><text fill="#000000" font-family="sans-serif" font-size="11" lengthAdjust="spacing" textLength="194" x="572.5" y="242.1406">intensional_mut() : &amp;mut RelationSet</text><text fill="#000000" font-family="sans-serif" font-size="11" lengthAdjust="spacing" textLength="482" x="572.5" y="255.0957">add_new_intensional_relation(PredicateRef, Schema&lt;Predicate&gt;) : Result&lt;&amp;mut Relation&gt;</text><text fill="#000000" font-family="sans-serif" font-size="11" lengthAdjust="spacing" textLength="183" x="572.5" y="268.0508">add_intensional_relation(Relation)</text><text fill="#000000" font-family="sans-serif" font-size="11" lengthAdjust="spacing" textLength="198" x="572.5" y="281.0059">store_intensional_data() : Result&lt;()&gt;</text><text fill="#000000" font-family="sans-serif" font-size="11" lengthAdjust="spacing" textLength="410" x="572.5" y="293.9609">add_new_pure_rule(PredicateRef, Vec&lt;Term&gt;, Vec&lt;Literal&gt;) : Result&lt;bool&gt;</text><text fill="#000000" font-family="sans-serif" font-size="11" lengthAdjust="spacing" textLength="297" x="572.5" y="306.916">add_new_constraint_rule(Vec&lt;Literal&gt;) : Result&lt;bool&gt;</text><text fill="#000000" font-family="sans-serif" font-size="11" lengthAdjust="spacing" textLength="372" x="572.5" y="319.8711">add_new_disjunctive_rule(Vec&lt;Atom&gt;, Vec&lt;Literal&gt;) : Result&lt;bool&gt;</text><text fill="#000000" font-family="sans-serif" font-size="11" lengthAdjust="spacing" textLength="162" x="572.5" y="332.8262">add_rule(Rule) : Result&lt;bool&gt;</text><text fill="#000000" font-family="sans-serif" font-size="11" lengthAdjust="spacing" textLength="296" x="572.5" y="345.7813">add_new_query(Predicate, Vec&lt;Term&gt;) : Result&lt;bool&gt;</text><text fill="#000000" font-family="sans-serif" font-size="11" lengthAdjust="spacing" textLength="182" x="572.5" y="358.7363">add_query(Query) : Result&lt;bool&gt;</text><line style="stroke:#A80036;stroke-width:1.0;" x1="567.5" x2="806.5" y1="225.0283" y2="225.0283"/><line style="stroke:#A80036;stroke-width:1.0;" x1="567.5" x2="806.5" y1="227.0283" y2="227.0283"/><text fill="#000000" font-family="sans-serif" font-size="11" lengthAdjust="spacing" textLength="17" x="806.5" y="228.6855">idb</text><line style="stroke:#A80036;stroke-width:1.0;" x1="823.5" x2="1062.5" y1="225.0283" y2="225.0283"/><line style="stroke:#A80036;stroke-width:1.0;" x1="823.5" x2="1062.5" y1="227.0283" y2="227.0283"/><text fill="#000000" font-family="sans-serif" font-size="11" lengthAdjust="spacing" textLength="153" x="572.5" y="388.6465">queries(&amp;self) -&gt; &amp;QuerySet</text><line style="stroke:#A80036;stroke-width:1.0;" x1="567.5" x2="795" y1="371.5342" y2="371.5342"/><line style="stroke:#A80036;stroke-width:1.0;" x1="567.5" x2="795" y1="373.5342" y2="373.5342"/><text fill="#000000" font-family="sans-serif" font-size="11" lengthAdjust="spacing" textLength="40" x="795" y="375.1914">queries</text><line style="stroke:#A80036;stroke-width:1.0;" x1="835" x2="1062.5" y1="371.5342" y2="371.5342"/><line style="stroke:#A80036;stroke-width:1.0;" x1="835" x2="1062.5" y1="373.5342" y2="373.5342"/><text fill="#000000" font-family="sans-serif" font-size="11" lengthAdjust="spacing" textLength="106" x="572.5" y="418.5566">is_recursive() : bool</text><text fill="#000000" font-family="sans-serif" font-size="11" lengthAdjust="spacing" textLength="129" x="572.5" y="431.5117">is_semi_positive() : bool</text><text fill="#000000" font-family="sans-serif" font-size="11" lengthAdjust="spacing" textLength="86" x="572.5" y="444.4668">is_linear() : bool</text><text fill="#000000" font-family="sans-serif" font-size="11" lengthAdjust="spacing" textLength="101" x="572.5" y="457.4219">is_guarded() : bool</text><text fill="#000000" font-family="sans-serif" font-size="11" lengthAdjust="spacing" textLength="148" x="572.5" y="470.377">is_frontier_guarded() : bool</text><line style="stroke:#A80036;stroke-width:1.0;" x1="567.5" x2="787" y1="401.4443" y2="401.4443"/><line style="stroke:#A80036;stroke-width:1.0;" x1="567.5" x2="787" y1="403.4443" y2="403.4443"/><text fill="#000000" font-family="sans-serif" font-size="11" lengthAdjust="spacing" textLength="56" x="787" y="405.1016">predicates</text><line style="stroke:#A80036;stroke-width:1.0;" x1="843" x2="1062.5" y1="401.4443" y2="401.4443"/><line style="stroke:#A80036;stroke-width:1.0;" x1="843" x2="1062.5" y1="403.4443" y2="403.4443"/><text fill="#000000" font-family="sans-serif" font-size="11" lengthAdjust="spacing" textLength="175" x="572.5" y="500.2871">run(Evaluator, bool) : Result&lt;()&gt;</text><text fill="#000000" font-family="sans-serif" font-size="11" lengthAdjust="spacing" textLength="246" x="572.5" y="513.2422">eval_query(&amp;Query) : Result&lt;Option&lt;View&gt;&gt;</text><text fill="#000000" font-family="sans-serif" font-size="11" lengthAdjust="spacing" textLength="330" x="572.5" y="526.1973">eval_query_with(&amp;Query, Evaluator) : Result&lt;Option&lt;View&gt;&gt;</text><text fill="#000000" font-family="sans-serif" font-size="11" lengthAdjust="spacing" textLength="306" x="572.5" y="539.1523">eval_queries() : Result&lt;Vec&lt;(&amp;Query, Option&lt;View&gt;)&gt;&gt;</text><text fill="#000000" font-family="sans-serif" font-size="11" lengthAdjust="spacing" textLength="384" x="572.5" y="552.1074">eval_queries_with(Evaluator) : Result&lt;Vec&lt;(&amp;Query, Option&lt;View&gt;)&gt;&gt;</text><line style="stroke:#A80036;stroke-width:1.0;" x1="567.5" x2="787.5" y1="483.1748" y2="483.1748"/><line style="stroke:#A80036;stroke-width:1.0;" x1="567.5" x2="787.5" y1="485.1748" y2="485.1748"/><text fill="#000000" font-family="sans-serif" font-size="11" lengthAdjust="spacing" textLength="55" x="787.5" y="486.832">evaluation</text><line style="stroke:#A80036;stroke-width:1.0;" x1="842.5" x2="1062.5" y1="483.1748" y2="483.1748"/><line style="stroke:#A80036;stroke-width:1.0;" x1="842.5" x2="1062.5" y1="485.1748" y2="485.1748"/><rect fill="#F24D5C" height="6" style="stroke:#C82930;stroke-width:1.0;" width="6" x="574.5" y="575.3828"/><text fill="#000000" font-family="sans-serif" font-size="11" lengthAdjust="spacing" textLength="159" x="586.5" y="582.0176">set_source_file_path(PathBuf)</text><rect fill="#F24D5C" height="6" style="stroke:#C82930;stroke-width:1.0;" width="6" x="574.5" y="588.3379"/><text fill="#000000" font-family="sans-serif" font-size="11" lengthAdjust="spacing" textLength="176" x="586.5" y="594.9727">features_mut() : &amp;mut FeatureSet</text><line style="stroke:#A80036;stroke-width:1.0;" x1="567.5" x2="801.5" y1="564.9053" y2="564.9053"/><line style="stroke:#A80036;stroke-width:1.0;" x1="567.5" x2="801.5" y1="566.9053" y2="566.9053"/><text fill="#000000" font-family="sans-serif" font-size="11" lengthAdjust="spacing" textLength="27" x="801.5" y="568.5625">crate</text><line style="stroke:#A80036;stroke-width:1.0;" x1="828.5" x2="1062.5" y1="564.9053" y2="564.9053"/><line style="stroke:#A80036;stroke-width:1.0;" x1="828.5" x2="1062.5" y1="566.9053" y2="566.9053"/><!--MD5=[4681e5381920d05722abada9433001ed]
reverse link asdi::features::FeatureSet to asdi::ProgramCore--><path codeLine="38" d="M78.13,342.4 C79.6,393.44 90.63,527.75 164,601 C243.81,680.68 377.04,705.64 461.87,713.31 " fill="none" id="asdi::features::FeatureSet-backto-asdi::ProgramCore" style="stroke:#A80036;stroke-width:1.0;stroke-dasharray:7.0,7.0;"/><polygon fill="#A80036" points="78.01,337.16,74.2167,346.2491,78.1243,342.1587,82.2146,346.0662,78.01,337.16" style="stroke:#A80036;stroke-width:1.0;"/><!--MD5=[862fd5a6234edc6404853a7871942d99]
reverse link asdi::edb::RelationSet to asdi::ProgramCore--><path codeLine="39" d="M220.72,342.36 C216.04,392.2 232.31,521.99 299,601 C340.56,650.24 408.41,680.98 461.95,698.25 " fill="none" id="asdi::edb::RelationSet-backto-asdi::ProgramCore" style="stroke:#A80036;stroke-width:1.0;stroke-dasharray:7.0,7.0;"/><polygon fill="#A80036" points="221.31,337.24,216.3084,345.7244,220.739,342.2073,224.2561,346.6379,221.31,337.24" style="stroke:#A80036;stroke-width:1.0;"/><text fill="#000000" font-family="sans-serif" font-size="13" lengthAdjust="spacing" textLength="73" x="134.5432" y="357.425">extensional</text><!--MD5=[862fd5a6234edc6404853a7871942d99]
reverse link asdi::edb::RelationSet to asdi::ProgramCore--><path codeLine="40" d="M238.12,342.36 C251.04,392.2 267.31,521.99 334,601 C367.7,640.93 418.69,668.69 461.8,686.98 " fill="none" id="asdi::edb::RelationSet-backto-asdi::ProgramCore-1" style="stroke:#A80036;stroke-width:1.0;stroke-dasharray:7.0,7.0;"/><polygon fill="#A80036" points="236.72,337.24,235.2314,346.9757,238.0368,342.0635,242.949,344.8688,236.72,337.24" style="stroke:#A80036;stroke-width:1.0;"/><text fill="#000000" font-family="sans-serif" font-size="13" lengthAdjust="spacing" textLength="70" x="250.6558" y="357.425">intensional</text><!--MD5=[ed281010a167536b28b7fe5958e0c29d]
reverse link asdi::idb::RuleSet to asdi::ProgramCore--><path codeLine="41" d="M371.62,342.17 C378.39,389.61 399.3,511.03 446,601 C459.16,626.35 478.55,651.24 496.39,671.38 " fill="none" id="asdi::idb::RuleSet-backto-asdi::ProgramCore" style="stroke:#A80036;stroke-width:1.0;stroke-dasharray:7.0,7.0;"/><polygon fill="#A80036" points="370.9,337.02,368.2015,346.492,371.6011,341.9706,376.1225,345.3702,370.9,337.02" style="stroke:#A80036;stroke-width:1.0;"/><!--MD5=[61548d7db5417584fce196914e269885]
link asdi::Program to asdi::ProgramCore--><path codeLine="84" d="M621.17,601.07 C607.6,620.6 594.94,638.84 583.86,654.79 " fill="none" id="asdi::Program-to-asdi::ProgramCore" style="stroke:#A80036;stroke-width:1.0;stroke-dasharray:7.0,7.0;"/><polygon fill="none" points="589.45,659.02,572.29,671.45,577.95,651.03,589.45,659.02" style="stroke:#A80036;stroke-width:1.0;"/><!--MD5=[44e9340b47c8de994572dde550f90837]
link asdi::Program to asdi::MaybePositive--><path codeLine="85" d="M993.26,601.07 C1009.05,625.78 1023.51,648.42 1035.36,666.97 " fill="none" id="asdi::Program-to-asdi::MaybePositive" style="stroke:#A80036;stroke-width:1.0;stroke-dasharray:7.0,7.0;"/><polygon fill="none" points="1041.43,663.46,1046.29,684.09,1029.63,671,1041.43,663.46" style="stroke:#A80036;stroke-width:1.0;"/><!--MD5=[0f15252b4738b16c222587f165b2bb57]
link asdi::Program to asdi::NameReferenceSet--><path codeLine="86" d="M803.6359,613.0647 C803.6359,613.0647 804.51,637.32 805.05,647.7 " fill="none" id="asdi::Program-asdi::NameReferenceSet" style="stroke:#A80036;stroke-width:1.0;"/><polygon fill="#A80036" points="805.8,660.84,809.2795,651.6262,805.5144,655.8482,801.2925,652.0831,805.8,660.84" style="stroke:#A80036;stroke-width:1.0;"/><line style="stroke:#A80036;stroke-width:1.0;" x1="805.5144" x2="805.055" y1="655.8482" y2="647.86"/><polygon fill="#A80036" points="803.28,601.07,799.4597,607.186,803.6359,613.0647,807.4562,606.9487,803.28,601.07" style="stroke:#A80036;stroke-width:1.0;"/><text fill="#000000" font-family="sans-serif" font-size="13" lengthAdjust="spacing" textLength="65" x="735.4572" y="650.2221">predicates</text><!--MD5=[0f15252b4738b16c222587f165b2bb57]
link asdi::Program to asdi::NameReferenceSet--><path codeLine="87" d="M827.0405,613.0643 C827.0405,613.0643 826.11,637.32 825.54,647.7 " fill="none" id="asdi::Program-asdi::NameReferenceSet-1" style="stroke:#A80036;stroke-width:1.0;"/><polygon fill="#A80036" points="824.74,660.84,829.2672,652.0933,825.0368,655.8488,821.2814,651.6184,824.74,660.84" style="stroke:#A80036;stroke-width:1.0;"/><line style="stroke:#A80036;stroke-width:1.0;" x1="825.0368" x2="825.53" y1="655.8488" y2="647.86"/><polygon fill="#A80036" points="827.41,601.07,823.2272,606.944,827.0405,613.0643,831.2234,607.1903,827.41,601.07" style="stroke:#A80036;stroke-width:1.0;"/><text fill="#000000" font-family="sans-serif" font-size="13" lengthAdjust="spacing" textLength="56" x="829.5754" y="650.2221">variables</text><!--MD5=[fedb9724573343aae7598a72889cad8e]
link asdi::Program to asdi::idb::query::QuerySet--><path codeLine="88" d="M1072.3862,571.4823 C1072.3862,571.4823 1170.05,666.15 1196.98,692.25 " fill="none" id="asdi::Program-asdi::idb::query::QuerySet" style="stroke:#A80036;stroke-width:1.0;"/><polygon fill="#A80036" points="1206.35,701.33,1202.665,692.1965,1202.7573,697.8526,1197.1012,697.9449,1206.35,701.33" style="stroke:#A80036;stroke-width:1.0;"/><line style="stroke:#A80036;stroke-width:1.0;" x1="1202.7573" x2="1197.015" y1="697.8526" y2="692.28"/><polygon fill="#A80036" points="1063.77,563.13,1065.294,570.1782,1072.3862,571.4823,1070.8622,564.4341,1063.77,563.13" style="stroke:#A80036;stroke-width:1.0;"/><!--MD5=[16aa55eb49a2eea7b6ceae44f0ac59dd]
@startuml

!include options.plantuml

class asdi::features::FeatureSet #white
hide "asdi::features::FeatureSet" members

class asdi::edb::RelationSet #white
hide "asdi::edb::RelationSet" members

class asdi::idb::RuleSet #white
hide "asdi::idb::RuleSet" members

class asdi::idb::query::QuerySet #white
hide "asdi::idb::query::QuerySet" members

namespace asdi {

    interface MaybePositive {
        is_positive() : bool
        is_negative() : bool
    }

    interface ProgramCore {
        features() : &FeatureSet
        extensional() : &RelationSet
        intensional() : &RelationSet
        rules() : &RuleSet
    }

    class NameReferenceSet<T: AttributeName> {
        add(&str) : Result<()>
        add_all(Iterator<&str>) : Result<()>
        contains(&str) : bool
        fetch(&str) : Result<AttributeNameRef<T>>
        canonical(AttributeNameRef<T>) : AttributeNameRef<T>
    }

    ProgramCore .up.> asdi::features::FeatureSet
    ProgramCore .up.> "extensional" asdi::edb::RelationSet
    ProgramCore .up.> "intensional" asdi::edb::RelationSet
    ProgramCore .up.> asdi::idb::RuleSet

    class Program {
        new_with_features(FeatureSet) : Self
        source_file_path() : Option<&PathBuf>
        == interned ==
        predicates() : &NameReferenceSet<Predicate>
        variables() : &NameReferenceSet<Variable>
        == edb ==
        extensional_mut() : &mut RelationSet
        add_new_extensional_relation(PredicateRef, Schema<Predicate>) : Result<&mut Relation>
        add_extensional_relation(Relation)
        load_extensional_data() : Result<()>
        == idb ==
        intensional_mut() : &mut RelationSet
        add_new_intensional_relation(PredicateRef, Schema<Predicate>) : Result<&mut Relation>
        add_intensional_relation(Relation)
        store_intensional_data() : Result<()>
        add_new_pure_rule(PredicateRef, Vec<Term>, Vec<Literal>) : Result<bool>
        add_new_constraint_rule(Vec<Literal>) : Result<bool>
        add_new_disjunctive_rule(Vec<Atom>, Vec<Literal>) : Result<bool>
        add_rule(Rule) : Result<bool>
        add_new_query(Predicate, Vec<Term>) : Result<bool>
        add_query(Query) : Result<bool>
        == queries ==
        queries(&self) -> &QuerySet
        == predicates ==
        is_recursive() : bool
        is_semi_positive() : bool
        is_linear() : bool
        is_guarded() : bool
        is_frontier_guarded() : bool
        == evaluation ==
        run(Evaluator, bool) : Result<()>
        eval_query(&Query) : Result<Option<View>>
        eval_query_with(&Query, Evaluator) : Result<Option<View>>
        eval_queries() : Result<Vec<(&Query, Option<View>)>>
        eval_queries_with(Evaluator) : Result<Vec<(&Query, Option<View>)>>
        == crate ==
        - set_source_file_path(PathBuf)
        - features_mut() : &mut FeatureSet
    }

    Program ..|> ProgramCore
    Program ..|> MaybePositive
    Program *- -> "predicates" NameReferenceSet
    Program *- -> "variables" NameReferenceSet
    Program *- -> asdi::idb::query::QuerySet

}

@enduml

@startuml

set namespaceSeparator ::
hide enum methods
hide interface fields
hide << const >> members
hide << type >> members
hide << type >> stereotype
hide << module >> fields
hide << module >> circle

class asdi::features::FeatureSet #white
hide "asdi::features::FeatureSet" members

class asdi::edb::RelationSet #white
hide "asdi::edb::RelationSet" members

class asdi::idb::RuleSet #white
hide "asdi::idb::RuleSet" members

class asdi::idb::query::QuerySet #white
hide "asdi::idb::query::QuerySet" members

namespace asdi {

    interface MaybePositive {
        is_positive() : bool
        is_negative() : bool
    }

    interface ProgramCore {
        features() : &FeatureSet
        extensional() : &RelationSet
        intensional() : &RelationSet
        rules() : &RuleSet
    }

    class NameReferenceSet<T: AttributeName> {
        add(&str) : Result<()>
        add_all(Iterator<&str>) : Result<()>
        contains(&str) : bool
        fetch(&str) : Result<AttributeNameRef<T>>
        canonical(AttributeNameRef<T>) : AttributeNameRef<T>
    }

    ProgramCore .up.> asdi::features::FeatureSet
    ProgramCore .up.> "extensional" asdi::edb::RelationSet
    ProgramCore .up.> "intensional" asdi::edb::RelationSet
    ProgramCore .up.> asdi::idb::RuleSet

    class Program {
        new_with_features(FeatureSet) : Self
        source_file_path() : Option<&PathBuf>
        == interned ==
        predicates() : &NameReferenceSet<Predicate>
        variables() : &NameReferenceSet<Variable>
        == edb ==
        extensional_mut() : &mut RelationSet
        add_new_extensional_relation(PredicateRef, Schema<Predicate>) : Result<&mut Relation>
        add_extensional_relation(Relation)
        load_extensional_data() : Result<()>
        == idb ==
        intensional_mut() : &mut RelationSet
        add_new_intensional_relation(PredicateRef, Schema<Predicate>) : Result<&mut Relation>
        add_intensional_relation(Relation)
        store_intensional_data() : Result<()>
        add_new_pure_rule(PredicateRef, Vec<Term>, Vec<Literal>) : Result<bool>
        add_new_constraint_rule(Vec<Literal>) : Result<bool>
        add_new_disjunctive_rule(Vec<Atom>, Vec<Literal>) : Result<bool>
        add_rule(Rule) : Result<bool>
        add_new_query(Predicate, Vec<Term>) : Result<bool>
        add_query(Query) : Result<bool>
        == queries ==
        queries(&self) -> &QuerySet
        == predicates ==
        is_recursive() : bool
        is_semi_positive() : bool
        is_linear() : bool
        is_guarded() : bool
        is_frontier_guarded() : bool
        == evaluation ==
        run(Evaluator, bool) : Result<()>
        eval_query(&Query) : Result<Option<View>>
        eval_query_with(&Query, Evaluator) : Result<Option<View>>
        eval_queries() : Result<Vec<(&Query, Option<View>)>>
        eval_queries_with(Evaluator) : Result<Vec<(&Query, Option<View>)>>
        == crate ==
        - set_source_file_path(PathBuf)
        - features_mut() : &mut FeatureSet
    }

    Program ..|> ProgramCore
    Program ..|> MaybePositive
    Program *- -> "predicates" NameReferenceSet
    Program *- -> "variables" NameReferenceSet
    Program *- -> asdi::idb::query::QuerySet

}

@enduml

PlantUML version 1.2022.1(Tue Feb 01 10:19:58 PST 2022)
(GPL source distribution)
Java Runtime: OpenJDK Runtime Environment
JVM: OpenJDK 64-Bit Server VM
Default Encoding: UTF-8
Language: en
Country: US
--></g></svg>