<?xml version="1.0" encoding="UTF-8" standalone="no"?><svg xmlns="http://www.w3.org/2000/svg" xmlns:xlink="http://www.w3.org/1999/xlink" contentScriptType="application/ecmascript" contentStyleType="text/css" height="312px" preserveAspectRatio="none" style="width:612px;height:312px;background:#FFFFFF;" version="1.1" viewBox="0 0 612 312" width="612px" zoomAndPan="magnify"><defs><filter height="300%" id="f1p837rdvffecq" width="300%" x="-1" y="-1"><feGaussianBlur result="blurOut" stdDeviation="2.0"/><feColorMatrix in="blurOut" result="blurOut2" type="matrix" values="0 0 0 0 0 0 0 0 0 0 0 0 0 0 0 0 0 0 .4 0"/><feOffset dx="4.0" dy="4.0" in="blurOut2" result="blurOut3"/><feBlend in="SourceGraphic" in2="blurOut3" mode="normal"/></filter></defs><g><!--MD5=[e274c4916ac42ef1c11391a83d303c10]
cluster asdi--><polygon fill="#FFFFFF" filter="url(#f1p837rdvffecq)" points="16,6,52,6,59,28.4883,447,28.4883,447,305,16,305,16,6" style="stroke:#000000;stroke-width:1.5;"/><line style="stroke:#000000;stroke-width:1.5;" x1="16" x2="59" y1="28.4883" y2="28.4883"/><text fill="#000000" font-family="sans-serif" font-size="14" font-weight="bold" lengthAdjust="spacing" textLength="30" x="20" y="21.5352">asdi</text><!--MD5=[b374931f687849f56b466a813b6789be]
cluster asdi::parse--><polygon fill="#FFFFFF" filter="url(#f1p837rdvffecq)" points="40,49,85,49,92,71.4883,423,71.4883,423,198,40,198,40,49" style="stroke:#000000;stroke-width:1.5;"/><line style="stroke:#000000;stroke-width:1.5;" x1="40" x2="92" y1="71.4883" y2="71.4883"/><text fill="#000000" font-family="sans-serif" font-size="14" font-weight="bold" lengthAdjust="spacing" textLength="39" x="44" y="64.5352">parse</text><!--MD5=[af63c64fec698275cfc4891f303451d3]
cluster asdi::features--><polygon fill="#FFFFFF" filter="url(#f1p837rdvffecq)" points="471,222,572,222,579,244.4883,595,244.4883,595,305,471,305,471,222" style="stroke:#000000;stroke-width:1.5;"/><line style="stroke:#000000;stroke-width:1.5;" x1="471" x2="579" y1="244.4883" y2="244.4883"/><text fill="#000000" font-family="sans-serif" font-size="14" font-weight="bold" lengthAdjust="spacing" textLength="95" x="475" y="237.5352">asdi::features</text><!--MD5=[619a18f3975bec44ed0f3b908af212c9]
class asdi::Program--><rect codeLine="4" fill="#FEFECE" filter="url(#f1p837rdvffecq)" height="32" id="asdi::Program" style="stroke:#A80036;stroke-width:1.5;" width="81" x="51.5" y="257"/><ellipse cx="66.5" cy="273" fill="#ADD1B2" rx="11" ry="11" style="stroke:#A80036;stroke-width:1.0;"/><path d="M68.9731,279.1431 Q68.3921,279.4419 67.7529,279.5913 Q67.1138,279.7407 66.4082,279.7407 Q63.9014,279.7407 62.5815,278.0889 Q61.2617,276.437 61.2617,273.3159 Q61.2617,270.1865 62.5815,268.5347 Q63.9014,266.8828 66.4082,266.8828 Q67.1138,266.8828 67.7612,267.0322 Q68.4087,267.1816 68.9731,267.4805 L68.9731,270.2031 Q68.3423,269.6221 67.7488,269.3523 Q67.1553,269.0825 66.5244,269.0825 Q65.1797,269.0825 64.4949,270.1492 Q63.8101,271.2158 63.8101,273.3159 Q63.8101,275.4077 64.4949,276.4744 Q65.1797,277.541 66.5244,277.541 Q67.1553,277.541 67.7488,277.2712 Q68.3423,277.0015 68.9731,276.4204 Z " fill="#000000"/><text fill="#000000" font-family="sans-serif" font-size="12" lengthAdjust="spacing" textLength="49" x="80.5" y="277.5352">Program</text><!--MD5=[0db33391b9336008281609ac665a1a45]
class asdi::parse::Parsed--><rect codeLine="11" fill="#FEFECE" filter="url(#f1p837rdvffecq)" height="48" id="asdi::parse::Parsed" style="stroke:#A80036;stroke-width:1.5;" width="72" x="56" y="109"/><ellipse cx="71" cy="125" fill="#ADD1B2" rx="11" ry="11" style="stroke:#A80036;stroke-width:1.0;"/><path d="M73.4731,131.1431 Q72.8921,131.4419 72.2529,131.5913 Q71.6138,131.7407 70.9082,131.7407 Q68.4014,131.7407 67.0815,130.0889 Q65.7617,128.437 65.7617,125.3159 Q65.7617,122.1865 67.0815,120.5347 Q68.4014,118.8828 70.9082,118.8828 Q71.6138,118.8828 72.2612,119.0322 Q72.9087,119.1816 73.4731,119.4805 L73.4731,122.2031 Q72.8423,121.6221 72.2488,121.3523 Q71.6553,121.0825 71.0244,121.0825 Q69.6797,121.0825 68.9949,122.1492 Q68.3101,123.2158 68.3101,125.3159 Q68.3101,127.4077 68.9949,128.4744 Q69.6797,129.541 71.0244,129.541 Q71.6553,129.541 72.2488,129.2712 Q72.8423,129.0015 73.4731,128.4204 Z " fill="#000000"/><text fill="#000000" font-family="sans-serif" font-size="12" lengthAdjust="spacing" textLength="40" x="85" y="129.5352">Parsed</text><line style="stroke:#A80036;stroke-width:1.5;" x1="57" x2="127" y1="141" y2="141"/><line style="stroke:#A80036;stroke-width:1.5;" x1="57" x2="127" y1="149" y2="149"/><!--MD5=[c79c318dd94870705d6f260cced41187]
class asdi::parse::parse--><rect codeLine="15" fill="#FEFECE" filter="url(#f1p837rdvffecq)" height="98.0859" id="asdi::parse::parse" style="stroke:#A80036;stroke-width:1.5;" width="243" x="163.5" y="84"/><text fill="#000000" font-family="sans-serif" font-size="12" font-style="italic" lengthAdjust="spacing" textLength="55" x="257.5" y="100.6016">«module»</text><text fill="#000000" font-family="sans-serif" font-size="12" lengthAdjust="spacing" textLength="33" x="268.5" y="114.7344">parse</text><line style="stroke:#A80036;stroke-width:1.5;" x1="164.5" x2="405.5" y1="122.2656" y2="122.2656"/><text fill="#000000" font-family="sans-serif" font-size="11" lengthAdjust="spacing" textLength="153" x="169.5" y="136.9004">parse_file(): Result&lt;Parsed&gt;</text><text fill="#000000" font-family="sans-serif" font-size="11" lengthAdjust="spacing" textLength="231" x="169.5" y="149.8555">parse_file_with_features(): Result&lt;Parsed&gt;</text><text fill="#000000" font-family="sans-serif" font-size="11" lengthAdjust="spacing" textLength="152" x="169.5" y="162.8105">parse_str(): Result&lt;Parsed&gt;</text><text fill="#000000" font-family="sans-serif" font-size="11" lengthAdjust="spacing" textLength="230" x="169.5" y="175.7656">parse_str_with_features(): Result&lt;Parsed&gt;</text><!--MD5=[10e3bb9f30c83b84488054de99f42877]
class asdi::features::FeatureSet--><rect codeLine="7" fill="#FEFECE" filter="url(#f1p837rdvffecq)" height="32" id="asdi::features::FeatureSet" style="stroke:#A80036;stroke-width:1.5;" width="92" x="487" y="257"/><ellipse cx="502" cy="273" fill="#ADD1B2" rx="11" ry="11" style="stroke:#A80036;stroke-width:1.0;"/><path d="M504.4731,279.1431 Q503.8921,279.4419 503.2529,279.5913 Q502.6138,279.7407 501.9082,279.7407 Q499.4014,279.7407 498.0815,278.0889 Q496.7617,276.437 496.7617,273.3159 Q496.7617,270.1865 498.0815,268.5347 Q499.4014,266.8828 501.9082,266.8828 Q502.6138,266.8828 503.2612,267.0322 Q503.9087,267.1816 504.4731,267.4805 L504.4731,270.2031 Q503.8423,269.6221 503.2488,269.3523 Q502.6553,269.0825 502.0244,269.0825 Q500.6797,269.0825 499.9949,270.1492 Q499.3101,271.2158 499.3101,273.3159 Q499.3101,275.4077 499.9949,276.4744 Q500.6797,277.541 502.0244,277.541 Q502.6553,277.541 503.2488,277.2712 Q503.8423,277.0015 504.4731,276.4204 Z " fill="#000000"/><text fill="#000000" font-family="sans-serif" font-size="12" lengthAdjust="spacing" textLength="60" x="516" y="277.5352">FeatureSet</text><!--MD5=[b6f8b2eb9b9fe7b952d9e7e633bc952a]
link asdi::parse::Parsed to asdi::Program--><path codeLine="13" d="M92,157.1 C92,183.6 92,226.64 92,251.84 " fill="none" id="asdi::parse::Parsed-to-asdi::Program" style="stroke:#A80036;stroke-width:1.0;"/><polygon fill="#A80036" points="92,256.94,96,247.94,92,251.94,88,247.94,92,256.94" style="stroke:#A80036;stroke-width:1.0;"/><!--MD5=[b6027f0d47cc081ec063505106c17bac]
link asdi::parse::parse to asdi::features::FeatureSet--><path codeLine="22" d="M387.64,182.08 C407.59,192.16 428.15,203.05 447,214 C468.25,226.34 491.28,242 508.15,253.94 " fill="none" id="asdi::parse::parse-to-asdi::features::FeatureSet" style="stroke:#A80036;stroke-width:1.0;stroke-dasharray:7.0,7.0;"/><polygon fill="#A80036" points="512.3,256.89,507.2761,248.4189,508.2227,253.996,502.6456,254.9426,512.3,256.89" style="stroke:#A80036;stroke-width:1.0;"/><!--MD5=[1216932f3c9f82d43d7135113571cba0]
@startuml

!include options.plantuml

class asdi::Program
hide "asdi::Program" members

class asdi::features::FeatureSet
hide "asdi::features::FeatureSet" members

namespace asdi::parse {
    class Parsed

    Parsed - -> asdi::Program

    class parse << module >> {
        parse_file(): Result<Parsed>
        parse_file_with_features(): Result<Parsed>
        parse_str(): Result<Parsed>
        parse_str_with_features(): Result<Parsed>
    }

    parse ..> asdi::features::FeatureSet
}

@enduml

@startuml

set namespaceSeparator ::
hide enum methods
hide interface fields
hide << const >> members
hide << type >> members
hide << type >> stereotype
hide << module >> fields
hide << module >> circle

class asdi::Program
hide "asdi::Program" members

class asdi::features::FeatureSet
hide "asdi::features::FeatureSet" members

namespace asdi::parse {
    class Parsed

    Parsed - -> asdi::Program

    class parse << module >> {
        parse_file(): Result<Parsed>
        parse_file_with_features(): Result<Parsed>
        parse_str(): Result<Parsed>
        parse_str_with_features(): Result<Parsed>
    }

    parse ..> asdi::features::FeatureSet
}

@enduml

PlantUML version 1.2022.1(Tue Feb 01 10:19:58 PST 2022)
(GPL source distribution)
Java Runtime: OpenJDK Runtime Environment
JVM: OpenJDK 64-Bit Server VM
Default Encoding: UTF-8
Language: en
Country: US
--></g></svg>