<?xml version="1.0" encoding="UTF-8" standalone="no"?><svg xmlns="http://www.w3.org/2000/svg" xmlns:xlink="http://www.w3.org/1999/xlink" contentScriptType="application/ecmascript" contentStyleType="text/css" height="312px" preserveAspectRatio="none" style="width:666px;height:312px;background:#FFFFFF;" version="1.1" viewBox="0 0 666 312" width="666px" zoomAndPan="magnify"><defs><filter height="300%" id="f1nbv5tt911rn6" width="300%" x="-1" y="-1"><feGaussianBlur result="blurOut" stdDeviation="2.0"/><feColorMatrix in="blurOut" result="blurOut2" type="matrix" values="0 0 0 0 0 0 0 0 0 0 0 0 0 0 0 0 0 0 .4 0"/><feOffset dx="4.0" dy="4.0" in="blurOut2" result="blurOut3"/><feBlend in="SourceGraphic" in2="blurOut3" mode="normal"/></filter></defs><g><!--MD5=[e274c4916ac42ef1c11391a83d303c10]
cluster asdi--><polygon fill="#FFFFFF" filter="url(#f1nbv5tt911rn6)" points="16,6,52,6,59,28.4883,501,28.4883,501,305,16,305,16,6" style="stroke:#000000;stroke-width:1.5;"/><line style="stroke:#000000;stroke-width:1.5;" x1="16" x2="59" y1="28.4883" y2="28.4883"/><text fill="#000000" font-family="sans-serif" font-size="14" font-weight="bold" lengthAdjust="spacing" textLength="30" x="20" y="21.5352">asdi</text><!--MD5=[b374931f687849f56b466a813b6789be]
cluster asdi::parse--><polygon fill="#FFFFFF" filter="url(#f1nbv5tt911rn6)" points="40,49,85,49,92,71.4883,477,71.4883,477,198,40,198,40,49" style="stroke:#000000;stroke-width:1.5;"/><line style="stroke:#000000;stroke-width:1.5;" x1="40" x2="92" y1="71.4883" y2="71.4883"/><text fill="#000000" font-family="sans-serif" font-size="14" font-weight="bold" lengthAdjust="spacing" textLength="39" x="44" y="64.5352">parse</text><!--MD5=[af63c64fec698275cfc4891f303451d3]
cluster asdi::features--><polygon fill="#FFFFFF" filter="url(#f1nbv5tt911rn6)" points="525,222,626,222,633,244.4883,649,244.4883,649,305,525,305,525,222" style="stroke:#000000;stroke-width:1.5;"/><line style="stroke:#000000;stroke-width:1.5;" x1="525" x2="633" y1="244.4883" y2="244.4883"/><text fill="#000000" font-family="sans-serif" font-size="14" font-weight="bold" lengthAdjust="spacing" textLength="95" x="529" y="237.5352">asdi::features</text><!--MD5=[619a18f3975bec44ed0f3b908af212c9]
class asdi::Program--><rect codeLine="4" fill="#FEFECE" filter="url(#f1nbv5tt911rn6)" height="32" id="asdi::Program" style="stroke:#A80036;stroke-width:1.5;" width="81" x="78.5" y="257"/><ellipse cx="93.5" cy="273" fill="#ADD1B2" rx="11" ry="11" style="stroke:#A80036;stroke-width:1.0;"/><path d="M95.9731,279.1431 Q95.3921,279.4419 94.7529,279.5913 Q94.1138,279.7407 93.4082,279.7407 Q90.9014,279.7407 89.5815,278.0889 Q88.2617,276.437 88.2617,273.3159 Q88.2617,270.1865 89.5815,268.5347 Q90.9014,266.8828 93.4082,266.8828 Q94.1138,266.8828 94.7612,267.0322 Q95.4087,267.1816 95.9731,267.4805 L95.9731,270.2031 Q95.3423,269.6221 94.7488,269.3523 Q94.1553,269.0825 93.5244,269.0825 Q92.1797,269.0825 91.4949,270.1492 Q90.8101,271.2158 90.8101,273.3159 Q90.8101,275.4077 91.4949,276.4744 Q92.1797,277.541 93.5244,277.541 Q94.1553,277.541 94.7488,277.2712 Q95.3423,277.0015 95.9731,276.4204 Z " fill="#000000"/><text fill="#000000" font-family="sans-serif" font-size="12" lengthAdjust="spacing" textLength="49" x="107.5" y="277.5352">Program</text><!--MD5=[0db33391b9336008281609ac665a1a45]
class asdi::parse::Parsed--><rect codeLine="11" fill="#FEFECE" filter="url(#f1nbv5tt911rn6)" height="60.9551" id="asdi::parse::Parsed" style="stroke:#A80036;stroke-width:1.5;" width="126" x="56" y="102.5"/><ellipse cx="95.3" cy="118.5" fill="#ADD1B2" rx="11" ry="11" style="stroke:#A80036;stroke-width:1.0;"/><path d="M97.7731,124.6431 Q97.1921,124.9419 96.5529,125.0913 Q95.9138,125.2407 95.2082,125.2407 Q92.7014,125.2407 91.3815,123.5889 Q90.0617,121.937 90.0617,118.8159 Q90.0617,115.6865 91.3815,114.0347 Q92.7014,112.3828 95.2082,112.3828 Q95.9138,112.3828 96.5612,112.5322 Q97.2087,112.6816 97.7731,112.9805 L97.7731,115.7031 Q97.1423,115.1221 96.5488,114.8523 Q95.9553,114.5825 95.3244,114.5825 Q93.9797,114.5825 93.2949,115.6492 Q92.6101,116.7158 92.6101,118.8159 Q92.6101,120.9077 93.2949,121.9744 Q93.9797,123.041 95.3244,123.041 Q95.9553,123.041 96.5488,122.7712 Q97.1423,122.5015 97.7731,121.9204 Z " fill="#000000"/><text fill="#000000" font-family="sans-serif" font-size="12" lengthAdjust="spacing" textLength="40" x="114.7" y="123.0352">Parsed</text><line style="stroke:#A80036;stroke-width:1.5;" x1="57" x2="181" y1="134.5" y2="134.5"/><text fill="#000000" font-family="sans-serif" font-size="11" lengthAdjust="spacing" textLength="114" x="62" y="149.1348">rest: Option&lt;String&gt;</text><line style="stroke:#A80036;stroke-width:1.5;" x1="57" x2="181" y1="155.4551" y2="155.4551"/><!--MD5=[c79c318dd94870705d6f260cced41187]
class asdi::parse::parse--><rect codeLine="17" fill="#FEFECE" filter="url(#f1nbv5tt911rn6)" height="98.0859" id="asdi::parse::parse" style="stroke:#A80036;stroke-width:1.5;" width="243" x="217.5" y="84"/><text fill="#000000" font-family="sans-serif" font-size="12" font-style="italic" lengthAdjust="spacing" textLength="55" x="311.5" y="100.6016">«module»</text><text fill="#000000" font-family="sans-serif" font-size="12" lengthAdjust="spacing" textLength="33" x="322.5" y="114.7344">parse</text><line style="stroke:#A80036;stroke-width:1.5;" x1="218.5" x2="459.5" y1="122.2656" y2="122.2656"/><text fill="#000000" font-family="sans-serif" font-size="11" lengthAdjust="spacing" textLength="153" x="223.5" y="136.9004">parse_file(): Result&lt;Parsed&gt;</text><text fill="#000000" font-family="sans-serif" font-size="11" lengthAdjust="spacing" textLength="231" x="223.5" y="149.8555">parse_file_with_features(): Result&lt;Parsed&gt;</text><text fill="#000000" font-family="sans-serif" font-size="11" lengthAdjust="spacing" textLength="152" x="223.5" y="162.8105">parse_str(): Result&lt;Parsed&gt;</text><text fill="#000000" font-family="sans-serif" font-size="11" lengthAdjust="spacing" textLength="230" x="223.5" y="175.7656">parse_str_with_features(): Result&lt;Parsed&gt;</text><!--MD5=[10e3bb9f30c83b84488054de99f42877]
class asdi::features::FeatureSet--><rect codeLine="7" fill="#FEFECE" filter="url(#f1nbv5tt911rn6)" height="32" id="asdi::features::FeatureSet" style="stroke:#A80036;stroke-width:1.5;" width="92" x="541" y="257"/><ellipse cx="556" cy="273" fill="#ADD1B2" rx="11" ry="11" style="stroke:#A80036;stroke-width:1.0;"/><path d="M558.4731,279.1431 Q557.8921,279.4419 557.2529,279.5913 Q556.6138,279.7407 555.9082,279.7407 Q553.4014,279.7407 552.0815,278.0889 Q550.7617,276.437 550.7617,273.3159 Q550.7617,270.1865 552.0815,268.5347 Q553.4014,266.8828 555.9082,266.8828 Q556.6138,266.8828 557.2612,267.0322 Q557.9087,267.1816 558.4731,267.4805 L558.4731,270.2031 Q557.8423,269.6221 557.2488,269.3523 Q556.6553,269.0825 556.0244,269.0825 Q554.6797,269.0825 553.9949,270.1492 Q553.3101,271.2158 553.3101,273.3159 Q553.3101,275.4077 553.9949,276.4744 Q554.6797,277.541 556.0244,277.541 Q556.6553,277.541 557.2488,277.2712 Q557.8423,277.0015 558.4731,276.4204 Z " fill="#000000"/><text fill="#000000" font-family="sans-serif" font-size="12" lengthAdjust="spacing" textLength="60" x="570" y="277.5352">FeatureSet</text><!--MD5=[b6f8b2eb9b9fe7b952d9e7e633bc952a]
link asdi::parse::Parsed to asdi::Program--><path codeLine="15" d="M119,175.6 C119,175.6 119,224.38 119,243.65 " fill="none" id="asdi::parse::Parsed-asdi::Program" style="stroke:#A80036;stroke-width:1.0;"/><polygon fill="#A80036" points="119,256.92,123,247.92,119,251.92,115,247.92,119,256.92" style="stroke:#A80036;stroke-width:1.0;"/><line style="stroke:#A80036;stroke-width:1.0;" x1="119" x2="119" y1="251.92" y2="243.92"/><polygon fill="#A80036" points="119,163.6,115,169.6,119,175.6,123,169.6,119,163.6" style="stroke:#A80036;stroke-width:1.0;"/><!--MD5=[b6027f0d47cc081ec063505106c17bac]
link asdi::parse::parse to asdi::features::FeatureSet--><path codeLine="24" d="M441.64,182.08 C461.59,192.16 482.15,203.05 501,214 C522.25,226.34 545.28,242 562.15,253.94 " fill="none" id="asdi::parse::parse-to-asdi::features::FeatureSet" style="stroke:#A80036;stroke-width:1.0;stroke-dasharray:7.0,7.0;"/><polygon fill="#A80036" points="566.3,256.89,561.2761,248.4189,562.2227,253.996,556.6456,254.9426,566.3,256.89" style="stroke:#A80036;stroke-width:1.0;"/><!--MD5=[3d6540dfa1816b3f32826b0594a2caa1]
reverse link asdi::parse::Parsed to asdi::parse::parse--><path codeLine="25" d="M187.39,133 C197.39,133 207.39,133 217.39,133 " fill="none" id="asdi::parse::Parsed-backto-asdi::parse::parse" style="stroke:#A80036;stroke-width:1.0;stroke-dasharray:7.0,7.0;"/><polygon fill="#A80036" points="182.16,133,191.16,137,187.16,133,191.16,129,182.16,133" style="stroke:#A80036;stroke-width:1.0;"/><!--MD5=[4bde596f33b8cbada28513e97a32e04d]
@startuml

!include options.plantuml

class asdi::Program
hide "asdi::Program" members

class asdi::features::FeatureSet
hide "asdi::features::FeatureSet" members

namespace asdi::parse {
    class Parsed {
        rest: Option<String>
    }

    Parsed *-down-> asdi::Program

    class parse << module >> {
        parse_file(): Result<Parsed>
        parse_file_with_features(): Result<Parsed>
        parse_str(): Result<Parsed>
        parse_str_with_features(): Result<Parsed>
    }

    parse ..> asdi::features::FeatureSet
    parse .left.> Parsed
}

@enduml

@startuml

set namespaceSeparator ::
hide enum methods
hide interface fields
hide << const >> members
hide << type >> members
hide << type >> stereotype
hide << module >> fields
hide << module >> circle

class asdi::Program
hide "asdi::Program" members

class asdi::features::FeatureSet
hide "asdi::features::FeatureSet" members

namespace asdi::parse {
    class Parsed {
        rest: Option<String>
    }

    Parsed *-down-> asdi::Program

    class parse << module >> {
        parse_file(): Result<Parsed>
        parse_file_with_features(): Result<Parsed>
        parse_str(): Result<Parsed>
        parse_str_with_features(): Result<Parsed>
    }

    parse ..> asdi::features::FeatureSet
    parse .left.> Parsed
}

@enduml

PlantUML version 1.2022.1(Tue Feb 01 10:19:58 PST 2022)
(GPL source distribution)
Java Runtime: OpenJDK Runtime Environment
JVM: OpenJDK 64-Bit Server VM
Default Encoding: UTF-8
Language: en
Country: US
--></g></svg>