<?xml version="1.0" encoding="UTF-8" standalone="no"?><svg xmlns="http://www.w3.org/2000/svg" xmlns:xlink="http://www.w3.org/1999/xlink" contentScriptType="application/ecmascript" contentStyleType="text/css" height="184px" preserveAspectRatio="none" style="width:792px;height:184px;background:#FFFFFF;" version="1.1" viewBox="0 0 792 184" width="792px" zoomAndPan="magnify"><defs><filter height="300%" id="f16fftr9qwchpj" width="300%" x="-1" y="-1"><feGaussianBlur result="blurOut" stdDeviation="2.0"/><feColorMatrix in="blurOut" result="blurOut2" type="matrix" values="0 0 0 0 0 0 0 0 0 0 0 0 0 0 0 0 0 0 .4 0"/><feOffset dx="4.0" dy="4.0" in="blurOut2" result="blurOut3"/><feBlend in="SourceGraphic" in2="blurOut3" mode="normal"/></filter></defs><g><!--MD5=[e274c4916ac42ef1c11391a83d303c10]
cluster asdi--><polygon fill="#FFFFFF" filter="url(#f16fftr9qwchpj)" points="16,6,52,6,59,28.4883,775,28.4883,775,177,16,177,16,6" style="stroke:#000000;stroke-width:1.5;"/><line style="stroke:#000000;stroke-width:1.5;" x1="16" x2="59" y1="28.4883" y2="28.4883"/><text fill="#000000" font-family="sans-serif" font-size="14" font-weight="bold" lengthAdjust="spacing" textLength="30" x="20" y="21.5352">asdi</text><!--MD5=[ae3c197a01158459eb2ddb806e23d6f2]
cluster asdi::idb--><polygon fill="#FFFFFF" filter="url(#f16fftr9qwchpj)" points="574,49,603,49,610,71.4883,751,71.4883,751,153,574,153,574,49" style="stroke:#000000;stroke-width:1.5;"/><line style="stroke:#000000;stroke-width:1.5;" x1="574" x2="610" y1="71.4883" y2="71.4883"/><text fill="#000000" font-family="sans-serif" font-size="14" font-weight="bold" lengthAdjust="spacing" textLength="23" x="578" y="64.5352">idb</text><polygon fill="#FFFFFF" filter="url(#f16fftr9qwchpj)" points="509,84,541,84,548,106.4883,555,106.4883,555,136.9766,509,136.9766,509,84" style="stroke:#000000;stroke-width:1.5;"/><line style="stroke:#000000;stroke-width:1.5;" x1="509" x2="548" y1="106.4883" y2="106.4883"/><text fill="#000000" font-family="sans-serif" font-size="14" font-weight="bold" lengthAdjust="spacing" textLength="26" x="513" y="99.5352">edb</text><polygon fill="#FFFFFF" filter="url(#f16fftr9qwchpj)" points="418.5,84,459.5,84,466.5,106.4883,473.5,106.4883,473.5,136.9766,418.5,136.9766,418.5,84" style="stroke:#000000;stroke-width:1.5;"/><line style="stroke:#000000;stroke-width:1.5;" x1="418.5" x2="466.5" y1="106.4883" y2="106.4883"/><text fill="#000000" font-family="sans-serif" font-size="14" font-weight="bold" lengthAdjust="spacing" textLength="35" x="422.5" y="99.5352">error</text><polygon fill="#FFFFFF" filter="url(#f16fftr9qwchpj)" points="304.5,84,369.5,84,376.5,106.4883,383.5,106.4883,383.5,136.9766,304.5,136.9766,304.5,84" style="stroke:#000000;stroke-width:1.5;"/><line style="stroke:#000000;stroke-width:1.5;" x1="304.5" x2="376.5" y1="106.4883" y2="106.4883"/><text fill="#000000" font-family="sans-serif" font-size="14" font-weight="bold" lengthAdjust="spacing" textLength="59" x="308.5" y="99.5352">features</text><polygon fill="#FFFFFF" filter="url(#f16fftr9qwchpj)" points="685.5,84,720.5,84,727.5,106.4883,734.5,106.4883,734.5,136.9766,685.5,136.9766,685.5,84" style="stroke:#000000;stroke-width:1.5;"/><line style="stroke:#000000;stroke-width:1.5;" x1="685.5" x2="727.5" y1="106.4883" y2="106.4883"/><text fill="#000000" font-family="sans-serif" font-size="14" font-weight="bold" lengthAdjust="spacing" textLength="29" x="689.5" y="99.5352">eval</text><polygon fill="#FFFFFF" filter="url(#f16fftr9qwchpj)" points="590,84,636,84,643,106.4883,650,106.4883,650,136.9766,590,136.9766,590,84" style="stroke:#000000;stroke-width:1.5;"/><line style="stroke:#000000;stroke-width:1.5;" x1="590" x2="643" y1="106.4883" y2="106.4883"/><text fill="#000000" font-family="sans-serif" font-size="14" font-weight="bold" lengthAdjust="spacing" textLength="40" x="594" y="99.5352">query</text><polygon fill="#FFFFFF" filter="url(#f16fftr9qwchpj)" points="235,84,255,84,262,106.4883,269,106.4883,269,136.9766,235,136.9766,235,84" style="stroke:#000000;stroke-width:1.5;"/><line style="stroke:#000000;stroke-width:1.5;" x1="235" x2="262" y1="106.4883" y2="106.4883"/><text fill="#000000" font-family="sans-serif" font-size="14" font-weight="bold" lengthAdjust="spacing" textLength="14" x="239" y="99.5352">io</text><polygon fill="#FFFFFF" filter="url(#f16fftr9qwchpj)" points="140.5,84,185.5,84,192.5,106.4883,199.5,106.4883,199.5,136.9766,140.5,136.9766,140.5,84" style="stroke:#000000;stroke-width:1.5;"/><line style="stroke:#000000;stroke-width:1.5;" x1="140.5" x2="192.5" y1="106.4883" y2="106.4883"/><text fill="#000000" font-family="sans-serif" font-size="14" font-weight="bold" lengthAdjust="spacing" textLength="39" x="144.5" y="99.5352">parse</text><polygon fill="#FFFFFF" filter="url(#f16fftr9qwchpj)" points="32.5,84,91.5,84,98.5,106.4883,105.5,106.4883,105.5,136.9766,32.5,136.9766,32.5,84" style="stroke:#000000;stroke-width:1.5;"/><line style="stroke:#000000;stroke-width:1.5;" x1="32.5" x2="98.5" y1="106.4883" y2="106.4883"/><text fill="#000000" font-family="sans-serif" font-size="14" font-weight="bold" lengthAdjust="spacing" textLength="53" x="36.5" y="99.5352">typeset</text><!--MD5=[ab18a43300e7859c0ee165505a8005aa]
@startuml

!include options.plantuml


namespace asdi {

    namespace edb {}
    namespace error {}
    namespace features {}
    namespace idb {
        namespace eval {}
        namespace query {}
    }
    namespace io {}
    namespace parse {}
    namespace typeset {}
}

@enduml

@startuml

set namespaceSeparator ::
hide enum methods
hide interface fields
hide << const >> members
hide << type >> members
hide << type >> stereotype
hide << module >> fields
hide << module >> circle


namespace asdi {

    namespace edb {}
    namespace error {}
    namespace features {}
    namespace idb {
        namespace eval {}
        namespace query {}
    }
    namespace io {}
    namespace parse {}
    namespace typeset {}
}

@enduml

PlantUML version 1.2022.1(Tue Feb 01 10:19:58 PST 2022)
(GPL source distribution)
Java Runtime: OpenJDK Runtime Environment
JVM: OpenJDK 64-Bit Server VM
Default Encoding: UTF-8
Language: en
Country: US
--></g></svg>