<?xml version="1.0" encoding="UTF-8" standalone="no"?><svg xmlns="http://www.w3.org/2000/svg" xmlns:xlink="http://www.w3.org/1999/xlink" contentScriptType="application/ecmascript" contentStyleType="text/css" height="251px" preserveAspectRatio="none" style="width:1060px;height:251px;background:#FFFFFF;" version="1.1" viewBox="0 0 1060 251" width="1060px" zoomAndPan="magnify"><defs><filter height="300%" id="f1kw6bzaubsgf1" width="300%" x="-1" y="-1"><feGaussianBlur result="blurOut" stdDeviation="2.0"/><feColorMatrix in="blurOut" result="blurOut2" type="matrix" values="0 0 0 0 0 0 0 0 0 0 0 0 0 0 0 0 0 0 .4 0"/><feOffset dx="4.0" dy="4.0" in="blurOut2" result="blurOut3"/><feBlend in="SourceGraphic" in2="blurOut3" mode="normal"/></filter></defs><g><!--MD5=[e274c4916ac42ef1c11391a83d303c10]
cluster asdi--><polygon fill="#FFFFFF" filter="url(#f1kw6bzaubsgf1)" points="16,6,52,6,59,28.4883,1043,28.4883,1043,244,16,244,16,6" style="stroke:#000000;stroke-width:1.5;"/><line style="stroke:#000000;stroke-width:1.5;" x1="16" x2="59" y1="28.4883" y2="28.4883"/><text fill="#000000" font-family="sans-serif" font-size="14" font-weight="bold" lengthAdjust="spacing" textLength="30" x="20" y="21.5352">asdi</text><!--MD5=[6bc3af5db4038e5494ba0622f07de59b]
cluster asdi::edb--><polygon fill="#FFFFFF" filter="url(#f1kw6bzaubsgf1)" points="726,49,758,49,765,71.4883,1019,71.4883,1019,220,726,220,726,49" style="stroke:#000000;stroke-width:1.5;"/><line style="stroke:#000000;stroke-width:1.5;" x1="726" x2="765" y1="71.4883" y2="71.4883"/><text fill="#000000" font-family="sans-serif" font-size="14" font-weight="bold" lengthAdjust="spacing" textLength="26" x="730" y="64.5352">edb</text><!--MD5=[b33f2e4372094b15554e3bf4225fc453]
cluster asdi::edb::io--><polygon fill="#FFFFFF" filter="url(#f1kw6bzaubsgf1)" points="750,92,770,92,777,114.4883,995,114.4883,995,196,750,196,750,92" style="stroke:#000000;stroke-width:1.5;"/><line style="stroke:#000000;stroke-width:1.5;" x1="750" x2="777" y1="114.4883" y2="114.4883"/><text fill="#000000" font-family="sans-serif" font-size="14" font-weight="bold" lengthAdjust="spacing" textLength="14" x="754" y="107.5352">io</text><!--MD5=[ae3c197a01158459eb2ddb806e23d6f2]
cluster asdi::idb--><polygon fill="#FFFFFF" filter="url(#f1kw6bzaubsgf1)" points="414,49,443,49,450,71.4883,702,71.4883,702,220,414,220,414,49" style="stroke:#000000;stroke-width:1.5;"/><line style="stroke:#000000;stroke-width:1.5;" x1="414" x2="450" y1="71.4883" y2="71.4883"/><text fill="#000000" font-family="sans-serif" font-size="14" font-weight="bold" lengthAdjust="spacing" textLength="23" x="418" y="64.5352">idb</text><!--MD5=[bbfb16aff101aff206c25fb1af5c6b4b]
cluster asdi::idb::eval--><polygon fill="#FFFFFF" filter="url(#f1kw6bzaubsgf1)" points="584,92,619,92,626,114.4883,678,114.4883,678,196,584,196,584,92" style="stroke:#000000;stroke-width:1.5;"/><line style="stroke:#000000;stroke-width:1.5;" x1="584" x2="626" y1="114.4883" y2="114.4883"/><text fill="#000000" font-family="sans-serif" font-size="14" font-weight="bold" lengthAdjust="spacing" textLength="29" x="588" y="107.5352">eval</text><!--MD5=[331bdf5c2291f41e90a08533bcc43e12]
cluster asdi::idb::query--><polygon fill="#FFFFFF" filter="url(#f1kw6bzaubsgf1)" points="438,92,484,92,491,114.4883,560,114.4883,560,196,438,196,438,92" style="stroke:#000000;stroke-width:1.5;"/><line style="stroke:#000000;stroke-width:1.5;" x1="438" x2="491" y1="114.4883" y2="114.4883"/><text fill="#000000" font-family="sans-serif" font-size="14" font-weight="bold" lengthAdjust="spacing" textLength="40" x="442" y="107.5352">query</text><polygon fill="#FFFFFF" filter="url(#f1kw6bzaubsgf1)" points="935.5,127,964.5,127,971.5,149.4883,978.5,149.4883,978.5,179.9766,935.5,179.9766,935.5,127" style="stroke:#000000;stroke-width:1.5;"/><line style="stroke:#000000;stroke-width:1.5;" x1="935.5" x2="971.5" y1="149.4883" y2="149.4883"/><text fill="#000000" font-family="sans-serif" font-size="14" font-weight="bold" lengthAdjust="spacing" textLength="23" x="939.5" y="142.5352">csv</text><polygon fill="#FFFFFF" filter="url(#f1kw6bzaubsgf1)" points="849.5,127,886.5,127,893.5,149.4883,900.5,149.4883,900.5,179.9766,849.5,179.9766,849.5,127" style="stroke:#000000;stroke-width:1.5;"/><line style="stroke:#000000;stroke-width:1.5;" x1="849.5" x2="893.5" y1="149.4883" y2="149.4883"/><text fill="#000000" font-family="sans-serif" font-size="14" font-weight="bold" lengthAdjust="spacing" textLength="31" x="853.5" y="142.5352">json</text><polygon fill="#FFFFFF" filter="url(#f1kw6bzaubsgf1)" points="766,127,800,127,807,149.4883,814,149.4883,814,179.9766,766,179.9766,766,127" style="stroke:#000000;stroke-width:1.5;"/><line style="stroke:#000000;stroke-width:1.5;" x1="766" x2="807" y1="149.4883" y2="149.4883"/><text fill="#000000" font-family="sans-serif" font-size="14" font-weight="bold" lengthAdjust="spacing" textLength="28" x="770" y="142.5352">text</text><polygon fill="#FFFFFF" filter="url(#f1kw6bzaubsgf1)" points="342.5,127,383.5,127,390.5,149.4883,397.5,149.4883,397.5,179.9766,342.5,179.9766,342.5,127" style="stroke:#000000;stroke-width:1.5;"/><line style="stroke:#000000;stroke-width:1.5;" x1="342.5" x2="390.5" y1="149.4883" y2="149.4883"/><text fill="#000000" font-family="sans-serif" font-size="14" font-weight="bold" lengthAdjust="spacing" textLength="35" x="346.5" y="142.5352">error</text><polygon fill="#FFFFFF" filter="url(#f1kw6bzaubsgf1)" points="228.5,127,293.5,127,300.5,149.4883,307.5,149.4883,307.5,179.9766,228.5,179.9766,228.5,127" style="stroke:#000000;stroke-width:1.5;"/><line style="stroke:#000000;stroke-width:1.5;" x1="228.5" x2="300.5" y1="149.4883" y2="149.4883"/><text fill="#000000" font-family="sans-serif" font-size="14" font-weight="bold" lengthAdjust="spacing" textLength="59" x="232.5" y="142.5352">features</text><polygon fill="#FFFFFF" filter="url(#f1kw6bzaubsgf1)" points="600,127,648,127,655,149.4883,662,149.4883,662,179.9766,600,179.9766,600,127" style="stroke:#000000;stroke-width:1.5;"/><line style="stroke:#000000;stroke-width:1.5;" x1="600" x2="655" y1="149.4883" y2="149.4883"/><text fill="#000000" font-family="sans-serif" font-size="14" font-weight="bold" lengthAdjust="spacing" textLength="42" x="604" y="142.5352">strata</text><polygon fill="#FFFFFF" filter="url(#f1kw6bzaubsgf1)" points="454.5,127,529.5,127,536.5,149.4883,543.5,149.4883,543.5,179.9766,454.5,179.9766,454.5,127" style="stroke:#000000;stroke-width:1.5;"/><line style="stroke:#000000;stroke-width:1.5;" x1="454.5" x2="536.5" y1="149.4883" y2="149.4883"/><text fill="#000000" font-family="sans-serif" font-size="14" font-weight="bold" lengthAdjust="spacing" textLength="69" x="458.5" y="142.5352">relational</text><polygon fill="#FFFFFF" filter="url(#f1kw6bzaubsgf1)" points="134.5,127,179.5,127,186.5,149.4883,193.5,149.4883,193.5,179.9766,134.5,179.9766,134.5,127" style="stroke:#000000;stroke-width:1.5;"/><line style="stroke:#000000;stroke-width:1.5;" x1="134.5" x2="186.5" y1="149.4883" y2="149.4883"/><text fill="#000000" font-family="sans-serif" font-size="14" font-weight="bold" lengthAdjust="spacing" textLength="39" x="138.5" y="142.5352">parse</text><polygon fill="#FFFFFF" filter="url(#f1kw6bzaubsgf1)" points="32.5,127,85.5,127,92.5,149.4883,99.5,149.4883,99.5,179.9766,32.5,179.9766,32.5,127" style="stroke:#000000;stroke-width:1.5;"/><line style="stroke:#000000;stroke-width:1.5;" x1="32.5" x2="92.5" y1="149.4883" y2="149.4883"/><text fill="#000000" font-family="sans-serif" font-size="14" font-weight="bold" lengthAdjust="spacing" textLength="47" x="36.5" y="142.5352">visitor</text><!--MD5=[e3af04eca0647bdc84043321a6d60939]
@startuml

!include options.plantuml

namespace asdi {

    namespace edb {
        namespace io {
            namespace csv {}
            namespace json {}
            namespace text {}
        }
    }
    namespace error {}
    namespace features {}
    namespace idb {
        namespace eval {
            namespace strata {}
        }
        namespace query {
            namespace relational {}
        }
    }
    namespace parse {}
    namespace visitor {}
}

@enduml

@startuml

set namespaceSeparator ::
hide enum methods
hide interface fields
hide << const >> members
hide << type >> members
hide << type >> stereotype
hide << module >> fields
hide << module >> circle

namespace asdi {

    namespace edb {
        namespace io {
            namespace csv {}
            namespace json {}
            namespace text {}
        }
    }
    namespace error {}
    namespace features {}
    namespace idb {
        namespace eval {
            namespace strata {}
        }
        namespace query {
            namespace relational {}
        }
    }
    namespace parse {}
    namespace visitor {}
}

@enduml

PlantUML version 1.2022.1(Tue Feb 01 10:19:58 PST 2022)
(GPL source distribution)
Java Runtime: OpenJDK Runtime Environment
JVM: OpenJDK 64-Bit Server VM
Default Encoding: UTF-8
Language: en
Country: US
--></g></svg>