<?xml version="1.0" encoding="UTF-8" standalone="no"?><svg xmlns="http://www.w3.org/2000/svg" xmlns:xlink="http://www.w3.org/1999/xlink" contentScriptType="application/ecmascript" contentStyleType="text/css" height="510px" preserveAspectRatio="none" style="width:933px;height:510px;background:#FFFFFF;" version="1.1" viewBox="0 0 933 510" width="933px" zoomAndPan="magnify"><defs><filter height="300%" id="f7qokadaswhg0" width="300%" x="-1" y="-1"><feGaussianBlur result="blurOut" stdDeviation="2.0"/><feColorMatrix in="blurOut" result="blurOut2" type="matrix" values="0 0 0 0 0 0 0 0 0 0 0 0 0 0 0 0 0 0 .4 0"/><feOffset dx="4.0" dy="4.0" in="blurOut2" result="blurOut3"/><feBlend in="SourceGraphic" in2="blurOut3" mode="normal"/></filter></defs><g><!--MD5=[e274c4916ac42ef1c11391a83d303c10]
cluster asdi--><polygon fill="#FFFFFF" filter="url(#f7qokadaswhg0)" points="16,6,52,6,59,28.4883,753,28.4883,753,396,16,396,16,6" style="stroke:#000000;stroke-width:1.5;"/><line style="stroke:#000000;stroke-width:1.5;" x1="16" x2="59" y1="28.4883" y2="28.4883"/><text fill="#000000" font-family="sans-serif" font-size="14" font-weight="bold" lengthAdjust="spacing" textLength="30" x="20" y="21.5352">asdi</text><!--MD5=[06db1a3c418c087d07f3ad85f7929579]
cluster asdi::visitor--><polygon fill="#FFFFFF" filter="url(#f7qokadaswhg0)" points="40,49,93,49,100,71.4883,639,71.4883,639,372,40,372,40,49" style="stroke:#000000;stroke-width:1.5;"/><line style="stroke:#000000;stroke-width:1.5;" x1="40" x2="100" y1="71.4883" y2="71.4883"/><text fill="#000000" font-family="sans-serif" font-size="14" font-weight="bold" lengthAdjust="spacing" textLength="47" x="44" y="64.5352">visitor</text><!--MD5=[6bc3af5db4038e5494ba0622f07de59b]
cluster asdi::edb--><polygon fill="#FFFFFF" filter="url(#f7qokadaswhg0)" points="111,420,179,420,186,442.4883,443,442.4883,443,503,111,503,111,420" style="stroke:#000000;stroke-width:1.5;"/><line style="stroke:#000000;stroke-width:1.5;" x1="111" x2="186" y1="442.4883" y2="442.4883"/><text fill="#000000" font-family="sans-serif" font-size="14" font-weight="bold" lengthAdjust="spacing" textLength="62" x="115" y="435.5352">asdi::edb</text><!--MD5=[ae3c197a01158459eb2ddb806e23d6f2]
cluster asdi::idb--><polygon fill="#FFFFFF" filter="url(#f7qokadaswhg0)" points="470,420,535,420,542,442.4883,669,442.4883,669,503,470,503,470,420" style="stroke:#000000;stroke-width:1.5;"/><line style="stroke:#000000;stroke-width:1.5;" x1="470" x2="542" y1="442.4883" y2="442.4883"/><text fill="#000000" font-family="sans-serif" font-size="14" font-weight="bold" lengthAdjust="spacing" textLength="59" x="474" y="435.5352">asdi::idb</text><!--MD5=[331bdf5c2291f41e90a08533bcc43e12]
cluster asdi::idb::query--><polygon fill="#FFFFFF" filter="url(#f7qokadaswhg0)" points="699,420,810,420,817,442.4883,916,442.4883,916,503,699,503,699,420" style="stroke:#000000;stroke-width:1.5;"/><line style="stroke:#000000;stroke-width:1.5;" x1="699" x2="817" y1="442.4883" y2="442.4883"/><text fill="#000000" font-family="sans-serif" font-size="14" font-weight="bold" lengthAdjust="spacing" textLength="105" x="703" y="435.5352">asdi::idb::query</text><!--MD5=[619a18f3975bec44ed0f3b908af212c9]
class asdi::Program--><rect codeLine="4" fill="#FEFECE" filter="url(#f7qokadaswhg0)" height="32" id="asdi::Program" style="stroke:#A80036;stroke-width:1.5;" width="81" x="655.5" y="320"/><ellipse cx="670.5" cy="336" fill="#ADD1B2" rx="11" ry="11" style="stroke:#A80036;stroke-width:1.0;"/><path d="M672.9731,342.1431 Q672.3921,342.4419 671.7529,342.5913 Q671.1138,342.7407 670.4082,342.7407 Q667.9014,342.7407 666.5815,341.0889 Q665.2617,339.437 665.2617,336.3159 Q665.2617,333.1865 666.5815,331.5347 Q667.9014,329.8828 670.4082,329.8828 Q671.1138,329.8828 671.7612,330.0322 Q672.4087,330.1816 672.9731,330.4805 L672.9731,333.2031 Q672.3423,332.6221 671.7488,332.3523 Q671.1553,332.0825 670.5244,332.0825 Q669.1797,332.0825 668.4949,333.1492 Q667.8101,334.2158 667.8101,336.3159 Q667.8101,338.4077 668.4949,339.4744 Q669.1797,340.541 670.5244,340.541 Q671.1553,340.541 671.7488,340.2712 Q672.3423,340.0015 672.9731,339.4204 Z " fill="#000000"/><text fill="#000000" font-family="sans-serif" font-size="12" lengthAdjust="spacing" textLength="49" x="684.5" y="340.5352">Program</text><!--MD5=[b818c1bc739cda3d875bcb28854b99e7]
class asdi::visitor::ProgramVisitor--><rect codeLine="30" fill="#FEFECE" filter="url(#f7qokadaswhg0)" height="40" id="asdi::visitor::ProgramVisitor" style="stroke:#A80036;stroke-width:1.5;" width="117" x="505.5" y="216"/><ellipse cx="520.5" cy="232" fill="#B4A7E5" rx="11" ry="11" style="stroke:#A80036;stroke-width:1.0;"/><path d="M516.9277,228.2651 L516.9277,226.1069 L524.3071,226.1069 L524.3071,228.2651 L521.8418,228.2651 L521.8418,236.3418 L524.3071,236.3418 L524.3071,238.5 L516.9277,238.5 L516.9277,236.3418 L519.3931,236.3418 L519.3931,228.2651 Z " fill="#000000"/><text fill="#000000" font-family="sans-serif" font-size="12" font-style="italic" lengthAdjust="spacing" textLength="85" x="534.5" y="236.5352">ProgramVisitor</text><line style="stroke:#A80036;stroke-width:1.5;" x1="506.5" x2="621.5" y1="248" y2="248"/><!--MD5=[6b5cd0ee3e54b42879072f28315ffba9]
class asdi::visitor::ProgramWriter--><rect codeLine="31" fill="#FEFECE" filter="url(#f7qokadaswhg0)" height="40" id="asdi::visitor::ProgramWriter" style="stroke:#A80036;stroke-width:1.5;" width="115" x="507.5" y="100"/><ellipse cx="522.5" cy="116" fill="#B4A7E5" rx="11" ry="11" style="stroke:#A80036;stroke-width:1.0;"/><path d="M518.9277,112.2651 L518.9277,110.1069 L526.3071,110.1069 L526.3071,112.2651 L523.8418,112.2651 L523.8418,120.3418 L526.3071,120.3418 L526.3071,122.5 L518.9277,122.5 L518.9277,120.3418 L521.3931,120.3418 L521.3931,112.2651 Z " fill="#000000"/><text fill="#000000" font-family="sans-serif" font-size="12" font-style="italic" lengthAdjust="spacing" textLength="83" x="536.5" y="120.5352">ProgramWriter</text><line style="stroke:#A80036;stroke-width:1.5;" x1="508.5" x2="621.5" y1="132" y2="132"/><!--MD5=[8098a62c05abc4d56107425b2c373ae6]
class asdi::visitor::RelationVisitor--><rect codeLine="32" fill="#FEFECE" filter="url(#f7qokadaswhg0)" height="40" id="asdi::visitor::RelationVisitor" style="stroke:#A80036;stroke-width:1.5;" width="114" x="240" y="316"/><ellipse cx="255" cy="332" fill="#B4A7E5" rx="11" ry="11" style="stroke:#A80036;stroke-width:1.0;"/><path d="M251.4277,328.2651 L251.4277,326.1069 L258.8071,326.1069 L258.8071,328.2651 L256.3418,328.2651 L256.3418,336.3418 L258.8071,336.3418 L258.8071,338.5 L251.4277,338.5 L251.4277,336.3418 L253.8931,336.3418 L253.8931,328.2651 Z " fill="#000000"/><text fill="#000000" font-family="sans-serif" font-size="12" font-style="italic" lengthAdjust="spacing" textLength="82" x="269" y="336.5352">RelationVisitor</text><line style="stroke:#A80036;stroke-width:1.5;" x1="241" x2="353" y1="348" y2="348"/><!--MD5=[6a568aeb1da860f079019b5e502c14d4]
class asdi::visitor::RuleVisitor--><rect codeLine="33" fill="#FEFECE" filter="url(#f7qokadaswhg0)" height="40" id="asdi::visitor::RuleVisitor" style="stroke:#A80036;stroke-width:1.5;" width="93" x="389.5" y="316"/><ellipse cx="404.5" cy="332" fill="#B4A7E5" rx="11" ry="11" style="stroke:#A80036;stroke-width:1.0;"/><path d="M400.9277,328.2651 L400.9277,326.1069 L408.3071,326.1069 L408.3071,328.2651 L405.8418,328.2651 L405.8418,336.3418 L408.3071,336.3418 L408.3071,338.5 L400.9277,338.5 L400.9277,336.3418 L403.3931,336.3418 L403.3931,328.2651 Z " fill="#000000"/><text fill="#000000" font-family="sans-serif" font-size="12" font-style="italic" lengthAdjust="spacing" textLength="61" x="418.5" y="336.5352">RuleVisitor</text><line style="stroke:#A80036;stroke-width:1.5;" x1="390.5" x2="481.5" y1="348" y2="348"/><!--MD5=[bb4106a81d1aaded467b52484c9a24ed]
class asdi::visitor::QueryVisitor--><rect codeLine="34" fill="#FEFECE" filter="url(#f7qokadaswhg0)" height="40" id="asdi::visitor::QueryVisitor" style="stroke:#A80036;stroke-width:1.5;" width="102" x="518" y="316"/><ellipse cx="533" cy="332" fill="#B4A7E5" rx="11" ry="11" style="stroke:#A80036;stroke-width:1.0;"/><path d="M529.4277,328.2651 L529.4277,326.1069 L536.8071,326.1069 L536.8071,328.2651 L534.3418,328.2651 L534.3418,336.3418 L536.8071,336.3418 L536.8071,338.5 L529.4277,338.5 L529.4277,336.3418 L531.8931,336.3418 L531.8931,328.2651 Z " fill="#000000"/><text fill="#000000" font-family="sans-serif" font-size="12" font-style="italic" lengthAdjust="spacing" textLength="70" x="547" y="336.5352">QueryVisitor</text><line style="stroke:#A80036;stroke-width:1.5;" x1="519" x2="619" y1="348" y2="348"/><!--MD5=[4b39025d2f9ab28d6e9baf136d0f932d]
class asdi::visitor::visitor--><rect codeLine="54" fill="#FEFECE" filter="url(#f7qokadaswhg0)" height="72.1758" id="asdi::visitor::visitor" style="stroke:#A80036;stroke-width:1.5;" width="416" x="56" y="84"/><text fill="#000000" font-family="sans-serif" font-size="12" font-style="italic" lengthAdjust="spacing" textLength="55" x="236.5" y="100.6016">«module»</text><text fill="#000000" font-family="sans-serif" font-size="12" lengthAdjust="spacing" textLength="34" x="247" y="114.7344">visitor</text><line style="stroke:#A80036;stroke-width:1.5;" x1="57" x2="471" y1="122.2656" y2="122.2656"/><text fill="#000000" font-family="sans-serif" font-size="11" lengthAdjust="spacing" textLength="393" x="62" y="136.9004">visit_program(program: &amp;Program, visitor: &amp;ProgramVisitor) : Result&lt;()&gt;</text><text fill="#000000" font-family="sans-serif" font-size="11" lengthAdjust="spacing" textLength="404" x="62" y="149.8555">format_program(program: &amp;Program, visitor: &amp;ProgramWriter) : Result&lt;()&gt;</text><!--MD5=[6137f69857c1321f4d06c717c9c09db2]
class asdi::edb::RelationSet--><rect codeLine="7" fill="#FEFECE" filter="url(#f7qokadaswhg0)" height="32" id="asdi::edb::RelationSet" style="stroke:#A80036;stroke-width:1.5;" width="95" x="127.5" y="455"/><ellipse cx="142.5" cy="471" fill="#ADD1B2" rx="11" ry="11" style="stroke:#A80036;stroke-width:1.0;"/><path d="M144.9731,477.1431 Q144.3921,477.4419 143.7529,477.5913 Q143.1138,477.7407 142.4082,477.7407 Q139.9014,477.7407 138.5815,476.0889 Q137.2617,474.437 137.2617,471.3159 Q137.2617,468.1865 138.5815,466.5347 Q139.9014,464.8828 142.4082,464.8828 Q143.1138,464.8828 143.7612,465.0322 Q144.4087,465.1816 144.9731,465.4805 L144.9731,468.2031 Q144.3423,467.6221 143.7488,467.3523 Q143.1553,467.0825 142.5244,467.0825 Q141.1797,467.0825 140.4949,468.1492 Q139.8101,469.2158 139.8101,471.3159 Q139.8101,473.4077 140.4949,474.4744 Q141.1797,475.541 142.5244,475.541 Q143.1553,475.541 143.7488,475.2712 Q144.3423,475.0015 144.9731,474.4204 Z " fill="#000000"/><text fill="#000000" font-family="sans-serif" font-size="12" lengthAdjust="spacing" textLength="63" x="156.5" y="475.5352">RelationSet</text><!--MD5=[63be3a1481beaba15f9dd2bbcd4a53e1]
class asdi::edb::Relation--><rect codeLine="10" fill="#FEFECE" filter="url(#f7qokadaswhg0)" height="32" id="asdi::edb::Relation" style="stroke:#A80036;stroke-width:1.5;" width="78" x="258" y="455"/><ellipse cx="273" cy="471" fill="#ADD1B2" rx="11" ry="11" style="stroke:#A80036;stroke-width:1.0;"/><path d="M275.4731,477.1431 Q274.8921,477.4419 274.2529,477.5913 Q273.6138,477.7407 272.9082,477.7407 Q270.4014,477.7407 269.0815,476.0889 Q267.7617,474.437 267.7617,471.3159 Q267.7617,468.1865 269.0815,466.5347 Q270.4014,464.8828 272.9082,464.8828 Q273.6138,464.8828 274.2612,465.0322 Q274.9087,465.1816 275.4731,465.4805 L275.4731,468.2031 Q274.8423,467.6221 274.2488,467.3523 Q273.6553,467.0825 273.0244,467.0825 Q271.6797,467.0825 270.9949,468.1492 Q270.3101,469.2158 270.3101,471.3159 Q270.3101,473.4077 270.9949,474.4744 Q271.6797,475.541 273.0244,475.541 Q273.6553,475.541 274.2488,475.2712 Q274.8423,475.0015 275.4731,474.4204 Z " fill="#000000"/><text fill="#000000" font-family="sans-serif" font-size="12" lengthAdjust="spacing" textLength="46" x="287" y="475.5352">Relation</text><!--MD5=[b01c1280d4e10e5850c2de04b0afedc0]
class asdi::edb::Fact--><rect codeLine="13" fill="#FEFECE" filter="url(#f7qokadaswhg0)" height="32" id="asdi::edb::Fact" style="stroke:#A80036;stroke-width:1.5;" width="55" x="371.5" y="455"/><ellipse cx="386.5" cy="471" fill="#ADD1B2" rx="11" ry="11" style="stroke:#A80036;stroke-width:1.0;"/><path d="M388.9731,477.1431 Q388.3921,477.4419 387.7529,477.5913 Q387.1138,477.7407 386.4082,477.7407 Q383.9014,477.7407 382.5815,476.0889 Q381.2617,474.437 381.2617,471.3159 Q381.2617,468.1865 382.5815,466.5347 Q383.9014,464.8828 386.4082,464.8828 Q387.1138,464.8828 387.7612,465.0322 Q388.4087,465.1816 388.9731,465.4805 L388.9731,468.2031 Q388.3423,467.6221 387.7488,467.3523 Q387.1553,467.0825 386.5244,467.0825 Q385.1797,467.0825 384.4949,468.1492 Q383.8101,469.2158 383.8101,471.3159 Q383.8101,473.4077 384.4949,474.4744 Q385.1797,475.541 386.5244,475.541 Q387.1553,475.541 387.7488,475.2712 Q388.3423,475.0015 388.9731,474.4204 Z " fill="#000000"/><text fill="#000000" font-family="sans-serif" font-size="12" lengthAdjust="spacing" textLength="23" x="400.5" y="475.5352">Fact</text><!--MD5=[30c8d4c59bd3776484494cc31a150236]
class asdi::idb::RuleSet--><rect codeLine="16" fill="#FEFECE" filter="url(#f7qokadaswhg0)" height="32" id="asdi::idb::RuleSet" style="stroke:#A80036;stroke-width:1.5;" width="74" x="579" y="455"/><ellipse cx="594" cy="471" fill="#ADD1B2" rx="11" ry="11" style="stroke:#A80036;stroke-width:1.0;"/><path d="M596.4731,477.1431 Q595.8921,477.4419 595.2529,477.5913 Q594.6138,477.7407 593.9082,477.7407 Q591.4014,477.7407 590.0815,476.0889 Q588.7617,474.437 588.7617,471.3159 Q588.7617,468.1865 590.0815,466.5347 Q591.4014,464.8828 593.9082,464.8828 Q594.6138,464.8828 595.2612,465.0322 Q595.9087,465.1816 596.4731,465.4805 L596.4731,468.2031 Q595.8423,467.6221 595.2488,467.3523 Q594.6553,467.0825 594.0244,467.0825 Q592.6797,467.0825 591.9949,468.1492 Q591.3101,469.2158 591.3101,471.3159 Q591.3101,473.4077 591.9949,474.4744 Q592.6797,475.541 594.0244,475.541 Q594.6553,475.541 595.2488,475.2712 Q595.8423,475.0015 596.4731,474.4204 Z " fill="#000000"/><text fill="#000000" font-family="sans-serif" font-size="12" lengthAdjust="spacing" textLength="42" x="608" y="475.5352">RuleSet</text><!--MD5=[afabf50c567fddf1e22749c2d45d6bf2]
class asdi::idb::Rule--><rect codeLine="19" fill="#FEFECE" filter="url(#f7qokadaswhg0)" height="32" id="asdi::idb::Rule" style="stroke:#A80036;stroke-width:1.5;" width="57" x="486.5" y="455"/><ellipse cx="501.5" cy="471" fill="#ADD1B2" rx="11" ry="11" style="stroke:#A80036;stroke-width:1.0;"/><path d="M503.9731,477.1431 Q503.3921,477.4419 502.7529,477.5913 Q502.1138,477.7407 501.4082,477.7407 Q498.9014,477.7407 497.5815,476.0889 Q496.2617,474.437 496.2617,471.3159 Q496.2617,468.1865 497.5815,466.5347 Q498.9014,464.8828 501.4082,464.8828 Q502.1138,464.8828 502.7612,465.0322 Q503.4087,465.1816 503.9731,465.4805 L503.9731,468.2031 Q503.3423,467.6221 502.7488,467.3523 Q502.1553,467.0825 501.5244,467.0825 Q500.1797,467.0825 499.4949,468.1492 Q498.8101,469.2158 498.8101,471.3159 Q498.8101,473.4077 499.4949,474.4744 Q500.1797,475.541 501.5244,475.541 Q502.1553,475.541 502.7488,475.2712 Q503.3423,475.0015 503.9731,474.4204 Z " fill="#000000"/><text fill="#000000" font-family="sans-serif" font-size="12" lengthAdjust="spacing" textLength="25" x="515.5" y="475.5352">Rule</text><!--MD5=[862f5ba143deaa96c11c433d25830988]
class asdi::idb::query::QuerySet--><rect codeLine="22" fill="#FEFECE" filter="url(#f7qokadaswhg0)" height="32" id="asdi::idb::query::QuerySet" style="stroke:#A80036;stroke-width:1.5;" width="83" x="816.5" y="455"/><ellipse cx="831.5" cy="471" fill="#ADD1B2" rx="11" ry="11" style="stroke:#A80036;stroke-width:1.0;"/><path d="M833.9731,477.1431 Q833.3921,477.4419 832.7529,477.5913 Q832.1138,477.7407 831.4082,477.7407 Q828.9014,477.7407 827.5815,476.0889 Q826.2617,474.437 826.2617,471.3159 Q826.2617,468.1865 827.5815,466.5347 Q828.9014,464.8828 831.4082,464.8828 Q832.1138,464.8828 832.7612,465.0322 Q833.4087,465.1816 833.9731,465.4805 L833.9731,468.2031 Q833.3423,467.6221 832.7488,467.3523 Q832.1553,467.0825 831.5244,467.0825 Q830.1797,467.0825 829.4949,468.1492 Q828.8101,469.2158 828.8101,471.3159 Q828.8101,473.4077 829.4949,474.4744 Q830.1797,475.541 831.5244,475.541 Q832.1553,475.541 832.7488,475.2712 Q833.3423,475.0015 833.9731,474.4204 Z " fill="#000000"/><text fill="#000000" font-family="sans-serif" font-size="12" lengthAdjust="spacing" textLength="51" x="845.5" y="475.5352">QuerySet</text><!--MD5=[942727c1e5dca949354fc2e6ef4102b1]
class asdi::idb::query::Query--><rect codeLine="25" fill="#FEFECE" filter="url(#f7qokadaswhg0)" height="32" id="asdi::idb::query::Query" style="stroke:#A80036;stroke-width:1.5;" width="66" x="715" y="455"/><ellipse cx="730" cy="471" fill="#ADD1B2" rx="11" ry="11" style="stroke:#A80036;stroke-width:1.0;"/><path d="M732.4731,477.1431 Q731.8921,477.4419 731.2529,477.5913 Q730.6138,477.7407 729.9082,477.7407 Q727.4014,477.7407 726.0815,476.0889 Q724.7617,474.437 724.7617,471.3159 Q724.7617,468.1865 726.0815,466.5347 Q727.4014,464.8828 729.9082,464.8828 Q730.6138,464.8828 731.2612,465.0322 Q731.9087,465.1816 732.4731,465.4805 L732.4731,468.2031 Q731.8423,467.6221 731.2488,467.3523 Q730.6553,467.0825 730.0244,467.0825 Q728.6797,467.0825 727.9949,468.1492 Q727.3101,469.2158 727.3101,471.3159 Q727.3101,473.4077 727.9949,474.4744 Q728.6797,475.541 730.0244,475.541 Q730.6553,475.541 731.2488,475.2712 Q731.8423,475.0015 732.4731,474.4204 Z " fill="#000000"/><text fill="#000000" font-family="sans-serif" font-size="12" lengthAdjust="spacing" textLength="34" x="744" y="475.5352">Query</text><!--MD5=[494ff9e1f6b2511c5f41c87db7237760]
link asdi::visitor::ProgramVisitor to asdi::visitor::RelationVisitor--><path codeLine="36" d="M512.2,256.01 C466.75,272.69 400.77,296.91 353.87,314.13 " fill="none" id="asdi::visitor::ProgramVisitor-to-asdi::visitor::RelationVisitor" style="stroke:#A80036;stroke-width:1.0;stroke-dasharray:7.0,7.0;"/><polygon fill="#A80036" points="349.11,315.87,358.9364,316.5343,353.8056,314.1521,356.1878,309.0213,349.11,315.87" style="stroke:#A80036;stroke-width:1.0;"/><!--MD5=[429d92fbb8a463e9b3c688f6a05e31b4]
link asdi::visitor::ProgramVisitor to asdi::visitor::RuleVisitor--><path codeLine="37" d="M539.02,256.13 C517.78,272.38 487.29,295.73 464.99,312.81 " fill="none" id="asdi::visitor::ProgramVisitor-to-asdi::visitor::RuleVisitor" style="stroke:#A80036;stroke-width:1.0;stroke-dasharray:7.0,7.0;"/><polygon fill="#A80036" points="460.92,315.92,470.5021,313.6432,464.8958,312.8881,465.651,307.2818,460.92,315.92" style="stroke:#A80036;stroke-width:1.0;"/><!--MD5=[2f2dc5c170bebb2245ea3bf117959349]
link asdi::visitor::ProgramVisitor to asdi::visitor::QueryVisitor--><path codeLine="38" d="M564.99,256.36 C565.78,271.93 566.9,293.9 567.76,310.66 " fill="none" id="asdi::visitor::ProgramVisitor-to-asdi::visitor::QueryVisitor" style="stroke:#A80036;stroke-width:1.0;stroke-dasharray:7.0,7.0;"/><polygon fill="#A80036" points="568.01,315.68,571.5687,306.4965,567.7674,310.6859,563.5781,306.8847,568.01,315.68" style="stroke:#A80036;stroke-width:1.0;"/><!--MD5=[fccae2c952d872fc837ebfd756b62f6a]
link asdi::visitor::ProgramVisitor to asdi::Program--><path codeLine="39" d="M589.76,256.13 C613.36,273.64 648.04,299.39 671.29,316.65 " fill="none" id="asdi::visitor::ProgramVisitor-to-asdi::Program" style="stroke:#A80036;stroke-width:1.0;stroke-dasharray:7.0,7.0;"/><polygon fill="#A80036" points="675.49,319.78,670.636,311.2104,671.4712,316.8052,665.8763,317.6405,675.49,319.78" style="stroke:#A80036;stroke-width:1.0;"/><!--MD5=[7d21a56532394ad80200003b95573428]
link asdi::visitor::ProgramVisitor to asdi::edb::RelationSet--><path codeLine="40" d="M505.31,243.46 C418.73,254.13 262.6,278.12 222,316 C183.98,351.48 176.4,416.73 175.09,449.74 " fill="none" id="asdi::visitor::ProgramVisitor-to-asdi::edb::RelationSet" style="stroke:#A80036;stroke-width:1.0;stroke-dasharray:7.0,7.0;"/><polygon fill="#A80036" points="174.93,454.75,179.2107,445.8801,175.0871,449.7525,171.2147,445.6288,174.93,454.75" style="stroke:#A80036;stroke-width:1.0;"/><!--MD5=[61010bdf44063d3a25c246bd67ab3326]
link asdi::visitor::ProgramVisitor to asdi::idb::RuleSet--><path codeLine="41" d="M622.76,244.28 C666.8,253.16 724.22,272.78 753,316 C774.68,348.55 778.55,374.39 753,404 C745.08,413.18 710.27,407.52 699,412 C675.66,421.28 652.52,438.27 636.62,451.47 " fill="none" id="asdi::visitor::ProgramVisitor-to-asdi::idb::RuleSet" style="stroke:#A80036;stroke-width:1.0;stroke-dasharray:7.0,7.0;"/><polygon fill="#A80036" points="632.74,454.74,642.2048,452.0166,636.5694,451.525,637.0609,445.8896,632.74,454.74" style="stroke:#A80036;stroke-width:1.0;"/><!--MD5=[a4381fc6c5dbf6bbe14a3f8ab6711557]
link asdi::visitor::ProgramVisitor to asdi::idb::query::QuerySet--><path codeLine="42" d="M622.97,244.74 C672.4,254.01 742.09,273.94 788,316 C828.29,352.91 846.99,417.51 854.2,450.06 " fill="none" id="asdi::visitor::ProgramVisitor-to-asdi::idb::query::QuerySet" style="stroke:#A80036;stroke-width:1.0;stroke-dasharray:7.0,7.0;"/><polygon fill="#A80036" points="855.26,454.99,857.2931,445.3533,854.2163,450.1002,849.4694,447.0233,855.26,454.99" style="stroke:#A80036;stroke-width:1.0;"/><!--MD5=[62711189ac6f563fc802545ac53f87e6]
link asdi::visitor::ProgramWriter to asdi::visitor::ProgramVisitor--><path codeLine="44" d="M564.83,140.08 C564.7,155.21 564.51,176.85 564.35,195.65 " fill="none" id="asdi::visitor::ProgramWriter-to-asdi::visitor::ProgramVisitor" style="stroke:#A80036;stroke-width:1.0;"/><polygon fill="none" points="571.34,195.92,564.17,215.86,557.34,195.8,571.34,195.92" style="stroke:#A80036;stroke-width:1.0;"/><!--MD5=[64f43929574ac4a3026f4fd533c4b461]
link asdi::visitor::RelationVisitor to asdi::edb::Relation--><path codeLine="46" d="M297,356.06 C297,380.87 297,424.06 297,449.55 " fill="none" id="asdi::visitor::RelationVisitor-to-asdi::edb::Relation" style="stroke:#A80036;stroke-width:1.0;stroke-dasharray:7.0,7.0;"/><polygon fill="#A80036" points="297,454.7,301,445.7,297,449.7,293,445.7,297,454.7" style="stroke:#A80036;stroke-width:1.0;"/><!--MD5=[7fbb9a839cdace1002511cf9afc6f310]
link asdi::visitor::RelationVisitor to asdi::edb::Fact--><path codeLine="47" d="M311.61,356.06 C330.88,381.18 364.61,425.15 384.04,450.5 " fill="none" id="asdi::visitor::RelationVisitor-to-asdi::edb::Fact" style="stroke:#A80036;stroke-width:1.0;stroke-dasharray:7.0,7.0;"/><polygon fill="#A80036" points="387.27,454.7,384.9548,445.1271,384.2221,450.7363,378.6129,450.0037,387.27,454.7" style="stroke:#A80036;stroke-width:1.0;"/><!--MD5=[7e12fd5c91ccc392961c21c89e14048a]
link asdi::visitor::RuleVisitor to asdi::idb::Rule--><path codeLine="49" d="M447.32,356.06 C462.18,381.07 488.15,424.79 503.23,450.18 " fill="none" id="asdi::visitor::RuleVisitor-to-asdi::idb::Rule" style="stroke:#A80036;stroke-width:1.0;stroke-dasharray:7.0,7.0;"/><polygon fill="#A80036" points="505.91,454.7,504.7478,444.92,503.3543,450.4025,497.8718,449.009,505.91,454.7" style="stroke:#A80036;stroke-width:1.0;"/><!--MD5=[ecb9e238fbfdf9c43098799f4d0110c5]
link asdi::visitor::QueryVisitor to asdi::idb::query::Query--><path codeLine="51" d="M579.46,356.08 C588.99,371.55 604.52,392.59 624,404 C641.53,414.26 650.33,404 669,412 C691.16,421.49 712.99,438.24 728.07,451.31 " fill="none" id="asdi::visitor::QueryVisitor-to-asdi::idb::query::Query" style="stroke:#A80036;stroke-width:1.0;stroke-dasharray:7.0,7.0;"/><polygon fill="#A80036" points="732.13,454.89,728.0268,445.9366,728.3804,451.5824,722.7346,451.9359,732.13,454.89" style="stroke:#A80036;stroke-width:1.0;"/><!--MD5=[8a4777e4c2fc974a51a7694cacc6e608]
link asdi::visitor::visitor to asdi::visitor::ProgramVisitor--><path codeLine="59" d="M356.46,156.13 C406.36,175.1 466.27,197.86 508.86,214.05 " fill="none" id="asdi::visitor::visitor-to-asdi::visitor::ProgramVisitor" style="stroke:#A80036;stroke-width:1.0;stroke-dasharray:7.0,7.0;"/><polygon fill="#A80036" points="513.71,215.89,506.713,208.9588,509.0348,214.1172,503.8765,216.439,513.71,215.89" style="stroke:#A80036;stroke-width:1.0;"/><!--MD5=[4af9efb584907c3ff7c9bd8b4a5708f0]
link asdi::visitor::visitor to asdi::visitor::ProgramWriter--><path codeLine="60" d="M472.11,120 C482.1,120 492.09,120 502.08,120 " fill="none" id="asdi::visitor::visitor-to-asdi::visitor::ProgramWriter" style="stroke:#A80036;stroke-width:1.0;stroke-dasharray:7.0,7.0;"/><polygon fill="#A80036" points="507.31,120,498.31,116,502.31,120,498.31,124,507.31,120" style="stroke:#A80036;stroke-width:1.0;"/><!--MD5=[da426bc19615ffaa561b2a6e7f37dd5b]
@startuml

!include options.plantuml

class asdi::Program
hide "asdi::Program" members

class asdi::edb::RelationSet
hide "asdi::edb::RelationSet" members

class asdi::edb::Relation
hide "asdi::edb::Relation" members

class asdi::edb::Fact
hide "asdi::edb::Fact" members

class asdi::idb::RuleSet
hide "asdi::idb::RuleSet" members

class asdi::idb::Rule
hide "asdi::idb::Rule" members

class asdi::idb::query::QuerySet
hide "asdi::idb::query::QuerySet" members

class asdi::idb::query::Query
hide "asdi::idb::query::Query" members

namespace asdi::visitor {

    interface ProgramVisitor
    interface ProgramWriter
    interface RelationVisitor
    interface RuleVisitor
    interface QueryVisitor

    ProgramVisitor ..> RelationVisitor
    ProgramVisitor ..> RuleVisitor
    ProgramVisitor ..> QueryVisitor
    ProgramVisitor ..> asdi::Program
    ProgramVisitor ..> asdi::edb::RelationSet
    ProgramVisitor ..> asdi::idb::RuleSet
    ProgramVisitor ..> asdi::idb::query::QuerySet

    ProgramWriter - -|> ProgramVisitor

    RelationVisitor ..> asdi::edb::Relation
    RelationVisitor ..> asdi::edb::Fact

    RuleVisitor ..> asdi::idb::Rule

    QueryVisitor ..> asdi::idb::query::Query


    class visitor << module >> {
        visit_program(program: &Program, visitor: &ProgramVisitor) : Result<()>
        format_program(program: &Program, visitor: &ProgramWriter) : Result<()>
    }

    visitor .right.> ProgramVisitor
    visitor .right.> ProgramWriter
}

@enduml

@startuml

set namespaceSeparator ::
hide enum methods
hide interface fields
hide << const >> members
hide << type >> members
hide << type >> stereotype
hide << module >> fields
hide << module >> circle

class asdi::Program
hide "asdi::Program" members

class asdi::edb::RelationSet
hide "asdi::edb::RelationSet" members

class asdi::edb::Relation
hide "asdi::edb::Relation" members

class asdi::edb::Fact
hide "asdi::edb::Fact" members

class asdi::idb::RuleSet
hide "asdi::idb::RuleSet" members

class asdi::idb::Rule
hide "asdi::idb::Rule" members

class asdi::idb::query::QuerySet
hide "asdi::idb::query::QuerySet" members

class asdi::idb::query::Query
hide "asdi::idb::query::Query" members

namespace asdi::visitor {

    interface ProgramVisitor
    interface ProgramWriter
    interface RelationVisitor
    interface RuleVisitor
    interface QueryVisitor

    ProgramVisitor ..> RelationVisitor
    ProgramVisitor ..> RuleVisitor
    ProgramVisitor ..> QueryVisitor
    ProgramVisitor ..> asdi::Program
    ProgramVisitor ..> asdi::edb::RelationSet
    ProgramVisitor ..> asdi::idb::RuleSet
    ProgramVisitor ..> asdi::idb::query::QuerySet

    ProgramWriter - -|> ProgramVisitor

    RelationVisitor ..> asdi::edb::Relation
    RelationVisitor ..> asdi::edb::Fact

    RuleVisitor ..> asdi::idb::Rule

    QueryVisitor ..> asdi::idb::query::Query


    class visitor << module >> {
        visit_program(program: &Program, visitor: &ProgramVisitor) : Result<()>
        format_program(program: &Program, visitor: &ProgramWriter) : Result<()>
    }

    visitor .right.> ProgramVisitor
    visitor .right.> ProgramWriter
}

@enduml

PlantUML version 1.2022.1(Tue Feb 01 10:19:58 PST 2022)
(GPL source distribution)
Java Runtime: OpenJDK Runtime Environment
JVM: OpenJDK 64-Bit Server VM
Default Encoding: UTF-8
Language: en
Country: US
--></g></svg>