<?xml version="1.0" encoding="UTF-8" standalone="no"?><svg xmlns="http://www.w3.org/2000/svg" xmlns:xlink="http://www.w3.org/1999/xlink" contentScriptType="application/ecmascript" contentStyleType="text/css" height="345px" preserveAspectRatio="none" style="width:620px;height:345px;background:#FFFFFF;" version="1.1" viewBox="0 0 620 345" width="620px" zoomAndPan="magnify"><defs><filter height="300%" id="fd8xrkgucjk10" width="300%" x="-1" y="-1"><feGaussianBlur result="blurOut" stdDeviation="2.0"/><feColorMatrix in="blurOut" result="blurOut2" type="matrix" values="0 0 0 0 0 0 0 0 0 0 0 0 0 0 0 0 0 0 .4 0"/><feOffset dx="4.0" dy="4.0" in="blurOut2" result="blurOut3"/><feBlend in="SourceGraphic" in2="blurOut3" mode="normal"/></filter></defs><g><!--MD5=[e274c4916ac42ef1c11391a83d303c10]
cluster asdi--><polygon fill="#FFFFFF" filter="url(#fd8xrkgucjk10)" points="119,255,155,255,162,277.4883,367,277.4883,367,338,119,338,119,255" style="stroke:#000000;stroke-width:1.5;"/><line style="stroke:#000000;stroke-width:1.5;" x1="119" x2="162" y1="277.4883" y2="277.4883"/><text fill="#000000" font-family="sans-serif" font-size="14" font-weight="bold" lengthAdjust="spacing" textLength="30" x="123" y="270.5352">asdi</text><!--MD5=[6bc3af5db4038e5494ba0622f07de59b]
cluster asdi::edb--><polygon fill="#FFFFFF" filter="url(#fd8xrkgucjk10)" points="391,255,459,255,466,277.4883,519,277.4883,519,338,391,338,391,255" style="stroke:#000000;stroke-width:1.5;"/><line style="stroke:#000000;stroke-width:1.5;" x1="391" x2="466" y1="277.4883" y2="277.4883"/><text fill="#000000" font-family="sans-serif" font-size="14" font-weight="bold" lengthAdjust="spacing" textLength="62" x="395" y="270.5352">asdi::edb</text><!--MD5=[bbfb16aff101aff206c25fb1af5c6b4b]
cluster asdi::idb::eval--><polygon fill="#FFFFFF" filter="url(#fd8xrkgucjk10)" points="16,6,116,6,123,28.4883,603,28.4883,603,231,16,231,16,6" style="stroke:#000000;stroke-width:1.5;"/><line style="stroke:#000000;stroke-width:1.5;" x1="16" x2="123" y1="28.4883" y2="28.4883"/><text fill="#000000" font-family="sans-serif" font-size="14" font-weight="bold" lengthAdjust="spacing" textLength="94" x="20" y="21.5352">asdi::idb::eval</text><!--MD5=[e8289714b7028f41fbfaeffd8c17c76d]
class asdi::Collection--><rect codeLine="4" fill="#FFFFFF" filter="url(#fd8xrkgucjk10)" height="32" id="asdi::Collection" style="stroke:#A80036;stroke-width:1.5;" width="99" x="251.5" y="290"/><ellipse cx="266.5" cy="306" fill="#B4A7E5" rx="11" ry="11" style="stroke:#A80036;stroke-width:1.0;"/><path d="M262.9277,302.2651 L262.9277,300.1069 L270.3071,300.1069 L270.3071,302.2651 L267.8418,302.2651 L267.8418,310.3418 L270.3071,310.3418 L270.3071,312.5 L262.9277,312.5 L262.9277,310.3418 L265.3931,310.3418 L265.3931,302.2651 Z " fill="#000000"/><text fill="#000000" font-family="sans-serif" font-size="12" font-style="italic" lengthAdjust="spacing" textLength="55" x="280.5" y="310.5352">Collection</text><rect fill="#FFFFFF" height="16.1328" style="stroke:#000000;stroke-width:1.0;stroke-dasharray:2.0,2.0;" width="10" x="343.5" y="287"/><text fill="#000000" font-family="sans-serif" font-size="12" font-style="italic" lengthAdjust="spacing" textLength="8" x="344.5" y="299.6016">T</text><!--MD5=[619a18f3975bec44ed0f3b908af212c9]
class asdi::Program--><rect codeLine="7" fill="#FFFFFF" filter="url(#fd8xrkgucjk10)" height="32" id="asdi::Program" style="stroke:#A80036;stroke-width:1.5;" width="81" x="135.5" y="290"/><ellipse cx="150.5" cy="306" fill="#ADD1B2" rx="11" ry="11" style="stroke:#A80036;stroke-width:1.0;"/><path d="M152.9731,312.1431 Q152.3921,312.4419 151.7529,312.5913 Q151.1138,312.7407 150.4082,312.7407 Q147.9014,312.7407 146.5815,311.0889 Q145.2617,309.437 145.2617,306.3159 Q145.2617,303.1865 146.5815,301.5347 Q147.9014,299.8828 150.4082,299.8828 Q151.1138,299.8828 151.7612,300.0322 Q152.4087,300.1816 152.9731,300.4805 L152.9731,303.2031 Q152.3423,302.6221 151.7488,302.3523 Q151.1553,302.0825 150.5244,302.0825 Q149.1797,302.0825 148.4949,303.1492 Q147.8101,304.2158 147.8101,306.3159 Q147.8101,308.4077 148.4949,309.4744 Q149.1797,310.541 150.5244,310.541 Q151.1553,310.541 151.7488,310.2712 Q152.3423,310.0015 152.9731,309.4204 Z " fill="#000000"/><text fill="#000000" font-family="sans-serif" font-size="12" lengthAdjust="spacing" textLength="49" x="164.5" y="310.5352">Program</text><!--MD5=[6137f69857c1321f4d06c717c9c09db2]
class asdi::edb::RelationSet--><rect codeLine="10" fill="#FFFFFF" filter="url(#fd8xrkgucjk10)" height="32" id="asdi::edb::RelationSet" style="stroke:#A80036;stroke-width:1.5;" width="95" x="407.5" y="290"/><ellipse cx="422.5" cy="306" fill="#ADD1B2" rx="11" ry="11" style="stroke:#A80036;stroke-width:1.0;"/><path d="M424.9731,312.1431 Q424.3921,312.4419 423.7529,312.5913 Q423.1138,312.7407 422.4082,312.7407 Q419.9014,312.7407 418.5815,311.0889 Q417.2617,309.437 417.2617,306.3159 Q417.2617,303.1865 418.5815,301.5347 Q419.9014,299.8828 422.4082,299.8828 Q423.1138,299.8828 423.7612,300.0322 Q424.4087,300.1816 424.9731,300.4805 L424.9731,303.2031 Q424.3423,302.6221 423.7488,302.3523 Q423.1553,302.0825 422.5244,302.0825 Q421.1797,302.0825 420.4949,303.1492 Q419.8101,304.2158 419.8101,306.3159 Q419.8101,308.4077 420.4949,309.4744 Q421.1797,310.541 422.5244,310.541 Q423.1553,310.541 423.7488,310.2712 Q424.3423,310.0015 424.9731,309.4204 Z " fill="#000000"/><text fill="#000000" font-family="sans-serif" font-size="12" lengthAdjust="spacing" textLength="63" x="436.5" y="310.5352">RelationSet</text><!--MD5=[3cb0415412475ec7ae49204a9fbdfed2]
class asdi::idb::eval::Evaluator--><rect codeLine="14" fill="#FEFECE" filter="url(#fd8xrkgucjk10)" height="65.9102" id="asdi::idb::eval::Evaluator" style="stroke:#A80036;stroke-width:1.5;" width="288" x="32" y="149"/><ellipse cx="145.25" cy="165" fill="#B4A7E5" rx="11" ry="11" style="stroke:#A80036;stroke-width:1.0;"/><path d="M141.6777,161.2651 L141.6777,159.1069 L149.0571,159.1069 L149.0571,161.2651 L146.5918,161.2651 L146.5918,169.3418 L149.0571,169.3418 L149.0571,171.5 L141.6777,171.5 L141.6777,169.3418 L144.1431,169.3418 L144.1431,161.2651 Z " fill="#000000"/><text fill="#000000" font-family="sans-serif" font-size="12" font-style="italic" lengthAdjust="spacing" textLength="53" x="165.75" y="169.5352">Evaluator</text><line style="stroke:#A80036;stroke-width:1.5;" x1="33" x2="319" y1="181" y2="181"/><text fill="#000000" font-family="sans-serif" font-size="11" lengthAdjust="spacing" textLength="276" x="38" y="195.6348">inference(program: Program) : Result&lt;RelationSet&gt;</text><text fill="#000000" font-family="sans-serif" font-size="11" lengthAdjust="spacing" textLength="77" x="38" y="208.5898">label() -&gt; &amp;str</text><!--MD5=[88c208813f6c6a29344003ddbaf54fa8]
class asdi::idb::eval::StratifiedEvaluator--><rect codeLine="19" fill="#D3D3D3" filter="url(#fd8xrkgucjk10)" height="48" id="asdi::idb::eval::StratifiedEvaluator" style="stroke:#A80036;stroke-width:1.5;" width="136" x="170" y="41"/><ellipse cx="185" cy="57" fill="#ADD1B2" rx="11" ry="11" style="stroke:#A80036;stroke-width:1.0;"/><path d="M187.4731,63.1431 Q186.8921,63.4419 186.2529,63.5913 Q185.6138,63.7407 184.9082,63.7407 Q182.4014,63.7407 181.0815,62.0889 Q179.7617,60.437 179.7617,57.3159 Q179.7617,54.1865 181.0815,52.5347 Q182.4014,50.8828 184.9082,50.8828 Q185.6138,50.8828 186.2612,51.0322 Q186.9087,51.1816 187.4731,51.4805 L187.4731,54.2031 Q186.8423,53.6221 186.2488,53.3523 Q185.6553,53.0825 185.0244,53.0825 Q183.6797,53.0825 182.9949,54.1492 Q182.3101,55.2158 182.3101,57.3159 Q182.3101,59.4077 182.9949,60.4744 Q183.6797,61.541 185.0244,61.541 Q185.6553,61.541 186.2488,61.2712 Q186.8423,61.0015 187.4731,60.4204 Z " fill="#000000"/><text fill="#000000" font-family="sans-serif" font-size="12" lengthAdjust="spacing" textLength="104" x="199" y="61.5352">StratifiedEvaluator</text><line style="stroke:#A80036;stroke-width:1.5;" x1="171" x2="305" y1="73" y2="73"/><line style="stroke:#A80036;stroke-width:1.5;" x1="171" x2="305" y1="81" y2="81"/><!--MD5=[ef0f5253ff8ffa8a74eb1f95e63d5a99]
class asdi::idb::eval::StratifiedProgram--><rect codeLine="20" fill="#FEFECE" filter="url(#fd8xrkgucjk10)" height="60.9551" id="asdi::idb::eval::StratifiedProgram" style="stroke:#A80036;stroke-width:1.5;" width="232" x="355" y="151.5"/><ellipse cx="416.75" cy="167.5" fill="#ADD1B2" rx="11" ry="11" style="stroke:#A80036;stroke-width:1.0;"/><path d="M419.2231,173.6431 Q418.6421,173.9419 418.0029,174.0913 Q417.3638,174.2407 416.6582,174.2407 Q414.1514,174.2407 412.8315,172.5889 Q411.5117,170.937 411.5117,167.8159 Q411.5117,164.6865 412.8315,163.0347 Q414.1514,161.3828 416.6582,161.3828 Q417.3638,161.3828 418.0112,161.5322 Q418.6587,161.6816 419.2231,161.9805 L419.2231,164.7031 Q418.5923,164.1221 417.9988,163.8523 Q417.4053,163.5825 416.7744,163.5825 Q415.4297,163.5825 414.7449,164.6492 Q414.0601,165.7158 414.0601,167.8159 Q414.0601,169.9077 414.7449,170.9744 Q415.4297,172.041 416.7744,172.041 Q417.4053,172.041 417.9988,171.7712 Q418.5923,171.5015 419.2231,170.9204 Z " fill="#000000"/><text fill="#000000" font-family="sans-serif" font-size="12" lengthAdjust="spacing" textLength="100" x="437.25" y="172.0352">StratifiedProgram</text><line style="stroke:#A80036;stroke-width:1.5;" x1="356" x2="586" y1="183.5" y2="183.5"/><line style="stroke:#A80036;stroke-width:1.5;" x1="356" x2="586" y1="191.5" y2="191.5"/><text fill="#000000" font-family="sans-serif" font-size="11" lengthAdjust="spacing" textLength="220" x="361" y="206.1348">from(program: &amp;Program) : Result&lt;Self&gt;</text><!--MD5=[9a662da35d9021e4f98a277b74a14cb8]
class asdi::idb::eval::PrecedenceGraph--><rect fill="#FEFECE" filter="url(#fd8xrkgucjk10)" height="48" id="asdi::idb::eval::PrecedenceGraph" style="stroke:#A80036;stroke-width:1.5;" width="135" x="403.5" y="41"/><ellipse cx="418.5" cy="57" fill="#ADD1B2" rx="11" ry="11" style="stroke:#A80036;stroke-width:1.0;"/><path d="M420.9731,63.1431 Q420.3921,63.4419 419.7529,63.5913 Q419.1138,63.7407 418.4082,63.7407 Q415.9014,63.7407 414.5815,62.0889 Q413.2617,60.437 413.2617,57.3159 Q413.2617,54.1865 414.5815,52.5347 Q415.9014,50.8828 418.4082,50.8828 Q419.1138,50.8828 419.7612,51.0322 Q420.4087,51.1816 420.9731,51.4805 L420.9731,54.2031 Q420.3423,53.6221 419.7488,53.3523 Q419.1553,53.0825 418.5244,53.0825 Q417.1797,53.0825 416.4949,54.1492 Q415.8101,55.2158 415.8101,57.3159 Q415.8101,59.4077 416.4949,60.4744 Q417.1797,61.541 418.5244,61.541 Q419.1553,61.541 419.7488,61.2712 Q420.3423,61.0015 420.9731,60.4204 Z " fill="#000000"/><text fill="#000000" font-family="sans-serif" font-size="12" lengthAdjust="spacing" textLength="103" x="432.5" y="61.5352">PrecedenceGraph</text><line style="stroke:#A80036;stroke-width:1.5;" x1="404.5" x2="537.5" y1="73" y2="73"/><line style="stroke:#A80036;stroke-width:1.5;" x1="404.5" x2="537.5" y1="81" y2="81"/><!--MD5=[eca31efc3545cc09b229f0e9f874ab62]
link asdi::idb::eval::StratifiedProgram to asdi::Collection--><path codeLine="24" d="M429.85,212.53 C402.09,232.45 365.74,258.54 338.73,277.92 " fill="none" id="asdi::idb::eval::StratifiedProgram-to-asdi::Collection" style="stroke:#A80036;stroke-width:1.0;stroke-dasharray:7.0,7.0;"/><polygon fill="none" points="342.46,283.86,322.13,289.84,334.3,272.49,342.46,283.86" style="stroke:#A80036;stroke-width:1.0;"/><text fill="#000000" font-family="sans-serif" font-size="13" lengthAdjust="spacing" textLength="95" x="218.2053" y="279.2793">&lt;SubProgram&gt;</text><!--MD5=[83ef3d1afa5bbbb2076b52bb03510b22]
reverse link asdi::idb::eval::PrecedenceGraph to asdi::idb::eval::StratifiedProgram--><path codeLine="25" d="M471,94.47 C471,111.72 471,133.71 471,151.2 " fill="none" id="asdi::idb::eval::PrecedenceGraph-backto-asdi::idb::eval::StratifiedProgram" style="stroke:#A80036;stroke-width:1.0;stroke-dasharray:7.0,7.0;"/><polygon fill="#A80036" points="471,89.27,467,98.27,471,94.27,475,98.27,471,89.27" style="stroke:#A80036;stroke-width:1.0;"/><!--MD5=[6f99ab971918332161b66e25314156d4]
link asdi::idb::eval::StratifiedEvaluator to asdi::idb::eval::Evaluator--><path codeLine="27" d="M225.45,89.27 C218.98,101.27 210.83,116.39 203.02,130.88 " fill="none" id="asdi::idb::eval::StratifiedEvaluator-to-asdi::idb::eval::Evaluator" style="stroke:#A80036;stroke-width:1.0;stroke-dasharray:7.0,7.0;"/><polygon fill="none" points="209.11,134.33,193.46,148.61,196.79,127.69,209.11,134.33" style="stroke:#A80036;stroke-width:1.0;"/><!--MD5=[520c4531a11b2b8403effd2ed564525c]
link asdi::idb::eval::Evaluator to asdi::Program--><path codeLine="29" d="M176,215.05 C176,237.12 176,265.77 176,284.74 " fill="none" id="asdi::idb::eval::Evaluator-to-asdi::Program" style="stroke:#A80036;stroke-width:1.0;stroke-dasharray:7.0,7.0;"/><polygon fill="#A80036" points="176,289.82,180,280.82,176,284.82,172,280.82,176,289.82" style="stroke:#A80036;stroke-width:1.0;"/><!--MD5=[68dc2bbb0c7587de8d971a69f5d98b5f]
link asdi::idb::eval::Evaluator to asdi::edb::RelationSet--><path codeLine="30" d="M265.64,215.13 C289.09,223.22 314.41,231.68 338,239 C350.77,242.96 354.82,241.48 367,247 C390.35,257.59 414.5,273.97 431.58,286.62 " fill="none" id="asdi::idb::eval::Evaluator-to-asdi::edb::RelationSet" style="stroke:#A80036;stroke-width:1.0;stroke-dasharray:7.0,7.0;"/><polygon fill="#A80036" points="435.77,289.75,430.9357,281.1693,431.758,286.766,426.1613,287.5884,435.77,289.75" style="stroke:#A80036;stroke-width:1.0;"/><!--MD5=[8473601ebdb8ce940b730a09fe3e5464]
link asdi::idb::eval::StratifiedEvaluator to asdi::idb::eval::StratifiedProgram--><path codeLine="33" d="M284.87,89.13 C319.73,106.34 367.73,130.03 406.26,149.05 " fill="none" id="asdi::idb::eval::StratifiedEvaluator-to-asdi::idb::eval::StratifiedProgram" style="stroke:#A80036;stroke-width:1.0;stroke-dasharray:7.0,7.0;"/><polygon fill="#A80036" points="410.91,151.34,404.6103,143.7695,406.4265,149.1268,401.0691,150.9431,410.91,151.34" style="stroke:#A80036;stroke-width:1.0;"/><!--MD5=[74f2d0a008ac98792437936d1db1066b]
@startuml

!include ../model/options.plantuml

interface asdi::Collection<T> #white
hide "asdi::Collection" members

class asdi::Program #white
hide "asdi::Program" members

class asdi::edb::RelationSet #white
hide "asdi::edb::RelationSet" members

namespace asdi::idb::eval {
    interface Evaluator {
        inference(program: Program) : Result<RelationSet>
        label() -> &str
    }

    class StratifiedEvaluator #lightgray
    class StratifiedProgram {
        from(program: &Program) : Result<Self>
    }

    StratifiedProgram ..|> "<SubProgram>" asdi::Collection
    StratifiedProgram .up.> PrecedenceGraph

    StratifiedEvaluator ..|> Evaluator

    Evaluator ..> asdi::Program
    Evaluator ..> asdi::edb::RelationSet


    StratifiedEvaluator .down.> StratifiedProgram
}

@enduml

@startuml

set namespaceSeparator ::
hide enum methods
hide interface fields
hide << const >> members
hide << type >> members
hide << type >> stereotype
hide << module >> fields
hide << module >> circle

interface asdi::Collection<T> #white
hide "asdi::Collection" members

class asdi::Program #white
hide "asdi::Program" members

class asdi::edb::RelationSet #white
hide "asdi::edb::RelationSet" members

namespace asdi::idb::eval {
    interface Evaluator {
        inference(program: Program) : Result<RelationSet>
        label() -> &str
    }

    class StratifiedEvaluator #lightgray
    class StratifiedProgram {
        from(program: &Program) : Result<Self>
    }

    StratifiedProgram ..|> "<SubProgram>" asdi::Collection
    StratifiedProgram .up.> PrecedenceGraph

    StratifiedEvaluator ..|> Evaluator

    Evaluator ..> asdi::Program
    Evaluator ..> asdi::edb::RelationSet


    StratifiedEvaluator .down.> StratifiedProgram
}

@enduml

PlantUML version 1.2022.1(Tue Feb 01 10:19:58 PST 2022)
(GPL source distribution)
Java Runtime: OpenJDK Runtime Environment
JVM: OpenJDK 64-Bit Server VM
Default Encoding: UTF-8
Language: en
Country: US
--></g></svg>