<?xml version="1.0" encoding="UTF-8" standalone="no"?><svg xmlns="http://www.w3.org/2000/svg" xmlns:xlink="http://www.w3.org/1999/xlink" contentScriptType="application/ecmascript" contentStyleType="text/css" height="238px" preserveAspectRatio="none" style="width:810px;height:238px;background:#FFFFFF;" version="1.1" viewBox="0 0 810 238" width="810px" zoomAndPan="magnify"><defs><filter height="300%" id="f2lxxtk0n6tue" width="300%" x="-1" y="-1"><feGaussianBlur result="blurOut" stdDeviation="2.0"/><feColorMatrix in="blurOut" result="blurOut2" type="matrix" values="0 0 0 0 0 0 0 0 0 0 0 0 0 0 0 0 0 0 .4 0"/><feOffset dx="4.0" dy="4.0" in="blurOut2" result="blurOut3"/><feBlend in="SourceGraphic" in2="blurOut3" mode="normal"/></filter></defs><g><!--MD5=[e274c4916ac42ef1c11391a83d303c10]
cluster asdi--><polygon fill="#FFFFFF" filter="url(#f2lxxtk0n6tue)" points="527,131,563,131,570,153.4883,641,153.4883,641,214,527,214,527,131" style="stroke:#000000;stroke-width:1.5;"/><line style="stroke:#000000;stroke-width:1.5;" x1="527" x2="570" y1="153.4883" y2="153.4883"/><text fill="#000000" font-family="sans-serif" font-size="14" font-weight="bold" lengthAdjust="spacing" textLength="30" x="531" y="146.5352">asdi</text><!--MD5=[6bc3af5db4038e5494ba0622f07de59b]
cluster asdi::edb--><polygon fill="#FFFFFF" filter="url(#f2lxxtk0n6tue)" points="665,131,733,131,740,153.4883,793,153.4883,793,214,665,214,665,131" style="stroke:#000000;stroke-width:1.5;"/><line style="stroke:#000000;stroke-width:1.5;" x1="665" x2="740" y1="153.4883" y2="153.4883"/><text fill="#000000" font-family="sans-serif" font-size="14" font-weight="bold" lengthAdjust="spacing" textLength="62" x="669" y="146.5352">asdi::edb</text><!--MD5=[bbfb16aff101aff206c25fb1af5c6b4b]
cluster asdi::idb::eval--><polygon fill="#FFFFFF" filter="url(#f2lxxtk0n6tue)" points="16,6,116,6,123,28.4883,503,28.4883,503,231,16,231,16,6" style="stroke:#000000;stroke-width:1.5;"/><line style="stroke:#000000;stroke-width:1.5;" x1="16" x2="123" y1="28.4883" y2="28.4883"/><text fill="#000000" font-family="sans-serif" font-size="14" font-weight="bold" lengthAdjust="spacing" textLength="94" x="20" y="21.5352">asdi::idb::eval</text><!--MD5=[619a18f3975bec44ed0f3b908af212c9]
class asdi::Program--><rect codeLine="4" fill="#FFFFFF" filter="url(#f2lxxtk0n6tue)" height="32" id="asdi::Program" style="stroke:#A80036;stroke-width:1.5;" width="81" x="543.5" y="166"/><ellipse cx="558.5" cy="182" fill="#ADD1B2" rx="11" ry="11" style="stroke:#A80036;stroke-width:1.0;"/><path d="M560.9731,188.1431 Q560.3921,188.4419 559.7529,188.5913 Q559.1138,188.7407 558.4082,188.7407 Q555.9014,188.7407 554.5815,187.0889 Q553.2617,185.437 553.2617,182.3159 Q553.2617,179.1865 554.5815,177.5347 Q555.9014,175.8828 558.4082,175.8828 Q559.1138,175.8828 559.7612,176.0322 Q560.4087,176.1816 560.9731,176.4805 L560.9731,179.2031 Q560.3423,178.6221 559.7488,178.3523 Q559.1553,178.0825 558.5244,178.0825 Q557.1797,178.0825 556.4949,179.1492 Q555.8101,180.2158 555.8101,182.3159 Q555.8101,184.4077 556.4949,185.4744 Q557.1797,186.541 558.5244,186.541 Q559.1553,186.541 559.7488,186.2712 Q560.3423,186.0015 560.9731,185.4204 Z " fill="#000000"/><text fill="#000000" font-family="sans-serif" font-size="12" lengthAdjust="spacing" textLength="49" x="572.5" y="186.5352">Program</text><!--MD5=[6137f69857c1321f4d06c717c9c09db2]
class asdi::edb::RelationSet--><rect codeLine="7" fill="#FFFFFF" filter="url(#f2lxxtk0n6tue)" height="32" id="asdi::edb::RelationSet" style="stroke:#A80036;stroke-width:1.5;" width="95" x="681.5" y="166"/><ellipse cx="696.5" cy="182" fill="#ADD1B2" rx="11" ry="11" style="stroke:#A80036;stroke-width:1.0;"/><path d="M698.9731,188.1431 Q698.3921,188.4419 697.7529,188.5913 Q697.1138,188.7407 696.4082,188.7407 Q693.9014,188.7407 692.5815,187.0889 Q691.2617,185.437 691.2617,182.3159 Q691.2617,179.1865 692.5815,177.5347 Q693.9014,175.8828 696.4082,175.8828 Q697.1138,175.8828 697.7612,176.0322 Q698.4087,176.1816 698.9731,176.4805 L698.9731,179.2031 Q698.3423,178.6221 697.7488,178.3523 Q697.1553,178.0825 696.5244,178.0825 Q695.1797,178.0825 694.4949,179.1492 Q693.8101,180.2158 693.8101,182.3159 Q693.8101,184.4077 694.4949,185.4744 Q695.1797,186.541 696.5244,186.541 Q697.1553,186.541 697.7488,186.2712 Q698.3423,186.0015 698.9731,185.4204 Z " fill="#000000"/><text fill="#000000" font-family="sans-serif" font-size="12" lengthAdjust="spacing" textLength="63" x="710.5" y="186.5352">RelationSet</text><!--MD5=[3cb0415412475ec7ae49204a9fbdfed2]
class asdi::idb::eval::Evaluator--><rect codeLine="11" fill="#FEFECE" filter="url(#f2lxxtk0n6tue)" height="65.9102" id="asdi::idb::eval::Evaluator" style="stroke:#A80036;stroke-width:1.5;" width="288" x="199" y="149"/><ellipse cx="312.25" cy="165" fill="#B4A7E5" rx="11" ry="11" style="stroke:#A80036;stroke-width:1.0;"/><path d="M308.6777,161.2651 L308.6777,159.1069 L316.0571,159.1069 L316.0571,161.2651 L313.5918,161.2651 L313.5918,169.3418 L316.0571,169.3418 L316.0571,171.5 L308.6777,171.5 L308.6777,169.3418 L311.1431,169.3418 L311.1431,161.2651 Z " fill="#000000"/><text fill="#000000" font-family="sans-serif" font-size="12" font-style="italic" lengthAdjust="spacing" textLength="53" x="332.75" y="169.5352">Evaluator</text><line style="stroke:#A80036;stroke-width:1.5;" x1="200" x2="486" y1="181" y2="181"/><text fill="#000000" font-family="sans-serif" font-size="11" lengthAdjust="spacing" textLength="276" x="205" y="195.6348">inference(program: Program) : Result&lt;RelationSet&gt;</text><text fill="#000000" font-family="sans-serif" font-size="11" lengthAdjust="spacing" textLength="77" x="205" y="208.5898">label() -&gt; &amp;str</text><!--MD5=[12539c91152c3ca549cd7939389e534a]
class asdi::idb::eval::NaiveEvaluator--><rect codeLine="16" fill="#FFFFFF" filter="url(#f2lxxtk0n6tue)" height="48" id="asdi::idb::eval::NaiveEvaluator" style="stroke:#A80036;stroke-width:1.5;" width="117" x="365.5" y="41"/><ellipse cx="380.5" cy="57" fill="#ADD1B2" rx="11" ry="11" style="stroke:#A80036;stroke-width:1.0;"/><path d="M382.9731,63.1431 Q382.3921,63.4419 381.7529,63.5913 Q381.1138,63.7407 380.4082,63.7407 Q377.9014,63.7407 376.5815,62.0889 Q375.2617,60.437 375.2617,57.3159 Q375.2617,54.1865 376.5815,52.5347 Q377.9014,50.8828 380.4082,50.8828 Q381.1138,50.8828 381.7612,51.0322 Q382.4087,51.1816 382.9731,51.4805 L382.9731,54.2031 Q382.3423,53.6221 381.7488,53.3523 Q381.1553,53.0825 380.5244,53.0825 Q379.1797,53.0825 378.4949,54.1492 Q377.8101,55.2158 377.8101,57.3159 Q377.8101,59.4077 378.4949,60.4744 Q379.1797,61.541 380.5244,61.541 Q381.1553,61.541 381.7488,61.2712 Q382.3423,61.0015 382.9731,60.4204 Z " fill="#000000"/><text fill="#000000" font-family="sans-serif" font-size="12" lengthAdjust="spacing" textLength="85" x="394.5" y="61.5352">NaiveEvaluator</text><line style="stroke:#A80036;stroke-width:1.5;" x1="366.5" x2="481.5" y1="73" y2="73"/><line style="stroke:#A80036;stroke-width:1.5;" x1="366.5" x2="481.5" y1="81" y2="81"/><!--MD5=[637d6fbc8d3090d341036b87a6f02fdc]
class asdi::idb::eval::NoopEvaluator--><rect codeLine="17" fill="#FFFFFF" filter="url(#f2lxxtk0n6tue)" height="48" id="asdi::idb::eval::NoopEvaluator" style="stroke:#A80036;stroke-width:1.5;" width="116" x="214" y="41"/><ellipse cx="229" cy="57" fill="#ADD1B2" rx="11" ry="11" style="stroke:#A80036;stroke-width:1.0;"/><path d="M231.4731,63.1431 Q230.8921,63.4419 230.2529,63.5913 Q229.6138,63.7407 228.9082,63.7407 Q226.4014,63.7407 225.0815,62.0889 Q223.7617,60.437 223.7617,57.3159 Q223.7617,54.1865 225.0815,52.5347 Q226.4014,50.8828 228.9082,50.8828 Q229.6138,50.8828 230.2612,51.0322 Q230.9087,51.1816 231.4731,51.4805 L231.4731,54.2031 Q230.8423,53.6221 230.2488,53.3523 Q229.6553,53.0825 229.0244,53.0825 Q227.6797,53.0825 226.9949,54.1492 Q226.3101,55.2158 226.3101,57.3159 Q226.3101,59.4077 226.9949,60.4744 Q227.6797,61.541 229.0244,61.541 Q229.6553,61.541 230.2488,61.2712 Q230.8423,61.0015 231.4731,60.4204 Z " fill="#000000"/><text fill="#000000" font-family="sans-serif" font-size="12" lengthAdjust="spacing" textLength="84" x="243" y="61.5352">NoopEvaluator</text><line style="stroke:#A80036;stroke-width:1.5;" x1="215" x2="329" y1="73" y2="73"/><line style="stroke:#A80036;stroke-width:1.5;" x1="215" x2="329" y1="81" y2="81"/><!--MD5=[88c208813f6c6a29344003ddbaf54fa8]
class asdi::idb::eval::StratifiedEvaluator--><rect codeLine="18" fill="#FFFFFF" filter="url(#f2lxxtk0n6tue)" height="48" id="asdi::idb::eval::StratifiedEvaluator" style="stroke:#A80036;stroke-width:1.5;" width="136" x="39" y="41"/><ellipse cx="54" cy="57" fill="#ADD1B2" rx="11" ry="11" style="stroke:#A80036;stroke-width:1.0;"/><path d="M56.4731,63.1431 Q55.8921,63.4419 55.2529,63.5913 Q54.6138,63.7407 53.9082,63.7407 Q51.4014,63.7407 50.0815,62.0889 Q48.7617,60.437 48.7617,57.3159 Q48.7617,54.1865 50.0815,52.5347 Q51.4014,50.8828 53.9082,50.8828 Q54.6138,50.8828 55.2612,51.0322 Q55.9087,51.1816 56.4731,51.4805 L56.4731,54.2031 Q55.8423,53.6221 55.2488,53.3523 Q54.6553,53.0825 54.0244,53.0825 Q52.6797,53.0825 51.9949,54.1492 Q51.3101,55.2158 51.3101,57.3159 Q51.3101,59.4077 51.9949,60.4744 Q52.6797,61.541 54.0244,61.541 Q54.6553,61.541 55.2488,61.2712 Q55.8423,61.0015 56.4731,60.4204 Z " fill="#000000"/><text fill="#000000" font-family="sans-serif" font-size="12" lengthAdjust="spacing" textLength="104" x="68" y="61.5352">StratifiedEvaluator</text><line style="stroke:#A80036;stroke-width:1.5;" x1="40" x2="174" y1="73" y2="73"/><line style="stroke:#A80036;stroke-width:1.5;" x1="40" x2="174" y1="81" y2="81"/><!--MD5=[ef0f5253ff8ffa8a74eb1f95e63d5a99]
class asdi::idb::eval::StratifiedProgram--><rect codeLine="19" fill="#FFFFFF" filter="url(#f2lxxtk0n6tue)" height="48" id="asdi::idb::eval::StratifiedProgram" style="stroke:#A80036;stroke-width:1.5;" width="132" x="32" y="158"/><ellipse cx="47" cy="174" fill="#ADD1B2" rx="11" ry="11" style="stroke:#A80036;stroke-width:1.0;"/><path d="M49.4731,180.1431 Q48.8921,180.4419 48.2529,180.5913 Q47.6138,180.7407 46.9082,180.7407 Q44.4014,180.7407 43.0815,179.0889 Q41.7617,177.437 41.7617,174.3159 Q41.7617,171.1865 43.0815,169.5347 Q44.4014,167.8828 46.9082,167.8828 Q47.6138,167.8828 48.2612,168.0322 Q48.9087,168.1816 49.4731,168.4805 L49.4731,171.2031 Q48.8423,170.6221 48.2488,170.3523 Q47.6553,170.0825 47.0244,170.0825 Q45.6797,170.0825 44.9949,171.1492 Q44.3101,172.2158 44.3101,174.3159 Q44.3101,176.4077 44.9949,177.4744 Q45.6797,178.541 47.0244,178.541 Q47.6553,178.541 48.2488,178.2712 Q48.8423,178.0015 49.4731,177.4204 Z " fill="#000000"/><text fill="#000000" font-family="sans-serif" font-size="12" lengthAdjust="spacing" textLength="100" x="61" y="178.5352">StratifiedProgram</text><line style="stroke:#A80036;stroke-width:1.5;" x1="33" x2="163" y1="190" y2="190"/><line style="stroke:#A80036;stroke-width:1.5;" x1="33" x2="163" y1="198" y2="198"/><!--MD5=[1dc5af81951ed02d332d3d47c056d05d]
link asdi::idb::eval::NaiveEvaluator to asdi::idb::eval::Evaluator--><path codeLine="21" d="M407.61,89.27 C398.97,101.54 388.03,117.07 377.62,131.85 " fill="none" id="asdi::idb::eval::NaiveEvaluator-to-asdi::idb::eval::Evaluator" style="stroke:#A80036;stroke-width:1.0;stroke-dasharray:7.0,7.0;"/><polygon fill="none" points="383.05,136.29,365.81,148.61,371.61,128.23,383.05,136.29" style="stroke:#A80036;stroke-width:1.0;"/><!--MD5=[227ef62235453682a8126346e43c8368]
link asdi::idb::eval::NoopEvaluator to asdi::idb::eval::Evaluator--><path codeLine="22" d="M286.37,89.27 C293.86,101.4 303.32,116.73 312.36,131.37 " fill="none" id="asdi::idb::eval::NoopEvaluator-to-asdi::idb::eval::Evaluator" style="stroke:#A80036;stroke-width:1.0;stroke-dasharray:7.0,7.0;"/><polygon fill="none" points="318.45,127.92,323,148.61,306.54,135.27,318.45,127.92" style="stroke:#A80036;stroke-width:1.0;"/><!--MD5=[6f99ab971918332161b66e25314156d4]
link asdi::idb::eval::StratifiedEvaluator to asdi::idb::eval::Evaluator--><path codeLine="23" d="M154.47,89.13 C184.37,103.7 223.8,122.91 258.87,140 " fill="none" id="asdi::idb::eval::StratifiedEvaluator-to-asdi::idb::eval::Evaluator" style="stroke:#A80036;stroke-width:1.0;stroke-dasharray:7.0,7.0;"/><polygon fill="none" points="262.36,133.92,277.27,148.97,256.23,146.5,262.36,133.92" style="stroke:#A80036;stroke-width:1.0;"/><!--MD5=[520c4531a11b2b8403effd2ed564525c]
link asdi::idb::eval::Evaluator to asdi::Program--><path codeLine="25" d="M487.04,182 C504.08,182 521.13,182 538.18,182 " fill="none" id="asdi::idb::eval::Evaluator-to-asdi::Program" style="stroke:#A80036;stroke-width:1.0;stroke-dasharray:7.0,7.0;"/><polygon fill="#A80036" points="543.47,182,534.47,178,538.47,182,534.47,186,543.47,182" style="stroke:#A80036;stroke-width:1.0;"/><!--MD5=[68dc2bbb0c7587de8d971a69f5d98b5f]
link asdi::idb::eval::Evaluator to asdi::edb::RelationSet--><path codeLine="26" d="M396.7,148.92 C453.48,118.23 545.47,80.82 623.5,106 C657.54,116.98 689.85,143.48 709.54,162.08 " fill="none" id="asdi::idb::eval::Evaluator-to-asdi::edb::RelationSet" style="stroke:#A80036;stroke-width:1.0;stroke-dasharray:7.0,7.0;"/><polygon fill="#A80036" points="713.31,165.69,709.5711,156.5784,709.6968,162.2339,704.0413,162.3596,713.31,165.69" style="stroke:#A80036;stroke-width:1.0;"/><!--MD5=[8473601ebdb8ce940b730a09fe3e5464]
link asdi::idb::eval::StratifiedEvaluator to asdi::idb::eval::StratifiedProgram--><path codeLine="29" d="M105.18,89.27 C103.75,107.51 101.76,132.97 100.24,152.44 " fill="none" id="asdi::idb::eval::StratifiedEvaluator-to-asdi::idb::eval::StratifiedProgram" style="stroke:#A80036;stroke-width:1.0;stroke-dasharray:7.0,7.0;"/><polygon fill="#A80036" points="99.82,157.76,104.5023,149.0953,100.2057,152.7749,96.5261,148.4783,99.82,157.76" style="stroke:#A80036;stroke-width:1.0;"/><!--MD5=[f0cd66456b5bb9be1891b7b11c8c40ed]
@startuml

!include ../model/options.plantuml

class asdi::Program #white
hide "asdi::Program" members

class asdi::edb::RelationSet #white
hide "asdi::edb::RelationSet" members

namespace asdi::idb::eval {
    interface Evaluator {
        inference(program: Program) : Result<RelationSet>
        label() -> &str
    }

    class NaiveEvaluator #white
    class NoopEvaluator #white
    class StratifiedEvaluator #white
    class StratifiedProgram #white

    NaiveEvaluator ..|> Evaluator
    NoopEvaluator ..|> Evaluator
    StratifiedEvaluator ..|> Evaluator

    Evaluator .right.> asdi::Program
    Evaluator .right.> asdi::edb::RelationSet


    StratifiedEvaluator .down.> StratifiedProgram
}

@enduml

@startuml

set namespaceSeparator ::
hide enum methods
hide interface fields
hide << const >> members
hide << type >> members
hide << type >> stereotype
hide << module >> fields
hide << module >> circle

class asdi::Program #white
hide "asdi::Program" members

class asdi::edb::RelationSet #white
hide "asdi::edb::RelationSet" members

namespace asdi::idb::eval {
    interface Evaluator {
        inference(program: Program) : Result<RelationSet>
        label() -> &str
    }

    class NaiveEvaluator #white
    class NoopEvaluator #white
    class StratifiedEvaluator #white
    class StratifiedProgram #white

    NaiveEvaluator ..|> Evaluator
    NoopEvaluator ..|> Evaluator
    StratifiedEvaluator ..|> Evaluator

    Evaluator .right.> asdi::Program
    Evaluator .right.> asdi::edb::RelationSet


    StratifiedEvaluator .down.> StratifiedProgram
}

@enduml

PlantUML version 1.2022.1(Tue Feb 01 10:19:58 PST 2022)
(GPL source distribution)
Java Runtime: OpenJDK Runtime Environment
JVM: OpenJDK 64-Bit Server VM
Default Encoding: UTF-8
Language: en
Country: US
--></g></svg>