<?xml version="1.0" encoding="UTF-8" standalone="no"?><!DOCTYPE svg PUBLIC "-//W3C//DTD SVG 1.1//EN" "http://www.w3.org/Graphics/SVG/1.1/DTD/svg11.dtd"><!-- Generated by graphviz version 2.40.1 (20161225.0304)
 --><!-- Title: G Pages: 1 --><svg xmlns="http://www.w3.org/2000/svg" xmlns:xlink="http://www.w3.org/1999/xlink" width="1517pt" height="232pt" viewBox="0.00 0.00 1517.04 231.80">
<g id="graph0" class="graph" transform="scale(1 1) rotate(0) translate(7.2 224.6)">
<title>G</title>
<polygon fill="#ffffff" stroke="transparent" points="-7.2,7.2 -7.2,-224.6 1509.8449,-224.6 1509.8449,7.2 -7.2,7.2"/>
<!-- negated -->
<g id="node1" class="node">
<title>negated</title>
<polygon fill="none" stroke="#000000" points="899.8465,-109.7008 834.3475,-109.7008 834.3475,-85.0992 899.8465,-85.0992 899.8465,-109.7008"/>
<text text-anchor="middle" x="867.097" y="-93.2" font-family="Times,serif" font-size="14.00" fill="#000000">negated?</text>
</g>
<!-- boolean -->
<g id="node2" class="node">
<title>boolean</title>
<polygon fill="none" stroke="#000000" points="1502.8057,-110.7008 1442.1644,-110.7008 1442.1644,-86.0992 1502.8057,-86.0992 1502.8057,-110.7008"/>
<text text-anchor="middle" x="1472.485" y="-94.2" font-family="Times,serif" font-size="14.00" fill="#000000">boolean</text>
</g>
<!-- string -->
<g id="node3" class="node">
<title>string</title>
<polygon fill="none" stroke="#000000" points="1496.3715,-67.7008 1448.5985,-67.7008 1448.5985,-43.0992 1496.3715,-43.0992 1496.3715,-67.7008"/>
<text text-anchor="middle" x="1472.485" y="-51.2" font-family="Times,serif" font-size="14.00" fill="#000000">string</text>
</g>
<!-- integer -->
<g id="node4" class="node">
<title>integer</title>
<polygon fill="none" stroke="#000000" points="1499.8562,-24.7008 1445.1139,-24.7008 1445.1139,-.0992 1499.8562,-.0992 1499.8562,-24.7008"/>
<text text-anchor="middle" x="1472.485" y="-8.2" font-family="Times,serif" font-size="14.00" fill="#000000">integer</text>
</g>
<!-- variable -->
<g id="node5" class="node">
<title>variable</title>
<polygon fill="none" stroke="#000000" points="1348.6925,-158.7008 1287.5212,-158.7008 1287.5212,-134.0992 1348.6925,-134.0992 1348.6925,-158.7008"/>
<text text-anchor="middle" x="1318.1068" y="-142.2" font-family="Times,serif" font-size="14.00" fill="#000000">variable</text>
</g>
<!-- anonymous -->
<g id="node6" class="node">
<title>anonymous</title>
<polygon fill="none" stroke="#000000" points="1358.1579,-115.7008 1278.0558,-115.7008 1278.0558,-91.0992 1358.1579,-91.0992 1358.1579,-115.7008"/>
<text text-anchor="middle" x="1318.1068" y="-99.2" font-family="Times,serif" font-size="14.00" fill="#000000">anonymous</text>
</g>
<!-- predicate -->
<g id="node7" class="node">
<title>predicate</title>
<polygon fill="none" stroke="#000000" points="1184.4808,-209.7008 1116.8791,-209.7008 1116.8791,-185.0992 1184.4808,-185.0992 1184.4808,-209.7008"/>
<text text-anchor="middle" x="1150.6799" y="-193.2" font-family="Times,serif" font-size="14.00" fill="#000000">predicate</text>
</g>
<!-- program -->
<g id="node8" class="node">
<title>program</title>
<ellipse fill="none" stroke="#000000" cx="43.7504" cy="-176.4" rx="43.5022" ry="18"/>
<text text-anchor="middle" x="43.7504" y="-172.2" font-family="Times,serif" font-size="14.00" fill="#000000">program</text>
</g>
<!-- edb -->
<g id="node9" class="node">
<title>edb</title>
<ellipse fill="none" stroke="#000000" cx="223.5007" cy="-199.4" rx="27" ry="18"/>
<text text-anchor="middle" x="223.5007" y="-195.2" font-family="Times,serif" font-size="14.00" fill="#000000">edb</text>
</g>
<!-- program&#45;&gt;edb -->
<g id="edge1" class="edge">
<title>program-&gt;edb</title>
<path fill="none" stroke="#000000" d="M85.8939,-181.7925C116.4841,-185.7067 157.4672,-190.9507 186.734,-194.6955"/>
<polygon fill="#000000" stroke="#000000" points="186.5821,-198.2045 196.9455,-196.0021 187.4706,-191.2611 186.5821,-198.2045"/>
</g>
<!-- idb -->
<g id="node10" class="node">
<title>idb</title>
<ellipse fill="none" stroke="#000000" cx="151.5007" cy="-153.4" rx="27" ry="18"/>
<text text-anchor="middle" x="151.5007" y="-149.2" font-family="Times,serif" font-size="14.00" fill="#000000">idb</text>
</g>
<!-- program&#45;&gt;idb -->
<g id="edge2" class="edge">
<title>program-&gt;idb</title>
<path fill="none" stroke="#000000" d="M82.6507,-168.0965C93.5229,-165.7757 105.279,-163.2663 115.947,-160.9892"/>
<polygon fill="#000000" stroke="#000000" points="116.7284,-164.4013 125.7774,-158.8908 115.2671,-157.5555 116.7284,-164.4013"/>
</g>
<!-- relation -->
<g id="node11" class="node">
<title>relation</title>
<ellipse fill="none" stroke="#000000" cx="381.0334" cy="-183.4" rx="40.5654" ry="18"/>
<text text-anchor="middle" x="381.0334" y="-179.2" font-family="Times,serif" font-size="14.00" fill="#000000">relation</text>
</g>
<!-- edb&#45;&gt;relation -->
<g id="edge3" class="edge">
<title>edb-&gt;relation</title>
<path fill="none" stroke="#000000" d="M250.224,-196.6858C272.408,-194.4327 304.5611,-191.167 331.4376,-188.4373"/>
<polygon fill="#000000" stroke="#000000" points="331.853,-191.9132 341.4481,-187.4205 331.1456,-184.949 331.853,-191.9132"/>
<text text-anchor="middle" x="295.5007" y="-198.6" font-family="Times,serif" font-size="14.00" fill="#000000">*</text>
</g>
<!-- idb&#45;&gt;relation -->
<g id="edge4" class="edge">
<title>idb-&gt;relation</title>
<path fill="none" stroke="#000000" d="M178.4866,-152.6389C198.4446,-152.4061 226.2526,-152.7738 250.5007,-155.6 279.3249,-158.9595 311.1886,-165.6858 336.2186,-171.6805"/>
<polygon fill="#000000" stroke="#000000" points="335.6045,-175.1333 346.1494,-174.1059 337.2654,-168.3332 335.6045,-175.1333"/>
<text text-anchor="middle" x="223.5007" y="-159.6" font-family="Times,serif" font-size="14.00" fill="#000000">*</text>
</g>
<!-- rule -->
<g id="node12" class="node">
<title>rule</title>
<ellipse fill="none" stroke="#000000" cx="295.5007" cy="-107.4" rx="27" ry="18"/>
<text text-anchor="middle" x="295.5007" y="-103.2" font-family="Times,serif" font-size="14.00" fill="#000000">rule</text>
</g>
<!-- idb&#45;&gt;rule -->
<g id="edge5" class="edge">
<title>idb-&gt;rule</title>
<path fill="none" stroke="#000000" d="M165.2359,-137.3875C173.4006,-129.0433 184.4894,-119.5664 196.5007,-114.6 215.8499,-106.5995 239.1326,-104.5714 258.2566,-104.6487"/>
<polygon fill="#000000" stroke="#000000" points="258.3234,-108.1511 268.4018,-104.8837 258.4856,-101.153 258.3234,-108.1511"/>
<text text-anchor="middle" x="223.5007" y="-119.6" font-family="Times,serif" font-size="14.00" fill="#000000">*</text>
</g>
<!-- relation&#45;&gt;predicate -->
<g id="edge18" class="edge">
<title>relation-&gt;predicate</title>
<path fill="none" stroke="#000000" stroke-dasharray="5,2" d="M415.8987,-192.8099C451.6052,-201.6079 508.8534,-213.4 559.1968,-213.4 559.1968,-213.4 559.1968,-213.4 998.2761,-213.4 1034.9257,-213.4 1076.2633,-208.7669 1106.6309,-204.487"/>
<polygon fill="#000000" stroke="#000000" points="1107.4965,-207.898 1116.8891,-202.996 1106.4896,-200.9708 1107.4965,-207.898"/>
</g>
<!-- atom -->
<g id="node14" class="node">
<title>atom</title>
<ellipse fill="none" stroke="#000000" cx="998.2761" cy="-143.4" rx="30.1958" ry="18"/>
<text text-anchor="middle" x="998.2761" y="-139.2" font-family="Times,serif" font-size="14.00" fill="#000000">atom</text>
</g>
<!-- relation&#45;&gt;atom -->
<g id="edge19" class="edge">
<title>relation-&gt;atom</title>
<path fill="none" stroke="#000000" d="M421.3428,-180.557C457.4382,-178.2575 511.8245,-175.4 559.1968,-175.4 559.1968,-175.4 559.1968,-175.4 867.097,-175.4 900.3553,-175.4 937.0401,-165.5716 963.1386,-156.8086"/>
<polygon fill="#000000" stroke="#000000" points="964.2953,-160.1121 972.5935,-153.525 961.9987,-153.4995 964.2953,-160.1121"/>
<text text-anchor="middle" x="702.9418" y="-179.6" font-family="Times,serif" font-size="14.00" fill="#000000">*</text>
</g>
<!-- head -->
<g id="node13" class="node">
<title>head</title>
<ellipse fill="none" stroke="#000000" cx="468.833" cy="-125.4" rx="29.0356" ry="18"/>
<text text-anchor="middle" x="468.833" y="-121.2" font-family="Times,serif" font-size="14.00" fill="#000000">head</text>
</g>
<!-- rule&#45;&gt;head -->
<g id="edge6" class="edge">
<title>rule-&gt;head</title>
<path fill="none" stroke="#000000" d="M322.204,-110.1731C350.91,-113.1541 396.8308,-117.9228 429.633,-121.3292"/>
<polygon fill="#000000" stroke="#000000" points="429.4756,-124.8316 439.7837,-122.3833 430.1987,-117.869 429.4756,-124.8316"/>
<text text-anchor="middle" x="381.0334" y="-124.6" font-family="Times,serif" font-size="14.00" fill="#000000">?/*</text>
</g>
<!-- body -->
<g id="node15" class="node">
<title>body</title>
<ellipse fill="none" stroke="#000000" cx="650.6441" cy="-81.4" rx="30.2015" ry="18"/>
<text text-anchor="middle" x="650.6441" y="-77.2" font-family="Times,serif" font-size="14.00" fill="#000000">body</text>
</g>
<!-- rule&#45;&gt;body -->
<g id="edge8" class="edge">
<title>rule-&gt;body</title>
<path fill="none" stroke="#000000" d="M321.0804,-101.4093C349.7407,-95.0279 397.6805,-85.341 439.5661,-81.6 498.6195,-76.3257 567.3373,-77.6381 609.9174,-79.3184"/>
<polygon fill="#000000" stroke="#000000" points="610.0195,-82.8257 620.1579,-79.7497 610.3141,-75.8319 610.0195,-82.8257"/>
<text text-anchor="middle" x="468.833" y="-86.6" font-family="Times,serif" font-size="14.00" fill="#000000">?</text>
</g>
<!-- head&#45;&gt;atom -->
<g id="edge7" class="edge">
<title>head-&gt;atom</title>
<path fill="none" stroke="#000000" d="M497.7636,-128.4903C533.6023,-132.0458 596.5515,-137.4 650.6441,-137.4 650.6441,-137.4 650.6441,-137.4 867.097,-137.4 897.5536,-137.4 931.9464,-139.034 957.8729,-140.5965"/>
<polygon fill="#000000" stroke="#000000" points="957.8759,-144.1034 968.0747,-141.2339 958.3124,-137.1171 957.8759,-144.1034"/>
</g>
<!-- head&#45;&gt;body -->
<g id="edge10" class="edge">
<title>head-&gt;body</title>
<path fill="none" stroke="#000000" stroke-dasharray="5,2" d="M493.0512,-114.7256C500.3568,-111.7906 508.4653,-108.8107 516.0999,-106.6 551.4815,-96.3547 593.341,-89.2777 620.8635,-85.2882"/>
<text text-anchor="middle" x="559.1968" y="-111.6" font-family="Times,serif" font-size="14.00" fill="#000000">|head|+|tail|&gt;=1</text>
</g>
<!-- atom&#45;&gt;predicate -->
<g id="edge21" class="edge">
<title>atom-&gt;predicate</title>
<path fill="none" stroke="#000000" d="M1024.4752,-152.6829C1047.2146,-160.74 1080.59,-172.5656 1107.3079,-182.0324"/>
<polygon fill="#000000" stroke="#000000" points="1106.2234,-185.3612 1116.8181,-185.402 1108.5613,-178.7632 1106.2234,-185.3612"/>
</g>
<!-- term -->
<g id="node19" class="node">
<title>term</title>
<ellipse fill="none" stroke="#000000" cx="1150.6799" cy="-103.4" rx="28.9696" ry="18"/>
<text text-anchor="middle" x="1150.6799" y="-99.2" font-family="Times,serif" font-size="14.00" fill="#000000">term</text>
</g>
<!-- atom&#45;&gt;term -->
<g id="edge20" class="edge">
<title>atom-&gt;term</title>
<path fill="none" stroke="#000000" d="M1026.2293,-136.0634C1050.9176,-129.5837 1087.0843,-120.0914 1114.0743,-113.0075"/>
<polygon fill="#000000" stroke="#000000" points="1115.1422,-116.3459 1123.9261,-110.4218 1113.3651,-109.5752 1115.1422,-116.3459"/>
<text text-anchor="middle" x="1080.9187" y="-127.6" font-family="Times,serif" font-size="14.00" fill="#000000">+</text>
</g>
<!-- literal -->
<g id="node16" class="node">
<title>literal</title>
<ellipse fill="none" stroke="#000000" cx="758.4485" cy="-81.4" rx="33.6189" ry="18"/>
<text text-anchor="middle" x="758.4485" y="-77.2" font-family="Times,serif" font-size="14.00" fill="#000000">literal</text>
</g>
<!-- body&#45;&gt;literal -->
<g id="edge9" class="edge">
<title>body-&gt;literal</title>
<path fill="none" stroke="#000000" d="M681.2481,-81.4C691.6379,-81.4 703.4578,-81.4 714.6713,-81.4"/>
<polygon fill="#000000" stroke="#000000" points="714.7405,-84.9001 724.7404,-81.4 714.7404,-77.9001 714.7405,-84.9001"/>
<text text-anchor="middle" x="702.9418" y="-85.6" font-family="Times,serif" font-size="14.00" fill="#000000">+</text>
</g>
<!-- literal&#45;&gt;negated -->
<g id="edge12" class="edge">
<title>literal-&gt;negated</title>
<path fill="none" stroke="#000000" d="M791.0466,-86.2005C801.4793,-87.7369 813.1918,-89.4617 824.2412,-91.0889"/>
<polygon fill="#000000" stroke="#000000" points="823.7431,-94.5532 834.1463,-92.5476 824.763,-87.6279 823.7431,-94.5532"/>
<text text-anchor="middle" x="813.1152" y="-94.6" font-family="Times,serif" font-size="14.00" fill="#000000">?</text>
</g>
<!-- xor3 -->
<g id="node17" class="node">
<title>xor3</title>
<polygon fill="#d3d3d3" stroke="#000000" points="867.097,-66.9 863.597,-63.4 867.097,-59.9 870.597,-63.4 867.097,-66.9"/>
</g>
<!-- literal&#45;&gt;xor3 -->
<g id="edge11" class="edge">
<title>literal-&gt;xor3</title>
<path fill="none" stroke="#000000" d="M790.7524,-76.0481C811.8637,-72.5506 838.3158,-68.1682 853.8944,-65.5873"/>
<polygon fill="#000000" stroke="#000000" points="854.7735,-68.9894 864.067,-63.902 853.6294,-62.0836 854.7735,-68.9894"/>
</g>
<!-- xor3&#45;&gt;atom -->
<g id="edge13" class="edge">
<title>xor3-&gt;atom</title>
<path fill="none" stroke="#000000" d="M869.9165,-64.2792C875.7189,-66.1388 889.3429,-70.7662 899.9715,-76.4 925.4497,-89.905 952.3769,-108.6077 971.5944,-122.8218"/>
<polygon fill="#000000" stroke="#000000" points="969.746,-125.8101 979.8487,-129.0019 973.9415,-120.2067 969.746,-125.8101"/>
</g>
<!-- comparison -->
<g id="node18" class="node">
<title>comparison</title>
<ellipse fill="none" stroke="#000000" cx="998.2761" cy="-63.4" rx="56.1802" ry="18"/>
<text text-anchor="middle" x="998.2761" y="-59.2" font-family="Times,serif" font-size="14.00" fill="#000000">comparison</text>
</g>
<!-- xor3&#45;&gt;comparison -->
<g id="edge14" class="edge">
<title>xor3-&gt;comparison</title>
<path fill="none" stroke="#000000" d="M870.6057,-63.4C879.778,-63.4 905.5658,-63.4 931.5848,-63.4"/>
<polygon fill="#000000" stroke="#000000" points="931.9203,-66.9001 941.9202,-63.4 931.9202,-59.9001 931.9203,-66.9001"/>
<text text-anchor="middle" x="921.0788" y="-67.6" font-family="Times,serif" font-size="14.00" fill="#000000">?</text>
</g>
<!-- comparison&#45;&gt;term -->
<g id="edge15" class="edge">
<title>comparison-&gt;term</title>
<path fill="none" stroke="#000000" d="M1041.9489,-74.8624C1064.7289,-80.8413 1092.2836,-88.0733 1113.954,-93.7609"/>
<polygon fill="#000000" stroke="#000000" points="1113.2039,-97.1825 1123.7649,-96.3359 1114.981,-90.4118 1113.2039,-97.1825"/>
<text text-anchor="middle" x="1080.9187" y="-91.6" font-family="Times,serif" font-size="14.00" fill="#000000">lhs</text>
</g>
<!-- comparison&#45;&gt;term -->
<g id="edge16" class="edge">
<title>comparison-&gt;term</title>
<path fill="none" stroke="#000000" d="M1051.6089,-57.5839C1064.2323,-57.6645 1077.4997,-58.9757 1089.4713,-62.6 1102.6846,-66.6002 1115.653,-74.4972 1126.2273,-82.2868"/>
<polygon fill="#000000" stroke="#000000" points="1124.1064,-85.0711 1134.1532,-88.4343 1128.3965,-79.5399 1124.1064,-85.0711"/>
<text text-anchor="middle" x="1080.9187" y="-67.6" font-family="Times,serif" font-size="14.00" fill="#000000">rhs</text>
</g>
<!-- operator -->
<g id="node20" class="node">
<title>operator</title>
<ellipse fill="none" stroke="#000000" cx="1150.6799" cy="-30.4" rx="43.4183" ry="18"/>
<text text-anchor="middle" x="1150.6799" y="-26.2" font-family="Times,serif" font-size="14.00" fill="#000000">operator</text>
</g>
<!-- comparison&#45;&gt;operator -->
<g id="edge17" class="edge">
<title>comparison-&gt;operator</title>
<path fill="none" stroke="#000000" d="M1041.2432,-51.8066C1051.4128,-49.2223 1062.2446,-46.5993 1072.3661,-44.4 1081.3857,-42.4401 1091.033,-40.5494 1100.3656,-38.8254"/>
<polygon fill="#000000" stroke="#000000" points="1101.1067,-42.2482 1110.3243,-37.0246 1099.8611,-35.3599 1101.1067,-42.2482"/>
</g>
<!-- xor2 -->
<g id="node21" class="node">
<title>xor2</title>
<polygon fill="#d3d3d3" stroke="#000000" points="1234.3886,-106.9 1230.8886,-103.4 1234.3886,-99.9 1237.8886,-103.4 1234.3886,-106.9"/>
</g>
<!-- term&#45;&gt;xor2 -->
<g id="edge22" class="edge">
<title>term-&gt;xor2</title>
<path fill="none" stroke="#000000" d="M1179.4877,-103.4C1193.3696,-103.4 1209.3791,-103.4 1220.5139,-103.4"/>
<polygon fill="#000000" stroke="#000000" points="1220.6411,-106.9001 1230.6411,-103.4 1220.6411,-99.9001 1220.6411,-106.9001"/>
</g>
<!-- xor2&#45;&gt;variable -->
<g id="edge24" class="edge">
<title>xor2-&gt;variable</title>
<path fill="none" stroke="#000000" d="M1236.5837,-104.9785C1240.4037,-107.6909 1248.5667,-113.3363 1255.8886,-117.4 1263.6028,-121.6814 1272.0585,-125.9118 1280.1817,-129.7626"/>
<polygon fill="#000000" stroke="#000000" points="1278.9566,-133.0526 1289.5006,-134.0891 1281.9043,-126.7035 1278.9566,-133.0526"/>
</g>
<!-- xor2&#45;&gt;anonymous -->
<g id="edge25" class="edge">
<title>xor2-&gt;anonymous</title>
<path fill="none" stroke="#000000" d="M1237.9858,-103.4C1243.567,-103.4 1254.9799,-103.4 1267.4852,-103.4"/>
<polygon fill="#000000" stroke="#000000" points="1267.6578,-106.9001 1277.6577,-103.4 1267.6577,-99.9001 1267.6578,-106.9001"/>
</g>
<!-- constant -->
<g id="node22" class="node">
<title>constant</title>
<ellipse fill="none" stroke="#000000" cx="1318.1068" cy="-55.4" rx="43.4377" ry="18"/>
<text text-anchor="middle" x="1318.1068" y="-51.2" font-family="Times,serif" font-size="14.00" fill="#000000">constant</text>
</g>
<!-- xor2&#45;&gt;constant -->
<g id="edge23" class="edge">
<title>xor2-&gt;constant</title>
<path fill="none" stroke="#000000" d="M1236.8038,-102.0152C1243.7933,-98.0078 1264.7454,-85.9948 1283.6283,-75.1683"/>
<polygon fill="#000000" stroke="#000000" points="1285.4461,-78.1606 1292.3804,-70.1503 1281.9643,-72.088 1285.4461,-78.1606"/>
</g>
<!-- xor1 -->
<g id="node23" class="node">
<title>xor1</title>
<polygon fill="#d3d3d3" stroke="#000000" points="1401.8251,-58.9 1398.3251,-55.4 1401.8251,-51.9 1405.3251,-55.4 1401.8251,-58.9"/>
</g>
<!-- constant&#45;&gt;xor1 -->
<g id="edge26" class="edge">
<title>constant-&gt;xor1</title>
<path fill="none" stroke="#000000" d="M1361.4373,-55.4C1371.0477,-55.4 1380.5547,-55.4 1387.9283,-55.4"/>
<polygon fill="#000000" stroke="#000000" points="1387.9655,-58.9001 1397.9655,-55.4 1387.9655,-51.9001 1387.9655,-58.9001"/>
</g>
<!-- xor1&#45;&gt;boolean -->
<g id="edge29" class="edge">
<title>xor1-&gt;boolean</title>
<path fill="none" stroke="#000000" d="M1404.0637,-56.9045C1407.9493,-59.5052 1416.2084,-64.9868 1423.3251,-69.4 1429.3226,-73.1192 1435.7879,-77.0135 1441.9964,-80.6976"/>
<polygon fill="#000000" stroke="#000000" points="1440.4322,-83.8383 1450.8245,-85.8999 1443.9861,-77.8075 1440.4322,-83.8383"/>
</g>
<!-- xor1&#45;&gt;string -->
<g id="edge28" class="edge">
<title>xor1-&gt;string</title>
<path fill="none" stroke="#000000" d="M1405.6241,-55.4C1411.9122,-55.4 1425.085,-55.4 1438.089,-55.4"/>
<polygon fill="#000000" stroke="#000000" points="1438.347,-58.9001 1448.347,-55.4 1438.347,-51.9001 1438.347,-58.9001"/>
</g>
<!-- xor1&#45;&gt;integer -->
<g id="edge27" class="edge">
<title>xor1-&gt;integer</title>
<path fill="none" stroke="#000000" d="M1404.1761,-53.9693C1410.3415,-50.2173 1427.5799,-39.7269 1443.1957,-30.224"/>
<polygon fill="#000000" stroke="#000000" points="1445.3834,-32.9898 1452.1065,-24.8013 1441.7444,-27.01 1445.3834,-32.9898"/>
</g>
</g>
</svg>