<?xml version="1.0" encoding="UTF-8" standalone="no"?><svg xmlns="http://www.w3.org/2000/svg" xmlns:xlink="http://www.w3.org/1999/xlink" contentScriptType="application/ecmascript" contentStyleType="text/css" height="340px" preserveAspectRatio="none" style="width:484px;height:340px;background:#FFFFFF;" version="1.1" viewBox="0 0 484 340" width="484px" zoomAndPan="magnify"><defs><filter height="300%" id="fv27dl8jirr5y" width="300%" x="-1" y="-1"><feGaussianBlur result="blurOut" stdDeviation="2.0"/><feColorMatrix in="blurOut" result="blurOut2" type="matrix" values="0 0 0 0 0 0 0 0 0 0 0 0 0 0 0 0 0 0 .4 0"/><feOffset dx="4.0" dy="4.0" in="blurOut2" result="blurOut3"/><feBlend in="SourceGraphic" in2="blurOut3" mode="normal"/></filter></defs><g><!--MD5=[e274c4916ac42ef1c11391a83d303c10]
cluster asdi--><polygon fill="#FFFFFF" filter="url(#fv27dl8jirr5y)" points="88,250,124,250,131,272.4883,467,272.4883,467,333,88,333,88,250" style="stroke:#000000;stroke-width:1.5;"/><line style="stroke:#000000;stroke-width:1.5;" x1="88" x2="131" y1="272.4883" y2="272.4883"/><text fill="#000000" font-family="sans-serif" font-size="14" font-weight="bold" lengthAdjust="spacing" textLength="30" x="92" y="265.5352">asdi</text><!--MD5=[bbfb16aff101aff206c25fb1af5c6b4b]
cluster asdi::idb::eval--><polygon fill="#FFFFFF" filter="url(#fv27dl8jirr5y)" points="16,6,116,6,123,28.4883,417,28.4883,417,226,16,226,16,6" style="stroke:#000000;stroke-width:1.5;"/><line style="stroke:#000000;stroke-width:1.5;" x1="16" x2="123" y1="28.4883" y2="28.4883"/><text fill="#000000" font-family="sans-serif" font-size="14" font-weight="bold" lengthAdjust="spacing" textLength="94" x="20" y="21.5352">asdi::idb::eval</text><!--MD5=[e8289714b7028f41fbfaeffd8c17c76d]
class asdi::Collection--><rect codeLine="4" fill="#FFFFFF" filter="url(#fv27dl8jirr5y)" height="32" id="asdi::Collection" style="stroke:#A80036;stroke-width:1.5;" width="87" x="104.5" y="285"/><ellipse cx="119.5" cy="301" fill="#B4A7E5" rx="11" ry="11" style="stroke:#A80036;stroke-width:1.0;"/><path d="M115.9277,297.2651 L115.9277,295.1069 L123.3071,295.1069 L123.3071,297.2651 L120.8418,297.2651 L120.8418,305.3418 L123.3071,305.3418 L123.3071,307.5 L115.9277,307.5 L115.9277,305.3418 L118.3931,305.3418 L118.3931,297.2651 Z " fill="#000000"/><text fill="#000000" font-family="sans-serif" font-size="12" font-style="italic" lengthAdjust="spacing" textLength="55" x="133.5" y="305.5352">Collection</text><!--MD5=[619a18f3975bec44ed0f3b908af212c9]
class asdi::Program--><rect codeLine="7" fill="#FFFFFF" filter="url(#fv27dl8jirr5y)" height="32" id="asdi::Program" style="stroke:#A80036;stroke-width:1.5;" width="81" x="226.5" y="285"/><ellipse cx="241.5" cy="301" fill="#ADD1B2" rx="11" ry="11" style="stroke:#A80036;stroke-width:1.0;"/><path d="M243.9731,307.1431 Q243.3921,307.4419 242.7529,307.5913 Q242.1138,307.7407 241.4082,307.7407 Q238.9014,307.7407 237.5815,306.0889 Q236.2617,304.437 236.2617,301.3159 Q236.2617,298.1865 237.5815,296.5347 Q238.9014,294.8828 241.4082,294.8828 Q242.1138,294.8828 242.7612,295.0322 Q243.4087,295.1816 243.9731,295.4805 L243.9731,298.2031 Q243.3423,297.6221 242.7488,297.3523 Q242.1553,297.0825 241.5244,297.0825 Q240.1797,297.0825 239.4949,298.1492 Q238.8101,299.2158 238.8101,301.3159 Q238.8101,303.4077 239.4949,304.4744 Q240.1797,305.541 241.5244,305.541 Q242.1553,305.541 242.7488,305.2712 Q243.3423,305.0015 243.9731,304.4204 Z " fill="#000000"/><text fill="#000000" font-family="sans-serif" font-size="12" lengthAdjust="spacing" textLength="49" x="255.5" y="305.5352">Program</text><!--MD5=[91cc3482fb0350396608f11633162af9]
class asdi::ProgramCore--><rect codeLine="10" fill="#FFFFFF" filter="url(#fv27dl8jirr5y)" height="32" id="asdi::ProgramCore" style="stroke:#A80036;stroke-width:1.5;" width="108" x="343" y="285"/><ellipse cx="358" cy="301" fill="#B4A7E5" rx="11" ry="11" style="stroke:#A80036;stroke-width:1.0;"/><path d="M354.4277,297.2651 L354.4277,295.1069 L361.8071,295.1069 L361.8071,297.2651 L359.3418,297.2651 L359.3418,305.3418 L361.8071,305.3418 L361.8071,307.5 L354.4277,307.5 L354.4277,305.3418 L356.8931,305.3418 L356.8931,297.2651 Z " fill="#000000"/><text fill="#000000" font-family="sans-serif" font-size="12" font-style="italic" lengthAdjust="spacing" textLength="76" x="372" y="305.5352">ProgramCore</text><!--MD5=[9a662da35d9021e4f98a277b74a14cb8]
class asdi::idb::eval::PrecedenceGraph--><rect codeLine="14" fill="#FFFFFF" filter="url(#fv27dl8jirr5y)" height="48" id="asdi::idb::eval::PrecedenceGraph" style="stroke:#A80036;stroke-width:1.5;" width="135" x="80.5" y="41"/><ellipse cx="95.5" cy="57" fill="#ADD1B2" rx="11" ry="11" style="stroke:#A80036;stroke-width:1.0;"/><path d="M97.9731,63.1431 Q97.3921,63.4419 96.7529,63.5913 Q96.1138,63.7407 95.4082,63.7407 Q92.9014,63.7407 91.5815,62.0889 Q90.2617,60.437 90.2617,57.3159 Q90.2617,54.1865 91.5815,52.5347 Q92.9014,50.8828 95.4082,50.8828 Q96.1138,50.8828 96.7612,51.0322 Q97.4087,51.1816 97.9731,51.4805 L97.9731,54.2031 Q97.3423,53.6221 96.7488,53.3523 Q96.1553,53.0825 95.5244,53.0825 Q94.1797,53.0825 93.4949,54.1492 Q92.8101,55.2158 92.8101,57.3159 Q92.8101,59.4077 93.4949,60.4744 Q94.1797,61.541 95.5244,61.541 Q96.1553,61.541 96.7488,61.2712 Q97.3423,61.0015 97.9731,60.4204 Z " fill="#000000"/><text fill="#000000" font-family="sans-serif" font-size="12" lengthAdjust="spacing" textLength="103" x="109.5" y="61.5352">PrecedenceGraph</text><line style="stroke:#A80036;stroke-width:1.5;" x1="81.5" x2="214.5" y1="73" y2="73"/><line style="stroke:#A80036;stroke-width:1.5;" x1="81.5" x2="214.5" y1="81" y2="81"/><!--MD5=[a766060a0480f42b956634d927e1d478]
class asdi::idb::eval::SubProgram--><rect codeLine="15" fill="#FEFECE" filter="url(#fv27dl8jirr5y)" height="48" id="asdi::idb::eval::SubProgram" style="stroke:#A80036;stroke-width:1.5;" width="102" x="299" y="155.5"/><ellipse cx="314" cy="171.5" fill="#ADD1B2" rx="11" ry="11" style="stroke:#A80036;stroke-width:1.0;"/><path d="M316.4731,177.6431 Q315.8921,177.9419 315.2529,178.0913 Q314.6138,178.2407 313.9082,178.2407 Q311.4014,178.2407 310.0815,176.5889 Q308.7617,174.937 308.7617,171.8159 Q308.7617,168.6865 310.0815,167.0347 Q311.4014,165.3828 313.9082,165.3828 Q314.6138,165.3828 315.2612,165.5322 Q315.9087,165.6816 316.4731,165.9805 L316.4731,168.7031 Q315.8423,168.1221 315.2488,167.8523 Q314.6553,167.5825 314.0244,167.5825 Q312.6797,167.5825 311.9949,168.6492 Q311.3101,169.7158 311.3101,171.8159 Q311.3101,173.9077 311.9949,174.9744 Q312.6797,176.041 314.0244,176.041 Q314.6553,176.041 315.2488,175.7712 Q315.8423,175.5015 316.4731,174.9204 Z " fill="#000000"/><text fill="#000000" font-family="sans-serif" font-size="12" lengthAdjust="spacing" textLength="70" x="328" y="176.0352">SubProgram</text><line style="stroke:#A80036;stroke-width:1.5;" x1="300" x2="400" y1="187.5" y2="187.5"/><line style="stroke:#A80036;stroke-width:1.5;" x1="300" x2="400" y1="195.5" y2="195.5"/><!--MD5=[ef0f5253ff8ffa8a74eb1f95e63d5a99]
class asdi::idb::eval::StratifiedProgram--><rect codeLine="17" fill="#FEFECE" filter="url(#fv27dl8jirr5y)" height="60.9551" id="asdi::idb::eval::StratifiedProgram" style="stroke:#A80036;stroke-width:1.5;" width="232" x="32" y="149"/><ellipse cx="93.75" cy="165" fill="#ADD1B2" rx="11" ry="11" style="stroke:#A80036;stroke-width:1.0;"/><path d="M96.2231,171.1431 Q95.6421,171.4419 95.0029,171.5913 Q94.3638,171.7407 93.6582,171.7407 Q91.1514,171.7407 89.8315,170.0889 Q88.5117,168.437 88.5117,165.3159 Q88.5117,162.1865 89.8315,160.5347 Q91.1514,158.8828 93.6582,158.8828 Q94.3638,158.8828 95.0112,159.0322 Q95.6587,159.1816 96.2231,159.4805 L96.2231,162.2031 Q95.5923,161.6221 94.9988,161.3523 Q94.4053,161.0825 93.7744,161.0825 Q92.4297,161.0825 91.7449,162.1492 Q91.0601,163.2158 91.0601,165.3159 Q91.0601,167.4077 91.7449,168.4744 Q92.4297,169.541 93.7744,169.541 Q94.4053,169.541 94.9988,169.2712 Q95.5923,169.0015 96.2231,168.4204 Z " fill="#000000"/><text fill="#000000" font-family="sans-serif" font-size="12" lengthAdjust="spacing" textLength="100" x="114.25" y="169.5352">StratifiedProgram</text><line style="stroke:#A80036;stroke-width:1.5;" x1="33" x2="263" y1="181" y2="181"/><line style="stroke:#A80036;stroke-width:1.5;" x1="33" x2="263" y1="189" y2="189"/><text fill="#000000" font-family="sans-serif" font-size="11" lengthAdjust="spacing" textLength="220" x="38" y="203.6348">from(program: &amp;Program) : Result&lt;Self&gt;</text><!--MD5=[b19c0375ff4d94fabc0e3b4632332d8a]
link asdi::idb::eval::SubProgram to asdi::Program--><path codeLine="21" d="M327.1592,213.3992 C327.1592,213.3992 297.26,256.43 285.12,273.9 " fill="none" id="asdi::idb::eval::SubProgram-asdi::Program" style="stroke:#A80036;stroke-width:1.0;"/><polygon fill="#A80036" points="277.44,284.97,285.8602,279.8612,280.2929,280.8638,279.2903,275.2965,277.44,284.97" style="stroke:#A80036;stroke-width:1.0;"/><line style="stroke:#A80036;stroke-width:1.0;" x1="280.2929" x2="284.855" y1="280.8638" y2="274.295"/><polygon fill="none" points="334,203.54,327.2932,206.1893,327.1592,213.3992,333.866,210.7499,334,203.54" style="stroke:#A80036;stroke-width:1.0;"/><!--MD5=[2d2bda5a78ae8067f5a87aaef8517275]
link asdi::idb::eval::SubProgram to asdi::ProgramCore--><path codeLine="22" d="M359.06,203.54 C366.07,221.36 375.88,246.29 383.76,266.34 " fill="none" id="asdi::idb::eval::SubProgram-to-asdi::ProgramCore" style="stroke:#A80036;stroke-width:1.0;stroke-dasharray:7.0,7.0;"/><polygon fill="none" points="390.28,263.8,391.09,284.97,377.25,268.92,390.28,263.8" style="stroke:#A80036;stroke-width:1.0;"/><!--MD5=[47566a142dd1ddbc56bfdb01098dc2d2]
link asdi::idb::eval::StratifiedProgram to asdi::idb::eval::SubProgram--><path codeLine="24" d="M276.39,179.5 C276.39,179.5 282.89,179.5 285.55,179.5 " fill="none" id="asdi::idb::eval::StratifiedProgram-asdi::idb::eval::SubProgram" style="stroke:#A80036;stroke-width:1.0;"/><polygon fill="#A80036" points="298.83,179.5,289.83,175.5,293.83,179.5,289.83,183.5,298.83,179.5" style="stroke:#A80036;stroke-width:1.0;"/><line style="stroke:#A80036;stroke-width:1.0;" x1="293.83" x2="285.83" y1="179.5" y2="179.5"/><polygon fill="#A80036" points="264.39,179.5,270.39,183.5,276.39,179.5,270.39,175.5,264.39,179.5" style="stroke:#A80036;stroke-width:1.0;"/><text fill="#000000" font-family="sans-serif" font-size="13" lengthAdjust="spacing" textLength="6" x="284.8738" y="175.9896">*</text><!--MD5=[eca31efc3545cc09b229f0e9f874ab62]
link asdi::idb::eval::StratifiedProgram to asdi::Collection--><path codeLine="25" d="M148,210.04 C148,226.66 148,247.52 148,264.97 " fill="none" id="asdi::idb::eval::StratifiedProgram-to-asdi::Collection" style="stroke:#A80036;stroke-width:1.0;stroke-dasharray:7.0,7.0;"/><polygon fill="none" points="155,264.98,148,284.98,141,264.98,155,264.98" style="stroke:#A80036;stroke-width:1.0;"/><text fill="#000000" font-family="sans-serif" font-size="13" lengthAdjust="spacing" textLength="95" x="36.0781" y="274.2247">&lt;SubProgram&gt;</text><!--MD5=[83ef3d1afa5bbbb2076b52bb03510b22]
reverse link asdi::idb::eval::PrecedenceGraph to asdi::idb::eval::StratifiedProgram--><path codeLine="26" d="M148,94.04 C148,110.67 148,131.72 148,148.65 " fill="none" id="asdi::idb::eval::PrecedenceGraph-backto-asdi::idb::eval::StratifiedProgram" style="stroke:#A80036;stroke-width:1.0;stroke-dasharray:7.0,7.0;"/><polygon fill="#A80036" points="148,89.04,144,98.04,148,94.04,152,98.04,148,89.04" style="stroke:#A80036;stroke-width:1.0;"/><!--MD5=[c9c4788d7e1eef93e2b26907e6d146d4]
@startuml

!include ../model/options.plantuml

interface asdi::Collection #white
hide "asdi::Collection" members

class asdi::Program #white
hide "asdi::Program" members

interface asdi::ProgramCore #white
hide "asdi::ProgramCore" members

namespace asdi::idb::eval {
    class PrecedenceGraph #white
    class SubProgram {
    }
    class StratifiedProgram {
        from(program: &Program) : Result<Self>
    }

    SubProgram o-> asdi::Program
    SubProgram ..|> asdi::ProgramCore

    StratifiedProgram *-> "*" SubProgram
    StratifiedProgram ..|> "<SubProgram>" asdi::Collection
    StratifiedProgram .up.> PrecedenceGraph
}

@enduml

@startuml

set namespaceSeparator ::
hide enum methods
hide interface fields
hide << const >> members
hide << type >> members
hide << type >> stereotype
hide << module >> fields
hide << module >> circle

interface asdi::Collection #white
hide "asdi::Collection" members

class asdi::Program #white
hide "asdi::Program" members

interface asdi::ProgramCore #white
hide "asdi::ProgramCore" members

namespace asdi::idb::eval {
    class PrecedenceGraph #white
    class SubProgram {
    }
    class StratifiedProgram {
        from(program: &Program) : Result<Self>
    }

    SubProgram o-> asdi::Program
    SubProgram ..|> asdi::ProgramCore

    StratifiedProgram *-> "*" SubProgram
    StratifiedProgram ..|> "<SubProgram>" asdi::Collection
    StratifiedProgram .up.> PrecedenceGraph
}

@enduml

PlantUML version 1.2022.1(Tue Feb 01 10:19:58 PST 2022)
(GPL source distribution)
Java Runtime: OpenJDK Runtime Environment
JVM: OpenJDK 64-Bit Server VM
Default Encoding: UTF-8
Language: en
Country: US
--></g></svg>