<?xml version="1.0" encoding="UTF-8" standalone="no"?><svg xmlns="http://www.w3.org/2000/svg" xmlns:xlink="http://www.w3.org/1999/xlink" contentScriptType="application/ecmascript" contentStyleType="text/css" height="430px" preserveAspectRatio="none" style="width:1413px;height:430px;background:#FFFFFF;" version="1.1" viewBox="0 0 1413 430" width="1413px" zoomAndPan="magnify"><defs><filter height="300%" id="f1lbxhtvjqlhuu" width="300%" x="-1" y="-1"><feGaussianBlur result="blurOut" stdDeviation="2.0"/><feColorMatrix in="blurOut" result="blurOut2" type="matrix" values="0 0 0 0 0 0 0 0 0 0 0 0 0 0 0 0 0 0 .4 0"/><feOffset dx="4.0" dy="4.0" in="blurOut2" result="blurOut3"/><feBlend in="SourceGraphic" in2="blurOut3" mode="normal"/></filter></defs><g><!--MD5=[e274c4916ac42ef1c11391a83d303c10]
cluster asdi--><polygon fill="#FFFFFF" filter="url(#f1lbxhtvjqlhuu)" points="16,6,52,6,59,28.4883,1096,28.4883,1096,423,16,423,16,6" style="stroke:#000000;stroke-width:1.5;"/><line style="stroke:#000000;stroke-width:1.5;" x1="16" x2="59" y1="28.4883" y2="28.4883"/><text fill="#000000" font-family="sans-serif" font-size="14" font-weight="bold" lengthAdjust="spacing" textLength="30" x="20" y="21.5352">asdi</text><!--MD5=[6bc3af5db4038e5494ba0622f07de59b]
cluster asdi::edb--><polygon fill="#FFFFFF" filter="url(#f1lbxhtvjqlhuu)" points="40,49,72,49,79,71.4883,1072,71.4883,1072,331,40,331,40,49" style="stroke:#000000;stroke-width:1.5;"/><line style="stroke:#000000;stroke-width:1.5;" x1="40" x2="79" y1="71.4883" y2="71.4883"/><text fill="#000000" font-family="sans-serif" font-size="14" font-weight="bold" lengthAdjust="spacing" textLength="26" x="44" y="64.5352">edb</text><!--MD5=[331bdf5c2291f41e90a08533bcc43e12]
cluster asdi::idb::query--><polygon fill="#FFFFFF" filter="url(#f1lbxhtvjqlhuu)" points="1120,79,1231,79,1238,101.4883,1244,101.4883,1244,162,1120,162,1120,79" style="stroke:#000000;stroke-width:1.5;"/><line style="stroke:#000000;stroke-width:1.5;" x1="1120" x2="1238" y1="101.4883" y2="101.4883"/><text fill="#000000" font-family="sans-serif" font-size="14" font-weight="bold" lengthAdjust="spacing" textLength="105" x="1124" y="94.5352">asdi::idb::query</text><!--MD5=[b33f2e4372094b15554e3bf4225fc453]
cluster asdi::edb::io--><polygon fill="#FFFFFF" filter="url(#f1lbxhtvjqlhuu)" points="1268,79,1356,79,1363,101.4883,1396,101.4883,1396,162,1268,162,1268,79" style="stroke:#000000;stroke-width:1.5;"/><line style="stroke:#000000;stroke-width:1.5;" x1="1268" x2="1363" y1="101.4883" y2="101.4883"/><text fill="#000000" font-family="sans-serif" font-size="14" font-weight="bold" lengthAdjust="spacing" textLength="82" x="1272" y="94.5352">asdi::edb::io</text><!--MD5=[2110a1d684b71e50a272297f2c09c595]
class asdi::AttributeName--><rect codeLine="4" fill="#FEFECE" filter="url(#f1lbxhtvjqlhuu)" height="32" id="asdi::AttributeName" style="stroke:#A80036;stroke-width:1.5;" width="116" x="534" y="375"/><ellipse cx="549" cy="391" fill="#B4A7E5" rx="11" ry="11" style="stroke:#A80036;stroke-width:1.0;"/><path d="M545.4277,387.2651 L545.4277,385.1069 L552.8071,385.1069 L552.8071,387.2651 L550.3418,387.2651 L550.3418,395.3418 L552.8071,395.3418 L552.8071,397.5 L545.4277,397.5 L545.4277,395.3418 L547.8931,395.3418 L547.8931,387.2651 Z " fill="#000000"/><text fill="#000000" font-family="sans-serif" font-size="12" font-style="italic" lengthAdjust="spacing" textLength="84" x="563" y="395.5352">AttributeName</text><!--MD5=[e8289714b7028f41fbfaeffd8c17c76d]
class asdi::Collection--><rect codeLine="7" fill="#FEFECE" filter="url(#f1lbxhtvjqlhuu)" height="32" id="asdi::Collection" style="stroke:#A80036;stroke-width:1.5;" width="99" x="93.5" y="375"/><ellipse cx="108.5" cy="391" fill="#B4A7E5" rx="11" ry="11" style="stroke:#A80036;stroke-width:1.0;"/><path d="M104.9277,387.2651 L104.9277,385.1069 L112.3071,385.1069 L112.3071,387.2651 L109.8418,387.2651 L109.8418,395.3418 L112.3071,395.3418 L112.3071,397.5 L104.9277,397.5 L104.9277,395.3418 L107.3931,395.3418 L107.3931,387.2651 Z " fill="#000000"/><text fill="#000000" font-family="sans-serif" font-size="12" font-style="italic" lengthAdjust="spacing" textLength="55" x="122.5" y="395.5352">Collection</text><rect fill="#FFFFFF" height="16.1328" style="stroke:#000000;stroke-width:1.0;stroke-dasharray:2.0,2.0;" width="10" x="185.5" y="372"/><text fill="#000000" font-family="sans-serif" font-size="12" font-style="italic" lengthAdjust="spacing" textLength="8" x="186.5" y="384.6016">T</text><!--MD5=[ee47b5577acc389a92c0b1543b9a2c9a]
class asdi::IndexedCollection--><rect codeLine="10" fill="#FEFECE" filter="url(#f1lbxhtvjqlhuu)" height="32" id="asdi::IndexedCollection" style="stroke:#A80036;stroke-width:1.5;" width="158" x="228" y="375"/><ellipse cx="243" cy="391" fill="#B4A7E5" rx="11" ry="11" style="stroke:#A80036;stroke-width:1.0;"/><path d="M239.4277,387.2651 L239.4277,385.1069 L246.8071,385.1069 L246.8071,387.2651 L244.3418,387.2651 L244.3418,395.3418 L246.8071,395.3418 L246.8071,397.5 L239.4277,397.5 L239.4277,395.3418 L241.8931,395.3418 L241.8931,387.2651 Z " fill="#000000"/><text fill="#000000" font-family="sans-serif" font-size="12" font-style="italic" lengthAdjust="spacing" textLength="102" x="257" y="395.5352">IndexedCollection</text><rect fill="#FFFFFF" height="16.1328" style="stroke:#000000;stroke-width:1.0;stroke-dasharray:2.0,2.0;" width="22" x="367" y="372"/><text fill="#000000" font-family="sans-serif" font-size="12" font-style="italic" lengthAdjust="spacing" textLength="20" x="368" y="384.6016">K,V</text><!--MD5=[a769fd774dc4e74f949d393dd195b319]
class asdi::Labeled--><rect codeLine="13" fill="#FEFECE" filter="url(#f1lbxhtvjqlhuu)" height="32" id="asdi::Labeled" style="stroke:#A80036;stroke-width:1.5;" width="78" x="421" y="375"/><ellipse cx="436" cy="391" fill="#B4A7E5" rx="11" ry="11" style="stroke:#A80036;stroke-width:1.0;"/><path d="M432.4277,387.2651 L432.4277,385.1069 L439.8071,385.1069 L439.8071,387.2651 L437.3418,387.2651 L437.3418,395.3418 L439.8071,395.3418 L439.8071,397.5 L432.4277,397.5 L432.4277,395.3418 L434.8931,395.3418 L434.8931,387.2651 Z " fill="#000000"/><text fill="#000000" font-family="sans-serif" font-size="12" font-style="italic" lengthAdjust="spacing" textLength="46" x="450" y="395.5352">Labeled</text><!--MD5=[a36ef1bdba718ac7a4b8a2af506f0d6e]
class asdi::MaybeAnonymous--><rect codeLine="16" fill="#FEFECE" filter="url(#f1lbxhtvjqlhuu)" height="32" id="asdi::MaybeAnonymous" style="stroke:#A80036;stroke-width:1.5;" width="136" x="685" y="375"/><ellipse cx="700" cy="391" fill="#B4A7E5" rx="11" ry="11" style="stroke:#A80036;stroke-width:1.0;"/><path d="M696.4277,387.2651 L696.4277,385.1069 L703.8071,385.1069 L703.8071,387.2651 L701.3418,387.2651 L701.3418,395.3418 L703.8071,395.3418 L703.8071,397.5 L696.4277,397.5 L696.4277,395.3418 L698.8931,395.3418 L698.8931,387.2651 Z " fill="#000000"/><text fill="#000000" font-family="sans-serif" font-size="12" font-style="italic" lengthAdjust="spacing" textLength="104" x="714" y="395.5352">MaybeAnonymous</text><!--MD5=[ade47718bf2e66647b1d7563de4d2432]
class asdi::MaybeLabeled--><rect codeLine="19" fill="#FEFECE" filter="url(#f1lbxhtvjqlhuu)" height="32" id="asdi::MaybeLabeled" style="stroke:#A80036;stroke-width:1.5;" width="224" x="856" y="375"/><ellipse cx="871" cy="391" fill="#B4A7E5" rx="11" ry="11" style="stroke:#A80036;stroke-width:1.0;"/><path d="M867.4277,387.2651 L867.4277,385.1069 L874.8071,385.1069 L874.8071,387.2651 L872.3418,387.2651 L872.3418,395.3418 L874.8071,395.3418 L874.8071,397.5 L867.4277,397.5 L867.4277,395.3418 L869.8931,395.3418 L869.8931,387.2651 Z " fill="#000000"/><text fill="#000000" font-family="sans-serif" font-size="12" font-style="italic" lengthAdjust="spacing" textLength="84" x="885" y="395.5352">MaybeLabeled</text><rect fill="#FFFFFF" height="16.1328" style="stroke:#000000;stroke-width:1.0;stroke-dasharray:2.0,2.0;" width="106" x="977" y="372"/><text fill="#000000" font-family="sans-serif" font-size="12" font-style="italic" lengthAdjust="spacing" textLength="104" x="978" y="384.6016">T : AttributeName</text><!--MD5=[20c980c506d94534efc3bc917ca7a115]
class asdi::edb::Attribute--><rect codeLine="29" fill="#FEFECE" filter="url(#f1lbxhtvjqlhuu)" height="48" id="asdi::edb::Attribute" style="stroke:#A80036;stroke-width:1.5;" width="186" x="727" y="251.5"/><ellipse cx="742" cy="267.5" fill="#ADD1B2" rx="11" ry="11" style="stroke:#A80036;stroke-width:1.0;"/><path d="M744.4731,273.6431 Q743.8921,273.9419 743.2529,274.0913 Q742.6138,274.2407 741.9082,274.2407 Q739.4014,274.2407 738.0815,272.5889 Q736.7617,270.937 736.7617,267.8159 Q736.7617,264.6865 738.0815,263.0347 Q739.4014,261.3828 741.9082,261.3828 Q742.6138,261.3828 743.2612,261.5322 Q743.9087,261.6816 744.4731,261.9805 L744.4731,264.7031 Q743.8423,264.1221 743.2488,263.8523 Q742.6553,263.5825 742.0244,263.5825 Q740.6797,263.5825 739.9949,264.6492 Q739.3101,265.7158 739.3101,267.8159 Q739.3101,269.9077 739.9949,270.9744 Q740.6797,272.041 742.0244,272.041 Q742.6553,272.041 743.2488,271.7712 Q743.8423,271.5015 744.4731,270.9204 Z " fill="#000000"/><text fill="#000000" font-family="sans-serif" font-size="12" lengthAdjust="spacing" textLength="50" x="756" y="272.0352">Attribute</text><rect fill="#FFFFFF" height="16.1328" style="stroke:#000000;stroke-width:1.0;stroke-dasharray:2.0,2.0;" width="102" x="814" y="248.5"/><text fill="#000000" font-family="sans-serif" font-size="12" font-style="italic" lengthAdjust="spacing" textLength="100" x="815" y="261.1016">T: AttributeName</text><line style="stroke:#A80036;stroke-width:1.5;" x1="728" x2="912" y1="283.5" y2="283.5"/><line style="stroke:#A80036;stroke-width:1.5;" x1="728" x2="912" y1="291.5" y2="291.5"/><!--MD5=[b01c1280d4e10e5850c2de04b0afedc0]
class asdi::edb::Fact--><rect codeLine="30" fill="#FEFECE" filter="url(#f1lbxhtvjqlhuu)" height="48" id="asdi::edb::Fact" style="stroke:#A80036;stroke-width:1.5;" width="55" x="515.5" y="251.5"/><ellipse cx="530.5" cy="267.5" fill="#ADD1B2" rx="11" ry="11" style="stroke:#A80036;stroke-width:1.0;"/><path d="M532.9731,273.6431 Q532.3921,273.9419 531.7529,274.0913 Q531.1138,274.2407 530.4082,274.2407 Q527.9014,274.2407 526.5815,272.5889 Q525.2617,270.937 525.2617,267.8159 Q525.2617,264.6865 526.5815,263.0347 Q527.9014,261.3828 530.4082,261.3828 Q531.1138,261.3828 531.7612,261.5322 Q532.4087,261.6816 532.9731,261.9805 L532.9731,264.7031 Q532.3423,264.1221 531.7488,263.8523 Q531.1553,263.5825 530.5244,263.5825 Q529.1797,263.5825 528.4949,264.6492 Q527.8101,265.7158 527.8101,267.8159 Q527.8101,269.9077 528.4949,270.9744 Q529.1797,272.041 530.5244,272.041 Q531.1553,272.041 531.7488,271.7712 Q532.3423,271.5015 532.9731,270.9204 Z " fill="#000000"/><text fill="#000000" font-family="sans-serif" font-size="12" lengthAdjust="spacing" textLength="23" x="544.5" y="272.0352">Fact</text><line style="stroke:#A80036;stroke-width:1.5;" x1="516.5" x2="569.5" y1="283.5" y2="283.5"/><line style="stroke:#A80036;stroke-width:1.5;" x1="516.5" x2="569.5" y1="291.5" y2="291.5"/><!--MD5=[a5d376e5744e5d84d0764534baa4474d]
class asdi::edb::Predicate--><rect codeLine="31" fill="#FEFECE" filter="url(#f1lbxhtvjqlhuu)" height="48" id="asdi::edb::Predicate" style="stroke:#A80036;stroke-width:1.5;" width="86" x="606" y="251.5"/><ellipse cx="621" cy="267.5" fill="#ADD1B2" rx="11" ry="11" style="stroke:#A80036;stroke-width:1.0;"/><path d="M623.4731,273.6431 Q622.8921,273.9419 622.2529,274.0913 Q621.6138,274.2407 620.9082,274.2407 Q618.4014,274.2407 617.0815,272.5889 Q615.7617,270.937 615.7617,267.8159 Q615.7617,264.6865 617.0815,263.0347 Q618.4014,261.3828 620.9082,261.3828 Q621.6138,261.3828 622.2612,261.5322 Q622.9087,261.6816 623.4731,261.9805 L623.4731,264.7031 Q622.8423,264.1221 622.2488,263.8523 Q621.6553,263.5825 621.0244,263.5825 Q619.6797,263.5825 618.9949,264.6492 Q618.3101,265.7158 618.3101,267.8159 Q618.3101,269.9077 618.9949,270.9744 Q619.6797,272.041 621.0244,272.041 Q621.6553,272.041 622.2488,271.7712 Q622.8423,271.5015 623.4731,270.9204 Z " fill="#000000"/><text fill="#000000" font-family="sans-serif" font-size="12" lengthAdjust="spacing" textLength="54" x="635" y="272.0352">Predicate</text><line style="stroke:#A80036;stroke-width:1.5;" x1="607" x2="691" y1="283.5" y2="283.5"/><line style="stroke:#A80036;stroke-width:1.5;" x1="607" x2="691" y1="291.5" y2="291.5"/><!--MD5=[63be3a1481beaba15f9dd2bbcd4a53e1]
class asdi::edb::Relation--><rect codeLine="32" fill="#FEFECE" filter="url(#f1lbxhtvjqlhuu)" height="48" id="asdi::edb::Relation" style="stroke:#A80036;stroke-width:1.5;" width="78" x="402" y="251.5"/><ellipse cx="417" cy="267.5" fill="#ADD1B2" rx="11" ry="11" style="stroke:#A80036;stroke-width:1.0;"/><path d="M419.4731,273.6431 Q418.8921,273.9419 418.2529,274.0913 Q417.6138,274.2407 416.9082,274.2407 Q414.4014,274.2407 413.0815,272.5889 Q411.7617,270.937 411.7617,267.8159 Q411.7617,264.6865 413.0815,263.0347 Q414.4014,261.3828 416.9082,261.3828 Q417.6138,261.3828 418.2612,261.5322 Q418.9087,261.6816 419.4731,261.9805 L419.4731,264.7031 Q418.8423,264.1221 418.2488,263.8523 Q417.6553,263.5825 417.0244,263.5825 Q415.6797,263.5825 414.9949,264.6492 Q414.3101,265.7158 414.3101,267.8159 Q414.3101,269.9077 414.9949,270.9744 Q415.6797,272.041 417.0244,272.041 Q417.6553,272.041 418.2488,271.7712 Q418.8423,271.5015 419.4731,270.9204 Z " fill="#000000"/><text fill="#000000" font-family="sans-serif" font-size="12" lengthAdjust="spacing" textLength="46" x="431" y="272.0352">Relation</text><line style="stroke:#A80036;stroke-width:1.5;" x1="403" x2="479" y1="283.5" y2="283.5"/><line style="stroke:#A80036;stroke-width:1.5;" x1="403" x2="479" y1="291.5" y2="291.5"/><!--MD5=[6137f69857c1321f4d06c717c9c09db2]
class asdi::edb::RelationSet--><rect codeLine="33" fill="#FEFECE" filter="url(#f1lbxhtvjqlhuu)" height="48" id="asdi::edb::RelationSet" style="stroke:#A80036;stroke-width:1.5;" width="95" x="271.5" y="251.5"/><ellipse cx="286.5" cy="267.5" fill="#ADD1B2" rx="11" ry="11" style="stroke:#A80036;stroke-width:1.0;"/><path d="M288.9731,273.6431 Q288.3921,273.9419 287.7529,274.0913 Q287.1138,274.2407 286.4082,274.2407 Q283.9014,274.2407 282.5815,272.5889 Q281.2617,270.937 281.2617,267.8159 Q281.2617,264.6865 282.5815,263.0347 Q283.9014,261.3828 286.4082,261.3828 Q287.1138,261.3828 287.7612,261.5322 Q288.4087,261.6816 288.9731,261.9805 L288.9731,264.7031 Q288.3423,264.1221 287.7488,263.8523 Q287.1553,263.5825 286.5244,263.5825 Q285.1797,263.5825 284.4949,264.6492 Q283.8101,265.7158 283.8101,267.8159 Q283.8101,269.9077 284.4949,270.9744 Q285.1797,272.041 286.5244,272.041 Q287.1553,272.041 287.7488,271.7712 Q288.3423,271.5015 288.9731,270.9204 Z " fill="#000000"/><text fill="#000000" font-family="sans-serif" font-size="12" lengthAdjust="spacing" textLength="63" x="300.5" y="272.0352">RelationSet</text><line style="stroke:#A80036;stroke-width:1.5;" x1="272.5" x2="365.5" y1="283.5" y2="283.5"/><line style="stroke:#A80036;stroke-width:1.5;" x1="272.5" x2="365.5" y1="291.5" y2="291.5"/><!--MD5=[8ef57b1f3eaf719c194464ff4bed18b5]
class asdi::edb::Schema--><rect codeLine="34" fill="#FEFECE" filter="url(#f1lbxhtvjqlhuu)" height="48" id="asdi::edb::Schema" style="stroke:#A80036;stroke-width:1.5;" width="180" x="56" y="251.5"/><ellipse cx="71" cy="267.5" fill="#ADD1B2" rx="11" ry="11" style="stroke:#A80036;stroke-width:1.0;"/><path d="M73.4731,273.6431 Q72.8921,273.9419 72.2529,274.0913 Q71.6138,274.2407 70.9082,274.2407 Q68.4014,274.2407 67.0815,272.5889 Q65.7617,270.937 65.7617,267.8159 Q65.7617,264.6865 67.0815,263.0347 Q68.4014,261.3828 70.9082,261.3828 Q71.6138,261.3828 72.2612,261.5322 Q72.9087,261.6816 73.4731,261.9805 L73.4731,264.7031 Q72.8423,264.1221 72.2488,263.8523 Q71.6553,263.5825 71.0244,263.5825 Q69.6797,263.5825 68.9949,264.6492 Q68.3101,265.7158 68.3101,267.8159 Q68.3101,269.9077 68.9949,270.9744 Q69.6797,272.041 71.0244,272.041 Q71.6553,272.041 72.2488,271.7712 Q72.8423,271.5015 73.4731,270.9204 Z " fill="#000000"/><text fill="#000000" font-family="sans-serif" font-size="12" lengthAdjust="spacing" textLength="44" x="85" y="272.0352">Schema</text><rect fill="#FFFFFF" height="16.1328" style="stroke:#000000;stroke-width:1.0;stroke-dasharray:2.0,2.0;" width="102" x="137" y="248.5"/><text fill="#000000" font-family="sans-serif" font-size="12" font-style="italic" lengthAdjust="spacing" textLength="100" x="138" y="261.1016">T: AttributeName</text><line style="stroke:#A80036;stroke-width:1.5;" x1="57" x2="235" y1="283.5" y2="283.5"/><line style="stroke:#A80036;stroke-width:1.5;" x1="57" x2="235" y1="291.5" y2="291.5"/><!--MD5=[e47197a6f8839cb1272049bde0c10ea9]
class asdi::edb::Number--><rect codeLine="35" fill="#FEFECE" filter="url(#f1lbxhtvjqlhuu)" height="54.2656" id="asdi::edb::Number" style="stroke:#A80036;stroke-width:1.5;" width="84" x="960" y="103"/><ellipse cx="975" cy="122.1328" fill="#ADD1B2" rx="11" ry="11" style="stroke:#A80036;stroke-width:1.0;"/><path d="M977.4731,128.2759 Q976.8921,128.5747 976.2529,128.7241 Q975.6138,128.8735 974.9082,128.8735 Q972.4014,128.8735 971.0815,127.2217 Q969.7617,125.5698 969.7617,122.4487 Q969.7617,119.3193 971.0815,117.6675 Q972.4014,116.0156 974.9082,116.0156 Q975.6138,116.0156 976.2612,116.165 Q976.9087,116.3145 977.4731,116.6133 L977.4731,119.3359 Q976.8423,118.7549 976.2488,118.4851 Q975.6553,118.2153 975.0244,118.2153 Q973.6797,118.2153 972.9949,119.282 Q972.3101,120.3486 972.3101,122.4487 Q972.3101,124.5405 972.9949,125.6072 Q973.6797,126.6738 975.0244,126.6738 Q975.6553,126.6738 976.2488,126.4041 Q976.8423,126.1343 977.4731,125.5532 Z " fill="#000000"/><text fill="#000000" font-family="sans-serif" font-size="12" font-style="italic" lengthAdjust="spacing" textLength="56" x="987" y="119.6016">«opaque»</text><text fill="#000000" font-family="sans-serif" font-size="12" lengthAdjust="spacing" textLength="47" x="991.5" y="133.7344">Number</text><line style="stroke:#A80036;stroke-width:1.5;" x1="961" x2="1043" y1="141.2656" y2="141.2656"/><line style="stroke:#A80036;stroke-width:1.5;" x1="961" x2="1043" y1="149.2656" y2="149.2656"/><!--MD5=[6c69314ffc108da06d6415e98492b7c9]
class asdi::edb::FunctionalDependency--><rect codeLine="36" fill="#FEFECE" filter="url(#f1lbxhtvjqlhuu)" height="48" id="asdi::edb::FunctionalDependency" style="stroke:#A80036;stroke-width:1.5;" width="161" x="360.5" y="106"/><ellipse cx="375.5" cy="122" fill="#ADD1B2" rx="11" ry="11" style="stroke:#A80036;stroke-width:1.0;"/><path d="M377.9731,128.1431 Q377.3921,128.4419 376.7529,128.5913 Q376.1138,128.7407 375.4082,128.7407 Q372.9014,128.7407 371.5815,127.0889 Q370.2617,125.437 370.2617,122.3159 Q370.2617,119.1865 371.5815,117.5347 Q372.9014,115.8828 375.4082,115.8828 Q376.1138,115.8828 376.7612,116.0322 Q377.4087,116.1816 377.9731,116.4805 L377.9731,119.2031 Q377.3423,118.6221 376.7488,118.3523 Q376.1553,118.0825 375.5244,118.0825 Q374.1797,118.0825 373.4949,119.1492 Q372.8101,120.2158 372.8101,122.3159 Q372.8101,124.4077 373.4949,125.4744 Q374.1797,126.541 375.5244,126.541 Q376.1553,126.541 376.7488,126.2712 Q377.3423,126.0015 377.9731,125.4204 Z " fill="#000000"/><text fill="#000000" font-family="sans-serif" font-size="12" lengthAdjust="spacing" textLength="129" x="389.5" y="126.5352">FunctionalDependency</text><line style="stroke:#A80036;stroke-width:1.5;" x1="361.5" x2="520.5" y1="138" y2="138"/><line style="stroke:#A80036;stroke-width:1.5;" x1="361.5" x2="520.5" y1="146" y2="146"/><!--MD5=[63d735a6e8116701ee198db5f4862bbe]
class asdi::edb::PredicateRef--><rect codeLine="37" fill="#FEFECE" filter="url(#f1lbxhtvjqlhuu)" height="32" id="asdi::edb::PredicateRef" style="stroke:#A80036;stroke-width:1.5;" width="105" x="596.5" y="114"/><ellipse cx="611.5" cy="130" fill="#ADD1B2" rx="11" ry="11" style="stroke:#A80036;stroke-width:1.0;"/><path d="M612.8418,137.25 L610.3931,137.25 L610.3931,126.9985 L607.2471,126.9985 L607.2471,124.8569 L615.9878,124.8569 L615.9878,126.9985 L612.8418,126.9985 Z " fill="#000000"/><text fill="#000000" font-family="sans-serif" font-size="12" lengthAdjust="spacing" textLength="73" x="625.5" y="134.5352">PredicateRef</text><!--MD5=[1704a664f01d3b4ca77b91d1ac9e7038]
class asdi::edb::AttributeIndex--><rect codeLine="41" fill="#FEFECE" filter="url(#f1lbxhtvjqlhuu)" height="65.9102" id="asdi::edb::AttributeIndex" style="stroke:#A80036;stroke-width:1.5;" width="218" x="56" y="97"/><ellipse cx="71" cy="113" fill="#EB937F" rx="11" ry="11" style="stroke:#A80036;stroke-width:1.0;"/><path d="M74.6143,119.5 L66.8945,119.5 L66.8945,107.1069 L74.6143,107.1069 L74.6143,109.2651 L69.3433,109.2651 L69.3433,111.938 L74.1162,111.938 L74.1162,114.0962 L69.3433,114.0962 L69.3433,117.3418 L74.6143,117.3418 Z " fill="#000000"/><text fill="#000000" font-family="sans-serif" font-size="12" lengthAdjust="spacing" textLength="82" x="85" y="117.5352">AttributeIndex</text><rect fill="#FFFFFF" height="16.1328" style="stroke:#000000;stroke-width:1.0;stroke-dasharray:2.0,2.0;" width="102" x="175" y="94"/><text fill="#000000" font-family="sans-serif" font-size="12" font-style="italic" lengthAdjust="spacing" textLength="100" x="176" y="106.6016">T: AttributeName</text><line style="stroke:#A80036;stroke-width:1.5;" x1="57" x2="273" y1="129" y2="129"/><text fill="#000000" font-family="sans-serif" font-size="11" lengthAdjust="spacing" textLength="44" x="62" y="143.6348">Label : T</text><text fill="#000000" font-family="sans-serif" font-size="11" lengthAdjust="spacing" textLength="67" x="62" y="156.5898">Index : usize</text><!--MD5=[0ac83a4d57200892bb6a6362faf8e364]
class asdi::edb::AttributeKind--><rect codeLine="45" fill="#FEFECE" filter="url(#f1lbxhtvjqlhuu)" height="91.8203" id="asdi::edb::AttributeKind" style="stroke:#A80036;stroke-width:1.5;" width="108" x="791" y="84"/><ellipse cx="806" cy="100" fill="#EB937F" rx="11" ry="11" style="stroke:#A80036;stroke-width:1.0;"/><path d="M809.6143,106.5 L801.8945,106.5 L801.8945,94.1069 L809.6143,94.1069 L809.6143,96.2651 L804.3433,96.2651 L804.3433,98.938 L809.1162,98.938 L809.1162,101.0962 L804.3433,101.0962 L804.3433,104.3418 L809.6143,104.3418 Z " fill="#000000"/><text fill="#000000" font-family="sans-serif" font-size="12" lengthAdjust="spacing" textLength="76" x="820" y="104.5352">AttributeKind</text><line style="stroke:#A80036;stroke-width:1.5;" x1="792" x2="898" y1="116" y2="116"/><text fill="#000000" font-family="sans-serif" font-size="11" lengthAdjust="spacing" textLength="42" x="797" y="130.6348">Boolean</text><text fill="#000000" font-family="sans-serif" font-size="11" lengthAdjust="spacing" textLength="38" x="797" y="143.5898">Integer</text><text fill="#000000" font-family="sans-serif" font-size="11" lengthAdjust="spacing" textLength="26" x="797" y="156.5449">Float</text><text fill="#000000" font-family="sans-serif" font-size="11" lengthAdjust="spacing" textLength="32" x="797" y="169.5">String</text><!--MD5=[58db58f43e0c0eeeb327af7bc687dbb7]
class asdi::edb::Constant--><rect codeLine="51" fill="#FEFECE" filter="url(#f1lbxhtvjqlhuu)" height="78.8652" id="asdi::edb::Constant" style="stroke:#A80036;stroke-width:1.5;" width="107" x="948.5" y="236"/><ellipse cx="974.75" cy="252" fill="#EB937F" rx="11" ry="11" style="stroke:#A80036;stroke-width:1.0;"/><path d="M978.3643,258.5 L970.6445,258.5 L970.6445,246.1069 L978.3643,246.1069 L978.3643,248.2651 L973.0933,248.2651 L973.0933,250.938 L977.8662,250.938 L977.8662,253.0962 L973.0933,253.0962 L973.0933,256.3418 L978.3643,256.3418 Z " fill="#000000"/><text fill="#000000" font-family="sans-serif" font-size="12" lengthAdjust="spacing" textLength="50" x="991.25" y="256.5352">Constant</text><line style="stroke:#A80036;stroke-width:1.5;" x1="949.5" x2="1054.5" y1="268" y2="268"/><text fill="#000000" font-family="sans-serif" font-size="11" lengthAdjust="spacing" textLength="75" x="954.5" y="282.6348">Boolean : bool</text><text fill="#000000" font-family="sans-serif" font-size="11" lengthAdjust="spacing" textLength="95" x="954.5" y="295.5898">Number : Number</text><text fill="#000000" font-family="sans-serif" font-size="11" lengthAdjust="spacing" textLength="73" x="954.5" y="308.5449">String : String</text><!--MD5=[ce86c1ef97f092853a1a6c77d28b6c27]
class asdi::idb::query::Queryable--><rect codeLine="22" fill="#FEFECE" filter="url(#f1lbxhtvjqlhuu)" height="32" id="asdi::idb::query::Queryable" style="stroke:#A80036;stroke-width:1.5;" width="91" x="1136.5" y="114"/><ellipse cx="1151.5" cy="130" fill="#B4A7E5" rx="11" ry="11" style="stroke:#A80036;stroke-width:1.0;"/><path d="M1147.9277,126.2651 L1147.9277,124.1069 L1155.3071,124.1069 L1155.3071,126.2651 L1152.8418,126.2651 L1152.8418,134.3418 L1155.3071,134.3418 L1155.3071,136.5 L1147.9277,136.5 L1147.9277,134.3418 L1150.3931,134.3418 L1150.3931,126.2651 Z " fill="#000000"/><text fill="#000000" font-family="sans-serif" font-size="12" font-style="italic" lengthAdjust="spacing" textLength="59" x="1165.5" y="134.5352">Queryable</text><!--MD5=[5662166f89f46ad2c4c4921bb72d18ee]
class asdi::edb::io::FilePragma--><rect codeLine="25" fill="#FEFECE" filter="url(#f1lbxhtvjqlhuu)" height="32" id="asdi::edb::io::FilePragma" style="stroke:#A80036;stroke-width:1.5;" width="95" x="1284.5" y="114"/><ellipse cx="1299.5" cy="130" fill="#ADD1B2" rx="11" ry="11" style="stroke:#A80036;stroke-width:1.0;"/><path d="M1301.9731,136.1431 Q1301.3921,136.4419 1300.7529,136.5913 Q1300.1138,136.7407 1299.4082,136.7407 Q1296.9014,136.7407 1295.5815,135.0889 Q1294.2617,133.437 1294.2617,130.3159 Q1294.2617,127.1865 1295.5815,125.5347 Q1296.9014,123.8828 1299.4082,123.8828 Q1300.1138,123.8828 1300.7612,124.0322 Q1301.4087,124.1816 1301.9731,124.4805 L1301.9731,127.2031 Q1301.3423,126.6221 1300.7488,126.3523 Q1300.1553,126.0825 1299.5244,126.0825 Q1298.1797,126.0825 1297.4949,127.1492 Q1296.8101,128.2158 1296.8101,130.3159 Q1296.8101,132.4077 1297.4949,133.4744 Q1298.1797,134.541 1299.5244,134.541 Q1300.1553,134.541 1300.7488,134.2712 Q1301.3423,134.0015 1301.9731,133.4204 Z " fill="#000000"/><text fill="#000000" font-family="sans-serif" font-size="12" lengthAdjust="spacing" textLength="63" x="1313.5" y="134.5352">FilePragma</text><!--MD5=[3d62af4edeead7415e603c238c318912]
link asdi::edb::PredicateRef to asdi::edb::Predicate--><path codeLine="39" d="M649,146.09 C649,169.83 649,216.29 649,246.34 " fill="none" id="asdi::edb::PredicateRef-to-asdi::edb::Predicate" style="stroke:#A80036;stroke-width:1.0;stroke-dasharray:7.0,7.0;"/><polygon fill="#A80036" points="649,251.38,653,242.38,649,246.38,645,242.38,649,251.38" style="stroke:#A80036;stroke-width:1.0;"/><!--MD5=[2b92991d20bd0c0791539a355bbe0e03]
link asdi::edb::Attribute to asdi::MaybeAnonymous--><path codeLine="57" d="M806.28,299.74 C796.45,316.4 783.08,339.05 772.19,357.5 " fill="none" id="asdi::edb::Attribute-to-asdi::MaybeAnonymous" style="stroke:#A80036;stroke-width:1.0;stroke-dasharray:7.0,7.0;"/><polygon fill="none" points="778.19,361.1,761.99,374.77,766.13,353.98,778.19,361.1" style="stroke:#A80036;stroke-width:1.0;"/><!--MD5=[3a896590467e4d3894f9614672b35dbb]
link asdi::edb::Attribute to asdi::MaybeLabeled--><path codeLine="58" d="M850.31,299.74 C873.97,317.89 906.91,343.15 931.93,362.34 " fill="none" id="asdi::edb::Attribute-to-asdi::MaybeLabeled" style="stroke:#A80036;stroke-width:1.0;stroke-dasharray:7.0,7.0;"/><polygon fill="none" points="936.52,357.04,948.13,374.77,928,368.15,936.52,357.04" style="stroke:#A80036;stroke-width:1.0;"/><!--MD5=[4b43da4d2c011b054994eb139a8c8ff0]
reverse link asdi::edb::AttributeKind to asdi::edb::Attribute--><path codeLine="59" d="M836.28,181.05 C832.12,204.94 827.34,232.38 824.04,251.31 " fill="none" id="asdi::edb::AttributeKind-backto-asdi::edb::Attribute" style="stroke:#A80036;stroke-width:1.0;stroke-dasharray:7.0,7.0;"/><polygon fill="#A80036" points="837.16,176.01,831.6731,184.1888,836.3009,180.9356,839.5541,185.5634,837.16,176.01" style="stroke:#A80036;stroke-width:1.0;"/><!--MD5=[53e83c4fbbda47579a2437efc4626f26]
reverse link asdi::edb::AttributeKind to asdi::edb::Constant--><path codeLine="61" d="M897.98,179.42 C918.12,197.84 940.79,218.55 959.81,235.93 " fill="none" id="asdi::edb::AttributeKind-backto-asdi::edb::Constant" style="stroke:#A80036;stroke-width:1.0;stroke-dasharray:7.0,7.0;"/><polygon fill="#A80036" points="894.25,176.01,898.2084,185.0284,897.9458,179.3776,903.5966,179.1151,894.25,176.01" style="stroke:#A80036;stroke-width:1.0;"/><!--MD5=[386d6880235d85faf903a45c8f2f7a0d]
reverse link asdi::edb::Number to asdi::edb::Constant--><path codeLine="62" d="M1002,162.37 C1002,184 1002,212.87 1002,235.9 " fill="none" id="asdi::edb::Number-backto-asdi::edb::Constant" style="stroke:#A80036;stroke-width:1.0;stroke-dasharray:7.0,7.0;"/><polygon fill="#A80036" points="1002,157.32,998,166.32,1002,162.32,1006,166.32,1002,157.32" style="stroke:#A80036;stroke-width:1.0;"/><!--MD5=[f428e3b9a8cddd2800f42749a5d32dad]
link asdi::edb::Fact to asdi::Collection--><path codeLine="64" d="M532.05,299.64 C524.27,313.42 512.46,329.93 497,339 C391.42,400.94 341.52,357.56 212.69,375.19 " fill="none" id="asdi::edb::Fact-to-asdi::Collection" style="stroke:#A80036;stroke-width:1.0;stroke-dasharray:7.0,7.0;"/><polygon fill="none" points="213.5,382.15,192.65,378.33,211.33,368.32,213.5,382.15" style="stroke:#A80036;stroke-width:1.0;"/><!--MD5=[df4a1784e2e108c5c36efdc7e0ca9674]
link asdi::edb::Fact to asdi::IndexedCollection--><path codeLine="65" d="M531.23,299.53 C523.28,312.91 511.57,329.04 497,339 C480.9,350 441.35,361.34 402.48,370.52 " fill="none" id="asdi::edb::Fact-to-asdi::IndexedCollection" style="stroke:#A80036;stroke-width:1.0;stroke-dasharray:7.0,7.0;"/><polygon fill="none" points="404.01,377.35,382.95,374.98,400.89,363.7,404.01,377.35" style="stroke:#A80036;stroke-width:1.0;"/><!--MD5=[9885bfd967d7f84646d8561db7083779]
link asdi::edb::Fact to asdi::Labeled--><path codeLine="66" d="M526,299.74 C513.63,316.66 496.73,339.77 483.13,358.37 " fill="none" id="asdi::edb::Fact-to-asdi::Labeled" style="stroke:#A80036;stroke-width:1.0;stroke-dasharray:7.0,7.0;"/><polygon fill="none" points="488.6,362.75,471.14,374.77,477.3,354.49,488.6,362.75" style="stroke:#A80036;stroke-width:1.0;"/><!--MD5=[8033dd11f21f1acfa4c07bfb4bf25ace]
link asdi::edb::Fact to asdi::edb::Predicate--><path codeLine="67" d="M582.74,275.5 C582.74,275.5 589.88,275.5 592.85,275.5 " fill="none" id="asdi::edb::Fact-asdi::edb::Predicate" style="stroke:#A80036;stroke-width:1.0;"/><polygon fill="#A80036" points="605.9,275.5,596.9,271.5,600.9,275.5,596.9,279.5,605.9,275.5" style="stroke:#A80036;stroke-width:1.0;"/><line style="stroke:#A80036;stroke-width:1.0;" x1="600.9" x2="592.9" y1="275.5" y2="275.5"/><polygon fill="none" points="570.74,275.5,576.74,279.5,582.74,275.5,576.74,271.5,570.74,275.5" style="stroke:#A80036;stroke-width:1.0;"/><!--MD5=[5445f3a5153230dbd5b3c5cd98da15bb]
link asdi::edb::Fact to asdi::edb::Constant--><path codeLine="68" d="M564.5238,241.6533 C564.5238,241.6533 589.98,213.28 606.5,206 C668.92,178.48 849.02,183.71 913.5,206 C927.35,210.79 940.69,218.74 952.62,227.59 " fill="none" id="asdi::edb::Fact-asdi::edb::Constant" style="stroke:#A80036;stroke-width:1.0;"/><polygon fill="#A80036" points="963.16,235.91,958.577,227.1924,959.2364,232.8107,953.6181,233.4701,963.16,235.91" style="stroke:#A80036;stroke-width:1.0;"/><line style="stroke:#A80036;stroke-width:1.0;" x1="959.2364" x2="952.95" y1="232.8107" y2="227.85"/><polygon fill="#A80036" points="557.4,251.31,564.1808,248.8563,564.5238,241.6533,557.743,244.1071,557.4,251.31" style="stroke:#A80036;stroke-width:1.0;"/><text fill="#000000" font-family="sans-serif" font-size="13" lengthAdjust="spacing" textLength="6" x="949.7072" y="225.1301">*</text><!--MD5=[b77f4b207454b30e7787f9262ea05605]
link asdi::edb::Predicate to asdi::AttributeName--><path codeLine="71" d="M637.33,299.74 C629.1,316.13 617.95,338.34 608.76,356.62 " fill="none" id="asdi::edb::Predicate-to-asdi::AttributeName" style="stroke:#A80036;stroke-width:1.0;stroke-dasharray:7.0,7.0;"/><polygon fill="none" points="614.88,360.03,599.65,374.77,602.37,353.75,614.88,360.03" style="stroke:#A80036;stroke-width:1.0;"/><!--MD5=[af45055b7cf5fcd105785369d7567e3f]
link asdi::edb::Relation to asdi::Collection--><path codeLine="73" d="M425.69,299.53 C415.47,313.09 400.84,329.41 384,339 C320.47,375.18 291.61,360.97 212.72,374.85 " fill="none" id="asdi::edb::Relation-to-asdi::Collection" style="stroke:#A80036;stroke-width:1.0;stroke-dasharray:7.0,7.0;"/><polygon fill="none" points="213.71,381.79,192.74,378.77,211.02,368.05,213.71,381.79" style="stroke:#A80036;stroke-width:1.0;"/><!--MD5=[07db4872f9eb6c599be73b88446de41b]
link asdi::edb::Relation to asdi::IndexedCollection--><path codeLine="74" d="M422.2,299.77 C411.64,312.12 397.83,327.16 384,339 C373.61,347.9 361.59,356.53 350.19,364.08 " fill="none" id="asdi::edb::Relation-to-asdi::IndexedCollection" style="stroke:#A80036;stroke-width:1.0;stroke-dasharray:7.0,7.0;"/><polygon fill="none" points="353.73,370.13,333.09,374.95,346.22,358.31,353.73,370.13" style="stroke:#A80036;stroke-width:1.0;"/><!--MD5=[1dfd53c334081892e3313d151b22cebe]
link asdi::edb::Relation to asdi::Labeled--><path codeLine="75" d="M444.89,299.74 C447.55,315.61 451.11,336.92 454.12,354.85 " fill="none" id="asdi::edb::Relation-to-asdi::Labeled" style="stroke:#A80036;stroke-width:1.0;stroke-dasharray:7.0,7.0;"/><polygon fill="none" points="461.05,353.88,457.45,374.77,447.24,356.2,461.05,353.88" style="stroke:#A80036;stroke-width:1.0;"/><!--MD5=[5a6b33b46504b8c37cce216e20126966]
reverse link asdi::idb::query::Queryable to asdi::edb::Relation--><path codeLine="76" d="M1133.67,154.24 C1114.83,162.38 1092.79,170.77 1072,176 C823.24,238.52 739.03,148.26 498,236 C488.01,239.64 478.08,245.4 469.37,251.37 " fill="none" id="asdi::idb::query::Queryable-backto-asdi::edb::Relation" style="stroke:#A80036;stroke-width:1.0;stroke-dasharray:7.0,7.0;"/><polygon fill="none" points="1130.86,147.83,1151.97,146.01,1136.6,160.6,1130.86,147.83" style="stroke:#A80036;stroke-width:1.0;"/><!--MD5=[0300a9fd71cd7eb950f7911258df6d6c]
link asdi::edb::Relation to asdi::edb::Predicate--><path codeLine="77" d="M466.7747,242.2077 C466.7747,242.2077 496.96,213.31 515.5,206 C538.24,197.04 547.64,197.34 570.5,206 C589.67,213.27 607.18,227.6 620.76,241.37 " fill="none" id="asdi::edb::Relation-asdi::edb::Predicate" style="stroke:#A80036;stroke-width:1.0;"/><polygon fill="#A80036" points="629.93,251.19,626.7109,241.8821,626.5174,247.5356,620.8639,247.3422,629.93,251.19" style="stroke:#A80036;stroke-width:1.0;"/><line style="stroke:#A80036;stroke-width:1.0;" x1="626.5174" x2="621.055" y1="247.5356" y2="241.685"/><polygon fill="none" points="458.84,251.21,465.8081,249.3537,466.7747,242.2077,459.8066,244.064,458.84,251.21" style="stroke:#A80036;stroke-width:1.0;"/><!--MD5=[19b32b4944f82b9d211ce097a387b36e]
link asdi::edb::Relation to asdi::edb::Schema--><path codeLine="78" d="M415.2253,242.2077 C415.2253,242.2077 385.04,213.31 366.5,206 C327.22,190.52 312.38,195.44 271.5,206 C242.41,213.52 212.87,229.38 189.77,244.05 " fill="none" id="asdi::edb::Relation-asdi::edb::Schema" style="stroke:#A80036;stroke-width:1.0;"/><polygon fill="#A80036" points="178.64,251.34,188.3606,249.7558,182.8229,248.6008,183.9779,243.0631,178.64,251.34" style="stroke:#A80036;stroke-width:1.0;"/><line style="stroke:#A80036;stroke-width:1.0;" x1="182.8229" x2="189.515" y1="248.6008" y2="244.22"/><polygon fill="#A80036" points="423.16,251.21,422.1934,244.064,415.2253,242.2077,416.1919,249.3537,423.16,251.21" style="stroke:#A80036;stroke-width:1.0;"/><!--MD5=[cbc89493d8f1dfeeebb31cdcc955f708]
link asdi::edb::Relation to asdi::edb::Fact--><path codeLine="79" d="M492.05,275.5 C492.05,275.5 499.12,275.5 502.15,275.5 " fill="none" id="asdi::edb::Relation-asdi::edb::Fact" style="stroke:#A80036;stroke-width:1.0;"/><polygon fill="#A80036" points="515.46,275.5,506.46,271.5,510.46,275.5,506.46,279.5,515.46,275.5" style="stroke:#A80036;stroke-width:1.0;"/><line style="stroke:#A80036;stroke-width:1.0;" x1="510.46" x2="502.46" y1="275.5" y2="275.5"/><polygon fill="#A80036" points="480.05,275.5,486.05,279.5,492.05,275.5,486.05,271.5,480.05,275.5" style="stroke:#A80036;stroke-width:1.0;"/><text fill="#000000" font-family="sans-serif" font-size="13" lengthAdjust="spacing" textLength="6" x="501.6341" y="271.1863">*</text><!--MD5=[f9a1ff5135e484ee4f7678461d409bd1]
link asdi::edb::io::FilePragma to asdi::edb::Relation--><path codeLine="80" d="M1297.49,152.63 C1281.77,161.43 1262.55,170.74 1244,176 C924.01,266.8 811.9,125.97 498,236 C491.98,238.11 479.164,244.9991 479.164,244.9991 " fill="none" id="asdi::edb::io::FilePragma-asdi::edb::Relation" style="stroke:#A80036;stroke-width:1.0;"/><polygon fill="#A80036" points="469.02,251.41,476.229,251.5859,479.164,244.9991,471.955,244.8232,469.02,251.41" style="stroke:#A80036;stroke-width:1.0;"/><polygon fill="#A80036" points="1308.77,146.09,1298.9784,147.1504,1304.4461,148.6008,1302.9957,154.0686,1308.77,146.09" style="stroke:#A80036;stroke-width:1.0;"/><line style="stroke:#A80036;stroke-width:1.0;" x1="1304.4461" x2="1297.525" y1="148.6008" y2="152.615"/><text fill="#000000" font-family="sans-serif" font-size="13" lengthAdjust="spacing" textLength="5" x="1295.2469" y="166.524">?</text><!--MD5=[e7416e6738acce8879e80b3212c7b966]
link asdi::edb::FunctionalDependency to asdi::edb::Relation--><path codeLine="81" d="M441,167.28 C441,188.84 441,239.02 441,239.02 " fill="none" id="asdi::edb::FunctionalDependency-asdi::edb::Relation" style="stroke:#A80036;stroke-width:1.0;"/><polygon fill="#A80036" points="441,251.02,445,245.02,441,239.02,437,245.02,441,251.02" style="stroke:#A80036;stroke-width:1.0;"/><polygon fill="#A80036" points="441,154.06,437,163.06,441,159.06,445,163.06,441,154.06" style="stroke:#A80036;stroke-width:1.0;"/><line style="stroke:#A80036;stroke-width:1.0;" x1="441" x2="441" y1="159.06" y2="167.06"/><text fill="#000000" font-family="sans-serif" font-size="13" lengthAdjust="spacing" textLength="6" x="434.2313" y="174.7554">*</text><!--MD5=[a0ed5618d7f9bad485d6f857e6d684a2]
link asdi::edb::RelationSet to asdi::Collection--><path codeLine="83" d="M298.25,299.54 C285.96,312.28 269.58,327.75 253,339 C237.31,349.65 219.04,359.12 201.94,366.92 " fill="none" id="asdi::edb::RelationSet-to-asdi::Collection" style="stroke:#A80036;stroke-width:1.0;stroke-dasharray:7.0,7.0;"/><polygon fill="none" points="204.48,373.45,183.35,374.99,198.91,360.61,204.48,373.45" style="stroke:#A80036;stroke-width:1.0;"/><!--MD5=[98d572135116238c027436314c89e86d]
link asdi::edb::RelationSet to asdi::IndexedCollection--><path codeLine="84" d="M316.54,299.74 C314.87,315.61 312.61,336.92 310.72,354.85 " fill="none" id="asdi::edb::RelationSet-to-asdi::IndexedCollection" style="stroke:#A80036;stroke-width:1.0;stroke-dasharray:7.0,7.0;"/><polygon fill="none" points="317.67,355.61,308.61,374.77,303.75,354.14,317.67,355.61" style="stroke:#A80036;stroke-width:1.0;"/><!--MD5=[81daf5e7aa2919f2b6c1e6bafcfa7e89]
reverse link asdi::idb::query::Queryable to asdi::edb::RelationSet--><path codeLine="85" d="M1133.72,154.43 C1114.88,162.59 1092.84,170.95 1072,176 C773.69,248.26 676.23,142.11 384,236 C372.76,239.61 361.39,245.44 351.37,251.48 " fill="none" id="asdi::idb::query::Queryable-backto-asdi::edb::RelationSet" style="stroke:#A80036;stroke-width:1.0;stroke-dasharray:7.0,7.0;"/><polygon fill="none" points="1130.9,148.03,1152,146.16,1136.67,160.78,1130.9,148.03" style="stroke:#A80036;stroke-width:1.0;"/><!--MD5=[065cf3b59e7d91321b368b54952646d1]
link asdi::edb::RelationSet to asdi::edb::Relation--><path codeLine="86" d="M378.66,275.5 C378.66,275.5 385.78,275.5 388.76,275.5 " fill="none" id="asdi::edb::RelationSet-asdi::edb::Relation" style="stroke:#A80036;stroke-width:1.0;"/><polygon fill="#A80036" points="401.8,275.5,392.8,271.5,396.8,275.5,392.8,279.5,401.8,275.5" style="stroke:#A80036;stroke-width:1.0;"/><line style="stroke:#A80036;stroke-width:1.0;" x1="396.8" x2="388.8" y1="275.5" y2="275.5"/><polygon fill="#A80036" points="366.66,275.5,372.66,279.5,378.66,275.5,372.66,271.5,366.66,275.5" style="stroke:#A80036;stroke-width:1.0;"/><text fill="#000000" font-family="sans-serif" font-size="13" lengthAdjust="spacing" textLength="6" x="388.0194" y="271.7142">*</text><!--MD5=[3f6bf05e9011bb20cd83b2fa8e0247c4]
link asdi::edb::Schema to asdi::Collection--><path codeLine="88" d="M145.39,299.74 C144.97,315.52 144.41,336.68 143.94,354.55 " fill="none" id="asdi::edb::Schema-to-asdi::Collection" style="stroke:#A80036;stroke-width:1.0;stroke-dasharray:7.0,7.0;"/><polygon fill="none" points="150.93,354.96,143.4,374.77,136.93,354.59,150.93,354.96" style="stroke:#A80036;stroke-width:1.0;"/><!--MD5=[ba100030276d35d8d14331b84c6c7602]
link asdi::edb::Schema to asdi::IndexedCollection--><path codeLine="89" d="M178.97,299.74 C205.08,318.15 241.59,343.89 268.94,363.17 " fill="none" id="asdi::edb::Schema-to-asdi::IndexedCollection" style="stroke:#A80036;stroke-width:1.0;stroke-dasharray:7.0,7.0;"/><polygon fill="none" points="273.08,357.52,285.39,374.77,265.01,368.96,273.08,357.52" style="stroke:#A80036;stroke-width:1.0;"/><!--MD5=[9c90a014583a41a51fa25249858dfc66]
link asdi::edb::Schema to asdi::edb::Attribute--><path codeLine="90" d="M188.679,244.7659 C188.679,244.7659 242.41,213.52 271.5,206 C362.08,182.59 601.84,182.9 692.5,206 C722.1,213.54 752.25,229.52 775.79,244.25 " fill="none" id="asdi::edb::Schema-asdi::edb::Attribute" style="stroke:#A80036;stroke-width:1.0;"/><polygon fill="#A80036" points="786.78,251.34,781.3817,243.1024,782.5771,248.6315,777.0481,249.827,786.78,251.34" style="stroke:#A80036;stroke-width:1.0;"/><line style="stroke:#A80036;stroke-width:1.0;" x1="782.5771" x2="775.855" y1="248.6315" y2="244.295"/><polygon fill="#A80036" points="178.64,251.34,185.8509,251.3993,188.679,244.7659,181.4681,244.7066,178.64,251.34" style="stroke:#A80036;stroke-width:1.0;"/><text fill="#000000" font-family="sans-serif" font-size="13" lengthAdjust="spacing" textLength="6" x="771.4986" y="240.8353">*</text><!--MD5=[26be1b9872456991b81d1f8d9c6c949b]
reverse link asdi::edb::AttributeIndex to asdi::edb::Schema--><path codeLine="91" d="M160.06,168.34 C156.58,194.61 152.03,228.93 149.07,251.33 " fill="none" id="asdi::edb::AttributeIndex-backto-asdi::edb::Schema" style="stroke:#A80036;stroke-width:1.0;stroke-dasharray:7.0,7.0;"/><polygon fill="#A80036" points="160.74,163.2,155.592,171.5963,160.0829,168.1566,163.5226,172.6476,160.74,163.2" style="stroke:#A80036;stroke-width:1.0;"/><!--MD5=[4df86d26f16d1152b0ff01e7cc85abfc]
@startuml

!include options.plantuml

interface asdi::AttributeName
hide "asdi::AttributeName" members

interface asdi::Collection<T>
hide "asdi::Collection" members

interface asdi::IndexedCollection<K,V>
hide "asdi::IndexedCollection" members

interface asdi::Labeled
hide "asdi::Labeled" members

interface asdi::MaybeAnonymous
hide "asdi::MaybeAnonymous" members

interface asdi::MaybeLabeled<T : AttributeName>
hide "asdi::MaybeLabeled" members

interface asdi::idb::query::Queryable
hide "asdi::idb::query::Queryable" members

class asdi::edb::io::FilePragma
hide "asdi::edb::io::FilePragma" members

namespace asdi::edb {
    class Attribute<T: AttributeName>
    class Fact
    class Predicate
    class Relation
    class RelationSet
    class Schema<T: AttributeName>
    class Number <<opaque>>
    class FunctionalDependency
    class PredicateRef << (T,#ADD1B2) type >>

    PredicateRef ..> Predicate

    enum AttributeIndex<T: AttributeName> {
        Label : T
        Index : usize
    }
    enum AttributeKind {
        Boolean
        Integer
        Float
        String
    }
    enum Constant {
        Boolean : bool
        Number : Number
        String : String
    }

    Attribute ..|> asdi::MaybeAnonymous
    Attribute ..|> asdi::MaybeLabeled
    Attribute .up.> AttributeKind

    Constant .up.> AttributeKind
    Constant .up.> Number

    Fact ..|> asdi::Collection
    Fact ..|> asdi::IndexedCollection
    Fact ..|> asdi::Labeled
    Fact o-> Predicate
    Fact *-> "*" Constant
  ' Fact ..|> asdi::idb::query::relational::FactOps

    Predicate ..|> asdi::AttributeName

    Relation ..|> asdi::Collection
    Relation ..|> asdi::IndexedCollection
    Relation ..|> asdi::Labeled
    Relation .up.|> asdi::idb::query::Queryable
    Relation o-> Predicate
    Relation *-> Schema
    Relation *-> "*" Fact
    Relation *-up-> "?" asdi::edb::io::FilePragma
    Relation *-up-> "*" FunctionalDependency

    RelationSet ..|> asdi::Collection
    RelationSet ..|> asdi::IndexedCollection
    RelationSet .up.|> asdi::idb::query::Queryable
    RelationSet *-> "*" Relation

    Schema ..|> asdi::Collection
    Schema ..|> asdi::IndexedCollection
    Schema *-> "*" Attribute
    Schema .up.> AttributeIndex
}


@enduml

@startuml

set namespaceSeparator ::
hide enum methods
hide interface fields
hide << const >> members
hide << type >> members
hide << type >> stereotype
hide << module >> fields
hide << module >> circle

interface asdi::AttributeName
hide "asdi::AttributeName" members

interface asdi::Collection<T>
hide "asdi::Collection" members

interface asdi::IndexedCollection<K,V>
hide "asdi::IndexedCollection" members

interface asdi::Labeled
hide "asdi::Labeled" members

interface asdi::MaybeAnonymous
hide "asdi::MaybeAnonymous" members

interface asdi::MaybeLabeled<T : AttributeName>
hide "asdi::MaybeLabeled" members

interface asdi::idb::query::Queryable
hide "asdi::idb::query::Queryable" members

class asdi::edb::io::FilePragma
hide "asdi::edb::io::FilePragma" members

namespace asdi::edb {
    class Attribute<T: AttributeName>
    class Fact
    class Predicate
    class Relation
    class RelationSet
    class Schema<T: AttributeName>
    class Number <<opaque>>
    class FunctionalDependency
    class PredicateRef << (T,#ADD1B2) type >>

    PredicateRef ..> Predicate

    enum AttributeIndex<T: AttributeName> {
        Label : T
        Index : usize
    }
    enum AttributeKind {
        Boolean
        Integer
        Float
        String
    }
    enum Constant {
        Boolean : bool
        Number : Number
        String : String
    }

    Attribute ..|> asdi::MaybeAnonymous
    Attribute ..|> asdi::MaybeLabeled
    Attribute .up.> AttributeKind

    Constant .up.> AttributeKind
    Constant .up.> Number

    Fact ..|> asdi::Collection
    Fact ..|> asdi::IndexedCollection
    Fact ..|> asdi::Labeled
    Fact o-> Predicate
    Fact *-> "*" Constant

    Predicate ..|> asdi::AttributeName

    Relation ..|> asdi::Collection
    Relation ..|> asdi::IndexedCollection
    Relation ..|> asdi::Labeled
    Relation .up.|> asdi::idb::query::Queryable
    Relation o-> Predicate
    Relation *-> Schema
    Relation *-> "*" Fact
    Relation *-up-> "?" asdi::edb::io::FilePragma
    Relation *-up-> "*" FunctionalDependency

    RelationSet ..|> asdi::Collection
    RelationSet ..|> asdi::IndexedCollection
    RelationSet .up.|> asdi::idb::query::Queryable
    RelationSet *-> "*" Relation

    Schema ..|> asdi::Collection
    Schema ..|> asdi::IndexedCollection
    Schema *-> "*" Attribute
    Schema .up.> AttributeIndex
}


@enduml

PlantUML version 1.2022.1(Tue Feb 01 10:19:58 PST 2022)
(GPL source distribution)
Java Runtime: OpenJDK Runtime Environment
JVM: OpenJDK 64-Bit Server VM
Default Encoding: UTF-8
Language: en
Country: US
--></g></svg>