<?xml version="1.0" encoding="UTF-8" standalone="no"?><svg xmlns="http://www.w3.org/2000/svg" xmlns:xlink="http://www.w3.org/1999/xlink" contentScriptType="application/ecmascript" contentStyleType="text/css" height="585px" preserveAspectRatio="none" style="width:813px;height:585px;background:#FFFFFF;" version="1.1" viewBox="0 0 813 585" width="813px" zoomAndPan="magnify"><defs><filter height="300%" id="fn5livgr3ngi9" width="300%" x="-1" y="-1"><feGaussianBlur result="blurOut" stdDeviation="2.0"/><feColorMatrix in="blurOut" result="blurOut2" type="matrix" values="0 0 0 0 0 0 0 0 0 0 0 0 0 0 0 0 0 0 .4 0"/><feOffset dx="4.0" dy="4.0" in="blurOut2" result="blurOut3"/><feBlend in="SourceGraphic" in2="blurOut3" mode="normal"/></filter></defs><g><!--MD5=[c2bf3ad893e82fc363acfc4f73cc10ed]
cluster std::error--><polygon fill="#FFFFFF" filter="url(#fn5livgr3ngi9)" points="377,495.66,447,495.66,454,518.1483,471,518.1483,471,578.66,377,578.66,377,495.66" style="stroke:#000000;stroke-width:1.5;"/><line style="stroke:#000000;stroke-width:1.5;" x1="377" x2="454" y1="518.1483" y2="518.1483"/><text fill="#000000" font-family="sans-serif" font-size="14" font-weight="bold" lengthAdjust="spacing" textLength="64" x="381" y="511.1952">std::error</text><!--MD5=[c5352f04a94962915933d4c4cc93c6e4]
cluster std::result--><polygon fill="#FFFFFF" filter="url(#fn5livgr3ngi9)" points="544,495.66,621,495.66,628,518.1483,644,518.1483,644,578.66,544,578.66,544,495.66" style="stroke:#000000;stroke-width:1.5;"/><line style="stroke:#000000;stroke-width:1.5;" x1="544" x2="628" y1="518.1483" y2="518.1483"/><text fill="#000000" font-family="sans-serif" font-size="14" font-weight="bold" lengthAdjust="spacing" textLength="71" x="548" y="511.1952">std::result</text><!--MD5=[d1d9d1eb84519a5fd9adc3dd01e30388]
cluster asdi::error--><polygon fill="#FFFFFF" filter="url(#fn5livgr3ngi9)" points="16,43.66,93,43.66,100,66.1483,796,66.1483,796,446.66,16,446.66,16,43.66" style="stroke:#000000;stroke-width:1.5;"/><line style="stroke:#000000;stroke-width:1.5;" x1="16" x2="100" y1="66.1483" y2="66.1483"/><text fill="#000000" font-family="sans-serif" font-size="14" font-weight="bold" lengthAdjust="spacing" textLength="71" x="20" y="59.1952">asdi::error</text><!--MD5=[5951de3fb9f82e1fd1927a1ac2c76796]
class std::error::Error--><rect codeLine="4" fill="#FEFECE" filter="url(#fn5livgr3ngi9)" height="32" id="std::error::Error" style="stroke:#A80036;stroke-width:1.5;" width="61" x="393.5" y="530.66"/><ellipse cx="408.5" cy="546.66" fill="#B4A7E5" rx="11" ry="11" style="stroke:#A80036;stroke-width:1.0;"/><path d="M404.9277,542.9251 L404.9277,540.7669 L412.3071,540.7669 L412.3071,542.9251 L409.8418,542.9251 L409.8418,551.0018 L412.3071,551.0018 L412.3071,553.16 L404.9277,553.16 L404.9277,551.0018 L407.3931,551.0018 L407.3931,542.9251 Z " fill="#000000"/><text fill="#000000" font-family="sans-serif" font-size="12" font-style="italic" lengthAdjust="spacing" textLength="29" x="422.5" y="551.1952">Error</text><!--MD5=[1c8625dc5d4bf9fbae425dee2960b1ab]
class std::result::Result--><rect codeLine="7" fill="#FEFECE" filter="url(#fn5livgr3ngi9)" height="32" id="std::result::Result" style="stroke:#A80036;stroke-width:1.5;" width="67" x="560.5" y="530.66"/><ellipse cx="575.5" cy="546.66" fill="#ADD1B2" rx="11" ry="11" style="stroke:#A80036;stroke-width:1.0;"/><path d="M577.9731,552.8031 Q577.3921,553.1019 576.7529,553.2513 Q576.1138,553.4007 575.4082,553.4007 Q572.9014,553.4007 571.5815,551.7489 Q570.2617,550.097 570.2617,546.9759 Q570.2617,543.8465 571.5815,542.1947 Q572.9014,540.5428 575.4082,540.5428 Q576.1138,540.5428 576.7612,540.6922 Q577.4087,540.8416 577.9731,541.1405 L577.9731,543.8631 Q577.3423,543.2821 576.7488,543.0123 Q576.1553,542.7425 575.5244,542.7425 Q574.1797,542.7425 573.4949,543.8092 Q572.8101,544.8758 572.8101,546.9759 Q572.8101,549.0677 573.4949,550.1344 Q574.1797,551.201 575.5244,551.201 Q576.1553,551.201 576.7488,550.9312 Q577.3423,550.6615 577.9731,550.0804 Z " fill="#000000"/><text fill="#000000" font-family="sans-serif" font-size="12" lengthAdjust="spacing" textLength="35" x="589.5" y="551.1952">Result</text><!--MD5=[0a0634c46e291815c40e0ff109ad2314]
class asdi::error::SourceLocation--><rect codeLine="11" fill="#FEFECE" filter="url(#fn5livgr3ngi9)" height="73.9102" id="asdi::error::SourceLocation" style="stroke:#A80036;stroke-width:1.5;" width="117" x="662.5" y="217.66"/><ellipse cx="677.5" cy="233.66" fill="#ADD1B2" rx="11" ry="11" style="stroke:#A80036;stroke-width:1.0;"/><path d="M679.9731,239.8031 Q679.3921,240.1019 678.7529,240.2513 Q678.1138,240.4007 677.4082,240.4007 Q674.9014,240.4007 673.5815,238.7489 Q672.2617,237.097 672.2617,233.9759 Q672.2617,230.8465 673.5815,229.1947 Q674.9014,227.5428 677.4082,227.5428 Q678.1138,227.5428 678.7612,227.6922 Q679.4087,227.8416 679.9731,228.1405 L679.9731,230.8631 Q679.3423,230.2821 678.7488,230.0123 Q678.1553,229.7425 677.5244,229.7425 Q676.1797,229.7425 675.4949,230.8092 Q674.8101,231.8758 674.8101,233.9759 Q674.8101,236.0677 675.4949,237.1344 Q676.1797,238.201 677.5244,238.201 Q678.1553,238.201 678.7488,237.9312 Q679.3423,237.6615 679.9731,237.0804 Z " fill="#000000"/><text fill="#000000" font-family="sans-serif" font-size="12" lengthAdjust="spacing" textLength="85" x="691.5" y="238.1952">SourceLocation</text><line style="stroke:#A80036;stroke-width:1.5;" x1="663.5" x2="778.5" y1="249.66" y2="249.66"/><text fill="#000000" font-family="sans-serif" font-size="11" lengthAdjust="spacing" textLength="53" x="668.5" y="264.2948">line: usize</text><text fill="#000000" font-family="sans-serif" font-size="11" lengthAdjust="spacing" textLength="74" x="668.5" y="277.2498">column: usize</text><line style="stroke:#A80036;stroke-width:1.5;" x1="663.5" x2="778.5" y1="283.5702" y2="283.5702"/><!--MD5=[1fc64c7cc8969cd2122e741499f19245]
class asdi::error::Error--><rect codeLine="16" fill="#FEFECE" filter="url(#fn5livgr3ngi9)" height="337.9668" id="asdi::error::Error" style="stroke:#A80036;stroke-width:1.5;" width="202" x="323" y="85.66"/><ellipse cx="405.25" cy="101.66" fill="#EB937F" rx="11" ry="11" style="stroke:#A80036;stroke-width:1.0;"/><path d="M408.8643,108.16 L401.1445,108.16 L401.1445,95.7669 L408.8643,95.7669 L408.8643,97.9251 L403.5933,97.9251 L403.5933,100.598 L408.3662,100.598 L408.3662,102.7562 L403.5933,102.7562 L403.5933,106.0018 L408.8643,106.0018 Z " fill="#000000"/><text fill="#000000" font-family="sans-serif" font-size="12" lengthAdjust="spacing" textLength="29" x="425.75" y="106.1952">Error</text><line style="stroke:#A80036;stroke-width:1.5;" x1="324" x2="524" y1="117.66" y2="117.66"/><text fill="#000000" font-family="sans-serif" font-size="11" lengthAdjust="spacing" textLength="169" x="329" y="132.2948">AnonymousVariableNotAllowed</text><text fill="#000000" font-family="sans-serif" font-size="11" lengthAdjust="spacing" textLength="120" x="329" y="145.2498">AttributeDoesNotExist</text><text fill="#000000" font-family="sans-serif" font-size="11" lengthAdjust="spacing" textLength="113" x="329" y="158.2049">AttributeIndexInvalid</text><text fill="#000000" font-family="sans-serif" font-size="11" lengthAdjust="spacing" textLength="139" x="329" y="171.16">ComparisonIsAlwaysFalse</text><text fill="#000000" font-family="sans-serif" font-size="11" lengthAdjust="spacing" textLength="137" x="329" y="184.1151">ComparisonIsAlwaysTrue</text><text fill="#000000" font-family="sans-serif" font-size="11" lengthAdjust="spacing" textLength="171" x="329" y="197.0702">ExtensionalPredicateInRuleHead</text><text fill="#000000" font-family="sans-serif" font-size="11" lengthAdjust="spacing" textLength="171" x="329" y="210.0252">FactDoesNotConformToSchema</text><text fill="#000000" font-family="sans-serif" font-size="11" lengthAdjust="spacing" textLength="66" x="329" y="222.9803">FormatError</text><text fill="#000000" font-family="sans-serif" font-size="11" lengthAdjust="spacing" textLength="153" x="329" y="235.9354">HeadVariablesMissingInBody</text><text fill="#000000" font-family="sans-serif" font-size="11" lengthAdjust="spacing" textLength="101" x="329" y="248.8905">IncompatibleTypes</text><text fill="#000000" font-family="sans-serif" font-size="11" lengthAdjust="spacing" textLength="124" x="329" y="261.8455">InvalidHeadAtomCount</text><text fill="#000000" font-family="sans-serif" font-size="11" lengthAdjust="spacing" textLength="64" x="329" y="274.8006">InvalidValue</text><text fill="#000000" font-family="sans-serif" font-size="11" lengthAdjust="spacing" textLength="138" x="329" y="287.7557">LanguageFeatureDisabled</text><text fill="#000000" font-family="sans-serif" font-size="11" lengthAdjust="spacing" textLength="163" x="329" y="300.7108">LanguageFeatureUnsupported</text><text fill="#000000" font-family="sans-serif" font-size="11" lengthAdjust="spacing" textLength="179" x="329" y="313.6659">NegativeVariablesNotAlsoPositive</text><text fill="#000000" font-family="sans-serif" font-size="11" lengthAdjust="spacing" textLength="76" x="329" y="326.6209">NotStratifiable</text><text fill="#000000" font-family="sans-serif" font-size="11" lengthAdjust="spacing" textLength="127" x="329" y="339.576">NullaryFactsNotAllowed</text><text fill="#000000" font-family="sans-serif" font-size="11" lengthAdjust="spacing" textLength="62" x="329" y="352.5311">ParserError</text><text fill="#000000" font-family="sans-serif" font-size="11" lengthAdjust="spacing" textLength="115" x="329" y="365.4862">RelationDoesNotExist</text><text fill="#000000" font-family="sans-serif" font-size="11" lengthAdjust="spacing" textLength="75" x="329" y="378.4412">RelationExists</text><text fill="#000000" font-family="sans-serif" font-size="11" lengthAdjust="spacing" textLength="65" x="329" y="391.3963">Serialization</text><text fill="#000000" font-family="sans-serif" font-size="11" lengthAdjust="spacing" textLength="153" x="329" y="404.3514">SerializationFormatUnknown</text><text fill="#000000" font-family="sans-serif" font-size="11" lengthAdjust="spacing" textLength="190" x="329" y="417.3065">SerializationOperationUnsupported</text><!--MD5=[577da05f276653cd9c20cda251720e3c]
class asdi::error::error--><rect codeLine="43" fill="#FEFECE" filter="url(#fn5livgr3ngi9)" height="352.2324" id="asdi::error::error" style="stroke:#A80036;stroke-width:1.5;" width="256" x="32" y="78.66"/><ellipse cx="130.25" cy="97.7928" fill="#ADD1B2" rx="11" ry="11" style="stroke:#A80036;stroke-width:1.0;"/><path d="M132.7231,103.9359 Q132.1421,104.2347 131.5029,104.3841 Q130.8638,104.5335 130.1582,104.5335 Q127.6514,104.5335 126.3315,102.8817 Q125.0117,101.2298 125.0117,98.1087 Q125.0117,94.9793 126.3315,93.3275 Q127.6514,91.6756 130.1582,91.6756 Q130.8638,91.6756 131.5112,91.825 Q132.1587,91.9745 132.7231,92.2733 L132.7231,94.9959 Q132.0923,94.4149 131.4988,94.1451 Q130.9053,93.8753 130.2744,93.8753 Q128.9297,93.8753 128.2449,94.942 Q127.5601,96.0086 127.5601,98.1087 Q127.5601,100.2005 128.2449,101.2672 Q128.9297,102.3338 130.2744,102.3338 Q130.9053,102.3338 131.4988,102.0641 Q132.0923,101.7943 132.7231,101.2132 Z " fill="#000000"/><text fill="#000000" font-family="sans-serif" font-size="12" font-style="italic" lengthAdjust="spacing" textLength="55" x="148.75" y="95.2616">«module»</text><text fill="#000000" font-family="sans-serif" font-size="12" lengthAdjust="spacing" textLength="29" x="161.75" y="109.3944">error</text><line style="stroke:#A80036;stroke-width:1.5;" x1="33" x2="287" y1="116.9256" y2="116.9256"/><line style="stroke:#A80036;stroke-width:1.5;" x1="33" x2="287" y1="124.9256" y2="124.9256"/><text fill="#000000" font-family="sans-serif" font-size="11" lengthAdjust="spacing" textLength="226" x="38" y="139.5604">anonymous_variable_not_allowed() : Error</text><text fill="#000000" font-family="sans-serif" font-size="11" lengthAdjust="spacing" textLength="179" x="38" y="152.5155">attribute_does_not_exist() : Error</text><text fill="#000000" font-family="sans-serif" font-size="11" lengthAdjust="spacing" textLength="168" x="38" y="165.4705">attribute_index_Invalid() : Error</text><text fill="#000000" font-family="sans-serif" font-size="11" lengthAdjust="spacing" textLength="196" x="38" y="178.4256">comparison_is_always_false() : Error</text><text fill="#000000" font-family="sans-serif" font-size="11" lengthAdjust="spacing" textLength="193" x="38" y="191.3807">comparison_is_always_true() : Error</text><text fill="#000000" font-family="sans-serif" font-size="11" lengthAdjust="spacing" textLength="238" x="38" y="204.3358">extensional_predicate_in_rule_head() : Error</text><text fill="#000000" font-family="sans-serif" font-size="11" lengthAdjust="spacing" textLength="237" x="38" y="217.2909">fact_does_not_conform_to_schema() : Error</text><text fill="#000000" font-family="sans-serif" font-size="11" lengthAdjust="spacing" textLength="115" x="38" y="230.2459">format_error() : Error</text><text fill="#000000" font-family="sans-serif" font-size="11" lengthAdjust="spacing" textLength="222" x="38" y="243.201">head_variables_missing_in_body() : Error</text><text fill="#000000" font-family="sans-serif" font-size="11" lengthAdjust="spacing" textLength="149" x="38" y="256.1561">incompatible_types() : Error</text><text fill="#000000" font-family="sans-serif" font-size="11" lengthAdjust="spacing" textLength="182" x="38" y="269.1112">invalid_head_atom_count() : Error</text><text fill="#000000" font-family="sans-serif" font-size="11" lengthAdjust="spacing" textLength="114" x="38" y="282.0662">invalid_value() : Error</text><text fill="#000000" font-family="sans-serif" font-size="11" lengthAdjust="spacing" textLength="189" x="38" y="295.0213">language_feature_disabled() : Error</text><text fill="#000000" font-family="sans-serif" font-size="11" lengthAdjust="spacing" textLength="214" x="38" y="307.9764">language_feature_unsupported() : Error</text><text fill="#000000" font-family="sans-serif" font-size="11" lengthAdjust="spacing" textLength="244" x="38" y="320.9315">negative_variables_not_also_positive() : Error</text><text fill="#000000" font-family="sans-serif" font-size="11" lengthAdjust="spacing" textLength="126" x="38" y="333.8866">not_stratifiable() : Error</text><text fill="#000000" font-family="sans-serif" font-size="11" lengthAdjust="spacing" textLength="184" x="38" y="346.8416">nullary_facts_not_allowed() : Error</text><text fill="#000000" font-family="sans-serif" font-size="11" lengthAdjust="spacing" textLength="114" x="38" y="359.7967">parser_error() : Error</text><text fill="#000000" font-family="sans-serif" font-size="11" lengthAdjust="spacing" textLength="174" x="38" y="372.7518">relation_does_not_exist() : Error</text><text fill="#000000" font-family="sans-serif" font-size="11" lengthAdjust="spacing" textLength="124" x="38" y="385.7069">relation_exists() : Error</text><text fill="#000000" font-family="sans-serif" font-size="11" lengthAdjust="spacing" textLength="110" x="38" y="398.662">serialization() : Error</text><text fill="#000000" font-family="sans-serif" font-size="11" lengthAdjust="spacing" textLength="207" x="38" y="411.617">serialization_format_unknown() : Error</text><text fill="#000000" font-family="sans-serif" font-size="11" lengthAdjust="spacing" textLength="244" x="38" y="424.5721">serialization_operation_unsupported() : Error</text><!--MD5=[4a6d351d6649321526701cf97419c0f7]
class asdi::error::Result--><rect codeLine="72" fill="#FEFECE" filter="url(#fn5livgr3ngi9)" height="32" id="asdi::error::Result" style="stroke:#A80036;stroke-width:1.5;" width="67" x="560.5" y="238.66"/><ellipse cx="575.5" cy="254.66" fill="#ADD1B2" rx="11" ry="11" style="stroke:#A80036;stroke-width:1.0;"/><path d="M576.8418,261.91 L574.3931,261.91 L574.3931,251.6585 L571.2471,251.6585 L571.2471,249.5169 L579.9878,249.5169 L579.9878,251.6585 L576.8418,251.6585 Z " fill="#000000"/><text fill="#000000" font-family="sans-serif" font-size="12" lengthAdjust="spacing" textLength="35" x="589.5" y="259.1952">Result</text><!--MD5=[8ee989aca9c0bef7e9f2139b317d4ff6]
link asdi::error::Error to std::error::Error--><path codeLine="69" d="M424,423.93 C424,456.57 424,487.6 424,510.15 " fill="none" id="asdi::error::Error-to-std::error::Error" style="stroke:#A80036;stroke-width:1.0;stroke-dasharray:7.0,7.0;"/><polygon fill="none" points="431,510.31,424,530.31,417,510.31,431,510.31" style="stroke:#A80036;stroke-width:1.0;"/><!--MD5=[3d1fbe71e1ab97708506b58761a9711d]
link asdi::error::Error to asdi::error::SourceLocation--><path codeLine="70" d="M507.59,85.58 C518.62,68.12 530.48,51.14 543,35.66 C566.98,6 591.73,7.43 627.5,20.66 C701.38,47.99 717.59,152.64 720.7,212.32 " fill="none" id="asdi::error::Error-to-asdi::error::SourceLocation" style="stroke:#A80036;stroke-width:1.0;stroke-dasharray:7.0,7.0;"/><polygon fill="#A80036" points="720.95,217.6,724.5074,208.416,720.7067,212.6059,716.5169,208.8053,720.95,217.6" style="stroke:#A80036;stroke-width:1.0;"/><!--MD5=[e9c2e61b0e51fa0a2da119d2a67dac0e]
reverse link asdi::error::Error to asdi::error::Result--><path codeLine="74" d="M530.49,254.66 C540.47,254.66 550.46,254.66 560.44,254.66 " fill="none" id="asdi::error::Error-backto-asdi::error::Result" style="stroke:#A80036;stroke-width:1.0;stroke-dasharray:7.0,7.0;"/><polygon fill="#A80036" points="525.27,254.66,534.27,258.66,530.27,254.66,534.27,250.66,525.27,254.66" style="stroke:#A80036;stroke-width:1.0;"/><!--MD5=[bf374d5d2c9160919692154b5c3e1ae7]
link asdi::error::Result to std::result::Result--><path codeLine="75" d="M594,270.84 C594,319.29 594,470.24 594,525.3 " fill="none" id="asdi::error::Result-to-std::result::Result" style="stroke:#A80036;stroke-width:1.0;stroke-dasharray:7.0,7.0;"/><polygon fill="#A80036" points="594,530.63,598,521.63,594,525.63,590,521.63,594,530.63" style="stroke:#A80036;stroke-width:1.0;"/><text fill="#000000" font-family="sans-serif" font-size="13" lengthAdjust="spacing" textLength="29" x="595" y="476.2284">base</text><!--MD5=[250b101836b5a1e4f915d87eb3fc4a45]
link asdi::error::error to asdi::error::Error--><path codeLine="77" d="M288.13,254.66 C298,254.66 307.87,254.66 317.74,254.66 " fill="none" id="asdi::error::error-to-asdi::error::Error" style="stroke:#A80036;stroke-width:1.0;stroke-dasharray:7.0,7.0;"/><polygon fill="#A80036" points="322.9,254.66,313.9,250.66,317.9,254.66,313.9,258.66,322.9,254.66" style="stroke:#A80036;stroke-width:1.0;"/><!--MD5=[303aa4fbf77f449b37f9feda4bf32cf6]
@startuml

!include options.plantuml

interface std::error::Error
hide "std::error::Error" members

class std::result::Result
hide "std::result::Result" members

namespace asdi::error {
    class SourceLocation {
        line: usize
        column: usize
    }

    enum Error {
        AnonymousVariableNotAllowed
        AttributeDoesNotExist
        AttributeIndexInvalid
        ComparisonIsAlwaysFalse
        ComparisonIsAlwaysTrue
        ExtensionalPredicateInRuleHead
        FactDoesNotConformToSchema
        FormatError
        HeadVariablesMissingInBody
        IncompatibleTypes
        InvalidHeadAtomCount
        InvalidValue
        LanguageFeatureDisabled
        LanguageFeatureUnsupported
        NegativeVariablesNotAlsoPositive
        NotStratifiable
        NullaryFactsNotAllowed
        ParserError
        RelationDoesNotExist
        RelationExists
        Serialization
        SerializationFormatUnknown
        SerializationOperationUnsupported
    }
    hide Error methods

    class error <<module>> {
        anonymous_variable_not_allowed() : Error
        attribute_does_not_exist() : Error
        attribute_index_Invalid() : Error
        comparison_is_always_false() : Error
        comparison_is_always_true() : Error
        extensional_predicate_in_rule_head() : Error
        fact_does_not_conform_to_schema() : Error
        format_error() : Error
        head_variables_missing_in_body() : Error
        incompatible_types() : Error
        invalid_head_atom_count() : Error
        invalid_value() : Error
        language_feature_disabled() : Error
        language_feature_unsupported() : Error
        negative_variables_not_also_positive() : Error
        not_stratifiable() : Error
        nullary_facts_not_allowed() : Error
        parser_error() : Error
        relation_does_not_exist() : Error
        relation_exists() : Error
        serialization() : Error
        serialization_format_unknown() : Error
        serialization_operation_unsupported() : Error
    }

    Error ..|> std::error::Error
    Error .right.> SourceLocation

    class Result << (T,#ADD1B2) type >>

    Result .left.> Error
    Result ..> std::result::Result: base

    error .right.> Error
}

@enduml

@startuml

set namespaceSeparator ::
hide enum methods
hide interface fields
hide << const >> members
hide << type >> members
hide << type >> stereotype
hide << module >> fields
hide << module >> circle

interface std::error::Error
hide "std::error::Error" members

class std::result::Result
hide "std::result::Result" members

namespace asdi::error {
    class SourceLocation {
        line: usize
        column: usize
    }

    enum Error {
        AnonymousVariableNotAllowed
        AttributeDoesNotExist
        AttributeIndexInvalid
        ComparisonIsAlwaysFalse
        ComparisonIsAlwaysTrue
        ExtensionalPredicateInRuleHead
        FactDoesNotConformToSchema
        FormatError
        HeadVariablesMissingInBody
        IncompatibleTypes
        InvalidHeadAtomCount
        InvalidValue
        LanguageFeatureDisabled
        LanguageFeatureUnsupported
        NegativeVariablesNotAlsoPositive
        NotStratifiable
        NullaryFactsNotAllowed
        ParserError
        RelationDoesNotExist
        RelationExists
        Serialization
        SerializationFormatUnknown
        SerializationOperationUnsupported
    }
    hide Error methods

    class error <<module>> {
        anonymous_variable_not_allowed() : Error
        attribute_does_not_exist() : Error
        attribute_index_Invalid() : Error
        comparison_is_always_false() : Error
        comparison_is_always_true() : Error
        extensional_predicate_in_rule_head() : Error
        fact_does_not_conform_to_schema() : Error
        format_error() : Error
        head_variables_missing_in_body() : Error
        incompatible_types() : Error
        invalid_head_atom_count() : Error
        invalid_value() : Error
        language_feature_disabled() : Error
        language_feature_unsupported() : Error
        negative_variables_not_also_positive() : Error
        not_stratifiable() : Error
        nullary_facts_not_allowed() : Error
        parser_error() : Error
        relation_does_not_exist() : Error
        relation_exists() : Error
        serialization() : Error
        serialization_format_unknown() : Error
        serialization_operation_unsupported() : Error
    }

    Error ..|> std::error::Error
    Error .right.> SourceLocation

    class Result << (T,#ADD1B2) type >>

    Result .left.> Error
    Result ..> std::result::Result: base

    error .right.> Error
}

@enduml

PlantUML version 1.2022.1(Tue Feb 01 10:19:58 PST 2022)
(GPL source distribution)
Java Runtime: OpenJDK Runtime Environment
JVM: OpenJDK 64-Bit Server VM
Default Encoding: UTF-8
Language: en
Country: US
--></g></svg>