<?xml version="1.0" encoding="UTF-8" standalone="no"?><svg xmlns="http://www.w3.org/2000/svg" xmlns:xlink="http://www.w3.org/1999/xlink" contentScriptType="application/ecmascript" contentStyleType="text/css" height="880px" preserveAspectRatio="none" style="width:1035px;height:880px;background:#FFFFFF;" version="1.1" viewBox="0 0 1035 880" width="1035px" zoomAndPan="magnify"><defs><filter height="300%" id="f14jnf9m2k7t7o" width="300%" x="-1" y="-1"><feGaussianBlur result="blurOut" stdDeviation="2.0"/><feColorMatrix in="blurOut" result="blurOut2" type="matrix" values="0 0 0 0 0 0 0 0 0 0 0 0 0 0 0 0 0 0 .4 0"/><feOffset dx="4.0" dy="4.0" in="blurOut2" result="blurOut3"/><feBlend in="SourceGraphic" in2="blurOut3" mode="normal"/></filter></defs><g><!--MD5=[e274c4916ac42ef1c11391a83d303c10]
cluster asdi--><polygon fill="#FFFFFF" filter="url(#f14jnf9m2k7t7o)" points="16,6,52,6,59,28.4883,739,28.4883,739,873,16,873,16,6" style="stroke:#000000;stroke-width:1.5;"/><line style="stroke:#000000;stroke-width:1.5;" x1="16" x2="59" y1="28.4883" y2="28.4883"/><text fill="#000000" font-family="sans-serif" font-size="14" font-weight="bold" lengthAdjust="spacing" textLength="30" x="20" y="21.5352">asdi</text><!--MD5=[ae3c197a01158459eb2ddb806e23d6f2]
cluster asdi::idb--><polygon fill="#FFFFFF" filter="url(#f14jnf9m2k7t7o)" points="40,49,69,49,76,71.4883,571,71.4883,571,781,40,781,40,49" style="stroke:#000000;stroke-width:1.5;"/><line style="stroke:#000000;stroke-width:1.5;" x1="40" x2="76" y1="71.4883" y2="71.4883"/><text fill="#000000" font-family="sans-serif" font-size="14" font-weight="bold" lengthAdjust="spacing" textLength="23" x="44" y="64.5352">idb</text><!--MD5=[6bc3af5db4038e5494ba0622f07de59b]
cluster asdi::edb--><polygon fill="#FFFFFF" filter="url(#f14jnf9m2k7t7o)" points="763,690,831,690,838,712.4883,1018,712.4883,1018,773,763,773,763,690" style="stroke:#000000;stroke-width:1.5;"/><line style="stroke:#000000;stroke-width:1.5;" x1="763" x2="838" y1="712.4883" y2="712.4883"/><text fill="#000000" font-family="sans-serif" font-size="14" font-weight="bold" lengthAdjust="spacing" textLength="62" x="767" y="705.5352">asdi::edb</text><!--MD5=[2110a1d684b71e50a272297f2c09c595]
class asdi::AttributeName--><rect codeLine="4" fill="#FEFECE" filter="url(#f14jnf9m2k7t7o)" height="32" id="asdi::AttributeName" style="stroke:#A80036;stroke-width:1.5;" width="116" x="231" y="825"/><ellipse cx="246" cy="841" fill="#B4A7E5" rx="11" ry="11" style="stroke:#A80036;stroke-width:1.0;"/><path d="M242.4277,837.2651 L242.4277,835.1069 L249.8071,835.1069 L249.8071,837.2651 L247.3418,837.2651 L247.3418,845.3418 L249.8071,845.3418 L249.8071,847.5 L242.4277,847.5 L242.4277,845.3418 L244.8931,845.3418 L244.8931,837.2651 Z " fill="#000000"/><text fill="#000000" font-family="sans-serif" font-size="12" font-style="italic" lengthAdjust="spacing" textLength="84" x="260" y="845.5352">AttributeName</text><!--MD5=[a769fd774dc4e74f949d393dd195b319]
class asdi::Labeled--><rect codeLine="7" fill="#FEFECE" filter="url(#f14jnf9m2k7t7o)" height="32" id="asdi::Labeled" style="stroke:#A80036;stroke-width:1.5;" width="78" x="587" y="582"/><ellipse cx="602" cy="598" fill="#B4A7E5" rx="11" ry="11" style="stroke:#A80036;stroke-width:1.0;"/><path d="M598.4277,594.2651 L598.4277,592.1069 L605.8071,592.1069 L605.8071,594.2651 L603.3418,594.2651 L603.3418,602.3418 L605.8071,602.3418 L605.8071,604.5 L598.4277,604.5 L598.4277,602.3418 L600.8931,602.3418 L600.8931,594.2651 Z " fill="#000000"/><text fill="#000000" font-family="sans-serif" font-size="12" font-style="italic" lengthAdjust="spacing" textLength="46" x="616" y="602.5352">Labeled</text><!--MD5=[a36ef1bdba718ac7a4b8a2af506f0d6e]
class asdi::MaybeAnonymous--><rect codeLine="10" fill="#FEFECE" filter="url(#f14jnf9m2k7t7o)" height="32" id="asdi::MaybeAnonymous" style="stroke:#A80036;stroke-width:1.5;" width="136" x="587" y="725"/><ellipse cx="602" cy="741" fill="#B4A7E5" rx="11" ry="11" style="stroke:#A80036;stroke-width:1.0;"/><path d="M598.4277,737.2651 L598.4277,735.1069 L605.8071,735.1069 L605.8071,737.2651 L603.3418,737.2651 L603.3418,745.3418 L605.8071,745.3418 L605.8071,747.5 L598.4277,747.5 L598.4277,745.3418 L600.8931,745.3418 L600.8931,737.2651 Z " fill="#000000"/><text fill="#000000" font-family="sans-serif" font-size="12" font-style="italic" lengthAdjust="spacing" textLength="104" x="616" y="745.5352">MaybeAnonymous</text><!--MD5=[fa1011c7bd77eedf14cd9274bd452e29]
class asdi::MaybePositive--><rect codeLine="13" fill="#FEFECE" filter="url(#f14jnf9m2k7t7o)" height="32" id="asdi::MaybePositive" style="stroke:#A80036;stroke-width:1.5;" width="113" x="587.5" y="439"/><ellipse cx="602.5" cy="455" fill="#B4A7E5" rx="11" ry="11" style="stroke:#A80036;stroke-width:1.0;"/><path d="M598.9277,451.2651 L598.9277,449.1069 L606.3071,449.1069 L606.3071,451.2651 L603.8418,451.2651 L603.8418,459.3418 L606.3071,459.3418 L606.3071,461.5 L598.9277,461.5 L598.9277,459.3418 L601.3931,459.3418 L601.3931,451.2651 Z " fill="#000000"/><text fill="#000000" font-family="sans-serif" font-size="12" font-style="italic" lengthAdjust="spacing" textLength="81" x="616.5" y="459.5352">MaybePositive</text><!--MD5=[58e714ed1ca5e9bfcf1eb5d511ea400e]
class asdi::idb::MaybeGround--><rect codeLine="23" fill="#FEFECE" filter="url(#f14jnf9m2k7t7o)" height="40" id="asdi::idb::MaybeGround" style="stroke:#A80036;stroke-width:1.5;" width="113" x="216.5" y="84"/><ellipse cx="231.5" cy="100" fill="#B4A7E5" rx="11" ry="11" style="stroke:#A80036;stroke-width:1.0;"/><path d="M227.9277,96.2651 L227.9277,94.1069 L235.3071,94.1069 L235.3071,96.2651 L232.8418,96.2651 L232.8418,104.3418 L235.3071,104.3418 L235.3071,106.5 L227.9277,106.5 L227.9277,104.3418 L230.3931,104.3418 L230.3931,96.2651 Z " fill="#000000"/><text fill="#000000" font-family="sans-serif" font-size="12" font-style="italic" lengthAdjust="spacing" textLength="81" x="245.5" y="104.5352">MaybeGround</text><line style="stroke:#A80036;stroke-width:1.5;" x1="217.5" x2="328.5" y1="116" y2="116"/><!--MD5=[bf8372b32c4a37b4dcf0167e8fccb41e]
class asdi::idb::Atom--><rect codeLine="25" fill="#FEFECE" filter="url(#f14jnf9m2k7t7o)" height="48" id="asdi::idb::Atom" style="stroke:#A80036;stroke-width:1.5;" width="62" x="331" y="431"/><ellipse cx="346" cy="447" fill="#ADD1B2" rx="11" ry="11" style="stroke:#A80036;stroke-width:1.0;"/><path d="M348.4731,453.1431 Q347.8921,453.4419 347.2529,453.5913 Q346.6138,453.7407 345.9082,453.7407 Q343.4014,453.7407 342.0815,452.0889 Q340.7617,450.437 340.7617,447.3159 Q340.7617,444.1865 342.0815,442.5347 Q343.4014,440.8828 345.9082,440.8828 Q346.6138,440.8828 347.2612,441.0322 Q347.9087,441.1816 348.4731,441.4805 L348.4731,444.2031 Q347.8423,443.6221 347.2488,443.3523 Q346.6553,443.0825 346.0244,443.0825 Q344.6797,443.0825 343.9949,444.1492 Q343.3101,445.2158 343.3101,447.3159 Q343.3101,449.4077 343.9949,450.4744 Q344.6797,451.541 346.0244,451.541 Q346.6553,451.541 347.2488,451.2712 Q347.8423,451.0015 348.4731,450.4204 Z " fill="#000000"/><text fill="#000000" font-family="sans-serif" font-size="12" lengthAdjust="spacing" textLength="30" x="360" y="451.5352">Atom</text><line style="stroke:#A80036;stroke-width:1.5;" x1="332" x2="392" y1="463" y2="463"/><line style="stroke:#A80036;stroke-width:1.5;" x1="332" x2="392" y1="471" y2="471"/><!--MD5=[93fe927435d17bed53dc57d3a6532330]
class asdi::idb::Comparison--><rect codeLine="26" fill="#FEFECE" filter="url(#f14jnf9m2k7t7o)" height="48" id="asdi::idb::Comparison" style="stroke:#A80036;stroke-width:1.5;" width="101" x="114.5" y="431"/><ellipse cx="129.5" cy="447" fill="#ADD1B2" rx="11" ry="11" style="stroke:#A80036;stroke-width:1.0;"/><path d="M131.9731,453.1431 Q131.3921,453.4419 130.7529,453.5913 Q130.1138,453.7407 129.4082,453.7407 Q126.9014,453.7407 125.5815,452.0889 Q124.2617,450.437 124.2617,447.3159 Q124.2617,444.1865 125.5815,442.5347 Q126.9014,440.8828 129.4082,440.8828 Q130.1138,440.8828 130.7612,441.0322 Q131.4087,441.1816 131.9731,441.4805 L131.9731,444.2031 Q131.3423,443.6221 130.7488,443.3523 Q130.1553,443.0825 129.5244,443.0825 Q128.1797,443.0825 127.4949,444.1492 Q126.8101,445.2158 126.8101,447.3159 Q126.8101,449.4077 127.4949,450.4744 Q128.1797,451.541 129.5244,451.541 Q130.1553,451.541 130.7488,451.2712 Q131.3423,451.0015 131.9731,450.4204 Z " fill="#000000"/><text fill="#000000" font-family="sans-serif" font-size="12" lengthAdjust="spacing" textLength="69" x="143.5" y="451.5352">Comparison</text><line style="stroke:#A80036;stroke-width:1.5;" x1="115.5" x2="214.5" y1="463" y2="463"/><line style="stroke:#A80036;stroke-width:1.5;" x1="115.5" x2="214.5" y1="471" y2="471"/><!--MD5=[95e3d76ece4a6c772598aa558a725fa6]
class asdi::idb::Literal--><rect codeLine="27" fill="#FEFECE" filter="url(#f14jnf9m2k7t7o)" height="60.9551" id="asdi::idb::Literal" style="stroke:#A80036;stroke-width:1.5;" width="87" x="346.5" y="301"/><ellipse cx="370.5" cy="317" fill="#ADD1B2" rx="11" ry="11" style="stroke:#A80036;stroke-width:1.0;"/><path d="M372.9731,323.1431 Q372.3921,323.4419 371.7529,323.5913 Q371.1138,323.7407 370.4082,323.7407 Q367.9014,323.7407 366.5815,322.0889 Q365.2617,320.437 365.2617,317.3159 Q365.2617,314.1865 366.5815,312.5347 Q367.9014,310.8828 370.4082,310.8828 Q371.1138,310.8828 371.7612,311.0322 Q372.4087,311.1816 372.9731,311.4805 L372.9731,314.2031 Q372.3423,313.6221 371.7488,313.3523 Q371.1553,313.0825 370.5244,313.0825 Q369.1797,313.0825 368.4949,314.1492 Q367.8101,315.2158 367.8101,317.3159 Q367.8101,319.4077 368.4949,320.4744 Q369.1797,321.541 370.5244,321.541 Q371.1553,321.541 371.7488,321.2712 Q372.3423,321.0015 372.9731,320.4204 Z " fill="#000000"/><text fill="#000000" font-family="sans-serif" font-size="12" lengthAdjust="spacing" textLength="35" x="386.5" y="321.5352">Literal</text><line style="stroke:#A80036;stroke-width:1.5;" x1="347.5" x2="432.5" y1="333" y2="333"/><text fill="#000000" font-family="sans-serif" font-size="11" lengthAdjust="spacing" textLength="75" x="352.5" y="347.6348">negative: bool</text><line style="stroke:#A80036;stroke-width:1.5;" x1="347.5" x2="432.5" y1="353.9551" y2="353.9551"/><!--MD5=[afabf50c567fddf1e22749c2d45d6bf2]
class asdi::idb::Rule--><rect codeLine="30" fill="#FEFECE" filter="url(#f14jnf9m2k7t7o)" height="48" id="asdi::idb::Rule" style="stroke:#A80036;stroke-width:1.5;" width="57" x="455.5" y="184"/><ellipse cx="470.5" cy="200" fill="#ADD1B2" rx="11" ry="11" style="stroke:#A80036;stroke-width:1.0;"/><path d="M472.9731,206.1431 Q472.3921,206.4419 471.7529,206.5913 Q471.1138,206.7407 470.4082,206.7407 Q467.9014,206.7407 466.5815,205.0889 Q465.2617,203.437 465.2617,200.3159 Q465.2617,197.1865 466.5815,195.5347 Q467.9014,193.8828 470.4082,193.8828 Q471.1138,193.8828 471.7612,194.0322 Q472.4087,194.1816 472.9731,194.4805 L472.9731,197.2031 Q472.3423,196.6221 471.7488,196.3523 Q471.1553,196.0825 470.5244,196.0825 Q469.1797,196.0825 468.4949,197.1492 Q467.8101,198.2158 467.8101,200.3159 Q467.8101,202.4077 468.4949,203.4744 Q469.1797,204.541 470.5244,204.541 Q471.1553,204.541 471.7488,204.2712 Q472.3423,204.0015 472.9731,203.4204 Z " fill="#000000"/><text fill="#000000" font-family="sans-serif" font-size="12" lengthAdjust="spacing" textLength="25" x="484.5" y="204.5352">Rule</text><line style="stroke:#A80036;stroke-width:1.5;" x1="456.5" x2="511.5" y1="216" y2="216"/><line style="stroke:#A80036;stroke-width:1.5;" x1="456.5" x2="511.5" y1="224" y2="224"/><!--MD5=[30c8d4c59bd3776484494cc31a150236]
class asdi::idb::RuleSet--><rect codeLine="31" fill="#FEFECE" filter="url(#f14jnf9m2k7t7o)" height="48" id="asdi::idb::RuleSet" style="stroke:#A80036;stroke-width:1.5;" width="74" x="346" y="184"/><ellipse cx="361" cy="200" fill="#ADD1B2" rx="11" ry="11" style="stroke:#A80036;stroke-width:1.0;"/><path d="M363.4731,206.1431 Q362.8921,206.4419 362.2529,206.5913 Q361.6138,206.7407 360.9082,206.7407 Q358.4014,206.7407 357.0815,205.0889 Q355.7617,203.437 355.7617,200.3159 Q355.7617,197.1865 357.0815,195.5347 Q358.4014,193.8828 360.9082,193.8828 Q361.6138,193.8828 362.2612,194.0322 Q362.9087,194.1816 363.4731,194.4805 L363.4731,197.2031 Q362.8423,196.6221 362.2488,196.3523 Q361.6553,196.0825 361.0244,196.0825 Q359.6797,196.0825 358.9949,197.1492 Q358.3101,198.2158 358.3101,200.3159 Q358.3101,202.4077 358.9949,203.4744 Q359.6797,204.541 361.0244,204.541 Q361.6553,204.541 362.2488,204.2712 Q362.8423,204.0015 363.4731,203.4204 Z " fill="#000000"/><text fill="#000000" font-family="sans-serif" font-size="12" lengthAdjust="spacing" textLength="42" x="375" y="204.5352">RuleSet</text><line style="stroke:#A80036;stroke-width:1.5;" x1="347" x2="419" y1="216" y2="216"/><line style="stroke:#A80036;stroke-width:1.5;" x1="347" x2="419" y1="224" y2="224"/><!--MD5=[f72cfccca2b5af6aea8a3ce6e99d7935]
class asdi::idb::Variable--><rect codeLine="32" fill="#FEFECE" filter="url(#f14jnf9m2k7t7o)" height="48" id="asdi::idb::Variable" style="stroke:#A80036;stroke-width:1.5;" width="80" x="249" y="717"/><ellipse cx="264" cy="733" fill="#ADD1B2" rx="11" ry="11" style="stroke:#A80036;stroke-width:1.0;"/><path d="M266.4731,739.1431 Q265.8921,739.4419 265.2529,739.5913 Q264.6138,739.7407 263.9082,739.7407 Q261.4014,739.7407 260.0815,738.0889 Q258.7617,736.437 258.7617,733.3159 Q258.7617,730.1865 260.0815,728.5347 Q261.4014,726.8828 263.9082,726.8828 Q264.6138,726.8828 265.2612,727.0322 Q265.9087,727.1816 266.4731,727.4805 L266.4731,730.2031 Q265.8423,729.6221 265.2488,729.3523 Q264.6553,729.0825 264.0244,729.0825 Q262.6797,729.0825 261.9949,730.1492 Q261.3101,731.2158 261.3101,733.3159 Q261.3101,735.4077 261.9949,736.4744 Q262.6797,737.541 264.0244,737.541 Q264.6553,737.541 265.2488,737.2712 Q265.8423,737.0015 266.4731,736.4204 Z " fill="#000000"/><text fill="#000000" font-family="sans-serif" font-size="12" lengthAdjust="spacing" textLength="48" x="278" y="737.5352">Variable</text><line style="stroke:#A80036;stroke-width:1.5;" x1="250" x2="328" y1="749" y2="749"/><line style="stroke:#A80036;stroke-width:1.5;" x1="250" x2="328" y1="757" y2="757"/><!--MD5=[d7ed71e2888dff8f76393f08027596df]
class asdi::idb::ComparisonOperator--><rect codeLine="34" fill="#FEFECE" filter="url(#f14jnf9m2k7t7o)" height="117.7305" id="asdi::idb::ComparisonOperator" style="stroke:#A80036;stroke-width:1.5;" width="153" x="88.5" y="539"/><ellipse cx="103.5" cy="555" fill="#EB937F" rx="11" ry="11" style="stroke:#A80036;stroke-width:1.0;"/><path d="M107.1143,561.5 L99.3945,561.5 L99.3945,549.1069 L107.1143,549.1069 L107.1143,551.2651 L101.8433,551.2651 L101.8433,553.938 L106.6162,553.938 L106.6162,556.0962 L101.8433,556.0962 L101.8433,559.3418 L107.1143,559.3418 Z " fill="#000000"/><text fill="#000000" font-family="sans-serif" font-size="12" lengthAdjust="spacing" textLength="121" x="117.5" y="559.5352">ComparisonOperator</text><line style="stroke:#A80036;stroke-width:1.5;" x1="89.5" x2="240.5" y1="571" y2="571"/><text fill="#000000" font-family="sans-serif" font-size="11" lengthAdjust="spacing" textLength="29" x="94.5" y="585.6348">Equal</text><text fill="#000000" font-family="sans-serif" font-size="11" lengthAdjust="spacing" textLength="48" x="94.5" y="598.5898">NotEqual</text><text fill="#000000" font-family="sans-serif" font-size="11" lengthAdjust="spacing" textLength="51" x="94.5" y="611.5449">LessThan</text><text fill="#000000" font-family="sans-serif" font-size="11" lengthAdjust="spacing" textLength="94" x="94.5" y="624.5">LessThanOrEqual</text><text fill="#000000" font-family="sans-serif" font-size="11" lengthAdjust="spacing" textLength="67" x="94.5" y="637.4551">GreaterThan</text><text fill="#000000" font-family="sans-serif" font-size="11" lengthAdjust="spacing" textLength="110" x="94.5" y="650.4102">GreaterThanOrEqual</text><!--MD5=[db6502f5881fb8b59203380e04be5be8]
class asdi::idb::LiteralInner--><rect codeLine="42" fill="#FEFECE" filter="url(#f14jnf9m2k7t7o)" height="65.9102" id="asdi::idb::LiteralInner" style="stroke:#A80036;stroke-width:1.5;" width="143" x="93.5" y="298.5"/><ellipse cx="129.65" cy="314.5" fill="#EB937F" rx="11" ry="11" style="stroke:#A80036;stroke-width:1.0;"/><path d="M133.2643,321 L125.5445,321 L125.5445,308.6069 L133.2643,308.6069 L133.2643,310.7651 L127.9933,310.7651 L127.9933,313.438 L132.7662,313.438 L132.7662,315.5962 L127.9933,315.5962 L127.9933,318.8418 L133.2643,318.8418 Z " fill="#000000"/><text fill="#000000" font-family="sans-serif" font-size="12" lengthAdjust="spacing" textLength="64" x="148.35" y="319.0352">LiteralInner</text><line style="stroke:#A80036;stroke-width:1.5;" x1="94.5" x2="235.5" y1="330.5" y2="330.5"/><text fill="#000000" font-family="sans-serif" font-size="11" lengthAdjust="spacing" textLength="90" x="99.5" y="345.1348">Relational : Atom</text><text fill="#000000" font-family="sans-serif" font-size="11" lengthAdjust="spacing" textLength="131" x="99.5" y="358.0898">Arithmetic : Comparison</text><!--MD5=[e58c0c9c0688e4939d5bc85df51c153b]
class asdi::idb::RuleForm--><rect codeLine="46" fill="#FEFECE" filter="url(#f14jnf9m2k7t7o)" height="78.8652" id="asdi::idb::RuleForm" style="stroke:#A80036;stroke-width:1.5;" width="86" x="469" y="292"/><ellipse cx="484" cy="308" fill="#EB937F" rx="11" ry="11" style="stroke:#A80036;stroke-width:1.0;"/><path d="M487.6143,314.5 L479.8945,314.5 L479.8945,302.1069 L487.6143,302.1069 L487.6143,304.2651 L482.3433,304.2651 L482.3433,306.938 L487.1162,306.938 L487.1162,309.0962 L482.3433,309.0962 L482.3433,312.3418 L487.6143,312.3418 Z " fill="#000000"/><text fill="#000000" font-family="sans-serif" font-size="12" lengthAdjust="spacing" textLength="54" x="498" y="312.5352">RuleForm</text><line style="stroke:#A80036;stroke-width:1.5;" x1="470" x2="554" y1="324" y2="324"/><text fill="#000000" font-family="sans-serif" font-size="11" lengthAdjust="spacing" textLength="24" x="475" y="338.6348">Pure</text><text fill="#000000" font-family="sans-serif" font-size="11" lengthAdjust="spacing" textLength="57" x="475" y="351.5898">Constraint</text><text fill="#000000" font-family="sans-serif" font-size="11" lengthAdjust="spacing" textLength="59" x="475" y="364.5449">Disjunctive</text><!--MD5=[6f0cf4b3afacbcee8b945dd3f35577cc]
class asdi::idb::Term--><rect codeLine="51" fill="#FEFECE" filter="url(#f14jnf9m2k7t7o)" height="78.8652" id="asdi::idb::Term" style="stroke:#A80036;stroke-width:1.5;" width="124" x="352" y="558.5"/><ellipse cx="394.45" cy="574.5" fill="#EB937F" rx="11" ry="11" style="stroke:#A80036;stroke-width:1.0;"/><path d="M398.0643,581 L390.3445,581 L390.3445,568.6069 L398.0643,568.6069 L398.0643,570.7651 L392.7933,570.7651 L392.7933,573.438 L397.5662,573.438 L397.5662,575.5962 L392.7933,575.5962 L392.7933,578.8418 L398.0643,578.8418 Z " fill="#000000"/><text fill="#000000" font-family="sans-serif" font-size="12" lengthAdjust="spacing" textLength="31" x="414.55" y="579.0352">Term</text><line style="stroke:#A80036;stroke-width:1.5;" x1="353" x2="475" y1="590.5" y2="590.5"/><text fill="#000000" font-family="sans-serif" font-size="11" lengthAdjust="spacing" textLength="65" x="358" y="605.1348">Anonymous</text><text fill="#000000" font-family="sans-serif" font-size="11" lengthAdjust="spacing" textLength="112" x="358" y="618.0898">Variable : VariableRef</text><text fill="#000000" font-family="sans-serif" font-size="11" lengthAdjust="spacing" textLength="107" x="358" y="631.0449">Constant : Constant</text><!--MD5=[a3443b1847a68570b6a0335ccf68a499]
class asdi::idb::VariableRef--><rect codeLine="57" fill="#FEFECE" filter="url(#f14jnf9m2k7t7o)" height="32" id="asdi::idb::VariableRef" style="stroke:#A80036;stroke-width:1.5;" width="99" x="364.5" y="725"/><ellipse cx="379.5" cy="741" fill="#ADD1B2" rx="11" ry="11" style="stroke:#A80036;stroke-width:1.0;"/><path d="M380.8418,748.25 L378.3931,748.25 L378.3931,737.9985 L375.2471,737.9985 L375.2471,735.8569 L383.9878,735.8569 L383.9878,737.9985 L380.8418,737.9985 Z " fill="#000000"/><text fill="#000000" font-family="sans-serif" font-size="12" lengthAdjust="spacing" textLength="67" x="393.5" y="745.5352">VariableRef</text><!--MD5=[58db58f43e0c0eeeb327af7bc687dbb7]
class asdi::edb::Constant--><rect codeLine="16" fill="#FEFECE" filter="url(#f14jnf9m2k7t7o)" height="32" id="asdi::edb::Constant" style="stroke:#A80036;stroke-width:1.5;" width="82" x="779" y="725"/><ellipse cx="794" cy="741" fill="#B4A7E5" rx="11" ry="11" style="stroke:#A80036;stroke-width:1.0;"/><path d="M790.4277,737.2651 L790.4277,735.1069 L797.8071,735.1069 L797.8071,737.2651 L795.3418,737.2651 L795.3418,745.3418 L797.8071,745.3418 L797.8071,747.5 L790.4277,747.5 L790.4277,745.3418 L792.8931,745.3418 L792.8931,737.2651 Z " fill="#000000"/><text fill="#000000" font-family="sans-serif" font-size="12" font-style="italic" lengthAdjust="spacing" textLength="50" x="808" y="745.5352">Constant</text><!--MD5=[63d735a6e8116701ee198db5f4862bbe]
class asdi::edb::PredicateRef--><rect codeLine="19" fill="#FEFECE" filter="url(#f14jnf9m2k7t7o)" height="32" id="asdi::edb::PredicateRef" style="stroke:#A80036;stroke-width:1.5;" width="105" x="896.5" y="725"/><ellipse cx="911.5" cy="741" fill="#B4A7E5" rx="11" ry="11" style="stroke:#A80036;stroke-width:1.0;"/><path d="M907.9277,737.2651 L907.9277,735.1069 L915.3071,735.1069 L915.3071,737.2651 L912.8418,737.2651 L912.8418,745.3418 L915.3071,745.3418 L915.3071,747.5 L907.9277,747.5 L907.9277,745.3418 L910.3931,745.3418 L910.3931,737.2651 Z " fill="#000000"/><text fill="#000000" font-family="sans-serif" font-size="12" font-style="italic" lengthAdjust="spacing" textLength="73" x="925.5" y="745.5352">PredicateRef</text><!--MD5=[5205db52c3bf390de82c60a926c6194c]
link asdi::idb::Atom to asdi::edb::PredicateRef--><path codeLine="59" d="M393.35,477.42 C394.56,477.99 395.78,478.52 397,479 C540.45,535.89 601.31,469.3 739,539 C828.06,584.08 904.86,679.49 935.18,720.54 " fill="none" id="asdi::idb::Atom-to-asdi::edb::PredicateRef" style="stroke:#A80036;stroke-width:1.0;"/><polygon fill="#A80036" points="938.31,724.81,936.2089,715.1879,935.3513,720.7793,929.7599,719.9218,938.31,724.81" style="stroke:#A80036;stroke-width:1.0;"/><text fill="#000000" font-family="sans-serif" font-size="13" lengthAdjust="spacing" textLength="30" x="899.4791" y="714.2883">label</text><!--MD5=[4ee7e12942c48899dff69efe64159cb5]
link asdi::idb::Atom to asdi::idb::Term--><path codeLine="60" d="M370.59,479.28 C378,499.38 388.9,528.94 397.92,553.41 " fill="none" id="asdi::idb::Atom-to-asdi::idb::Term" style="stroke:#A80036;stroke-width:1.0;"/><polygon fill="#A80036" points="399.7,558.23,400.3379,548.4018,397.9695,553.539,392.8323,551.1706,399.7,558.23" style="stroke:#A80036;stroke-width:1.0;"/><text fill="#000000" font-family="sans-serif" font-size="13" lengthAdjust="spacing" textLength="46" x="347.2891" y="547.7121">terms *</text><!--MD5=[47fa2de2f882a2cfb2a5f6b9dab4b311]
link asdi::idb::Atom to asdi::Labeled--><path codeLine="61" d="M393.06,476.97 C394.38,477.68 395.69,478.36 397,479 C470.42,515.08 502.22,494.72 571,539 C582.44,546.36 593.18,556.59 602.08,566.41 " fill="none" id="asdi::idb::Atom-to-asdi::Labeled" style="stroke:#A80036;stroke-width:1.0;stroke-dasharray:7.0,7.0;"/><polygon fill="none" points="607.64,562.15,615.12,581.97,596.91,571.14,607.64,562.15" style="stroke:#A80036;stroke-width:1.0;"/><!--MD5=[f154a25f02206063d73f1f99bcc98b68]
reverse link asdi::idb::MaybeGround to asdi::idb::Atom--><path codeLine="62" d="M273.36,144.18 C274.98,197.17 281.96,293.92 310,371 C317.91,392.73 332.09,414.8 343.65,430.71 " fill="none" id="asdi::idb::MaybeGround-backto-asdi::idb::Atom" style="stroke:#A80036;stroke-width:1.0;stroke-dasharray:7.0,7.0;"/><polygon fill="none" points="266.36,144.17,272.95,124.03,280.36,143.88,266.36,144.17" style="stroke:#A80036;stroke-width:1.0;"/><!--MD5=[2074f6122c99d112595670c4e3f9c226]
link asdi::idb::Comparison to asdi::idb::Term--><path codeLine="64" d="M205.84,479.13 C244.12,500.8 302.05,533.6 347.08,559.11 " fill="none" id="asdi::idb::Comparison-to-asdi::idb::Term" style="stroke:#A80036;stroke-width:1.0;"/><polygon fill="#A80036" points="351.67,561.71,345.7955,553.8049,347.3148,559.2539,341.8658,560.7733,351.67,561.71" style="stroke:#A80036;stroke-width:1.0;"/><text fill="#000000" font-family="sans-serif" font-size="13" lengthAdjust="spacing" textLength="47" x="297.0258" y="555.3981">lhs, rhs</text><!--MD5=[d073be04e4ddc1aa3aef12623a417776]
link asdi::idb::Comparison to asdi::idb::ComparisonOperator--><path codeLine="65" d="M165,479.28 C165,494.15 165,514.21 165,533.56 " fill="none" id="asdi::idb::Comparison-to-asdi::idb::ComparisonOperator" style="stroke:#A80036;stroke-width:1.0;"/><polygon fill="#A80036" points="165,538.99,169,529.99,165,533.99,161,529.99,165,538.99" style="stroke:#A80036;stroke-width:1.0;"/><!--MD5=[8da5c116b4362d6e7fcd399feb25f7bf]
reverse link asdi::idb::MaybeGround to asdi::idb::Comparison--><path codeLine="66" d="M223.2,134.94 C175.25,166.99 105.77,222.69 76,292 C62.14,324.26 62,338.8 76,371 C86.7,395.61 108.69,416.23 128.13,430.76 " fill="none" id="asdi::idb::MaybeGround-backto-asdi::idb::Comparison" style="stroke:#A80036;stroke-width:1.0;stroke-dasharray:7.0,7.0;"/><polygon fill="none" points="219.48,129.01,240.08,124.04,227.08,140.77,219.48,129.01" style="stroke:#A80036;stroke-width:1.0;"/><!--MD5=[3ec0297d6e77f34f61d37cc8ebdc5add]
link asdi::idb::Rule to asdi::idb::Atom--><path codeLine="68" d="M455.33,223.39 C411.53,245.52 332.62,285.96 329,292 C303.74,334.18 327.06,392.45 345.26,426.39 " fill="none" id="asdi::idb::Rule-to-asdi::idb::Atom" style="stroke:#A80036;stroke-width:1.0;"/><polygon fill="#A80036" points="347.68,430.81,346.8685,420.9946,345.2797,426.4238,339.8506,424.8351,347.68,430.81" style="stroke:#A80036;stroke-width:1.0;"/><text fill="#000000" font-family="sans-serif" font-size="13" lengthAdjust="spacing" textLength="40" x="298.8855" y="420.2976">head *</text><!--MD5=[642164043534f65529c801e75dd39f9d]
link asdi::idb::Rule to asdi::idb::Literal--><path codeLine="69" d="M466.1,232.14 C451.92,250.47 431.9,276.34 415.96,296.94 " fill="none" id="asdi::idb::Rule-to-asdi::idb::Literal" style="stroke:#A80036;stroke-width:1.0;"/><polygon fill="#A80036" points="412.83,300.99,421.5082,296.3329,415.8958,297.0402,415.1885,291.4277,412.83,300.99" style="stroke:#A80036;stroke-width:1.0;"/><text fill="#000000" font-family="sans-serif" font-size="13" lengthAdjust="spacing" textLength="41" x="372.3397" y="290.2826">body *</text><!--MD5=[ba9414cdfd3b22f8d118e7d79a3000fa]
link asdi::idb::Rule to asdi::idb::RuleForm--><path codeLine="70" d="M489.33,232.14 C492.87,247.5 497.63,268.14 501.87,286.55 " fill="none" id="asdi::idb::Rule-to-asdi::idb::RuleForm" style="stroke:#A80036;stroke-width:1.0;stroke-dasharray:7.0,7.0;"/><polygon fill="#A80036" points="503.05,291.67,504.9425,282.0047,501.9351,286.7959,497.1439,283.7885,503.05,291.67" style="stroke:#A80036;stroke-width:1.0;"/><!--MD5=[b6334a40b992186836bc107b0d1a0507]
reverse link asdi::idb::MaybeGround to asdi::idb::Rule--><path codeLine="71" d="M331.19,132.92 C362.56,148 401.92,166.97 437,184 C442.88,186.86 449.18,189.93 455.18,192.86 " fill="none" id="asdi::idb::MaybeGround-backto-asdi::idb::Rule" style="stroke:#A80036;stroke-width:1.0;stroke-dasharray:7.0,7.0;"/><polygon fill="none" points="327.8,139.06,312.8,124.09,333.86,126.44,327.8,139.06" style="stroke:#A80036;stroke-width:1.0;"/><!--MD5=[85d0d95bf7b63637490af7b82ef1fb93]
link asdi::idb::Rule to asdi::MaybePositive--><path codeLine="72" d="M512.58,230.91 C531.33,246.4 555.37,268.52 572,292 C600.45,332.16 621.45,385.35 633.21,419.63 " fill="none" id="asdi::idb::Rule-to-asdi::MaybePositive" style="stroke:#A80036;stroke-width:1.0;stroke-dasharray:7.0,7.0;"/><polygon fill="none" points="639.87,417.48,639.45,438.67,626.57,421.85,639.87,417.48" style="stroke:#A80036;stroke-width:1.0;"/><!--MD5=[78018949d9607d46caafb7efbbd3872f]
link asdi::idb::RuleSet to asdi::idb::Rule--><path codeLine="74" d="M420.09,208 C430.01,208 439.93,208 449.85,208 " fill="none" id="asdi::idb::RuleSet-to-asdi::idb::Rule" style="stroke:#A80036;stroke-width:1.0;"/><polygon fill="#A80036" points="455.04,208,446.04,204,450.04,208,446.04,212,455.04,208" style="stroke:#A80036;stroke-width:1.0;"/><text fill="#000000" font-family="sans-serif" font-size="13" lengthAdjust="spacing" textLength="6" x="441.6493" y="203.8699">*</text><!--MD5=[fdafab65abbefbbe087bffe4cffeeae7]
link asdi::idb::Literal to asdi::idb::LiteralInner--><path codeLine="76" d="M334.27,331.5 C334.27,331.5 277.64,331.5 249.91,331.5 " fill="none" id="asdi::idb::Literal-asdi::idb::LiteralInner" style="stroke:#A80036;stroke-width:1.0;"/><polygon fill="#A80036" points="236.63,331.5,245.63,335.5,241.63,331.5,245.63,327.5,236.63,331.5" style="stroke:#A80036;stroke-width:1.0;"/><line style="stroke:#A80036;stroke-width:1.0;" x1="241.63" x2="249.63" y1="331.5" y2="331.5"/><polygon fill="#A80036" points="346.27,331.5,340.27,327.5,334.27,331.5,340.27,335.5,346.27,331.5" style="stroke:#A80036;stroke-width:1.0;"/><!--MD5=[fc2b6fd999e4652595d74f61ffaa323a]
reverse link asdi::idb::MaybeGround to asdi::idb::Literal--><path codeLine="77" d="M287.74,143.15 C298.06,168.75 312.69,202.96 328,232 C340.53,255.77 356.78,281.43 369.5,300.6 " fill="none" id="asdi::idb::MaybeGround-backto-asdi::idb::Literal" style="stroke:#A80036;stroke-width:1.0;stroke-dasharray:7.0,7.0;"/><polygon fill="none" points="281.15,145.53,280.31,124.36,294.17,140.39,281.15,145.53" style="stroke:#A80036;stroke-width:1.0;"/><!--MD5=[d5370ebac63a30507d4d342ed3ce1830]
link asdi::idb::Literal to asdi::MaybePositive--><path codeLine="78" d="M433.83,361.3 C439.53,364.71 445.35,368.02 451,371 C494.8,394.06 546.4,415.99 585.22,431.52 " fill="none" id="asdi::idb::Literal-to-asdi::MaybePositive" style="stroke:#A80036;stroke-width:1.0;stroke-dasharray:7.0,7.0;"/><polygon fill="none" points="587.94,425.07,603.97,438.92,582.8,438.09,587.94,425.07" style="stroke:#A80036;stroke-width:1.0;"/><!--MD5=[4343d6e856c2a24421a31b0a0989a586]
link asdi::idb::LiteralInner to asdi::idb::Atom--><path codeLine="80" d="M217.02,364.58 C251.57,385.89 296.02,413.31 326.54,432.13 " fill="none" id="asdi::idb::LiteralInner-to-asdi::idb::Atom" style="stroke:#A80036;stroke-width:1.0;stroke-dasharray:7.0,7.0;"/><polygon fill="#A80036" points="330.94,434.84,325.3639,426.7217,326.6793,432.2235,321.1775,433.5389,330.94,434.84" style="stroke:#A80036;stroke-width:1.0;"/><!--MD5=[2c44ef6781c51a44444bf9ba177d569f]
link asdi::idb::LiteralInner to asdi::idb::Comparison--><path codeLine="81" d="M165,364.74 C165,383.6 165,407.2 165,425.39 " fill="none" id="asdi::idb::LiteralInner-to-asdi::idb::Comparison" style="stroke:#A80036;stroke-width:1.0;stroke-dasharray:7.0,7.0;"/><polygon fill="#A80036" points="165,430.86,169,421.86,165,425.86,161,421.86,165,430.86" style="stroke:#A80036;stroke-width:1.0;"/><!--MD5=[dde7b120b6516d26ec1d188aab35a05d]
reverse link asdi::idb::MaybeGround to asdi::idb::LiteralInner--><path codeLine="82" d="M255.11,142.36 C234.23,185.95 200.05,257.31 180.34,298.48 " fill="none" id="asdi::idb::MaybeGround-backto-asdi::idb::LiteralInner" style="stroke:#A80036;stroke-width:1.0;stroke-dasharray:7.0,7.0;"/><polygon fill="none" points="248.84,139.24,263.79,124.23,261.47,145.29,248.84,139.24" style="stroke:#A80036;stroke-width:1.0;"/><!--MD5=[9849278a5dc03cf62611ce4620bd1e8b]
link asdi::idb::Term to asdi::idb::VariableRef--><path codeLine="84" d="M414,637.53 C414,664.14 414,698.46 414,719.85 " fill="none" id="asdi::idb::Term-to-asdi::idb::VariableRef" style="stroke:#A80036;stroke-width:1.0;stroke-dasharray:7.0,7.0;"/><polygon fill="#A80036" points="414,724.99,418,715.99,414,719.99,410,715.99,414,724.99" style="stroke:#A80036;stroke-width:1.0;"/><!--MD5=[8cbcca06b00a83f8ba7cf2480cfc5d97]
link asdi::idb::Term to asdi::edb::Constant--><path codeLine="85" d="M449.87,637.57 C458.96,645.23 469.22,652.33 480,657 C586.13,702.95 630.72,641.39 739,682 C762.44,690.79 785.27,708.18 800.68,721.64 " fill="none" id="asdi::idb::Term-to-asdi::edb::Constant" style="stroke:#A80036;stroke-width:1.0;stroke-dasharray:7.0,7.0;"/><polygon fill="#A80036" points="804.44,724.97,800.3538,716.0088,800.6967,721.6553,795.0502,721.9982,804.44,724.97" style="stroke:#A80036;stroke-width:1.0;"/><!--MD5=[20df8b3cfe4388f14c5b65b728a82cf2]
link asdi::idb::Term to asdi::MaybeAnonymous--><path codeLine="86" d="M452.29,637.74 C460.88,644.92 470.33,651.79 480,657 C516.92,676.91 532.98,664.28 571,682 C588.47,690.14 606.26,701.84 620.94,712.6 " fill="none" id="asdi::idb::Term-to-asdi::MaybeAnonymous" style="stroke:#A80036;stroke-width:1.0;stroke-dasharray:7.0,7.0;"/><polygon fill="none" points="625.46,707.24,637.08,724.95,616.95,718.35,625.46,707.24" style="stroke:#A80036;stroke-width:1.0;"/><!--MD5=[c67a03367e788dd6095a8fd260bca714]
reverse link asdi::idb::Variable to asdi::idb::VariableRef--><path codeLine="88" d="M334.26,741 C344.25,741 354.23,741 364.22,741 " fill="none" id="asdi::idb::Variable-backto-asdi::idb::VariableRef" style="stroke:#A80036;stroke-width:1.0;stroke-dasharray:7.0,7.0;"/><polygon fill="#A80036" points="329.04,741,338.04,745,334.04,741,338.04,737,329.04,741" style="stroke:#A80036;stroke-width:1.0;"/><!--MD5=[d56ec772a069ca7ea3be07cf29c23657]
link asdi::idb::Variable to asdi::AttributeName--><path codeLine="89" d="M289,765.22 C289,777.05 289,791.66 289,804.83 " fill="none" id="asdi::idb::Variable-to-asdi::AttributeName" style="stroke:#A80036;stroke-width:1.0;stroke-dasharray:7.0,7.0;"/><polygon fill="none" points="296,804.87,289,824.87,282,804.87,296,804.87" style="stroke:#A80036;stroke-width:1.0;"/><!--MD5=[cb767e50059630e3603cc446828b649c]
@startuml

!include options.plantuml

interface asdi::AttributeName
hide "asdi::AttributeName" members

interface asdi::Labeled
hide "asdi::Labeled" members

interface asdi::MaybeAnonymous
hide "asdi::MaybeAnonymous" members

interface asdi::MaybePositive
hide "asdi::MaybePositive" members

interface asdi::edb::Constant
hide "asdi::edb::Constant" members

interface asdi::edb::PredicateRef
hide "asdi::edb::PredicateRef" members

namespace asdi::idb {
    interface MaybeGround

    class Atom
    class Comparison
    class Literal {
        negative: bool
    }
    class Rule
    class RuleSet
    class Variable

    enum ComparisonOperator {
        Equal
        NotEqual
        LessThan
        LessThanOrEqual
        GreaterThan
        GreaterThanOrEqual
    }
    enum LiteralInner {
        Relational : Atom
        Arithmetic : Comparison
    }
    enum RuleForm {
        Pure
        Constraint
        Disjunctive
    }
    enum Term {
        Anonymous
        Variable : VariableRef
        Constant : Constant
    }

    class VariableRef << (T,#ADD1B2) type >>

    Atom -down-> "label" asdi::edb::PredicateRef
    Atom - -> "terms *" Term
    Atom ..|> asdi::Labeled
    Atom .up.|> MaybeGround

    Comparison - -> "lhs, rhs" Term
    Comparison - -> ComparisonOperator
    Comparison .up.|> MaybeGround

    Rule - -> "head *" Atom
    Rule - -> "body *" Literal
    Rule ..> RuleForm
    Rule .up.|> MaybeGround
    Rule ..|> asdi::MaybePositive

    RuleSet -right-> "*" Rule

    Literal *-> LiteralInner
    Literal .up.|> MaybeGround
    Literal ..|> asdi::MaybePositive

    LiteralInner ..> Atom
    LiteralInner ..> Comparison
    LiteralInner .up.|> MaybeGround

    Term ..> VariableRef
    Term .down.> asdi::edb::Constant
    Term ..|> asdi::MaybeAnonymous

    VariableRef .left.> Variable
    Variable ..|> asdi::AttributeName
}

@enduml

@startuml

set namespaceSeparator ::
hide enum methods
hide interface fields
hide << const >> members
hide << type >> members
hide << type >> stereotype
hide << module >> fields
hide << module >> circle

interface asdi::AttributeName
hide "asdi::AttributeName" members

interface asdi::Labeled
hide "asdi::Labeled" members

interface asdi::MaybeAnonymous
hide "asdi::MaybeAnonymous" members

interface asdi::MaybePositive
hide "asdi::MaybePositive" members

interface asdi::edb::Constant
hide "asdi::edb::Constant" members

interface asdi::edb::PredicateRef
hide "asdi::edb::PredicateRef" members

namespace asdi::idb {
    interface MaybeGround

    class Atom
    class Comparison
    class Literal {
        negative: bool
    }
    class Rule
    class RuleSet
    class Variable

    enum ComparisonOperator {
        Equal
        NotEqual
        LessThan
        LessThanOrEqual
        GreaterThan
        GreaterThanOrEqual
    }
    enum LiteralInner {
        Relational : Atom
        Arithmetic : Comparison
    }
    enum RuleForm {
        Pure
        Constraint
        Disjunctive
    }
    enum Term {
        Anonymous
        Variable : VariableRef
        Constant : Constant
    }

    class VariableRef << (T,#ADD1B2) type >>

    Atom -down-> "label" asdi::edb::PredicateRef
    Atom - -> "terms *" Term
    Atom ..|> asdi::Labeled
    Atom .up.|> MaybeGround

    Comparison - -> "lhs, rhs" Term
    Comparison - -> ComparisonOperator
    Comparison .up.|> MaybeGround

    Rule - -> "head *" Atom
    Rule - -> "body *" Literal
    Rule ..> RuleForm
    Rule .up.|> MaybeGround
    Rule ..|> asdi::MaybePositive

    RuleSet -right-> "*" Rule

    Literal *-> LiteralInner
    Literal .up.|> MaybeGround
    Literal ..|> asdi::MaybePositive

    LiteralInner ..> Atom
    LiteralInner ..> Comparison
    LiteralInner .up.|> MaybeGround

    Term ..> VariableRef
    Term .down.> asdi::edb::Constant
    Term ..|> asdi::MaybeAnonymous

    VariableRef .left.> Variable
    Variable ..|> asdi::AttributeName
}

@enduml

PlantUML version 1.2022.1(Tue Feb 01 10:19:58 PST 2022)
(GPL source distribution)
Java Runtime: OpenJDK Runtime Environment
JVM: OpenJDK 64-Bit Server VM
Default Encoding: UTF-8
Language: en
Country: US
--></g></svg>