<?xml version="1.0" encoding="UTF-8" standalone="no"?><svg xmlns="http://www.w3.org/2000/svg" xmlns:xlink="http://www.w3.org/1999/xlink" contentScriptType="application/ecmascript" contentStyleType="text/css" height="296px" preserveAspectRatio="none" style="width:1328px;height:296px;background:#FFFFFF;" version="1.1" viewBox="0 0 1328 296" width="1328px" zoomAndPan="magnify"><defs><filter height="300%" id="f1oqsolri8f0jq" width="300%" x="-1" y="-1"><feGaussianBlur result="blurOut" stdDeviation="2.0"/><feColorMatrix in="blurOut" result="blurOut2" type="matrix" values="0 0 0 0 0 0 0 0 0 0 0 0 0 0 0 0 0 0 .4 0"/><feOffset dx="4.0" dy="4.0" in="blurOut2" result="blurOut3"/><feBlend in="SourceGraphic" in2="blurOut3" mode="normal"/></filter></defs><g><!--MD5=[af63c64fec698275cfc4891f303451d3]
cluster asdi::features--><polygon fill="#FFFFFF" filter="url(#f1oqsolri8f0jq)" points="908,198.15,1009,198.15,1016,220.6383,1032,220.6383,1032,281.15,908,281.15,908,198.15" style="stroke:#000000;stroke-width:1.5;"/><line style="stroke:#000000;stroke-width:1.5;" x1="908" x2="1016" y1="220.6383" y2="220.6383"/><text fill="#000000" font-family="sans-serif" font-size="14" font-weight="bold" lengthAdjust="spacing" textLength="95" x="912" y="213.6852">asdi::features</text><!--MD5=[6bc3af5db4038e5494ba0622f07de59b]
cluster asdi::edb--><polygon fill="#FFFFFF" filter="url(#f1oqsolri8f0jq)" points="908,57.15,976,57.15,983,79.6383,1036,79.6383,1036,140.15,908,140.15,908,57.15" style="stroke:#000000;stroke-width:1.5;"/><line style="stroke:#000000;stroke-width:1.5;" x1="908" x2="983" y1="79.6383" y2="79.6383"/><text fill="#000000" font-family="sans-serif" font-size="14" font-weight="bold" lengthAdjust="spacing" textLength="62" x="912" y="72.6852">asdi::edb</text><!--MD5=[ae3c197a01158459eb2ddb806e23d6f2]
cluster asdi::idb--><polygon fill="#FFFFFF" filter="url(#f1oqsolri8f0jq)" points="1060,57.15,1125,57.15,1132,79.6383,1166,79.6383,1166,140.15,1060,140.15,1060,57.15" style="stroke:#000000;stroke-width:1.5;"/><line style="stroke:#000000;stroke-width:1.5;" x1="1060" x2="1132" y1="79.6383" y2="79.6383"/><text fill="#000000" font-family="sans-serif" font-size="14" font-weight="bold" lengthAdjust="spacing" textLength="59" x="1064" y="72.6852">asdi::idb</text><!--MD5=[331bdf5c2291f41e90a08533bcc43e12]
cluster asdi::idb::query--><polygon fill="#FFFFFF" filter="url(#f1oqsolri8f0jq)" points="1190,57.15,1301,57.15,1308,79.6383,1311,79.6383,1311,140.15,1190,140.15,1190,57.15" style="stroke:#000000;stroke-width:1.5;"/><line style="stroke:#000000;stroke-width:1.5;" x1="1190" x2="1308" y1="79.6383" y2="79.6383"/><text fill="#000000" font-family="sans-serif" font-size="14" font-weight="bold" lengthAdjust="spacing" textLength="105" x="1194" y="72.6852">asdi::idb::query</text><!--MD5=[e274c4916ac42ef1c11391a83d303c10]
cluster asdi--><polygon fill="#FFFFFF" filter="url(#f1oqsolri8f0jq)" points="16,46.15,52,46.15,59,68.6383,884,68.6383,884,289.15,16,289.15,16,46.15" style="stroke:#000000;stroke-width:1.5;"/><line style="stroke:#000000;stroke-width:1.5;" x1="16" x2="59" y1="68.6383" y2="68.6383"/><text fill="#000000" font-family="sans-serif" font-size="14" font-weight="bold" lengthAdjust="spacing" textLength="30" x="20" y="61.6852">asdi</text><!--MD5=[10e3bb9f30c83b84488054de99f42877]
class asdi::features::FeatureSet--><rect codeLine="4" fill="#FEFECE" filter="url(#f1oqsolri8f0jq)" height="32" id="asdi::features::FeatureSet" style="stroke:#A80036;stroke-width:1.5;" width="92" x="924" y="233.15"/><ellipse cx="939" cy="249.15" fill="#ADD1B2" rx="11" ry="11" style="stroke:#A80036;stroke-width:1.0;"/><path d="M941.4731,255.2931 Q940.8921,255.5919 940.2529,255.7413 Q939.6138,255.8907 938.9082,255.8907 Q936.4014,255.8907 935.0815,254.2389 Q933.7617,252.587 933.7617,249.4659 Q933.7617,246.3365 935.0815,244.6847 Q936.4014,243.0328 938.9082,243.0328 Q939.6138,243.0328 940.2612,243.1822 Q940.9087,243.3316 941.4731,243.6305 L941.4731,246.3531 Q940.8423,245.7721 940.2488,245.5023 Q939.6553,245.2325 939.0244,245.2325 Q937.6797,245.2325 936.9949,246.2992 Q936.3101,247.3658 936.3101,249.4659 Q936.3101,251.5577 936.9949,252.6244 Q937.6797,253.691 939.0244,253.691 Q939.6553,253.691 940.2488,253.4212 Q940.8423,253.1515 941.4731,252.5704 Z " fill="#000000"/><text fill="#000000" font-family="sans-serif" font-size="12" lengthAdjust="spacing" textLength="60" x="953" y="253.6852">FeatureSet</text><!--MD5=[6137f69857c1321f4d06c717c9c09db2]
class asdi::edb::RelationSet--><rect codeLine="7" fill="#FEFECE" filter="url(#f1oqsolri8f0jq)" height="32" id="asdi::edb::RelationSet" style="stroke:#A80036;stroke-width:1.5;" width="95" x="924.5" y="92.15"/><ellipse cx="939.5" cy="108.15" fill="#ADD1B2" rx="11" ry="11" style="stroke:#A80036;stroke-width:1.0;"/><path d="M941.9731,114.2931 Q941.3921,114.5919 940.7529,114.7413 Q940.1138,114.8907 939.4082,114.8907 Q936.9014,114.8907 935.5815,113.2389 Q934.2617,111.587 934.2617,108.4659 Q934.2617,105.3365 935.5815,103.6847 Q936.9014,102.0328 939.4082,102.0328 Q940.1138,102.0328 940.7612,102.1822 Q941.4087,102.3316 941.9731,102.6305 L941.9731,105.3531 Q941.3423,104.7721 940.7488,104.5023 Q940.1553,104.2325 939.5244,104.2325 Q938.1797,104.2325 937.4949,105.2992 Q936.8101,106.3658 936.8101,108.4659 Q936.8101,110.5577 937.4949,111.6244 Q938.1797,112.691 939.5244,112.691 Q940.1553,112.691 940.7488,112.4212 Q941.3423,112.1515 941.9731,111.5704 Z " fill="#000000"/><text fill="#000000" font-family="sans-serif" font-size="12" lengthAdjust="spacing" textLength="63" x="953.5" y="112.6852">RelationSet</text><!--MD5=[30c8d4c59bd3776484494cc31a150236]
class asdi::idb::RuleSet--><rect codeLine="10" fill="#FEFECE" filter="url(#f1oqsolri8f0jq)" height="32" id="asdi::idb::RuleSet" style="stroke:#A80036;stroke-width:1.5;" width="74" x="1076" y="92.15"/><ellipse cx="1091" cy="108.15" fill="#ADD1B2" rx="11" ry="11" style="stroke:#A80036;stroke-width:1.0;"/><path d="M1093.4731,114.2931 Q1092.8921,114.5919 1092.2529,114.7413 Q1091.6138,114.8907 1090.9082,114.8907 Q1088.4014,114.8907 1087.0815,113.2389 Q1085.7617,111.587 1085.7617,108.4659 Q1085.7617,105.3365 1087.0815,103.6847 Q1088.4014,102.0328 1090.9082,102.0328 Q1091.6138,102.0328 1092.2612,102.1822 Q1092.9087,102.3316 1093.4731,102.6305 L1093.4731,105.3531 Q1092.8423,104.7721 1092.2488,104.5023 Q1091.6553,104.2325 1091.0244,104.2325 Q1089.6797,104.2325 1088.9949,105.2992 Q1088.3101,106.3658 1088.3101,108.4659 Q1088.3101,110.5577 1088.9949,111.6244 Q1089.6797,112.691 1091.0244,112.691 Q1091.6553,112.691 1092.2488,112.4212 Q1092.8423,112.1515 1093.4731,111.5704 Z " fill="#000000"/><text fill="#000000" font-family="sans-serif" font-size="12" lengthAdjust="spacing" textLength="42" x="1105" y="112.6852">RuleSet</text><!--MD5=[862f5ba143deaa96c11c433d25830988]
class asdi::idb::query::QuerySet--><rect codeLine="13" fill="#FEFECE" filter="url(#f1oqsolri8f0jq)" height="32" id="asdi::idb::query::QuerySet" style="stroke:#A80036;stroke-width:1.5;" width="83" x="1206.5" y="92.15"/><ellipse cx="1221.5" cy="108.15" fill="#ADD1B2" rx="11" ry="11" style="stroke:#A80036;stroke-width:1.0;"/><path d="M1223.9731,114.2931 Q1223.3921,114.5919 1222.7529,114.7413 Q1222.1138,114.8907 1221.4082,114.8907 Q1218.9014,114.8907 1217.5815,113.2389 Q1216.2617,111.587 1216.2617,108.4659 Q1216.2617,105.3365 1217.5815,103.6847 Q1218.9014,102.0328 1221.4082,102.0328 Q1222.1138,102.0328 1222.7612,102.1822 Q1223.4087,102.3316 1223.9731,102.6305 L1223.9731,105.3531 Q1223.3423,104.7721 1222.7488,104.5023 Q1222.1553,104.2325 1221.5244,104.2325 Q1220.1797,104.2325 1219.4949,105.2992 Q1218.8101,106.3658 1218.8101,108.4659 Q1218.8101,110.5577 1219.4949,111.6244 Q1220.1797,112.691 1221.5244,112.691 Q1222.1553,112.691 1222.7488,112.4212 Q1223.3423,112.1515 1223.9731,111.5704 Z " fill="#000000"/><text fill="#000000" font-family="sans-serif" font-size="12" lengthAdjust="spacing" textLength="51" x="1235.5" y="112.6852">QuerySet</text><!--MD5=[2110a1d684b71e50a272297f2c09c595]
class asdi::AttributeName--><rect codeLine="18" fill="#FEFECE" filter="url(#f1oqsolri8f0jq)" height="40" id="asdi::AttributeName" style="stroke:#A80036;stroke-width:1.5;" width="116" x="45" y="229.15"/><ellipse cx="60" cy="245.15" fill="#B4A7E5" rx="11" ry="11" style="stroke:#A80036;stroke-width:1.0;"/><path d="M56.4277,241.4151 L56.4277,239.2569 L63.8071,239.2569 L63.8071,241.4151 L61.3418,241.4151 L61.3418,249.4918 L63.8071,249.4918 L63.8071,251.65 L56.4277,251.65 L56.4277,249.4918 L58.8931,249.4918 L58.8931,241.4151 Z " fill="#000000"/><text fill="#000000" font-family="sans-serif" font-size="12" font-style="italic" lengthAdjust="spacing" textLength="84" x="74" y="249.6852">AttributeName</text><line style="stroke:#A80036;stroke-width:1.5;" x1="46" x2="160" y1="261.15" y2="261.15"/><!--MD5=[e8289714b7028f41fbfaeffd8c17c76d]
class asdi::Collection--><rect codeLine="19" fill="#FEFECE" filter="url(#f1oqsolri8f0jq)" height="40" id="asdi::Collection" style="stroke:#A80036;stroke-width:1.5;" width="99" x="196.5" y="229.15"/><ellipse cx="211.5" cy="245.15" fill="#B4A7E5" rx="11" ry="11" style="stroke:#A80036;stroke-width:1.0;"/><path d="M207.9277,241.4151 L207.9277,239.2569 L215.3071,239.2569 L215.3071,241.4151 L212.8418,241.4151 L212.8418,249.4918 L215.3071,249.4918 L215.3071,251.65 L207.9277,251.65 L207.9277,249.4918 L210.3931,249.4918 L210.3931,241.4151 Z " fill="#000000"/><text fill="#000000" font-family="sans-serif" font-size="12" font-style="italic" lengthAdjust="spacing" textLength="55" x="225.5" y="249.6852">Collection</text><rect fill="#FFFFFF" height="16.1328" style="stroke:#000000;stroke-width:1.0;stroke-dasharray:2.0,2.0;" width="10" x="288.5" y="226.15"/><text fill="#000000" font-family="sans-serif" font-size="12" font-style="italic" lengthAdjust="spacing" textLength="8" x="289.5" y="238.7516">T</text><line style="stroke:#A80036;stroke-width:1.5;" x1="197.5" x2="294.5" y1="261.15" y2="261.15"/><!--MD5=[ee47b5577acc389a92c0b1543b9a2c9a]
class asdi::IndexedCollection--><rect codeLine="20" fill="#FEFECE" filter="url(#f1oqsolri8f0jq)" height="40" id="asdi::IndexedCollection" style="stroke:#A80036;stroke-width:1.5;" width="158" x="591" y="88.15"/><ellipse cx="606" cy="104.15" fill="#B4A7E5" rx="11" ry="11" style="stroke:#A80036;stroke-width:1.0;"/><path d="M602.4277,100.4151 L602.4277,98.2569 L609.8071,98.2569 L609.8071,100.4151 L607.3418,100.4151 L607.3418,108.4918 L609.8071,108.4918 L609.8071,110.65 L602.4277,110.65 L602.4277,108.4918 L604.8931,108.4918 L604.8931,100.4151 Z " fill="#000000"/><text fill="#000000" font-family="sans-serif" font-size="12" font-style="italic" lengthAdjust="spacing" textLength="102" x="620" y="108.6852">IndexedCollection</text><rect fill="#FFFFFF" height="16.1328" style="stroke:#000000;stroke-width:1.0;stroke-dasharray:2.0,2.0;" width="22" x="730" y="85.15"/><text fill="#000000" font-family="sans-serif" font-size="12" font-style="italic" lengthAdjust="spacing" textLength="20" x="731" y="97.7516">K,V</text><line style="stroke:#A80036;stroke-width:1.5;" x1="592" x2="748" y1="120.15" y2="120.15"/><!--MD5=[a769fd774dc4e74f949d393dd195b319]
class asdi::Labeled--><rect codeLine="21" fill="#FEFECE" filter="url(#f1oqsolri8f0jq)" height="40" id="asdi::Labeled" style="stroke:#A80036;stroke-width:1.5;" width="78" x="478" y="88.15"/><ellipse cx="493" cy="104.15" fill="#B4A7E5" rx="11" ry="11" style="stroke:#A80036;stroke-width:1.0;"/><path d="M489.4277,100.4151 L489.4277,98.2569 L496.8071,98.2569 L496.8071,100.4151 L494.3418,100.4151 L494.3418,108.4918 L496.8071,108.4918 L496.8071,110.65 L489.4277,110.65 L489.4277,108.4918 L491.8931,108.4918 L491.8931,100.4151 Z " fill="#000000"/><text fill="#000000" font-family="sans-serif" font-size="12" font-style="italic" lengthAdjust="spacing" textLength="46" x="507" y="108.6852">Labeled</text><line style="stroke:#A80036;stroke-width:1.5;" x1="479" x2="555" y1="120.15" y2="120.15"/><!--MD5=[a36ef1bdba718ac7a4b8a2af506f0d6e]
class asdi::MaybeAnonymous--><rect codeLine="22" fill="#FEFECE" filter="url(#f1oqsolri8f0jq)" height="40" id="asdi::MaybeAnonymous" style="stroke:#A80036;stroke-width:1.5;" width="136" x="307" y="88.15"/><ellipse cx="322" cy="104.15" fill="#B4A7E5" rx="11" ry="11" style="stroke:#A80036;stroke-width:1.0;"/><path d="M318.4277,100.4151 L318.4277,98.2569 L325.8071,98.2569 L325.8071,100.4151 L323.3418,100.4151 L323.3418,108.4918 L325.8071,108.4918 L325.8071,110.65 L318.4277,110.65 L318.4277,108.4918 L320.8931,108.4918 L320.8931,100.4151 Z " fill="#000000"/><text fill="#000000" font-family="sans-serif" font-size="12" font-style="italic" lengthAdjust="spacing" textLength="104" x="336" y="108.6852">MaybeAnonymous</text><line style="stroke:#A80036;stroke-width:1.5;" x1="308" x2="442" y1="120.15" y2="120.15"/><!--MD5=[fa1011c7bd77eedf14cd9274bd452e29]
class asdi::MaybePositive--><rect codeLine="23" fill="#FEFECE" filter="url(#f1oqsolri8f0jq)" height="40" id="asdi::MaybePositive" style="stroke:#A80036;stroke-width:1.5;" width="113" x="330.5" y="229.15"/><ellipse cx="345.5" cy="245.15" fill="#B4A7E5" rx="11" ry="11" style="stroke:#A80036;stroke-width:1.0;"/><path d="M341.9277,241.4151 L341.9277,239.2569 L349.3071,239.2569 L349.3071,241.4151 L346.8418,241.4151 L346.8418,249.4918 L349.3071,249.4918 L349.3071,251.65 L341.9277,251.65 L341.9277,249.4918 L344.3931,249.4918 L344.3931,241.4151 Z " fill="#000000"/><text fill="#000000" font-family="sans-serif" font-size="12" font-style="italic" lengthAdjust="spacing" textLength="81" x="359.5" y="249.6852">MaybePositive</text><line style="stroke:#A80036;stroke-width:1.5;" x1="331.5" x2="442.5" y1="261.15" y2="261.15"/><!--MD5=[91cc3482fb0350396608f11633162af9]
class asdi::ProgramCore--><rect codeLine="24" fill="#FEFECE" filter="url(#f1oqsolri8f0jq)" height="40" id="asdi::ProgramCore" style="stroke:#A80036;stroke-width:1.5;" width="108" x="479" y="229.15"/><ellipse cx="494" cy="245.15" fill="#B4A7E5" rx="11" ry="11" style="stroke:#A80036;stroke-width:1.0;"/><path d="M490.4277,241.4151 L490.4277,239.2569 L497.8071,239.2569 L497.8071,241.4151 L495.3418,241.4151 L495.3418,249.4918 L497.8071,249.4918 L497.8071,251.65 L490.4277,251.65 L490.4277,249.4918 L492.8931,249.4918 L492.8931,241.4151 Z " fill="#000000"/><text fill="#000000" font-family="sans-serif" font-size="12" font-style="italic" lengthAdjust="spacing" textLength="76" x="508" y="249.6852">ProgramCore</text><line style="stroke:#A80036;stroke-width:1.5;" x1="480" x2="586" y1="261.15" y2="261.15"/><!--MD5=[842cd022249741fa742cbf18a1c342e8]
class asdi::AttributeNameRef--><rect codeLine="26" fill="#FEFECE" filter="url(#f1oqsolri8f0jq)" height="54.2656" id="asdi::AttributeNameRef" style="stroke:#A80036;stroke-width:1.5;" width="239" x="32.5" y="81.15"/><ellipse cx="47.5" cy="100.2828" fill="#ADD1B2" rx="11" ry="11" style="stroke:#A80036;stroke-width:1.0;"/><path d="M48.8418,107.5328 L46.3931,107.5328 L46.3931,97.2813 L43.2471,97.2813 L43.2471,95.1397 L51.9878,95.1397 L51.9878,97.2813 L48.8418,97.2813 Z " fill="#000000"/><text fill="#000000" font-family="sans-serif" font-size="12" font-style="italic" lengthAdjust="spacing" textLength="37" x="94.5" y="97.7516">«type»</text><text fill="#000000" font-family="sans-serif" font-size="12" lengthAdjust="spacing" textLength="103" x="61.5" y="111.8844">AttributeNameRef</text><rect fill="#FFFFFF" height="16.1328" style="stroke:#000000;stroke-width:1.0;stroke-dasharray:2.0,2.0;" width="102" x="172.5" y="78.15"/><text fill="#000000" font-family="sans-serif" font-size="12" font-style="italic" lengthAdjust="spacing" textLength="100" x="173.5" y="90.7516">T: AttributeName</text><line style="stroke:#A80036;stroke-width:1.5;" x1="33.5" x2="270.5" y1="119.4156" y2="119.4156"/><line style="stroke:#A80036;stroke-width:1.5;" x1="33.5" x2="270.5" y1="127.4156" y2="127.4156"/><!--MD5=[e100aaab0c0471c95922bb19270262c9]
class asdi::NameReferenceSet--><rect codeLine="27" fill="#FEFECE" filter="url(#f1oqsolri8f0jq)" height="48" id="asdi::NameReferenceSet" style="stroke:#A80036;stroke-width:1.5;" width="245" x="622.5" y="225.15"/><ellipse cx="637.5" cy="241.15" fill="#ADD1B2" rx="11" ry="11" style="stroke:#A80036;stroke-width:1.0;"/><path d="M639.9731,247.2931 Q639.3921,247.5919 638.7529,247.7413 Q638.1138,247.8907 637.4082,247.8907 Q634.9014,247.8907 633.5815,246.2389 Q632.2617,244.587 632.2617,241.4659 Q632.2617,238.3365 633.5815,236.6847 Q634.9014,235.0328 637.4082,235.0328 Q638.1138,235.0328 638.7612,235.1822 Q639.4087,235.3316 639.9731,235.6305 L639.9731,238.3531 Q639.3423,237.7721 638.7488,237.5023 Q638.1553,237.2325 637.5244,237.2325 Q636.1797,237.2325 635.4949,238.2992 Q634.8101,239.3658 634.8101,241.4659 Q634.8101,243.5577 635.4949,244.6244 Q636.1797,245.691 637.5244,245.691 Q638.1553,245.691 638.7488,245.4212 Q639.3423,245.1515 639.9731,244.5704 Z " fill="#000000"/><text fill="#000000" font-family="sans-serif" font-size="12" lengthAdjust="spacing" textLength="109" x="651.5" y="245.6852">NameReferenceSet</text><rect fill="#FFFFFF" height="16.1328" style="stroke:#000000;stroke-width:1.0;stroke-dasharray:2.0,2.0;" width="102" x="768.5" y="222.15"/><text fill="#000000" font-family="sans-serif" font-size="12" font-style="italic" lengthAdjust="spacing" textLength="100" x="769.5" y="234.7516">T: AttributeName</text><line style="stroke:#A80036;stroke-width:1.5;" x1="623.5" x2="866.5" y1="257.15" y2="257.15"/><line style="stroke:#A80036;stroke-width:1.5;" x1="623.5" x2="866.5" y1="265.15" y2="265.15"/><!--MD5=[619a18f3975bec44ed0f3b908af212c9]
class asdi::Program--><rect codeLine="28" fill="#FEFECE" filter="url(#f1oqsolri8f0jq)" height="48" id="asdi::Program" style="stroke:#A80036;stroke-width:1.5;" width="84" x="784" y="84.15"/><ellipse cx="799" cy="100.15" fill="#ADD1B2" rx="11" ry="11" style="stroke:#A80036;stroke-width:1.0;"/><path d="M801.4731,106.2931 Q800.8921,106.5919 800.2529,106.7413 Q799.6138,106.8907 798.9082,106.8907 Q796.4014,106.8907 795.0815,105.2389 Q793.7617,103.587 793.7617,100.4659 Q793.7617,97.3365 795.0815,95.6847 Q796.4014,94.0328 798.9082,94.0328 Q799.6138,94.0328 800.2612,94.1822 Q800.9087,94.3316 801.4731,94.6305 L801.4731,97.3531 Q800.8423,96.7721 800.2488,96.5023 Q799.6553,96.2325 799.0244,96.2325 Q797.6797,96.2325 796.9949,97.2992 Q796.3101,98.3658 796.3101,100.4659 Q796.3101,102.5577 796.9949,103.6244 Q797.6797,104.691 799.0244,104.691 Q799.6553,104.691 800.2488,104.4212 Q800.8423,104.1515 801.4731,103.5704 Z " fill="#000000"/><text fill="#000000" font-family="sans-serif" font-size="12" font-weight="bold" lengthAdjust="spacing" textLength="52" x="813" y="104.6852">Program</text><line style="stroke:#A80036;stroke-width:1.5;" x1="785" x2="867" y1="116.15" y2="116.15"/><line style="stroke:#A80036;stroke-width:1.5;" x1="785" x2="867" y1="124.15" y2="124.15"/><!--MD5=[011ca43a3a27a88ec64181b14c315f9b]
link asdi::AttributeNameRef to asdi::AttributeName--><path codeLine="30" d="M138.7841,146.6052 C138.7841,146.6052 121.4,195.95 114.19,216.41 " fill="none" id="asdi::AttributeNameRef-asdi::AttributeName" style="stroke:#A80036;stroke-width:1.0;"/><polygon fill="#A80036" points="109.81,228.83,116.5787,221.6756,111.475,224.1154,109.0352,219.0117,109.81,228.83" style="stroke:#A80036;stroke-width:1.0;"/><line style="stroke:#A80036;stroke-width:1.0;" x1="111.475" x2="114.13" y1="224.1154" y2="216.575"/><polygon fill="none" points="142.78,135.29,137.0103,139.6156,138.7841,146.6052,144.5538,142.2795,142.78,135.29" style="stroke:#A80036;stroke-width:1.0;"/><text fill="#000000" font-family="sans-serif" font-size="13" lengthAdjust="spacing" textLength="26" x="133" y="178.7184">«rc»</text><!--MD5=[050da77a24a9253f629d0b4ed41f1d76]
link asdi::IndexedCollection to asdi::Collection--><path codeLine="32" d="M628.66,128.34 C611.98,135.44 592.36,143.01 574,148.15 C460.85,179.8 419.47,140.47 313,190.15 C299.95,196.24 287.48,205.63 276.91,215.1 " fill="none" id="asdi::IndexedCollection-to-asdi::Collection" style="stroke:#A80036;stroke-width:1.0;"/><polygon fill="none" points="281.73,220.18,262.51,229.11,271.97,210.14,281.73,220.18" style="stroke:#A80036;stroke-width:1.0;"/><!--MD5=[61548d7db5417584fce196914e269885]
link asdi::Program to asdi::ProgramCore--><path codeLine="34" d="M795.26,132.22 C786.47,138.04 776.65,143.86 767,148.15 C699.05,178.4 671.45,156.74 605,190.15 C591.7,196.84 578.59,206.29 567.28,215.62 " fill="none" id="asdi::Program-to-asdi::ProgramCore" style="stroke:#A80036;stroke-width:1.0;stroke-dasharray:7.0,7.0;"/><polygon fill="none" points="571.82,220.95,552.18,228.88,562.59,210.43,571.82,220.95" style="stroke:#A80036;stroke-width:1.0;"/><!--MD5=[44e9340b47c8de994572dde550f90837]
link asdi::Program to asdi::MaybePositive--><path codeLine="35" d="M796.85,132.33 C787.77,138.45 777.39,144.38 767,148.15 C703.09,171.31 682.34,155.89 615,165.15 C546.74,174.54 525.19,162.68 462,190.15 C447.64,196.4 433.59,206.01 421.61,215.63 " fill="none" id="asdi::Program-to-asdi::MaybePositive" style="stroke:#A80036;stroke-width:1.0;stroke-dasharray:7.0,7.0;"/><polygon fill="none" points="425.95,221.13,406.22,228.88,416.81,210.52,425.95,221.13" style="stroke:#A80036;stroke-width:1.0;"/><!--MD5=[e94c0743ecc1c9d4c9cbff37731f6d53]
link asdi::Program to asdi::features::FeatureSet--><path codeLine="36" d="M858.7355,140.7523 C858.7355,140.7523 921.03,200.88 944.64,223.67 " fill="none" id="asdi::Program-asdi::features::FeatureSet" style="stroke:#A80036;stroke-width:1.0;"/><polygon fill="#A80036" points="954.28,232.98,950.5877,223.8494,950.6845,229.5055,945.0285,229.6022,954.28,232.98" style="stroke:#A80036;stroke-width:1.0;"/><line style="stroke:#A80036;stroke-width:1.0;" x1="950.6845" x2="944.93" y1="229.5055" y2="223.95"/><polygon fill="#A80036" points="850.1,132.42,851.6403,139.4647,858.7355,140.7523,857.1952,133.7076,850.1,132.42" style="stroke:#A80036;stroke-width:1.0;"/><!--MD5=[a799d3efe97cfaf5b911b73b283fffd2]
link asdi::Program to asdi::edb::RelationSet--><path codeLine="37" d="M880.0424,124.8886 C880.0424,124.8886 901.17,126.47 911.1,125.66 " fill="none" id="asdi::Program-asdi::edb::RelationSet" style="stroke:#A80036;stroke-width:1.0;"/><polygon fill="#A80036" points="924.16,124.01,914.7299,121.1688,919.1994,124.6363,915.7319,129.1058,924.16,124.01" style="stroke:#A80036;stroke-width:1.0;"/><line style="stroke:#A80036;stroke-width:1.0;" x1="919.1994" x2="911.26" y1="124.6363" y2="125.635"/><polygon fill="#A80036" points="868.2,122.95,873.475,127.8667,880.0424,124.8886,874.7674,119.9718,868.2,122.95" style="stroke:#A80036;stroke-width:1.0;"/><text fill="#000000" font-family="sans-serif" font-size="13" lengthAdjust="spacing" textLength="73" x="920.2619" y="144.6617">extensional</text><!--MD5=[a799d3efe97cfaf5b911b73b283fffd2]
link asdi::Program to asdi::edb::RelationSet--><path codeLine="38" d="M880.0424,91.4114 C880.0424,91.4114 901.17,89.83 911.1,90.64 " fill="none" id="asdi::Program-asdi::edb::RelationSet-1" style="stroke:#A80036;stroke-width:1.0;"/><polygon fill="#A80036" points="924.16,92.29,915.7319,87.1942,919.1994,91.6637,914.7299,95.1312,924.16,92.29" style="stroke:#A80036;stroke-width:1.0;"/><line style="stroke:#A80036;stroke-width:1.0;" x1="919.1994" x2="911.26" y1="91.6637" y2="90.665"/><polygon fill="#A80036" points="868.2,93.35,874.7674,96.3282,880.0424,91.4114,873.475,88.4333,868.2,93.35" style="stroke:#A80036;stroke-width:1.0;"/><text fill="#000000" font-family="sans-serif" font-size="13" lengthAdjust="spacing" textLength="70" x="919.4253" y="81.3016">intensional</text><!--MD5=[0f15252b4738b16c222587f165b2bb57]
link asdi::Program to asdi::NameReferenceSet--><path codeLine="39" d="M795.7064,142.2141 C795.7064,142.2141 764.72,191.5 754.26,212.94 " fill="none" id="asdi::Program-asdi::NameReferenceSet" style="stroke:#A80036;stroke-width:1.0;"/><polygon fill="#A80036" points="748.78,224.81,756.1819,218.3129,750.8742,220.2697,748.9174,214.9621,748.78,224.81" style="stroke:#A80036;stroke-width:1.0;"/><line style="stroke:#A80036;stroke-width:1.0;" x1="750.8742" x2="754.23" y1="220.2697" y2="213.005"/><polygon fill="#A80036" points="802.64,132.42,795.9085,135.0058,795.7064,142.2141,802.4379,139.6283,802.64,132.42" style="stroke:#A80036;stroke-width:1.0;"/><text fill="#000000" font-family="sans-serif" font-size="13" lengthAdjust="spacing" textLength="65" x="676.4205" y="214.2591">predicates</text><!--MD5=[0f15252b4738b16c222587f165b2bb57]
link asdi::Program to asdi::NameReferenceSet--><path codeLine="40" d="M817.8683,143.3462 C817.8683,143.3462 791.22,192.9 776.68,214.05 " fill="none" id="asdi::Program-asdi::NameReferenceSet-1" style="stroke:#A80036;stroke-width:1.0;"/><polygon fill="#A80036" points="769,224.81,777.488,219.8146,771.9078,220.7424,770.9799,215.1622,769,224.81" style="stroke:#A80036;stroke-width:1.0;"/><line style="stroke:#A80036;stroke-width:1.0;" x1="771.9078" x2="776.55" y1="220.7424" y2="214.225"/><polygon fill="#A80036" points="822.83,132.42,816.7071,136.2292,817.8683,143.3462,823.9912,139.537,822.83,132.42" style="stroke:#A80036;stroke-width:1.0;"/><text fill="#000000" font-family="sans-serif" font-size="13" lengthAdjust="spacing" textLength="56" x="782.325" y="214.2591">variables</text><!--MD5=[099bf523dd3f9c548e54c7ed2b6adc9f]
link asdi::Program to asdi::idb::RuleSet--><path codeLine="41" d="M853.6418,74.9562 C853.6418,74.9562 897.73,33.4 925.5,23.15 C964.28,8.84 979.73,8.81 1018.5,23.15 C1049.2,34.51 1076.05,61.24 1093.21,81.72 " fill="none" id="asdi::Program-asdi::idb::RuleSet" style="stroke:#A80036;stroke-width:1.0;"/><polygon fill="#A80036" points="1101.48,92.03,1098.9583,82.5094,1098.3471,88.1332,1092.7234,87.522,1101.48,92.03" style="stroke:#A80036;stroke-width:1.0;"/><line style="stroke:#A80036;stroke-width:1.0;" x1="1098.3471" x2="1093.345" y1="88.1332" y2="81.89"/><polygon fill="#A80036" points="845.52,83.79,852.5255,82.0804,853.6418,74.9562,846.6363,76.6658,845.52,83.79" style="stroke:#A80036;stroke-width:1.0;"/><!--MD5=[fedb9724573343aae7598a72889cad8e]
link asdi::Program to asdi::idb::query::QuerySet--><path codeLine="42" d="M853.6418,74.9562 C853.6418,74.9562 897.73,33.4 925.5,23.15 C971.99,6 1102.01,6 1148.5,23.15 C1180.26,34.87 1208.76,61.75 1227.04,82.17 " fill="none" id="asdi::Program-asdi::idb::query::QuerySet" style="stroke:#A80036;stroke-width:1.0;"/><polygon fill="#A80036" points="1235.62,92.14,1232.7797,82.7096,1232.3579,88.3507,1226.7168,87.9289,1235.62,92.14" style="stroke:#A80036;stroke-width:1.0;"/><line style="stroke:#A80036;stroke-width:1.0;" x1="1232.3579" x2="1227.14" y1="88.3507" y2="82.29"/><polygon fill="#A80036" points="845.52,83.79,852.5255,82.0804,853.6418,74.9562,846.6363,76.6658,845.52,83.79" style="stroke:#A80036;stroke-width:1.0;"/><!--MD5=[de9957a8bee9f16b0ea6d9cd73d11f18]
@startuml

!include options.plantuml

class asdi::features::FeatureSet
hide "asdi::features::FeatureSet" members

class asdi::edb::RelationSet
hide "asdi::edb::RelationSet" members

class asdi::idb::RuleSet
hide "asdi::idb::RuleSet" members

class asdi::idb::query::QuerySet
hide "asdi::idb::query::QuerySet" members

namespace asdi {

    interface AttributeName
    interface Collection<T>
    interface IndexedCollection<K,V>
    interface Labeled
    interface MaybeAnonymous
    interface MaybePositive
    interface ProgramCore

    class AttributeNameRef<T: AttributeName> << (T,#ADD1B2) type>>
    class NameReferenceSet<T: AttributeName>
    class "**Program**" as Program

    AttributeNameRef o-down-> AttributeName: <<rc>>

    IndexedCollection - -|> Collection

    Program ..|> ProgramCore
    Program ..|> MaybePositive
    Program *- -> asdi::features::FeatureSet
    Program *-> "extensional" asdi::edb::RelationSet
    Program *- -> "intensional" asdi::edb::RelationSet
    Program *- -> "predicates" NameReferenceSet
    Program *- -> "variables" NameReferenceSet
    Program *-> asdi::idb::RuleSet
    Program *-> asdi::idb::query::QuerySet
}

@enduml

@startuml

set namespaceSeparator ::
hide enum methods
hide interface fields
hide << const >> members
hide << type >> members
hide << type >> stereotype
hide << module >> fields
hide << module >> circle

class asdi::features::FeatureSet
hide "asdi::features::FeatureSet" members

class asdi::edb::RelationSet
hide "asdi::edb::RelationSet" members

class asdi::idb::RuleSet
hide "asdi::idb::RuleSet" members

class asdi::idb::query::QuerySet
hide "asdi::idb::query::QuerySet" members

namespace asdi {

    interface AttributeName
    interface Collection<T>
    interface IndexedCollection<K,V>
    interface Labeled
    interface MaybeAnonymous
    interface MaybePositive
    interface ProgramCore

    class AttributeNameRef<T: AttributeName> << (T,#ADD1B2) type>>
    class NameReferenceSet<T: AttributeName>
    class "**Program**" as Program

    AttributeNameRef o-down-> AttributeName: <<rc>>

    IndexedCollection - -|> Collection

    Program ..|> ProgramCore
    Program ..|> MaybePositive
    Program *- -> asdi::features::FeatureSet
    Program *-> "extensional" asdi::edb::RelationSet
    Program *- -> "intensional" asdi::edb::RelationSet
    Program *- -> "predicates" NameReferenceSet
    Program *- -> "variables" NameReferenceSet
    Program *-> asdi::idb::RuleSet
    Program *-> asdi::idb::query::QuerySet
}

@enduml

PlantUML version 1.2022.1(Tue Feb 01 10:19:58 PST 2022)
(GPL source distribution)
Java Runtime: OpenJDK Runtime Environment
JVM: OpenJDK 64-Bit Server VM
Default Encoding: UTF-8
Language: en
Country: US
--></g></svg>