<?xml version="1.0" encoding="UTF-8" standalone="no"?><svg xmlns="http://www.w3.org/2000/svg" xmlns:xlink="http://www.w3.org/1999/xlink" contentScriptType="application/ecmascript" contentStyleType="text/css" height="415px" preserveAspectRatio="none" style="width:1047px;height:415px;background:#FFFFFF;" version="1.1" viewBox="0 0 1047 415" width="1047px" zoomAndPan="magnify"><defs><filter height="300%" id="fiq06ctye92zk" width="300%" x="-1" y="-1"><feGaussianBlur result="blurOut" stdDeviation="2.0"/><feColorMatrix in="blurOut" result="blurOut2" type="matrix" values="0 0 0 0 0 0 0 0 0 0 0 0 0 0 0 0 0 0 .4 0"/><feOffset dx="4.0" dy="4.0" in="blurOut2" result="blurOut3"/><feBlend in="SourceGraphic" in2="blurOut3" mode="normal"/></filter></defs><g><!--MD5=[af63c64fec698275cfc4891f303451d3]
cluster asdi::features--><polygon fill="#FFFFFF" filter="url(#fiq06ctye92zk)" points="16,6,117,6,124,28.4883,140,28.4883,140,89,16,89,16,6" style="stroke:#000000;stroke-width:1.5;"/><line style="stroke:#000000;stroke-width:1.5;" x1="16" x2="124" y1="28.4883" y2="28.4883"/><text fill="#000000" font-family="sans-serif" font-size="14" font-weight="bold" lengthAdjust="spacing" textLength="95" x="20" y="21.5352">asdi::features</text><!--MD5=[6bc3af5db4038e5494ba0622f07de59b]
cluster asdi::edb--><polygon fill="#FFFFFF" filter="url(#fiq06ctye92zk)" points="164,6,232,6,239,28.4883,468,28.4883,468,89,164,89,164,6" style="stroke:#000000;stroke-width:1.5;"/><line style="stroke:#000000;stroke-width:1.5;" x1="164" x2="239" y1="28.4883" y2="28.4883"/><text fill="#000000" font-family="sans-serif" font-size="14" font-weight="bold" lengthAdjust="spacing" textLength="62" x="168" y="21.5352">asdi::edb</text><!--MD5=[ae3c197a01158459eb2ddb806e23d6f2]
cluster asdi::idb--><polygon fill="#FFFFFF" filter="url(#fiq06ctye92zk)" points="492,6,557,6,564,28.4883,598,28.4883,598,89,492,89,492,6" style="stroke:#000000;stroke-width:1.5;"/><line style="stroke:#000000;stroke-width:1.5;" x1="492" x2="564" y1="28.4883" y2="28.4883"/><text fill="#000000" font-family="sans-serif" font-size="14" font-weight="bold" lengthAdjust="spacing" textLength="59" x="496" y="21.5352">asdi::idb</text><!--MD5=[331bdf5c2291f41e90a08533bcc43e12]
cluster asdi::idb::query--><polygon fill="#FFFFFF" filter="url(#fiq06ctye92zk)" points="622,6,733,6,740,28.4883,743,28.4883,743,89,622,89,622,6" style="stroke:#000000;stroke-width:1.5;"/><line style="stroke:#000000;stroke-width:1.5;" x1="622" x2="740" y1="28.4883" y2="28.4883"/><text fill="#000000" font-family="sans-serif" font-size="14" font-weight="bold" lengthAdjust="spacing" textLength="105" x="626" y="21.5352">asdi::idb::query</text><!--MD5=[e274c4916ac42ef1c11391a83d303c10]
cluster asdi--><polygon fill="#FFFFFF" filter="url(#fiq06ctye92zk)" points="73,122,109,122,116,144.4883,1030,144.4883,1030,408,73,408,73,122" style="stroke:#000000;stroke-width:1.5;"/><line style="stroke:#000000;stroke-width:1.5;" x1="73" x2="116" y1="144.4883" y2="144.4883"/><text fill="#000000" font-family="sans-serif" font-size="14" font-weight="bold" lengthAdjust="spacing" textLength="30" x="77" y="137.5352">asdi</text><!--MD5=[10e3bb9f30c83b84488054de99f42877]
class asdi::features::FeatureSet--><rect codeLine="4" fill="#FEFECE" filter="url(#fiq06ctye92zk)" height="32" id="asdi::features::FeatureSet" style="stroke:#A80036;stroke-width:1.5;" width="92" x="32" y="41"/><ellipse cx="47" cy="57" fill="#ADD1B2" rx="11" ry="11" style="stroke:#A80036;stroke-width:1.0;"/><path d="M49.4731,63.1431 Q48.8921,63.4419 48.2529,63.5913 Q47.6138,63.7407 46.9082,63.7407 Q44.4014,63.7407 43.0815,62.0889 Q41.7617,60.437 41.7617,57.3159 Q41.7617,54.1865 43.0815,52.5347 Q44.4014,50.8828 46.9082,50.8828 Q47.6138,50.8828 48.2612,51.0322 Q48.9087,51.1816 49.4731,51.4805 L49.4731,54.2031 Q48.8423,53.6221 48.2488,53.3523 Q47.6553,53.0825 47.0244,53.0825 Q45.6797,53.0825 44.9949,54.1492 Q44.3101,55.2158 44.3101,57.3159 Q44.3101,59.4077 44.9949,60.4744 Q45.6797,61.541 47.0244,61.541 Q47.6553,61.541 48.2488,61.2712 Q48.8423,61.0015 49.4731,60.4204 Z " fill="#000000"/><text fill="#000000" font-family="sans-serif" font-size="12" lengthAdjust="spacing" textLength="60" x="61" y="61.5352">FeatureSet</text><!--MD5=[6137f69857c1321f4d06c717c9c09db2]
class asdi::edb::RelationSet--><rect codeLine="7" fill="#FEFECE" filter="url(#fiq06ctye92zk)" height="32" id="asdi::edb::RelationSet" style="stroke:#A80036;stroke-width:1.5;" width="95" x="356.5" y="41"/><ellipse cx="371.5" cy="57" fill="#ADD1B2" rx="11" ry="11" style="stroke:#A80036;stroke-width:1.0;"/><path d="M373.9731,63.1431 Q373.3921,63.4419 372.7529,63.5913 Q372.1138,63.7407 371.4082,63.7407 Q368.9014,63.7407 367.5815,62.0889 Q366.2617,60.437 366.2617,57.3159 Q366.2617,54.1865 367.5815,52.5347 Q368.9014,50.8828 371.4082,50.8828 Q372.1138,50.8828 372.7612,51.0322 Q373.4087,51.1816 373.9731,51.4805 L373.9731,54.2031 Q373.3423,53.6221 372.7488,53.3523 Q372.1553,53.0825 371.5244,53.0825 Q370.1797,53.0825 369.4949,54.1492 Q368.8101,55.2158 368.8101,57.3159 Q368.8101,59.4077 369.4949,60.4744 Q370.1797,61.541 371.5244,61.541 Q372.1553,61.541 372.7488,61.2712 Q373.3423,61.0015 373.9731,60.4204 Z " fill="#000000"/><text fill="#000000" font-family="sans-serif" font-size="12" lengthAdjust="spacing" textLength="63" x="385.5" y="61.5352">RelationSet</text><!--MD5=[e0d85c4bcf038627e4eac8520bbb7a23]
class asdi::edb::NameReferenceSet--><rect codeLine="10" fill="#FEFECE" filter="url(#fiq06ctye92zk)" height="32" id="asdi::edb::NameReferenceSet" style="stroke:#A80036;stroke-width:1.5;" width="141" x="180.5" y="41"/><ellipse cx="195.5" cy="57" fill="#ADD1B2" rx="11" ry="11" style="stroke:#A80036;stroke-width:1.0;"/><path d="M197.9731,63.1431 Q197.3921,63.4419 196.7529,63.5913 Q196.1138,63.7407 195.4082,63.7407 Q192.9014,63.7407 191.5815,62.0889 Q190.2617,60.437 190.2617,57.3159 Q190.2617,54.1865 191.5815,52.5347 Q192.9014,50.8828 195.4082,50.8828 Q196.1138,50.8828 196.7612,51.0322 Q197.4087,51.1816 197.9731,51.4805 L197.9731,54.2031 Q197.3423,53.6221 196.7488,53.3523 Q196.1553,53.0825 195.5244,53.0825 Q194.1797,53.0825 193.4949,54.1492 Q192.8101,55.2158 192.8101,57.3159 Q192.8101,59.4077 193.4949,60.4744 Q194.1797,61.541 195.5244,61.541 Q196.1553,61.541 196.7488,61.2712 Q197.3423,61.0015 197.9731,60.4204 Z " fill="#000000"/><text fill="#000000" font-family="sans-serif" font-size="12" lengthAdjust="spacing" textLength="109" x="209.5" y="61.5352">NameReferenceSet</text><!--MD5=[30c8d4c59bd3776484494cc31a150236]
class asdi::idb::RuleSet--><rect codeLine="13" fill="#FEFECE" filter="url(#fiq06ctye92zk)" height="32" id="asdi::idb::RuleSet" style="stroke:#A80036;stroke-width:1.5;" width="74" x="508" y="41"/><ellipse cx="523" cy="57" fill="#ADD1B2" rx="11" ry="11" style="stroke:#A80036;stroke-width:1.0;"/><path d="M525.4731,63.1431 Q524.8921,63.4419 524.2529,63.5913 Q523.6138,63.7407 522.9082,63.7407 Q520.4014,63.7407 519.0815,62.0889 Q517.7617,60.437 517.7617,57.3159 Q517.7617,54.1865 519.0815,52.5347 Q520.4014,50.8828 522.9082,50.8828 Q523.6138,50.8828 524.2612,51.0322 Q524.9087,51.1816 525.4731,51.4805 L525.4731,54.2031 Q524.8423,53.6221 524.2488,53.3523 Q523.6553,53.0825 523.0244,53.0825 Q521.6797,53.0825 520.9949,54.1492 Q520.3101,55.2158 520.3101,57.3159 Q520.3101,59.4077 520.9949,60.4744 Q521.6797,61.541 523.0244,61.541 Q523.6553,61.541 524.2488,61.2712 Q524.8423,61.0015 525.4731,60.4204 Z " fill="#000000"/><text fill="#000000" font-family="sans-serif" font-size="12" lengthAdjust="spacing" textLength="42" x="537" y="61.5352">RuleSet</text><!--MD5=[862f5ba143deaa96c11c433d25830988]
class asdi::idb::query::QuerySet--><rect codeLine="16" fill="#FEFECE" filter="url(#fiq06ctye92zk)" height="32" id="asdi::idb::query::QuerySet" style="stroke:#A80036;stroke-width:1.5;" width="83" x="638.5" y="41"/><ellipse cx="653.5" cy="57" fill="#ADD1B2" rx="11" ry="11" style="stroke:#A80036;stroke-width:1.0;"/><path d="M655.9731,63.1431 Q655.3921,63.4419 654.7529,63.5913 Q654.1138,63.7407 653.4082,63.7407 Q650.9014,63.7407 649.5815,62.0889 Q648.2617,60.437 648.2617,57.3159 Q648.2617,54.1865 649.5815,52.5347 Q650.9014,50.8828 653.4082,50.8828 Q654.1138,50.8828 654.7612,51.0322 Q655.4087,51.1816 655.9731,51.4805 L655.9731,54.2031 Q655.3423,53.6221 654.7488,53.3523 Q654.1553,53.0825 653.5244,53.0825 Q652.1797,53.0825 651.4949,54.1492 Q650.8101,55.2158 650.8101,57.3159 Q650.8101,59.4077 651.4949,60.4744 Q652.1797,61.541 653.5244,61.541 Q654.1553,61.541 654.7488,61.2712 Q655.3423,61.0015 655.9731,60.4204 Z " fill="#000000"/><text fill="#000000" font-family="sans-serif" font-size="12" lengthAdjust="spacing" textLength="51" x="667.5" y="61.5352">QuerySet</text><!--MD5=[2110a1d684b71e50a272297f2c09c595]
class asdi::AttributeName--><rect codeLine="21" fill="#FEFECE" filter="url(#fiq06ctye92zk)" height="65.9102" id="asdi::AttributeName" style="stroke:#A80036;stroke-width:1.5;" width="128" x="145" y="313"/><ellipse cx="165.4" cy="329" fill="#B4A7E5" rx="11" ry="11" style="stroke:#A80036;stroke-width:1.0;"/><path d="M161.8277,325.2651 L161.8277,323.1069 L169.2071,323.1069 L169.2071,325.2651 L166.7418,325.2651 L166.7418,333.3418 L169.2071,333.3418 L169.2071,335.5 L161.8277,335.5 L161.8277,333.3418 L164.2931,333.3418 L164.2931,325.2651 Z " fill="#000000"/><text fill="#000000" font-family="sans-serif" font-size="12" font-style="italic" lengthAdjust="spacing" textLength="84" x="180.6" y="333.5352">AttributeName</text><line style="stroke:#A80036;stroke-width:1.5;" x1="146" x2="272" y1="345" y2="345"/><text fill="#000000" font-family="sans-serif" font-size="11" lengthAdjust="spacing" textLength="116" x="151" y="359.6348">is_valid(s: &amp;str) : bool</text><text fill="#000000" font-family="sans-serif" font-size="11" lengthAdjust="spacing" textLength="98" x="151" y="372.5898">type_name() : &amp;str</text><!--MD5=[e8289714b7028f41fbfaeffd8c17c76d]
class asdi::Collection--><rect codeLine="25" fill="#FEFECE" filter="url(#fiq06ctye92zk)" height="91.8203" id="asdi::Collection" style="stroke:#A80036;stroke-width:1.5;" width="126" x="858" y="300"/><ellipse cx="885.15" cy="316" fill="#B4A7E5" rx="11" ry="11" style="stroke:#A80036;stroke-width:1.0;"/><path d="M881.5777,312.2651 L881.5777,310.1069 L888.9571,310.1069 L888.9571,312.2651 L886.4918,312.2651 L886.4918,320.3418 L888.9571,320.3418 L888.9571,322.5 L881.5777,322.5 L881.5777,320.3418 L884.0431,320.3418 L884.0431,312.2651 Z " fill="#000000"/><text fill="#000000" font-family="sans-serif" font-size="12" font-style="italic" lengthAdjust="spacing" textLength="55" x="901.85" y="320.5352">Collection</text><rect fill="#FFFFFF" height="16.1328" style="stroke:#000000;stroke-width:1.0;stroke-dasharray:2.0,2.0;" width="10" x="977" y="297"/><text fill="#000000" font-family="sans-serif" font-size="12" font-style="italic" lengthAdjust="spacing" textLength="8" x="978" y="309.6016">T</text><line style="stroke:#A80036;stroke-width:1.5;" x1="859" x2="983" y1="332" y2="332"/><text fill="#000000" font-family="sans-serif" font-size="11" lengthAdjust="spacing" textLength="89" x="864" y="346.6348">is_empty() : bool</text><text fill="#000000" font-family="sans-serif" font-size="11" lengthAdjust="spacing" textLength="61" x="864" y="359.5898">len() : usize</text><text fill="#000000" font-family="sans-serif" font-size="11" lengthAdjust="spacing" textLength="75" x="864" y="372.5449">iter() : Iterator</text><text fill="#000000" font-family="sans-serif" font-size="11" lengthAdjust="spacing" textLength="114" x="864" y="385.5">contains(v: &amp;T) : bool</text><!--MD5=[ee47b5577acc389a92c0b1543b9a2c9a]
class asdi::IndexedCollection--><rect codeLine="31" fill="#FEFECE" filter="url(#fiq06ctye92zk)" height="65.9102" id="asdi::IndexedCollection" style="stroke:#A80036;stroke-width:1.5;" width="186" x="828" y="157"/><ellipse cx="855.6" cy="173" fill="#B4A7E5" rx="11" ry="11" style="stroke:#A80036;stroke-width:1.0;"/><path d="M852.0277,169.2651 L852.0277,167.1069 L859.4071,167.1069 L859.4071,169.2651 L856.9418,169.2651 L856.9418,177.3418 L859.4071,177.3418 L859.4071,179.5 L852.0277,179.5 L852.0277,177.3418 L854.4931,177.3418 L854.4931,169.2651 Z " fill="#000000"/><text fill="#000000" font-family="sans-serif" font-size="12" font-style="italic" lengthAdjust="spacing" textLength="102" x="872.4" y="177.5352">IndexedCollection</text><rect fill="#FFFFFF" height="16.1328" style="stroke:#000000;stroke-width:1.0;stroke-dasharray:2.0,2.0;" width="22" x="995" y="154"/><text fill="#000000" font-family="sans-serif" font-size="12" font-style="italic" lengthAdjust="spacing" textLength="20" x="996" y="166.6016">K,V</text><line style="stroke:#A80036;stroke-width:1.5;" x1="829" x2="1013" y1="189" y2="189"/><text fill="#000000" font-family="sans-serif" font-size="11" lengthAdjust="spacing" textLength="147" x="834" y="203.6348">get(index: &amp;K) : Option&lt;V&gt;</text><text fill="#000000" font-family="sans-serif" font-size="11" lengthAdjust="spacing" textLength="174" x="834" y="216.5898">contains_index(index: &amp;K) : bool</text><!--MD5=[a769fd774dc4e74f949d393dd195b319]
class asdi::Labeled--><rect codeLine="35" fill="#FEFECE" filter="url(#fiq06ctye92zk)" height="65.9102" id="asdi::Labeled" style="stroke:#A80036;stroke-width:1.5;" width="141" x="651.5" y="157"/><ellipse cx="694.85" cy="173" fill="#B4A7E5" rx="11" ry="11" style="stroke:#A80036;stroke-width:1.0;"/><path d="M691.2777,169.2651 L691.2777,167.1069 L698.6571,167.1069 L698.6571,169.2651 L696.1918,169.2651 L696.1918,177.3418 L698.6571,177.3418 L698.6571,179.5 L691.2777,179.5 L691.2777,177.3418 L693.7431,177.3418 L693.7431,169.2651 Z " fill="#000000"/><text fill="#000000" font-family="sans-serif" font-size="12" font-style="italic" lengthAdjust="spacing" textLength="46" x="715.15" y="177.5352">Labeled</text><line style="stroke:#A80036;stroke-width:1.5;" x1="652.5" x2="791.5" y1="189" y2="189"/><text fill="#000000" font-family="sans-serif" font-size="11" lengthAdjust="spacing" textLength="91" x="657.5" y="203.6348">label() : Predicate</text><text fill="#000000" font-family="sans-serif" font-size="11" lengthAdjust="spacing" textLength="129" x="657.5" y="216.5898">label_ref() : PredicateRef</text><!--MD5=[a36ef1bdba718ac7a4b8a2af506f0d6e]
class asdi::MaybeAnonymous--><rect codeLine="39" fill="#FEFECE" filter="url(#fiq06ctye92zk)" height="65.9102" id="asdi::MaybeAnonymous" style="stroke:#A80036;stroke-width:1.5;" width="136" x="480" y="157"/><ellipse cx="495" cy="173" fill="#B4A7E5" rx="11" ry="11" style="stroke:#A80036;stroke-width:1.0;"/><path d="M491.4277,169.2651 L491.4277,167.1069 L498.8071,167.1069 L498.8071,169.2651 L496.3418,169.2651 L496.3418,177.3418 L498.8071,177.3418 L498.8071,179.5 L491.4277,179.5 L491.4277,177.3418 L493.8931,177.3418 L493.8931,169.2651 Z " fill="#000000"/><text fill="#000000" font-family="sans-serif" font-size="12" font-style="italic" lengthAdjust="spacing" textLength="104" x="509" y="177.5352">MaybeAnonymous</text><line style="stroke:#A80036;stroke-width:1.5;" x1="481" x2="615" y1="189" y2="189"/><text fill="#000000" font-family="sans-serif" font-size="11" lengthAdjust="spacing" textLength="99" x="486" y="203.6348">anonymous() : Self</text><text fill="#000000" font-family="sans-serif" font-size="11" lengthAdjust="spacing" textLength="119" x="486" y="216.5898">is_anonymous() : bool</text><!--MD5=[fa1011c7bd77eedf14cd9274bd452e29]
class asdi::MaybePositive--><rect codeLine="43" fill="#FEFECE" filter="url(#fiq06ctye92zk)" height="65.9102" id="asdi::MaybePositive" style="stroke:#A80036;stroke-width:1.5;" width="113" x="327.5" y="313"/><ellipse cx="342.5" cy="329" fill="#B4A7E5" rx="11" ry="11" style="stroke:#A80036;stroke-width:1.0;"/><path d="M338.9277,325.2651 L338.9277,323.1069 L346.3071,323.1069 L346.3071,325.2651 L343.8418,325.2651 L343.8418,333.3418 L346.3071,333.3418 L346.3071,335.5 L338.9277,335.5 L338.9277,333.3418 L341.3931,333.3418 L341.3931,325.2651 Z " fill="#000000"/><text fill="#000000" font-family="sans-serif" font-size="12" font-style="italic" lengthAdjust="spacing" textLength="81" x="356.5" y="333.5352">MaybePositive</text><line style="stroke:#A80036;stroke-width:1.5;" x1="328.5" x2="439.5" y1="345" y2="345"/><text fill="#000000" font-family="sans-serif" font-size="11" lengthAdjust="spacing" textLength="98" x="333.5" y="359.6348">is_positive() : bool</text><text fill="#000000" font-family="sans-serif" font-size="11" lengthAdjust="spacing" textLength="101" x="333.5" y="372.5898">is_negative() : bool</text><!--MD5=[91cc3482fb0350396608f11633162af9]
class asdi::ProgramCore--><rect codeLine="47" fill="#FEFECE" filter="url(#fiq06ctye92zk)" height="91.8203" id="asdi::ProgramCore" style="stroke:#A80036;stroke-width:1.5;" width="158" x="476" y="300"/><ellipse cx="513.5" cy="316" fill="#B4A7E5" rx="11" ry="11" style="stroke:#A80036;stroke-width:1.0;"/><path d="M509.9277,312.2651 L509.9277,310.1069 L517.3071,310.1069 L517.3071,312.2651 L514.8418,312.2651 L514.8418,320.3418 L517.3071,320.3418 L517.3071,322.5 L509.9277,322.5 L509.9277,320.3418 L512.3931,320.3418 L512.3931,312.2651 Z " fill="#000000"/><text fill="#000000" font-family="sans-serif" font-size="12" font-style="italic" lengthAdjust="spacing" textLength="76" x="532.5" y="320.5352">ProgramCore</text><line style="stroke:#A80036;stroke-width:1.5;" x1="477" x2="633" y1="332" y2="332"/><text fill="#000000" font-family="sans-serif" font-size="11" lengthAdjust="spacing" textLength="125" x="482" y="346.6348">features() : &amp;FeatureSet</text><text fill="#000000" font-family="sans-serif" font-size="11" lengthAdjust="spacing" textLength="146" x="482" y="359.5898">extensional() : &amp;RelationSet</text><text fill="#000000" font-family="sans-serif" font-size="11" lengthAdjust="spacing" textLength="143" x="482" y="372.5449">intensional() : &amp;RelationSet</text><text fill="#000000" font-family="sans-serif" font-size="11" lengthAdjust="spacing" textLength="91" x="482" y="385.5">rules() : &amp;RuleSet</text><!--MD5=[619a18f3975bec44ed0f3b908af212c9]
class asdi::Program--><rect codeLine="56" fill="#FEFECE" filter="url(#fiq06ctye92zk)" height="48" id="asdi::Program" style="stroke:#A80036;stroke-width:1.5;" width="81" x="363.5" y="166"/><ellipse cx="378.5" cy="182" fill="#ADD1B2" rx="11" ry="11" style="stroke:#A80036;stroke-width:1.0;"/><path d="M380.9731,188.1431 Q380.3921,188.4419 379.7529,188.5913 Q379.1138,188.7407 378.4082,188.7407 Q375.9014,188.7407 374.5815,187.0889 Q373.2617,185.437 373.2617,182.3159 Q373.2617,179.1865 374.5815,177.5347 Q375.9014,175.8828 378.4082,175.8828 Q379.1138,175.8828 379.7612,176.0322 Q380.4087,176.1816 380.9731,176.4805 L380.9731,179.2031 Q380.3423,178.6221 379.7488,178.3523 Q379.1553,178.0825 378.5244,178.0825 Q377.1797,178.0825 376.4949,179.1492 Q375.8101,180.2158 375.8101,182.3159 Q375.8101,184.4077 376.4949,185.4744 Q377.1797,186.541 378.5244,186.541 Q379.1553,186.541 379.7488,186.2712 Q380.3423,186.0015 380.9731,185.4204 Z " fill="#000000"/><text fill="#000000" font-family="sans-serif" font-size="12" lengthAdjust="spacing" textLength="49" x="392.5" y="186.5352">Program</text><line style="stroke:#A80036;stroke-width:1.5;" x1="364.5" x2="443.5" y1="198" y2="198"/><line style="stroke:#A80036;stroke-width:1.5;" x1="364.5" x2="443.5" y1="206" y2="206"/><!--MD5=[842cd022249741fa742cbf18a1c342e8]
class asdi::AttributeNameRef--><rect codeLine="68" fill="#FEFECE" filter="url(#fiq06ctye92zk)" height="54.2656" id="asdi::AttributeNameRef" style="stroke:#A80036;stroke-width:1.5;" width="239" x="89.5" y="163"/><ellipse cx="104.5" cy="182.1328" fill="#ADD1B2" rx="11" ry="11" style="stroke:#A80036;stroke-width:1.0;"/><path d="M105.8418,189.3828 L103.3931,189.3828 L103.3931,179.1313 L100.2471,179.1313 L100.2471,176.9897 L108.9878,176.9897 L108.9878,179.1313 L105.8418,179.1313 Z " fill="#000000"/><text fill="#000000" font-family="sans-serif" font-size="12" font-style="italic" lengthAdjust="spacing" textLength="37" x="151.5" y="179.6016">«type»</text><text fill="#000000" font-family="sans-serif" font-size="12" lengthAdjust="spacing" textLength="103" x="118.5" y="193.7344">AttributeNameRef</text><rect fill="#FFFFFF" height="16.1328" style="stroke:#000000;stroke-width:1.0;stroke-dasharray:2.0,2.0;" width="102" x="229.5" y="160"/><text fill="#000000" font-family="sans-serif" font-size="12" font-style="italic" lengthAdjust="spacing" textLength="100" x="230.5" y="172.6016">T: AttributeName</text><line style="stroke:#A80036;stroke-width:1.5;" x1="90.5" x2="327.5" y1="201.2656" y2="201.2656"/><line style="stroke:#A80036;stroke-width:1.5;" x1="90.5" x2="327.5" y1="209.2656" y2="209.2656"/><!--MD5=[050da77a24a9253f629d0b4ed41f1d76]
link asdi::IndexedCollection to asdi::Collection--><path codeLine="54" d="M921,223.28 C921,239.69 921,260.25 921,279.77 " fill="none" id="asdi::IndexedCollection-to-asdi::Collection" style="stroke:#A80036;stroke-width:1.0;"/><polygon fill="none" points="928,279.91,921,299.91,914,279.91,928,279.91" style="stroke:#A80036;stroke-width:1.0;"/><!--MD5=[61548d7db5417584fce196914e269885]
link asdi::Program to asdi::ProgramCore--><path codeLine="58" d="M426.61,214.06 C445.11,232.92 472.12,260.48 496.61,285.45 " fill="none" id="asdi::Program-to-asdi::ProgramCore" style="stroke:#A80036;stroke-width:1.0;stroke-dasharray:7.0,7.0;"/><polygon fill="none" points="501.64,280.58,510.64,299.76,491.64,290.38,501.64,280.58" style="stroke:#A80036;stroke-width:1.0;"/><!--MD5=[44e9340b47c8de994572dde550f90837]
link asdi::Program to asdi::MaybePositive--><path codeLine="59" d="M401.01,214.06 C398.31,234.78 394.26,265.98 390.79,292.72 " fill="none" id="asdi::Program-to-asdi::MaybePositive" style="stroke:#A80036;stroke-width:1.0;stroke-dasharray:7.0,7.0;"/><polygon fill="none" points="397.68,294,388.16,312.94,383.8,292.2,397.68,294" style="stroke:#A80036;stroke-width:1.0;"/><!--MD5=[0e8eae3a4865af23d73d12e23b4ef6f3]
link asdi::features::FeatureSet to asdi::Program--><path codeLine="60" d="M117,79 C131.38,85.85 148.07,92.77 164,97 C203.26,107.42 310.41,94.42 346,114 C362.78,123.23 386.5505,155.4894 386.5505,155.4894 " fill="none" id="asdi::features::FeatureSet-asdi::Program" style="stroke:#A80036;stroke-width:1.0;"/><polygon fill="#A80036" points="392.74,165.77,393.0721,158.5666,386.5505,155.4894,386.2184,162.6929,392.74,165.77" style="stroke:#A80036;stroke-width:1.0;"/><polygon fill="#A80036" points="105.02,73.07,111.3108,80.648,109.5009,75.2885,114.8604,73.4786,105.02,73.07" style="stroke:#A80036;stroke-width:1.0;"/><line style="stroke:#A80036;stroke-width:1.0;" x1="109.5009" x2="116.67" y1="75.2885" y2="78.84"/><!--MD5=[25a9534300ff5c62c672b75f369bea98]
link asdi::edb::RelationSet to asdi::Program--><path codeLine="61" d="M393.32,86.04 C390.89,105.54 392.5925,153.8717 392.5925,153.8717 " fill="none" id="asdi::edb::RelationSet-asdi::Program" style="stroke:#A80036;stroke-width:1.0;"/><polygon fill="#A80036" points="393.99,165.79,397.264,159.365,392.5925,153.8717,389.3185,160.2967,393.99,165.79" style="stroke:#A80036;stroke-width:1.0;"/><polygon fill="#A80036" points="395.51,73.03,390.0715,81.2411,394.68,77.9606,397.9605,82.5691,395.51,73.03" style="stroke:#A80036;stroke-width:1.0;"/><line style="stroke:#A80036;stroke-width:1.0;" x1="394.68" x2="393.355" y1="77.9606" y2="85.845"/><text fill="#000000" font-family="sans-serif" font-size="13" lengthAdjust="spacing" textLength="73" x="404.7883" y="93.4441">extensional</text><!--MD5=[25a9534300ff5c62c672b75f369bea98]
link asdi::edb::RelationSet to asdi::Program--><path codeLine="62" d="M415.31,86.04 C417.89,105.54 416.09,153.8829 416.09,153.8829 " fill="none" id="asdi::edb::RelationSet-asdi::Program-1" style="stroke:#A80036;stroke-width:1.0;"/><polygon fill="#A80036" points="414.6,165.79,419.3141,160.3331,416.09,153.8829,411.376,159.3398,414.6,165.79" style="stroke:#A80036;stroke-width:1.0;"/><polygon fill="#A80036" points="412.99,73.03,410.6241,82.5905,413.8636,77.9531,418.501,81.1927,412.99,73.03" style="stroke:#A80036;stroke-width:1.0;"/><line style="stroke:#A80036;stroke-width:1.0;" x1="413.8636" x2="415.27" y1="77.9531" y2="85.825"/><text fill="#000000" font-family="sans-serif" font-size="13" lengthAdjust="spacing" textLength="70" x="334.3742" y="93.4441">intensional</text><!--MD5=[efc1d6cd5ab53e4796afe35910ade78f]
link asdi::edb::NameReferenceSet to asdi::Program--><path codeLine="63" d="M279.87,79.75 C295.45,89.03 314.01,100.78 329,114 C342.68,126.06 367.536,156.5662 367.536,156.5662 " fill="none" id="asdi::edb::NameReferenceSet-asdi::Program" style="stroke:#A80036;stroke-width:1.0;"/><polygon fill="#A80036" points="375.2,165.8,374.4459,158.6284,367.536,156.5662,368.2901,163.7378,375.2,165.8" style="stroke:#A80036;stroke-width:1.0;"/><polygon fill="#A80036" points="268.65,73.15,274.3851,81.1568,272.9615,75.682,278.4363,74.2584,268.65,73.15" style="stroke:#A80036;stroke-width:1.0;"/><line style="stroke:#A80036;stroke-width:1.0;" x1="272.9615" x2="279.855" y1="75.682" y2="79.745"/><text fill="#000000" font-family="sans-serif" font-size="13" lengthAdjust="spacing" textLength="65" x="198.7309" y="93.6039">predicates</text><!--MD5=[efc1d6cd5ab53e4796afe35910ade78f]
link asdi::edb::NameReferenceSet to asdi::Program--><path codeLine="64" d="M310.92,78.94 C329.35,88.34 348.57,100.39 364,114 C377.27,125.7 398.7075,155.3464 398.7075,155.3464 " fill="none" id="asdi::edb::NameReferenceSet-asdi::Program-1" style="stroke:#A80036;stroke-width:1.0;"/><polygon fill="#A80036" points="404.6,165.8,405.1383,158.609,398.7075,155.3464,398.1692,162.5374,404.6,165.8" style="stroke:#A80036;stroke-width:1.0;"/><polygon fill="#A80036" points="298.96,73.15,305.3139,80.6751,303.4593,75.331,308.8035,73.4763,298.96,73.15" style="stroke:#A80036;stroke-width:1.0;"/><line style="stroke:#A80036;stroke-width:1.0;" x1="303.4593" x2="310.665" y1="75.331" y2="78.815"/><text fill="#000000" font-family="sans-serif" font-size="13" lengthAdjust="spacing" textLength="56" x="308.6705" y="93.6506">variables</text><!--MD5=[47d67b57e64391ee44b6ee496dcf3aa9]
link asdi::idb::RuleSet to asdi::Program--><path codeLine="65" d="M507.5,80.15 C492.86,89.66 476.42,101.46 463,114 C449.95,126.2 426.4408,156.1226 426.4408,156.1226 " fill="none" id="asdi::idb::RuleSet-asdi::Program" style="stroke:#A80036;stroke-width:1.0;"/><polygon fill="#A80036" points="419.4,165.84,426.1595,163.3283,426.4408,156.1226,419.6813,158.6344,419.4,165.84" style="stroke:#A80036;stroke-width:1.0;"/><polygon fill="#A80036" points="518.75,73.05,509.0042,74.4711,514.5218,75.7187,513.2742,81.2363,518.75,73.05" style="stroke:#A80036;stroke-width:1.0;"/><line style="stroke:#A80036;stroke-width:1.0;" x1="514.5218" x2="507.76" y1="75.7187" y2="79.99"/><!--MD5=[db0012e104fc500d241c4fecca4dc26a]
link asdi::idb::query::QuerySet to asdi::Program--><path codeLine="66" d="M642.11,79.12 C628.56,85.82 612.94,92.63 598,97 C583.49,101.24 476.16,106.56 463,114 C446.22,123.49 421.9903,155.7555 421.9903,155.7555 " fill="none" id="asdi::idb::query::QuerySet-asdi::Program" style="stroke:#A80036;stroke-width:1.0;"/><polygon fill="#A80036" points="415.66,165.95,422.2233,162.9629,421.9903,155.7555,415.427,158.7427,415.66,165.95" style="stroke:#A80036;stroke-width:1.0;"/><polygon fill="#A80036" points="653.89,73.06,644.057,73.6184,649.4434,75.3465,647.7154,80.7329,653.89,73.06" style="stroke:#A80036;stroke-width:1.0;"/><line style="stroke:#A80036;stroke-width:1.0;" x1="649.4434" x2="642.33" y1="75.3465" y2="79.005"/><!--MD5=[011ca43a3a27a88ec64181b14c315f9b]
link asdi::AttributeNameRef to asdi::AttributeName--><path codeLine="69" d="M209,229.12 C209,229.12 209,277.82 209,299.8 " fill="none" id="asdi::AttributeNameRef-asdi::AttributeName" style="stroke:#A80036;stroke-width:1.0;"/><polygon fill="#A80036" points="209,312.86,213,303.86,209,307.86,205,303.86,209,312.86" style="stroke:#A80036;stroke-width:1.0;"/><line style="stroke:#A80036;stroke-width:1.0;" x1="209" x2="209" y1="307.86" y2="299.86"/><polygon fill="none" points="209,217.12,205,223.12,209,229.12,213,223.12,209,217.12" style="stroke:#A80036;stroke-width:1.0;"/><text fill="#000000" font-family="sans-serif" font-size="13" lengthAdjust="spacing" textLength="26" x="210" y="266.5684">«rc»</text><!--MD5=[8d6e25abcff89fbec1ab2802b176cd49]
@startuml

!include options.plantuml

class asdi::features::FeatureSet
hide "asdi::features::FeatureSet" members

class asdi::edb::RelationSet
hide "asdi::edb::RelationSet" members

class asdi::edb::NameReferenceSet
hide "asdi::edb::NameReferenceSet" members

class asdi::idb::RuleSet
hide "asdi::idb::RuleSet" members

class asdi::idb::query::QuerySet
hide "asdi::idb::query::QuerySet" members

namespace asdi {

    interface AttributeName {
        is_valid(s: &str) : bool
        type_name() : &str
    }
    interface Collection<T> {
        is_empty() : bool
        len() : usize
        iter() : Iterator<&T>
        contains(v: &T) : bool
    }
    interface IndexedCollection<K,V> {
        get(index: &K) : Option<V>
        contains_index(index: &K) : bool
    }
    interface Labeled {
        label() : Predicate
        label_ref() : PredicateRef
    }
    interface MaybeAnonymous {
        anonymous() : Self
        is_anonymous() : bool
    }
    interface MaybePositive {
        is_positive() : bool
        is_negative() : bool
    }
    interface ProgramCore {
        features() : &FeatureSet
        extensional() : &RelationSet
        intensional() : &RelationSet
        rules() : &RuleSet
    }

    IndexedCollection - -|> Collection

    class Program

    Program ..|> ProgramCore
    Program ..|> MaybePositive
    Program *-up-> asdi::features::FeatureSet
    Program *-up-> "extensional" asdi::edb::RelationSet
    Program *-up-> "intensional" asdi::edb::RelationSet
    Program *-up-> "predicates" asdi::edb::NameReferenceSet
    Program *-up-> "variables" asdi::edb::NameReferenceSet
    Program *-up-> asdi::idb::RuleSet
    Program *-up-> asdi::idb::query::QuerySet

    class AttributeNameRef<T: AttributeName> << (T,#ADD1B2) type>>
    AttributeNameRef o-down-> AttributeName: <<rc>>
}

@enduml

@startuml

set namespaceSeparator ::
hide enum methods
hide interface fields
hide << const >> members
hide << type >> members
hide << type >> stereotype
hide << module >> fields
hide << module >> circle

class asdi::features::FeatureSet
hide "asdi::features::FeatureSet" members

class asdi::edb::RelationSet
hide "asdi::edb::RelationSet" members

class asdi::edb::NameReferenceSet
hide "asdi::edb::NameReferenceSet" members

class asdi::idb::RuleSet
hide "asdi::idb::RuleSet" members

class asdi::idb::query::QuerySet
hide "asdi::idb::query::QuerySet" members

namespace asdi {

    interface AttributeName {
        is_valid(s: &str) : bool
        type_name() : &str
    }
    interface Collection<T> {
        is_empty() : bool
        len() : usize
        iter() : Iterator<&T>
        contains(v: &T) : bool
    }
    interface IndexedCollection<K,V> {
        get(index: &K) : Option<V>
        contains_index(index: &K) : bool
    }
    interface Labeled {
        label() : Predicate
        label_ref() : PredicateRef
    }
    interface MaybeAnonymous {
        anonymous() : Self
        is_anonymous() : bool
    }
    interface MaybePositive {
        is_positive() : bool
        is_negative() : bool
    }
    interface ProgramCore {
        features() : &FeatureSet
        extensional() : &RelationSet
        intensional() : &RelationSet
        rules() : &RuleSet
    }

    IndexedCollection - -|> Collection

    class Program

    Program ..|> ProgramCore
    Program ..|> MaybePositive
    Program *-up-> asdi::features::FeatureSet
    Program *-up-> "extensional" asdi::edb::RelationSet
    Program *-up-> "intensional" asdi::edb::RelationSet
    Program *-up-> "predicates" asdi::edb::NameReferenceSet
    Program *-up-> "variables" asdi::edb::NameReferenceSet
    Program *-up-> asdi::idb::RuleSet
    Program *-up-> asdi::idb::query::QuerySet

    class AttributeNameRef<T: AttributeName> << (T,#ADD1B2) type>>
    AttributeNameRef o-down-> AttributeName: <<rc>>
}

@enduml

PlantUML version 1.2022.1(Tue Feb 01 10:19:58 PST 2022)
(GPL source distribution)
Java Runtime: OpenJDK Runtime Environment
JVM: OpenJDK 64-Bit Server VM
Default Encoding: UTF-8
Language: en
Country: US
--></g></svg>