<?xml version="1.0" encoding="UTF-8" standalone="no"?><svg xmlns="http://www.w3.org/2000/svg" xmlns:xlink="http://www.w3.org/1999/xlink" contentScriptType="application/ecmascript" contentStyleType="text/css" height="776px" preserveAspectRatio="none" style="width:1314px;height:776px;background:#FFFFFF;" version="1.1" viewBox="0 0 1314 776" width="1314px" zoomAndPan="magnify"><defs><filter height="300%" id="f1xqy451cfk00t" width="300%" x="-1" y="-1"><feGaussianBlur result="blurOut" stdDeviation="2.0"/><feColorMatrix in="blurOut" result="blurOut2" type="matrix" values="0 0 0 0 0 0 0 0 0 0 0 0 0 0 0 0 0 0 .4 0"/><feOffset dx="4.0" dy="4.0" in="blurOut2" result="blurOut3"/><feBlend in="SourceGraphic" in2="blurOut3" mode="normal"/></filter></defs><g><!--MD5=[af63c64fec698275cfc4891f303451d3]
cluster asdi::features--><polygon fill="#FFFFFF" filter="url(#f1xqy451cfk00t)" points="16,270,117,270,124,292.4883,140,292.4883,140,353,16,353,16,270" style="stroke:#000000;stroke-width:1.5;"/><line style="stroke:#000000;stroke-width:1.5;" x1="16" x2="124" y1="292.4883" y2="292.4883"/><text fill="#000000" font-family="sans-serif" font-size="14" font-weight="bold" lengthAdjust="spacing" textLength="95" x="20" y="285.5352">asdi::features</text><!--MD5=[6bc3af5db4038e5494ba0622f07de59b]
cluster asdi::edb--><polygon fill="#FFFFFF" filter="url(#f1xqy451cfk00t)" points="848,656,916,656,923,678.4883,1152,678.4883,1152,739,848,739,848,656" style="stroke:#000000;stroke-width:1.5;"/><line style="stroke:#000000;stroke-width:1.5;" x1="848" x2="923" y1="678.4883" y2="678.4883"/><text fill="#000000" font-family="sans-serif" font-size="14" font-weight="bold" lengthAdjust="spacing" textLength="62" x="852" y="671.5352">asdi::edb</text><!--MD5=[ae3c197a01158459eb2ddb806e23d6f2]
cluster asdi::idb--><polygon fill="#FFFFFF" filter="url(#f1xqy451cfk00t)" points="164,270,229,270,236,292.4883,270,292.4883,270,353,164,353,164,270" style="stroke:#000000;stroke-width:1.5;"/><line style="stroke:#000000;stroke-width:1.5;" x1="164" x2="236" y1="292.4883" y2="292.4883"/><text fill="#000000" font-family="sans-serif" font-size="14" font-weight="bold" lengthAdjust="spacing" textLength="59" x="168" y="285.5352">asdi::idb</text><!--MD5=[331bdf5c2291f41e90a08533bcc43e12]
cluster asdi::idb::query--><polygon fill="#FFFFFF" filter="url(#f1xqy451cfk00t)" points="1176,656,1287,656,1294,678.4883,1297,678.4883,1297,739,1176,739,1176,656" style="stroke:#000000;stroke-width:1.5;"/><line style="stroke:#000000;stroke-width:1.5;" x1="1176" x2="1294" y1="678.4883" y2="678.4883"/><text fill="#000000" font-family="sans-serif" font-size="14" font-weight="bold" lengthAdjust="spacing" textLength="105" x="1180" y="671.5352">asdi::idb::query</text><!--MD5=[e274c4916ac42ef1c11391a83d303c10]
cluster asdi--><polygon fill="#FFFFFF" filter="url(#f1xqy451cfk00t)" points="294,6,330,6,337,28.4883,824,28.4883,824,769,294,769,294,6" style="stroke:#000000;stroke-width:1.5;"/><line style="stroke:#000000;stroke-width:1.5;" x1="294" x2="337" y1="28.4883" y2="28.4883"/><text fill="#000000" font-family="sans-serif" font-size="14" font-weight="bold" lengthAdjust="spacing" textLength="30" x="298" y="21.5352">asdi</text><!--MD5=[10e3bb9f30c83b84488054de99f42877]
class asdi::features::FeatureSet--><rect codeLine="4" fill="#FEFECE" filter="url(#f1xqy451cfk00t)" height="32" id="asdi::features::FeatureSet" style="stroke:#A80036;stroke-width:1.5;" width="92" x="32" y="305"/><ellipse cx="47" cy="321" fill="#ADD1B2" rx="11" ry="11" style="stroke:#A80036;stroke-width:1.0;"/><path d="M49.4731,327.1431 Q48.8921,327.4419 48.2529,327.5913 Q47.6138,327.7407 46.9082,327.7407 Q44.4014,327.7407 43.0815,326.0889 Q41.7617,324.437 41.7617,321.3159 Q41.7617,318.1865 43.0815,316.5347 Q44.4014,314.8828 46.9082,314.8828 Q47.6138,314.8828 48.2612,315.0322 Q48.9087,315.1816 49.4731,315.4805 L49.4731,318.2031 Q48.8423,317.6221 48.2488,317.3523 Q47.6553,317.0825 47.0244,317.0825 Q45.6797,317.0825 44.9949,318.1492 Q44.3101,319.2158 44.3101,321.3159 Q44.3101,323.4077 44.9949,324.4744 Q45.6797,325.541 47.0244,325.541 Q47.6553,325.541 48.2488,325.2712 Q48.8423,325.0015 49.4731,324.4204 Z " fill="#000000"/><text fill="#000000" font-family="sans-serif" font-size="12" lengthAdjust="spacing" textLength="60" x="61" y="325.5352">FeatureSet</text><!--MD5=[6137f69857c1321f4d06c717c9c09db2]
class asdi::edb::RelationSet--><rect codeLine="7" fill="#FEFECE" filter="url(#f1xqy451cfk00t)" height="32" id="asdi::edb::RelationSet" style="stroke:#A80036;stroke-width:1.5;" width="95" x="1040.5" y="691"/><ellipse cx="1055.5" cy="707" fill="#ADD1B2" rx="11" ry="11" style="stroke:#A80036;stroke-width:1.0;"/><path d="M1057.9731,713.1431 Q1057.3921,713.4419 1056.7529,713.5913 Q1056.1138,713.7407 1055.4082,713.7407 Q1052.9014,713.7407 1051.5815,712.0889 Q1050.2617,710.437 1050.2617,707.3159 Q1050.2617,704.1865 1051.5815,702.5347 Q1052.9014,700.8828 1055.4082,700.8828 Q1056.1138,700.8828 1056.7612,701.0322 Q1057.4087,701.1816 1057.9731,701.4805 L1057.9731,704.2031 Q1057.3423,703.6221 1056.7488,703.3523 Q1056.1553,703.0825 1055.5244,703.0825 Q1054.1797,703.0825 1053.4949,704.1492 Q1052.8101,705.2158 1052.8101,707.3159 Q1052.8101,709.4077 1053.4949,710.4744 Q1054.1797,711.541 1055.5244,711.541 Q1056.1553,711.541 1056.7488,711.2712 Q1057.3423,711.0015 1057.9731,710.4204 Z " fill="#000000"/><text fill="#000000" font-family="sans-serif" font-size="12" lengthAdjust="spacing" textLength="63" x="1069.5" y="711.5352">RelationSet</text><!--MD5=[e0d85c4bcf038627e4eac8520bbb7a23]
class asdi::edb::NameReferenceSet--><rect codeLine="10" fill="#FEFECE" filter="url(#f1xqy451cfk00t)" height="32" id="asdi::edb::NameReferenceSet" style="stroke:#A80036;stroke-width:1.5;" width="141" x="864.5" y="691"/><ellipse cx="879.5" cy="707" fill="#ADD1B2" rx="11" ry="11" style="stroke:#A80036;stroke-width:1.0;"/><path d="M881.9731,713.1431 Q881.3921,713.4419 880.7529,713.5913 Q880.1138,713.7407 879.4082,713.7407 Q876.9014,713.7407 875.5815,712.0889 Q874.2617,710.437 874.2617,707.3159 Q874.2617,704.1865 875.5815,702.5347 Q876.9014,700.8828 879.4082,700.8828 Q880.1138,700.8828 880.7612,701.0322 Q881.4087,701.1816 881.9731,701.4805 L881.9731,704.2031 Q881.3423,703.6221 880.7488,703.3523 Q880.1553,703.0825 879.5244,703.0825 Q878.1797,703.0825 877.4949,704.1492 Q876.8101,705.2158 876.8101,707.3159 Q876.8101,709.4077 877.4949,710.4744 Q878.1797,711.541 879.5244,711.541 Q880.1553,711.541 880.7488,711.2712 Q881.3423,711.0015 881.9731,710.4204 Z " fill="#000000"/><text fill="#000000" font-family="sans-serif" font-size="12" lengthAdjust="spacing" textLength="109" x="893.5" y="711.5352">NameReferenceSet</text><!--MD5=[30c8d4c59bd3776484494cc31a150236]
class asdi::idb::RuleSet--><rect codeLine="13" fill="#FEFECE" filter="url(#f1xqy451cfk00t)" height="32" id="asdi::idb::RuleSet" style="stroke:#A80036;stroke-width:1.5;" width="74" x="180" y="305"/><ellipse cx="195" cy="321" fill="#ADD1B2" rx="11" ry="11" style="stroke:#A80036;stroke-width:1.0;"/><path d="M197.4731,327.1431 Q196.8921,327.4419 196.2529,327.5913 Q195.6138,327.7407 194.9082,327.7407 Q192.4014,327.7407 191.0815,326.0889 Q189.7617,324.437 189.7617,321.3159 Q189.7617,318.1865 191.0815,316.5347 Q192.4014,314.8828 194.9082,314.8828 Q195.6138,314.8828 196.2612,315.0322 Q196.9087,315.1816 197.4731,315.4805 L197.4731,318.2031 Q196.8423,317.6221 196.2488,317.3523 Q195.6553,317.0825 195.0244,317.0825 Q193.6797,317.0825 192.9949,318.1492 Q192.3101,319.2158 192.3101,321.3159 Q192.3101,323.4077 192.9949,324.4744 Q193.6797,325.541 195.0244,325.541 Q195.6553,325.541 196.2488,325.2712 Q196.8423,325.0015 197.4731,324.4204 Z " fill="#000000"/><text fill="#000000" font-family="sans-serif" font-size="12" lengthAdjust="spacing" textLength="42" x="209" y="325.5352">RuleSet</text><!--MD5=[862f5ba143deaa96c11c433d25830988]
class asdi::idb::query::QuerySet--><rect codeLine="16" fill="#FEFECE" filter="url(#f1xqy451cfk00t)" height="32" id="asdi::idb::query::QuerySet" style="stroke:#A80036;stroke-width:1.5;" width="83" x="1192.5" y="691"/><ellipse cx="1207.5" cy="707" fill="#ADD1B2" rx="11" ry="11" style="stroke:#A80036;stroke-width:1.0;"/><path d="M1209.9731,713.1431 Q1209.3921,713.4419 1208.7529,713.5913 Q1208.1138,713.7407 1207.4082,713.7407 Q1204.9014,713.7407 1203.5815,712.0889 Q1202.2617,710.437 1202.2617,707.3159 Q1202.2617,704.1865 1203.5815,702.5347 Q1204.9014,700.8828 1207.4082,700.8828 Q1208.1138,700.8828 1208.7612,701.0322 Q1209.4087,701.1816 1209.9731,701.4805 L1209.9731,704.2031 Q1209.3423,703.6221 1208.7488,703.3523 Q1208.1553,703.0825 1207.5244,703.0825 Q1206.1797,703.0825 1205.4949,704.1492 Q1204.8101,705.2158 1204.8101,707.3159 Q1204.8101,709.4077 1205.4949,710.4744 Q1206.1797,711.541 1207.5244,711.541 Q1208.1553,711.541 1208.7488,711.2712 Q1209.3423,711.0015 1209.9731,710.4204 Z " fill="#000000"/><text fill="#000000" font-family="sans-serif" font-size="12" lengthAdjust="spacing" textLength="51" x="1221.5" y="711.5352">QuerySet</text><!--MD5=[fa1011c7bd77eedf14cd9274bd452e29]
class asdi::MaybePositive--><rect codeLine="21" fill="#FEFECE" filter="url(#f1xqy451cfk00t)" height="65.9102" id="asdi::MaybePositive" style="stroke:#A80036;stroke-width:1.5;" width="113" x="588.5" y="674"/><ellipse cx="603.5" cy="690" fill="#B4A7E5" rx="11" ry="11" style="stroke:#A80036;stroke-width:1.0;"/><path d="M599.9277,686.2651 L599.9277,684.1069 L607.3071,684.1069 L607.3071,686.2651 L604.8418,686.2651 L604.8418,694.3418 L607.3071,694.3418 L607.3071,696.5 L599.9277,696.5 L599.9277,694.3418 L602.3931,694.3418 L602.3931,686.2651 Z " fill="#000000"/><text fill="#000000" font-family="sans-serif" font-size="12" font-style="italic" lengthAdjust="spacing" textLength="81" x="617.5" y="694.5352">MaybePositive</text><line style="stroke:#A80036;stroke-width:1.5;" x1="589.5" x2="700.5" y1="706" y2="706"/><text fill="#000000" font-family="sans-serif" font-size="11" lengthAdjust="spacing" textLength="98" x="594.5" y="720.6348">is_positive() : bool</text><text fill="#000000" font-family="sans-serif" font-size="11" lengthAdjust="spacing" textLength="101" x="594.5" y="733.5898">is_negative() : bool</text><!--MD5=[91cc3482fb0350396608f11633162af9]
class asdi::ProgramCore--><rect codeLine="26" fill="#FEFECE" filter="url(#f1xqy451cfk00t)" height="91.8203" id="asdi::ProgramCore" style="stroke:#A80036;stroke-width:1.5;" width="158" x="395" y="661"/><ellipse cx="432.5" cy="677" fill="#B4A7E5" rx="11" ry="11" style="stroke:#A80036;stroke-width:1.0;"/><path d="M428.9277,673.2651 L428.9277,671.1069 L436.3071,671.1069 L436.3071,673.2651 L433.8418,673.2651 L433.8418,681.3418 L436.3071,681.3418 L436.3071,683.5 L428.9277,683.5 L428.9277,681.3418 L431.3931,681.3418 L431.3931,673.2651 Z " fill="#000000"/><text fill="#000000" font-family="sans-serif" font-size="12" font-style="italic" lengthAdjust="spacing" textLength="76" x="451.5" y="681.5352">ProgramCore</text><line style="stroke:#A80036;stroke-width:1.5;" x1="396" x2="552" y1="693" y2="693"/><text fill="#000000" font-family="sans-serif" font-size="11" lengthAdjust="spacing" textLength="125" x="401" y="707.6348">features() : &amp;FeatureSet</text><text fill="#000000" font-family="sans-serif" font-size="11" lengthAdjust="spacing" textLength="146" x="401" y="720.5898">extensional() : &amp;RelationSet</text><text fill="#000000" font-family="sans-serif" font-size="11" lengthAdjust="spacing" textLength="143" x="401" y="733.5449">intensional() : &amp;RelationSet</text><text fill="#000000" font-family="sans-serif" font-size="11" lengthAdjust="spacing" textLength="91" x="401" y="746.5">rules() : &amp;RuleSet</text><!--MD5=[619a18f3975bec44ed0f3b908af212c9]
class asdi::Program--><rect codeLine="38" fill="#FEFECE" filter="url(#f1xqy451cfk00t)" height="560.293" id="asdi::Program" style="stroke:#A80036;stroke-width:1.5;" width="497" x="310.5" y="41"/><ellipse cx="530.25" cy="57" fill="#ADD1B2" rx="11" ry="11" style="stroke:#A80036;stroke-width:1.0;"/><path d="M532.7231,63.1431 Q532.1421,63.4419 531.5029,63.5913 Q530.8638,63.7407 530.1582,63.7407 Q527.6514,63.7407 526.3315,62.0889 Q525.0117,60.437 525.0117,57.3159 Q525.0117,54.1865 526.3315,52.5347 Q527.6514,50.8828 530.1582,50.8828 Q530.8638,50.8828 531.5112,51.0322 Q532.1587,51.1816 532.7231,51.4805 L532.7231,54.2031 Q532.0923,53.6221 531.4988,53.3523 Q530.9053,53.0825 530.2744,53.0825 Q528.9297,53.0825 528.2449,54.1492 Q527.5601,55.2158 527.5601,57.3159 Q527.5601,59.4077 528.2449,60.4744 Q528.9297,61.541 530.2744,61.541 Q530.9053,61.541 531.4988,61.2712 Q532.0923,61.0015 532.7231,60.4204 Z " fill="#000000"/><text fill="#000000" font-family="sans-serif" font-size="12" lengthAdjust="spacing" textLength="49" x="550.75" y="61.5352">Program</text><line style="stroke:#A80036;stroke-width:1.5;" x1="311.5" x2="806.5" y1="73" y2="73"/><text fill="#000000" font-family="sans-serif" font-size="11" lengthAdjust="spacing" textLength="191" x="316.5" y="87.6348">new_with_features(FeatureSet) : Self</text><text fill="#000000" font-family="sans-serif" font-size="11" lengthAdjust="spacing" textLength="143" x="316.5" y="100.5898">source_file_path() : Option</text><text fill="#000000" font-family="sans-serif" font-size="11" lengthAdjust="spacing" textLength="247" x="316.5" y="130.5">predicates() : &amp;NameReferenceSet&lt;Predicate&gt;</text><text fill="#000000" font-family="sans-serif" font-size="11" lengthAdjust="spacing" textLength="233" x="316.5" y="143.4551">variables() : &amp;NameReferenceSet&lt;Variable&gt;</text><line style="stroke:#A80036;stroke-width:1.0;" x1="311.5" x2="536.5" y1="113.3877" y2="113.3877"/><line style="stroke:#A80036;stroke-width:1.0;" x1="311.5" x2="536.5" y1="115.3877" y2="115.3877"/><text fill="#000000" font-family="sans-serif" font-size="11" lengthAdjust="spacing" textLength="45" x="536.5" y="117.0449">interned</text><line style="stroke:#A80036;stroke-width:1.0;" x1="581.5" x2="806.5" y1="113.3877" y2="113.3877"/><line style="stroke:#A80036;stroke-width:1.0;" x1="581.5" x2="806.5" y1="115.3877" y2="115.3877"/><text fill="#000000" font-family="sans-serif" font-size="11" lengthAdjust="spacing" textLength="197" x="316.5" y="173.3652">extensional_mut() : &amp;mut RelationSet</text><text fill="#000000" font-family="sans-serif" font-size="11" lengthAdjust="spacing" textLength="485" x="316.5" y="186.3203">add_new_extensional_relation(PredicateRef, Schema&lt;Predicate&gt;) : Result&lt;&amp;mut Relation&gt;</text><text fill="#000000" font-family="sans-serif" font-size="11" lengthAdjust="spacing" textLength="186" x="316.5" y="199.2754">add_extensional_relation(Relation)</text><text fill="#000000" font-family="sans-serif" font-size="11" lengthAdjust="spacing" textLength="196" x="316.5" y="212.2305">load_extensional_data() : Result&lt;()&gt;</text><line style="stroke:#A80036;stroke-width:1.0;" x1="311.5" x2="549" y1="156.2529" y2="156.2529"/><line style="stroke:#A80036;stroke-width:1.0;" x1="311.5" x2="549" y1="158.2529" y2="158.2529"/><text fill="#000000" font-family="sans-serif" font-size="11" lengthAdjust="spacing" textLength="20" x="549" y="159.9102">edb</text><line style="stroke:#A80036;stroke-width:1.0;" x1="569" x2="806.5" y1="156.2529" y2="156.2529"/><line style="stroke:#A80036;stroke-width:1.0;" x1="569" x2="806.5" y1="158.2529" y2="158.2529"/><text fill="#000000" font-family="sans-serif" font-size="11" lengthAdjust="spacing" textLength="194" x="316.5" y="242.1406">intensional_mut() : &amp;mut RelationSet</text><text fill="#000000" font-family="sans-serif" font-size="11" lengthAdjust="spacing" textLength="482" x="316.5" y="255.0957">add_new_intensional_relation(PredicateRef, Schema&lt;Predicate&gt;) : Result&lt;&amp;mut Relation&gt;</text><text fill="#000000" font-family="sans-serif" font-size="11" lengthAdjust="spacing" textLength="183" x="316.5" y="268.0508">add_intensional_relation(Relation)</text><text fill="#000000" font-family="sans-serif" font-size="11" lengthAdjust="spacing" textLength="198" x="316.5" y="281.0059">store_intensional_data() : Result&lt;()&gt;</text><text fill="#000000" font-family="sans-serif" font-size="11" lengthAdjust="spacing" textLength="410" x="316.5" y="293.9609">add_new_pure_rule(PredicateRef, Vec&lt;Term&gt;, Vec&lt;Literal&gt;) : Result&lt;bool&gt;</text><text fill="#000000" font-family="sans-serif" font-size="11" lengthAdjust="spacing" textLength="297" x="316.5" y="306.916">add_new_constraint_rule(Vec&lt;Literal&gt;) : Result&lt;bool&gt;</text><text fill="#000000" font-family="sans-serif" font-size="11" lengthAdjust="spacing" textLength="372" x="316.5" y="319.8711">add_new_disjunctive_rule(Vec&lt;Atom&gt;, Vec&lt;Literal&gt;) : Result&lt;bool&gt;</text><text fill="#000000" font-family="sans-serif" font-size="11" lengthAdjust="spacing" textLength="162" x="316.5" y="332.8262">add_rule(Rule) : Result&lt;bool&gt;</text><text fill="#000000" font-family="sans-serif" font-size="11" lengthAdjust="spacing" textLength="296" x="316.5" y="345.7813">add_new_query(Predicate, Vec&lt;Term&gt;) : Result&lt;bool&gt;</text><text fill="#000000" font-family="sans-serif" font-size="11" lengthAdjust="spacing" textLength="182" x="316.5" y="358.7363">add_query(Query) : Result&lt;bool&gt;</text><line style="stroke:#A80036;stroke-width:1.0;" x1="311.5" x2="550.5" y1="225.0283" y2="225.0283"/><line style="stroke:#A80036;stroke-width:1.0;" x1="311.5" x2="550.5" y1="227.0283" y2="227.0283"/><text fill="#000000" font-family="sans-serif" font-size="11" lengthAdjust="spacing" textLength="17" x="550.5" y="228.6855">idb</text><line style="stroke:#A80036;stroke-width:1.0;" x1="567.5" x2="806.5" y1="225.0283" y2="225.0283"/><line style="stroke:#A80036;stroke-width:1.0;" x1="567.5" x2="806.5" y1="227.0283" y2="227.0283"/><text fill="#000000" font-family="sans-serif" font-size="11" lengthAdjust="spacing" textLength="153" x="316.5" y="388.6465">queries(&amp;self) -&gt; &amp;QuerySet</text><line style="stroke:#A80036;stroke-width:1.0;" x1="311.5" x2="539" y1="371.5342" y2="371.5342"/><line style="stroke:#A80036;stroke-width:1.0;" x1="311.5" x2="539" y1="373.5342" y2="373.5342"/><text fill="#000000" font-family="sans-serif" font-size="11" lengthAdjust="spacing" textLength="40" x="539" y="375.1914">queries</text><line style="stroke:#A80036;stroke-width:1.0;" x1="579" x2="806.5" y1="371.5342" y2="371.5342"/><line style="stroke:#A80036;stroke-width:1.0;" x1="579" x2="806.5" y1="373.5342" y2="373.5342"/><text fill="#000000" font-family="sans-serif" font-size="11" lengthAdjust="spacing" textLength="106" x="316.5" y="418.5566">is_recursive() : bool</text><text fill="#000000" font-family="sans-serif" font-size="11" lengthAdjust="spacing" textLength="129" x="316.5" y="431.5117">is_semi_positive() : bool</text><text fill="#000000" font-family="sans-serif" font-size="11" lengthAdjust="spacing" textLength="86" x="316.5" y="444.4668">is_linear() : bool</text><text fill="#000000" font-family="sans-serif" font-size="11" lengthAdjust="spacing" textLength="101" x="316.5" y="457.4219">is_guarded() : bool</text><text fill="#000000" font-family="sans-serif" font-size="11" lengthAdjust="spacing" textLength="148" x="316.5" y="470.377">is_frontier_guarded() : bool</text><line style="stroke:#A80036;stroke-width:1.0;" x1="311.5" x2="531" y1="401.4443" y2="401.4443"/><line style="stroke:#A80036;stroke-width:1.0;" x1="311.5" x2="531" y1="403.4443" y2="403.4443"/><text fill="#000000" font-family="sans-serif" font-size="11" lengthAdjust="spacing" textLength="56" x="531" y="405.1016">predicates</text><line style="stroke:#A80036;stroke-width:1.0;" x1="587" x2="806.5" y1="401.4443" y2="401.4443"/><line style="stroke:#A80036;stroke-width:1.0;" x1="587" x2="806.5" y1="403.4443" y2="403.4443"/><text fill="#000000" font-family="sans-serif" font-size="11" lengthAdjust="spacing" textLength="175" x="316.5" y="500.2871">run(Evaluator, bool) : Result&lt;()&gt;</text><text fill="#000000" font-family="sans-serif" font-size="11" lengthAdjust="spacing" textLength="246" x="316.5" y="513.2422">eval_query(&amp;Query) : Result&lt;Option&lt;View&gt;&gt;</text><text fill="#000000" font-family="sans-serif" font-size="11" lengthAdjust="spacing" textLength="330" x="316.5" y="526.1973">eval_query_with(&amp;Query, Evaluator) : Result&lt;Option&lt;View&gt;&gt;</text><text fill="#000000" font-family="sans-serif" font-size="11" lengthAdjust="spacing" textLength="306" x="316.5" y="539.1523">eval_queries() : Result&lt;Vec&lt;(&amp;Query, Option&lt;View&gt;)&gt;&gt;</text><text fill="#000000" font-family="sans-serif" font-size="11" lengthAdjust="spacing" textLength="384" x="316.5" y="552.1074">eval_queries_with(Evaluator) : Result&lt;Vec&lt;(&amp;Query, Option&lt;View&gt;)&gt;&gt;</text><line style="stroke:#A80036;stroke-width:1.0;" x1="311.5" x2="531.5" y1="483.1748" y2="483.1748"/><line style="stroke:#A80036;stroke-width:1.0;" x1="311.5" x2="531.5" y1="485.1748" y2="485.1748"/><text fill="#000000" font-family="sans-serif" font-size="11" lengthAdjust="spacing" textLength="55" x="531.5" y="486.832">evaluation</text><line style="stroke:#A80036;stroke-width:1.0;" x1="586.5" x2="806.5" y1="483.1748" y2="483.1748"/><line style="stroke:#A80036;stroke-width:1.0;" x1="586.5" x2="806.5" y1="485.1748" y2="485.1748"/><rect fill="#F24D5C" height="6" style="stroke:#C82930;stroke-width:1.0;" width="6" x="318.5" y="575.3828"/><text fill="#000000" font-family="sans-serif" font-size="11" lengthAdjust="spacing" textLength="159" x="330.5" y="582.0176">set_source_file_path(PathBuf)</text><rect fill="#F24D5C" height="6" style="stroke:#C82930;stroke-width:1.0;" width="6" x="318.5" y="588.3379"/><text fill="#000000" font-family="sans-serif" font-size="11" lengthAdjust="spacing" textLength="176" x="330.5" y="594.9727">features_mut() : &amp;mut FeatureSet</text><line style="stroke:#A80036;stroke-width:1.0;" x1="311.5" x2="545.5" y1="564.9053" y2="564.9053"/><line style="stroke:#A80036;stroke-width:1.0;" x1="311.5" x2="545.5" y1="566.9053" y2="566.9053"/><text fill="#000000" font-family="sans-serif" font-size="11" lengthAdjust="spacing" textLength="27" x="545.5" y="568.5625">crate</text><line style="stroke:#A80036;stroke-width:1.0;" x1="572.5" x2="806.5" y1="564.9053" y2="564.9053"/><line style="stroke:#A80036;stroke-width:1.0;" x1="572.5" x2="806.5" y1="566.9053" y2="566.9053"/><!--MD5=[4681e5381920d05722abada9433001ed]
reverse link asdi::features::FeatureSet to asdi::ProgramCore--><path codeLine="33" d="M78.26,342.28 C80.04,393.01 91.71,526.69 164,601 C225.12,663.83 325.13,689.06 394.98,699.2 " fill="none" id="asdi::features::FeatureSet-backto-asdi::ProgramCore" style="stroke:#A80036;stroke-width:1.0;stroke-dasharray:7.0,7.0;"/><polygon fill="#A80036" points="78.11,337.07,74.3947,346.1912,78.2671,342.0675,82.3907,345.9399,78.11,337.07" style="stroke:#A80036;stroke-width:1.0;"/><!--MD5=[862fd5a6234edc6404853a7871942d99]
reverse link asdi::edb::RelationSet to asdi::ProgramCore--><path codeLine="34" d="M1074.04,686.32 C1060.45,668.22 1037.99,643.17 1011.33,632.33 C967.21,614.4 628.15,618.21 582.67,632.33 C563.21,638.37 544.15,649.24 527.56,660.84 " fill="none" id="asdi::edb::RelationSet-backto-asdi::ProgramCore" style="stroke:#A80036;stroke-width:1.0;stroke-dasharray:7.0,7.0;"/><polygon fill="#A80036" points="1077.3,690.76,1075.1989,681.1379,1074.3413,686.7293,1068.7499,685.8718,1077.3,690.76" style="stroke:#A80036;stroke-width:1.0;"/><text fill="#000000" font-family="sans-serif" font-size="13" lengthAdjust="spacing" textLength="73" x="988.075" y="680.2211">extensional</text><!--MD5=[862fd5a6234edc6404853a7871942d99]
reverse link asdi::edb::RelationSet to asdi::ProgramCore--><path codeLine="35" d="M1075.35,686.57 C1060.39,664.55 1033.22,630.78 999.67,616.67 C958.15,599.2 637.06,602.42 594.33,616.67 C567.32,625.68 541.5,643.39 520.75,660.76 " fill="none" id="asdi::edb::RelationSet-backto-asdi::ProgramCore-1" style="stroke:#A80036;stroke-width:1.0;stroke-dasharray:7.0,7.0;"/><polygon fill="#A80036" points="1078.18,690.8,1076.4928,681.0967,1075.3966,686.6463,1069.847,685.5501,1078.18,690.8" style="stroke:#A80036;stroke-width:1.0;"/><text fill="#000000" font-family="sans-serif" font-size="13" lengthAdjust="spacing" textLength="70" x="1086.8356" y="680.2749">intensional</text><!--MD5=[ed281010a167536b28b7fe5958e0c29d]
reverse link asdi::idb::RuleSet to asdi::ProgramCore--><path codeLine="36" d="M217.51,342.11 C219.75,391.36 231.6,519.94 294,601 C319.71,634.4 359.3,659.15 394.81,676.2 " fill="none" id="asdi::idb::RuleSet-backto-asdi::ProgramCore" style="stroke:#A80036;stroke-width:1.0;stroke-dasharray:7.0,7.0;"/><polygon fill="#A80036" points="217.31,337.04,213.6729,346.1927,217.5098,342.036,221.6665,345.8729,217.31,337.04" style="stroke:#A80036;stroke-width:1.0;"/><!--MD5=[61548d7db5417584fce196914e269885]
link asdi::Program to asdi::ProgramCore--><path codeLine="79" d="M497.23,601.07 C494.07,615.35 491.09,628.81 488.38,641.03 " fill="none" id="asdi::Program-to-asdi::ProgramCore" style="stroke:#A80036;stroke-width:1.0;stroke-dasharray:7.0,7.0;"/><polygon fill="none" points="495.13,642.95,483.97,660.96,481.46,639.92,495.13,642.95" style="stroke:#A80036;stroke-width:1.0;"/><!--MD5=[44e9340b47c8de994572dde550f90837]
link asdi::Program to asdi::MaybePositive--><path codeLine="80" d="M621.5,601.07 C625.88,620.63 629.92,638.66 633.37,654.06 " fill="none" id="asdi::Program-to-asdi::MaybePositive" style="stroke:#A80036;stroke-width:1.0;stroke-dasharray:7.0,7.0;"/><polygon fill="none" points="640.21,652.59,637.75,673.63,626.55,655.65,640.21,652.59" style="stroke:#A80036;stroke-width:1.0;"/><!--MD5=[b702be5eee97e5cb73ad92923406dff0]
link asdi::Program to asdi::edb::NameReferenceSet--><path codeLine="81" d="M816.0282,596.3723 C816.0282,596.3723 883.32,662.34 904.98,682.05 " fill="none" id="asdi::Program-asdi::edb::NameReferenceSet" style="stroke:#A80036;stroke-width:1.0;"/><polygon fill="#A80036" points="914.8,690.85,910.7627,681.8667,911.0748,687.5149,905.4266,687.827,914.8,690.85" style="stroke:#A80036;stroke-width:1.0;"/><line style="stroke:#A80036;stroke-width:1.0;" x1="911.0748" x2="905.115" y1="687.5149" y2="682.18"/><polygon fill="#A80036" points="807.51,587.92,808.9517,594.9855,816.0282,596.3723,814.5865,589.3067,807.51,587.92" style="stroke:#A80036;stroke-width:1.0;"/><text fill="#000000" font-family="sans-serif" font-size="13" lengthAdjust="spacing" textLength="65" x="831.6844" y="680.342">predicates</text><!--MD5=[b702be5eee97e5cb73ad92923406dff0]
link asdi::Program to asdi::edb::NameReferenceSet--><path codeLine="82" d="M815.8754,571.1314 C815.8754,571.1314 896.31,656.15 917.29,680.62 " fill="none" id="asdi::Program-asdi::edb::NameReferenceSet-1" style="stroke:#A80036;stroke-width:1.0;"/><polygon fill="#A80036" points="925.76,690.75,923.0526,681.2806,922.5515,686.9152,916.9169,686.4142,925.76,690.75" style="stroke:#A80036;stroke-width:1.0;"/><line style="stroke:#A80036;stroke-width:1.0;" x1="922.5515" x2="917.42" y1="686.9152" y2="680.78"/><polygon fill="#A80036" points="807.57,562.47,808.8356,569.5692,815.8754,571.1314,814.6098,564.0322,807.57,562.47" style="stroke:#A80036;stroke-width:1.0;"/><text fill="#000000" font-family="sans-serif" font-size="13" lengthAdjust="spacing" textLength="56" x="932.2088" y="680.2077">variables</text><!--MD5=[fedb9724573343aae7598a72889cad8e]
link asdi::Program to asdi::idb::query::QuerySet--><path codeLine="83" d="M818.4003,456.3906 C818.4003,456.3906 1045.45,581.33 1152,648 C1169.32,658.84 1187.95,671.9 1203.08,682.88 " fill="none" id="asdi::Program-asdi::idb::query::QuerySet" style="stroke:#A80036;stroke-width:1.0;"/><polygon fill="#A80036" points="1213.88,690.8,1208.9913,682.2501,1209.8492,687.8415,1204.2578,688.6994,1213.88,690.8" style="stroke:#A80036;stroke-width:1.0;"/><line style="stroke:#A80036;stroke-width:1.0;" x1="1209.8492" x2="1203.4" y1="687.8415" y2="683.115"/><polygon fill="#A80036" points="807.83,450.71,811.2216,457.0737,818.4003,456.3906,815.0087,450.0268,807.83,450.71" style="stroke:#A80036;stroke-width:1.0;"/><!--MD5=[4f1bc82dae492b64a5d98c2bfb0ae280]
@startuml

!include options.plantuml

class asdi::features::FeatureSet
hide "asdi::features::FeatureSet" members

class asdi::edb::RelationSet
hide "asdi::edb::RelationSet" members

class asdi::edb::NameReferenceSet
hide "asdi::edb::NameReferenceSet" members

class asdi::idb::RuleSet
hide "asdi::idb::RuleSet" members

class asdi::idb::query::QuerySet
hide "asdi::idb::query::QuerySet" members

namespace asdi {

    interface MaybePositive {
        is_positive() : bool
        is_negative() : bool
    }

    interface ProgramCore {
        features() : &FeatureSet
        extensional() : &RelationSet
        intensional() : &RelationSet
        rules() : &RuleSet
    }

    ProgramCore .up.> asdi::features::FeatureSet
    ProgramCore .up.> "extensional" asdi::edb::RelationSet
    ProgramCore .up.> "intensional" asdi::edb::RelationSet
    ProgramCore .up.> asdi::idb::RuleSet

    class Program {
        new_with_features(FeatureSet) : Self
        source_file_path() : Option<&PathBuf>
        == interned ==
        predicates() : &NameReferenceSet<Predicate>
        variables() : &NameReferenceSet<Variable>
        == edb ==
        extensional_mut() : &mut RelationSet
        add_new_extensional_relation(PredicateRef, Schema<Predicate>) : Result<&mut Relation>
        add_extensional_relation(Relation)
        load_extensional_data() : Result<()>
        == idb ==
        intensional_mut() : &mut RelationSet
        add_new_intensional_relation(PredicateRef, Schema<Predicate>) : Result<&mut Relation>
        add_intensional_relation(Relation)
        store_intensional_data() : Result<()>
        add_new_pure_rule(PredicateRef, Vec<Term>, Vec<Literal>) : Result<bool>
        add_new_constraint_rule(Vec<Literal>) : Result<bool>
        add_new_disjunctive_rule(Vec<Atom>, Vec<Literal>) : Result<bool>
        add_rule(Rule) : Result<bool>
        add_new_query(Predicate, Vec<Term>) : Result<bool>
        add_query(Query) : Result<bool>
        == queries ==
        queries(&self) -> &QuerySet
        == predicates ==
        is_recursive() : bool
        is_semi_positive() : bool
        is_linear() : bool
        is_guarded() : bool
        is_frontier_guarded() : bool
        == evaluation ==
        run(Evaluator, bool) : Result<()>
        eval_query(&Query) : Result<Option<View>>
        eval_query_with(&Query, Evaluator) : Result<Option<View>>
        eval_queries() : Result<Vec<(&Query, Option<View>)>>
        eval_queries_with(Evaluator) : Result<Vec<(&Query, Option<View>)>>
        == crate ==
        - set_source_file_path(PathBuf)
        - features_mut() : &mut FeatureSet
    }

    Program ..|> ProgramCore
    Program ..|> MaybePositive
    Program *- -> "predicates" asdi::edb::NameReferenceSet
    Program *- -> "variables" asdi::edb::NameReferenceSet
    Program *- -> asdi::idb::query::QuerySet

}

@enduml

@startuml

set namespaceSeparator ::
hide enum methods
hide interface fields
hide << const >> members
hide << type >> members
hide << type >> stereotype
hide << module >> fields
hide << module >> circle

class asdi::features::FeatureSet
hide "asdi::features::FeatureSet" members

class asdi::edb::RelationSet
hide "asdi::edb::RelationSet" members

class asdi::edb::NameReferenceSet
hide "asdi::edb::NameReferenceSet" members

class asdi::idb::RuleSet
hide "asdi::idb::RuleSet" members

class asdi::idb::query::QuerySet
hide "asdi::idb::query::QuerySet" members

namespace asdi {

    interface MaybePositive {
        is_positive() : bool
        is_negative() : bool
    }

    interface ProgramCore {
        features() : &FeatureSet
        extensional() : &RelationSet
        intensional() : &RelationSet
        rules() : &RuleSet
    }

    ProgramCore .up.> asdi::features::FeatureSet
    ProgramCore .up.> "extensional" asdi::edb::RelationSet
    ProgramCore .up.> "intensional" asdi::edb::RelationSet
    ProgramCore .up.> asdi::idb::RuleSet

    class Program {
        new_with_features(FeatureSet) : Self
        source_file_path() : Option<&PathBuf>
        == interned ==
        predicates() : &NameReferenceSet<Predicate>
        variables() : &NameReferenceSet<Variable>
        == edb ==
        extensional_mut() : &mut RelationSet
        add_new_extensional_relation(PredicateRef, Schema<Predicate>) : Result<&mut Relation>
        add_extensional_relation(Relation)
        load_extensional_data() : Result<()>
        == idb ==
        intensional_mut() : &mut RelationSet
        add_new_intensional_relation(PredicateRef, Schema<Predicate>) : Result<&mut Relation>
        add_intensional_relation(Relation)
        store_intensional_data() : Result<()>
        add_new_pure_rule(PredicateRef, Vec<Term>, Vec<Literal>) : Result<bool>
        add_new_constraint_rule(Vec<Literal>) : Result<bool>
        add_new_disjunctive_rule(Vec<Atom>, Vec<Literal>) : Result<bool>
        add_rule(Rule) : Result<bool>
        add_new_query(Predicate, Vec<Term>) : Result<bool>
        add_query(Query) : Result<bool>
        == queries ==
        queries(&self) -> &QuerySet
        == predicates ==
        is_recursive() : bool
        is_semi_positive() : bool
        is_linear() : bool
        is_guarded() : bool
        is_frontier_guarded() : bool
        == evaluation ==
        run(Evaluator, bool) : Result<()>
        eval_query(&Query) : Result<Option<View>>
        eval_query_with(&Query, Evaluator) : Result<Option<View>>
        eval_queries() : Result<Vec<(&Query, Option<View>)>>
        eval_queries_with(Evaluator) : Result<Vec<(&Query, Option<View>)>>
        == crate ==
        - set_source_file_path(PathBuf)
        - features_mut() : &mut FeatureSet
    }

    Program ..|> ProgramCore
    Program ..|> MaybePositive
    Program *- -> "predicates" asdi::edb::NameReferenceSet
    Program *- -> "variables" asdi::edb::NameReferenceSet
    Program *- -> asdi::idb::query::QuerySet

}

@enduml

PlantUML version 1.2022.1(Tue Feb 01 10:19:58 PST 2022)
(GPL source distribution)
Java Runtime: OpenJDK Runtime Environment
JVM: OpenJDK 64-Bit Server VM
Default Encoding: UTF-8
Language: en
Country: US
--></g></svg>