<?xml version="1.0" encoding="UTF-8" standalone="no"?><svg xmlns="http://www.w3.org/2000/svg" xmlns:xlink="http://www.w3.org/1999/xlink" contentScriptType="application/ecmascript" contentStyleType="text/css" height="184px" preserveAspectRatio="none" style="width:725px;height:184px;background:#FFFFFF;" version="1.1" viewBox="0 0 725 184" width="725px" zoomAndPan="magnify"><defs><filter height="300%" id="fou4ruhwzl4br" width="300%" x="-1" y="-1"><feGaussianBlur result="blurOut" stdDeviation="2.0"/><feColorMatrix in="blurOut" result="blurOut2" type="matrix" values="0 0 0 0 0 0 0 0 0 0 0 0 0 0 0 0 0 0 .4 0"/><feOffset dx="4.0" dy="4.0" in="blurOut2" result="blurOut3"/><feBlend in="SourceGraphic" in2="blurOut3" mode="normal"/></filter></defs><g><!--MD5=[e274c4916ac42ef1c11391a83d303c10]
cluster asdi--><polygon fill="#FFFFFF" filter="url(#fou4ruhwzl4br)" points="16,6,52,6,59,28.4883,708,28.4883,708,177,16,177,16,6" style="stroke:#000000;stroke-width:1.5;"/><line style="stroke:#000000;stroke-width:1.5;" x1="16" x2="59" y1="28.4883" y2="28.4883"/><text fill="#000000" font-family="sans-serif" font-size="14" font-weight="bold" lengthAdjust="spacing" textLength="30" x="20" y="21.5352">asdi</text><!--MD5=[6bc3af5db4038e5494ba0622f07de59b]
cluster asdi::edb--><polygon fill="#FFFFFF" filter="url(#fou4ruhwzl4br)" points="618,49,650,49,657,71.4883,684,71.4883,684,153,618,153,618,49" style="stroke:#000000;stroke-width:1.5;"/><line style="stroke:#000000;stroke-width:1.5;" x1="618" x2="657" y1="71.4883" y2="71.4883"/><text fill="#000000" font-family="sans-serif" font-size="14" font-weight="bold" lengthAdjust="spacing" textLength="26" x="622" y="64.5352">edb</text><!--MD5=[ae3c197a01158459eb2ddb806e23d6f2]
cluster asdi::idb--><polygon fill="#FFFFFF" filter="url(#fou4ruhwzl4br)" points="417,49,446,49,453,71.4883,594,71.4883,594,153,417,153,417,49" style="stroke:#000000;stroke-width:1.5;"/><line style="stroke:#000000;stroke-width:1.5;" x1="417" x2="453" y1="71.4883" y2="71.4883"/><text fill="#000000" font-family="sans-serif" font-size="14" font-weight="bold" lengthAdjust="spacing" textLength="23" x="421" y="64.5352">idb</text><polygon fill="#FFFFFF" filter="url(#fou4ruhwzl4br)" points="634,84,654,84,661,106.4883,668,106.4883,668,136.9766,634,136.9766,634,84" style="stroke:#000000;stroke-width:1.5;"/><line style="stroke:#000000;stroke-width:1.5;" x1="634" x2="661" y1="106.4883" y2="106.4883"/><text fill="#000000" font-family="sans-serif" font-size="14" font-weight="bold" lengthAdjust="spacing" textLength="14" x="638" y="99.5352">io</text><polygon fill="#FFFFFF" filter="url(#fou4ruhwzl4br)" points="342.5,84,383.5,84,390.5,106.4883,397.5,106.4883,397.5,136.9766,342.5,136.9766,342.5,84" style="stroke:#000000;stroke-width:1.5;"/><line style="stroke:#000000;stroke-width:1.5;" x1="342.5" x2="390.5" y1="106.4883" y2="106.4883"/><text fill="#000000" font-family="sans-serif" font-size="14" font-weight="bold" lengthAdjust="spacing" textLength="35" x="346.5" y="99.5352">error</text><polygon fill="#FFFFFF" filter="url(#fou4ruhwzl4br)" points="228.5,84,293.5,84,300.5,106.4883,307.5,106.4883,307.5,136.9766,228.5,136.9766,228.5,84" style="stroke:#000000;stroke-width:1.5;"/><line style="stroke:#000000;stroke-width:1.5;" x1="228.5" x2="300.5" y1="106.4883" y2="106.4883"/><text fill="#000000" font-family="sans-serif" font-size="14" font-weight="bold" lengthAdjust="spacing" textLength="59" x="232.5" y="99.5352">features</text><polygon fill="#FFFFFF" filter="url(#fou4ruhwzl4br)" points="528.5,84,563.5,84,570.5,106.4883,577.5,106.4883,577.5,136.9766,528.5,136.9766,528.5,84" style="stroke:#000000;stroke-width:1.5;"/><line style="stroke:#000000;stroke-width:1.5;" x1="528.5" x2="570.5" y1="106.4883" y2="106.4883"/><text fill="#000000" font-family="sans-serif" font-size="14" font-weight="bold" lengthAdjust="spacing" textLength="29" x="532.5" y="99.5352">eval</text><polygon fill="#FFFFFF" filter="url(#fou4ruhwzl4br)" points="433,84,479,84,486,106.4883,493,106.4883,493,136.9766,433,136.9766,433,84" style="stroke:#000000;stroke-width:1.5;"/><line style="stroke:#000000;stroke-width:1.5;" x1="433" x2="486" y1="106.4883" y2="106.4883"/><text fill="#000000" font-family="sans-serif" font-size="14" font-weight="bold" lengthAdjust="spacing" textLength="40" x="437" y="99.5352">query</text><polygon fill="#FFFFFF" filter="url(#fou4ruhwzl4br)" points="134.5,84,179.5,84,186.5,106.4883,193.5,106.4883,193.5,136.9766,134.5,136.9766,134.5,84" style="stroke:#000000;stroke-width:1.5;"/><line style="stroke:#000000;stroke-width:1.5;" x1="134.5" x2="186.5" y1="106.4883" y2="106.4883"/><text fill="#000000" font-family="sans-serif" font-size="14" font-weight="bold" lengthAdjust="spacing" textLength="39" x="138.5" y="99.5352">parse</text><polygon fill="#FFFFFF" filter="url(#fou4ruhwzl4br)" points="32.5,84,85.5,84,92.5,106.4883,99.5,106.4883,99.5,136.9766,32.5,136.9766,32.5,84" style="stroke:#000000;stroke-width:1.5;"/><line style="stroke:#000000;stroke-width:1.5;" x1="32.5" x2="92.5" y1="106.4883" y2="106.4883"/><text fill="#000000" font-family="sans-serif" font-size="14" font-weight="bold" lengthAdjust="spacing" textLength="47" x="36.5" y="99.5352">visitor</text><!--MD5=[131e0d5145aeab1a14250d1405c692c7]
@startuml

!include options.plantuml

namespace asdi {

    namespace edb {
        namespace io {}
    }
    namespace error {}
    namespace features {}
    namespace idb {
        namespace eval {}
        namespace query {}
    }
    namespace parse {}
    namespace visitor {}
}

@enduml

@startuml

set namespaceSeparator ::
hide enum methods
hide interface fields
hide << const >> members
hide << type >> members
hide << type >> stereotype
hide << module >> fields
hide << module >> circle

namespace asdi {

    namespace edb {
        namespace io {}
    }
    namespace error {}
    namespace features {}
    namespace idb {
        namespace eval {}
        namespace query {}
    }
    namespace parse {}
    namespace visitor {}
}

@enduml

PlantUML version 1.2022.1(Tue Feb 01 10:19:58 PST 2022)
(GPL source distribution)
Java Runtime: OpenJDK Runtime Environment
JVM: OpenJDK 64-Bit Server VM
Default Encoding: UTF-8
Language: en
Country: US
--></g></svg>