<?xml version="1.0" encoding="UTF-8" standalone="no"?><svg xmlns="http://www.w3.org/2000/svg" xmlns:xlink="http://www.w3.org/1999/xlink" contentScriptType="application/ecmascript" contentStyleType="text/css" height="610px" preserveAspectRatio="none" style="width:838px;height:610px;background:#FFFFFF;" version="1.1" viewBox="0 0 838 610" width="838px" zoomAndPan="magnify"><defs><filter height="300%" id="f1uf6wnp3o286n" width="300%" x="-1" y="-1"><feGaussianBlur result="blurOut" stdDeviation="2.0"/><feColorMatrix in="blurOut" result="blurOut2" type="matrix" values="0 0 0 0 0 0 0 0 0 0 0 0 0 0 0 0 0 0 .4 0"/><feOffset dx="4.0" dy="4.0" in="blurOut2" result="blurOut3"/><feBlend in="SourceGraphic" in2="blurOut3" mode="normal"/></filter></defs><g><!--MD5=[e274c4916ac42ef1c11391a83d303c10]
cluster asdi--><polygon fill="#FFFFFF" filter="url(#f1uf6wnp3o286n)" points="105,6,141,6,148,28.4883,658,28.4883,658,496,105,496,105,6" style="stroke:#000000;stroke-width:1.5;"/><line style="stroke:#000000;stroke-width:1.5;" x1="105" x2="148" y1="28.4883" y2="28.4883"/><text fill="#000000" font-family="sans-serif" font-size="14" font-weight="bold" lengthAdjust="spacing" textLength="30" x="109" y="21.5352">asdi</text><!--MD5=[06db1a3c418c087d07f3ad85f7929579]
cluster asdi::visitor--><polygon fill="#FFFFFF" filter="url(#f1uf6wnp3o286n)" points="129,49,182,49,189,71.4883,541,71.4883,541,472,129,472,129,49" style="stroke:#000000;stroke-width:1.5;"/><line style="stroke:#000000;stroke-width:1.5;" x1="129" x2="189" y1="71.4883" y2="71.4883"/><text fill="#000000" font-family="sans-serif" font-size="14" font-weight="bold" lengthAdjust="spacing" textLength="47" x="133" y="64.5352">visitor</text><!--MD5=[6bc3af5db4038e5494ba0622f07de59b]
cluster asdi::edb--><polygon fill="#FFFFFF" filter="url(#f1uf6wnp3o286n)" points="16,520,84,520,91,542.4883,348,542.4883,348,603,16,603,16,520" style="stroke:#000000;stroke-width:1.5;"/><line style="stroke:#000000;stroke-width:1.5;" x1="16" x2="91" y1="542.4883" y2="542.4883"/><text fill="#000000" font-family="sans-serif" font-size="14" font-weight="bold" lengthAdjust="spacing" textLength="62" x="20" y="535.5352">asdi::edb</text><!--MD5=[ae3c197a01158459eb2ddb806e23d6f2]
cluster asdi::idb--><polygon fill="#FFFFFF" filter="url(#f1uf6wnp3o286n)" points="378,520,443,520,450,542.4883,577,542.4883,577,603,378,603,378,520" style="stroke:#000000;stroke-width:1.5;"/><line style="stroke:#000000;stroke-width:1.5;" x1="378" x2="450" y1="542.4883" y2="542.4883"/><text fill="#000000" font-family="sans-serif" font-size="14" font-weight="bold" lengthAdjust="spacing" textLength="59" x="382" y="535.5352">asdi::idb</text><!--MD5=[331bdf5c2291f41e90a08533bcc43e12]
cluster asdi::idb::query--><polygon fill="#FFFFFF" filter="url(#f1uf6wnp3o286n)" points="604,520,715,520,722,542.4883,821,542.4883,821,603,604,603,604,520" style="stroke:#000000;stroke-width:1.5;"/><line style="stroke:#000000;stroke-width:1.5;" x1="604" x2="722" y1="542.4883" y2="542.4883"/><text fill="#000000" font-family="sans-serif" font-size="14" font-weight="bold" lengthAdjust="spacing" textLength="105" x="608" y="535.5352">asdi::idb::query</text><!--MD5=[619a18f3975bec44ed0f3b908af212c9]
class asdi::Program--><rect codeLine="4" fill="#FEFECE" filter="url(#f1uf6wnp3o286n)" height="32" id="asdi::Program" style="stroke:#A80036;stroke-width:1.5;" width="81" x="560.5" y="420"/><ellipse cx="575.5" cy="436" fill="#ADD1B2" rx="11" ry="11" style="stroke:#A80036;stroke-width:1.0;"/><path d="M577.9731,442.1431 Q577.3921,442.4419 576.7529,442.5913 Q576.1138,442.7407 575.4082,442.7407 Q572.9014,442.7407 571.5815,441.0889 Q570.2617,439.437 570.2617,436.3159 Q570.2617,433.1865 571.5815,431.5347 Q572.9014,429.8828 575.4082,429.8828 Q576.1138,429.8828 576.7612,430.0322 Q577.4087,430.1816 577.9731,430.4805 L577.9731,433.2031 Q577.3423,432.6221 576.7488,432.3523 Q576.1553,432.0825 575.5244,432.0825 Q574.1797,432.0825 573.4949,433.1492 Q572.8101,434.2158 572.8101,436.3159 Q572.8101,438.4077 573.4949,439.4744 Q574.1797,440.541 575.5244,440.541 Q576.1553,440.541 576.7488,440.2712 Q577.3423,440.0015 577.9731,439.4204 Z " fill="#000000"/><text fill="#000000" font-family="sans-serif" font-size="12" lengthAdjust="spacing" textLength="49" x="589.5" y="440.5352">Program</text><!--MD5=[49d5ca419763b1c8c26d30ebbc0d8bbd]
class asdi::visitor::Formatter--><rect codeLine="30" fill="#FEFECE" filter="url(#f1uf6wnp3o286n)" height="40" id="asdi::visitor::Formatter" style="stroke:#A80036;stroke-width:1.5;" width="88" x="358" y="216"/><ellipse cx="373" cy="232" fill="#B4A7E5" rx="11" ry="11" style="stroke:#A80036;stroke-width:1.0;"/><path d="M369.4277,228.2651 L369.4277,226.1069 L376.8071,226.1069 L376.8071,228.2651 L374.3418,228.2651 L374.3418,236.3418 L376.8071,236.3418 L376.8071,238.5 L369.4277,238.5 L369.4277,236.3418 L371.8931,236.3418 L371.8931,228.2651 Z " fill="#000000"/><text fill="#000000" font-family="sans-serif" font-size="12" font-style="italic" lengthAdjust="spacing" textLength="56" x="387" y="236.5352">Formatter</text><line style="stroke:#A80036;stroke-width:1.5;" x1="359" x2="445" y1="248" y2="248"/><!--MD5=[b818c1bc739cda3d875bcb28854b99e7]
class asdi::visitor::ProgramVisitor--><rect codeLine="32" fill="#FEFECE" filter="url(#f1uf6wnp3o286n)" height="40" id="asdi::visitor::ProgramVisitor" style="stroke:#A80036;stroke-width:1.5;" width="117" x="407.5" y="316"/><ellipse cx="422.5" cy="332" fill="#B4A7E5" rx="11" ry="11" style="stroke:#A80036;stroke-width:1.0;"/><path d="M418.9277,328.2651 L418.9277,326.1069 L426.3071,326.1069 L426.3071,328.2651 L423.8418,328.2651 L423.8418,336.3418 L426.3071,336.3418 L426.3071,338.5 L418.9277,338.5 L418.9277,336.3418 L421.3931,336.3418 L421.3931,328.2651 Z " fill="#000000"/><text fill="#000000" font-family="sans-serif" font-size="12" font-style="italic" lengthAdjust="spacing" textLength="85" x="436.5" y="336.5352">ProgramVisitor</text><line style="stroke:#A80036;stroke-width:1.5;" x1="408.5" x2="523.5" y1="348" y2="348"/><!--MD5=[8098a62c05abc4d56107425b2c373ae6]
class asdi::visitor::RelationVisitor--><rect codeLine="33" fill="#FEFECE" filter="url(#f1uf6wnp3o286n)" height="40" id="asdi::visitor::RelationVisitor" style="stroke:#A80036;stroke-width:1.5;" width="114" x="145" y="416"/><ellipse cx="160" cy="432" fill="#B4A7E5" rx="11" ry="11" style="stroke:#A80036;stroke-width:1.0;"/><path d="M156.4277,428.2651 L156.4277,426.1069 L163.8071,426.1069 L163.8071,428.2651 L161.3418,428.2651 L161.3418,436.3418 L163.8071,436.3418 L163.8071,438.5 L156.4277,438.5 L156.4277,436.3418 L158.8931,436.3418 L158.8931,428.2651 Z " fill="#000000"/><text fill="#000000" font-family="sans-serif" font-size="12" font-style="italic" lengthAdjust="spacing" textLength="82" x="174" y="436.5352">RelationVisitor</text><line style="stroke:#A80036;stroke-width:1.5;" x1="146" x2="258" y1="448" y2="448"/><!--MD5=[6a568aeb1da860f079019b5e502c14d4]
class asdi::visitor::RuleVisitor--><rect codeLine="34" fill="#FEFECE" filter="url(#f1uf6wnp3o286n)" height="40" id="asdi::visitor::RuleVisitor" style="stroke:#A80036;stroke-width:1.5;" width="93" x="294.5" y="416"/><ellipse cx="309.5" cy="432" fill="#B4A7E5" rx="11" ry="11" style="stroke:#A80036;stroke-width:1.0;"/><path d="M305.9277,428.2651 L305.9277,426.1069 L313.3071,426.1069 L313.3071,428.2651 L310.8418,428.2651 L310.8418,436.3418 L313.3071,436.3418 L313.3071,438.5 L305.9277,438.5 L305.9277,436.3418 L308.3931,436.3418 L308.3931,428.2651 Z " fill="#000000"/><text fill="#000000" font-family="sans-serif" font-size="12" font-style="italic" lengthAdjust="spacing" textLength="61" x="323.5" y="436.5352">RuleVisitor</text><line style="stroke:#A80036;stroke-width:1.5;" x1="295.5" x2="386.5" y1="448" y2="448"/><!--MD5=[bb4106a81d1aaded467b52484c9a24ed]
class asdi::visitor::QueryVisitor--><rect codeLine="35" fill="#FEFECE" filter="url(#f1uf6wnp3o286n)" height="40" id="asdi::visitor::QueryVisitor" style="stroke:#A80036;stroke-width:1.5;" width="102" x="423" y="416"/><ellipse cx="438" cy="432" fill="#B4A7E5" rx="11" ry="11" style="stroke:#A80036;stroke-width:1.0;"/><path d="M434.4277,428.2651 L434.4277,426.1069 L441.8071,426.1069 L441.8071,428.2651 L439.3418,428.2651 L439.3418,436.3418 L441.8071,436.3418 L441.8071,438.5 L434.4277,438.5 L434.4277,436.3418 L436.8931,436.3418 L436.8931,428.2651 Z " fill="#000000"/><text fill="#000000" font-family="sans-serif" font-size="12" font-style="italic" lengthAdjust="spacing" textLength="70" x="452" y="436.5352">QueryVisitor</text><line style="stroke:#A80036;stroke-width:1.5;" x1="424" x2="524" y1="448" y2="448"/><!--MD5=[7e3a4c3bb1c98ce5cae9b948d2a61d3f]
class asdi::visitor::features--><rect codeLine="54" fill="#FEFECE" filter="url(#f1uf6wnp3o286n)" height="72.1758" id="asdi::visitor::features" style="stroke:#A80036;stroke-width:1.5;" width="150" x="359" y="84"/><text fill="#000000" font-family="sans-serif" font-size="12" font-style="italic" lengthAdjust="spacing" textLength="55" x="406.5" y="100.6016">«module»</text><text fill="#000000" font-family="sans-serif" font-size="12" lengthAdjust="spacing" textLength="47" x="410.5" y="114.7344">features</text><line style="stroke:#A80036;stroke-width:1.5;" x1="360" x2="508" y1="122.2656" y2="122.2656"/><text fill="#000000" font-family="sans-serif" font-size="11" lengthAdjust="spacing" textLength="138" x="365" y="136.9004">format_program() : String</text><text fill="#000000" font-family="sans-serif" font-size="11" lengthAdjust="spacing" textLength="124" x="365" y="149.8555">visit_program&lt;T&gt;() : T</text><!--MD5=[6137f69857c1321f4d06c717c9c09db2]
class asdi::edb::RelationSet--><rect codeLine="7" fill="#FEFECE" filter="url(#f1uf6wnp3o286n)" height="32" id="asdi::edb::RelationSet" style="stroke:#A80036;stroke-width:1.5;" width="95" x="32.5" y="555"/><ellipse cx="47.5" cy="571" fill="#ADD1B2" rx="11" ry="11" style="stroke:#A80036;stroke-width:1.0;"/><path d="M49.9731,577.1431 Q49.3921,577.4419 48.7529,577.5913 Q48.1138,577.7407 47.4082,577.7407 Q44.9014,577.7407 43.5815,576.0889 Q42.2617,574.437 42.2617,571.3159 Q42.2617,568.1865 43.5815,566.5347 Q44.9014,564.8828 47.4082,564.8828 Q48.1138,564.8828 48.7612,565.0322 Q49.4087,565.1816 49.9731,565.4805 L49.9731,568.2031 Q49.3423,567.6221 48.7488,567.3523 Q48.1553,567.0825 47.5244,567.0825 Q46.1797,567.0825 45.4949,568.1492 Q44.8101,569.2158 44.8101,571.3159 Q44.8101,573.4077 45.4949,574.4744 Q46.1797,575.541 47.5244,575.541 Q48.1553,575.541 48.7488,575.2712 Q49.3423,575.0015 49.9731,574.4204 Z " fill="#000000"/><text fill="#000000" font-family="sans-serif" font-size="12" lengthAdjust="spacing" textLength="63" x="61.5" y="575.5352">RelationSet</text><!--MD5=[63be3a1481beaba15f9dd2bbcd4a53e1]
class asdi::edb::Relation--><rect codeLine="10" fill="#FEFECE" filter="url(#f1uf6wnp3o286n)" height="32" id="asdi::edb::Relation" style="stroke:#A80036;stroke-width:1.5;" width="78" x="163" y="555"/><ellipse cx="178" cy="571" fill="#ADD1B2" rx="11" ry="11" style="stroke:#A80036;stroke-width:1.0;"/><path d="M180.4731,577.1431 Q179.8921,577.4419 179.2529,577.5913 Q178.6138,577.7407 177.9082,577.7407 Q175.4014,577.7407 174.0815,576.0889 Q172.7617,574.437 172.7617,571.3159 Q172.7617,568.1865 174.0815,566.5347 Q175.4014,564.8828 177.9082,564.8828 Q178.6138,564.8828 179.2612,565.0322 Q179.9087,565.1816 180.4731,565.4805 L180.4731,568.2031 Q179.8423,567.6221 179.2488,567.3523 Q178.6553,567.0825 178.0244,567.0825 Q176.6797,567.0825 175.9949,568.1492 Q175.3101,569.2158 175.3101,571.3159 Q175.3101,573.4077 175.9949,574.4744 Q176.6797,575.541 178.0244,575.541 Q178.6553,575.541 179.2488,575.2712 Q179.8423,575.0015 180.4731,574.4204 Z " fill="#000000"/><text fill="#000000" font-family="sans-serif" font-size="12" lengthAdjust="spacing" textLength="46" x="192" y="575.5352">Relation</text><!--MD5=[b01c1280d4e10e5850c2de04b0afedc0]
class asdi::edb::Fact--><rect codeLine="13" fill="#FEFECE" filter="url(#f1uf6wnp3o286n)" height="32" id="asdi::edb::Fact" style="stroke:#A80036;stroke-width:1.5;" width="55" x="276.5" y="555"/><ellipse cx="291.5" cy="571" fill="#ADD1B2" rx="11" ry="11" style="stroke:#A80036;stroke-width:1.0;"/><path d="M293.9731,577.1431 Q293.3921,577.4419 292.7529,577.5913 Q292.1138,577.7407 291.4082,577.7407 Q288.9014,577.7407 287.5815,576.0889 Q286.2617,574.437 286.2617,571.3159 Q286.2617,568.1865 287.5815,566.5347 Q288.9014,564.8828 291.4082,564.8828 Q292.1138,564.8828 292.7612,565.0322 Q293.4087,565.1816 293.9731,565.4805 L293.9731,568.2031 Q293.3423,567.6221 292.7488,567.3523 Q292.1553,567.0825 291.5244,567.0825 Q290.1797,567.0825 289.4949,568.1492 Q288.8101,569.2158 288.8101,571.3159 Q288.8101,573.4077 289.4949,574.4744 Q290.1797,575.541 291.5244,575.541 Q292.1553,575.541 292.7488,575.2712 Q293.3423,575.0015 293.9731,574.4204 Z " fill="#000000"/><text fill="#000000" font-family="sans-serif" font-size="12" lengthAdjust="spacing" textLength="23" x="305.5" y="575.5352">Fact</text><!--MD5=[30c8d4c59bd3776484494cc31a150236]
class asdi::idb::RuleSet--><rect codeLine="16" fill="#FEFECE" filter="url(#f1uf6wnp3o286n)" height="32" id="asdi::idb::RuleSet" style="stroke:#A80036;stroke-width:1.5;" width="74" x="487" y="555"/><ellipse cx="502" cy="571" fill="#ADD1B2" rx="11" ry="11" style="stroke:#A80036;stroke-width:1.0;"/><path d="M504.4731,577.1431 Q503.8921,577.4419 503.2529,577.5913 Q502.6138,577.7407 501.9082,577.7407 Q499.4014,577.7407 498.0815,576.0889 Q496.7617,574.437 496.7617,571.3159 Q496.7617,568.1865 498.0815,566.5347 Q499.4014,564.8828 501.9082,564.8828 Q502.6138,564.8828 503.2612,565.0322 Q503.9087,565.1816 504.4731,565.4805 L504.4731,568.2031 Q503.8423,567.6221 503.2488,567.3523 Q502.6553,567.0825 502.0244,567.0825 Q500.6797,567.0825 499.9949,568.1492 Q499.3101,569.2158 499.3101,571.3159 Q499.3101,573.4077 499.9949,574.4744 Q500.6797,575.541 502.0244,575.541 Q502.6553,575.541 503.2488,575.2712 Q503.8423,575.0015 504.4731,574.4204 Z " fill="#000000"/><text fill="#000000" font-family="sans-serif" font-size="12" lengthAdjust="spacing" textLength="42" x="516" y="575.5352">RuleSet</text><!--MD5=[afabf50c567fddf1e22749c2d45d6bf2]
class asdi::idb::Rule--><rect codeLine="19" fill="#FEFECE" filter="url(#f1uf6wnp3o286n)" height="32" id="asdi::idb::Rule" style="stroke:#A80036;stroke-width:1.5;" width="57" x="394.5" y="555"/><ellipse cx="409.5" cy="571" fill="#ADD1B2" rx="11" ry="11" style="stroke:#A80036;stroke-width:1.0;"/><path d="M411.9731,577.1431 Q411.3921,577.4419 410.7529,577.5913 Q410.1138,577.7407 409.4082,577.7407 Q406.9014,577.7407 405.5815,576.0889 Q404.2617,574.437 404.2617,571.3159 Q404.2617,568.1865 405.5815,566.5347 Q406.9014,564.8828 409.4082,564.8828 Q410.1138,564.8828 410.7612,565.0322 Q411.4087,565.1816 411.9731,565.4805 L411.9731,568.2031 Q411.3423,567.6221 410.7488,567.3523 Q410.1553,567.0825 409.5244,567.0825 Q408.1797,567.0825 407.4949,568.1492 Q406.8101,569.2158 406.8101,571.3159 Q406.8101,573.4077 407.4949,574.4744 Q408.1797,575.541 409.5244,575.541 Q410.1553,575.541 410.7488,575.2712 Q411.3423,575.0015 411.9731,574.4204 Z " fill="#000000"/><text fill="#000000" font-family="sans-serif" font-size="12" lengthAdjust="spacing" textLength="25" x="423.5" y="575.5352">Rule</text><!--MD5=[862f5ba143deaa96c11c433d25830988]
class asdi::idb::query::QuerySet--><rect codeLine="22" fill="#FEFECE" filter="url(#f1uf6wnp3o286n)" height="32" id="asdi::idb::query::QuerySet" style="stroke:#A80036;stroke-width:1.5;" width="83" x="721.5" y="555"/><ellipse cx="736.5" cy="571" fill="#ADD1B2" rx="11" ry="11" style="stroke:#A80036;stroke-width:1.0;"/><path d="M738.9731,577.1431 Q738.3921,577.4419 737.7529,577.5913 Q737.1138,577.7407 736.4082,577.7407 Q733.9014,577.7407 732.5815,576.0889 Q731.2617,574.437 731.2617,571.3159 Q731.2617,568.1865 732.5815,566.5347 Q733.9014,564.8828 736.4082,564.8828 Q737.1138,564.8828 737.7612,565.0322 Q738.4087,565.1816 738.9731,565.4805 L738.9731,568.2031 Q738.3423,567.6221 737.7488,567.3523 Q737.1553,567.0825 736.5244,567.0825 Q735.1797,567.0825 734.4949,568.1492 Q733.8101,569.2158 733.8101,571.3159 Q733.8101,573.4077 734.4949,574.4744 Q735.1797,575.541 736.5244,575.541 Q737.1553,575.541 737.7488,575.2712 Q738.3423,575.0015 738.9731,574.4204 Z " fill="#000000"/><text fill="#000000" font-family="sans-serif" font-size="12" lengthAdjust="spacing" textLength="51" x="750.5" y="575.5352">QuerySet</text><!--MD5=[942727c1e5dca949354fc2e6ef4102b1]
class asdi::idb::query::Query--><rect codeLine="25" fill="#FEFECE" filter="url(#f1uf6wnp3o286n)" height="32" id="asdi::idb::query::Query" style="stroke:#A80036;stroke-width:1.5;" width="66" x="620" y="555"/><ellipse cx="635" cy="571" fill="#ADD1B2" rx="11" ry="11" style="stroke:#A80036;stroke-width:1.0;"/><path d="M637.4731,577.1431 Q636.8921,577.4419 636.2529,577.5913 Q635.6138,577.7407 634.9082,577.7407 Q632.4014,577.7407 631.0815,576.0889 Q629.7617,574.437 629.7617,571.3159 Q629.7617,568.1865 631.0815,566.5347 Q632.4014,564.8828 634.9082,564.8828 Q635.6138,564.8828 636.2612,565.0322 Q636.9087,565.1816 637.4731,565.4805 L637.4731,568.2031 Q636.8423,567.6221 636.2488,567.3523 Q635.6553,567.0825 635.0244,567.0825 Q633.6797,567.0825 632.9949,568.1492 Q632.3101,569.2158 632.3101,571.3159 Q632.3101,573.4077 632.9949,574.4744 Q633.6797,575.541 635.0244,575.541 Q635.6553,575.541 636.2488,575.2712 Q636.8423,575.0015 637.4731,574.4204 Z " fill="#000000"/><text fill="#000000" font-family="sans-serif" font-size="12" lengthAdjust="spacing" textLength="34" x="649" y="575.5352">Query</text><!--MD5=[292a115e255385e750f8fe1093e35276]
link asdi::visitor::Formatter to asdi::visitor::ProgramVisitor--><path codeLine="37" d="M414.64,256.36 C422.53,268.44 432.94,284.37 442.32,298.73 " fill="none" id="asdi::visitor::Formatter-to-asdi::visitor::ProgramVisitor" style="stroke:#A80036;stroke-width:1.0;"/><polygon fill="none" points="448.31,295.11,453.38,315.68,436.59,302.76,448.31,295.11" style="stroke:#A80036;stroke-width:1.0;"/><text fill="#000000" font-family="sans-serif" font-size="13" lengthAdjust="spacing" textLength="57" x="384.301" y="305.1218">&lt;String&gt;</text><!--MD5=[494ff9e1f6b2511c5f41c87db7237760]
link asdi::visitor::ProgramVisitor to asdi::visitor::RelationVisitor--><path codeLine="39" d="M414.79,356.01 C369.85,372.69 304.61,396.91 258.23,414.13 " fill="none" id="asdi::visitor::ProgramVisitor-to-asdi::visitor::RelationVisitor" style="stroke:#A80036;stroke-width:1.0;stroke-dasharray:7.0,7.0;"/><polygon fill="#A80036" points="253.52,415.87,263.3499,416.4815,258.2063,414.1269,260.5609,408.9834,253.52,415.87" style="stroke:#A80036;stroke-width:1.0;"/><!--MD5=[429d92fbb8a463e9b3c688f6a05e31b4]
link asdi::visitor::ProgramVisitor to asdi::visitor::RuleVisitor--><path codeLine="40" d="M441.6,356.13 C420.87,372.38 391.09,395.73 369.31,412.81 " fill="none" id="asdi::visitor::ProgramVisitor-to-asdi::visitor::RuleVisitor" style="stroke:#A80036;stroke-width:1.0;stroke-dasharray:7.0,7.0;"/><polygon fill="#A80036" points="365.34,415.92,374.8885,413.5064,369.2721,412.8315,369.947,407.2151,365.34,415.92" style="stroke:#A80036;stroke-width:1.0;"/><!--MD5=[2f2dc5c170bebb2245ea3bf117959349]
link asdi::visitor::ProgramVisitor to asdi::visitor::QueryVisitor--><path codeLine="41" d="M467.58,356.36 C468.85,371.93 470.64,393.9 472.01,410.66 " fill="none" id="asdi::visitor::ProgramVisitor-to-asdi::visitor::QueryVisitor" style="stroke:#A80036;stroke-width:1.0;stroke-dasharray:7.0,7.0;"/><polygon fill="#A80036" points="472.42,415.68,475.661,406.3797,472.006,410.6972,467.6885,407.0421,472.42,415.68" style="stroke:#A80036;stroke-width:1.0;"/><!--MD5=[fccae2c952d872fc837ebfd756b62f6a]
link asdi::visitor::ProgramVisitor to asdi::Program--><path codeLine="42" d="M492.35,356.13 C516.48,373.64 551.95,399.39 575.73,416.65 " fill="none" id="asdi::visitor::ProgramVisitor-to-asdi::Program" style="stroke:#A80036;stroke-width:1.0;stroke-dasharray:7.0,7.0;"/><polygon fill="#A80036" points="580.03,419.78,575.1076,411.2494,575.9876,416.8374,570.3996,417.7174,580.03,419.78" style="stroke:#A80036;stroke-width:1.0;"/><!--MD5=[7d21a56532394ad80200003b95573428]
link asdi::visitor::ProgramVisitor to asdi::edb::RelationSet--><path codeLine="43" d="M407.47,343.57 C321.57,354.36 167.17,378.44 127,416 C89.01,451.52 81.41,516.75 80.1,549.74 " fill="none" id="asdi::visitor::ProgramVisitor-to-asdi::edb::RelationSet" style="stroke:#A80036;stroke-width:1.0;stroke-dasharray:7.0,7.0;"/><polygon fill="#A80036" points="79.94,554.75,84.2207,545.8801,80.0971,549.7525,76.2247,545.6288,79.94,554.75" style="stroke:#A80036;stroke-width:1.0;"/><!--MD5=[61010bdf44063d3a25c246bd67ab3326]
link asdi::visitor::ProgramVisitor to asdi::idb::RuleSet--><path codeLine="44" d="M524.74,343.83 C569.58,352.46 628.51,371.98 658,416 C679.77,448.49 683.55,474.39 658,504 C650.08,513.18 615.23,507.42 604,512 C581.35,521.24 559.11,538.18 543.85,551.38 " fill="none" id="asdi::visitor::ProgramVisitor-to-asdi::idb::RuleSet" style="stroke:#A80036;stroke-width:1.0;stroke-dasharray:7.0,7.0;"/><polygon fill="#A80036" points="539.74,554.99,549.1417,552.0561,543.4967,551.6904,543.8624,546.0454,539.74,554.99" style="stroke:#A80036;stroke-width:1.0;"/><!--MD5=[a4381fc6c5dbf6bbe14a3f8ab6711557]
link asdi::visitor::ProgramVisitor to asdi::idb::query::QuerySet--><path codeLine="45" d="M524.75,344.36 C574.9,353.42 646.14,373.25 693,416 C733.37,452.82 752.03,517.46 759.22,550.04 " fill="none" id="asdi::visitor::ProgramVisitor-to-asdi::idb::query::QuerySet" style="stroke:#A80036;stroke-width:1.0;stroke-dasharray:7.0,7.0;"/><polygon fill="#A80036" points="760.27,554.98,762.2762,545.3376,759.2126,550.0931,754.4571,547.0295,760.27,554.98" style="stroke:#A80036;stroke-width:1.0;"/><!--MD5=[64f43929574ac4a3026f4fd533c4b461]
link asdi::visitor::RelationVisitor to asdi::edb::Relation--><path codeLine="47" d="M202,456.06 C202,480.87 202,524.06 202,549.55 " fill="none" id="asdi::visitor::RelationVisitor-to-asdi::edb::Relation" style="stroke:#A80036;stroke-width:1.0;stroke-dasharray:7.0,7.0;"/><polygon fill="#A80036" points="202,554.7,206,545.7,202,549.7,198,545.7,202,554.7" style="stroke:#A80036;stroke-width:1.0;"/><!--MD5=[7fbb9a839cdace1002511cf9afc6f310]
link asdi::visitor::RelationVisitor to asdi::edb::Fact--><path codeLine="48" d="M216.61,456.06 C235.88,481.18 269.61,525.15 289.04,550.5 " fill="none" id="asdi::visitor::RelationVisitor-to-asdi::edb::Fact" style="stroke:#A80036;stroke-width:1.0;stroke-dasharray:7.0,7.0;"/><polygon fill="#A80036" points="292.27,554.7,289.9548,545.1271,289.2221,550.7363,283.6129,550.0037,292.27,554.7" style="stroke:#A80036;stroke-width:1.0;"/><!--MD5=[7e12fd5c91ccc392961c21c89e14048a]
link asdi::visitor::RuleVisitor to asdi::idb::Rule--><path codeLine="50" d="M352.75,456.06 C368.17,481.07 395.13,524.79 410.78,550.18 " fill="none" id="asdi::visitor::RuleVisitor-to-asdi::idb::Rule" style="stroke:#A80036;stroke-width:1.0;stroke-dasharray:7.0,7.0;"/><polygon fill="#A80036" points="413.57,554.7,412.2689,544.9375,410.9535,550.4393,405.4517,549.1239,413.57,554.7" style="stroke:#A80036;stroke-width:1.0;"/><!--MD5=[ecb9e238fbfdf9c43098799f4d0110c5]
link asdi::visitor::QueryVisitor to asdi::idb::query::Query--><path codeLine="52" d="M484.43,456.14 C493.93,471.64 509.46,492.7 529,504 C547.72,514.83 557.15,503.41 577,512 C598.58,521.34 619.55,538.11 633.98,551.22 " fill="none" id="asdi::visitor::QueryVisitor-to-asdi::idb::query::Query" style="stroke:#A80036;stroke-width:1.0;stroke-dasharray:7.0,7.0;"/><polygon fill="#A80036" points="637.87,554.81,633.948,545.7757,634.1878,551.4275,628.536,551.6673,637.87,554.81" style="stroke:#A80036;stroke-width:1.0;"/><!--MD5=[ca3cb38358d6aacb05b730d9d4362850]
link asdi::visitor::features to asdi::visitor::ProgramVisitor--><path codeLine="59" d="M447.2,156.1 C453.22,173.79 459.72,195.74 463,216 C468.26,248.43 468.14,286.47 467.3,310.65 " fill="none" id="asdi::visitor::features-to-asdi::visitor::ProgramVisitor" style="stroke:#A80036;stroke-width:1.0;stroke-dasharray:7.0,7.0;"/><polygon fill="#A80036" points="467.1,315.89,471.4313,307.0447,467.2856,310.8934,463.4368,306.7477,467.1,315.89" style="stroke:#A80036;stroke-width:1.0;"/><!--MD5=[99cc7cb08ee19196de509c3f39004e93]
link asdi::visitor::features to asdi::visitor::Formatter--><path codeLine="60" d="M424.14,156.13 C419.19,173.77 413.31,194.69 408.86,210.55 " fill="none" id="asdi::visitor::features-to-asdi::visitor::Formatter" style="stroke:#A80036;stroke-width:1.0;stroke-dasharray:7.0,7.0;"/><polygon fill="#A80036" points="407.41,215.73,413.7019,208.1529,408.7666,210.9176,406.002,205.9823,407.41,215.73" style="stroke:#A80036;stroke-width:1.0;"/><!--MD5=[9491214adb45f781f8b5b9eed1056f9f]
@startuml

!include options.plantuml

class asdi::Program
hide "asdi::Program" members

class asdi::edb::RelationSet
hide "asdi::edb::RelationSet" members

class asdi::edb::Relation
hide "asdi::edb::Relation" members

class asdi::edb::Fact
hide "asdi::edb::Fact" members

class asdi::idb::RuleSet
hide "asdi::idb::RuleSet" members

class asdi::idb::Rule
hide "asdi::idb::Rule" members

class asdi::idb::query::QuerySet
hide "asdi::idb::query::QuerySet" members

class asdi::idb::query::Query
hide "asdi::idb::query::Query" members

namespace asdi::visitor {

    interface Formatter

    interface ProgramVisitor
    interface RelationVisitor
    interface RuleVisitor
    interface QueryVisitor

    Formatter - -|> "<String>" ProgramVisitor

    ProgramVisitor ..> RelationVisitor
    ProgramVisitor ..> RuleVisitor
    ProgramVisitor ..> QueryVisitor
    ProgramVisitor ..> asdi::Program
    ProgramVisitor ..> asdi::edb::RelationSet
    ProgramVisitor ..> asdi::idb::RuleSet
    ProgramVisitor ..> asdi::idb::query::QuerySet

    RelationVisitor ..> asdi::edb::Relation
    RelationVisitor ..> asdi::edb::Fact

    RuleVisitor ..> asdi::idb::Rule

    QueryVisitor ..> asdi::idb::query::Query

    class features << module >> {
        format_program() : String
        visit_program<T>() : T
    }

    features ..> ProgramVisitor
    features ..> Formatter
}

@enduml

@startuml

set namespaceSeparator ::
hide enum methods
hide interface fields
hide << const >> members
hide << type >> members
hide << type >> stereotype
hide << module >> fields
hide << module >> circle

class asdi::Program
hide "asdi::Program" members

class asdi::edb::RelationSet
hide "asdi::edb::RelationSet" members

class asdi::edb::Relation
hide "asdi::edb::Relation" members

class asdi::edb::Fact
hide "asdi::edb::Fact" members

class asdi::idb::RuleSet
hide "asdi::idb::RuleSet" members

class asdi::idb::Rule
hide "asdi::idb::Rule" members

class asdi::idb::query::QuerySet
hide "asdi::idb::query::QuerySet" members

class asdi::idb::query::Query
hide "asdi::idb::query::Query" members

namespace asdi::visitor {

    interface Formatter

    interface ProgramVisitor
    interface RelationVisitor
    interface RuleVisitor
    interface QueryVisitor

    Formatter - -|> "<String>" ProgramVisitor

    ProgramVisitor ..> RelationVisitor
    ProgramVisitor ..> RuleVisitor
    ProgramVisitor ..> QueryVisitor
    ProgramVisitor ..> asdi::Program
    ProgramVisitor ..> asdi::edb::RelationSet
    ProgramVisitor ..> asdi::idb::RuleSet
    ProgramVisitor ..> asdi::idb::query::QuerySet

    RelationVisitor ..> asdi::edb::Relation
    RelationVisitor ..> asdi::edb::Fact

    RuleVisitor ..> asdi::idb::Rule

    QueryVisitor ..> asdi::idb::query::Query

    class features << module >> {
        format_program() : String
        visit_program<T>() : T
    }

    features ..> ProgramVisitor
    features ..> Formatter
}

@enduml

PlantUML version 1.2022.1(Tue Feb 01 10:19:58 PST 2022)
(GPL source distribution)
Java Runtime: OpenJDK Runtime Environment
JVM: OpenJDK 64-Bit Server VM
Default Encoding: UTF-8
Language: en
Country: US
--></g></svg>